<svg xmlns="http://www.w3.org/2000/svg" viewBox="0 0 1280 510">
  <g>
    <path d="M524,84.91h-8.1v6.87h-1.49V84.91h-7.94V83.47h7.94V76.62h-6.92V75.18h15.37v1.44h-7v6.85H524Zm-13.8-7.33A18.66,18.66,0,0,1,512,82l-1.37.47a23.26,23.26,0,0,0-1.77-4.5Zm7.8,4.54a29,29,0,0,0,2.12-4.64l1.54.43a38.29,38.29,0,0,1-2.42,4.62Z" fill="#4c4948"/>
    <path d="M532.1,84.53l.31,1.3c-2.06,1-4.26,1.94-5.95,2.69l-.57-1.43c.73-.28,1.65-.67,2.67-1.06V79.94h-2.34v-1.4h2.34V74.08h1.38v4.46h2.14v1.4h-2.14v5.5ZM543.57,77v.77C543.31,87,543.06,90,542.31,91a2,2,0,0,1-1.57.82,22.58,22.58,0,0,1-2.85,0,3.3,3.3,0,0,0-.49-1.43c1.26.12,2.4.12,2.85.12a.81.81,0,0,0,.78-.32c.65-.67.91-3.83,1.12-11.78h-6.59a17.24,17.24,0,0,1-1.91,3.2,8.63,8.63,0,0,0-1.22-.77,18.66,18.66,0,0,0,3.34-6.93l1.34.33a22.87,22.87,0,0,1-1,2.81Zm-8.92,8.45h6.27v1.29h-6.27Zm5.78-4.09v1.28h-4.89V81.35Z" fill="#4c4948"/>
    <path d="M552.11,88.42l4.08-.76.1,1.27c-3.48.67-7.19,1.38-9.76,1.89l-.32-1.38c1.2-.19,2.79-.49,4.5-.78v-3.3h-3.83v-1.3h3.83V81.94h1.4v2.12H556v1.3h-3.9Zm-5.74-13.28h10v1.3H551.1a25.74,25.74,0,0,1-2.25,3.65l5-.43c-.48-.69-1-1.35-1.46-1.94l1-.63a27,27,0,0,1,3,4.2l-1.12.73a13.22,13.22,0,0,0-.69-1.22c-6.11.59-6.81.67-7.29.89a9.85,9.85,0,0,0-.49-1.38c.32-.06.61-.39.94-.86a18.15,18.15,0,0,0,1.71-3h-3.1Zm12.49,12.22h-1.37V75.56h1.37Zm3.91-13.18V89.5c0,.93-.21,1.38-.8,1.59a9.92,9.92,0,0,1-3.07.28,5.66,5.66,0,0,0-.53-1.44h2.56c.34,0,.41-.1.41-.44V74.18Z" fill="#4c4948"/>
    <path d="M575,87.05h-9.6V85.73h1.9v-8h-1.65V76.44h1.65V74.06h1.34v2.38h3.55V74.06h1.36v2.38H575v1.32h-1.43v8H575Zm-5.48.78a12.75,12.75,0,0,1-2.9,4,9.1,9.1,0,0,0-1.19-.84,10.14,10.14,0,0,0,2.7-3.5Zm-.86-10.07v1.73h3.55V77.76Zm0,4.83h3.55V80.66h-3.55Zm0,3.14h3.55v-2h-3.55ZM572,87.46a14.12,14.12,0,0,1,2.07,2.91l-1.18.69a15.52,15.52,0,0,0-2-3Zm10.71,2.46c0,.86-.21,1.29-.74,1.53a9.06,9.06,0,0,1-2.93.27,5,5,0,0,0-.46-1.41h2.3c.3,0,.42-.1.42-.41V85.18h-4.15a15.52,15.52,0,0,1-1.86,6.72,4.27,4.27,0,0,0-1.16-.86c1.63-2.6,1.78-6.31,1.78-9.12V74.83h6.8Zm-1.41-6V80.6h-4v3.32Zm-4-7.71v3.13h4V76.16Z" fill="#4c4948"/>
    <path d="M603,90v1.27H591.1V90H593V79h2.69c.1-.5.19-1.06.31-1.63h-3.8V76.13H589c-.16.9-.36,1.78-.55,2.63H591l.85.24c-.69,6.42-2.72,10.62-5.6,12.8a4,4,0,0,0-1-1,11.15,11.15,0,0,0,3.71-5,24.13,24.13,0,0,0-2.2-2.32,9.26,9.26,0,0,1-.85,1.46,6.83,6.83,0,0,0-.94-1,19.36,19.36,0,0,0,2.71-7.76h-2.2V74.75h6.72V76h4c.11-.77.21-1.51.27-2.18l1.59.1c-.12.64-.25,1.37-.41,2.08h4.81v1.26h-5.07c-.13.57-.25,1.13-.39,1.63h4.34V90Zm-14.84-9.87a17.33,17.33,0,0,1-.76,2.2c.72.65,1.53,1.42,2.18,2.09a25.22,25.22,0,0,0,.92-4.29ZM594.4,80v1.66h5.54V80Zm5.54,2.73H594.4V84.4h5.54ZM594.4,85.5v1.69h5.54V85.5Zm0,4.46h5.54V88.27H594.4Z" fill="#4c4948"/>
    <path d="M610.69,79.74h4V81.1h-4v.53c.95.88,3.21,3.14,3.79,3.73l-.86,1.2c-.59-.75-1.9-2.18-2.93-3.28v8.48h-1.45V83.33a21.35,21.35,0,0,1-3.71,5.76,11.74,11.74,0,0,0-.81-1.37A20,20,0,0,0,609,81.1h-3.83V79.74h4.12V76.4c-1.28.26-2.55.45-3.77.63a4,4,0,0,0-.45-1.16A37.75,37.75,0,0,0,613.13,74l1.08,1.13a28.78,28.78,0,0,1-3.52,1Zm7,7.21h-1.44V76.19h1.44Zm4.16-12.87V89.76c0,1-.27,1.43-.88,1.67a11.15,11.15,0,0,1-3.5.29,7,7,0,0,0-.53-1.47h3c.4,0,.51-.12.51-.51V74.08Z" fill="#4c4948"/>
    <path d="M642.35,87.66h-8V91.8h-1.53V87.66h-8V86.3h8V84.69h1.53V86.3h8Zm-12.3-5.11c-1.49.81-3.08,1.65-4.38,2.3L625,83.67c1.21-.49,3-1.36,4.81-2.2ZM636.77,85a4.79,4.79,0,0,0-.53-1c-5.1.5-5.79.59-6.19.79a12,12,0,0,0-.43-1.28,4.12,4.12,0,0,0,1.63-1c.37-.31,1.22-1.08,2.16-2a10.89,10.89,0,0,0-3,.39,6.71,6.71,0,0,0-.42-1.24,1.57,1.57,0,0,0,.87-.62,14,14,0,0,0,1.51-2h-7.15V75.62h8c-.28-.53-.58-1-.91-1.54l1.42-.37a12.79,12.79,0,0,1,1.16,1.91h7.28V77H633.9A21.39,21.39,0,0,1,632,79.4l2.49-.16a18.79,18.79,0,0,0,1.32-1.63l1.2.69a39.15,39.15,0,0,1-5,4.89l3.43-.28a11.18,11.18,0,0,0-1-1.25l1.08-.45a14.63,14.63,0,0,1,2.26,3.3ZM626.5,77.76a17.12,17.12,0,0,1,3,2.22l-1,.88a16,16,0,0,0-2.94-2.3ZM640.88,85A25.94,25.94,0,0,0,637,82.29l1-.78a24.44,24.44,0,0,1,4,2.67Zm.33-6.6a19.69,19.69,0,0,1-2.93,2.46l-1.06-.69A16.77,16.77,0,0,0,640,77.7Z" fill="#4c4948"/>
    <path d="M645.58,80.41l1.24-2-2.14-.88.35-1,2.24.55.2-2.38h1.06l.2,2.36,2.23-.53.34,1-2.14.88,1.25,2-.86.63L648,79.17,646.45,81Z" fill="#4c4948"/>
  </g>
  <g>
    <path d="M57.91,340.35c3.44,0,4.6,3.27,4.6,6.33S61.35,353,57.91,353s-4.59-3.25-4.59-6.31S54.45,340.35,57.91,340.35Zm0,11.7c2.46,0,3.55-2.32,3.55-5.37s-1.09-5.39-3.55-5.39-3.54,2.33-3.54,5.39,1.07,5.37,3.54,5.37Z" fill="#4c4948"/>
    <path d="M65.79,351a.91.91,0,0,1,.91.91h0a.91.91,0,1,1-.91-.91Z" fill="#4c4948"/>
    <path d="M73.68,340.35c3.44,0,4.6,3.27,4.6,6.33S77.12,353,73.68,353s-4.59-3.25-4.59-6.31S70.22,340.35,73.68,340.35Zm0,11.7c2.46,0,3.54-2.32,3.54-5.37s-1.08-5.39-3.54-5.39-3.55,2.33-3.55,5.39,1.07,5.37,3.55,5.37Z" fill="#4c4948"/>
    <path d="M82.86,345.72a2.65,2.65,0,1,1,2.65-2.65h0a2.64,2.64,0,0,1-2.63,2.65Zm0-.86A1.79,1.79,0,1,0,81.13,343v.06a1.73,1.73,0,0,0,1.67,1.79Zm-1,7.91L90,340.57h1l-8.14,12.2Zm8.19-5.14a2.64,2.64,0,1,1-2.65,2.63,2.64,2.64,0,0,1,2.65-2.63h0Zm0,.86a1.78,1.78,0,1,0,1.72,1.84v-.07a1.72,1.72,0,0,0-1.69-1.77h0Z" fill="#4c4948"/>
  </g>
  <g>
    <path d="M62.14,318.49h-1V308.27a4.32,4.32,0,0,1-3,1.43v-.89a3.39,3.39,0,0,0,3.11-2.52h1Z" fill="#4c4948"/>
    <path d="M65.79,316.76a.91.91,0,0,1,.91.91h0a.91.91,0,0,1-1.81,0,.9.9,0,0,1,.89-.91Z" fill="#4c4948"/>
    <path d="M73.68,306.07c3.44,0,4.6,3.27,4.6,6.33s-1.16,6.32-4.6,6.32-4.59-3.25-4.59-6.32S70.22,306.07,73.68,306.07Zm0,11.7c2.46,0,3.54-2.32,3.54-5.37s-1.08-5.4-3.54-5.4-3.55,2.32-3.55,5.38,1.07,5.39,3.55,5.39Z" fill="#4c4948"/>
    <path d="M82.86,311.44a2.64,2.64,0,1,1,2.65-2.65,2.64,2.64,0,0,1-2.65,2.65Zm0-.86a1.78,1.78,0,1,0-1.73-1.83v0a1.73,1.73,0,0,0,1.67,1.79Zm-1,7.91L90,306.29h1l-8.14,12.2Zm8.19-5.14A2.64,2.64,0,1,1,87.42,316a2.64,2.64,0,0,1,2.63-2.65h0Zm0,.86A1.78,1.78,0,1,0,91.79,316v0a1.73,1.73,0,0,0-1.67-1.79h-.07Z" fill="#4c4948"/>
  </g>
  <line x1="103.13" y1="313.54" x2="1232" y2="313.54" fill="none" stroke="#9e9e9f" stroke-miterlimit="10" stroke-width="0.5"/>
  <g>
    <path d="M54.5,284.22c0-1.89,1-3.27,3-4.63l1.81-1.22a3.73,3.73,0,0,0,2-3,2.59,2.59,0,0,0-2.5-2.66h-.26a2.81,2.81,0,0,0-3,2.61,2.54,2.54,0,0,0,0,.39,2.81,2.81,0,0,0,0,.58l-1.07-.15v-.55a3.84,3.84,0,0,1,3.86-3.82h.14A3.53,3.53,0,0,1,62.31,275c0,.12,0,.25,0,.37,0,2.7-2.81,4-4.92,5.4a3.66,3.66,0,0,0-1.7,2.44h6.77v1Z" fill="#4c4948"/>
    <path d="M65.79,282.48a.93.93,0,0,1,.91.92.91.91,0,1,1-.91-.92Z" fill="#4c4948"/>
    <path d="M73.68,271.8c3.44,0,4.6,3.27,4.6,6.33s-1.16,6.31-4.6,6.31-4.59-3.25-4.59-6.31S70.22,271.8,73.68,271.8Zm0,11.7c2.46,0,3.54-2.32,3.54-5.37s-1.08-5.39-3.54-5.39-3.55,2.33-3.55,5.39S71.2,283.5,73.68,283.5Z" fill="#4c4948"/>
    <path d="M82.86,277.17a2.65,2.65,0,1,1,2.65-2.65h0a2.64,2.64,0,0,1-2.63,2.65Zm0-.86a1.79,1.79,0,1,0-1.73-1.85v.06a1.73,1.73,0,0,0,1.67,1.79Zm-1,7.91L90,272h1l-8.14,12.2Zm8.19-5.14a2.64,2.64,0,1,1-2.65,2.63,2.64,2.64,0,0,1,2.65-2.63h0Zm0,.86a1.78,1.78,0,1,0,1.72,1.84v-.07a1.72,1.72,0,0,0-1.69-1.77h0Z" fill="#4c4948"/>
  </g>
  <line x1="103.13" y1="279.26" x2="1232" y2="279.26" fill="none" stroke="#9e9e9f" stroke-miterlimit="10" stroke-width="0.5"/>
  <g>
    <path d="M62.56,246.35c0,2.25-1.86,3.82-4.27,3.82a4.11,4.11,0,0,1-4.37-3.7l1-.24a3.17,3.17,0,0,0,3.33,3h0a2.94,2.94,0,0,0,3.17-2.69.76.76,0,0,0,0-.15,2.74,2.74,0,0,0-2.72-2.76h-.28a4.48,4.48,0,0,0-1.15.15l-.52-.89,4.1-4.15H54.23v-1H62.3v1l-4,4.06a3.92,3.92,0,0,1,.59-.05,3.51,3.51,0,0,1,3.67,3.32Z" fill="#4c4948"/>
    <path d="M65.79,248.21a.91.91,0,0,1,.91.91h0a.91.91,0,0,1-1.81,0,.9.9,0,0,1,.89-.91Z" fill="#4c4948"/>
    <path d="M73.68,237.52c3.44,0,4.6,3.27,4.6,6.33s-1.16,6.32-4.6,6.32-4.59-3.25-4.59-6.32S70.22,237.52,73.68,237.52Zm0,11.7c2.46,0,3.54-2.32,3.54-5.37s-1.08-5.38-3.54-5.38-3.55,2.32-3.55,5.38S71.2,249.22,73.68,249.22Z" fill="#4c4948"/>
    <path d="M82.86,242.89a2.64,2.64,0,1,1,2.65-2.65,2.64,2.64,0,0,1-2.65,2.65Zm0-.86a1.78,1.78,0,1,0-1.73-1.83v0a1.72,1.72,0,0,0,1.7,1.76h0Zm-1,7.91L90,237.74h1l-8.14,12.2Zm8.19-5.14a2.64,2.64,0,1,1-2.65,2.63,2.64,2.64,0,0,1,2.65-2.63h0Zm0,.86a1.78,1.78,0,1,0,1.72,1.84v-.07a1.72,1.72,0,0,0-1.69-1.77h0Z" fill="#4c4948"/>
  </g>
  <line x1="103.13" y1="244.99" x2="1232" y2="244.99" fill="none" stroke="#9e9e9f" stroke-miterlimit="10" stroke-width="0.5"/>
  <g>
    <path d="M53.63,211.4l5.61-7.93h1.55v8.23H63v1H60.79v3h-1v-3H53.63Zm6.12-7-5.13,7.27h5.13Z" fill="#4c4948"/>
    <path d="M65.79,213.93a.91.91,0,0,1,.91.91h0a.91.91,0,1,1-.91-.91Z" fill="#4c4948"/>
    <path d="M73.68,203.25c3.44,0,4.6,3.27,4.6,6.33s-1.16,6.31-4.6,6.31-4.59-3.25-4.59-6.31S70.22,203.25,73.68,203.25Zm0,11.7c2.46,0,3.54-2.33,3.54-5.37s-1.08-5.39-3.54-5.39-3.55,2.33-3.55,5.39S71.2,215,73.68,215Z" fill="#4c4948"/>
    <path d="M82.86,208.62A2.65,2.65,0,1,1,85.51,206v0A2.64,2.64,0,0,1,82.86,208.62Zm0-.86a1.79,1.79,0,1,0-1.73-1.85V206a1.72,1.72,0,0,0,1.7,1.76Zm-1,7.91L90,203.47h1l-8.14,12.2Zm8.19-5.14a2.64,2.64,0,1,1-2.65,2.63,2.64,2.64,0,0,1,2.65-2.63h0Zm0,.86a1.78,1.78,0,1,0,1.72,1.84v-.07a1.72,1.72,0,0,0-1.69-1.77h0Z" fill="#4c4948"/>
  </g>
  <line x1="103.13" y1="210.71" x2="1232" y2="210.71" fill="none" stroke="#9e9e9f" stroke-miterlimit="10" stroke-width="0.5"/>
  <g>
    <path d="M55.09,177.73a3.17,3.17,0,0,0,3.27,2.94,3.08,3.08,0,1,0,0-6.16,3.78,3.78,0,0,0-2.76,1.24l-1.06-.43,1.56-6.12h6.06v1H56.83l-1.15,4.56a4.09,4.09,0,0,1,7,2.85,4,4,0,0,1-4,4H58.4A4.09,4.09,0,0,1,54.1,178Z" fill="#4c4948"/>
    <path d="M65.79,179.66a.91.91,0,0,1,.91.91h0a.91.91,0,0,1-1.81,0,.9.9,0,0,1,.89-.91Z" fill="#4c4948"/>
    <path d="M73.68,169c3.44,0,4.6,3.27,4.6,6.33s-1.16,6.32-4.6,6.32-4.59-3.25-4.59-6.32S70.22,169,73.68,169Zm0,11.7c2.46,0,3.54-2.32,3.54-5.37S76.14,170,73.68,170s-3.55,2.32-3.55,5.38,1.07,5.34,3.55,5.34Z" fill="#4c4948"/>
    <path d="M82.86,174.34a2.64,2.64,0,1,1,2.65-2.65,2.64,2.64,0,0,1-2.65,2.65Zm0-.86a1.78,1.78,0,1,0-1.73-1.83v0a1.72,1.72,0,0,0,1.65,1.79Zm-1,7.92L90,169.2h1l-8.1,12.2Zm8.19-5.15a2.64,2.64,0,1,1-2.65,2.63,2.64,2.64,0,0,1,2.65-2.63h0Zm0,.86A1.78,1.78,0,1,0,91.77,179v-.07a1.72,1.72,0,0,0-1.69-1.77h0Z" fill="#4c4948"/>
  </g>
  <line x1="103.13" y1="176.44" x2="1232" y2="176.44" fill="none" stroke="#9e9e9f" stroke-miterlimit="10" stroke-width="0.5"/>
  <g>
    <path d="M63.29,101.73a16.85,16.85,0,0,0-5.53,11.12H56.65a17.46,17.46,0,0,1,5.51-11.22H54.61v-1h8.68Z" fill="#4c4948"/>
    <path d="M65.79,111.11a.91.91,0,0,1,.91.91h0a.91.91,0,0,1-1.81,0,.9.9,0,0,1,.89-.91Z" fill="#4c4948"/>
    <path d="M73.68,100.42c3.44,0,4.59,3.27,4.59,6.33s-1.15,6.32-4.59,6.32-4.6-3.25-4.6-6.32S70.22,100.42,73.68,100.42Zm0,11.7c2.46,0,3.54-2.32,3.54-5.37s-1.08-5.38-3.54-5.38-3.55,2.32-3.55,5.38S71.2,112.12,73.68,112.12Z" fill="#4c4948"/>
    <path d="M82.86,105.79a2.64,2.64,0,1,1,2.65-2.65,2.64,2.64,0,0,1-2.65,2.65Zm0-.86a1.78,1.78,0,1,0-1.74-1.82v0a1.73,1.73,0,0,0,1.67,1.79Zm-1,7.92L90,100.65h1l-8.13,12.2Zm8.19-5.15a2.64,2.64,0,1,1-2.65,2.63,2.64,2.64,0,0,1,2.65-2.63h0Zm0,.86a1.78,1.78,0,1,0,1.72,1.84v-.07a1.72,1.72,0,0,0-1.69-1.77h0Z" fill="#4c4948"/>
  </g>
  <line x1="103.13" y1="108.9" x2="1232" y2="108.9" fill="none" stroke="#9e9e9f" stroke-miterlimit="10" stroke-width="0.5"/>
  <line x1="29" y1="396.11" x2="1232" y2="396.11" fill="none" stroke="#9e9e9f" stroke-miterlimit="10"/>
  <g>
    <path d="M62.63,143.28a4.11,4.11,0,0,1-4.13,4.07h-.18c-2.58,0-4.55-2-4.55-5.67,0-4.63,2.75-7,5.93-7a4.9,4.9,0,0,1,2.62.67l-.35.91a4.2,4.2,0,0,0-2.32-.6c-3.24,0-4.8,2.77-4.87,5.82a4.13,4.13,0,0,1,7.85,1.78Zm-4.29,3.14a3.09,3.09,0,0,0,3.2-3v-.17a3,3,0,0,0-2.82-3.17h-.34a3.19,3.19,0,0,0-3.24,3.14v0a3.13,3.13,0,0,0,3.11,3.15Z" fill="#4c4948"/>
    <path d="M65.79,145.38a.91.91,0,0,1,.91.91h0a.91.91,0,1,1-.91-.91Z" fill="#4c4948"/>
    <path d="M73.68,134.7c3.44,0,4.59,3.27,4.59,6.33s-1.15,6.31-4.59,6.31-4.6-3.25-4.6-6.31S70.22,134.7,73.68,134.7Zm0,11.7c2.46,0,3.54-2.32,3.54-5.37s-1.08-5.38-3.54-5.38S70.13,138,70.13,141,71.2,146.4,73.68,146.4Z" fill="#4c4948"/>
    <path d="M82.86,140.07a2.65,2.65,0,1,1,2.65-2.65h0a2.64,2.64,0,0,1-2.63,2.65Zm0-.86a1.78,1.78,0,1,0-1.74-1.82v0a1.74,1.74,0,0,0,1.69,1.79Zm-1,7.91L90,134.92h1l-8.13,12.2ZM90.07,142a2.64,2.64,0,1,1-2.65,2.63A2.64,2.64,0,0,1,90.07,142Zm0,.86a1.78,1.78,0,1,0,1.72,1.84v-.07a1.73,1.73,0,0,0-1.67-1.79h-.05Z" fill="#4c4948"/>
  </g>
  <line x1="103.13" y1="142.16" x2="1232" y2="142.16" fill="none" stroke="#9e9e9f" stroke-miterlimit="10" stroke-width="0.5"/>
  <line x1="103.13" y1="347.81" x2="1232" y2="347.81" fill="none" stroke="#9e9e9f" stroke-miterlimit="10" stroke-width="0.5"/>
  <rect x="480.76" y="73.84" width="16.44" height="16.44" fill="#0068b6"/>
  <g>
    <path d="M728.76,89.29v1.43H711.41V89.29h4.78c.39-1.79.8-4.09,1.19-6.43h-3.65V81.43h3.89c.24-1.45.45-2.91.63-4.22h-5.6V75.77h14.69v1.44H719.8c-.2,1.31-.41,2.79-.65,4.22h5l.26-.08,1.12.12c-.14,2.16-.42,5.26-.71,7.82Zm-9.83-6.43c-.37,2.34-.78,4.64-1.15,6.43h5.48c.21-2.1.45-4.62.6-6.43Z" fill="#4c4948"/>
    <path d="M748.67,87.3h-7.11v4.5h-1.48V87.3H731V85.89h3.22V80.63h5.85v-3H735.3a18.16,18.16,0,0,1-3,3.87,7.53,7.53,0,0,0-1.26-.92,16.71,16.71,0,0,0,4.43-6.78l1.47.35c-.28.69-.59,1.4-.9,2.06h11.7v1.42h-6.2v3h5.75V82h-5.75v3.89h7.11Zm-8.59-1.41V82h-4.4v3.89Z" fill="#4c4948"/>
    <path d="M768.44,87.3h-7.11v4.5h-1.48V87.3h-9.07V85.89H754V80.63h5.85v-3h-4.77a18.16,18.16,0,0,1-3,3.87,8.84,8.84,0,0,0-1.26-.92,16.68,16.68,0,0,0,4.42-6.78l1.47.35c-.27.69-.59,1.4-.9,2.06h11.7v1.42h-6.2v3h5.75V82h-5.75v3.89h7.11Zm-8.59-1.41V82h-4.4v3.89Z" fill="#4c4948"/>
    <path d="M777.05,74.38a28.24,28.24,0,0,1-2,3.71V91.8h-1.42V80.17a23.6,23.6,0,0,1-2.65,3,11.61,11.61,0,0,0-.82-1.46,22,22,0,0,0,5.5-7.77Zm8.29,15.42c1.1,0,1.26-.87,1.42-4.23a3.8,3.8,0,0,0,1.35.67c-.23,3.64-.63,4.89-2.69,4.89h-3.73c-2,0-2.56-.57-2.56-2.65V74.16h1.42V79.5h7v1.42h-7v7.6c0,1,.22,1.28,1.24,1.28Z" fill="#4c4948"/>
    <path d="M793.58,82.45a20.33,20.33,0,0,0-3.46-2.1l.85-1.06a22.06,22.06,0,0,1,3.46,2Zm1.36,2.77a64.78,64.78,0,0,1-3.05,6.31l-1.27-.89a58.82,58.82,0,0,0,3.2-6.28Zm-.37-7.88a20.07,20.07,0,0,0-3.38-2.25l.82-1a18.09,18.09,0,0,1,3.4,2.12Zm12.09,4.52a14.63,14.63,0,0,1-3.31,6.21,12.87,12.87,0,0,0,4.91,2.47,5.55,5.55,0,0,0-1,1.26,13.93,13.93,0,0,1-5-2.75,15.46,15.46,0,0,1-4.81,2.79,5.59,5.59,0,0,0-.94-1.22,14.57,14.57,0,0,0,4.73-2.55,16.45,16.45,0,0,1-3.12-5.27h-.49c-.1,2.89-.61,6.47-2.54,9a4.42,4.42,0,0,0-1.21-.74c2.14-2.72,2.35-6.58,2.35-9.41v-5H801V73.85h1.43v2.83h4.32l.24-.06,1,.29a27.46,27.46,0,0,1-1.67,4l-1.24-.39c.32-.63.67-1.54,1-2.42h-3.69v3.44h3l.27-.06Zm-8.95-3.81v3.44H801V78.05Zm1.84,4.75a13.33,13.33,0,0,0,2.76,4.33,12.21,12.21,0,0,0,2.57-4.33Z" fill="#4c4948"/>
    <path d="M827.3,78.46v.73c-.23,8.21-.43,10.88-1.06,11.71a1.63,1.63,0,0,1-1.39.74,18.9,18.9,0,0,1-2.38,0,3.52,3.52,0,0,0-.41-1.31c1,.08,1.86.08,2.24.08a.72.72,0,0,0,.7-.3c.47-.57.71-3.24.91-10.29H823.1c-.24,5.36-1.12,9.58-4.6,12.18a4.12,4.12,0,0,0-1.14-1.14,7.32,7.32,0,0,0,.87-.69c-3,.37-6,.71-8.14,1l-.23-1.29c1.16-.08,2.63-.22,4.24-.38V87.73h-3.71V86.62h3.71V85.46h-3.65V79.6h3.65V78.36h-4.22V77.23h4.22V76c-1.26.1-2.53.18-3.69.22a4.09,4.09,0,0,0-.36-1.07,60.4,60.4,0,0,0,8.47-1l.79,1.08a31.83,31.83,0,0,1-3.87.63v1.4h4.16v1.13h-4.16V79.6h3.81v5.86h-3.81v1.16h3.87v1.11h-3.87v1.6c1.27-.14,2.61-.28,3.93-.44h0c1.67-2.29,2.18-5.38,2.33-9.09h-2.27V78.46h2.33v-4.3h1.4c0,1.5,0,2.93-.06,4.3ZM811.65,82h2.45V80.63h-2.45Zm2.45,2.41V83h-2.45v1.43Zm1.34-3.8V82H818V80.63ZM818,83h-2.55v1.43H818Z" fill="#4c4948"/>
    <path d="M832.6,81.1c0,3.12-.24,7.62-1.89,10.7a5.34,5.34,0,0,0-1.3-.67c1.59-2.94,1.75-7.11,1.75-10V75.81h7.56c-.23-.55-.51-1.2-.78-1.71l1.43-.35a14.49,14.49,0,0,1,1,2.06h6.81v1.36H832.6Zm13,4.42a9.81,9.81,0,0,1-4.07,3.85,25.19,25.19,0,0,0,5.9,1.17,5.61,5.61,0,0,0-.83,1.26,23.56,23.56,0,0,1-6.7-1.69A27.86,27.86,0,0,1,833,91.68a5.57,5.57,0,0,0-.63-1.21,28.51,28.51,0,0,0,6-1.14,9.89,9.89,0,0,1-3.16-2.77l.69-.28h-2.58v-1.2h11.1l.28-.08Zm-9.39-1.69V80.59h-3.14V79.37h3.14V77.68h1.4v1.69h4.75V77.68h1.43v1.69H847v1.22h-3.17v3.24Zm.43,2.45a3.57,3.57,0,0,0,6.78,0Zm1-5.69v2.06h4.75V80.59Z" fill="#4c4948"/>
  </g>
  <rect x="685.62" y="73.84" width="16.44" height="16.44" fill="#f5ab18"/>
  <g>
    <g>
      <path d="M225.54,362.05a20.27,20.27,0,0,0,8.33,6.7,5.8,5.8,0,0,0-1.08,1.24,24,24,0,0,1-8-6.54,30.26,30.26,0,0,1-8.17,6.77,5.67,5.67,0,0,0-.89-1.23,25.09,25.09,0,0,0,7.37-5.56h-3.5v-1.38Zm-.08,15.52h7.59v1.33H216.51v-1.33H224v-3.28h-5.5V373H224v-3h-4.7v-1.32h10.92V370h-4.76v3H231v1.3h-5.56Z" fill="#4c4948"/>
      <path d="M242.05,375.39c-2.18.69-4.49,1.41-6.26,2l-.32-1.41c.71-.2,1.59-.45,2.58-.75v-5.4h-2.2v-1.37h2.2v-4.27h-2.36v-1.37h6v1.37h-2.26v4.27h2v1.37h-2v5l2.42-.77ZM253.21,368a43.3,43.3,0,0,1-3.42,4.23,11.27,11.27,0,0,0,4,4.65,3.36,3.36,0,0,0-.92,1.1,12.42,12.42,0,0,1-4.54-5.91v5.5c0,.88-.24,1.29-.77,1.53a7.44,7.44,0,0,1-3,.32A6.56,6.56,0,0,0,244,378h2.43c.29,0,.43-.12.43-.45V373c-1.61,1.63-3.28,3.24-4.61,4.5l-.9-1.26c1.33-1.1,3.49-3,5.51-4.85v-5.1h-4.75V364.9h4.75v-3.4h1.42v3.4h5.15v1.36h-5.15v.7a24.16,24.16,0,0,0,1,4.11,28.39,28.39,0,0,0,2.63-3.72Zm-9.62-.57a16,16,0,0,1,2.14,3.64l-1.2.57a17.34,17.34,0,0,0-2.08-3.68Zm8-2.83a11.6,11.6,0,0,0-2.32-2.16l.85-.76a14.12,14.12,0,0,1,2.36,2Z" fill="#4c4948"/>
      <path d="M262.34,362.56a26.17,26.17,0,0,1-5.76,8.35,11.17,11.17,0,0,0-1.3-1.18,20.28,20.28,0,0,0,5.47-7.66Zm5.51,9.33a59.61,59.61,0,0,1,4.4,6.6l-1.45.81c-.27-.55-.65-1.18-1.06-1.89-10.17.71-11.25.77-12,1a8.74,8.74,0,0,0-.57-1.55c.53-.12,1.1-.76,1.85-1.69a43.28,43.28,0,0,0,5-7.74l1.63.69a52.1,52.1,0,0,1-5.76,8.43l9.08-.51c-.77-1.22-1.65-2.5-2.44-3.54Zm.42-9.9a14.22,14.22,0,0,0,5.2,7.56,8.22,8.22,0,0,0-1.14,1.36,16.44,16.44,0,0,1-5.16-7.44h-3.66V362Z" fill="#4c4948"/>
      <path d="M280.81,361.89a28.2,28.2,0,0,1-1.91,4v13.38h-1.41V368.12a23.37,23.37,0,0,1-2,2.44,9.16,9.16,0,0,0-.89-1.34,22,22,0,0,0,4.88-7.72Zm4.91,14.93a16,16,0,0,1-4.71,2.69,9.52,9.52,0,0,0-1.1-1.1,13.73,13.73,0,0,0,4.42-2.1Zm.18-13.22h-4.81v-1h4.81v-1.1h1.47v1.08h5v1h-5v1h4.44v1h-4.44v1H293v1.06H280.22v-1.06h5.68v-1h-4.32v-1h4.32ZM281.75,376v-7.39h10V376Zm1.42-5.21h7.11v-1.2h-7.11Zm0,2.08h7.11v-1.21h-7.11Zm0,2.11h7.11v-1.24h-7.11Zm6.15,1.23a30.06,30.06,0,0,1,3.89,2.52l-1.46.8a25.53,25.53,0,0,0-3.89-2.71Z" fill="#4c4948"/>
      <path d="M301.55,371.28l-2.46.75v5.64c0,.84-.2,1.21-.71,1.47a6.88,6.88,0,0,1-2.59.26,5.43,5.43,0,0,0-.45-1.36h1.94c.23,0,.38-.08.38-.37v-5.19l-2.66.79-.43-1.44c.85-.21,1.93-.51,3.09-.84v-4.15h-2.79v-1.39h2.79V361.5h1.43v3.95h2.22v1.39h-2.22v3.72c.75-.2,1.51-.43,2.26-.67Zm3.55-2.1c-1.93,0-2.53-.61-2.53-2.3v-5.32H304v2.36h7.9v1.27H304v1.73c0,.73.22,1,1.08,1h5.15a15.67,15.67,0,0,0,2.16-.14c.06.39.12.94.18,1.27a12.19,12.19,0,0,1-2.26.12Zm-2.51,1.67h9.19v8.49h-1.43v-.83H304v.91h-1.39Zm1.39,1.26v1.94h6.37v-1.94Zm6.37,5.2v-2.06H304v2.06Z" fill="#4c4948"/>
      <path d="M323.16,374.39a4.17,4.17,0,0,1-1.69,2.59,17.2,17.2,0,0,1,2.26,1.16l-1,.84a22.15,22.15,0,0,0-2.41-1.27,20.45,20.45,0,0,1-5.51,1.69,3.94,3.94,0,0,0-.61-1,19.93,19.93,0,0,0,4.74-1.29,22.82,22.82,0,0,0-3-1.08c.31-.4.66-.83,1-1.3l-2.32.12-.14-1.08c.88,0,2-.08,3.18-.12.3-.53.61-1,.89-1.55h-3.21v-3.2h3.72v-.81h-3.17V366H314.6v-1.12h1.31v-2h3.17V361.5h1.16v1.38h3.33v2h1.34V366h-1.34v2.12h-3.33v.81h3.81v3.2H319.9a13.15,13.15,0,0,1-.82,1.47c1,0,2-.1,3-.16v-.92h1.2v.86l1-.05v1Zm-6.54-3.26h2.46v-1.22h-2.46Zm.55-7.25v1h1.91v-1Zm1.91,3.2V365.9h-1.91v1.18Zm-.69,7.56c-.2.32-.41.61-.61.89.81.25,1.65.57,2.46.9a3.82,3.82,0,0,0,1.65-2Zm1.85-10.76v1h2v-1Zm2,3.2V365.9h-2v1.18Zm-2,2.83v1.22h2.51v-1.22Zm10.68-3.36a27.79,27.79,0,0,1-1.79,7.52,9.75,9.75,0,0,0,3.32,4.09,4.65,4.65,0,0,0-.88,1,9.73,9.73,0,0,1-3.08-3.71,11.69,11.69,0,0,1-3.56,4,4.76,4.76,0,0,0-.8-1.1,10.19,10.19,0,0,0,3.69-4.42,27.26,27.26,0,0,1-1.44-5.18,12.43,12.43,0,0,1-1,2.16,9.35,9.35,0,0,0-1-.89c1.3-2.06,2.06-5.24,2.52-8.46l1.23.19c-.15,1.14-.37,2.3-.62,3.4h4.79v1.32Zm-3.77,0a32.16,32.16,0,0,0,1.32,5.81,28.05,28.05,0,0,0,1.14-5.81Z" fill="#4c4948"/>
    </g>
    <rect x="216.54" y="331.17" width="53.36" height="16.64" fill="#0068b6"/>
    <rect x="279.32" y="228.64" width="53.36" height="119.17" fill="#f5ab18"/>
    <g>
      <path d="M222.69,312.33A5.53,5.53,0,0,1,230.4,311a5.45,5.45,0,0,1,1.29,1.29,10.56,10.56,0,0,1,0,9.92,5.54,5.54,0,0,1-7.75,1.25,5.7,5.7,0,0,1-1.25-1.25A10.67,10.67,0,0,1,222.69,312.33Zm2.36,8.74a2.64,2.64,0,0,0,3.69.57,2.57,2.57,0,0,0,.57-.57,8.56,8.56,0,0,0,0-7.55,2.64,2.64,0,0,0-3.69-.57,2.57,2.57,0,0,0-.57.57A8.63,8.63,0,0,0,225.05,321.07Z" fill="#002f7c"/>
      <path d="M236,320.81a1.79,1.79,0,1,1-1.79,1.79A1.79,1.79,0,0,1,236,320.81Z" fill="#002f7c"/>
      <path d="M238.83,318.34l5.87-8h3.44v8.55h2.3v2.37h-2.3v3h-2.69v-3h-6.62Zm6.62-5.25-4.21,5.78h4.21Z" fill="#002f7c"/>
      <path d="M252.35,321.58a5.84,5.84,0,0,0,2.49.59,4.13,4.13,0,0,0,4.5-3.7,3.7,3.7,0,0,0,0-.47,3.8,3.8,0,0,1-3.32,1.55,4.59,4.59,0,0,1-4.79-4.38v-.29c0-2.85,2.3-4.85,5.26-4.85s5.52,2.1,5.52,6.52c0,5-2.45,8-7.16,8a6.86,6.86,0,0,1-3.23-.76Zm4.11-9.24a2.46,2.46,0,0,0-2.56,2.34v.12a2.42,2.42,0,0,0,2.37,2.47h.19a2.47,2.47,0,1,0,.31-4.93Z" fill="#002f7c"/>
    </g>
    <g>
      <path d="M290.12,213.49l3.77-3.34h-6.24v-2.36h9.72V210l-3.71,3.21a4.13,4.13,0,0,1,4.1,4.16v.06c0,2.39-1.9,4.56-5.24,4.56s-5.15-2.09-5.32-4.4l2.63-.53a2.61,2.61,0,0,0,2.63,2.59h0a2.27,2.27,0,0,0,2.51-2c0-.07,0-.15,0-.23a2.23,2.23,0,0,0-2.19-2.27h-.25a3,3,0,0,0-1.22.28Z" fill="#002f7c"/>
      <path d="M300.9,218.28a1.79,1.79,0,1,1-1.79,1.79A1.79,1.79,0,0,1,300.9,218.28Z" fill="#002f7c"/>
      <path d="M306.26,217.2a2.6,2.6,0,0,0,2.71,2.48,2.45,2.45,0,0,0,.31-4.89H309a3,3,0,0,0-2.26,1c-.41-.16-2.14-.75-2.53-.9l1.69-7.06h7.68v2.36h-5.83l-.81,3.32a4,4,0,0,1,2.61-.88c2.79,0,4.75,1.69,4.75,4.63,0,2.6-2,4.8-5.26,4.8-3,0-5.07-2-5.26-4.21Z" fill="#002f7c"/>
      <path d="M317.64,217.2a2.6,2.6,0,0,0,2.71,2.48,2.45,2.45,0,1,0,.31-4.89h-.31a3,3,0,0,0-2.26,1c-.41-.16-2.14-.75-2.53-.9l1.69-7.06h7.68v2.36H319.1l-.81,3.32a4,4,0,0,1,2.61-.88c2.79,0,4.76,1.69,4.76,4.63,0,2.6-2,4.8-5.27,4.8-3,0-5.06-2-5.26-4.21Z" fill="#002f7c"/>
    </g>
  </g>
  <g>
    <g>
      <path d="M414.55,362.05a20.13,20.13,0,0,0,8.33,6.7,5.85,5.85,0,0,0-1.09,1.24,24.14,24.14,0,0,1-8-6.54,30.08,30.08,0,0,1-8.17,6.77,4.89,4.89,0,0,0-.89-1.23,24.92,24.92,0,0,0,7.37-5.56h-3.5v-1.38Zm-.08,15.52h7.58v1.33H405.51v-1.33H413v-3.28h-5.51V373H413v-3h-4.7v-1.32h10.92V370h-4.75v3H420v1.3h-5.56Z" fill="#4c4948"/>
      <path d="M431.06,375.39c-2.18.69-4.5,1.41-6.27,2l-.31-1.41c.7-.2,1.59-.45,2.57-.75v-5.4h-2.2v-1.37h2.2v-4.27h-2.36v-1.37h6v1.37h-2.25v4.27h2v1.37h-2v5l2.41-.77ZM442.21,368a43.2,43.2,0,0,1-3.41,4.23,11.27,11.27,0,0,0,4,4.65,3.49,3.49,0,0,0-.92,1.1,12.48,12.48,0,0,1-4.54-5.91v5.5c0,.88-.23,1.29-.76,1.53a7.44,7.44,0,0,1-3,.32,5.67,5.67,0,0,0-.53-1.42h2.44c.3,0,.43-.12.43-.45V373c-1.61,1.63-3.28,3.24-4.62,4.5l-.9-1.26c1.33-1.1,3.49-3,5.52-4.85v-5.1h-4.76V364.9h4.76v-3.4h1.41v3.4h5.15v1.36h-5.15v.7a24.16,24.16,0,0,0,1,4.11,29.36,29.36,0,0,0,2.63-3.72Zm-9.62-.57a15.14,15.14,0,0,1,2.14,3.64l-1.2.57a16.29,16.29,0,0,0-2.08-3.68Zm8-2.83a11.55,11.55,0,0,0-2.31-2.16l.84-.76a14.12,14.12,0,0,1,2.36,2Z" fill="#4c4948"/>
      <path d="M461.85,363.54v1.26H444.74v-1.26h8c-.17-.57-.41-1.23-.61-1.78l1.42-.34c.27.67.57,1.5.78,2.12Zm-.63,14.34c0,.71-.18,1-.71,1.2a8.67,8.67,0,0,1-2.59.18,4.32,4.32,0,0,0-.47-1.08h2c.25,0,.34-.08.34-.32v-5.75H446.86v7.29h-1.41v-8.53h15.77Zm-2.12-12v3.93H447.7V365.9Zm-1.77,11.41h-6.91v1h-1.36v-5h8.27Zm.28-10.33h-8.47v1.77h8.47Zm-7.19,7.41v1.82H456v-1.82Z" fill="#4c4948"/>
      <path d="M471.33,366h-7.05v-1.2h7.05ZM465,367.4h5.52v1.15H465Zm0,2.55h5.52v1.16H465Zm5.5,8.29h-4.3v.92H465v-6.6h5.5Zm-4.3-4.46V377h3.1v-3.24Zm1.45-9.18A20.15,20.15,0,0,0,466.3,362l1-.59a19.21,19.21,0,0,1,1.43,2.54Zm14.44,7.78h-4.62v7H476.1v-7h-4.79V371h4.79v-7h-4v-1.38h9.67V364h-4.23v7h4.62ZM473.68,365a23.26,23.26,0,0,1,1.08,4.81l-1.25.31a22.79,22.79,0,0,0-1-4.83Zm5,4.77a36.43,36.43,0,0,0,1.28-4.93l1.4.35c-.48,1.65-1.07,3.66-1.56,4.91Z" fill="#4c4948"/>
      <path d="M486.92,364.17a11.83,11.83,0,0,1-1.95,2.34,6.75,6.75,0,0,0-1-1,11.49,11.49,0,0,0,3-4.19l1.29.36c-.17.39-.35.78-.55,1.18h5.05v1.27h-3.67A20.94,20.94,0,0,1,491,365.9l-1,.87a15.06,15.06,0,0,0-2-2.07l.71-.57Zm10.64,9.18h3.91v1.23h-3.91v3.32c0,.85-.21,1.18-.86,1.36a15.18,15.18,0,0,1-3.5.2,4.17,4.17,0,0,0-.39-1.24,21.09,21.09,0,0,0,2.85,0c.34-.06.43-.12.43-.4v-3.28H484.24v-1.23h11.85V372h1.47Zm4.27-10.43v1.27H497.5a16.71,16.71,0,0,1,1.83,1.93l-1,.84a13.32,13.32,0,0,0-1.87-2.1l.87-.67H495.4a13.32,13.32,0,0,1-1.65,2.36l-.18-.16v.93h7.19v1.27h-7.19v1.75h6.1v1.18H486v-1.18h6.15v-1.75H485v-1.27h7.13V366.1h1.1a6,6,0,0,0-.57-.42,10.22,10.22,0,0,0,2.44-4.32l1.35.32a9.19,9.19,0,0,1-.45,1.24Zm-13.3,11.84a30.81,30.81,0,0,1,3.34,2.91l-1.08.86a34.74,34.74,0,0,0-3.3-3Z" fill="#4c4948"/>
      <path d="M509.24,361.89a29.28,29.28,0,0,1-1.9,4v13.38h-1.42V368.12a20.27,20.27,0,0,1-2,2.44,9.16,9.16,0,0,0-.89-1.34,21.94,21.94,0,0,0,4.88-7.72Zm4.91,14.93a16,16,0,0,1-4.71,2.69,9.52,9.52,0,0,0-1.1-1.1,13.73,13.73,0,0,0,4.42-2.1Zm.18-13.22h-4.81v-1h4.81v-1.1h1.47v1.08h5v1h-5v1h4.44v1H515.8v1h5.6v1.06H508.65v-1.06h5.68v-1H510v-1h4.32ZM510.18,376v-7.39h10V376Zm1.42-5.21h7.11v-1.2H511.6Zm0,2.08h7.11v-1.21H511.6Zm0,2.11h7.11v-1.24H511.6Zm6.15,1.23a30.06,30.06,0,0,1,3.89,2.52l-1.46.8a25.53,25.53,0,0,0-3.89-2.71Z" fill="#4c4948"/>
      <path d="M530,371.28l-2.46.75v5.64c0,.84-.2,1.21-.71,1.47a6.88,6.88,0,0,1-2.59.26,5.43,5.43,0,0,0-.45-1.36h1.94c.23,0,.38-.08.38-.37v-5.19l-2.66.79-.43-1.44c.85-.21,1.93-.51,3.09-.84v-4.15H523.3v-1.39h2.79V361.5h1.43v3.95h2.22v1.39h-2.22v3.72c.75-.2,1.51-.43,2.26-.67Zm3.55-2.1c-1.92,0-2.53-.61-2.53-2.3v-5.32h1.43v2.36h7.9v1.27h-7.9v1.73c0,.73.22,1,1.08,1h5.15a15.67,15.67,0,0,0,2.16-.14c.06.39.12.94.18,1.27a12.19,12.19,0,0,1-2.26.12ZM531,370.85h9.19v8.49h-1.43v-.83h-6.37v.91H531Zm1.39,1.26v1.94h6.37v-1.94Zm6.37,5.2v-2.06h-6.37v2.06Z" fill="#4c4948"/>
      <path d="M551.6,374.39a4.25,4.25,0,0,1-1.7,2.59,17.2,17.2,0,0,1,2.26,1.16l-1,.84a22.15,22.15,0,0,0-2.41-1.27,20.49,20.49,0,0,1-5.5,1.69,4.87,4.87,0,0,0-.61-1,20.47,20.47,0,0,0,4.73-1.29,22.82,22.82,0,0,0-3-1.08c.31-.4.66-.83,1-1.3l-2.32.12-.14-1.08c.89,0,2-.08,3.18-.12.3-.53.61-1,.89-1.55h-3.2v-3.2h3.71v-.81h-3.16V366H543v-1.12h1.32v-2h3.16V361.5h1.16v1.38H552v2h1.33V366H552v2.12h-3.34v.81h3.81v3.2h-4.15a13.15,13.15,0,0,1-.82,1.47c1,0,2-.1,3-.16v-.92h1.2v.86l1-.05v1Zm-6.55-3.26h2.46v-1.22h-2.46Zm.55-7.25v1h1.91v-1Zm1.91,3.2V365.9H545.6v1.18Zm-.69,7.56c-.2.32-.41.61-.61.89.81.25,1.65.57,2.46.9a3.82,3.82,0,0,0,1.65-2Zm1.85-10.76v1h2v-1Zm2,3.2V365.9h-2v1.18Zm-2,2.83v1.22h2.51v-1.22Zm10.68-3.36a27.79,27.79,0,0,1-1.79,7.52,9.7,9.7,0,0,0,3.33,4.09,4.23,4.23,0,0,0-.89,1,9.8,9.8,0,0,1-3.08-3.71,11.69,11.69,0,0,1-3.56,4,4.76,4.76,0,0,0-.8-1.1,10.13,10.13,0,0,0,3.69-4.42,26.51,26.51,0,0,1-1.43-5.18,12.67,12.67,0,0,1-1.05,2.16,9.35,9.35,0,0,0-1-.89c1.3-2.06,2.06-5.24,2.52-8.46l1.24.19c-.16,1.14-.38,2.3-.63,3.4h4.79v1.32Zm-3.77,0a33.94,33.94,0,0,0,1.32,5.81,28.05,28.05,0,0,0,1.14-5.81Z" fill="#4c4948"/>
    </g>
    <rect x="425.26" y="322.78" width="53.36" height="25.04" fill="#0068b6"/>
    <rect x="488.04" y="192.16" width="53.36" height="155.65" fill="#f5ab18"/>
    <g>
      <path d="M431.8,303.93a5.53,5.53,0,0,1,7.71-1.29,5.45,5.45,0,0,1,1.29,1.29,10.62,10.62,0,0,1,0,9.92,5.53,5.53,0,0,1-7.71,1.29,5.45,5.45,0,0,1-1.29-1.29A10.67,10.67,0,0,1,431.8,303.93Zm2.36,8.74a2.64,2.64,0,0,0,3.69.57,2.57,2.57,0,0,0,.57-.57,8.54,8.54,0,0,0,0-7.54,2.64,2.64,0,0,0-3.69-.57,2.57,2.57,0,0,0-.57.57A8.6,8.6,0,0,0,434.16,312.67Z" fill="#002f7c"/>
      <path d="M445.15,312.42a1.79,1.79,0,1,1-1.79,1.79h0A1.8,1.8,0,0,1,445.15,312.42Z" fill="#002f7c"/>
      <path d="M448.27,312.12a3.63,3.63,0,0,1,2.49-3.4,3.39,3.39,0,0,1-2.17-3.14c0-2.32,2.06-3.95,4.87-3.95s4.89,1.63,4.89,3.95a3.41,3.41,0,0,1-2.2,3.14,3.66,3.66,0,0,1,2.51,3.4c0,2.32-2,4-5.2,4S448.27,314.44,448.27,312.12Zm7.7-.27c0-1.1-.86-2.08-2.51-2.08s-2.5,1-2.5,2.08.89,2,2.5,2,2.54-.92,2.54-2Zm-.31-6.09a2.21,2.21,0,1,0-1.94,1.94A2.21,2.21,0,0,0,455.66,305.76Z" fill="#002f7c"/>
      <path d="M462.7,307.62l3.77-3.33h-6.25v-2.36H470v2.24l-3.72,3.2a4.13,4.13,0,0,1,4.11,4.15v.07c0,2.4-1.91,4.56-5.25,4.56s-5.14-2.08-5.32-4.4l2.63-.53a2.61,2.61,0,0,0,2.63,2.59h0a2.27,2.27,0,0,0,2.51-2c0-.07,0-.15,0-.23a2.23,2.23,0,0,0-2.19-2.27h-.25a3,3,0,0,0-1.22.28Z" fill="#002f7c"/>
    </g>
    <g>
      <path d="M495.54,179.33l5.87-8h3.44v8.55h2.3v2.37h-2.3v3h-2.69v-3h-6.62Zm6.62-5.25-4.2,5.78h4.2Z" fill="#002f7c"/>
      <path d="M509.91,181.8a1.79,1.79,0,1,1-1.79,1.79A1.79,1.79,0,0,1,509.91,181.8Z" fill="#002f7c"/>
      <path d="M522.76,173.9a6.1,6.1,0,0,0-2.34-.53,4.49,4.49,0,0,0-4.7,4.27v0A3.92,3.92,0,0,1,519.2,176a4.41,4.41,0,0,1,4.71,4.09,5.23,5.23,0,0,1,0,.56c0,2.93-2.33,4.85-5.32,4.85s-5.58-2.1-5.58-6.4c0-5,3.15-8.11,7.57-8.11a5.69,5.69,0,0,1,2.94.68Zm-4.17,9.33a2.45,2.45,0,0,0,2.61-2.29,1.09,1.09,0,0,0,0-.18,2.5,2.5,0,0,0-2.48-2.52h-.14a2.5,2.5,0,0,0,0,5Z" fill="#002f7c"/>
      <path d="M535.08,173.65a16.56,16.56,0,0,0-5.65,11.59h-2.81A17.45,17.45,0,0,1,532,173.67h-7.33v-2.36h10.45Z" fill="#002f7c"/>
    </g>
  </g>
  <g>
    <g>
      <path d="M669.71,377.23v1.34H652.19v-1.34H658v-3.51h-4.41v-6.56H658v-3.07h-5.3v-1.35h16.52v1.35h-5.48v3.05h4.52v6.56h-4.52v3.51Zm-10.27-4.79v4.79h2.91v-4.81h4.46v-4h-4.46v-4.31h-2.93v4.34H655v4Z" fill="#4c4948"/>
      <path d="M677.44,361.89a29.28,29.28,0,0,1-1.9,4v13.38h-1.42V368.12a20.27,20.27,0,0,1-2,2.44,9.16,9.16,0,0,0-.89-1.34,21.94,21.94,0,0,0,4.88-7.72Zm4.91,14.93a16,16,0,0,1-4.71,2.69,9.52,9.52,0,0,0-1.1-1.1,13.73,13.73,0,0,0,4.42-2.1Zm.18-13.22h-4.81v-1h4.81v-1.1H684v1.08h5v1h-5v1h4.44v1H684v1h5.6v1.06H676.85v-1.06h5.68v-1h-4.32v-1h4.32ZM678.38,376v-7.39h10V376Zm1.42-5.21h7.11v-1.2H679.8Zm0,2.08h7.11v-1.21H679.8Zm0,2.11h7.11v-1.24H679.8Zm6.15,1.23a30.06,30.06,0,0,1,3.89,2.52l-1.46.8a25.53,25.53,0,0,0-3.89-2.71Z" fill="#4c4948"/>
      <path d="M698.18,371.28l-2.46.75v5.64c0,.84-.2,1.21-.7,1.47a6.91,6.91,0,0,1-2.6.26A5.79,5.79,0,0,0,692,378h1.94c.23,0,.38-.08.38-.37v-5.19l-2.66.79-.43-1.44c.85-.21,1.93-.51,3.09-.84V366.8H691.5v-1.39h2.79V361.5h1.43v3.95h2.22v1.39h-2.22v3.72c.75-.2,1.51-.43,2.26-.67Zm3.55-2.1c-1.92,0-2.53-.61-2.53-2.3v-5.32h1.43v2.36h7.9v1.27h-7.9v1.73c0,.73.22,1,1.08,1h5.15a15.67,15.67,0,0,0,2.16-.14c.06.39.12.94.18,1.27a12.19,12.19,0,0,1-2.26.12Zm-2.51,1.67h9.19v8.49H707v-.83h-6.37v.91h-1.39Zm1.39,1.26v1.94H707v-1.94Zm6.37,5.2v-2.06h-6.37v2.06Z" fill="#4c4948"/>
      <path d="M719.79,374.39A4.17,4.17,0,0,1,718.1,377a17.2,17.2,0,0,1,2.26,1.16l-1,.84a22.15,22.15,0,0,0-2.41-1.27,20.49,20.49,0,0,1-5.5,1.69,4.87,4.87,0,0,0-.61-1,20.47,20.47,0,0,0,4.73-1.29,22.82,22.82,0,0,0-3-1.08c.31-.4.66-.83,1-1.3l-2.32.12-.14-1.08c.89,0,2-.08,3.18-.12.3-.53.61-1,.89-1.55H712v-3.2h3.71v-.81h-3.16V366h-1.32v-1.12h1.32v-2h3.16V361.5h1.16v1.38h3.34v2h1.33V366h-1.33v2.12h-3.34v.81h3.81v3.2h-4.15a13.15,13.15,0,0,1-.82,1.47c1,0,2-.1,3-.16v-.92h1.2v.86l1-.05v1Zm-6.54-3.26h2.46v-1.22h-2.46Zm.55-7.25v1h1.91v-1Zm1.91,3.2V365.9H713.8v1.18Zm-.69,7.56c-.2.32-.41.61-.61.89.81.25,1.65.57,2.46.9a3.82,3.82,0,0,0,1.65-2Zm1.85-10.76v1h2v-1Zm2,3.2V365.9h-2v1.18Zm-2,2.83v1.22h2.51v-1.22Zm10.68-3.36a28.15,28.15,0,0,1-1.78,7.52,9.54,9.54,0,0,0,3.32,4.09,4.23,4.23,0,0,0-.89,1,9.8,9.8,0,0,1-3.08-3.71,11.69,11.69,0,0,1-3.56,4,4.76,4.76,0,0,0-.8-1.1,10.13,10.13,0,0,0,3.69-4.42,26.51,26.51,0,0,1-1.43-5.18,13.22,13.22,0,0,1-1,2.16,9.35,9.35,0,0,0-1-.89c1.3-2.06,2.06-5.24,2.52-8.46l1.24.19c-.16,1.14-.38,2.3-.63,3.4h4.79v1.32Zm-3.77,0a33.94,33.94,0,0,0,1.32,5.81,28.05,28.05,0,0,0,1.14-5.81Z" fill="#4c4948"/>
    </g>
    <rect x="632.94" y="217.66" width="53.36" height="130.16" fill="#0068b6"/>
    <rect x="695.72" y="263.34" width="53.36" height="84.47" fill="#f5ab18"/>
    <g>
      <path d="M641.12,202.5l3.77-3.33h-6.25v-2.36h9.73v2.24l-3.72,3.2a4.13,4.13,0,0,1,4.11,4.15v.07c0,2.4-1.91,4.56-5.25,4.56s-5.14-2.08-5.32-4.4l2.63-.53a2.61,2.61,0,0,0,2.63,2.59h0a2.27,2.27,0,0,0,2.51-2c0-.07,0-.15,0-.23a2.22,2.22,0,0,0-2.18-2.26h-.26a3,3,0,0,0-1.22.27Z" fill="#002f7c"/>
      <path d="M651.89,207.3a1.79,1.79,0,1,1-1.79,1.79h0A1.79,1.79,0,0,1,651.89,207.3Z" fill="#002f7c"/>
      <path d="M656,208.06a5.66,5.66,0,0,0,2.49.59A4.13,4.13,0,0,0,663,205a3.54,3.54,0,0,0,0-.46,3.82,3.82,0,0,1-3.32,1.55,4.59,4.59,0,0,1-4.79-4.38v-.29c0-2.85,2.29-4.86,5.26-4.86s5.52,2.11,5.52,6.52c0,5-2.45,8-7.17,8a6.79,6.79,0,0,1-3.22-.76Zm4.1-9.23a2.46,2.46,0,0,0-2.55,2.35v.11a2.42,2.42,0,0,0,2.37,2.47h.18a2.47,2.47,0,1,0,.31-4.93,1.61,1.61,0,0,0-.31,0Z" fill="#002f7c"/>
      <path d="M666.63,204.82l5.88-8h3.43v8.54h2.3v2.38h-2.3v3h-2.69v-3h-6.62Zm6.62-5.24-4.2,5.77h4.2Z" fill="#002f7c"/>
    </g>
    <g>
      <path d="M703.49,247.66a6.4,6.4,0,0,1-.08-.87,4.63,4.63,0,0,1,4.63-4.61l.37,0c3.09,0,4.93,2,4.93,4.4a5,5,0,0,1-2.67,4.32L708,252.59a2.77,2.77,0,0,0-1.31,1.45h6.77v2.38H703.3a6.26,6.26,0,0,1,3.3-5.82l2.27-1.41a2.94,2.94,0,0,0,1.72-2.53,2,2,0,0,0-1.91-2.08,1.9,1.9,0,0,0-.34,0,2.21,2.21,0,0,0-2.32,2.09,2.26,2.26,0,0,0,0,.37,4.78,4.78,0,0,0,.08.75Z" fill="#002f7c"/>
      <path d="M716.58,253a1.79,1.79,0,1,1-1.79,1.79h0A1.81,1.81,0,0,1,716.58,253Z" fill="#002f7c"/>
      <path d="M719.37,250.51l5.87-8h3.44V251H731v2.37h-2.3v3H726v-3h-6.62Zm6.62-5.25-4.2,5.78H726Z" fill="#002f7c"/>
      <path d="M734.66,248.19l3.77-3.34h-6.24v-2.36h9.72v2.24l-3.71,3.2a4.13,4.13,0,0,1,4.1,4.16v.07c0,2.39-1.9,4.55-5.24,4.55s-5.15-2.08-5.32-4.4l2.63-.53a2.61,2.61,0,0,0,2.62,2.6h0a2.28,2.28,0,0,0,2.5-2,1.62,1.62,0,0,0,0-.22,2.22,2.22,0,0,0-2.17-2.27h-.26a3.19,3.19,0,0,0-1.22.27Z" fill="#002f7c"/>
    </g>
  </g>
  <g>
    <g>
      <path d="M832.53,373.92a15.47,15.47,0,0,1-2,3.9c-.24-.17-.73-.54-1-.7a11.1,11.1,0,0,0,1.85-3.54Zm2.42-1.38v6.82h-1.44v-6.82h-3.9v-1.26h3.9v-2.06h-4V368h5.42a28.31,28.31,0,0,0,1.06-3.1l1.34.27c-.36,1-.73,2-1.11,2.83h2.5v1.24H835v2.06h3.55v1.26Zm3.47-7.78h-8.6v-1.22h3.85c-.25-.59-.59-1.25-.86-1.78l1.41-.38a15.66,15.66,0,0,1,1.1,2.16h3.1Zm-6.57,3.14a14.34,14.34,0,0,0-.75-2.73l1.16-.27a10,10,0,0,1,.8,2.67Zm5,5.56a19.91,19.91,0,0,1,1.65,3.09l-1,.59a19.89,19.89,0,0,0-1.61-3.15Zm10.47-4h-2.16v9.9h-1.41v-9.9H841v.69c0,2.8-.26,6.65-2,9.21a5,5,0,0,0-1.12-.89c1.65-2.35,1.8-5.71,1.8-8.32v-6.76a31.44,31.44,0,0,0,6.11-1.54l1.18,1.09a31.79,31.79,0,0,1-5.93,1.41v3.73h6.26Z" fill="#4c4948"/>
      <path d="M866.94,373.42v1.36H849.32v-1.36h1.57L850.58,363a33.78,33.78,0,0,0,3.36-1.23l.68,1.26c-.82.29-1.82.58-2.73.82l.06,2.32h2.22v1.21H852l.08,2.44h2.2V371h-2.16l.06,2.41h2.57V362.48h6.78v10.94h2.61c0-.7.08-1.51.12-2.35H862v-1.22h2.26c0-.79.06-1.63.07-2.44h-2.21V366.2h2.23v-2.62H862v-1.21h3.69c0,3.43-.18,8.07-.33,11.05ZM856.17,376a32.36,32.36,0,0,1-5.85,3.36,7.58,7.58,0,0,0-.86-1.1,21.86,21.86,0,0,0,5.46-3.15Zm-.33-2.62h4.54V363.6h-4.54Zm3.91-8.4v1h-3.36v-1Zm-3.11,2.32h3v4.51h-3Zm.77,3.57h1.44v-2.63h-1.44Zm3.42,4.1a51,51,0,0,1,5.7,3.15l-1,1.12A43.69,43.69,0,0,0,860,376Z" fill="#4c4948"/>
      <path d="M879.19,361.93c-.14.22-.3.42-.45.63a21.92,21.92,0,0,0,8.36,5.87,4.73,4.73,0,0,0-.94,1.24,23.59,23.59,0,0,1-8.21-6.09,23,23,0,0,1-8.13,6.07,6.84,6.84,0,0,0-1-1.22,20,20,0,0,0,9-7.13Zm-.36,15.58h7.51v1.34H869.72v-1.34h2.47v-7.25h1.44v7.25h3.69V366.82h1.51v4.5h5.68v1.32h-5.68Z" fill="#4c4948"/>
      <path d="M896,376.27a18.2,18.2,0,0,1-6,2.54,5.45,5.45,0,0,0-.88-1.1,17.35,17.35,0,0,0,5.81-1.95Zm10.25-2.73v1.24h-7.87v4.65H897v-4.65h-7.76v-1.24H897v-1.47h-6V371h5.92v-1.41H890v-1.18h4.24a8.34,8.34,0,0,0-1-1.89l1-.27h-5.07V365h3.17a16.17,16.17,0,0,0-1.58-2.85l1.24-.43a11.89,11.89,0,0,1,1.67,2.89l-1,.39h2.4v-3.5h1.37V365h2.34v-3.5h1.39V365h2.38l-.79-.26a16,16,0,0,0,1.52-3l1.49.41c-.55,1-1.2,2.08-1.71,2.83h3v1.22H901l1.28.35a19.88,19.88,0,0,1-1.36,1.81h4.5v1.18h-7.11V371h6.15v1.12h-6.15v1.47Zm-11.56-7.34a7.93,7.93,0,0,1,1,1.94l-.81.22h5.42l-.68-.22a16.57,16.57,0,0,0,1.16-1.94Zm5.83,9.46c1.85.61,4.34,1.55,5.7,2.18l-.91.93c-1.29-.63-3.79-1.63-5.65-2.32Z" fill="#4c4948"/>
      <path d="M914.17,361.89a28.15,28.15,0,0,1-1.9,4v13.38h-1.41V368.12a22.38,22.38,0,0,1-2,2.44,10,10,0,0,0-.88-1.34,22.24,22.24,0,0,0,4.87-7.72Zm4.91,14.93a16,16,0,0,1-4.71,2.69,8.17,8.17,0,0,0-1.1-1.1,13.73,13.73,0,0,0,4.42-2.1Zm.18-13.22h-4.81v-1h4.81v-1.1h1.48v1.08h5v1h-5v1h4.43v1h-4.43v1h5.59v1.06H913.59v-1.06h5.67v-1h-4.32v-1h4.32ZM915.12,376v-7.39h10V376Zm1.41-5.21h7.11v-1.2h-7.11Zm0,2.08h7.11v-1.21h-7.11Zm0,2.11h7.11v-1.24h-7.11Zm6.15,1.23a30.06,30.06,0,0,1,3.89,2.52l-1.45.8a25.53,25.53,0,0,0-3.89-2.71Z" fill="#4c4948"/>
      <path d="M934.91,371.28l-2.46.75v5.64c0,.84-.19,1.21-.7,1.47a6.91,6.91,0,0,1-2.6.26,5.43,5.43,0,0,0-.45-1.36h1.95c.24,0,.37-.08.37-.37v-5.19l-2.65.79-.43-1.44c.84-.21,1.92-.51,3.08-.84v-4.15h-2.79v-1.39H931V361.5h1.43v3.95h2.22v1.39h-2.22v3.72c.75-.2,1.52-.43,2.26-.67Zm3.55-2.1c-1.92,0-2.53-.61-2.53-2.3v-5.32h1.43v2.36h7.9v1.27h-7.9v1.73c0,.73.22,1,1.09,1h5.14a15.67,15.67,0,0,0,2.16-.14c.06.39.12.94.18,1.27a12.19,12.19,0,0,1-2.26.12ZM936,370.85h9.19v8.49h-1.43v-.83h-6.37v.91H936Zm1.39,1.26v1.94h6.37v-1.94Zm6.37,5.2v-2.06h-6.37v2.06Z" fill="#4c4948"/>
      <path d="M956.53,374.39a4.26,4.26,0,0,1-1.69,2.59,17.2,17.2,0,0,1,2.26,1.16l-1,.84a22.15,22.15,0,0,0-2.41-1.27,20.49,20.49,0,0,1-5.5,1.69,4.87,4.87,0,0,0-.61-1,20.47,20.47,0,0,0,4.73-1.29,22.82,22.82,0,0,0-3-1.08c.31-.4.67-.83,1-1.3l-2.32.12-.14-1.08c.89,0,2-.08,3.19-.12.29-.53.61-1,.88-1.55h-3.2v-3.2h3.71v-.81h-3.16V366H948v-1.12h1.32v-2h3.16V361.5h1.16v1.38H957v2h1.33V366H957v2.12H953.6v.81h3.81v3.2h-4.14a16.31,16.31,0,0,1-.83,1.47c1,0,2-.1,3-.16v-.92h1.19v.86l1-.05v1ZM950,371.13h2.45v-1.22H950Zm.55-7.25v1h1.9v-1Zm1.9,3.2V365.9h-1.9v1.18Zm-.69,7.56c-.19.32-.41.61-.61.89.81.25,1.66.57,2.46.9a3.82,3.82,0,0,0,1.65-2Zm1.85-10.76v1h2v-1Zm2,3.2V365.9h-2v1.18Zm-2,2.83v1.22h2.52v-1.22Zm10.69-3.36a28.55,28.55,0,0,1-1.79,7.52,9.54,9.54,0,0,0,3.32,4.09,4.22,4.22,0,0,0-.88,1,9.75,9.75,0,0,1-3.09-3.71,11.69,11.69,0,0,1-3.56,4,4.56,4.56,0,0,0-.8-1.1,10.13,10.13,0,0,0,3.69-4.42,26.51,26.51,0,0,1-1.43-5.18,14.11,14.11,0,0,1-1,2.16c-.32-.31-.65-.61-1-.89,1.29-2.06,2.06-5.24,2.51-8.46l1.24.19c-.16,1.14-.38,2.3-.63,3.4h4.79v1.32Zm-3.77,0a33,33,0,0,0,1.31,5.81,28.05,28.05,0,0,0,1.14-5.81Z" fill="#4c4948"/>
    </g>
    <rect x="840.02" y="206.47" width="53.36" height="141.35" fill="#0068b6"/>
    <rect x="902.8" y="233.49" width="53.36" height="114.32" fill="#f5ab18"/>
    <g>
      <path d="M844.45,193.64l5.87-8h3.44v8.55h2.3v2.37h-2.3v3h-2.69v-3h-6.62Zm6.62-5.25-4.2,5.78h4.2Z" fill="#002f7c"/>
      <path d="M858.81,196.11a1.79,1.79,0,0,1,.27,3.57h-.27a1.79,1.79,0,0,1,0-3.57Z" fill="#002f7c"/>
      <path d="M863.17,187.62a5.54,5.54,0,0,1,7.75-1.25,5.7,5.7,0,0,1,1.25,1.25,9,9,0,0,1,1.24,5,8.85,8.85,0,0,1-1.24,4.95,5.53,5.53,0,0,1-7.71,1.29,5.45,5.45,0,0,1-1.29-1.29,10.83,10.83,0,0,1,0-9.95Zm2.36,8.75a2.47,2.47,0,0,0,2.12,1.08,2.51,2.51,0,0,0,2.15-1.08,8.56,8.56,0,0,0,0-7.55,2.65,2.65,0,0,0-4.27,0A8.69,8.69,0,0,0,865.53,196.37Z" fill="#002f7c"/>
      <path d="M874.4,193.64l5.88-8h3.43v8.55H886v2.37h-2.3v3H881v-3h-6.6Zm6.62-5.25-4.2,5.78H881Z" fill="#002f7c"/>
    </g>
    <g>
      <path d="M913,218.34l3.77-3.33h-6.24v-2.36h9.72v2.24l-3.71,3.2a4.13,4.13,0,0,1,4.1,4.16v.06c0,2.4-1.9,4.56-5.24,4.56s-5.15-2.08-5.32-4.4l2.63-.53a2.59,2.59,0,0,0,2.61,2.59h.06a2.28,2.28,0,0,0,2.5-2,1.62,1.62,0,0,0,0-.22A2.23,2.23,0,0,0,915.7,220h-.24a2.87,2.87,0,0,0-1.22.28Z" fill="#002f7c"/>
      <path d="M923.78,223.14a1.79,1.79,0,1,1-1.79,1.79h0A1.81,1.81,0,0,1,923.78,223.14Z" fill="#002f7c"/>
      <path d="M929.62,218.34l3.77-3.33h-6.25v-2.36h9.73v2.24l-3.72,3.2a4.13,4.13,0,0,1,4.11,4.15v.07c0,2.4-1.91,4.56-5.25,4.56s-5.14-2.08-5.32-4.4l2.63-.53a2.61,2.61,0,0,0,2.63,2.59h0a2.27,2.27,0,0,0,2.51-2c0-.07,0-.15,0-.23a2.23,2.23,0,0,0-2.19-2.27h-.25a3,3,0,0,0-1.22.28Z" fill="#002f7c"/>
      <path d="M938.27,220.66l5.87-8h3.44v8.54h2.3v2.38h-2.3v3h-2.69v-3h-6.62Zm6.62-5.24-4.2,5.77h4.2Z" fill="#002f7c"/>
    </g>
  </g>
  <g>
    <g>
      <path d="M1038,362.05a20.27,20.27,0,0,0,8.33,6.7,5.8,5.8,0,0,0-1.08,1.24,24,24,0,0,1-8-6.54,30.26,30.26,0,0,1-8.17,6.77,5.67,5.67,0,0,0-.89-1.23,25.09,25.09,0,0,0,7.37-5.56h-3.5v-1.38Zm-.08,15.52h7.59v1.33H1029v-1.33h7.44v-3.28h-5.5V373h5.5v-3h-4.65v-1.32h10.92V370H1038v3h5.56v1.3H1038Z" fill="#4c4948"/>
      <path d="M1054.53,375.39c-2.18.69-4.49,1.41-6.26,2L1048,376c.71-.2,1.59-.45,2.58-.75v-5.4h-2.2v-1.37h2.2v-4.27h-2.36v-1.37h6v1.37H1052v4.27h2v1.37h-2v5l2.42-.77Zm11.16-7.35a43.3,43.3,0,0,1-3.42,4.23,11.27,11.27,0,0,0,4,4.65,3.36,3.36,0,0,0-.92,1.1,12.42,12.42,0,0,1-4.54-5.91v5.5c0,.88-.24,1.29-.77,1.53a7.44,7.44,0,0,1-3,.32,6.56,6.56,0,0,0-.53-1.42h2.43c.29,0,.43-.12.43-.45V373c-1.61,1.63-3.28,3.24-4.61,4.5l-.9-1.26c1.33-1.1,3.49-3,5.51-4.85v-5.1h-4.75V364.9h4.75v-3.4h1.42v3.4H1066v1.36h-5.15v.7a24.16,24.16,0,0,0,1,4.11,28.39,28.39,0,0,0,2.63-3.72Zm-9.62-.57a16,16,0,0,1,2.14,3.64l-1.2.57a17.34,17.34,0,0,0-2.08-3.68Zm8-2.83a11.6,11.6,0,0,0-2.32-2.16l.85-.76a14.46,14.46,0,0,1,2.35,2Z" fill="#4c4948"/>
      <path d="M1085.32,363.54v1.26h-17.1v-1.26h8c-.18-.57-.41-1.23-.61-1.78l1.41-.34c.28.67.58,1.5.79,2.12Zm-.62,14.34c0,.71-.18,1-.71,1.2a8.67,8.67,0,0,1-2.59.18,4.35,4.35,0,0,0-.48-1.08h2c.25,0,.33-.08.33-.32v-5.75h-12.9v7.29h-1.42v-8.53h15.78Zm-2.12-12v3.93h-11.4V365.9Zm-1.77,11.41h-6.92v1h-1.35v-5h8.27Zm.27-10.33h-8.46v1.77h8.46Zm-7.19,7.41v1.82h5.6v-1.82Z" fill="#4c4948"/>
      <path d="M1093.13,361.8h1.44v17.66h-1.44V374c-3.57,1.32-4.14,1.6-4.51,1.91a7,7,0,0,0-.59-1.34,1.46,1.46,0,0,0,.67-1.31v-9.61h1.43v10l3-1Zm10.87,4.87a22.6,22.6,0,0,1-2.62,7.74,11.71,11.71,0,0,0,4.25,3.75,4.45,4.45,0,0,0-1,1.2,12.33,12.33,0,0,1-4.05-3.72,13.8,13.8,0,0,1-4.5,3.82,6.38,6.38,0,0,0-1-1.2,12.12,12.12,0,0,0,4.63-3.89,23.74,23.74,0,0,1-2.35-5.6,14.37,14.37,0,0,1-1.55,2.51,9.59,9.59,0,0,0-1-1.21c1.69-2,2.71-5.19,3.26-8.59l1.5.26c-.22,1.21-.51,2.41-.83,3.55h6.72v1.38Zm-5.84.29a24.7,24.7,0,0,0,2.38,6.09,21.07,21.07,0,0,0,2-6.38h-4.24Z" fill="#4c4948"/>
      <path d="M1125.23,377.51v1.32h-17.74v-1.32H1110v-6.09h12.79v6.09Zm-.4-10.88h-17v-1.32h5.05a15.21,15.21,0,0,0-2-3.24l1.24-.55a16.11,16.11,0,0,1,2.08,3.26l-1,.53h6.31l-1-.39a19.86,19.86,0,0,0,2-3.42l1.45.45a28.19,28.19,0,0,1-2.26,3.36h5.13Zm-10.49,1.57a28.43,28.43,0,0,1-5.52,3.46,5.42,5.42,0,0,0-.88-1.14,21.48,21.48,0,0,0,5.4-3Zm-3,9.31h2.45V372.7h-2.45Zm3.79-4.81v4.81h2.47V372.7Zm8.93-1.44a45.73,45.73,0,0,0-5.93-2.67l.71-1a54.41,54.41,0,0,1,6,2.53Zm-5.12,1.44v4.81h2.49V372.7Z" fill="#4c4948"/>
      <path d="M1132.72,361.89a28.2,28.2,0,0,1-1.91,4v13.38h-1.41V368.12a23.37,23.37,0,0,1-2,2.44,9.16,9.16,0,0,0-.89-1.34,21.77,21.77,0,0,0,4.87-7.72Zm4.91,14.93a16,16,0,0,1-4.72,2.69,8.09,8.09,0,0,0-1.09-1.1,13.89,13.89,0,0,0,4.41-2.1Zm.18-13.22H1133v-1h4.82v-1.1h1.47v1.08h5v1h-5v1h4.44v1h-4.44v1h5.6v1.06h-12.75v-1.06h5.68v-1h-4.32v-1h4.32Zm-4.15,12.4v-7.39h10V376Zm1.42-5.21h7.11v-1.2h-7.11Zm0,2.08h7.11v-1.21h-7.11Zm0,2.11h7.11v-1.24h-7.11Zm6.15,1.23a29.29,29.29,0,0,1,3.88,2.52l-1.45.8a25.53,25.53,0,0,0-3.89-2.71Z" fill="#4c4948"/>
      <path d="M1153.45,371.28,1151,372v5.64c0,.84-.2,1.21-.71,1.47a6.88,6.88,0,0,1-2.59.26,5.46,5.46,0,0,0-.46-1.36h2c.28,0,.37-.08.37-.37v-5.19l-2.65.79-.43-1.44c.84-.21,1.93-.51,3.08-.84v-4.15h-2.79v-1.39h2.79V361.5H1151v3.95h2.22v1.39H1151v3.72c.74-.2,1.51-.43,2.26-.67Zm3.56-2.1c-1.93,0-2.53-.61-2.53-2.3v-5.32h1.43v2.36h7.9v1.27h-7.9v1.73c0,.73.21,1,1.08,1h5.15a15.67,15.67,0,0,0,2.16-.14c.06.39.11.94.17,1.27a12.19,12.19,0,0,1-2.26.12Zm-2.52,1.67h9.2v8.49h-1.44v-.83h-6.36v.91h-1.4Zm1.4,1.26v1.94h6.36v-1.94Zm6.36,5.2v-2.06h-6.36v2.06Z" fill="#4c4948"/>
      <path d="M1175.07,374.39a4.26,4.26,0,0,1-1.69,2.59,17.2,17.2,0,0,1,2.26,1.16l-1,.84a22.29,22.29,0,0,0-2.42-1.27,20.39,20.39,0,0,1-5.5,1.69,4.25,4.25,0,0,0-.61-1,20.41,20.41,0,0,0,4.74-1.29,22.82,22.82,0,0,0-3-1.08c.32-.4.67-.83,1-1.3l-2.31.12-.14-1.08c.88,0,2-.08,3.18-.12.3-.53.61-1,.89-1.55h-3.21v-3.2H1171v-.81h-3.17V366h-1.31v-1.12h1.31v-2H1171V361.5h1.16v1.38h3.33v2h1.34V366h-1.34v2.12h-3.33v.81H1176v3.2h-4.15a16.22,16.22,0,0,1-.82,1.47c1,0,2-.1,3-.16v-.92h1.2v.86l1-.05v1Zm-6.54-3.26H1171v-1.22h-2.46Zm.55-7.25v1H1171v-1Zm1.91,3.2V365.9h-1.91v1.18Zm-.69,7.56c-.2.32-.41.61-.61.89.8.25,1.65.57,2.46.9a3.72,3.72,0,0,0,1.64-2Zm1.85-10.76v1h2v-1Zm2,3.2V365.9h-2v1.18Zm-2,2.83v1.22h2.51v-1.22Zm10.68-3.36a27.79,27.79,0,0,1-1.79,7.52,9.75,9.75,0,0,0,3.32,4.09,4.65,4.65,0,0,0-.88,1,9.75,9.75,0,0,1-3.09-3.71,11.66,11.66,0,0,1-3.55,4,4.6,4.6,0,0,0-.81-1.1,10.21,10.21,0,0,0,3.7-4.42,27.26,27.26,0,0,1-1.44-5.18,13.22,13.22,0,0,1-1,2.16,12,12,0,0,0-1-.89c1.3-2.06,2.06-5.24,2.51-8.46l1.24.19c-.16,1.14-.37,2.3-.63,3.4h4.8v1.32Zm-3.77,0a33,33,0,0,0,1.31,5.81,26.8,26.8,0,0,0,1.14-5.81Z" fill="#4c4948"/>
    </g>
    <rect x="1048.73" y="181.55" width="53.36" height="166.26" fill="#0068b6"/>
    <rect x="1111.51" y="150.77" width="53.36" height="197.05" fill="#f5ab18"/>
    <g>
      <path d="M1056.17,170.58l5.88-8h3.43v8.55h2.3v2.38h-2.3v3h-2.69v-3h-6.62Zm6.62-5.25-4.2,5.78h4.2Z" fill="#002f7c"/>
      <path d="M1070.54,173.05a1.79,1.79,0,1,1-1.79,1.79A1.79,1.79,0,0,1,1070.54,173.05Z" fill="#002f7c"/>
      <path d="M1073.66,172.76a3.63,3.63,0,0,1,2.5-3.4,3.4,3.4,0,0,1-2.18-3.14c0-2.32,2.06-3.95,4.87-3.95s4.89,1.63,4.89,3.95a3.41,3.41,0,0,1-2.2,3.14,3.65,3.65,0,0,1,2.51,3.4c0,2.32-2,4-5.2,4S1073.66,175.08,1073.66,172.76Zm7.7-.28c0-1.1-.86-2.08-2.51-2.08s-2.5,1-2.5,2.08.89,2.05,2.5,2.05S1081.36,173.56,1081.36,172.48Zm-.31-6.09a2.2,2.2,0,1,0-2,2A2.22,2.22,0,0,0,1081.05,166.39Z" fill="#002f7c"/>
      <path d="M1088.24,176.49V167h-3.34v-1.84c2-.06,3.4-1.16,3.68-2.62h2.36v13.93Z" fill="#002f7c"/>
    </g>
    <g>
      <path d="M1122,139.33a2.6,2.6,0,0,0,2.71,2.47,2.37,2.37,0,0,0,2.53-2.21,1.34,1.34,0,0,0,0-.2,2.4,2.4,0,0,0-2.33-2.48h-.25a3,3,0,0,0-2.26,1c-.41-.15-2.14-.74-2.53-.9l1.69-7h7.68v2.36h-5.83l-.81,3.31a4,4,0,0,1,2.61-.88c2.79,0,4.76,1.69,4.76,4.64,0,2.59-2,4.79-5.27,4.79-3,0-5.07-2-5.26-4.2Z" fill="#002f7c"/>
      <path d="M1133,140.41a1.79,1.79,0,1,1-1.79,1.79h0A1.81,1.81,0,0,1,1133,140.41Z" fill="#002f7c"/>
      <path d="M1146.05,132.26c-1.12.92-5,4.47-5.65,11.59h-2.81a17.5,17.5,0,0,1,5.34-11.57h-7.33v-2.36h10.45Z" fill="#002f7c"/>
      <path d="M1156.45,132.51a6,6,0,0,0-2.33-.53,4.49,4.49,0,0,0-4.7,4.27h0a3.94,3.94,0,0,1,3.48-1.63,4.43,4.43,0,0,1,4.71,4.11,5,5,0,0,1,0,.55c0,2.93-2.34,4.85-5.32,4.85s-5.58-2.1-5.58-6.4c0-5,3.14-8.12,7.56-8.12a5.72,5.72,0,0,1,3,.69Zm-4.16,9.33a2.47,2.47,0,0,0,2.61-2.31v-.16a2.5,2.5,0,0,0-2.48-2.52h-.13a2.5,2.5,0,0,0,0,5Z" fill="#002f7c"/>
    </g>
  </g>
  <g>
    <path d="M56.37,411.55c-.79,5.66-2.74,10.09-5.25,12.45a8,8,0,0,0-1.53-1.54c2.14-1.9,3.73-5.3,4.51-9.45H50.32v-1.85h4.42l.37-.09ZM61,419.46h3.66v1.76H61v2.12c0,1.17-.27,1.72-1.06,2a11.27,11.27,0,0,1-3.85.38,8.45,8.45,0,0,0-.75-2c1.35.07,2.68.07,3,0s.53-.13.53-.46v-2.12H55.09v-1.76h3.84v-1.73H56.06V416h2.87v-1.63H56.48v-1.75h2.45v-1.83a18,18,0,0,0,4-2.45h-9.7v-1.88H65l.46-.09,1.41,1A22.34,22.34,0,0,1,61,411.66v.95H63.3v1.75H61V416h2.67v1.74H61Zm8.38-8.22a43.16,43.16,0,0,1-3.46,2.85c.73,3.51,2.1,6.69,4.26,8.3a6.94,6.94,0,0,0-1.43,1.72c-2.63-2.18-4-6.11-4.8-10.66a24.35,24.35,0,0,0,3.84-3.53Z" fill="#0069b3"/>
    <path d="M88.79,416.68a13.48,13.48,0,0,1-4.7,5.36,29,29,0,0,0,7.77,1.83,9.37,9.37,0,0,0-1.26,1.94A27.09,27.09,0,0,1,82,423.25a30.55,30.55,0,0,1-8.72,2.59A6.32,6.32,0,0,0,72.08,424,29.92,29.92,0,0,0,80,422,14.93,14.93,0,0,1,76,418l.4-.18h-1v-1.9H87l.37-.06Zm-14.3-.14H72.57V412H75.9a14.21,14.21,0,0,0-1.26-2.62l1.79-.51a11.46,11.46,0,0,1,1.41,2.76l-1.19.37h4.77a12.73,12.73,0,0,0-1-3.11l1.83-.4a12.6,12.6,0,0,1,1.1,3.05l-1.85.46H85.9a24,24,0,0,0,1.77-3.55l2.14.57c-.58,1-1.22,2.1-1.83,3h3.46v4.57h-2v-2.76H74.49Zm15.92-9.29a119.22,119.22,0,0,1-17.18,1.66,5.7,5.7,0,0,0-.44-1.75A112.92,112.92,0,0,0,89,405.57ZM78.18,417.8A12.28,12.28,0,0,0,82,421.05a11.09,11.09,0,0,0,3.66-3.25Z" fill="#0069b3"/>
    <path d="M97.31,424.2V413.32H93.53v-1.83c2.21-.07,3.73-1.28,4.06-2.94h2.32V424.2Z" fill="#0069b3"/>
    <path d="M105.76,415.42a3.55,3.55,0,1,1,3.62-3.56A3.56,3.56,0,0,1,105.76,415.42Zm0-1.92a1.62,1.62,0,1,0-1.57-1.64A1.54,1.54,0,0,0,105.76,413.5Zm-1.37,10.7,10.18-15.65h2.34L106.75,424.2Zm11.17-6.86a3.54,3.54,0,1,1-3.62,3.53A3.59,3.59,0,0,1,115.56,417.34Zm0,1.92a1.62,1.62,0,1,0,1.55,1.61A1.54,1.54,0,0,0,115.56,419.26Z" fill="#0069b3"/>
    <path d="M124.63,415.59a24.63,24.63,0,0,0-3.91-2.31l1.15-1.53a27.62,27.62,0,0,1,3.95,2.14Zm1.77,3.07c-1,2.3-2.24,4.95-3.36,7l-1.81-1.23a67.22,67.22,0,0,0,3.6-7Zm-.65-8.85a25.45,25.45,0,0,0-3.79-2.45l1.17-1.48a27.62,27.62,0,0,1,3.84,2.27Zm13.8,4.84a17,17,0,0,1-3.55,7,14.12,14.12,0,0,0,5.16,2.56,7.25,7.25,0,0,0-1.34,1.77,15.74,15.74,0,0,1-5.26-2.92,15.48,15.48,0,0,1-5,3,8.28,8.28,0,0,0-1.3-1.72,15.14,15.14,0,0,0,4.92-2.63,18,18,0,0,1-3.31-5.67h-.22c-.13,3.24-.71,7.22-2.74,9.95a6.78,6.78,0,0,0-1.74-1c2.32-3.07,2.54-7.44,2.54-10.62v-5.56h5.19v-3.05h2v3.05h4.29l.35-.07L141,409a30.64,30.64,0,0,1-1.83,4.52l-1.75-.5c.29-.65.62-1.53.93-2.41h-3.47v3.51h3l.4-.09Zm-9.89-4v3.51h3.23v-3.51ZM131.8,416a14.34,14.34,0,0,0,2.74,4.3,13,13,0,0,0,2.52-4.3Z" fill="#0069b3"/>
    <path d="M162.74,410.72s0,.7,0,.94c-.24,9.12-.44,12.25-1.14,13.21a2,2,0,0,1-1.57.94,15.85,15.85,0,0,1-2.72,0,5.35,5.35,0,0,0-.57-1.95c1,.09,1.92.09,2.32.09a.84.84,0,0,0,.79-.35c.49-.62.71-3.42.88-11h-2.6c-.29,5.88-1.28,10.56-5.08,13.47a6.87,6.87,0,0,0-1.48-1.52,3.9,3.9,0,0,0,.4-.31c-3.18.37-6.36.7-8.72.92l-.27-1.74c1.29-.09,2.88-.22,4.62-.37v-1.68h-4v-1.5h4v-1.13h-4V412.1h4V411H143v-1.53h4.55V408.2c-1.35.11-2.69.17-3.93.22a6.27,6.27,0,0,0-.49-1.48,70.29,70.29,0,0,0,9.47-1.08l1,1.54a38.86,38.86,0,0,1-4.15.62v1.41h4.46v1.29h2.31c0-1.51,0-3.07,0-4.73h2c0,1.63,0,3.22,0,4.73ZM145.3,414.8h2.28v-1.35H145.3Zm2.28,2.6v-1.34H145.3v1.34Zm1.88,5.48c1.36-.13,2.78-.27,4.17-.42,1.81-2.5,2.36-5.83,2.54-9.85h-2.34V411h-4.37v1.14h4.1v6.65h-4.1v1.13h4.15v1.5h-4.15Zm2.36-8.08v-1.35h-2.36v1.35Zm-2.36,1.26v1.34h2.36v-1.34Z" fill="#0069b3"/>
    <path d="M52.91,442.54c-.14,2.74-.56,5.85-1.82,8a7.21,7.21,0,0,0-1.67-1.31c1.41-2.62,1.52-6.33,1.52-9.2v-7.77a32.51,32.51,0,0,0,7.46-1.64l1.33,1.73A30.44,30.44,0,0,1,53,433.82v1.86h5.79v6.86Zm.06-5v3.16h3.82v-3.16Zm17,2H67.61v10.82h-2V439.56H62.64c0,3.42-.51,8.11-3.49,11a8.74,8.74,0,0,0-1.63-1.39c2.78-2.71,3-6.64,3-9.73v-7.07a34.4,34.4,0,0,0,7.63-1.85l1.39,1.77a36.08,36.08,0,0,1-7,1.61v3.71H70Z" fill="#0069b3"/>
    <path d="M79.85,438.28c-.29.31-.57.6-.84.84A11.07,11.07,0,0,0,77.82,438a24.49,24.49,0,0,1,.29,4.06c0,3.07-.25,5.88-1.15,7.15a1.76,1.76,0,0,1-1.24.8,9.54,9.54,0,0,1-2.62.13,4.31,4.31,0,0,0-.6-2,16,16,0,0,0,2.39,0,.89.89,0,0,0,.66-.4c.5-.69.7-3.05.7-5.76v-.55a16.76,16.76,0,0,1-3.4,3.81,9.38,9.38,0,0,0-1.12-1.74A13.86,13.86,0,0,0,76,438.44a12.29,12.29,0,0,0-.66-2.48,20,20,0,0,1-2.63,2.43,7.77,7.77,0,0,0-1.15-1.83,14.67,14.67,0,0,0,2.85-2.36,11.56,11.56,0,0,0-2.14-2.43l1.35-1.1a14.1,14.1,0,0,1,2.05,2.14,19.92,19.92,0,0,0,1.46-2.14l1.48,1a29.74,29.74,0,0,1-1.92,2.78,12.33,12.33,0,0,1,1.08,3.31,13.13,13.13,0,0,0,3-3.71l1.43.49v-1.24H78.77v-1.52h3.44V430.2H84v4.26l1.24-.66a22,22,0,0,1,1.74,2h4.11V437h-4.5v.89h4V439h-4v1h4v1.1h-4v1H91.4v1.28H81.64v.53H79.85ZM91.13,445a11,11,0,0,1-3.9,3.07,35.55,35.55,0,0,0,5,.79,8.79,8.79,0,0,0-1.19,1.61A30.4,30.4,0,0,1,84.82,449a35.7,35.7,0,0,1-6.34,1.43,6.74,6.74,0,0,0-.9-1.61A34.59,34.59,0,0,0,82.5,448a12.35,12.35,0,0,1-2.8-2l.75-.31H79v-1.52H89.65l.31-.07ZM84.78,437H81.64v.89h3.14Zm0,2H81.64v1h3.14Zm0,2.05H81.64v1h3.14Zm-2.52-6.57.26.09c-.22.39-.44.77-.7,1.17h3c-.33-.43-.68-.84-1-1.22l.09,0Zm-.44,11.23a11.67,11.67,0,0,0,3,1.57,13,13,0,0,0,3-1.57Zm6.29-11.19h-1.9V430.2h1.9v1.48H92v1.55H88.11Z" fill="#0069b3"/>
    <path d="M100.64,435.79a25.77,25.77,0,0,1-1.85,2.73v11.92h-2V440.8a22.59,22.59,0,0,1-2.32,2.14,14.93,14.93,0,0,0-1-2.08,20.24,20.24,0,0,0,5.39-5.8Zm-.31-4.75a22.15,22.15,0,0,1-5.52,5.32,11.7,11.7,0,0,0-1.06-1.7,16.28,16.28,0,0,0,4.6-4.39Zm13.56,13.55h-3.16v3.74c0,1-.2,1.52-.93,1.81a9.7,9.7,0,0,1-3.35.33,8.31,8.31,0,0,0-.67-1.86c1.11.05,2.17.05,2.48,0s.42-.08.42-.35v-3.69h-8.5v-1.76h8.5v-1.61h-8v-1.7h12.76v1.7h-2.74v1.61h3.16Zm-10.56.14a18.66,18.66,0,0,1,2.72,3l-1.55,1.1a19.06,19.06,0,0,0-2.62-3.11Zm9.25-6.47H101.94v-7.4h10.64Zm-2.07-5.89h-6.58v1.48h6.58Zm0,2.89h-6.58v1.48h6.58Z" fill="#0069b3"/>
    <path d="M135.53,433.62s0,.71,0,1c-.31,9.95-.57,13.37-1.45,14.48a2.47,2.47,0,0,1-1.92,1,23,23,0,0,1-3.34,0,4.64,4.64,0,0,0-.66-2c1.41.11,2.69.13,3.24.13a1,1,0,0,0,.93-.37c.71-.74,1-4.07,1.28-12.39h-5.21a22.39,22.39,0,0,1-2,3.71,10.79,10.79,0,0,0-1.61-1.15v10.13h-6v1.68H116.9V433.73h2.48a26.78,26.78,0,0,0,.77-3.57l2.23.37c-.38,1.11-.8,2.28-1.15,3.2h3.53v4.18a21,21,0,0,0,3.29-7.75l2,.46c-.27,1-.55,2-.91,3Zm-16.75,1.9v4.2h4.11v-4.2Zm4.11,10.86V441.5h-4.11v4.88Zm7.35-1.72a35.17,35.17,0,0,0-3.23-5.1l1.62-.9a39.26,39.26,0,0,1,3.33,4.92Z" fill="#0069b3"/>
    <path d="M144.14,430.56h2v19.93h-2v-5.87c-3.78,1.32-4.46,1.7-4.93,2.05a8.53,8.53,0,0,0-.79-1.88,1.64,1.64,0,0,0,.77-1.5V432.63h2v10.93l2.94-.93Zm12.56,5.76a25.21,25.21,0,0,1-2.85,8.5,13,13,0,0,0,4.53,3.9,6.48,6.48,0,0,0-1.42,1.66,14.41,14.41,0,0,1-4.28-3.82,15,15,0,0,1-4.72,4,8.68,8.68,0,0,0-1.35-1.7,12.49,12.49,0,0,0,4.92-4.06,28.34,28.34,0,0,1-2.4-5.58,11.78,11.78,0,0,1-1.46,2.23,15,15,0,0,0-1.46-1.75c1.88-2.18,3-5.71,3.58-9.47l2.1.36a35.78,35.78,0,0,1-.86,3.81h7.15v1.95Zm-6.47.46a25.09,25.09,0,0,0,2.41,6.16,22.52,22.52,0,0,0,2-6.62h-4.24Z" fill="#0069b3"/>
    <path d="M180.16,448v1.81H160.23V448h2.71v-6.64h14.59V448Zm-.4-11.72H160.58v-1.81h5.47A22.61,22.61,0,0,0,164,431l1.74-.77a16.84,16.84,0,0,1,2.3,3.6l-1.2.59h6.8l-1.21-.44a24.77,24.77,0,0,0,2.16-3.78l2.08.62a35.13,35.13,0,0,1-2.41,3.6h5.54Zm-11.57,1.64a36.11,36.11,0,0,1-6.38,3.84,8.39,8.39,0,0,0-1.23-1.66,24.6,24.6,0,0,0,6.2-3.18ZM164.77,448h2.34v-4.9h-2.34Zm4.22-4.9V448h2.36v-4.9Zm4.1-6.16a60.63,60.63,0,0,1,6.76,2.81l-1.13,1.63a58.58,58.58,0,0,0-6.68-3Zm.14,6.16V448h2.38v-4.9Z" fill="#0069b3"/>
  </g>
  <g>
    <path d="M248.62,426.41a6,6,0,0,1,9.78,0,12.06,12.06,0,0,1,0,11.24,6,6,0,0,1-9.78,0,12.06,12.06,0,0,1,0-11.24Zm2.43,10.35a3.26,3.26,0,0,0,4.9,0c.84-1,1.21-2.56,1.21-4.72s-.37-3.75-1.21-4.72a3.26,3.26,0,0,0-4.9,0c-.84.95-1.22,2.56-1.22,4.72S250.21,435.82,251.05,436.76Z" fill="#0069b3"/>
    <path d="M263.8,436.39a1.8,1.8,0,1,1,0,3.6,1.8,1.8,0,0,1,0-3.6Z" fill="#0069b3"/>
    <path d="M271,439.86V429h-3.77v-1.83c2.2-.07,3.73-1.28,4.06-2.94h2.32v15.66Z" fill="#0069b3"/>
    <path d="M275.83,433.46l6.64-9.26H286V434h2.63v2.36H286v3.47H283.4v-3.47h-7.57Zm7.57-6.65L278.21,434h5.19Z" fill="#0069b3"/>
    <path d="M293.55,431.07a3.55,3.55,0,1,1,3.62-3.55A3.56,3.56,0,0,1,293.55,431.07Zm0-1.92a1.61,1.61,0,1,0-1.57-1.63A1.55,1.55,0,0,0,293.55,429.15Zm-1.37,10.71,10.18-15.66h2.34l-10.16,15.66ZM303.35,433a3.55,3.55,0,1,1-3.62,3.53A3.6,3.6,0,0,1,303.35,433Zm0,1.92a1.63,1.63,0,1,0,1.55,1.61A1.56,1.56,0,0,0,303.35,434.91Z" fill="#0069b3"/>
  </g>
  <g>
    <path d="M457.17,426.41a6,6,0,0,1,9.78,0,12.06,12.06,0,0,1,0,11.24,6,6,0,0,1-9.78,0,12.06,12.06,0,0,1,0-11.24Zm2.43,10.35a3.26,3.26,0,0,0,4.9,0c.84-1,1.21-2.56,1.21-4.72s-.37-3.75-1.21-4.72a3.26,3.26,0,0,0-4.9,0c-.84.95-1.22,2.56-1.22,4.72S458.76,435.82,459.6,436.76Z" fill="#0069b3"/>
    <path d="M472.35,436.39a1.8,1.8,0,1,1,0,3.6,1.8,1.8,0,0,1,0-3.6Z" fill="#0069b3"/>
    <path d="M479.57,439.86V429h-3.78v-1.83c2.21-.07,3.74-1.28,4.07-2.94h2.31v15.66Z" fill="#0069b3"/>
    <path d="M484.82,435.71a4.12,4.12,0,0,1,2.89-3.87,3.86,3.86,0,0,1-2.49-3.57c0-2.59,2.27-4.4,5.32-4.4s5.36,1.81,5.36,4.4a3.83,3.83,0,0,1-2.54,3.57,4.1,4.1,0,0,1,2.92,3.87c0,2.53-2.15,4.48-5.74,4.48S484.82,438.24,484.82,435.71Zm8.81-.25c0-1.39-1.11-2.54-3.09-2.54s-3.07,1.15-3.07,2.54,1.08,2.5,3.07,2.5S493.63,436.81,493.63,435.46Zm-.38-7.06a2.75,2.75,0,0,0-5.43,0,2.73,2.73,0,0,0,5.43,0Z" fill="#0069b3"/>
    <path d="M501.66,431.07a3.55,3.55,0,1,1,3.62-3.55A3.56,3.56,0,0,1,501.66,431.07Zm0-1.92a1.61,1.61,0,1,0-1.57-1.63A1.55,1.55,0,0,0,501.66,429.15Zm-1.37,10.71,10.18-15.66h2.34l-10.16,15.66ZM511.46,433a3.55,3.55,0,1,1-3.62,3.53A3.59,3.59,0,0,1,511.46,433Zm0,1.92a1.63,1.63,0,1,0,1.55,1.61A1.54,1.54,0,0,0,511.46,434.91Z" fill="#0069b3"/>
  </g>
  <g>
    <path d="M666.85,439.86V429h-3.77v-1.83c2.21-.07,3.73-1.28,4.06-2.94h2.32v15.66Z" fill="#0069b3"/>
    <path d="M673.94,436.39a1.8,1.8,0,1,1,0,3.6,1.8,1.8,0,0,1,0-3.6Z" fill="#0069b3"/>
    <path d="M688.73,426.85a6.31,6.31,0,0,0-2.74-.64c-3.11,0-5.17,2.17-5.41,5.26a4.63,4.63,0,0,1,4-1.92,5,5,0,0,1,5.32,5.27c0,3.31-2.67,5.37-5.85,5.37s-6.16-2.19-6.16-7.2c0-5.74,3.51-9.12,8.22-9.12a6.1,6.1,0,0,1,3.33.84Zm-4.64,11.09a3.09,3.09,0,1,0-3.18-3.1A3.09,3.09,0,0,0,684.09,437.94Z" fill="#0069b3"/>
    <path d="M692,429.75A3.77,3.77,0,0,1,692,429c0-2.69,2-5.1,5.5-5.1s5.36,2.23,5.36,4.86a5.68,5.68,0,0,1-3,4.84l-3.07,1.94a3.48,3.48,0,0,0-1.72,2h7.84v2.39h-11.1a7,7,0,0,1,3.7-6.34l2.59-1.65a3.67,3.67,0,0,0,2-3.1,2.53,2.53,0,0,0-2.76-2.58,2.73,2.73,0,0,0-2.85,3c0,.24.05.5.07.77Z" fill="#0069b3"/>
    <path d="M708.35,431.07a3.55,3.55,0,1,1,3.62-3.55A3.56,3.56,0,0,1,708.35,431.07Zm0-1.92a1.61,1.61,0,1,0-1.57-1.63A1.53,1.53,0,0,0,708.35,429.15ZM707,439.86l10.17-15.66h2.34l-10.15,15.66ZM718.15,433a3.55,3.55,0,1,1-3.62,3.53A3.59,3.59,0,0,1,718.15,433Zm0,1.92a1.63,1.63,0,1,0,1.54,1.61A1.54,1.54,0,0,0,718.15,434.91Z" fill="#0069b3"/>
  </g>
  <g>
    <path d="M876.29,439.86V429h-3.77v-1.83c2.21-.07,3.73-1.28,4.06-2.94h2.32v15.66Z" fill="#0069b3"/>
    <path d="M883.38,436.39a1.8,1.8,0,1,1,0,3.6,1.8,1.8,0,0,1,0-3.6Z" fill="#0069b3"/>
    <path d="M887.51,429.75a3.77,3.77,0,0,1-.07-.78c0-2.69,2-5.1,5.5-5.1s5.36,2.23,5.36,4.86a5.68,5.68,0,0,1-3,4.84l-3.07,1.94a3.48,3.48,0,0,0-1.72,2h7.84v2.39H887.28a7,7,0,0,1,3.71-6.34l2.59-1.65a3.67,3.67,0,0,0,2-3.1,2.53,2.53,0,0,0-2.76-2.58,2.73,2.73,0,0,0-2.85,3c0,.24.05.5.07.77Z" fill="#0069b3"/>
    <path d="M903.79,439.86V429H900v-1.83c2.21-.07,3.73-1.28,4.06-2.94h2.32v15.66Z" fill="#0069b3"/>
    <path d="M912.27,431.07a3.55,3.55,0,1,1,3.62-3.55A3.56,3.56,0,0,1,912.27,431.07Zm0-1.92a1.61,1.61,0,1,0-1.57-1.63A1.53,1.53,0,0,0,912.27,429.15Zm-1.37,10.71,10.18-15.66h2.34l-10.16,15.66ZM922.07,433a3.55,3.55,0,1,1-3.62,3.53A3.59,3.59,0,0,1,922.07,433Zm0,1.92a1.63,1.63,0,0,0,0,3.25,1.63,1.63,0,0,0,0-3.25Z" fill="#0069b3"/>
  </g>
  <g>
    <path d="M1076.66,426.41a6,6,0,0,1,9.78,0,12.06,12.06,0,0,1,0,11.24,6,6,0,0,1-9.78,0,12.06,12.06,0,0,1,0-11.24Zm2.43,10.35a3.26,3.26,0,0,0,4.9,0c.84-1,1.21-2.56,1.21-4.72s-.37-3.75-1.21-4.72a3.26,3.26,0,0,0-4.9,0c-.84.95-1.21,2.56-1.21,4.72S1078.25,435.82,1079.09,436.76Z" fill="#0069b3"/>
    <path d="M1091.84,436.39a1.8,1.8,0,1,1,0,3.6,1.8,1.8,0,0,1,0-3.6Z" fill="#0069b3"/>
    <path d="M1095.86,435.71a4.12,4.12,0,0,1,2.89-3.87,3.86,3.86,0,0,1-2.49-3.57c0-2.59,2.27-4.4,5.32-4.4s5.36,1.81,5.36,4.4a3.83,3.83,0,0,1-2.54,3.57,4.1,4.1,0,0,1,2.92,3.87c0,2.53-2.14,4.48-5.74,4.48S1095.86,438.24,1095.86,435.71Zm8.81-.25c0-1.39-1.1-2.54-3.09-2.54s-3.07,1.15-3.07,2.54,1.08,2.5,3.07,2.5S1104.67,436.81,1104.67,435.46Zm-.38-7.06a2.75,2.75,0,0,0-5.43,0,2.73,2.73,0,0,0,5.43,0Z" fill="#0069b3"/>
    <path d="M1109,433.46l6.65-9.26h3.51V434h2.63v2.36h-2.63v3.47h-2.58v-3.47H1109Zm7.58-6.65-5.19,7.22h5.19Z" fill="#0069b3"/>
    <path d="M1126.76,431.07a3.55,3.55,0,1,1,3.62-3.55A3.56,3.56,0,0,1,1126.76,431.07Zm0-1.92a1.61,1.61,0,1,0-1.57-1.63A1.53,1.53,0,0,0,1126.76,429.15Zm-1.37,10.71,10.17-15.66h2.34l-10.15,15.66Zm11.17-6.87a3.55,3.55,0,1,1-3.62,3.53A3.59,3.59,0,0,1,1136.56,433Zm0,1.92a1.63,1.63,0,1,0,1.54,1.61A1.54,1.54,0,0,0,1136.56,434.91Z" fill="#0069b3"/>
  </g>
</svg>
