<svg xmlns="http://www.w3.org/2000/svg" width="1280" height="510" viewBox="0 0 1280 510">
  <g id="圖層_2" data-name="圖層 2">
    <g>
      <path d="M524,84.91H515.9v6.87h-1.49V84.91h-7.94V83.47h7.94V76.62h-6.92V75.18h15.37v1.44h-7v6.85H524Zm-13.8-7.33A18.68,18.68,0,0,1,512,82l-1.37.47a23.23,23.23,0,0,0-1.77-4.5ZM518,82.12a28.83,28.83,0,0,0,2.12-4.64l1.54.43a37.94,37.94,0,0,1-2.42,4.62Z" fill="#4c4948"/>
      <path d="M532.1,84.53l.31,1.3c-2.06,1-4.26,1.94-5.95,2.69l-.57-1.43c.73-.28,1.65-.67,2.67-1.06V79.94h-2.34v-1.4h2.34V74.08h1.38v4.46h2.14v1.4h-2.14v5.5ZM543.57,77s0,.59,0,.77C543.31,87,543.06,90,542.31,91a2,2,0,0,1-1.57.82,22.86,22.86,0,0,1-2.85,0,3.39,3.39,0,0,0-.49-1.43c1.26.12,2.4.12,2.85.12a.82.82,0,0,0,.78-.32c.65-.67.91-3.83,1.12-11.78h-6.59a16.71,16.71,0,0,1-1.91,3.2,9.08,9.08,0,0,0-1.22-.77,18.66,18.66,0,0,0,3.34-6.93l1.34.33a23.82,23.82,0,0,1-1,2.81Zm-8.92,8.45h6.27v1.29h-6.27Zm5.78-4.09v1.28h-4.89V81.35Z" fill="#4c4948"/>
      <path d="M552.11,88.42l4.08-.76.1,1.27c-3.48.67-7.19,1.38-9.76,1.89l-.32-1.38c1.2-.19,2.79-.49,4.5-.78v-3.3h-3.83v-1.3h3.83V81.94h1.4v2.12H556v1.3h-3.9Zm-5.74-13.28h10v1.3H551.1a25.71,25.71,0,0,1-2.25,3.65l5-.43c-.48-.69-1-1.35-1.46-1.94l1-.63a27.24,27.24,0,0,1,3,4.2l-1.12.73a12,12,0,0,0-.69-1.22c-6.11.59-6.81.67-7.29.89a9.22,9.22,0,0,0-.49-1.38c.32-.06.61-.39.94-.86a18.07,18.07,0,0,0,1.71-3h-3.1Zm12.49,12.22h-1.37V75.56h1.37Zm3.91-13.18V89.5c0,.93-.21,1.38-.8,1.59a9.83,9.83,0,0,1-3.07.28,5.63,5.63,0,0,0-.53-1.44c1.14,0,2.22,0,2.56,0s.41-.1.41-.44V74.18Z" fill="#4c4948"/>
      <path d="M575,87.05H565.4V85.73h1.9v-8h-1.65V76.44h1.65V74.06h1.34v2.38h3.55V74.06h1.36v2.38H575v1.32h-1.43v8H575Zm-5.48.78a12.91,12.91,0,0,1-2.9,4,9,9,0,0,0-1.19-.84,10.2,10.2,0,0,0,2.7-3.5Zm-.86-10.07v1.73h3.55V77.76Zm0,4.83h3.55V80.66h-3.55Zm0,3.14h3.55v-2h-3.55ZM572,87.46a14.09,14.09,0,0,1,2.07,2.91l-1.18.69a15.28,15.28,0,0,0-2-3Zm10.71,2.46c0,.86-.21,1.29-.74,1.53a9,9,0,0,1-2.93.27,5.07,5.07,0,0,0-.46-1.41c1,0,2,0,2.3,0s.42-.1.42-.41V85.18h-4.15a15.42,15.42,0,0,1-1.86,6.72,4.22,4.22,0,0,0-1.16-.86c1.63-2.6,1.78-6.31,1.78-9.12V74.83h6.8Zm-1.41-6V80.6h-4v1.32c0,.61,0,1.28,0,2Zm-4-7.71v3.13h4V76.16Z" fill="#4c4948"/>
      <path d="M603,90v1.27H591.1V90H593v-11h2.69c.1-.5.19-1.06.31-1.63H592.2V76.13H589c-.16.9-.36,1.78-.55,2.63h2.33l.26,0,.85.24c-.69,6.42-2.72,10.62-5.6,12.8a4.2,4.2,0,0,0-1-1A11.15,11.15,0,0,0,589,85.79a24.14,24.14,0,0,0-2.2-2.32,9.14,9.14,0,0,1-.85,1.46,7,7,0,0,0-.94-1,19.48,19.48,0,0,0,2.71-7.76h-2.2V74.75h6.72V76h4c.11-.77.21-1.51.27-2.18l1.59.1c-.12.64-.25,1.37-.41,2.08h4.81v1.26h-5.07c-.13.57-.25,1.13-.39,1.63h4.34V90Zm-14.84-9.87a17.21,17.21,0,0,1-.76,2.2c.72.65,1.53,1.42,2.18,2.09a25.93,25.93,0,0,0,.92-4.29ZM594.4,80v1.66h5.54V80Zm5.54,2.73H594.4v1.67h5.54ZM594.4,85.5v1.69h5.54V85.5Zm0,4.46h5.54V88.27H594.4Z" fill="#4c4948"/>
      <path d="M610.69,79.74h4V81.1h-4v.53c.95.88,3.21,3.14,3.79,3.73l-.86,1.2c-.59-.75-1.9-2.18-2.93-3.28v8.48h-1.45V83.33a21.29,21.29,0,0,1-3.71,5.76,10.7,10.7,0,0,0-.81-1.37A19.85,19.85,0,0,0,609,81.1h-3.83V79.74h4.12V76.4c-1.28.26-2.55.45-3.77.63a4.23,4.23,0,0,0-.45-1.16A37.89,37.89,0,0,0,613.13,74l1.08,1.13a29.84,29.84,0,0,1-3.52,1Zm7,7.21h-1.44V76.19h1.44Zm4.16-12.87V89.76c0,1-.27,1.43-.88,1.67a11.29,11.29,0,0,1-3.5.29,7.23,7.23,0,0,0-.53-1.47c1.36,0,2.6,0,3,0s.51-.12.51-.51V74.08Z" fill="#4c4948"/>
      <path d="M642.35,87.66h-8V91.8h-1.53V87.66h-8V86.3h8V84.69h1.53V86.3h8Zm-12.3-5.11c-1.49.81-3.08,1.65-4.38,2.3L625,83.67c1.21-.49,3-1.36,4.81-2.2ZM636.77,85a4.7,4.7,0,0,0-.53-1c-5.1.5-5.79.59-6.19.79a12,12,0,0,0-.43-1.28,4.14,4.14,0,0,0,1.63-1c.37-.31,1.22-1.08,2.16-2a11.18,11.18,0,0,0-3,.39,7.26,7.26,0,0,0-.42-1.24,1.53,1.53,0,0,0,.87-.62,13.89,13.89,0,0,0,1.51-2h-7.15V75.62h8a17.82,17.82,0,0,0-.91-1.54l1.42-.37a12.35,12.35,0,0,1,1.16,1.91h7.28V77h-8.27a21.67,21.67,0,0,1-1.86,2.4l2.49-.16a17.39,17.39,0,0,0,1.32-1.63l1.2.69a39.27,39.27,0,0,1-5,4.89l3.43-.28c-.31-.43-.64-.88-1-1.25l1.08-.45a14.63,14.63,0,0,1,2.26,3.3ZM626.5,77.76a17,17,0,0,1,3,2.22l-1,.88a15.83,15.83,0,0,0-2.94-2.3ZM640.88,85A26.1,26.1,0,0,0,637,82.29l1-.78A24.85,24.85,0,0,1,642,84.18Zm.33-6.6a19.61,19.61,0,0,1-2.93,2.46l-1.06-.69A16.66,16.66,0,0,0,640,77.7Z" fill="#4c4948"/>
      <path d="M645.58,80.41l1.24-2-2.14-.88.35-1,2.24.55.2-2.38h1.06l.2,2.36,2.23-.53.34,1-2.14.88,1.25,2-.86.63L648,79.17,646.45,81Z" fill="#4c4948"/>
    </g>
    <g>
      <path d="M57.91,340.35c3.44,0,4.6,3.27,4.6,6.33S61.35,353,57.91,353s-4.59-3.25-4.59-6.31S54.45,340.35,57.91,340.35Zm0,11.7c2.46,0,3.55-2.32,3.55-5.37s-1.09-5.39-3.55-5.39-3.54,2.33-3.54,5.39S55.44,352.05,57.91,352.05Z" fill="#4c4948"/>
      <path d="M65.79,351a.91.91,0,0,1,.91.91.91.91,0,0,1-1.81,0A.91.91,0,0,1,65.79,351Z" fill="#4c4948"/>
      <path d="M73.68,340.35c3.44,0,4.6,3.27,4.6,6.33S77.12,353,73.68,353s-4.59-3.25-4.59-6.31S70.22,340.35,73.68,340.35Zm0,11.7c2.46,0,3.54-2.32,3.54-5.37s-1.08-5.39-3.54-5.39-3.55,2.33-3.55,5.39S71.2,352.05,73.68,352.05Z" fill="#4c4948"/>
      <path d="M82.86,345.72a2.65,2.65,0,1,1,2.65-2.65A2.64,2.64,0,0,1,82.86,345.72Zm0-.86a1.79,1.79,0,1,0-1.73-1.79A1.73,1.73,0,0,0,82.86,344.86Zm-1,7.91L90,340.57h1l-8.14,12.2Zm8.19-5.14a2.64,2.64,0,1,1-2.65,2.63A2.62,2.62,0,0,1,90.07,347.63Zm0,.86a1.78,1.78,0,1,0,1.72,1.77A1.73,1.73,0,0,0,90.07,348.49Z" fill="#4c4948"/>
    </g>
    <g>
      <path d="M62.14,318.49h-1V308.27a4.31,4.31,0,0,1-3,1.43v-.89a3.39,3.39,0,0,0,3.11-2.52h1Z" fill="#4c4948"/>
      <path d="M65.79,316.76a.91.91,0,0,1,.91.91.91.91,0,0,1-1.81,0A.9.9,0,0,1,65.79,316.76Z" fill="#4c4948"/>
      <path d="M73.68,306.07c3.44,0,4.6,3.27,4.6,6.33s-1.16,6.32-4.6,6.32-4.59-3.25-4.59-6.32S70.22,306.07,73.68,306.07Zm0,11.7c2.46,0,3.54-2.32,3.54-5.37S76.14,307,73.68,307s-3.55,2.32-3.55,5.38S71.2,317.77,73.68,317.77Z" fill="#4c4948"/>
      <path d="M82.86,311.44a2.64,2.64,0,1,1,2.65-2.65A2.64,2.64,0,0,1,82.86,311.44Zm0-.86a1.78,1.78,0,1,0-1.73-1.79A1.73,1.73,0,0,0,82.86,310.58Zm-1,7.91L90,306.29h1l-8.14,12.2Zm8.19-5.14A2.64,2.64,0,1,1,87.42,316,2.63,2.63,0,0,1,90.07,313.35Zm0,.86A1.78,1.78,0,1,0,91.79,316,1.73,1.73,0,0,0,90.07,314.21Z" fill="#4c4948"/>
    </g>
    <line x1="103.13" y1="313.54" x2="1232" y2="313.54" fill="none" stroke="#9e9e9f" stroke-miterlimit="10" stroke-width="0.5"/>
    <g>
      <path d="M54.5,284.22c0-1.89,1-3.27,3-4.63l1.81-1.22a3.75,3.75,0,0,0,2-3,2.58,2.58,0,0,0-2.76-2.65,2.81,2.81,0,0,0-3,3,2.88,2.88,0,0,0,0,.58l-1.07-.15c0-.16,0-.42,0-.55a3.84,3.84,0,0,1,4-3.82,3.53,3.53,0,0,1,3.84,3.58c0,2.7-2.81,4-4.92,5.4a3.67,3.67,0,0,0-1.7,2.44h6.77v1Z" fill="#4c4948"/>
      <path d="M65.79,282.48a.92.92,0,0,1,.91.92.91.91,0,0,1-1.81,0A.91.91,0,0,1,65.79,282.48Z" fill="#4c4948"/>
      <path d="M73.68,271.8c3.44,0,4.6,3.27,4.6,6.33s-1.16,6.31-4.6,6.31-4.59-3.25-4.59-6.31S70.22,271.8,73.68,271.8Zm0,11.7c2.46,0,3.54-2.32,3.54-5.37s-1.08-5.39-3.54-5.39-3.55,2.33-3.55,5.39S71.2,283.5,73.68,283.5Z" fill="#4c4948"/>
      <path d="M82.86,277.17a2.65,2.65,0,1,1,2.65-2.65A2.64,2.64,0,0,1,82.86,277.17Zm0-.86a1.79,1.79,0,1,0-1.73-1.79A1.73,1.73,0,0,0,82.86,276.31Zm-1,7.91L90,272h1l-8.14,12.2Zm8.19-5.14a2.64,2.64,0,1,1-2.65,2.63A2.63,2.63,0,0,1,90.07,279.08Zm0,.86a1.78,1.78,0,1,0,1.72,1.77A1.73,1.73,0,0,0,90.07,279.94Z" fill="#4c4948"/>
    </g>
    <line x1="103.13" y1="279.26" x2="1232" y2="279.26" fill="none" stroke="#9e9e9f" stroke-miterlimit="10" stroke-width="0.5"/>
    <g>
      <path d="M62.56,246.35c0,2.25-1.86,3.82-4.27,3.82s-4.25-1.59-4.37-3.7l1-.24a3.17,3.17,0,0,0,3.36,3,2.94,2.94,0,0,0,3.18-2.84,2.74,2.74,0,0,0-3-2.75,4.48,4.48,0,0,0-1.15.15l-.52-.89,4.1-4.15H54.23v-1H62.3v1l-4,4.06a4.54,4.54,0,0,1,.59-.05A3.5,3.5,0,0,1,62.56,246.35Z" fill="#4c4948"/>
      <path d="M65.79,248.21a.91.91,0,0,1,.91.91.91.91,0,0,1-1.81,0A.9.9,0,0,1,65.79,248.21Z" fill="#4c4948"/>
      <path d="M73.68,237.52c3.44,0,4.6,3.27,4.6,6.33s-1.16,6.32-4.6,6.32-4.59-3.25-4.59-6.32S70.22,237.52,73.68,237.52Zm0,11.7c2.46,0,3.54-2.32,3.54-5.37s-1.08-5.38-3.54-5.38-3.55,2.32-3.55,5.38S71.2,249.22,73.68,249.22Z" fill="#4c4948"/>
      <path d="M82.86,242.89a2.64,2.64,0,1,1,2.65-2.65A2.64,2.64,0,0,1,82.86,242.89Zm0-.86a1.78,1.78,0,1,0-1.73-1.79A1.73,1.73,0,0,0,82.86,242Zm-1,7.91L90,237.74h1l-8.14,12.2Zm8.19-5.14a2.64,2.64,0,1,1-2.65,2.63A2.63,2.63,0,0,1,90.07,244.8Zm0,.86a1.78,1.78,0,1,0,1.72,1.77A1.73,1.73,0,0,0,90.07,245.66Z" fill="#4c4948"/>
    </g>
    <line x1="103.13" y1="244.99" x2="1232" y2="244.99" fill="none" stroke="#9e9e9f" stroke-miterlimit="10" stroke-width="0.5"/>
    <g>
      <path d="M53.63,211.4l5.61-7.93h1.55v8.23H63v1H60.79v3h-1v-3H53.63Zm6.12-7-5.13,7.27h5.13Z" fill="#4c4948"/>
      <path d="M65.79,213.93a.91.91,0,0,1,.91.91.91.91,0,0,1-1.81,0A.91.91,0,0,1,65.79,213.93Z" fill="#4c4948"/>
      <path d="M73.68,203.25c3.44,0,4.6,3.27,4.6,6.33s-1.16,6.31-4.6,6.31-4.59-3.25-4.59-6.31S70.22,203.25,73.68,203.25Zm0,11.7c2.46,0,3.54-2.33,3.54-5.37s-1.08-5.39-3.54-5.39-3.55,2.33-3.55,5.39S71.2,215,73.68,215Z" fill="#4c4948"/>
      <path d="M82.86,208.62A2.65,2.65,0,1,1,85.51,206,2.64,2.64,0,0,1,82.86,208.62Zm0-.86A1.79,1.79,0,1,0,81.13,206,1.73,1.73,0,0,0,82.86,207.76Zm-1,7.91L90,203.47h1l-8.14,12.2Zm8.19-5.14a2.64,2.64,0,1,1-2.65,2.63A2.63,2.63,0,0,1,90.07,210.53Zm0,.86a1.78,1.78,0,1,0,1.72,1.77A1.73,1.73,0,0,0,90.07,211.39Z" fill="#4c4948"/>
    </g>
    <line x1="103.13" y1="210.71" x2="1232" y2="210.71" fill="none" stroke="#9e9e9f" stroke-miterlimit="10" stroke-width="0.5"/>
    <g>
      <path d="M55.09,177.73a3.16,3.16,0,0,0,3.27,2.94,3.08,3.08,0,1,0,0-6.16,3.75,3.75,0,0,0-2.76,1.24l-1.06-.43,1.56-6.12h6.06v1H56.83l-1.15,4.56a4.09,4.09,0,0,1,7,2.85,4,4,0,0,1-4.28,4,4.09,4.09,0,0,1-4.3-3.58Z" fill="#4c4948"/>
      <path d="M65.79,179.66a.91.91,0,0,1,.91.91.91.91,0,0,1-1.81,0A.9.9,0,0,1,65.79,179.66Z" fill="#4c4948"/>
      <path d="M73.68,169c3.44,0,4.6,3.27,4.6,6.33s-1.16,6.32-4.6,6.32-4.59-3.25-4.59-6.32S70.22,169,73.68,169Zm0,11.7c2.46,0,3.54-2.32,3.54-5.37s-1.08-5.38-3.54-5.38-3.55,2.32-3.55,5.38S71.2,180.67,73.68,180.67Z" fill="#4c4948"/>
      <path d="M82.86,174.34a2.64,2.64,0,1,1,2.65-2.65A2.64,2.64,0,0,1,82.86,174.34Zm0-.86a1.78,1.78,0,1,0-1.73-1.79A1.72,1.72,0,0,0,82.86,173.48Zm-1,7.92L90,169.2h1L82.9,181.4Zm8.19-5.15a2.64,2.64,0,1,1-2.65,2.63A2.63,2.63,0,0,1,90.07,176.25Zm0,.86a1.78,1.78,0,1,0,1.72,1.77A1.73,1.73,0,0,0,90.07,177.11Z" fill="#4c4948"/>
    </g>
    <line x1="103.13" y1="176.44" x2="1232" y2="176.44" fill="none" stroke="#9e9e9f" stroke-miterlimit="10" stroke-width="0.5"/>
    <g>
      <path d="M63.29,101.73a16.86,16.86,0,0,0-5.53,11.12H56.65a17.49,17.49,0,0,1,5.51-11.22H54.61v-1h8.68Z" fill="#4c4948"/>
      <path d="M65.79,111.11a.91.91,0,0,1,.91.91.91.91,0,0,1-1.81,0A.9.9,0,0,1,65.79,111.11Z" fill="#4c4948"/>
      <path d="M73.68,100.42c3.44,0,4.59,3.27,4.59,6.33s-1.15,6.32-4.59,6.32-4.6-3.25-4.6-6.32S70.22,100.42,73.68,100.42Zm0,11.7c2.46,0,3.54-2.32,3.54-5.37s-1.08-5.38-3.54-5.38-3.55,2.32-3.55,5.38S71.2,112.12,73.68,112.12Z" fill="#4c4948"/>
      <path d="M82.86,105.79a2.64,2.64,0,1,1,2.65-2.65A2.64,2.64,0,0,1,82.86,105.79Zm0-.86a1.78,1.78,0,1,0-1.74-1.79A1.73,1.73,0,0,0,82.86,104.93Zm-1,7.92L90,100.65h1l-8.13,12.2Zm8.19-5.15a2.64,2.64,0,1,1-2.65,2.63A2.64,2.64,0,0,1,90.07,107.7Zm0,.86a1.78,1.78,0,1,0,1.72,1.77A1.73,1.73,0,0,0,90.07,108.56Z" fill="#4c4948"/>
    </g>
    <line x1="103.13" y1="108.9" x2="1232" y2="108.9" fill="none" stroke="#9e9e9f" stroke-miterlimit="10" stroke-width="0.5"/>
    <line x1="29" y1="396.11" x2="1232" y2="396.11" fill="none" stroke="#9e9e9f" stroke-miterlimit="10"/>
    <g>
      <path d="M62.63,143.28a4.1,4.1,0,0,1-4.31,4.06c-2.58,0-4.55-2-4.55-5.67,0-4.63,2.75-7,5.93-7a4.91,4.91,0,0,1,2.62.67l-.35.91a4.19,4.19,0,0,0-2.32-.6c-3.24,0-4.8,2.77-4.87,5.82a4.13,4.13,0,0,1,7.85,1.78Zm-4.29,3.14a3.09,3.09,0,0,0,3.2-3.15,3,3,0,0,0-3.16-3.17,3.19,3.19,0,0,0-3.24,3.17A3.13,3.13,0,0,0,58.34,146.42Z" fill="#4c4948"/>
      <path d="M65.79,145.38a.91.91,0,0,1,.91.91.91.91,0,0,1-1.81,0A.91.91,0,0,1,65.79,145.38Z" fill="#4c4948"/>
      <path d="M73.68,134.7c3.44,0,4.59,3.27,4.59,6.33s-1.15,6.31-4.59,6.31-4.6-3.25-4.6-6.31S70.22,134.7,73.68,134.7Zm0,11.7c2.46,0,3.54-2.32,3.54-5.37s-1.08-5.38-3.54-5.38S70.13,138,70.13,141,71.2,146.4,73.68,146.4Z" fill="#4c4948"/>
      <path d="M82.86,140.07a2.65,2.65,0,1,1,2.65-2.65A2.64,2.64,0,0,1,82.86,140.07Zm0-.86a1.78,1.78,0,1,0-1.74-1.79A1.74,1.74,0,0,0,82.86,139.21Zm-1,7.91L90,134.92h1l-8.13,12.2ZM90.07,142a2.64,2.64,0,1,1-2.65,2.63A2.64,2.64,0,0,1,90.07,142Zm0,.86a1.78,1.78,0,1,0,1.72,1.77A1.73,1.73,0,0,0,90.07,142.84Z" fill="#4c4948"/>
    </g>
    <line x1="103.13" y1="142.16" x2="1232" y2="142.16" fill="none" stroke="#9e9e9f" stroke-miterlimit="10" stroke-width="0.5"/>
    <line x1="103.13" y1="347.81" x2="1232" y2="347.81" fill="none" stroke="#9e9e9f" stroke-miterlimit="10" stroke-width="0.5"/>
    <rect x="480.76" y="73.84" width="16.44" height="16.44" fill="#0068b6"/>
    <g>
      <path d="M728.76,89.29v1.43H711.41V89.29h4.78c.39-1.79.8-4.09,1.19-6.43h-3.65V81.43h3.89c.24-1.45.45-2.91.63-4.22h-5.6V75.77h14.69v1.44H719.8c-.2,1.31-.41,2.79-.65,4.22h5l.26-.08,1.12.12c-.14,2.16-.42,5.26-.71,7.82Zm-9.83-6.43c-.37,2.34-.78,4.64-1.15,6.43h5.48c.21-2.1.45-4.62.6-6.43Z" fill="#4c4948"/>
      <path d="M748.67,87.3h-7.11v4.5h-1.48V87.3H731V85.89h3.22V80.63h5.85v-3h-4.77a18.41,18.41,0,0,1-3,3.87,7.72,7.72,0,0,0-1.26-.92,16.76,16.76,0,0,0,4.43-6.78l1.47.35c-.28.69-.59,1.4-.9,2.06h11.7v1.42h-6.2v3h5.75V82h-5.75v3.89h7.11Zm-8.59-1.41V82h-4.4v3.89Z" fill="#4c4948"/>
      <path d="M768.44,87.3h-7.11v4.5h-1.48V87.3h-9.07V85.89H754V80.63h5.85v-3h-4.77a18.06,18.06,0,0,1-3,3.87,8.7,8.7,0,0,0-1.26-.92,16.74,16.74,0,0,0,4.42-6.78l1.47.35c-.27.69-.59,1.4-.9,2.06h11.7v1.42h-6.2v3h5.75V82h-5.75v3.89h7.11Zm-8.59-1.41V82h-4.4v3.89Z" fill="#4c4948"/>
      <path d="M777.05,74.38a28.55,28.55,0,0,1-2,3.71V91.8h-1.42V80.17a23.78,23.78,0,0,1-2.65,3,11.92,11.92,0,0,0-.82-1.46,22,22,0,0,0,5.5-7.77Zm8.29,15.42c1.1,0,1.26-.87,1.42-4.23a3.88,3.88,0,0,0,1.35.67c-.23,3.64-.63,4.89-2.69,4.89h-3.73c-2,0-2.56-.57-2.56-2.65V74.16h1.42V79.5h7v1.42h-7v7.6c0,1,.22,1.28,1.24,1.28Z" fill="#4c4948"/>
      <path d="M793.58,82.45a20.45,20.45,0,0,0-3.46-2.1l.85-1.06a22.45,22.45,0,0,1,3.46,2Zm1.36,2.77c-.89,2.06-2,4.5-3.05,6.31l-1.27-.89a57.53,57.53,0,0,0,3.2-6.28Zm-.37-7.88a20.21,20.21,0,0,0-3.38-2.25l.82-1a18.64,18.64,0,0,1,3.4,2.12Zm12.09,4.52a14.61,14.61,0,0,1-3.31,6.21,12.92,12.92,0,0,0,4.91,2.47,5.51,5.51,0,0,0-1,1.26,13.83,13.83,0,0,1-5-2.75,15.49,15.49,0,0,1-4.81,2.79,5.76,5.76,0,0,0-.94-1.22,14.61,14.61,0,0,0,4.73-2.55,16.43,16.43,0,0,1-3.12-5.27h-.49c-.1,2.89-.61,6.47-2.54,9a4.56,4.56,0,0,0-1.21-.74c2.14-2.72,2.35-6.58,2.35-9.41V76.68H801V73.85h1.43v2.83h4.32l.24-.06,1,.29a27,27,0,0,1-1.67,4l-1.24-.39c.32-.63.67-1.54,1-2.42h-3.69v3.44h3l.27-.06Zm-8.95-3.81v3.44H801V78.05Zm1.84,4.75a13.51,13.51,0,0,0,2.76,4.33,12.19,12.19,0,0,0,2.57-4.33Z" fill="#4c4948"/>
      <path d="M827.3,78.46s0,.55,0,.73c-.23,8.21-.43,10.88-1.06,11.71a1.64,1.64,0,0,1-1.39.74,18.7,18.7,0,0,1-2.38,0,3.39,3.39,0,0,0-.41-1.31c1,.08,1.86.08,2.24.08a.71.71,0,0,0,.7-.3c.47-.57.71-3.24.91-10.29H823.1c-.24,5.36-1.12,9.58-4.6,12.18a4.26,4.26,0,0,0-1.14-1.14,7.32,7.32,0,0,0,.87-.69c-3,.37-6,.71-8.14,1l-.23-1.29c1.16-.08,2.63-.22,4.24-.38V87.73h-3.71V86.62h3.71V85.46h-3.65V79.6h3.65V78.36h-4.22V77.23h4.22V76c-1.26.1-2.53.18-3.69.22a4.22,4.22,0,0,0-.36-1.07,60,60,0,0,0,8.47-1l.79,1.08a31.63,31.63,0,0,1-3.87.63v1.4h4.16v1.13h-4.16V79.6h3.81v5.86h-3.81v1.16h3.87v1.11h-3.87v1.6c1.27-.14,2.61-.28,3.93-.44v0c1.67-2.29,2.18-5.38,2.33-9.09h-2.27V78.46h2.33c0-1.35,0-2.79,0-4.3h1.4c0,1.5,0,2.93-.06,4.3ZM811.65,82h2.45V80.63h-2.45Zm2.45,2.41V83h-2.45v1.43Zm1.34-3.8V82H818V80.63ZM818,83h-2.55v1.43H818Z" fill="#4c4948"/>
      <path d="M832.6,81.1c0,3.12-.24,7.62-1.89,10.7a5.15,5.15,0,0,0-1.3-.67c1.59-2.94,1.75-7.11,1.75-10V75.81h7.56c-.23-.55-.51-1.2-.78-1.71l1.43-.35a14,14,0,0,1,1,2.06h6.81v1.36H832.6Zm13,4.42a9.77,9.77,0,0,1-4.07,3.85,25.38,25.38,0,0,0,5.9,1.17,5.5,5.5,0,0,0-.83,1.26,23.34,23.34,0,0,1-6.7-1.69,27.69,27.69,0,0,1-6.87,1.57,5.83,5.83,0,0,0-.63-1.21,28.58,28.58,0,0,0,6-1.14,9.9,9.9,0,0,1-3.16-2.77l.69-.28h-2.58v-1.2h11.1l.28-.08Zm-9.39-1.69V80.59h-3.14V79.37h3.14V77.68h1.4v1.69h4.75V77.68h1.43v1.69H847v1.22h-3.17v3.24Zm.43,2.45a3.57,3.57,0,0,0,6.78,0Zm1-5.69v2.06h4.75V80.59Z" fill="#4c4948"/>
    </g>
    <rect x="685.62" y="73.84" width="16.44" height="16.44" fill="#f5ab18"/>
    <g>
      <g>
        <path d="M225.54,362.05a20.3,20.3,0,0,0,8.33,6.7,5.84,5.84,0,0,0-1.08,1.24,24,24,0,0,1-8-6.54,30.35,30.35,0,0,1-8.17,6.77,5.49,5.49,0,0,0-.89-1.23,25,25,0,0,0,7.37-5.56h-3.5v-1.38Zm-.08,15.52h7.59v1.33H216.51v-1.33H224v-3.28h-5.5V373H224v-3H219.3v-1.32h10.92V370h-4.76v3H231v1.3h-5.56Z" fill="#4c4948"/>
        <path d="M242.05,375.39c-2.18.69-4.49,1.41-6.26,2l-.32-1.41c.71-.2,1.59-.45,2.58-.75v-5.4h-2.2v-1.37h2.2v-4.27h-2.36v-1.37h6v1.37h-2.26v4.27h2v1.37h-2v5l2.42-.77ZM253.21,368a42.46,42.46,0,0,1-3.42,4.23,11.29,11.29,0,0,0,4,4.65,3.4,3.4,0,0,0-.92,1.1,12.41,12.41,0,0,1-4.54-5.91v5.5c0,.88-.24,1.29-.77,1.53a7.52,7.52,0,0,1-3,.32,6.13,6.13,0,0,0-.53-1.42c1.14,0,2.14,0,2.43,0s.43-.12.43-.45V373c-1.61,1.63-3.28,3.24-4.61,4.5l-.9-1.26c1.33-1.1,3.49-3,5.51-4.85v-5.1h-4.75V364.9h4.75v-3.4h1.42v3.4h5.15v1.36h-5.15v.7a24.24,24.24,0,0,0,1,4.11,28.27,28.27,0,0,0,2.63-3.72Zm-9.62-.57a15.85,15.85,0,0,1,2.14,3.64l-1.2.57a17.3,17.3,0,0,0-2.08-3.68Zm8-2.83a11.38,11.38,0,0,0-2.32-2.16l.85-.76a14.58,14.58,0,0,1,2.36,2Z" fill="#4c4948"/>
        <path d="M262.34,362.56a26.22,26.22,0,0,1-5.76,8.35,10.77,10.77,0,0,0-1.3-1.18,20.37,20.37,0,0,0,5.47-7.66Zm5.51,9.33a58.92,58.92,0,0,1,4.4,6.6l-1.45.81c-.27-.55-.65-1.18-1.06-1.89-10.17.71-11.25.77-12,1a8.88,8.88,0,0,0-.57-1.55c.53-.12,1.1-.76,1.85-1.69a43.94,43.94,0,0,0,4.95-7.74l1.63.69a51.71,51.71,0,0,1-5.76,8.43l9.08-.51c-.77-1.22-1.65-2.5-2.44-3.54Zm.42-9.9a14.2,14.2,0,0,0,5.2,7.56,8.47,8.47,0,0,0-1.14,1.36,16.38,16.38,0,0,1-5.16-7.44h-3.66V362Z" fill="#4c4948"/>
        <path d="M280.81,361.89a28.26,28.26,0,0,1-1.91,4v13.38h-1.41V368.12a23.1,23.1,0,0,1-2,2.44,9.16,9.16,0,0,0-.89-1.34,22.1,22.1,0,0,0,4.88-7.72Zm4.91,14.93a16.15,16.15,0,0,1-4.71,2.69,9.52,9.52,0,0,0-1.1-1.1,13.86,13.86,0,0,0,4.42-2.1Zm.18-13.22h-4.81v-1h4.81V361.5h1.47v1.08h5v1h-5v1h4.44v1h-4.44v1H293v1.06H280.22v-1.06h5.68v-1h-4.32v-1h4.32ZM281.75,376v-7.39h10V376Zm1.42-5.21h7.11v-1.2h-7.11Zm0,2.08h7.11v-1.21h-7.11Zm0,2.11h7.11v-1.24h-7.11Zm6.15,1.23a29.94,29.94,0,0,1,3.89,2.52l-1.46.8a25.27,25.27,0,0,0-3.89-2.71Z" fill="#4c4948"/>
        <path d="M301.55,371.28l-2.46.75v5.64c0,.84-.2,1.21-.71,1.47a6.74,6.74,0,0,1-2.59.26,5.71,5.71,0,0,0-.45-1.36c.88,0,1.71,0,1.94,0s.38-.08.38-.37v-5.19l-2.66.79-.43-1.44c.85-.21,1.93-.51,3.09-.84v-4.15h-2.79v-1.39h2.79V361.5h1.43v3.95h2.22v1.39h-2.22v3.72c.75-.2,1.51-.43,2.26-.67Zm3.55-2.1c-1.93,0-2.53-.61-2.53-2.3v-5.32H304v2.36h7.9v1.27H304v1.73c0,.73.22,1,1.08,1h5.15a15.15,15.15,0,0,0,2.16-.14c.06.39.12.94.18,1.27a13,13,0,0,1-2.26.12Zm-2.51,1.67h9.19v8.49h-1.43v-.83H304v.91h-1.39Zm1.39,1.26v1.94h6.37v-1.94Zm6.37,5.2v-2.06H304v2.06Z" fill="#4c4948"/>
        <path d="M323.16,374.39a4.17,4.17,0,0,1-1.69,2.59,16.71,16.71,0,0,1,2.26,1.16l-1,.84a22.54,22.54,0,0,0-2.41-1.27,20.56,20.56,0,0,1-5.51,1.69,4,4,0,0,0-.61-1,20,20,0,0,0,4.74-1.29,22.38,22.38,0,0,0-3-1.08c.31-.4.66-.83,1-1.3l-2.32.12-.14-1.08c.88,0,2-.08,3.18-.12.3-.53.61-1,.89-1.55h-3.21v-3.2h3.72v-.81h-3.17V366H314.6v-1.12h1.31v-2h3.17v-1.38h1.16v1.38h3.33v2h1.34V366h-1.34v2.12h-3.33v.81h3.81v3.2H319.9a13.53,13.53,0,0,1-.82,1.47c1,0,2-.1,3-.16v-.92h1.2v.86l1-.05v1Zm-6.54-3.26h2.46v-1.22h-2.46Zm.55-7.25v1h1.91v-1Zm1.91,3.2V365.9h-1.91v1.18Zm-.69,7.56c-.2.32-.41.61-.61.89.81.25,1.65.57,2.46.9a3.84,3.84,0,0,0,1.65-2Zm1.85-10.76v1h2v-1Zm2,3.2V365.9h-2v1.18Zm-2,2.83v1.22h2.51v-1.22Zm10.68-3.36a27.77,27.77,0,0,1-1.79,7.52,9.75,9.75,0,0,0,3.32,4.09,4.67,4.67,0,0,0-.88,1,9.68,9.68,0,0,1-3.08-3.71,11.79,11.79,0,0,1-3.56,4,4.86,4.86,0,0,0-.8-1.1,10.16,10.16,0,0,0,3.69-4.42,26.85,26.85,0,0,1-1.44-5.18,12.39,12.39,0,0,1-1,2.16,10,10,0,0,0-1-.89c1.3-2.06,2.06-5.24,2.52-8.46l1.23.19c-.15,1.14-.37,2.3-.62,3.4h4.79v1.32Zm-3.77,0a32.4,32.4,0,0,0,1.32,5.81,27.94,27.94,0,0,0,1.14-5.81Z" fill="#4c4948"/>
      </g>
      <rect x="216.54" y="331.17" width="53.36" height="16.64" fill="#0068b6"/>
      <rect x="279.32" y="228.64" width="53.36" height="119.17" fill="#f5ab18"/>
      <g>
        <path d="M222.69,312.33a5.53,5.53,0,0,1,9,0,10.54,10.54,0,0,1,0,9.92,5.55,5.55,0,0,1-9,0,10.69,10.69,0,0,1,0-9.92Zm2.36,8.74a2.64,2.64,0,0,0,4.26,0,8.54,8.54,0,0,0,0-7.55,2.64,2.64,0,0,0-4.26,0,8.63,8.63,0,0,0,0,7.55Z" fill="#002f7c"/>
        <path d="M236,320.81a1.79,1.79,0,1,1-1.79,1.79A1.8,1.8,0,0,1,236,320.81Z" fill="#002f7c"/>
        <path d="M238.83,318.34l5.87-8h3.44v8.55h2.3v2.37h-2.3v3h-2.69v-3h-6.62Zm6.62-5.25-4.21,5.78h4.21Z" fill="#002f7c"/>
        <path d="M252.35,321.58a5.81,5.81,0,0,0,2.49.59,4.12,4.12,0,0,0,4.52-4.17,3.78,3.78,0,0,1-3.32,1.55,4.59,4.59,0,0,1-4.79-4.67c0-2.85,2.3-4.85,5.26-4.85s5.52,2.1,5.52,6.52c0,5-2.45,8-7.16,8a6.85,6.85,0,0,1-3.23-.76Zm4.11-9.24a2.45,2.45,0,0,0-2.56,2.46,2.42,2.42,0,0,0,2.56,2.47,2.47,2.47,0,1,0,0-4.93Z" fill="#002f7c"/>
      </g>
      <g>
        <path d="M290.12,213.49l3.77-3.34h-6.24v-2.36h9.72V210l-3.71,3.21a4.13,4.13,0,0,1,4.1,4.22c0,2.39-1.9,4.56-5.24,4.56s-5.15-2.09-5.32-4.4l2.63-.53a2.61,2.61,0,0,0,2.67,2.59,2.27,2.27,0,0,0,2.52-2.24,2.23,2.23,0,0,0-2.44-2.26,3,3,0,0,0-1.22.28Z" fill="#002f7c"/>
        <path d="M300.9,218.28a1.79,1.79,0,1,1-1.79,1.79A1.8,1.8,0,0,1,300.9,218.28Z" fill="#002f7c"/>
        <path d="M306.26,217.2a2.6,2.6,0,0,0,2.71,2.48,2.45,2.45,0,1,0,0-4.89,3,3,0,0,0-2.26,1c-.41-.16-2.14-.75-2.53-.9l1.69-7.06h7.68v2.36h-5.83l-.81,3.32a4,4,0,0,1,2.61-.88c2.79,0,4.75,1.69,4.75,4.63,0,2.6-2,4.8-5.26,4.8-3,0-5.07-2-5.26-4.21Z" fill="#002f7c"/>
        <path d="M317.64,217.2a2.6,2.6,0,0,0,2.71,2.48,2.45,2.45,0,1,0,0-4.89,3,3,0,0,0-2.26,1c-.41-.16-2.14-.75-2.53-.9l1.69-7.06h7.68v2.36h-5.83l-.81,3.32a4,4,0,0,1,2.61-.88c2.79,0,4.76,1.69,4.76,4.63,0,2.6-2,4.8-5.27,4.8-3,0-5.06-2-5.26-4.21Z" fill="#002f7c"/>
      </g>
    </g>
    <g>
      <g>
        <path d="M414.55,362.05a20.17,20.17,0,0,0,8.33,6.7,5.61,5.61,0,0,0-1.09,1.24,24.1,24.1,0,0,1-8-6.54,30.05,30.05,0,0,1-8.17,6.77,5.2,5.2,0,0,0-.89-1.23,24.88,24.88,0,0,0,7.37-5.56h-3.5v-1.38Zm-.08,15.52h7.58v1.33H405.51v-1.33H413v-3.28h-5.51V373H413v-3H408.3v-1.32h10.92V370h-4.75v3H420v1.3h-5.56Z" fill="#4c4948"/>
        <path d="M431.06,375.39c-2.18.69-4.5,1.41-6.27,2l-.31-1.41c.7-.2,1.59-.45,2.57-.75v-5.4h-2.2v-1.37h2.2v-4.27h-2.36v-1.37h6v1.37h-2.25v4.27h2v1.37h-2v5l2.41-.77ZM442.21,368a42.42,42.42,0,0,1-3.41,4.23,11.26,11.26,0,0,0,4,4.65,3.53,3.53,0,0,0-.92,1.1,12.47,12.47,0,0,1-4.54-5.91v5.5c0,.88-.23,1.29-.76,1.53a7.58,7.58,0,0,1-3,.32,5.71,5.71,0,0,0-.53-1.42c1.14,0,2.14,0,2.44,0s.43-.12.43-.45V373c-1.61,1.63-3.28,3.24-4.62,4.5l-.9-1.26c1.33-1.1,3.49-3,5.52-4.85v-5.1h-4.76V364.9h4.76v-3.4h1.41v3.4h5.15v1.36h-5.15v.7a24.19,24.19,0,0,0,1,4.11,29.24,29.24,0,0,0,2.63-3.72Zm-9.62-.57a15.49,15.49,0,0,1,2.14,3.64l-1.2.57a16.47,16.47,0,0,0-2.08-3.68Zm8-2.83a11.57,11.57,0,0,0-2.31-2.16l.84-.76a14.16,14.16,0,0,1,2.36,2Z" fill="#4c4948"/>
        <path d="M461.85,363.54v1.26H444.74v-1.26h8c-.17-.57-.41-1.23-.61-1.78l1.42-.34c.27.67.57,1.5.78,2.12Zm-.63,14.34c0,.71-.18,1-.71,1.2a8.65,8.65,0,0,1-2.59.18,4.32,4.32,0,0,0-.47-1.08c.84,0,1.75,0,2,0s.34-.08.34-.32v-5.75H446.86v7.29h-1.41v-8.53h15.77Zm-2.12-12v3.93H447.7V365.9Zm-1.77,11.41h-6.91v1h-1.36v-5h8.27Zm.28-10.33h-8.47v1.77h8.47Zm-7.19,7.41v1.82H456v-1.82Z" fill="#4c4948"/>
        <path d="M471.33,366h-7.05v-1.2h7.05ZM465,367.4h5.52v1.15H465Zm0,2.55h5.52v1.16H465Zm5.5,8.29h-4.3v.92H465v-6.6h5.5Zm-4.3-4.46V377h3.1v-3.24Zm1.45-9.18a19.84,19.84,0,0,0-1.35-2.61l1-.59a18.81,18.81,0,0,1,1.43,2.54Zm14.44,7.78h-4.62v7H476.1v-7h-4.79V371h4.79V364h-4v-1.38h9.67V364h-4.23V371h4.62ZM473.68,365a23.84,23.84,0,0,1,1.08,4.81l-1.25.31a22.86,22.86,0,0,0-1-4.83Zm5,4.77a35.87,35.87,0,0,0,1.28-4.93l1.4.35c-.48,1.65-1.07,3.66-1.56,4.91Z" fill="#4c4948"/>
        <path d="M486.92,364.17a12.11,12.11,0,0,1-1.95,2.34,6.53,6.53,0,0,0-1-1,11.51,11.51,0,0,0,3-4.19l1.29.36c-.17.39-.35.78-.55,1.18h5.05v1.27h-3.67a21,21,0,0,1,1.88,1.77l-1,.87a14.6,14.6,0,0,0-2-2.07l.71-.57Zm10.64,9.18h3.91v1.23h-3.91v3.32c0,.85-.21,1.18-.86,1.36a15.11,15.11,0,0,1-3.5.2,4.15,4.15,0,0,0-.39-1.24c1.32.06,2.51.06,2.85,0s.43-.12.43-.4v-3.28H484.24v-1.23h11.85V372h1.47Zm4.27-10.43v1.27H497.5a16,16,0,0,1,1.83,1.93l-1,.84a13.21,13.21,0,0,0-1.87-2.1l.87-.67H495.4a13.19,13.19,0,0,1-1.65,2.36l-.18-.16v.93h7.19v1.27h-7.19v1.75h6.1v1.18H486v-1.18h6.15v-1.75H485v-1.27h7.13V366.1h1.1a5.46,5.46,0,0,0-.57-.42,10.22,10.22,0,0,0,2.44-4.32l1.35.32a8.39,8.39,0,0,1-.45,1.24Zm-13.3,11.84a31.8,31.8,0,0,1,3.34,2.91l-1.08.86a34.11,34.11,0,0,0-3.3-3Z" fill="#4c4948"/>
        <path d="M509.24,361.89a29.34,29.34,0,0,1-1.9,4v13.38h-1.42V368.12a20.87,20.87,0,0,1-2,2.44,9.16,9.16,0,0,0-.89-1.34,22,22,0,0,0,4.88-7.72Zm4.91,14.93a16.15,16.15,0,0,1-4.71,2.69,9.52,9.52,0,0,0-1.1-1.1,13.86,13.86,0,0,0,4.42-2.1Zm.18-13.22h-4.81v-1h4.81V361.5h1.47v1.08h5v1h-5v1h4.44v1H515.8v1h5.6v1.06H508.65v-1.06h5.68v-1H510v-1h4.32ZM510.18,376v-7.39h10V376Zm1.42-5.21h7.11v-1.2H511.6Zm0,2.08h7.11v-1.21H511.6Zm0,2.11h7.11v-1.24H511.6Zm6.15,1.23a29.94,29.94,0,0,1,3.89,2.52l-1.46.8a25.27,25.27,0,0,0-3.89-2.71Z" fill="#4c4948"/>
        <path d="M530,371.28l-2.46.75v5.64c0,.84-.2,1.21-.71,1.47a6.71,6.71,0,0,1-2.59.26,5.71,5.71,0,0,0-.45-1.36c.88,0,1.71,0,1.94,0s.38-.08.38-.37v-5.19l-2.66.79-.43-1.44c.85-.21,1.93-.51,3.09-.84v-4.15H523.3v-1.39h2.79V361.5h1.43v3.95h2.22v1.39h-2.22v3.72c.75-.2,1.51-.43,2.26-.67Zm3.55-2.1c-1.92,0-2.53-.61-2.53-2.3v-5.32h1.43v2.36h7.9v1.27h-7.9v1.73c0,.73.22,1,1.08,1h5.15a15.15,15.15,0,0,0,2.16-.14c.06.39.12.94.18,1.27a13,13,0,0,1-2.26.12ZM531,370.85h9.19v8.49h-1.43v-.83h-6.37v.91H531Zm1.39,1.26v1.94h6.37v-1.94Zm6.37,5.2v-2.06h-6.37v2.06Z" fill="#4c4948"/>
        <path d="M551.6,374.39a4.24,4.24,0,0,1-1.7,2.59,16.71,16.71,0,0,1,2.26,1.16l-1,.84a22.54,22.54,0,0,0-2.41-1.27,20.59,20.59,0,0,1-5.5,1.69,4.64,4.64,0,0,0-.61-1,20.07,20.07,0,0,0,4.73-1.29,22.38,22.38,0,0,0-3-1.08c.31-.4.66-.83,1-1.3l-2.32.12-.14-1.08c.89,0,2-.08,3.18-.12.3-.53.61-1,.89-1.55h-3.2v-3.2h3.71v-.81h-3.16V366H543v-1.12h1.32v-2h3.16v-1.38h1.16v1.38H552v2h1.33V366H552v2.12h-3.34v.81h3.81v3.2h-4.15a13.53,13.53,0,0,1-.82,1.47c1,0,2-.1,3-.16v-.92h1.2v.86l1-.05,0,1Zm-6.55-3.26h2.46v-1.22h-2.46Zm.55-7.25v1h1.91v-1Zm1.91,3.2V365.9H545.6v1.18Zm-.69,7.56c-.2.32-.41.61-.61.89.81.25,1.65.57,2.46.9a3.84,3.84,0,0,0,1.65-2Zm1.85-10.76v1h2v-1Zm2,3.2V365.9h-2v1.18Zm-2,2.83v1.22h2.51v-1.22Zm10.68-3.36a27.77,27.77,0,0,1-1.79,7.52,9.69,9.69,0,0,0,3.33,4.09,4.46,4.46,0,0,0-.89,1,9.77,9.77,0,0,1-3.08-3.71,11.79,11.79,0,0,1-3.56,4,4.86,4.86,0,0,0-.8-1.1,10.1,10.1,0,0,0,3.69-4.42,26.16,26.16,0,0,1-1.43-5.18,13.15,13.15,0,0,1-1.05,2.16,10,10,0,0,0-1-.89c1.3-2.06,2.06-5.24,2.52-8.46l1.24.19c-.16,1.14-.38,2.3-.63,3.4h4.79v1.32Zm-3.77,0a33.28,33.28,0,0,0,1.32,5.81,27.94,27.94,0,0,0,1.14-5.81Z" fill="#4c4948"/>
      </g>
      <rect x="425.26" y="322.78" width="53.36" height="25.04" fill="#0068b6"/>
      <rect x="488.04" y="192.16" width="53.36" height="155.65" fill="#f5ab18"/>
      <g>
        <path d="M431.8,303.93a5.53,5.53,0,0,1,9,0,10.62,10.62,0,0,1,0,9.92,5.53,5.53,0,0,1-9,0,10.69,10.69,0,0,1,0-9.92Zm2.36,8.74a2.64,2.64,0,0,0,4.26,0,8.52,8.52,0,0,0,0-7.54,2.64,2.64,0,0,0-4.26,0,8.6,8.6,0,0,0,0,7.54Z" fill="#002f7c"/>
        <path d="M445.15,312.42a1.79,1.79,0,1,1-1.79,1.78A1.79,1.79,0,0,1,445.15,312.42Z" fill="#002f7c"/>
        <path d="M448.27,312.12a3.64,3.64,0,0,1,2.49-3.4,3.39,3.39,0,0,1-2.17-3.14c0-2.32,2.06-3.95,4.87-3.95s4.89,1.63,4.89,3.95a3.41,3.41,0,0,1-2.2,3.14,3.66,3.66,0,0,1,2.51,3.4c0,2.32-2,4-5.2,4S448.27,314.44,448.27,312.12Zm7.7-.27c0-1.1-.86-2.08-2.51-2.08s-2.5,1-2.5,2.08.89,2,2.5,2S456,312.93,456,311.85Zm-.31-6.09a2.22,2.22,0,0,0-4.39,0,2.21,2.21,0,0,0,4.39,0Z" fill="#002f7c"/>
        <path d="M462.7,307.62l3.77-3.33h-6.25v-2.36H470v2.24l-3.72,3.2a4.13,4.13,0,0,1,4.11,4.22c0,2.4-1.91,4.56-5.25,4.56s-5.14-2.08-5.32-4.4l2.63-.53a2.61,2.61,0,0,0,2.67,2.59,2.27,2.27,0,0,0,2.52-2.24,2.23,2.23,0,0,0-2.44-2.26,3,3,0,0,0-1.22.28Z" fill="#002f7c"/>
      </g>
      <g>
        <path d="M495.54,179.33l5.87-8h3.44v8.55h2.3v2.37h-2.3v3h-2.69v-3h-6.62Zm6.62-5.25-4.2,5.78h4.2Z" fill="#002f7c"/>
        <path d="M509.91,181.8a1.79,1.79,0,1,1-1.79,1.79A1.8,1.8,0,0,1,509.91,181.8Z" fill="#002f7c"/>
        <path d="M522.76,173.9a6.17,6.17,0,0,0-2.34-.53,4.49,4.49,0,0,0-4.7,4.29A3.92,3.92,0,0,1,519.2,176a4.41,4.41,0,0,1,4.71,4.65c0,2.93-2.33,4.85-5.32,4.85s-5.58-2.1-5.58-6.4c0-5,3.15-8.11,7.57-8.11a5.68,5.68,0,0,1,2.94.68Zm-4.17,9.33a2.46,2.46,0,0,0,2.62-2.47,2.5,2.5,0,0,0-2.62-2.52,2.5,2.5,0,1,0,0,5Z" fill="#002f7c"/>
        <path d="M535.08,173.65a16.55,16.55,0,0,0-5.65,11.59h-2.81A17.48,17.48,0,0,1,532,173.67h-7.33v-2.36h10.45Z" fill="#002f7c"/>
      </g>
    </g>
    <g>
      <g>
        <path d="M669.71,377.23v1.34H652.19v-1.34H658v-3.51h-4.41v-6.56H658v-3.07h-5.3v-1.35h16.52v1.35h-5.48v3.05h4.52v6.56h-.71v0h-3.81v3.51Zm-10.27-4.79v4.79h2.91v-4.81h4.46v-4h-4.46v-4.31h-2.93v4.34H655v4Z" fill="#4c4948"/>
        <path d="M677.44,361.89a29.34,29.34,0,0,1-1.9,4v13.38h-1.42V368.12a20.87,20.87,0,0,1-2,2.44,9.16,9.16,0,0,0-.89-1.34,22,22,0,0,0,4.88-7.72Zm4.91,14.93a16,16,0,0,1-4.71,2.69,9.52,9.52,0,0,0-1.1-1.1,13.86,13.86,0,0,0,4.42-2.1Zm.18-13.22h-4.81v-1h4.81V361.5H684v1.08h5v1h-5v1h4.44v1H684v1h5.6v1.06H676.85v-1.06h5.68v-1h-4.32v-1h4.32ZM678.38,376v-7.39h10V376Zm1.42-5.21h7.11v-1.2H679.8Zm0,2.08h7.11v-1.21H679.8Zm0,2.11h7.11v-1.24H679.8Zm6.15,1.23a29.94,29.94,0,0,1,3.89,2.52l-1.46.8a25.27,25.27,0,0,0-3.89-2.71Z" fill="#4c4948"/>
        <path d="M698.18,371.28l-2.46.75v5.64c0,.84-.2,1.21-.7,1.47a6.8,6.8,0,0,1-2.6.26A5.71,5.71,0,0,0,692,378c.88,0,1.71,0,1.94,0s.38-.08.38-.37v-5.19l-2.66.79-.43-1.44c.85-.21,1.93-.51,3.09-.84v-4.15H691.5v-1.39h2.79V361.5h1.43v3.95h2.22v1.39h-2.22v3.72c.75-.2,1.51-.43,2.26-.67Zm3.55-2.1c-1.92,0-2.53-.61-2.53-2.3v-5.32h1.43v2.36h7.9v1.27h-7.9v1.73c0,.73.22,1,1.08,1h5.15a15.15,15.15,0,0,0,2.16-.14c.06.39.12.94.18,1.27a13,13,0,0,1-2.26.12Zm-2.51,1.67h9.19v8.49H707v-.83h-6.37v.91h-1.39Zm1.39,1.26v1.94H707v-1.94Zm6.37,5.2v-2.06h-6.37v2.06Z" fill="#4c4948"/>
        <path d="M719.79,374.39A4.17,4.17,0,0,1,718.1,377a16.71,16.71,0,0,1,2.26,1.16l-1,.84a22.54,22.54,0,0,0-2.41-1.27,20.59,20.59,0,0,1-5.5,1.69,4.64,4.64,0,0,0-.61-1,20.07,20.07,0,0,0,4.73-1.29,22.38,22.38,0,0,0-3-1.08c.31-.4.66-.83,1-1.3l-2.32.12-.14-1.08c.89,0,2-.08,3.18-.12.3-.53.61-1,.89-1.55H712v-3.2h3.71v-.81h-3.16V366h-1.32v-1.12h1.32v-2h3.16v-1.38h1.16v1.38h3.34v2h1.33V366h-1.33v2.12h-3.34v.81h3.81v3.2h-4.15a13.53,13.53,0,0,1-.82,1.47c1,0,2-.1,3-.16v-.92h1.2v.86l1-.05,0,1Zm-6.54-3.26h2.46v-1.22h-2.46Zm.55-7.25v1h1.91v-1Zm1.91,3.2V365.9H713.8v1.18Zm-.69,7.56c-.2.32-.41.61-.61.89.81.25,1.65.57,2.46.9a3.84,3.84,0,0,0,1.65-2Zm1.85-10.76v1h2v-1Zm2,3.2V365.9h-2v1.18Zm-2,2.83v1.22h2.51v-1.22Zm10.68-3.36a28.17,28.17,0,0,1-1.78,7.52,9.6,9.6,0,0,0,3.32,4.09,4.46,4.46,0,0,0-.89,1,9.77,9.77,0,0,1-3.08-3.71,11.79,11.79,0,0,1-3.56,4,4.86,4.86,0,0,0-.8-1.1,10.1,10.1,0,0,0,3.69-4.42,26.16,26.16,0,0,1-1.43-5.18,13.15,13.15,0,0,1-1,2.16,10,10,0,0,0-1-.89c1.3-2.06,2.06-5.24,2.52-8.46l1.24.19c-.16,1.14-.38,2.3-.63,3.4h4.79v1.32Zm-3.77,0a33.28,33.28,0,0,0,1.32,5.81,27.94,27.94,0,0,0,1.14-5.81Z" fill="#4c4948"/>
      </g>
      <rect x="632.94" y="217.66" width="53.36" height="130.16" fill="#0068b6"/>
      <rect x="695.72" y="263.34" width="53.36" height="84.47" fill="#f5ab18"/>
      <g>
        <path d="M641.12,202.5l3.77-3.33h-6.25v-2.36h9.73v2.24l-3.72,3.2a4.13,4.13,0,0,1,4.11,4.22c0,2.4-1.91,4.56-5.25,4.56s-5.14-2.08-5.32-4.4l2.63-.53a2.61,2.61,0,0,0,2.67,2.59,2.27,2.27,0,0,0,2.52-2.24,2.22,2.22,0,0,0-2.44-2.25,3,3,0,0,0-1.22.27Z" fill="#002f7c"/>
        <path d="M651.89,207.3a1.79,1.79,0,1,1-1.79,1.79A1.79,1.79,0,0,1,651.89,207.3Z" fill="#002f7c"/>
        <path d="M656,208.06a5.67,5.67,0,0,0,2.49.59,4.12,4.12,0,0,0,4.52-4.16,3.81,3.81,0,0,1-3.32,1.55,4.59,4.59,0,0,1-4.79-4.67c0-2.85,2.29-4.86,5.26-4.86s5.52,2.11,5.52,6.52c0,5-2.45,8-7.17,8a6.8,6.8,0,0,1-3.22-.76Zm4.1-9.23a2.45,2.45,0,0,0-2.55,2.46,2.42,2.42,0,0,0,2.55,2.47,2.47,2.47,0,1,0,0-4.93Z" fill="#002f7c"/>
        <path d="M666.63,204.82l5.88-8h3.43v8.54h2.3v2.38h-2.3v3h-2.69v-3h-6.62Zm6.62-5.24-4.2,5.77h4.2Z" fill="#002f7c"/>
      </g>
      <g>
        <path d="M703.49,247.66a6.17,6.17,0,0,1-.08-.87,4.62,4.62,0,0,1,5-4.59c3.09,0,4.93,2,4.93,4.4a5,5,0,0,1-2.67,4.32L708,252.59a2.79,2.79,0,0,0-1.31,1.45h6.77v2.38H703.3a6.26,6.26,0,0,1,3.3-5.82l2.27-1.41a2.94,2.94,0,0,0,1.72-2.53,2,2,0,0,0-2.25-2.07,2.21,2.21,0,0,0-2.31,2.46,4.53,4.53,0,0,0,.08.75Z" fill="#002f7c"/>
        <path d="M716.58,253a1.79,1.79,0,1,1-1.79,1.79A1.81,1.81,0,0,1,716.58,253Z" fill="#002f7c"/>
        <path d="M719.37,250.51l5.87-8h3.44V251H731v2.37h-2.3v3H726v-3h-6.62Zm6.62-5.25-4.2,5.78H726Z" fill="#002f7c"/>
        <path d="M734.66,248.19l3.77-3.34h-6.24v-2.36h9.72v2.24l-3.71,3.2a4.13,4.13,0,0,1,4.1,4.23c0,2.39-1.9,4.55-5.24,4.55s-5.15-2.08-5.32-4.4l2.63-.53a2.61,2.61,0,0,0,2.67,2.6,2.27,2.27,0,0,0,2.51-2.24,2.22,2.22,0,0,0-2.43-2.26,3.12,3.12,0,0,0-1.22.27Z" fill="#002f7c"/>
      </g>
    </g>
    <g>
      <g>
        <path d="M832.53,373.92a15.38,15.38,0,0,1-2,3.9c-.24-.17-.73-.54-1-.7a11,11,0,0,0,1.85-3.54Zm2.42-1.38v6.82h-1.44v-6.82h-3.9v-1.26h3.9v-2.06h-4V368h5.42a29.11,29.11,0,0,0,1.06-3.1l1.34.27c-.36,1-.73,2-1.11,2.83h2.5v1.24H835v2.06h3.55v1.26Zm3.47-7.78h-8.6v-1.22h3.85c-.25-.59-.59-1.25-.86-1.78l1.41-.38a15.2,15.2,0,0,1,1.1,2.16h3.1Zm-6.57,3.14a14.67,14.67,0,0,0-.75-2.73l1.16-.27a9.78,9.78,0,0,1,.8,2.67Zm5,5.56a19.64,19.64,0,0,1,1.65,3.09l-1,.59a20.46,20.46,0,0,0-1.61-3.15Zm10.47-4h-2.16v9.9h-1.41v-9.9H841v.69c0,2.8-.26,6.65-2,9.21a5,5,0,0,0-1.12-.89c1.65-2.35,1.8-5.71,1.8-8.32v-6.76a31.28,31.28,0,0,0,6.11-1.54l1.18,1.09a32.07,32.07,0,0,1-5.93,1.41v3.73h6.26Z" fill="#4c4948"/>
        <path d="M866.94,373.42v1.36H849.32v-1.36h1.57L850.58,363a32.31,32.31,0,0,0,3.36-1.23l.68,1.26c-.82.29-1.82.58-2.73.82l.06,2.32h2.22v1.21H852l.08,2.44h2.2V371h-2.16l.06,2.41h2.57V362.48h6.78v10.94h2.61c0-.7.08-1.51.12-2.35H862v-1.22h2.26c0-.79.06-1.63.07-2.44h-2.21V366.2h2.23c0-.91,0-1.79,0-2.62h-2.37v-1.21h3.69c0,3.43-.18,8.07-.33,11.05ZM856.17,376a31.92,31.92,0,0,1-5.85,3.36,8.07,8.07,0,0,0-.86-1.1,21.83,21.83,0,0,0,5.46-3.15Zm-.33-2.62h4.54v-9.78h-4.54Zm3.91-8.4v1h-3.36v-1Zm-3.11,2.32h3v4.51h-3Zm.77,3.57h1.44v-2.63h-1.44Zm3.42,4.1a50.94,50.94,0,0,1,5.7,3.15l-1,1.12A43.75,43.75,0,0,0,860,376Z" fill="#4c4948"/>
        <path d="M879.19,361.93c-.14.22-.3.42-.45.63a22,22,0,0,0,8.36,5.87,4.78,4.78,0,0,0-.94,1.24,23.61,23.61,0,0,1-8.21-6.09,23,23,0,0,1-8.13,6.07,6.79,6.79,0,0,0-1-1.22,20,20,0,0,0,9-7.13Zm-.36,15.58h7.51v1.34H869.72v-1.34h2.47v-7.25h1.44v7.25h3.69V366.82h1.51v4.5h5.68v1.32h-5.68Z" fill="#4c4948"/>
        <path d="M896,376.27a18.13,18.13,0,0,1-6,2.54,5.25,5.25,0,0,0-.88-1.1,17.55,17.55,0,0,0,5.81-1.95Zm10.25-2.73v1.24h-7.87v4.65h-1.43v-4.65h-7.76v-1.24h7.76v-1.47H891V371h5.92v-1.41H890v-1.18h4.24a8.25,8.25,0,0,0-1-1.89l1-.27h-5.07V365h3.17a15.56,15.56,0,0,0-1.58-2.85l1.24-.43a11.67,11.67,0,0,1,1.67,2.89l-1,.39h2.4V361.5h1.37V365h2.34V361.5h1.39V365h2.38l-.79-.26a16.1,16.1,0,0,0,1.52-3l1.49.41c-.55,1-1.2,2.08-1.71,2.83h3v1.22h-5.11l1.28.35a21.29,21.29,0,0,1-1.36,1.81h4.5v1.18h-7.11V371h6.15v1.12h-6.15v1.47Zm-11.56-7.34a8.07,8.07,0,0,1,1,1.94l-.81.22h5.42l-.68-.22a16.29,16.29,0,0,0,1.16-1.94Zm5.83,9.46c1.85.61,4.34,1.55,5.7,2.18l-.91.93c-1.29-.63-3.79-1.63-5.65-2.32Z" fill="#4c4948"/>
        <path d="M914.17,361.89a28.2,28.2,0,0,1-1.9,4v13.38h-1.41V368.12a22,22,0,0,1-2,2.44,10,10,0,0,0-.88-1.34,22.08,22.08,0,0,0,4.87-7.72Zm4.91,14.93a16,16,0,0,1-4.71,2.69,8.79,8.79,0,0,0-1.1-1.1,13.86,13.86,0,0,0,4.42-2.1Zm.18-13.22h-4.81v-1h4.81V361.5h1.48v1.08h5v1h-5v1h4.43v1h-4.43v1h5.59v1.06H913.59v-1.06h5.67v-1h-4.32v-1h4.32ZM915.12,376v-7.39h10V376Zm1.41-5.21h7.11v-1.2h-7.11Zm0,2.08h7.11v-1.21h-7.11Zm0,2.11h7.11v-1.24h-7.11Zm6.15,1.23a29.94,29.94,0,0,1,3.89,2.52l-1.45.8a26.29,26.29,0,0,0-3.89-2.71Z" fill="#4c4948"/>
        <path d="M934.91,371.28l-2.46.75v5.64c0,.84-.19,1.21-.7,1.47a6.77,6.77,0,0,1-2.6.26,5.29,5.29,0,0,0-.45-1.36c.89,0,1.71,0,1.95,0s.37-.08.37-.37v-5.19l-2.65.79-.43-1.44c.84-.21,1.92-.51,3.08-.84v-4.15h-2.79v-1.39H931V361.5h1.43v3.95h2.22v1.39h-2.22v3.72c.75-.2,1.52-.43,2.26-.67Zm3.55-2.1c-1.92,0-2.53-.61-2.53-2.3v-5.32h1.43v2.36h7.9v1.27h-7.9v1.73c0,.73.22,1,1.09,1h5.14a15.15,15.15,0,0,0,2.16-.14c.06.39.12.94.18,1.27a13,13,0,0,1-2.26.12ZM936,370.85h9.19v8.49h-1.43v-.83h-6.37v.91H936Zm1.39,1.26v1.94h6.37v-1.94Zm6.37,5.2v-2.06h-6.37v2.06Z" fill="#4c4948"/>
        <path d="M956.53,374.39a4.26,4.26,0,0,1-1.69,2.59,17.33,17.33,0,0,1,2.26,1.16l-1,.84a21.61,21.61,0,0,0-2.41-1.27,20.59,20.59,0,0,1-5.5,1.69,4.64,4.64,0,0,0-.61-1,20.07,20.07,0,0,0,4.73-1.29,22.38,22.38,0,0,0-3-1.08c.31-.4.67-.83,1-1.3l-2.32.12-.14-1.08c.89,0,2-.08,3.19-.12.29-.53.61-1,.88-1.55h-3.2v-3.2h3.71v-.81h-3.16V366H948v-1.12h1.32v-2h3.16v-1.38h1.16v1.38h3.34v2h1.33V366h-1.33v2.12H953.6v.81h3.81v3.2h-4.14a15.59,15.59,0,0,1-.83,1.47c1,0,2-.1,3-.16v-.92h1.19v.86l1-.05,0,1ZM950,371.13h2.45v-1.22H950Zm.55-7.25v1h1.9v-1Zm1.9,3.2V365.9h-1.9v1.18Zm-.69,7.56c-.19.32-.41.61-.61.89.81.25,1.66.57,2.46.9a3.84,3.84,0,0,0,1.65-2Zm1.85-10.76v1h2v-1Zm2,3.2V365.9h-2v1.18Zm-2,2.83v1.22h2.52v-1.22Zm10.69-3.36a28.54,28.54,0,0,1-1.79,7.52,9.6,9.6,0,0,0,3.32,4.09,4.19,4.19,0,0,0-.88,1,9.79,9.79,0,0,1-3.09-3.71,11.59,11.59,0,0,1-3.56,4,4.57,4.57,0,0,0-.8-1.1,10.1,10.1,0,0,0,3.69-4.42,26.16,26.16,0,0,1-1.43-5.18,14,14,0,0,1-1,2.16,12.83,12.83,0,0,0-1-.89c1.29-2.06,2.06-5.24,2.51-8.46l1.24.19c-.16,1.14-.38,2.3-.63,3.4h4.79v1.32Zm-3.77,0a32.41,32.41,0,0,0,1.31,5.81,27.94,27.94,0,0,0,1.14-5.81Z" fill="#4c4948"/>
      </g>
      <rect x="840.02" y="206.47" width="53.36" height="141.35" fill="#0068b6"/>
      <rect x="902.8" y="233.49" width="53.36" height="114.32" fill="#f5ab18"/>
      <g>
        <path d="M844.45,193.64l5.87-8h3.44v8.55h2.3v2.37h-2.3v3h-2.69v-3h-6.62Zm6.62-5.25-4.2,5.78h4.2Z" fill="#002f7c"/>
        <path d="M858.81,196.11a1.79,1.79,0,1,1,0,3.57,1.79,1.79,0,0,1,0-3.57Z" fill="#002f7c"/>
        <path d="M863.17,187.62a5.55,5.55,0,0,1,9,0,9,9,0,0,1,1.24,5,8.87,8.87,0,0,1-1.24,4.95,5.53,5.53,0,0,1-9,0,8.77,8.77,0,0,1-1.21-4.95A8.88,8.88,0,0,1,863.17,187.62Zm2.36,8.75a2.47,2.47,0,0,0,2.12,1.08,2.5,2.5,0,0,0,2.15-1.08,8.54,8.54,0,0,0,0-7.55,2.48,2.48,0,0,0-2.15-1.08,2.45,2.45,0,0,0-2.12,1.08,8.72,8.72,0,0,0,0,7.55Z" fill="#002f7c"/>
        <path d="M874.4,193.64l5.88-8h3.43v8.55H886v2.37h-2.3v3H881v-3H874.4Zm6.62-5.25-4.2,5.78H881Z" fill="#002f7c"/>
      </g>
      <g>
        <path d="M913,218.34l3.77-3.33h-6.24v-2.36h9.72v2.24l-3.71,3.2a4.13,4.13,0,0,1,4.1,4.22c0,2.4-1.9,4.56-5.24,4.56s-5.15-2.08-5.32-4.4l2.63-.53a2.6,2.6,0,0,0,2.67,2.59,2.27,2.27,0,0,0,2.51-2.24,2.23,2.23,0,0,0-2.43-2.26,2.92,2.92,0,0,0-1.22.28Z" fill="#002f7c"/>
        <path d="M923.78,223.14a1.79,1.79,0,1,1-1.79,1.78A1.8,1.8,0,0,1,923.78,223.14Z" fill="#002f7c"/>
        <path d="M929.62,218.34l3.77-3.33h-6.25v-2.36h9.73v2.24l-3.72,3.2a4.13,4.13,0,0,1,4.11,4.22c0,2.4-1.91,4.56-5.25,4.56s-5.14-2.08-5.32-4.4l2.63-.53a2.61,2.61,0,0,0,2.67,2.59,2.27,2.27,0,0,0,2.52-2.24,2.23,2.23,0,0,0-2.44-2.26,3,3,0,0,0-1.22.28Z" fill="#002f7c"/>
        <path d="M938.27,220.66l5.87-8h3.44v8.54h2.3v2.38h-2.3v3h-2.69v-3h-6.62Zm6.62-5.24-4.2,5.77h4.2Z" fill="#002f7c"/>
      </g>
    </g>
    <g>
      <g>
        <path d="M1038,362.05a20.3,20.3,0,0,0,8.33,6.7,5.84,5.84,0,0,0-1.08,1.24,24,24,0,0,1-8-6.54,30.35,30.35,0,0,1-8.17,6.77,5.49,5.49,0,0,0-.89-1.23,25,25,0,0,0,7.37-5.56h-3.5v-1.38Zm-.08,15.52h7.59v1.33H1029v-1.33h7.44v-3.28h-5.5V373h5.5v-3h-4.65v-1.32h10.92V370h-4.76v3h5.56v1.3h-5.56Z" fill="#4c4948"/>
        <path d="M1054.53,375.39c-2.18.69-4.49,1.41-6.26,2L1048,376c.71-.2,1.59-.45,2.58-.75v-5.4h-2.2v-1.37h2.2v-4.27h-2.36v-1.37h6v1.37h-2.26v4.27h2v1.37h-2v5l2.42-.77Zm11.16-7.35a42.46,42.46,0,0,1-3.42,4.23,11.29,11.29,0,0,0,4,4.65,3.4,3.4,0,0,0-.92,1.1,12.41,12.41,0,0,1-4.54-5.91v5.5c0,.88-.24,1.29-.77,1.53a7.52,7.52,0,0,1-3,.32,6.13,6.13,0,0,0-.53-1.42c1.14,0,2.14,0,2.43,0s.43-.12.43-.45V373c-1.61,1.63-3.28,3.24-4.61,4.5l-.9-1.26c1.33-1.1,3.49-3,5.51-4.85v-5.1h-4.75V364.9h4.75v-3.4h1.42v3.4H1066v1.36h-5.15v.7a24.24,24.24,0,0,0,1,4.11,28.27,28.27,0,0,0,2.63-3.72Zm-9.62-.57a15.85,15.85,0,0,1,2.14,3.64l-1.2.57a17.3,17.3,0,0,0-2.08-3.68Zm8-2.83a11.38,11.38,0,0,0-2.32-2.16l.85-.76a14.06,14.06,0,0,1,2.35,2Z" fill="#4c4948"/>
        <path d="M1085.32,363.54v1.26h-17.1v-1.26h8c-.18-.57-.41-1.23-.61-1.78l1.41-.34c.28.67.58,1.5.79,2.12Zm-.62,14.34c0,.71-.18,1-.71,1.2a8.69,8.69,0,0,1-2.59.18,4.35,4.35,0,0,0-.48-1.08c.85,0,1.75,0,2,0s.33-.08.33-.32v-5.75h-12.9v7.29h-1.42v-8.53h15.78Zm-2.12-12v3.93h-11.4V365.9Zm-1.77,11.41h-6.92v1h-1.35v-5h8.27Zm.27-10.33h-8.46v1.77h8.46Zm-7.19,7.41v1.82h5.6v-1.82Z" fill="#4c4948"/>
        <path d="M1093.13,361.8h1.44v17.66h-1.44V374c-3.57,1.32-4.14,1.6-4.51,1.91a7,7,0,0,0-.59-1.34,1.46,1.46,0,0,0,.67-1.31v-9.61h1.43v10l3-1Zm10.87,4.87a22.58,22.58,0,0,1-2.62,7.74,11.62,11.62,0,0,0,4.25,3.75,4.42,4.42,0,0,0-1,1.2,12.27,12.27,0,0,1-4.05-3.72,13.77,13.77,0,0,1-4.5,3.82,6.56,6.56,0,0,0-1-1.2,12.14,12.14,0,0,0,4.63-3.89,23.8,23.8,0,0,1-2.35-5.6,14.48,14.48,0,0,1-1.55,2.51,9.66,9.66,0,0,0-1-1.21c1.69-2,2.71-5.19,3.26-8.59l1.5.26c-.22,1.21-.51,2.41-.83,3.55h6.72v1.38Zm-5.84.29a24.68,24.68,0,0,0,2.38,6.09,20.91,20.91,0,0,0,2-6.38h-4.24Z" fill="#4c4948"/>
        <path d="M1125.23,377.51v1.32h-17.74v-1.32H1110v-6.09h12.79v6.09Zm-.4-10.88h-17v-1.32h5.05a15.36,15.36,0,0,0-2-3.24l1.24-.55a16.26,16.26,0,0,1,2.08,3.26l-1,.53h6.31l-1-.39a20.46,20.46,0,0,0,2-3.42l1.45.45a28.4,28.4,0,0,1-2.26,3.36h5.13Zm-10.49,1.57a28.23,28.23,0,0,1-5.52,3.46,5.69,5.69,0,0,0-.88-1.14,21.49,21.49,0,0,0,5.4-3Zm-3,9.31h2.45V372.7h-2.45Zm3.79-4.81v4.81h2.47V372.7Zm8.93-1.44a47.1,47.1,0,0,0-5.93-2.67l.71-1a54.2,54.2,0,0,1,6,2.53Zm-5.12,1.44v4.81h2.49V372.7Z" fill="#4c4948"/>
        <path d="M1132.72,361.89a28.26,28.26,0,0,1-1.91,4v13.38h-1.41V368.12a23.1,23.1,0,0,1-2,2.44,9.16,9.16,0,0,0-.89-1.34,21.93,21.93,0,0,0,4.87-7.72Zm4.91,14.93a16.07,16.07,0,0,1-4.72,2.69,8.69,8.69,0,0,0-1.09-1.1,13.91,13.91,0,0,0,4.41-2.1Zm.18-13.22H1133v-1h4.82V361.5h1.47v1.08h5v1h-5v1h4.44v1h-4.44v1h5.6v1.06h-12.75v-1.06h5.68v-1h-4.32v-1h4.32Zm-4.15,12.4v-7.39h10V376Zm1.42-5.21h7.11v-1.2h-7.11Zm0,2.08h7.11v-1.21h-7.11Zm0,2.11h7.11v-1.24h-7.11Zm6.15,1.23a29.1,29.1,0,0,1,3.88,2.52l-1.45.8a25.77,25.77,0,0,0-3.89-2.71Z" fill="#4c4948"/>
        <path d="M1153.45,371.28,1151,372v5.64c0,.84-.2,1.21-.71,1.47a6.74,6.74,0,0,1-2.59.26,5.33,5.33,0,0,0-.46-1.36c.89,0,1.72,0,2,0s.37-.08.37-.37v-5.19l-2.65.79-.43-1.44c.84-.21,1.93-.51,3.08-.84v-4.15h-2.79v-1.39h2.79V361.5H1151v3.95h2.22v1.39H1151v3.72c.74-.2,1.51-.43,2.26-.67Zm3.56-2.1c-1.93,0-2.53-.61-2.53-2.3v-5.32h1.43v2.36h7.9v1.27h-7.9v1.73c0,.73.21,1,1.08,1h5.15a15.36,15.36,0,0,0,2.16-.14c.06.39.11.94.17,1.27a12.9,12.9,0,0,1-2.26.12Zm-2.52,1.67h9.2v8.49h-1.44v-.83h-6.36v.91h-1.4Zm1.4,1.26v1.94h6.36v-1.94Zm6.36,5.2v-2.06h-6.36v2.06Z" fill="#4c4948"/>
        <path d="M1175.07,374.39a4.26,4.26,0,0,1-1.69,2.59,16.71,16.71,0,0,1,2.26,1.16l-1,.84a21.85,21.85,0,0,0-2.42-1.27,20.35,20.35,0,0,1-5.5,1.69,4.27,4.27,0,0,0-.61-1,20.18,20.18,0,0,0,4.74-1.29,22.5,22.5,0,0,0-3-1.08c.32-.4.67-.83,1-1.3l-2.31.12-.14-1.08c.88,0,2-.08,3.18-.12.3-.53.61-1,.89-1.55h-3.21v-3.2H1171v-.81h-3.17V366h-1.31v-1.12h1.31v-2H1171v-1.38h1.16v1.38h3.33v2h1.34V366h-1.34v2.12h-3.33v.81H1176v3.2h-4.15a15.46,15.46,0,0,1-.82,1.47c1,0,2-.1,3-.16v-.92h1.2v.86l1-.05,0,1Zm-6.54-3.26H1171v-1.22h-2.46Zm.55-7.25v1H1171v-1Zm1.91,3.2V365.9h-1.91v1.18Zm-.69,7.56c-.2.32-.41.61-.61.89.8.25,1.65.57,2.46.9a3.76,3.76,0,0,0,1.64-2Zm1.85-10.76v1h2v-1Zm2,3.2V365.9h-2v1.18Zm-2,2.83v1.22h2.51v-1.22Zm10.68-3.36a27.77,27.77,0,0,1-1.79,7.52,9.75,9.75,0,0,0,3.32,4.09,4.67,4.67,0,0,0-.88,1,9.79,9.79,0,0,1-3.09-3.71,11.66,11.66,0,0,1-3.55,4,4.63,4.63,0,0,0-.81-1.1,10.18,10.18,0,0,0,3.7-4.42,26.85,26.85,0,0,1-1.44-5.18,13.15,13.15,0,0,1-1,2.16,11.23,11.23,0,0,0-1-.89c1.3-2.06,2.06-5.24,2.51-8.46l1.24.19c-.16,1.14-.37,2.3-.63,3.4h4.8v1.32Zm-3.77,0a33.29,33.29,0,0,0,1.31,5.81,26.7,26.7,0,0,0,1.14-5.81Z" fill="#4c4948"/>
      </g>
      <rect x="1048.73" y="181.55" width="53.36" height="166.26" fill="#0068b6"/>
      <rect x="1111.51" y="150.77" width="53.36" height="197.05" fill="#f5ab18"/>
      <g>
        <path d="M1056.17,170.58l5.88-8h3.43v8.55h2.3v2.38h-2.3v3h-2.69v-3h-6.62Zm6.62-5.25-4.2,5.78h4.2Z" fill="#002f7c"/>
        <path d="M1070.54,173.05a1.79,1.79,0,1,1-1.79,1.79A1.8,1.8,0,0,1,1070.54,173.05Z" fill="#002f7c"/>
        <path d="M1073.66,172.76a3.63,3.63,0,0,1,2.5-3.4,3.4,3.4,0,0,1-2.18-3.14c0-2.32,2.06-3.95,4.87-3.95s4.89,1.63,4.89,3.95a3.42,3.42,0,0,1-2.2,3.14,3.65,3.65,0,0,1,2.51,3.4c0,2.32-2,4-5.2,4S1073.66,175.08,1073.66,172.76Zm7.7-.28c0-1.1-.86-2.08-2.51-2.08s-2.5,1-2.5,2.08.89,2.05,2.5,2.05S1081.36,173.56,1081.36,172.48Zm-.31-6.09a2.22,2.22,0,0,0-4.38,0,2.2,2.2,0,0,0,4.38,0Z" fill="#002f7c"/>
        <path d="M1088.24,176.49V167h-3.34v-1.84c2-.06,3.4-1.16,3.68-2.62h2.36v13.93Z" fill="#002f7c"/>
      </g>
      <g>
        <path d="M1122,139.33a2.6,2.6,0,0,0,2.71,2.47,2.38,2.38,0,0,0,2.54-2.41,2.41,2.41,0,0,0-2.58-2.48,3,3,0,0,0-2.26,1c-.41-.15-2.14-.74-2.53-.9l1.69-7.05h7.68v2.36h-5.83l-.81,3.31a4.05,4.05,0,0,1,2.61-.88c2.79,0,4.76,1.69,4.76,4.64,0,2.59-2,4.79-5.27,4.79-3,0-5.07-2-5.26-4.2Z" fill="#002f7c"/>
        <path d="M1133,140.41a1.79,1.79,0,1,1-1.79,1.78A1.8,1.8,0,0,1,1133,140.41Z" fill="#002f7c"/>
        <path d="M1146.05,132.26c-1.12.92-5,4.47-5.65,11.59h-2.81a17.45,17.45,0,0,1,5.34-11.57h-7.33v-2.36h10.45Z" fill="#002f7c"/>
        <path d="M1156.45,132.51a6.11,6.11,0,0,0-2.33-.53,4.49,4.49,0,0,0-4.7,4.28,3.94,3.94,0,0,1,3.48-1.63,4.42,4.42,0,0,1,4.71,4.66c0,2.93-2.34,4.85-5.32,4.85s-5.58-2.1-5.58-6.4c0-5,3.14-8.12,7.56-8.12a5.68,5.68,0,0,1,3,.69Zm-4.16,9.33a2.46,2.46,0,0,0,2.61-2.47,2.5,2.5,0,0,0-2.61-2.52,2.5,2.5,0,1,0,0,5Z" fill="#002f7c"/>
      </g>
    </g>
    <g>
      <path d="M53.14,411.23c-.79,5.66-2.74,10.11-5.26,12.47a7.75,7.75,0,0,0-1.53-1.55c2.15-1.9,3.74-5.31,4.52-9.46H47.08v-1.86h4.43l.37-.09Zm4.65,7.92h3.67v1.77H57.79V423c0,1.17-.27,1.72-1.06,2a11.27,11.27,0,0,1-3.85.38,8.45,8.45,0,0,0-.75-2c1.34.07,2.67.07,3,0s.53-.13.53-.46v-2.12H51.86v-1.77h3.85v-1.73H52.83v-1.75h2.88V414H53.25v-1.75h2.46v-1.84a17.61,17.61,0,0,0,4-2.45H50v-1.88H61.75l.46-.09,1.42,1a22.71,22.71,0,0,1-5.84,4.29v1h2.3V414h-2.3v1.63h2.67v1.75H57.79Zm8.4-8.23c-1.06,1-2.36,2-3.47,2.85.73,3.52,2.1,6.7,4.27,8.32a7,7,0,0,0-1.44,1.72c-2.63-2.19-4-6.12-4.8-10.68a24.93,24.93,0,0,0,3.85-3.54Z" fill="#0068b6"/>
      <path d="M85.63,416.36a13.53,13.53,0,0,1-4.71,5.37,28.94,28.94,0,0,0,7.78,1.84,9.11,9.11,0,0,0-1.26,1.94A27.07,27.07,0,0,1,78.82,423a31.11,31.11,0,0,1-8.74,2.59,6.36,6.36,0,0,0-1.2-1.86,29.78,29.78,0,0,0,8-1.95,14.73,14.73,0,0,1-4-4.07l.4-.17h-1v-1.91H83.86l.37-.06Zm-14.33-.13H69.37v-4.58h3.34A14,14,0,0,0,71.45,409l1.79-.51a11.9,11.9,0,0,1,1.42,2.76l-1.2.38h4.78a12.66,12.66,0,0,0-1-3.12l1.83-.4a12.24,12.24,0,0,1,1.11,3.05l-1.86.47h4.4a24.57,24.57,0,0,0,1.77-3.56l2.15.57c-.58,1-1.22,2.1-1.84,3h3.47v4.58h-2v-2.77h-15Zm15.94-9.32A118.1,118.1,0,0,1,70,408.57a6,6,0,0,0-.45-1.74,114.4,114.4,0,0,0,16.21-1.6ZM75,417.49a12.32,12.32,0,0,0,3.87,3.25,11.34,11.34,0,0,0,3.67-3.25Z" fill="#0068b6"/>
      <path d="M91.77,421.8h3.56V410.47H92.41v-1.61A9.94,9.94,0,0,0,96,407.62h1.92V421.8h3.19v2.1H91.77Z" fill="#0068b6"/>
      <path d="M103.25,412.44c0-3.27,1.52-5.13,3.8-5.13s3.82,1.86,3.82,5.13-1.54,5.18-3.82,5.18S103.25,415.72,103.25,412.44Zm5.77,0c0-2.52-.82-3.62-2-3.62s-2,1.1-2,3.62.82,3.67,2,3.67S109,414.94,109,412.44Zm7.45-5.13h1.62l-8.94,16.88h-1.59ZM114.79,419c0-3.27,1.55-5.13,3.83-5.13s3.8,1.86,3.8,5.13-1.55,5.16-3.8,5.16S114.79,422.31,114.79,419Zm5.77,0c0-2.52-.82-3.62-1.94-3.62s-2,1.1-2,3.62.82,3.68,2,3.68S120.56,421.53,120.56,419Z" fill="#0068b6"/>
      <path d="M128,415.28a23.59,23.59,0,0,0-3.92-2.33l1.15-1.52a26.8,26.8,0,0,1,4,2.14Zm1.77,3.07c-1,2.3-2.24,4.95-3.37,7l-1.81-1.23a67.61,67.61,0,0,0,3.61-7Zm-.65-8.87a26.41,26.41,0,0,0-3.8-2.46l1.17-1.48a27.19,27.19,0,0,1,3.85,2.28Zm13.83,4.85a17.07,17.07,0,0,1-3.56,7,14.18,14.18,0,0,0,5.17,2.57,7.76,7.76,0,0,0-1.35,1.77,15.74,15.74,0,0,1-5.26-2.92,15.81,15.81,0,0,1-5,3,8.41,8.41,0,0,0-1.31-1.72,15.23,15.23,0,0,0,4.94-2.63,18,18,0,0,1-3.32-5.69H133c-.14,3.25-.71,7.23-2.74,10a6.75,6.75,0,0,0-1.75-1c2.32-3.08,2.54-7.45,2.54-10.64V408.4h5.2v-3h2v3h4.29l.36-.07,1.48.38a30.11,30.11,0,0,1-1.84,4.53l-1.75-.51c.29-.64.62-1.52.93-2.41h-3.47v3.52h3l.39-.09Zm-9.91-4v3.52h3.23v-3.52Zm2.14,5.33A14.29,14.29,0,0,0,137.9,420a13,13,0,0,0,2.52-4.31Z" fill="#0068b6"/>
      <path d="M166.16,410.39s0,.71,0,.95c-.24,9.13-.44,12.27-1.14,13.22a2,2,0,0,1-1.58.95,15.85,15.85,0,0,1-2.72,0,5.35,5.35,0,0,0-.57-2c1,.09,1.92.09,2.32.09a.85.85,0,0,0,.8-.35c.48-.62.7-3.43.88-11h-2.61c-.29,5.88-1.28,10.57-5.08,13.49a6.92,6.92,0,0,0-1.49-1.52,3.9,3.9,0,0,0,.4-.31c-3.18.37-6.37.7-8.73.92l-.27-1.74c1.28-.09,2.88-.23,4.62-.38v-1.68h-4v-1.51h4v-1.12h-4v-6.66h4v-1.15h-4.55V409.1H151v-1.23c-1.35.11-2.7.17-3.93.22a6.34,6.34,0,0,0-.49-1.49,67.68,67.68,0,0,0,9.49-1.08l1,1.55c-1.17.24-2.63.46-4.16.62v1.41h4.47v1.29h2.32c0-1.51,0-3.08,0-4.74h2c0,1.64,0,3.23,0,4.74Zm-17.48,4.09H151v-1.35h-2.28Zm2.28,2.61v-1.35h-2.28v1.35Zm1.88,5.48c1.37-.13,2.79-.26,4.18-.42,1.82-2.5,2.37-5.84,2.55-9.86h-2.35v-1.66h-4.38v1.15H157v6.66h-4.12v1.12H157v1.51h-4.16Zm2.37-8.09v-1.35h-2.37v1.35Zm-2.37,1.26v1.35h2.37v-1.35Z" fill="#0068b6"/>
      <path d="M49.67,442.28c-.13,2.74-.55,5.86-1.81,8a7.43,7.43,0,0,0-1.68-1.3c1.41-2.63,1.52-6.35,1.52-9.22V432a32.82,32.82,0,0,0,7.48-1.64l1.33,1.73a30.39,30.39,0,0,1-6.77,1.46v1.86h5.79v6.88Zm.07-5v3.17h3.82v-3.17Zm17,2H64.4v10.84h-2V439.29H59.42c0,3.43-.5,8.12-3.49,11a7.84,7.84,0,0,0-1.64-1.39c2.79-2.72,3.06-6.66,3.06-9.75v-7.08A35.13,35.13,0,0,0,65,430.2L66.39,432a34.7,34.7,0,0,1-7,1.61v3.72h7.33Z" fill="#0068b6"/>
      <path d="M76.67,438c-.29.31-.58.59-.84.84a13.31,13.31,0,0,0-1.19-1.18,24.74,24.74,0,0,1,.28,4.08c0,3.07-.24,5.88-1.15,7.16a1.79,1.79,0,0,1-1.24.8,10.45,10.45,0,0,1-2.63.13,4.23,4.23,0,0,0-.6-2,13.62,13.62,0,0,0,2.39,0,.84.84,0,0,0,.67-.4c.51-.68.7-3.05.7-5.77v-.55a17,17,0,0,1-3.4,3.82,9.11,9.11,0,0,0-1.13-1.74,13.87,13.87,0,0,0,4.29-5.07,12,12,0,0,0-.66-2.47,20.67,20.67,0,0,1-2.63,2.43,8,8,0,0,0-1.15-1.84,15.36,15.36,0,0,0,2.85-2.37,12.15,12.15,0,0,0-2.15-2.43l1.35-1.1a13.72,13.72,0,0,1,2.06,2.14A19.92,19.92,0,0,0,74,430.38l1.48,1a28,28,0,0,1-1.92,2.79,12.45,12.45,0,0,1,1.08,3.31,13,13,0,0,0,3-3.71l1.44.48V433H75.59v-1.53H79v-1.55h1.81v4.27l1.24-.66a24,24,0,0,1,1.75,2H88v1.26H83.44v.88h4v1.13h-4v.95h4v1.1h-4v1h4.8v1.28H78.46v.53H76.67ZM88,444.69a11,11,0,0,1-3.91,3.07,35.91,35.91,0,0,0,5.06.8,8.79,8.79,0,0,0-1.19,1.61,31.16,31.16,0,0,1-6.28-1.41,36.71,36.71,0,0,1-6.35,1.43,6.94,6.94,0,0,0-.91-1.61,34.73,34.73,0,0,0,4.93-.82,12.65,12.65,0,0,1-2.81-2l.76-.31H75.85V444H86.49l.31-.06Zm-6.37-7.94H78.46v.88H81.6Zm0,2H78.46v.95H81.6Zm0,2.05H78.46v1H81.6Zm-2.52-6.59.27.09c-.23.4-.45.78-.71,1.18h3c-.33-.43-.69-.85-1-1.22l.09,0Zm-.44,11.26a11.74,11.74,0,0,0,3,1.57,12.8,12.8,0,0,0,3-1.57Zm6.3-11.21H83v-4.36h1.9v1.48h3.87v1.55H84.94Z" fill="#0068b6"/>
      <path d="M97.5,435.51a25.52,25.52,0,0,1-1.86,2.74v11.94h-2v-9.66a22.59,22.59,0,0,1-2.32,2.14,16.12,16.12,0,0,0-1-2.08,20.15,20.15,0,0,0,5.39-5.81Zm-.31-4.76a22.06,22.06,0,0,1-5.53,5.33,11.7,11.7,0,0,0-1.06-1.7,16.45,16.45,0,0,0,4.6-4.4Zm13.58,13.58h-3.16v3.74c0,1-.2,1.53-.93,1.81a9.52,9.52,0,0,1-3.36.33,8.75,8.75,0,0,0-.67-1.85c1.11,0,2.17,0,2.48,0s.42-.09.42-.35v-3.7H97v-1.77h8.52V441h-8v-1.7h12.79V441h-2.74v1.61h3.16Zm-10.57.13a20.18,20.18,0,0,1,2.72,3l-1.55,1.11a19.72,19.72,0,0,0-2.63-3.12Zm9.26-6.48H98.8v-7.41h10.66Zm-2.08-5.9h-6.59v1.48h6.59Zm0,2.9h-6.59v1.48h6.59Z" fill="#0068b6"/>
      <path d="M132.46,433.34s0,.71,0,1c-.31,10-.58,13.41-1.46,14.51a2.49,2.49,0,0,1-1.93,1,23,23,0,0,1-3.34,0,4.73,4.73,0,0,0-.66-2c1.41.11,2.7.13,3.25.13a1,1,0,0,0,.93-.37c.71-.73,1-4.07,1.28-12.41h-5.22a22.11,22.11,0,0,1-2,3.72,11.35,11.35,0,0,0-1.61-1.16v10.16h-6v1.68h-1.88V433.45h2.48a25.43,25.43,0,0,0,.77-3.58l2.24.37c-.38,1.11-.8,2.28-1.15,3.21h3.54v4.18a21,21,0,0,0,3.29-7.76l2,.46a29.93,29.93,0,0,1-.91,3Zm-16.79,1.9v4.2h4.12v-4.2Zm4.12,10.88v-4.89h-4.12v4.89Zm7.36-1.72a36.11,36.11,0,0,0-3.23-5.11l1.62-.91a41.39,41.39,0,0,1,3.34,4.93Z" fill="#0068b6"/>
      <path d="M141.08,430.27h2v20h-2v-5.89c-3.78,1.33-4.47,1.71-4.93,2.06a9.08,9.08,0,0,0-.8-1.88,1.65,1.65,0,0,0,.77-1.5V432.35h2v10.94l2.94-.93ZM153.66,436a25,25,0,0,1-2.85,8.51,13,13,0,0,0,4.53,3.92,6.47,6.47,0,0,0-1.41,1.66,14.36,14.36,0,0,1-4.29-3.83,15,15,0,0,1-4.74,4,8.61,8.61,0,0,0-1.34-1.7,12.77,12.77,0,0,0,4.93-4.07,28.54,28.54,0,0,1-2.41-5.6,12.19,12.19,0,0,1-1.46,2.24,15,15,0,0,0-1.46-1.75c1.88-2.19,3-5.73,3.58-9.49l2.1.36a36.53,36.53,0,0,1-.86,3.82h7.16v2Zm-6.48.46a25.41,25.41,0,0,0,2.41,6.17,22.29,22.29,0,0,0,2-6.63h-4.25Z" fill="#0068b6"/>
      <path d="M177.17,447.72v1.81h-20v-1.81h2.72v-6.66h14.61v6.66Zm-.4-11.75H157.55v-1.81H163a22,22,0,0,0-2.1-3.43l1.75-.77a16.46,16.46,0,0,1,2.3,3.6l-1.19.6h6.81l-1.22-.44a24.93,24.93,0,0,0,2.17-3.79l2.08.62a35.33,35.33,0,0,1-2.41,3.61h5.55Zm-11.59,1.64a36,36,0,0,1-6.39,3.85,8.86,8.86,0,0,0-1.24-1.66,24.52,24.52,0,0,0,6.21-3.19Zm-3.43,10.11h2.35v-4.91h-2.35Zm4.23-4.91v4.91h2.36v-4.91Zm4.11-6.17a61.7,61.7,0,0,1,6.77,2.8l-1.13,1.64a58.93,58.93,0,0,0-6.7-3Zm.13,6.17v4.91h2.39v-4.91Z" fill="#0068b6"/>
    </g>
    <g>
      <path d="M252.54,423.61c4.8,0,6.06,4.43,6.06,8.15s-1.22,8.11-6.06,8.11-6.06-4.47-6.06-8.11S247.74,423.61,252.54,423.61Zm0,1.95c-3.1,0-3.9,3-3.9,6.2s.82,6.19,3.9,6.19,3.91-3.05,3.91-6.19S255.61,425.56,252.54,425.56Z" fill="#4c4948"/>
      <path d="M262,436.62a1.54,1.54,0,0,1,1.55,1.55,1.52,1.52,0,0,1-1.55,1.52,1.5,1.5,0,0,1-1.53-1.52A1.52,1.52,0,0,1,262,436.62Z" fill="#4c4948"/>
      <path d="M268.28,439.58V428.13h-3.47V426.6a3.57,3.57,0,0,0,3.69-2.7h1.9v15.68Z" fill="#4c4948"/>
      <path d="M272.22,433.61l6.9-9.71h2.74v10.15h2.7v2h-2.7v3.51h-2.13v-3.51h-7.51Zm7.51-7.34-5.48,7.78h5.48Z" fill="#4c4948"/>
      <path d="M285.46,427.18a3.55,3.55,0,1,1,3.54,3.49A3.53,3.53,0,0,1,285.46,427.18Zm3.54,1.74a1.74,1.74,0,0,0,0-3.47,1.74,1.74,0,0,0,0,3.47Zm-1.37,10.66,10.3-15.68h2l-10.29,15.68Zm11,.2a3.48,3.48,0,1,1,3.57-3.49A3.51,3.51,0,0,1,298.59,439.78Zm0-1.74a1.74,1.74,0,1,0-1.7-1.75A1.68,1.68,0,0,0,298.59,438Z" fill="#4c4948"/>
    </g>
    <g>
      <path d="M461.4,423.61c4.8,0,6.06,4.43,6.06,8.15s-1.21,8.11-6.06,8.11-6.06-4.47-6.06-8.11S456.6,423.61,461.4,423.61Zm0,1.95c-3.1,0-3.89,3-3.89,6.2s.82,6.19,3.89,6.19,3.91-3.05,3.91-6.19S464.48,425.56,461.4,425.56Z" fill="#4c4948"/>
      <path d="M470.86,436.62a1.53,1.53,0,0,1,1.55,1.55,1.51,1.51,0,0,1-1.55,1.52,1.49,1.49,0,0,1-1.52-1.52A1.51,1.51,0,0,1,470.86,436.62Z" fill="#4c4948"/>
      <path d="M477.14,439.58V428.13h-3.47V426.6a3.57,3.57,0,0,0,3.69-2.7h1.91v15.68Z" fill="#4c4948"/>
      <path d="M481.61,435.45a4,4,0,0,1,3.1-3.89,3.85,3.85,0,0,1-2.79-3.66c0-2.47,2.1-4.29,5.2-4.29s5.19,1.82,5.19,4.29a3.85,3.85,0,0,1-2.8,3.66,4,4,0,0,1,3.11,3.89c0,2.54-2.12,4.42-5.5,4.42S481.61,438,481.61,435.45Zm2.1-.2c0,1.52,1.24,2.81,3.41,2.81s3.4-1.29,3.4-2.81-1.17-2.83-3.4-2.83S483.71,433.7,483.71,435.25Zm6.48-7.21c0-1.46-1.13-2.59-3.07-2.59S484,426.58,484,428s1.2,2.65,3.08,2.67S490.19,429.56,490.19,428Z" fill="#4c4948"/>
      <path d="M494,427.18a3.55,3.55,0,1,1,3.54,3.49A3.53,3.53,0,0,1,494,427.18Zm3.54,1.74a1.74,1.74,0,1,0-1.7-1.74A1.68,1.68,0,0,0,497.57,428.92Zm-1.37,10.66,10.31-15.68h2l-10.28,15.68Zm11,.2a3.48,3.48,0,1,1,3.56-3.49A3.52,3.52,0,0,1,507.17,439.78Zm0-1.74a1.74,1.74,0,1,0-1.7-1.75A1.68,1.68,0,0,0,507.17,438Z" fill="#4c4948"/>
    </g>
    <g>
      <path d="M656.9,439.58v-14.2h-5v-2.77c3-.09,5.1-1.74,5.51-3.92h3.54v20.89Z" fill="#0068b6"/>
      <path d="M666.25,434.43a2.68,2.68,0,1,1-2.68,2.68A2.69,2.69,0,0,1,666.25,434.43Z" fill="#0068b6"/>
      <path d="M685.52,422.58a9.08,9.08,0,0,0-3.5-.79,6.73,6.73,0,0,0-7,6.42,5.91,5.91,0,0,1,5.22-2.45c4.18,0,7.07,2.72,7.07,7s-3.51,7.28-8,7.28-8.37-3.16-8.37-9.61c0-7.54,4.71-12.17,11.34-12.17a8.45,8.45,0,0,1,4.42,1Zm-6.24,14a3.69,3.69,0,0,0,3.91-3.71,3.74,3.74,0,0,0-3.91-3.78,3.75,3.75,0,1,0,0,7.49Z" fill="#0068b6"/>
      <path d="M689.24,426.44a7.38,7.38,0,0,1-.11-1.29c0-3.63,2.71-6.9,7.48-6.9s7.39,3,7.39,6.6a7.51,7.51,0,0,1-4,6.48l-4.07,2.51a4.28,4.28,0,0,0-2,2.18h10.16v3.56H689a9.38,9.38,0,0,1,4.95-8.72l3.42-2.12c1.79-1.12,2.56-2.3,2.56-3.8a3,3,0,0,0-3.36-3.09c-2.36,0-3.48,1.62-3.48,3.68a6.86,6.86,0,0,0,.12,1.12Z" fill="#0068b6"/>
      <path d="M710.61,428a4.8,4.8,0,0,1-4.86-4.8,4.9,4.9,0,1,1,4.86,4.8Zm0-2.74a2,2,0,0,0,0-4.09,2,2,0,0,0,0,4.09Zm-1.82,14.35,13.43-20.89h3.48l-13.44,20.89Zm15.08-9.28a4.81,4.81,0,1,1-4.89,4.8A4.84,4.84,0,0,1,723.9,430.3Zm0,2.77a2.05,2.05,0,1,0,2,2A1.93,1.93,0,0,0,723.9,433.07Z" fill="#0068b6"/>
    </g>
    <g>
      <path d="M867.54,439.58v-14.2h-5v-2.77c3-.09,5.1-1.74,5.51-3.92h3.54v20.89Z" fill="#0068b6"/>
      <path d="M876.89,434.43a2.68,2.68,0,1,1-2.68,2.68A2.69,2.69,0,0,1,876.89,434.43Z" fill="#0068b6"/>
      <path d="M881.78,426.44a7.26,7.26,0,0,1-.12-1.29c0-3.63,2.72-6.9,7.49-6.9s7.39,3,7.39,6.6a7.51,7.51,0,0,1-4,6.48l-4.07,2.51a4.28,4.28,0,0,0-2,2.18h10.16v3.56H881.49a9.38,9.38,0,0,1,5-8.72l3.42-2.12c1.79-1.12,2.56-2.3,2.56-3.8a3,3,0,0,0-3.36-3.09c-2.36,0-3.48,1.62-3.48,3.68a6.86,6.86,0,0,0,.12,1.12Z" fill="#0068b6"/>
      <path d="M903,439.58v-14.2h-5v-2.77c3-.09,5.1-1.74,5.52-3.92h3.53v20.89Z" fill="#0068b6"/>
      <path d="M914.12,428a4.8,4.8,0,0,1-4.86-4.8,4.89,4.89,0,0,1,9.78,0A4.81,4.81,0,0,1,914.12,428Zm0-2.74a2,2,0,0,0,0-4.09,2,2,0,0,0,0,4.09Zm-1.83,14.35,13.44-20.89h3.47L915.8,439.58Zm15.09-9.28a4.81,4.81,0,1,1-4.89,4.8A4.85,4.85,0,0,1,927.41,430.3Zm0,2.77a2.05,2.05,0,1,0,1.94,2A1.91,1.91,0,0,0,927.41,433.07Z" fill="#0068b6"/>
    </g>
    <g>
      <path d="M1081.93,423.61c4.8,0,6.07,4.43,6.07,8.15s-1.22,8.11-6.07,8.11-6.06-4.47-6.06-8.11S1077.13,423.61,1081.93,423.61Zm0,1.95c-3.09,0-3.89,3-3.89,6.2s.82,6.19,3.89,6.19,3.92-3.05,3.92-6.19S1085,425.56,1081.93,425.56Z" fill="#4c4948"/>
      <path d="M1091.4,436.62a1.54,1.54,0,0,1,1.55,1.55,1.52,1.52,0,0,1-1.55,1.52,1.5,1.5,0,0,1-1.53-1.52A1.52,1.52,0,0,1,1091.4,436.62Z" fill="#4c4948"/>
      <path d="M1094.84,435.45a4,4,0,0,1,3.1-3.89,3.86,3.86,0,0,1-2.79-3.66c0-2.47,2.11-4.29,5.2-4.29s5.2,1.82,5.2,4.29a3.85,3.85,0,0,1-2.81,3.66,4,4,0,0,1,3.12,3.89c0,2.54-2.12,4.42-5.51,4.42S1094.84,438,1094.84,435.45Zm2.11-.2c0,1.52,1.23,2.81,3.4,2.81s3.41-1.29,3.41-2.81-1.17-2.83-3.41-2.83S1097,433.7,1097,435.25Zm6.48-7.21c0-1.46-1.13-2.59-3.08-2.59s-3.07,1.13-3.07,2.59,1.19,2.65,3.07,2.67S1103.43,429.56,1103.43,428Z" fill="#4c4948"/>
      <path d="M1107.21,433.61l6.9-9.71h2.74v10.15h2.7v2h-2.7v3.51h-2.13v-3.51h-7.51Zm7.51-7.34-5.48,7.78h5.48Z" fill="#4c4948"/>
      <path d="M1120.45,427.18a3.55,3.55,0,1,1,3.53,3.49A3.52,3.52,0,0,1,1120.45,427.18Zm3.53,1.74a1.74,1.74,0,1,0-1.7-1.74A1.67,1.67,0,0,0,1124,428.92Zm-1.37,10.66,10.31-15.68h2l-10.28,15.68Zm11,.2a3.48,3.48,0,1,1,3.57-3.49A3.51,3.51,0,0,1,1133.58,439.78Zm0-1.74a1.74,1.74,0,1,0-1.7-1.75A1.68,1.68,0,0,0,1133.58,438Z" fill="#4c4948"/>
    </g>
  </g>
</svg>
