<svg xmlns="http://www.w3.org/2000/svg" viewBox="0 0 1242 683">
  <g>
    <path d="M417.76,86.1H406.47v9.63h-2.09V86.1H393.26v-2h11.12V74.48h-9.69v-2h21.53v2h-9.75v9.61h11.29ZM398.41,75.83A26.54,26.54,0,0,1,401,82l-1.93.66a32,32,0,0,0-2.48-6.31Zm11.07,6.36a40.61,40.61,0,0,0,3-6.49l2.15.6a54.53,54.53,0,0,1-3.39,6.47Z" fill="#4c4948"/>
    <path d="M429.17,85.58l.44,1.82c-2.89,1.34-6,2.72-8.34,3.77l-.8-2c1-.39,2.32-.94,3.75-1.49V79.14h-3.28v-2h3.28V70.93h1.92v6.25h3v2h-3v7.7ZM445.25,75v1.07c-.33,12.91-.69,17.12-1.73,18.5a2.76,2.76,0,0,1-2.2,1.15,33.36,33.36,0,0,1-4,0,4.91,4.91,0,0,0-.68-2c1.76.16,3.35.16,4,.16a1.19,1.19,0,0,0,1.1-.44c.91-.93,1.26-5.36,1.57-16.51H434a23.57,23.57,0,0,1-2.67,4.48,12.56,12.56,0,0,0-1.71-1.07,26.17,26.17,0,0,0,4.68-9.72l1.87.47A31.57,31.57,0,0,1,434.84,75Zm-12.5,11.83h8.78v1.82h-8.78Zm8.1-5.72V82.9H434V81.12Z" fill="#4c4948"/>
    <path d="M457.21,91c1.87-.36,3.83-.72,5.73-1.07l.13,1.78c-4.87.94-10.07,1.93-13.68,2.65l-.39-1.9c1.68-.28,3.91-.69,6.31-1.1V86.73h-5.37V84.92h5.37V82h1.95v3h5.48v1.81h-5.48Zm-8-18.61h14.07v1.82h-7.43a38,38,0,0,1-3.17,5.12l7-.61c-.66-1-1.38-1.9-2-2.72l1.46-.88a38.45,38.45,0,0,1,4.1,5.88l-1.57,1a15.15,15.15,0,0,0-1-1.7c-8.57.82-9.55.93-10.22,1.24a13,13,0,0,0-.69-1.93c.45-.08.86-.55,1.33-1.21a27.32,27.32,0,0,0,2.39-4.21h-4.35Zm17.51,17.12h-1.93V73h1.93ZM472.2,71v21.5c0,1.3-.3,1.93-1.13,2.23a14.08,14.08,0,0,1-4.29.39,7.91,7.91,0,0,0-.75-2h3.58c.47,0,.58-.14.58-.61V71.07Z" fill="#4c4948"/>
    <path d="M489.27,89.1H475.83V87.26h2.67V76.08h-2.31V74.24h2.31V70.91h1.88v3.33h5V70.91h1.9v3.33h2v1.84h-2V87.26h2Zm-7.68,1.1a18.06,18.06,0,0,1-4.08,5.56,11.26,11.26,0,0,0-1.65-1.18,14.23,14.23,0,0,0,3.77-4.9Zm-1.21-14.12V78.5h5V76.08Zm0,6.77h5V80.16h-5Zm0,4.41h5V84.51h-5Zm4.76,2.42A19.9,19.9,0,0,1,488,93.75l-1.65,1a22.07,22.07,0,0,0-2.84-4.19Zm15,3.44c0,1.21-.3,1.82-1,2.15a12.13,12.13,0,0,1-4.11.38,7.39,7.39,0,0,0-.63-2h3.22c.38,0,.58-.14.58-.58v-6.6h-5.81a22,22,0,0,1-2.61,9.41,5.86,5.86,0,0,0-1.63-1.21c2.28-3.63,2.51-8.84,2.51-12.77V72h9.52Zm-2-8.48V80.07h-5.62v1.85c0,.85,0,1.79,0,2.72Zm-5.62-10.79v4.38h5.62V73.85Z" fill="#4c4948"/>
    <path d="M528.45,93.18V95h-16.6V93.18h2.67V77.71h3.78c.13-.69.27-1.49.44-2.29h-5.35V73.8H509c-.22,1.26-.49,2.5-.77,3.69h3.28l.36-.06,1.18.33c-1,9-3.8,14.89-7.85,17.95a5.48,5.48,0,0,0-1.42-1.46A15.61,15.61,0,0,0,509,87.34a32.61,32.61,0,0,0-3.08-3.25,12.27,12.27,0,0,1-1.19,2,9.62,9.62,0,0,0-1.32-1.46c1.9-2.64,3.06-6.61,3.8-10.87H504V71.87h9.41v1.79H519c.16-1.07.3-2.12.38-3.06l2.23.14c-.16.91-.35,1.93-.57,2.92h6.74v1.76h-7.1c-.19.8-.36,1.6-.55,2.29h6.08V93.18ZM507.67,79.36a25.48,25.48,0,0,1-1.07,3.08c1,.91,2.14,2,3,2.92a37.31,37.31,0,0,0,1.3-6Zm8.81-.09v2.32h7.76V79.27Zm7.76,3.83h-7.76v2.34h7.76Zm-7.76,3.83v2.36h7.76V86.93Zm0,6.25h7.76V90.81h-7.76Z" fill="#4c4948"/>
    <path d="M539.31,78.86H545v1.9h-5.65v.74c1.32,1.24,4.49,4.41,5.31,5.23l-1.21,1.68c-.82-1-2.67-3-4.1-4.59V95.71h-2V83.9a29.53,29.53,0,0,1-5.28,8.1,15.77,15.77,0,0,0-1.13-2,27.34,27.34,0,0,0,5.92-9.28H531.5v-1.9h5.78V74.18c-1.79.36-3.58.64-5.29.88a5.8,5.8,0,0,0-.63-1.62c4-.61,8.78-1.54,11.36-2.67l1.52,1.57a40.39,40.39,0,0,1-4.93,1.46Zm9.8,10.1h-2V73.88h2ZM555,71V93c0,1.4-.39,2-1.24,2.34a16,16,0,0,1-4.9.41,10.77,10.77,0,0,0-.74-2.06h4.15c.52,0,.72-.17.72-.72v-22Z" fill="#4c4948"/>
    <path d="M583.67,90h-11.2v5.8h-2.15V90H559.15V88.1h11.17V85.8h2.15v2.26h11.2Zm-17.23-7.2c-2.09,1.13-4.32,2.31-6.14,3.22l-1-1.65c1.71-.69,4.27-1.9,6.75-3.09Zm9.41,3.38a6.08,6.08,0,0,0-.74-1.46c-7.15.69-8.12.83-8.67,1.11a17.9,17.9,0,0,0-.6-1.79,5.88,5.88,0,0,0,2.28-1.35c.52-.44,1.71-1.52,3-2.86-3.17.24-3.77.38-4.18.55a10.45,10.45,0,0,0-.58-1.74,2.12,2.12,0,0,0,1.21-.88A19.11,19.11,0,0,0,569.72,75h-10V73.08h11.2c-.36-.69-.85-1.51-1.27-2.15l2-.52a16.58,16.58,0,0,1,1.63,2.67h10.21V75H571.86a30.21,30.21,0,0,1-2.61,3.36l3.49-.22a23.91,23.91,0,0,0,1.85-2.28l1.68,1a54.11,54.11,0,0,1-6.94,6.85l4.82-.38c-.44-.61-.91-1.24-1.35-1.76l1.51-.64a20.66,20.66,0,0,1,3.17,4.63Zm-14.39-10.1a24.39,24.39,0,0,1,4.18,3.11l-1.43,1.24a21.84,21.84,0,0,0-4.13-3.22Zm20.15,10.21a34.82,34.82,0,0,0-5.4-3.85l1.46-1.1a34.4,34.4,0,0,1,5.45,3.74Zm.47-9.24a29.3,29.3,0,0,1-4.1,3.44l-1.49-1A23.83,23.83,0,0,0,580.37,76Z" fill="#4c4948"/>
    <path d="M588.2,79.8l1.74-2.87-3-1.23.49-1.41,3.14.77.28-3.33h1.48l.28,3.3,3.13-.74.47,1.41-3,1.23L595,79.8l-1.21.88-2.17-2.62-2.18,2.62Z" fill="#4c4948"/>
  </g>
  <g>
    <path d="M82.44,444.13c4.82,0,6.44,4.56,6.44,8.84s-1.62,8.81-6.44,8.81S76,457.24,76,453,77.59,444.13,82.44,444.13Zm0,16.33c3.44,0,5-3.24,5-7.49s-1.52-7.52-5-7.52-5,3.24-5,7.52S79,460.46,82.44,460.46Z" fill="#4c4948"/>
    <path d="M93.47,459a1.27,1.27,0,0,1,1.28,1.26v0A1.27,1.27,0,1,1,93.47,459Z" fill="#4c4948"/>
    <path d="M104.53,444.13c4.82,0,6.44,4.56,6.44,8.84s-1.62,8.81-6.44,8.81S98.1,457.24,98.1,453,99.69,444.13,104.53,444.13Zm0,16.33c3.45,0,5-3.24,5-7.49s-1.52-7.52-5-7.52-5,3.24-5,7.52S101.06,460.46,104.53,460.46Z" fill="#4c4948"/>
    <path d="M117.4,451.62a3.69,3.69,0,1,1,3.72-3.7,3.69,3.69,0,0,1-3.72,3.7Zm0-1.2a2.49,2.49,0,1,0-2.43-2.55v.05a2.42,2.42,0,0,0,2.34,2.5ZM116,461.47l11.4-17h1.42l-11.4,17Zm11.48-7.18a3.69,3.69,0,1,1-3.72,3.67,3.69,3.69,0,0,1,3.72-3.67h0Zm0,1.2a2.49,2.49,0,1,0,2.41,2.57V458a2.41,2.41,0,0,0-2.35-2.47h-.06Z" fill="#4c4948"/>
  </g>
  <g>
    <path d="M88.37,413.61H86.89V399.34a6,6,0,0,1-4.26,2v-1.25A4.73,4.73,0,0,0,87,396.58h1.38Z" fill="#4c4948"/>
    <path d="M93.47,411.19a1.25,1.25,0,0,1,1.28,1.24v0a1.27,1.27,0,1,1-1.28-1.27Z" fill="#4c4948"/>
    <path d="M104.53,396.27c4.82,0,6.44,4.56,6.44,8.84s-1.62,8.81-6.44,8.81-6.43-4.53-6.43-8.81S99.69,396.27,104.53,396.27Zm0,16.33c3.45,0,5-3.24,5-7.49s-1.52-7.52-5-7.52-5,3.24-5,7.52,1.53,7.49,5,7.49Z" fill="#4c4948"/>
    <path d="M117.4,403.76a3.69,3.69,0,1,1,3.72-3.7,3.69,3.69,0,0,1-3.72,3.7Zm0-1.2A2.49,2.49,0,1,0,115,400v.05a2.42,2.42,0,0,0,2.34,2.5ZM116,413.61l11.4-17h1.42l-11.4,17Zm11.48-7.18a3.69,3.69,0,1,1-3.72,3.68,3.69,3.69,0,0,1,3.72-3.68h0Zm0,1.2a2.49,2.49,0,1,0,2.41,2.57v-.09a2.42,2.42,0,0,0-2.36-2.48h0Z" fill="#4c4948"/>
  </g>
  <line x1="145.93" y1="406.49" x2="1200" y2="406.49" fill="none" stroke="#9e9e9f" stroke-miterlimit="10" stroke-width="0.5"/>
  <g>
    <path d="M77.66,365.76c0-2.64,1.45-4.56,4.27-6.46l2.53-1.7c1.64-1.11,2.78-2.48,2.78-4.16a3.62,3.62,0,0,0-3.51-3.71h-.35a3.92,3.92,0,0,0-4.15,3.69,4,4,0,0,0,0,.49,5.48,5.48,0,0,0,0,.81l-1.5-.21v-.77a5.38,5.38,0,0,1,5.42-5.34h.23c3.45,0,5.38,2.28,5.38,5,0,3.78-3.94,5.55-6.9,7.55a5.16,5.16,0,0,0-2.39,3.41H89v1.39Z" fill="#4c4948"/>
    <path d="M93.47,363.34a1.25,1.25,0,0,1,1.28,1.24v0a1.27,1.27,0,1,1-1.28-1.27Z" fill="#4c4948"/>
    <path d="M104.53,348.42c4.82,0,6.44,4.56,6.44,8.84s-1.62,8.81-6.44,8.81-6.43-4.54-6.43-8.81S99.69,348.42,104.53,348.42Zm0,16.33c3.45,0,5-3.24,5-7.49s-1.52-7.52-5-7.52-5,3.24-5,7.52S101.06,364.75,104.53,364.75Z" fill="#4c4948"/>
    <path d="M117.4,355.91a3.69,3.69,0,1,1,3.72-3.7,3.69,3.69,0,0,1-3.72,3.7Zm0-1.2a2.49,2.49,0,1,0-2.43-2.55v0a2.42,2.42,0,0,0,2.34,2.5ZM116,365.76l11.4-17h1.42l-11.4,17Zm11.48-7.18a3.69,3.69,0,1,1-3.72,3.67,3.69,3.69,0,0,1,3.72-3.67h0Zm0,1.2a2.49,2.49,0,1,0,2.41,2.57v-.1a2.41,2.41,0,0,0-2.35-2.47h-.06Z" fill="#4c4948"/>
  </g>
  <line x1="145.93" y1="358.46" x2="1200" y2="358.46" fill="none" stroke="#9e9e9f" stroke-miterlimit="10" stroke-width="0.5"/>
  <g>
    <path d="M89,312.88c0,3.15-2.61,5.34-6,5.34s-6-2.21-6.13-5.17l1.45-.33A4.43,4.43,0,0,0,83,316.9h0c2.55,0,4.46-1.69,4.46-4,0-2.5-1.93-3.84-4.22-3.84a6.32,6.32,0,0,0-1.62.21L80.9,308l5.74-5.8H77.27v-1.39H88.58v1.39l-5.64,5.68a5.56,5.56,0,0,1,.82-.08A4.89,4.89,0,0,1,89,312.35,4.69,4.69,0,0,1,89,312.88Z" fill="#4c4948"/>
    <path d="M93.47,315.48a1.27,1.27,0,0,1,1.28,1.26h0a1.27,1.27,0,0,1-2.53,0,1.25,1.25,0,0,1,1.25-1.27Z" fill="#4c4948"/>
    <path d="M104.53,300.56c4.82,0,6.44,4.57,6.44,8.84s-1.62,8.82-6.44,8.82-6.43-4.54-6.43-8.82S99.69,300.56,104.53,300.56Zm0,16.34c3.45,0,5-3.25,5-7.5s-1.52-7.52-5-7.52-5,3.25-5,7.52S101.06,316.9,104.53,316.9Z" fill="#4c4948"/>
    <path d="M117.4,308.06a3.69,3.69,0,1,1,3.72-3.71,3.69,3.69,0,0,1-3.72,3.71Zm0-1.21A2.49,2.49,0,1,0,115,304.3v.05a2.42,2.42,0,0,0,2.34,2.5Zm-1.37,11,11.4-17h1.42l-11.4,17Zm11.48-7.18a3.66,3.66,0,1,0,0,.05Zm0,1.2a2.49,2.49,0,1,0,2.41,2.57v-.09a2.42,2.42,0,0,0-2.41-2.43h0Z" fill="#4c4948"/>
  </g>
  <line x1="145.93" y1="310.43" x2="1200" y2="310.43" fill="none" stroke="#9e9e9f" stroke-miterlimit="10" stroke-width="0.5"/>
  <g>
    <path d="M76.43,264.09,84.29,253h2.17v11.5h3v1.35h-3v4.2H85v-4.2H76.43ZM85,254.36,77.83,264.5H85Z" fill="#4c4948"/>
    <path d="M93.47,267.62a1.27,1.27,0,0,1,1.28,1.26v0a1.27,1.27,0,1,1-1.28-1.28Z" fill="#4c4948"/>
    <path d="M104.53,252.7c4.82,0,6.44,4.57,6.44,8.85s-1.62,8.81-6.44,8.81-6.43-4.54-6.43-8.81S99.69,252.7,104.53,252.7Zm0,16.34c3.45,0,5-3.24,5-7.49s-1.52-7.52-5-7.52-5,3.24-5,7.52,1.53,7.45,5,7.45Z" fill="#4c4948"/>
    <path d="M117.4,260.2a3.69,3.69,0,1,1,3.72-3.7,3.69,3.69,0,0,1-3.72,3.7Zm0-1.2a2.49,2.49,0,1,0-2.43-2.55v.05a2.42,2.42,0,0,0,2.34,2.5ZM116,270.05l11.4-17h1.42l-11.4,17Zm11.48-7.18a3.69,3.69,0,1,1-3.72,3.67,3.69,3.69,0,0,1,3.72-3.67h0Zm0,1.2a2.49,2.49,0,1,0,2.41,2.57v-.1a2.41,2.41,0,0,0-2.35-2.47h-.06Z" fill="#4c4948"/>
  </g>
  <line x1="145.93" y1="262.4" x2="1200" y2="262.4" fill="none" stroke="#9e9e9f" stroke-miterlimit="10" stroke-width="0.5"/>
  <g>
    <path d="M78.48,217.08a4.44,4.44,0,0,0,4.58,4.11,4.3,4.3,0,0,0,0-8.6,5.21,5.21,0,0,0-3.86,1.73l-1.5-.6,2.2-8.56h8.49v1.37h-7.5L79.3,212.9A5.74,5.74,0,0,1,89,216.39a4.17,4.17,0,0,1,0,.5,5.65,5.65,0,0,1-5.67,5.63H83a5.72,5.72,0,0,1-6-5Z" fill="#4c4948"/>
    <path d="M93.47,219.77A1.19,1.19,0,1,1,92.22,221,1.27,1.27,0,0,1,93.47,219.77Z" fill="#4c4948"/>
    <path d="M104.53,204.85c4.82,0,6.44,4.56,6.44,8.84s-1.62,8.82-6.44,8.82S98.1,218,98.1,213.69,99.69,204.85,104.53,204.85Zm0,16.34c3.45,0,5-3.25,5-7.5s-1.52-7.52-5-7.52-5,3.24-5,7.52S101.06,221.19,104.53,221.19Z" fill="#4c4948"/>
    <path d="M117.4,212.35a3.69,3.69,0,1,1,3.72-3.7,3.69,3.69,0,0,1-3.72,3.7Zm0-1.21a2.49,2.49,0,1,0-2.43-2.55v.06a2.42,2.42,0,0,0,2.35,2.49ZM116,222.2l11.4-17h1.42l-11.4,17Zm11.51-7.2a3.69,3.69,0,1,1-3.72,3.68,3.69,3.69,0,0,1,3.72-3.68Zm0,1.2a2.49,2.49,0,1,0,2.41,2.57v-.09a2.42,2.42,0,0,0-2.37-2.47h0Z" fill="#4c4948"/>
  </g>
  <line x1="145.93" y1="214.37" x2="1200" y2="214.37" fill="none" stroke="#9e9e9f" stroke-miterlimit="10" stroke-width="0.5"/>
  <g>
    <path d="M90,111a23.52,23.52,0,0,0-7.76,15.52H80.67a24.38,24.38,0,0,1,7.72-15.67H77.8v-1.37H90Z" fill="#4c4948"/>
    <path d="M93.47,124.06a1.27,1.27,0,0,1,1.28,1.26h0a1.27,1.27,0,1,1-1.28-1.27Z" fill="#4c4948"/>
    <path d="M104.53,109.14c4.82,0,6.44,4.56,6.44,8.84s-1.62,8.82-6.44,8.82-6.44-4.54-6.44-8.82S99.68,109.14,104.53,109.14Zm0,16.34c3.45,0,5-3.25,5-7.5s-1.52-7.52-5-7.52-5,3.24-5,7.52S101.06,125.48,104.53,125.48Z" fill="#4c4948"/>
    <path d="M117.4,116.64a3.69,3.69,0,1,1,3.71-3.7,3.69,3.69,0,0,1-3.71,3.7Zm0-1.2A2.49,2.49,0,1,0,115,112.9v0a2.43,2.43,0,0,0,2.36,2.5Zm-1.38,11,11.41-17h1.42l-11.4,17Zm11.48-7.19a3.69,3.69,0,1,1-3.71,3.68,3.69,3.69,0,0,1,3.71-3.68Zm0,1.2a2.49,2.49,0,1,0,2.41,2.57v-.09a2.42,2.42,0,0,0-2.41-2.43h0Z" fill="#4c4948"/>
  </g>
  <line x1="145.93" y1="119.72" x2="1200" y2="119.72" fill="none" stroke="#9e9e9f" stroke-miterlimit="10" stroke-width="0.5"/>
  <line x1="42.7" y1="550.72" x2="1208" y2="550.72" fill="none" stroke="#9e9e9f" stroke-miterlimit="10"/>
  <g>
    <path d="M89,169a5.72,5.72,0,0,1-5.76,5.68H83c-3.61,0-6.38-2.74-6.38-7.92,0-6.47,3.85-9.73,8.31-9.73a7,7,0,0,1,3.67.93l-.48,1.28a5.93,5.93,0,0,0-3.26-.84c-4.53,0-6.73,3.86-6.82,8.12A5.78,5.78,0,0,1,89,169Zm-6,4.38a4.32,4.32,0,0,0,4.48-4.16V169a4.25,4.25,0,0,0-4.07-4.42h-.36a4.46,4.46,0,0,0-4.5,4.42v0a4.38,4.38,0,0,0,4.4,4.36h0Z" fill="#4c4948"/>
    <path d="M93.47,171.91a1.28,1.28,0,1,1-1.26,1.28,1.28,1.28,0,0,1,1.26-1.28Z" fill="#4c4948"/>
    <path d="M104.53,157c4.82,0,6.44,4.56,6.44,8.84s-1.62,8.81-6.44,8.81-6.44-4.54-6.44-8.81S99.68,157,104.53,157Zm0,16.33c3.45,0,5-3.24,5-7.49s-1.52-7.52-5-7.52-5,3.24-5,7.52S101.06,173.33,104.53,173.33Z" fill="#4c4948"/>
    <path d="M117.4,164.49a3.69,3.69,0,1,1,3.71-3.7,3.69,3.69,0,0,1-3.71,3.7Zm0-1.2a2.49,2.49,0,1,0-2.44-2.54v0a2.42,2.42,0,0,0,2.34,2.5ZM116,174.34l11.41-17h1.42l-11.4,17Zm11.48-7.18a3.69,3.69,0,1,1-3.71,3.67,3.69,3.69,0,0,1,3.71-3.67h0Zm0,1.2a2.49,2.49,0,1,0,2.41,2.57v-.1a2.41,2.41,0,0,0-2.35-2.47h-.06Z" fill="#4c4948"/>
  </g>
  <line x1="145.93" y1="166.34" x2="1200" y2="166.34" fill="none" stroke="#9e9e9f" stroke-miterlimit="10" stroke-width="0.5"/>
  <line x1="145.93" y1="454.52" x2="1200" y2="454.52" fill="none" stroke="#9e9e9f" stroke-miterlimit="10" stroke-width="0.5"/>
  <rect x="357.23" y="70.6" width="23.04" height="23.04" fill="#0068b6"/>
  <g>
    <path d="M704.76,92.24v2H680.45v-2h6.69c.55-2.5,1.13-5.73,1.68-9H683.7v-2h5.45c.33-2,.63-4.08.88-5.92h-7.84v-2h20.59v2H692.21c-.28,1.84-.58,3.91-.91,5.92h6.94l.35-.11,1.57.16c-.19,3-.58,7.38-1,11Zm-13.77-9c-.52,3.27-1.1,6.5-1.62,9h7.68c.31-2.95.63-6.47.85-9Z" fill="#4c4948"/>
    <path d="M732.66,89.46h-10v6.3H720.6v-6.3H707.91v-2h4.52V80.1h8.2V75.92h-6.69a25,25,0,0,1-4.19,5.42A11.61,11.61,0,0,0,708,80.05a23.36,23.36,0,0,0,6.2-9.5l2.06.49c-.38,1-.82,2-1.26,2.9h16.4v2h-8.7V80.1h8.07V82H722.7v5.45h10Zm-12-2V82h-6.17v5.45Z" fill="#4c4948"/>
    <path d="M760.37,89.46h-10v6.3h-2.06v-6.3H735.62v-2h4.51V80.1h8.21V75.92h-6.69a25,25,0,0,1-4.19,5.42,13,13,0,0,0-1.76-1.29,23.36,23.36,0,0,0,6.2-9.5L744,71c-.38,1-.82,2-1.26,2.9h16.4v2h-8.7v4.2h8.07V82H750.4v5.45h10Zm-12-2V82H742.2v5.45Z" fill="#4c4948"/>
    <path d="M772.44,71.35a41,41,0,0,1-2.75,5.2V95.76h-2V79.47A32.56,32.56,0,0,1,764,83.65a16,16,0,0,0-1.16-2,30.79,30.79,0,0,0,7.71-10.9ZM784.06,93c1.54,0,1.76-1.22,2-5.92A5.43,5.43,0,0,0,788,88c-.33,5.1-.89,6.86-3.78,6.86H779c-2.73,0-3.59-.8-3.59-3.72V71h2v7.49h9.77v2h-9.77V91.17c0,1.45.3,1.79,1.73,1.79Z" fill="#4c4948"/>
    <path d="M795.6,82.66a28.71,28.71,0,0,0-4.84-3l1.18-1.48A31.27,31.27,0,0,1,796.79,81Zm1.9,3.88c-1.24,2.89-2.86,6.3-4.27,8.84l-1.78-1.24a80.08,80.08,0,0,0,4.48-8.81Zm-.52-11a28.25,28.25,0,0,0-4.73-3.16l1.15-1.46a25.6,25.6,0,0,1,4.76,3Zm16.95,6.33a20.44,20.44,0,0,1-4.65,8.7A18.15,18.15,0,0,0,816.17,94a7.47,7.47,0,0,0-1.36,1.76,19.22,19.22,0,0,1-7-3.85,21.9,21.9,0,0,1-6.74,3.91,8.13,8.13,0,0,0-1.32-1.71,20.51,20.51,0,0,0,6.63-3.58A23.06,23.06,0,0,1,802,83.16h-.68c-.14,4-.86,9-3.56,12.57a6.61,6.61,0,0,0-1.7-1c3-3.8,3.3-9.22,3.3-13.19v-7H806v-4h2v4h6.06l.33-.09,1.46.42a39.51,39.51,0,0,1-2.34,5.53l-1.73-.55c.44-.88.93-2.15,1.4-3.39H808v4.82h4.24l.39-.08Zm-12.55-5.34v4.82H806V76.49ZM804,83.16a18.65,18.65,0,0,0,3.86,6,16.88,16.88,0,0,0,3.6-6Z" fill="#4c4948"/>
    <path d="M842.85,77.07v1c-.34,11.51-.61,15.25-1.49,16.41a2.35,2.35,0,0,1-2,1,23.13,23.13,0,0,1-3.33,0,4.27,4.27,0,0,0-.58-1.84c1.38.11,2.62.11,3.14.11a1.05,1.05,0,0,0,1-.41c.66-.8,1-4.55,1.26-14.43H837c-.33,7.52-1.57,13.43-6.44,17.07a6.36,6.36,0,0,0-1.59-1.6,10.53,10.53,0,0,0,1.21-1c-4.13.52-8.35,1-11.4,1.35L818.41,93c1.62-.11,3.69-.3,6-.52V90.06H819.2V88.5h5.21V86.87h-5.12v-8.2h5.12V76.93h-5.92V75.34h5.92V73.58c-1.77.13-3.55.24-5.18.3a5.94,5.94,0,0,0-.5-1.49A85.27,85.27,0,0,0,830.55,71l1.1,1.51a45.32,45.32,0,0,1-5.42.88v2h5.83V77h-5.83v1.74h5.34v8.2h-5.34V88.5h5.42v1.56h-5.42V92.3c1.79-.2,3.66-.39,5.5-.61h0c2.34-3.22,3.06-7.55,3.28-12.75h-3.19V77h3.27V71h2q0,3.15-.08,6Zm-21.94,5h3.45v-2h-3.45Zm3.45,3.39v-2h-3.45v2Zm1.87-5.34v2h3.58v-2Zm3.58,3.33h-3.58v2h3.58Z" fill="#4c4948"/>
    <path d="M850.27,80.76c0,4.38-.33,10.68-2.64,15a7,7,0,0,0-1.82-.93c2.23-4.13,2.45-10,2.45-14.07v-7.4h10.6c-.33-.77-.72-1.68-1.1-2.4l2-.49a20.27,20.27,0,0,1,1.4,2.89h9.56v1.9H850.27ZM868.52,87a13.62,13.62,0,0,1-5.7,5.4,35.72,35.72,0,0,0,8.26,1.6,7.31,7.31,0,0,0-1.15,1.76,33.13,33.13,0,0,1-9.39-2.36,39.82,39.82,0,0,1-9.63,2.2,8.38,8.38,0,0,0-.88-1.71,39.57,39.57,0,0,0,8.36-1.59A14,14,0,0,1,854,88.41l1-.38h-3.6V86.35H867l.39-.11Zm-13.16-2.36V80.05H851V78.34h4.4V76h2v2.37H864V76h2v2.37h4.43v1.71H866v4.54ZM856,88a12.76,12.76,0,0,0,4.65,3.41A12.94,12.94,0,0,0,865.47,88Zm1.35-8v2.89H864V80.05Z" fill="#4c4948"/>
  </g>
  <rect x="644.31" y="70.6" width="23.04" height="23.04" fill="#f5ab18"/>
  <g>
    <path d="M186.07,477.17a25.43,25.43,0,0,0,10.51,8.44,7.28,7.28,0,0,0-1.36,1.57,30.37,30.37,0,0,1-10.14-8.25,38,38,0,0,1-10.3,8.54,7.18,7.18,0,0,0-1.12-1.56,31.25,31.25,0,0,0,9.29-7h-4.41v-1.73Zm-.1,19.57h9.57v1.68H174.68v-1.68h9.39V492.6h-6.94V491h6.94v-3.8h-5.88v-1.66H192v1.66h-6V491h7v1.63h-7Z" fill="#4c4948"/>
    <path d="M206.9,494c-2.75.87-5.68,1.78-7.91,2.53l-.39-1.79c.89-.24,2-.57,3.24-.94V487h-2.77v-1.74h2.77v-5.37h-3v-1.74h7.56v1.74h-2.85v5.37h2.5V487h-2.5v6.29l3-1Zm14.1-9.28a52.56,52.56,0,0,1-4.31,5.33,14.08,14.08,0,0,0,5.05,5.87,4.31,4.31,0,0,0-1.16,1.39,15.61,15.61,0,0,1-5.72-7.46v6.94c0,1.11-.3,1.63-1,1.93a9.63,9.63,0,0,1-3.77.4,7.16,7.16,0,0,0-.67-1.79c1.44.05,2.71,0,3.08,0s.54-.15.54-.57v-5.85c-2,2.06-4.14,4.09-5.82,5.68L206.08,495c1.68-1.39,4.41-3.81,7-6.12v-6.44h-6v-1.71h6v-4.29h1.79v4.29h6.49v1.71h-6.49v.89a30.68,30.68,0,0,0,1.21,5.18,36.37,36.37,0,0,0,3.32-4.68ZM208.83,484a19.43,19.43,0,0,1,2.7,4.59l-1.51.72a21.26,21.26,0,0,0-2.63-4.64Zm10.11-3.56a14.6,14.6,0,0,0-2.93-2.73l1.07-1a17.49,17.49,0,0,1,3,2.57Z" fill="#4c4948"/>
    <path d="M232.48,477.81a33.13,33.13,0,0,1-7.26,10.53,14.42,14.42,0,0,0-1.64-1.49,25.71,25.71,0,0,0,6.89-9.66Zm7,11.77A76.89,76.89,0,0,1,245,497.9l-1.83,1c-.35-.69-.82-1.49-1.34-2.38-12.84.89-14.2,1-15.16,1.31a11.62,11.62,0,0,0-.72-2c.67-.15,1.39-1,2.33-2.13a55.83,55.83,0,0,0,6.24-9.77l2.06.87a65.67,65.67,0,0,1-7.26,10.63l11.44-.64c-1-1.54-2.08-3.15-3.07-4.46Zm.52-12.49c1.19,3.92,3.67,7.63,6.56,9.54a9.76,9.76,0,0,0-1.43,1.71,20.74,20.74,0,0,1-6.52-9.39H234v-1.86Z" fill="#4c4948"/>
    <path d="M255.78,477a35.39,35.39,0,0,1-2.41,5v16.87h-1.78V484.82a27.72,27.72,0,0,1-2.52,3.08,11.78,11.78,0,0,0-1.12-1.69,27.62,27.62,0,0,0,6.14-9.74ZM262,495.8a20.26,20.26,0,0,1-5.94,3.39,11.32,11.32,0,0,0-1.39-1.38,18,18,0,0,0,5.57-2.66Zm.23-16.68h-6.07v-1.28h6.07v-1.37h1.85v1.37h6.3v1.28h-6.3v1.22h5.6v1.24h-5.6v1.31h7.06v1.34H255v-1.34h7.16v-1.31h-5.45v-1.24h5.45ZM257,494.76v-9.32h12.56v9.32Zm1.78-6.57h9v-1.51h-9Zm0,2.63h9v-1.54h-9Zm0,2.65h9v-1.56h-9Zm7.76,1.56a38.31,38.31,0,0,1,4.9,3.17l-1.83,1a30.36,30.36,0,0,0-4.91-3.42Z" fill="#4c4948"/>
    <path d="M281.93,488.81l-3.1.94v7.11c0,1.07-.25,1.54-.89,1.86a8.61,8.61,0,0,1-3.27.32,7.31,7.31,0,0,0-.57-1.71h2.45c.29,0,.47-.1.47-.47v-6.54l-3.34,1-.55-1.8c1.07-.28,2.43-.65,3.89-1.07v-5.23h-3.51v-1.76H277v-5h1.81v5h2.8v1.76h-2.8v4.69c.94-.25,1.91-.55,2.85-.85Zm4.48-2.65c-2.43,0-3.19-.77-3.19-2.9v-6.71H285v3h10v1.61H285v2.18c0,.92.27,1.27,1.36,1.27h6.49a17.67,17.67,0,0,0,2.72-.18c.08.5.15,1.19.23,1.61a17,17,0,0,1-2.85.15Zm-3.17,2.1h11.59V499H293v-1h-8v1.14h-1.76Zm1.76,1.59v2.45h8v-2.45Zm8,6.57v-2.61h-8v2.61Z" fill="#4c4948"/>
    <path d="M309.2,492.72a5.42,5.42,0,0,1-2.14,3.28,21.87,21.87,0,0,1,2.85,1.46l-1.21,1.06a28.59,28.59,0,0,0-3.05-1.61,25.26,25.26,0,0,1-6.94,2.13,5,5,0,0,0-.76-1.23,25.54,25.54,0,0,0,6-1.64,28.93,28.93,0,0,0-3.82-1.36,20.51,20.51,0,0,0,1.26-1.64l-2.92.15L298.3,492c1.11,0,2.5-.1,4-.15.37-.67.77-1.31,1.12-2h-4v-4H304v-1h-4v-2.68h-1.66v-1.41H300v-2.53h4v-1.73h1.46v1.73h4.21v2.53h1.69v1.41h-1.69v2.68H305.5v1h4.81v4h-5.23a18.46,18.46,0,0,1-1,1.86c1.22,0,2.48-.12,3.77-.2v-1.16h1.51v1.09l1.24-.08v1.29Zm-8.26-4.11H304v-1.53h-3.1Zm.7-9.14v1.32H304v-1.32Zm2.4,4V482h-2.4v1.49Zm-.87,9.54c-.24.4-.52.76-.76,1.11,1,.33,2.08.72,3.09,1.14a4.7,4.7,0,0,0,2.08-2.48Zm2.33-13.58v1.32h2.58v-1.32Zm2.58,4V482H305.5v1.49ZM305.5,487v1.53h3.17V487Zm13.5-4.16a35.23,35.23,0,0,1-2.26,9.49,12.32,12.32,0,0,0,4.19,5.15,6.07,6.07,0,0,0-1.11,1.31,12.26,12.26,0,0,1-3.89-4.68,14.81,14.81,0,0,1-4.49,5.11,5.71,5.71,0,0,0-1-1.39,13,13,0,0,0,4.66-5.57,32.29,32.29,0,0,1-1.81-6.55,16.35,16.35,0,0,1-1.32,2.73,14.83,14.83,0,0,0-1.26-1.12c1.64-2.6,2.6-6.61,3.17-10.67l1.56.24c-.2,1.44-.47,2.9-.79,4.29h6v1.66Zm-4.76,0a41.81,41.81,0,0,0,1.66,7.33,35.1,35.1,0,0,0,1.44-7.33Z" fill="#4c4948"/>
  </g>
  <rect x="166.66" y="431.2" width="74.77" height="23.32" fill="#0068b6"/>
  <rect x="254.63" y="287.52" width="74.78" height="167" fill="#f5ab18"/>
  <g>
    <path d="M175.28,404.79a7.75,7.75,0,0,1,12.58,0,12.73,12.73,0,0,1,1.73,7,12.48,12.48,0,0,1-1.73,6.93,7.75,7.75,0,0,1-12.58,0,12.22,12.22,0,0,1-1.71-6.93A12.36,12.36,0,0,1,175.28,404.79Zm3.3,12.25a3.69,3.69,0,0,0,5.15.85,3.61,3.61,0,0,0,.85-.85,11.9,11.9,0,0,0,0-10.57,3.71,3.71,0,0,0-5.18-.82,3.75,3.75,0,0,0-.82.82A12.17,12.17,0,0,0,178.58,417Z" fill="#002f7c"/>
    <path d="M194,416.68a2.51,2.51,0,1,1-2.51,2.51A2.53,2.53,0,0,1,194,416.68Z" fill="#002f7c"/>
    <path d="M197.89,413.22,206.12,402h4.82v12h3.22v3.33h-3.22v4.21h-3.77v-4.21h-9.28Zm9.28-7.35-5.9,8.09h5.9Z" fill="#002f7c"/>
    <path d="M216.84,417.76a8.13,8.13,0,0,0,3.49.82c3.86,0,6.14-2.23,6.34-5.83a5.35,5.35,0,0,1-4.66,2.17,6.43,6.43,0,0,1-6.71-6.14v-.41c0-4,3.22-6.8,7.37-6.8s7.74,2.95,7.74,9.14c0,7.05-3.44,11.2-10,11.2a9.55,9.55,0,0,1-4.51-1.07Zm5.75-12.94a3.46,3.46,0,1,0,3.58,3.44,3.42,3.42,0,0,0-3.42-3.44Z" fill="#002f7c"/>
  </g>
  <g>
    <path d="M269.77,266.29l5.29-4.68h-8.75v-3.3h13.62v3.14l-5.2,4.48a5.79,5.79,0,0,1,5.75,5.83v.09c0,3.36-2.67,6.39-7.35,6.39-4.51,0-7.21-2.92-7.46-6.17l3.69-.74A3.64,3.64,0,0,0,273,275h.11c2.26,0,3.53-1.43,3.53-3.14a3.12,3.12,0,0,0-3.06-3.17,2.17,2.17,0,0,0-.36,0,4.34,4.34,0,0,0-1.7.38Z" fill="#002f7c"/>
    <path d="M284.87,273a2.51,2.51,0,1,1-2.51,2.51h0A2.52,2.52,0,0,1,284.87,273Z" fill="#002f7c"/>
    <path d="M292.39,271.5a3.63,3.63,0,0,0,3.79,3.46,3.33,3.33,0,0,0,3.54-3.1,2.62,2.62,0,0,0,0-.28,3.37,3.37,0,0,0-3.26-3.48h-.34a4.15,4.15,0,0,0-3.17,1.35c-.57-.22-3-1-3.55-1.27l2.37-9.88h10.76v3.3h-8.17l-1.13,4.65A5.6,5.6,0,0,1,296.9,265c3.91,0,6.66,2.36,6.66,6.49,0,3.63-2.78,6.72-7.38,6.72-4.24,0-7.1-2.81-7.37-5.89Z" fill="#002f7c"/>
    <path d="M308.33,271.5a3.65,3.65,0,0,0,3.8,3.46,3.33,3.33,0,0,0,3.54-3.1,2.62,2.62,0,0,0,0-.28,3.37,3.37,0,0,0-3.26-3.48h-.34a4.15,4.15,0,0,0-3.17,1.35c-.58-.22-3-1-3.55-1.27l2.37-9.88h10.76v3.3h-8.17l-1.13,4.65a5.65,5.65,0,0,1,3.66-1.23c3.91,0,6.66,2.36,6.66,6.49,0,3.63-2.78,6.72-7.38,6.72-4.24,0-7.1-2.81-7.37-5.89Z" fill="#002f7c"/>
  </g>
  <g>
    <path d="M374.2,478a25.45,25.45,0,0,0,10.51,8.45,7.28,7.28,0,0,0-1.37,1.56,30.34,30.34,0,0,1-10.13-8.25,38,38,0,0,1-10.3,8.55,6.64,6.64,0,0,0-1.12-1.56,31.68,31.68,0,0,0,9.29-7h-4.41V478Zm-.1,19.57h9.57v1.69H362.81v-1.69h9.39v-4.14h-6.94V491.8h6.94V488h-5.88v-1.66H380.1V488h-6v3.77h7v1.63h-7Z" fill="#4c4948"/>
    <path d="M395,494.09c-2.75.86-5.68,1.78-7.91,2.52l-.39-1.78c.89-.25,2-.57,3.24-.94v-6.81H387.2v-1.74H390V480h-3v-1.73h7.55V480h-2.84v5.38h2.5v1.74h-2.5v6.29l3-1Zm14.07-9.27a54.86,54.86,0,0,1-4.31,5.33,14.16,14.16,0,0,0,5,5.87,4.21,4.21,0,0,0-1.16,1.39A15.73,15.73,0,0,1,403,490v6.94c0,1.11-.29,1.63-1,1.93a9.82,9.82,0,0,1-3.77.4,7.16,7.16,0,0,0-.67-1.79c1.44,0,2.7,0,3.07,0s.55-.14.55-.56V491c-2,2-4.14,4.09-5.82,5.67l-1.14-1.58c1.68-1.39,4.41-3.82,7-6.12v-6.44h-6v-1.71h6v-4.29H403v4.29h6.49v1.71H403v.89a30.7,30.7,0,0,0,1.22,5.18,35.79,35.79,0,0,0,3.32-4.69ZM397,484.1a19.78,19.78,0,0,1,2.7,4.59l-1.51.71a21.19,21.19,0,0,0-2.63-4.63Zm10.11-3.57a14.55,14.55,0,0,0-2.93-2.72l1.07-1a18,18,0,0,1,3,2.58Z" fill="#4c4948"/>
    <path d="M433.86,479.2v1.58H412.28V479.2h10.14c-.23-.72-.52-1.56-.77-2.25l1.78-.43c.35.85.72,1.89,1,2.68Zm-.79,18.08c0,.89-.23,1.27-.9,1.51a10.83,10.83,0,0,1-3.26.23,5.76,5.76,0,0,0-.6-1.37c1.07.06,2.21,0,2.5,0s.42-.1.42-.4V490H415v9.19h-1.78V488.46h19.89Zm-2.68-15.11v5H416v-5Zm-2.23,14.39h-8.72v1.22h-1.71v-6.29h10.43Zm.35-13H417.83v2.22h10.68Zm-9.07,9.33v2.31h7.06v-2.31Z" fill="#4c4948"/>
    <path d="M445.81,482.32h-8.89v-1.51h8.89Zm-7.92,1.74h7v1.46h-7Zm0,3.22h7v1.46h-7Zm6.93,10.45H439.4v1.16h-1.51v-8.32h6.93Zm-5.42-5.63v4.09h3.91V492.1Zm1.83-11.56a22.92,22.92,0,0,0-1.71-3.3l1.31-.74a24.46,24.46,0,0,1,1.81,3.19Zm18.21,9.81h-5.82v8.87h-1.79v-8.87h-6v-1.74h6v-8.89h-5.07V478h12.18v1.73h-5.32v8.89h5.82Zm-10.65-9.27a31.54,31.54,0,0,1,1.36,6.07l-1.58.4a28.94,28.94,0,0,0-1.29-6.1Zm6.31,6a43,43,0,0,0,1.61-6.22l1.77.45c-.6,2.08-1.34,4.61-2,6.19Z" fill="#4c4948"/>
    <path d="M464.69,479.94a15.37,15.37,0,0,1-2.45,2.95,9,9,0,0,0-1.32-1.22,14.48,14.48,0,0,0,3.82-5.27l1.64.44c-.23.5-.45,1-.7,1.49h6.37v1.61h-4.63a26.27,26.27,0,0,1,2.37,2.23l-1.21,1.09a19.21,19.21,0,0,0-2.58-2.6l.9-.72Zm13.43,11.57h4.93v1.56h-4.93v4.19c0,1.06-.28,1.48-1.09,1.71a19.19,19.19,0,0,1-4.41.25,5.75,5.75,0,0,0-.5-1.57c1.66.08,3.17.08,3.59.05s.55-.15.55-.49v-4.14H461.32v-1.56h14.94v-1.74h1.86Zm5.37-13.16V480H478a21.21,21.21,0,0,1,2.31,2.43L479,483.5a16.45,16.45,0,0,0-2.35-2.65l1.09-.85h-2.43a16.73,16.73,0,0,1-2.08,3l-.22-.2V484h9.06v1.61h-9.06v2.21h7.68v1.49H463.48v-1.49h7.75v-2.21h-9V483.9h9v-1.53h1.39a7.3,7.3,0,0,0-.72-.52,13,13,0,0,0,3.1-5.45l1.71.39a11.23,11.23,0,0,1-.57,1.56Zm-16.77,14.94a40.83,40.83,0,0,1,4.21,3.67l-1.36,1.09a41.46,41.46,0,0,0-4.16-3.79Z" fill="#4c4948"/>
    <path d="M492.85,477a36.51,36.51,0,0,1-2.41,5v16.87h-1.78V484.82a26.73,26.73,0,0,1-2.53,3.08,11.19,11.19,0,0,0-1.11-1.69,27.62,27.62,0,0,0,6.14-9.74ZM499,495.8a20.34,20.34,0,0,1-6,3.39,10,10,0,0,0-1.38-1.38,18,18,0,0,0,5.57-2.66Zm.22-16.68h-6.07v-1.28h6.07v-1.37h1.86v1.37h6.29v1.28h-6.29v1.22h5.6v1.24h-5.6v1.31h7.06v1.34h-16v-1.34h7.16v-1.31h-5.45v-1.24h5.45ZM494,494.76v-9.32h12.56v9.32Zm1.79-6.57h9v-1.51h-9Zm0,2.63h9v-1.54h-9Zm0,2.65h9v-1.56h-9Zm7.75,1.56a37.73,37.73,0,0,1,4.91,3.17l-1.83,1a30.81,30.81,0,0,0-4.91-3.42Z" fill="#4c4948"/>
    <path d="M519,489l-3.1.94V497c0,1.07-.25,1.54-.89,1.86a8.61,8.61,0,0,1-3.27.32,7.47,7.47,0,0,0-.57-1.71h2.45c.3,0,.47-.1.47-.47v-6.54l-3.34,1-.55-1.81c1.07-.27,2.43-.64,3.89-1.06v-5.23h-3.52V481.6h3.52v-5h1.81v5h2.8v1.76h-2.8V488c.94-.24,1.91-.54,2.85-.84Zm4.48-2.65c-2.43,0-3.2-.77-3.2-2.9V476.7h1.81v3h10v1.61h-10v2.18c0,.92.28,1.26,1.36,1.26H530a19,19,0,0,0,2.72-.17c.08.5.15,1.19.22,1.61a17,17,0,0,1-2.85.15Zm-3.17,2.1H531.9v10.71h-1.8v-1h-8v1.14h-1.76Zm1.76,1.59v2.45h8V490Zm8,6.56V494h-8v2.6Z" fill="#4c4948"/>
    <path d="M546.26,492.72a5.36,5.36,0,0,1-2.13,3.28,21.87,21.87,0,0,1,2.85,1.46l-1.21,1.06a30.86,30.86,0,0,0-3-1.61,25.26,25.26,0,0,1-6.94,2.13,5.41,5.41,0,0,0-.77-1.23,25.54,25.54,0,0,0,6-1.64,28.93,28.93,0,0,0-3.82-1.36,20.51,20.51,0,0,0,1.26-1.64l-2.92.15-.17-1.36c1.11,0,2.5-.1,4-.15.37-.67.77-1.31,1.12-2h-4v-4h4.68v-1h-4v-2.68h-1.66v-1.41h1.66v-2.53h4v-1.73h1.46v1.73h4.21v2.53h1.69v1.41h-1.69v2.68h-4.21v1h4.81v4h-5.23a18.46,18.46,0,0,1-1,1.86c1.21,0,2.48-.12,3.76-.2v-1.16h1.51v1.09l1.24-.08v1.29ZM538,488.61h3.1v-1.53H538Zm.69-9.14v1.32h2.41v-1.32Zm2.41,4V482h-2.4v1.49Zm-.87,9.54c-.25.4-.52.76-.77,1.11,1,.33,2.09.72,3.1,1.14a4.74,4.74,0,0,0,2.08-2.48Zm2.33-13.58v1.32h2.58v-1.32Zm2.58,4V482h-2.58v1.49ZM542.56,487v1.53h3.17V487ZM556,482.76a35.23,35.23,0,0,1-2.26,9.49A12.17,12.17,0,0,0,558,497.4a5.8,5.8,0,0,0-1.11,1.31A12.37,12.37,0,0,1,553,494a14.78,14.78,0,0,1-4.48,5.11,5.71,5.71,0,0,0-1-1.39,12.87,12.87,0,0,0,4.65-5.57,33.84,33.84,0,0,1-1.81-6.55,15.23,15.23,0,0,1-1.31,2.73,14.83,14.83,0,0,0-1.26-1.12c1.63-2.6,2.6-6.61,3.17-10.67l1.56.24c-.2,1.44-.47,2.9-.79,4.29h6v1.66Zm-4.76,0a41.81,41.81,0,0,0,1.66,7.33,35.1,35.1,0,0,0,1.44-7.33Z" fill="#4c4948"/>
  </g>
  <rect x="371.62" y="419.44" width="74.77" height="35.08" fill="#0068b6"/>
  <rect x="459.6" y="236.4" width="74.77" height="218.12" fill="#f5ab18"/>
  <g>
    <path d="M380.79,393a7.75,7.75,0,0,1,12.58,0,14.81,14.81,0,0,1,0,13.9,7.75,7.75,0,0,1-12.58,0A15,15,0,0,1,380.79,393Zm3.3,12.25a3.71,3.71,0,0,0,5.2.8,3.38,3.38,0,0,0,.8-.8,12,12,0,0,0,0-10.57,3.7,3.7,0,0,0-5.17-.83,3.63,3.63,0,0,0-.83.83A12.17,12.17,0,0,0,384.09,405.25Z" fill="#002f7c"/>
    <path d="M399.49,404.92a2.51,2.51,0,1,1-2.5,2.52v0A2.51,2.51,0,0,1,399.49,404.92Z" fill="#002f7c"/>
    <path d="M403.87,404.51a5.07,5.07,0,0,1,3.5-4.76,4.77,4.77,0,0,1-3.06-4.41c0-3.25,2.89-5.53,6.83-5.53s6.85,2.28,6.85,5.53a4.8,4.8,0,0,1-3.08,4.41,5.09,5.09,0,0,1,3.52,4.76c0,3.25-2.83,5.64-7.29,5.64S403.87,407.76,403.87,404.51Zm10.79-.39c0-1.54-1.21-2.92-3.52-2.92s-3.5,1.38-3.5,2.92,1.24,2.86,3.5,2.86S414.66,405.64,414.66,404.12Zm-.44-8.53c0-1.41-1.16-2.62-3.08-2.62a2.76,2.76,0,0,0-3.05,2.44c0,.06,0,.12,0,.18a2.82,2.82,0,0,0,2.88,2.76h.18A2.85,2.85,0,0,0,414.22,395.59Z" fill="#002f7c"/>
    <path d="M424.09,398.2l5.28-4.67h-8.75v-3.31h13.62v3.14l-5.2,4.49a5.77,5.77,0,0,1,5.75,5.79v.12c0,3.36-2.67,6.39-7.35,6.39-4.51,0-7.21-2.92-7.45-6.17l3.68-.74a3.66,3.66,0,0,0,3.68,3.64h.07c2.26,0,3.52-1.44,3.52-3.14a3.11,3.11,0,0,0-3.06-3.18,2.08,2.08,0,0,0-.35,0,4.23,4.23,0,0,0-1.71.39Z" fill="#002f7c"/>
  </g>
  <g>
    <path d="M470.11,218.42l8.23-11.24h4.82v12h3.22v3.33h-3.22v4.21h-3.77v-4.21h-9.28Zm9.28-7.35-5.89,8.09h5.89Z" fill="#002f7c"/>
    <path d="M490.25,221.88a2.51,2.51,0,1,1-2.51,2.51A2.53,2.53,0,0,1,490.25,221.88Z" fill="#002f7c"/>
    <path d="M508.25,210.82a8.4,8.4,0,0,0-3.27-.75,6.28,6.28,0,0,0-6.58,6v0a5.49,5.49,0,0,1,4.87-2.29c3.91,0,6.6,2.53,6.6,6.52s-3.27,6.8-7.45,6.8-7.82-2.94-7.82-9c0-7,4.4-11.37,10.6-11.37a8,8,0,0,1,4.13,1Zm-5.83,13.07a3.44,3.44,0,0,0,3.65-3.23,1.93,1.93,0,0,0,0-.24,3.48,3.48,0,0,0-3.46-3.52h-.2a3.5,3.5,0,0,0,0,7Z" fill="#002f7c"/>
    <path d="M525.52,210.46c-1.57,1.29-7,6.27-7.92,16.24h-3.94a24.46,24.46,0,0,1,7.49-16.21H510.88v-3.31h14.64Z" fill="#002f7c"/>
  </g>
  <g>
    <path d="M630.14,496.32V498H608v-1.68h7.36v-4.44h-5.57v-8.27h5.57v-3.87h-6.69V478h20.84v1.71H622.6v3.84h5.69v8.28H622.6v4.44Zm-13-6.05v6.05h3.67v-6.07h5.63v-5.08h-5.63v-5.43h-3.69v5.48h-5.55v5Z" fill="#4c4948"/>
    <path d="M639.89,477a35.33,35.33,0,0,1-2.4,5v16.87h-1.78V484.82a29.78,29.78,0,0,1-2.53,3.08,11.25,11.25,0,0,0-1.12-1.69,27.79,27.79,0,0,0,6.15-9.74Zm6.19,18.83a20.26,20.26,0,0,1-5.94,3.39,11.32,11.32,0,0,0-1.39-1.38,18,18,0,0,0,5.58-2.66Zm.23-16.68h-6.07v-1.28h6.07V476.5h1.86v1.37h6.29v1.28h-6.29v1.22h5.59v1.24h-5.59v1.31h7.06v1.34H639.15v-1.34h7.16v-1.31h-5.45v-1.24h5.45Zm-5.23,15.64v-9.32h12.56v9.32Zm1.79-6.57h9v-1.51h-9Zm0,2.63h9v-1.54h-9Zm0,2.65h9v-1.56h-9Zm7.75,1.56a37.73,37.73,0,0,1,4.91,3.17l-1.84,1a30.72,30.72,0,0,0-4.9-3.42Z" fill="#4c4948"/>
    <path d="M666,488.81l-3.1.94v7.11c0,1.07-.24,1.54-.89,1.86a8.61,8.61,0,0,1-3.27.32,6.49,6.49,0,0,0-.57-1.71h2.46c.3,0,.47-.1.47-.47v-6.54c-1.22.35-2.36.7-3.35,1l-.54-1.8c1.06-.28,2.43-.65,3.89-1.07v-5.23h-3.52v-1.76h3.52v-5h1.8v5h2.81v1.76H662.9v4.69c1-.25,1.91-.55,2.85-.85Zm4.49-2.65c-2.43,0-3.2-.77-3.2-2.9v-6.71h1.81v3h10v1.61h-10v2.18c0,.92.27,1.27,1.36,1.27H677a17.8,17.8,0,0,0,2.73-.18c.07.5.15,1.19.22,1.61a17,17,0,0,1-2.85.15Zm-3.17,2.1H679V499h-1.81v-1h-8v1.14h-1.75Zm1.75,1.59v2.45h8v-2.45Zm8,6.57v-2.61h-8v2.61Z" fill="#4c4948"/>
    <path d="M693.31,492.72a5.45,5.45,0,0,1-2.13,3.28,23.92,23.92,0,0,1,2.85,1.46l-1.22,1.06a30.86,30.86,0,0,0-3-1.61,25.26,25.26,0,0,1-6.94,2.13,5.41,5.41,0,0,0-.77-1.23,25.54,25.54,0,0,0,6-1.64,28.79,28.79,0,0,0-3.81-1.36c.39-.5.84-1,1.26-1.64l-2.93.15-.17-1.36c1.12,0,2.5-.1,4-.15.38-.67.77-1.31,1.12-2h-4v-4h4.69v-1h-4v-2.68h-1.65v-1.41h1.65v-2.53h4v-1.73h1.46v1.73h4.21v2.53h1.68v1.41h-1.68v2.68h-4.21v1h4.8v4h-5.23a16.64,16.64,0,0,1-1,1.86c1.21,0,2.47-.12,3.76-.2v-1.16h1.51v1.09l1.24-.08v1.29Zm-8.25-4.11h3.1v-1.53h-3.1Zm.69-9.14v1.32h2.41v-1.32Zm2.41,4V482h-2.41v1.49Zm-.87,9.54c-.25.4-.52.76-.77,1.11,1,.33,2.08.72,3.1,1.14a4.83,4.83,0,0,0,2.08-2.48Zm2.33-13.58v1.32h2.57v-1.32Zm2.57,4V482h-2.57v1.49ZM689.62,487v1.53h3.17V487Zm13.47-4.24a35.6,35.6,0,0,1-2.25,9.49A12.22,12.22,0,0,0,705,497.4a6.07,6.07,0,0,0-1.11,1.31A12.26,12.26,0,0,1,700,494a14.78,14.78,0,0,1-4.48,5.11,5.71,5.71,0,0,0-1-1.39,12.84,12.84,0,0,0,4.66-5.57,33.84,33.84,0,0,1-1.81-6.55,16.3,16.3,0,0,1-1.31,2.73,15,15,0,0,0-1.27-1.12c1.64-2.6,2.6-6.61,3.18-10.67l1.56.24c-.2,1.44-.48,2.9-.8,4.29h6v1.66Zm-4.75,0a40.09,40.09,0,0,0,1.66,7.33,34.45,34.45,0,0,0,1.43-7.33Z" fill="#4c4948"/>
  </g>
  <rect x="575.68" y="272.13" width="74.77" height="182.39" fill="#0068b6"/>
  <rect x="663.66" y="336.15" width="74.78" height="118.37" fill="#f5ab18"/>
  <g>
    <path d="M587.14,250.9l5.28-4.68h-8.75v-3.31H597.3v3.14l-5.21,4.49a5.78,5.78,0,0,1,5.75,5.81v.11c0,3.36-2.66,6.38-7.34,6.38-4.52,0-7.22-2.91-7.46-6.16l3.69-.74a3.64,3.64,0,0,0,3.67,3.63h.07c2.26,0,3.52-1.43,3.52-3.14a3.1,3.1,0,0,0-3-3.17,2.26,2.26,0,0,0-.37,0,4.22,4.22,0,0,0-1.71.38Z" fill="#002f7c"/>
    <path d="M602.23,257.61a2.51,2.51,0,1,1-2.5,2.52h0A2.52,2.52,0,0,1,602.23,257.61Z" fill="#002f7c"/>
    <path d="M607.93,258.69a8.17,8.17,0,0,0,3.5.82c3.85,0,6.14-2.23,6.33-5.83a5.32,5.32,0,0,1-4.65,2.17,6.42,6.42,0,0,1-6.71-6.13c0-.14,0-.28,0-.42,0-4,3.22-6.8,7.38-6.8s7.73,2.95,7.73,9.14c0,7.05-3.44,11.2-10,11.2a9.61,9.61,0,0,1-4.52-1.07Zm5.76-12.94a3.46,3.46,0,1,0,3.57,3.44,3.42,3.42,0,0,0-3.4-3.44Z" fill="#002f7c"/>
    <path d="M622.89,254.15l8.24-11.24h4.81v12h3.22v3.33h-3.22v4.21h-3.77v-4.21h-9.28Zm9.28-7.35-5.89,8.09h5.89Z" fill="#002f7c"/>
  </g>
  <g>
    <path d="M674.55,314.17a7,7,0,0,1-.11-1.21c0-3.38,2.53-6.44,7-6.44s6.91,2.84,6.91,6.17a7,7,0,0,1-3.74,6.05l-3.8,2.34a4,4,0,0,0-1.85,2h9.5v3.33H674.27a8.77,8.77,0,0,1,4.63-8.15l3.19-2c1.68-1.05,2.4-2.15,2.4-3.55a2.85,2.85,0,0,0-2.77-2.91l-.37,0c-2.2,0-3.25,1.51-3.25,3.44a6.24,6.24,0,0,0,.11,1.05Z" fill="#002f7c"/>
    <path d="M692.89,321.63a2.51,2.51,0,1,1-2.51,2.51A2.53,2.53,0,0,1,692.89,321.63Z" fill="#002f7c"/>
    <path d="M696.8,318.17l8.2-11.24h4.82v12H713v3.33h-3.22v4.21h-3.77v-4.21H696.8Zm9.28-7.35-5.89,8.09h5.89Z" fill="#002f7c"/>
    <path d="M718.23,314.91l5.28-4.67h-8.75v-3.31h13.63v3.14l-5.21,4.49a5.77,5.77,0,0,1,5.75,5.79v.13c0,3.35-2.67,6.38-7.35,6.38-4.51,0-7.21-2.92-7.45-6.16l3.69-.75a3.64,3.64,0,0,0,3.66,3.64h.08c2.26,0,3.52-1.43,3.52-3.14a3.11,3.11,0,0,0-3.06-3.18,2.08,2.08,0,0,0-.35,0,4.23,4.23,0,0,0-1.71.39Z" fill="#002f7c"/>
  </g>
  <g>
    <path d="M783.26,492.35a20.07,20.07,0,0,1-2.55,4.93,12.83,12.83,0,0,0-1.29-.89,13.89,13.89,0,0,0,2.33-4.46Zm3-1.73v8.6h-1.81v-8.6h-4.93V489h4.93v-2.6h-5v-1.56h6.84a36,36,0,0,0,1.34-3.91l1.68.34c-.45,1.19-.91,2.53-1.39,3.57h3.15v1.56H786.3V489h4.49v1.59Zm4.39-9.81H779.84v-1.54h4.85c-.32-.74-.74-1.58-1.09-2.25l1.79-.47a19.9,19.9,0,0,1,1.39,2.72h3.91Zm-8.3,4a17,17,0,0,0-.94-3.44l1.46-.35a12.35,12.35,0,0,1,1,3.37Zm6.29,7a25.93,25.93,0,0,1,2.08,3.89l-1.31.74a27.15,27.15,0,0,0-2-4Zm13.21-5.08h-2.73v12.49h-1.78V486.7H794v.87c0,3.54-.32,8.4-2.57,11.62a6.16,6.16,0,0,0-1.42-1.12c2.09-3,2.28-7.21,2.28-10.5v-8.52a38.71,38.71,0,0,0,7.71-1.94l1.49,1.37a39.26,39.26,0,0,1-7.49,1.78V485h7.91Z" fill="#4c4948"/>
    <path d="M826.65,491.68v1.71H804.43v-1.71h2L806,478.5a42.1,42.1,0,0,0,4.24-1.55l.87,1.58a29.75,29.75,0,0,1-3.45,1l.08,2.92h2.8V484H807.8l.1,3.07h2.77v1.54h-2.73l.08,3h3.24V477.89h8.55v13.79h3.3c0-.89.1-1.9.14-3h-2.79v-1.53h2.84c0-1,.08-2.06.1-3.08h-2.8v-1.53h2.83c0-1.14.05-2.26.05-3.3h-3v-1.53h4.66c0,4.33-.22,10.18-.42,13.94ZM813.07,495a38.9,38.9,0,0,1-7.38,4.24,9.82,9.82,0,0,0-1.09-1.39,27.44,27.44,0,0,0,6.89-4Zm-.42-3.3h5.72V479.35h-5.72Zm4.93-10.6v1.26h-4.23V481.1Zm-3.91,2.9h3.76v5.7h-3.76Zm1,4.51h1.81v-3.32h-1.81Zm4.31,5.18a63.89,63.89,0,0,1,7.19,4L825,499.11a55.82,55.82,0,0,0-7-4.12Z" fill="#4c4948"/>
    <path d="M842.1,477.88c-.18.28-.38.52-.57.8a27.82,27.82,0,0,0,10.55,7.4,6,6,0,0,0-1.19,1.56A30,30,0,0,1,840.54,480a29.12,29.12,0,0,1-10.26,7.66,8.48,8.48,0,0,0-1.26-1.54,25.15,25.15,0,0,0,11.42-9Zm-.45,19.65h9.46v1.69h-21v-1.69h3.12v-9.14H835v9.14h4.65V484.05h1.91v5.68h7.16v1.66H841.6Z" fill="#4c4948"/>
    <path d="M863.29,495.23a23.15,23.15,0,0,1-7.6,3.19,6.77,6.77,0,0,0-1.12-1.38,21.9,21.9,0,0,0,7.33-2.46Zm12.93-3.45v1.56h-9.93v5.88h-1.81v-5.88H854.7v-1.56h9.78v-1.85H857v-1.42h7.46v-1.78h-8.72v-1.49h5.35a10.57,10.57,0,0,0-1.26-2.37l1.31-.35h-6.39V481h4a19.7,19.7,0,0,0-2-3.59l1.57-.54a15.53,15.53,0,0,1,2.1,3.64l-1.24.49h3v-4.4H864V481h3v-4.4h1.76V481h3l-1-.32a20.76,20.76,0,0,0,1.91-3.76l1.88.51c-.69,1.27-1.51,2.63-2.15,3.57h3.82v1.54h-6.45l1.61.44a27.09,27.09,0,0,1-1.71,2.28h5.68v1.49h-9v1.78H874V490h-7.75v1.85Zm-14.59-9.26a10,10,0,0,1,1.31,2.45l-1,.27h6.84l-.87-.27a20.83,20.83,0,0,0,1.46-2.45ZM869,494.46c2.33.77,5.47,2,7.18,2.75L875,498.37c-1.64-.79-4.79-2.05-7.14-2.92Z" fill="#4c4948"/>
    <path d="M884.44,477a36.51,36.51,0,0,1-2.41,5v16.87h-1.78V484.82a26.73,26.73,0,0,1-2.53,3.08,11.19,11.19,0,0,0-1.11-1.69,27.62,27.62,0,0,0,6.14-9.74Zm6.19,18.83a20.34,20.34,0,0,1-6,3.39,10,10,0,0,0-1.38-1.38,18,18,0,0,0,5.57-2.66Zm.22-16.68h-6.07v-1.28h6.07V476.5h1.86v1.37H899v1.28h-6.29v1.22h5.6v1.24h-5.6v1.31h7.06v1.34H883.69v-1.34h7.16v-1.31H885.4v-1.24h5.45Zm-5.23,15.64v-9.32h12.57v9.32Zm1.79-6.57h9v-1.51h-9Zm0,2.63h9v-1.54h-9Zm0,2.65h9v-1.56h-9Zm7.75,1.56a37.73,37.73,0,0,1,4.91,3.17l-1.83,1a30.36,30.36,0,0,0-4.91-3.42Z" fill="#4c4948"/>
    <path d="M910.59,489l-3.1.94V497c0,1.07-.25,1.54-.89,1.86a8.61,8.61,0,0,1-3.27.32,7.47,7.47,0,0,0-.57-1.71h2.45c.3,0,.47-.1.47-.47v-6.54l-3.34,1-.55-1.81c1.07-.27,2.43-.64,3.89-1.06v-5.23h-3.52V481.6h3.52v-5h1.81v5h2.8v1.76h-2.8V488c.94-.24,1.91-.54,2.85-.84Zm4.48-2.65c-2.43,0-3.19-.77-3.19-2.9V476.7h1.8v3h10v1.61h-10v2.18c0,.92.28,1.26,1.37,1.26h6.49a19,19,0,0,0,2.72-.17c.08.5.15,1.19.23,1.61a17.09,17.09,0,0,1-2.86.15Zm-3.17,2.1h11.59v10.71h-1.8v-1h-8v1.14H911.9Zm1.76,1.59v2.45h8V490Zm8,6.56V494h-8v2.6Z" fill="#4c4948"/>
    <path d="M937.85,492.72a5.36,5.36,0,0,1-2.13,3.28,21.87,21.87,0,0,1,2.85,1.46l-1.21,1.06a31.67,31.67,0,0,0-3.05-1.61,25.26,25.26,0,0,1-6.94,2.13,5.41,5.41,0,0,0-.77-1.23,25.54,25.54,0,0,0,6-1.64,28.93,28.93,0,0,0-3.82-1.36,20.51,20.51,0,0,0,1.26-1.64l-2.92.15L927,492c1.11,0,2.5-.1,4-.15.37-.67.77-1.31,1.12-2h-4v-4h4.68v-1h-4v-2.68h-1.66v-1.41h1.66v-2.53h4v-1.73h1.46v1.73h4.21v2.53h1.69v1.41h-1.69v2.68h-4.21v1H939v4h-5.23a18.46,18.46,0,0,1-1,1.86c1.21,0,2.48-.12,3.76-.2v-1.16H938v1.09l1.24-.08v1.29Zm-8.25-4.11h3.1v-1.53h-3.1Zm.69-9.14v1.32h2.41v-1.32Zm2.41,4V482h-2.41v1.49Zm-.87,9.54c-.25.4-.52.76-.77,1.11,1,.33,2.09.72,3.1,1.14a4.7,4.7,0,0,0,2.08-2.48Zm2.33-13.58v1.32h2.58v-1.32Zm2.58,4V482h-2.58v1.49ZM934.16,487v1.53h3.17V487Zm13.48-4.24a35.23,35.23,0,0,1-2.26,9.49,12.17,12.17,0,0,0,4.19,5.15,5.8,5.8,0,0,0-1.11,1.31,12.37,12.37,0,0,1-3.9-4.68,14.78,14.78,0,0,1-4.48,5.11,5.71,5.71,0,0,0-1-1.39,12.87,12.87,0,0,0,4.65-5.57,33.84,33.84,0,0,1-1.81-6.55,15.23,15.23,0,0,1-1.31,2.73,14.83,14.83,0,0,0-1.26-1.12c1.63-2.6,2.6-6.61,3.17-10.67l1.56.24c-.2,1.44-.47,2.9-.79,4.29h6v1.66Zm-4.76,0a41.81,41.81,0,0,0,1.66,7.33,35.1,35.1,0,0,0,1.44-7.33Z" fill="#4c4948"/>
  </g>
  <rect x="781.1" y="256.45" width="74.77" height="198.07" fill="#0068b6"/>
  <rect x="869.07" y="294.32" width="74.77" height="160.2" fill="#f5ab18"/>
  <g>
    <path d="M787.31,238.47l8.23-11.23h4.81v12h3.23v3.33h-3.23v4.21h-3.76v-4.21h-9.28Zm9.28-7.35-5.89,8.09h5.89Z" fill="#002f7c"/>
    <path d="M807.44,241.93a2.51,2.51,0,1,1-2.51,2.51A2.53,2.53,0,0,1,807.44,241.93Z" fill="#002f7c"/>
    <path d="M813.55,230a7.75,7.75,0,0,1,12.58,0,14.77,14.77,0,0,1,0,13.91,7.75,7.75,0,0,1-12.58,0A15.06,15.06,0,0,1,813.55,230Zm3.31,12.25a3.69,3.69,0,0,0,5.15.85,3.61,3.61,0,0,0,.85-.85,11.9,11.9,0,0,0,0-10.57,3.71,3.71,0,0,0-5.18-.82,3.75,3.75,0,0,0-.82.82A12.17,12.17,0,0,0,816.86,242.25Z" fill="#002f7c"/>
    <path d="M829.28,238.47l8.24-11.23h4.81v12h3.22v3.33h-3.22v4.21h-3.77v-4.21h-9.28Zm9.28-7.35-5.89,8.09h5.89Z" fill="#002f7c"/>
  </g>
  <g>
    <path d="M883.39,273.09l5.28-4.67h-8.75v-3.31h13.63v3.14l-5.21,4.49a5.78,5.78,0,0,1,5.76,5.8v.11c0,3.36-2.67,6.39-7.35,6.39-4.52,0-7.22-2.92-7.46-6.17l3.69-.74a3.63,3.63,0,0,0,3.65,3.63h.09c2.26,0,3.52-1.43,3.52-3.14a3.12,3.12,0,0,0-3.07-3.17,1.93,1.93,0,0,0-.34,0,4.39,4.39,0,0,0-1.71.38Z" fill="#002f7c"/>
    <path d="M898.48,279.81a2.51,2.51,0,1,1-2.5,2.52v0A2.51,2.51,0,0,1,898.48,279.81Z" fill="#002f7c"/>
    <path d="M906.66,273.09l5.28-4.67h-8.75v-3.31h13.63v3.14l-5.21,4.49a5.78,5.78,0,0,1,5.76,5.8v.11c0,3.36-2.67,6.39-7.35,6.39-4.51,0-7.21-2.92-7.46-6.17l3.69-.74a3.64,3.64,0,0,0,3.67,3.63H910c2.26,0,3.52-1.43,3.52-3.14a3.12,3.12,0,0,0-3.07-3.17,1.93,1.93,0,0,0-.34,0,4.39,4.39,0,0,0-1.71.38Z" fill="#002f7c"/>
    <path d="M918.78,276.34,927,265.11h4.82v12H935v3.33h-3.22v4.22h-3.77v-4.22h-9.28Zm9.28-7.35-5.89,8.09h5.89Z" fill="#002f7c"/>
  </g>
  <g>
    <path d="M983.69,478a25.45,25.45,0,0,0,10.51,8.45,7.28,7.28,0,0,0-1.37,1.56,30.34,30.34,0,0,1-10.13-8.25,38,38,0,0,1-10.3,8.55,6.64,6.64,0,0,0-1.12-1.56,31.68,31.68,0,0,0,9.29-7h-4.41V478Zm-.1,19.57h9.57v1.69H972.3v-1.69h9.39v-4.14h-6.94V491.8h6.94V488h-5.88v-1.66h13.78V488h-6v3.77h7v1.63h-7Z" fill="#4c4948"/>
    <path d="M1004.35,494.09c-2.75.86-5.68,1.78-7.91,2.52l-.39-1.78c.89-.25,2-.57,3.24-.94v-6.81h-2.77v-1.74h2.77V480h-3v-1.73h7.55V480H1001v5.38h2.5v1.74H1001v6.29l3-1Zm14.07-9.27a58,58,0,0,1-4.31,5.33,14.16,14.16,0,0,0,5,5.87,4.37,4.37,0,0,0-1.17,1.39,15.76,15.76,0,0,1-5.72-7.46v6.94c0,1.11-.29,1.63-1,1.93a9.82,9.82,0,0,1-3.77.4,7.74,7.74,0,0,0-.67-1.79c1.44.05,2.7,0,3.07,0s.55-.14.55-.56V491c-2,2-4.14,4.09-5.82,5.67l-1.14-1.58c1.68-1.39,4.41-3.82,7-6.12v-6.44h-6v-1.71h6v-4.29h1.78v4.29h6.49v1.71h-6.49v.89a30.7,30.7,0,0,0,1.22,5.18,35.79,35.79,0,0,0,3.32-4.69Zm-12.14-.72a19.78,19.78,0,0,1,2.7,4.59l-1.51.71a21.19,21.19,0,0,0-2.63-4.63Zm10.11-3.57a14.55,14.55,0,0,0-2.93-2.72l1.07-1a18,18,0,0,1,3,2.58Z" fill="#4c4948"/>
    <path d="M1043.26,479.2v1.58h-21.58V479.2h10.13c-.22-.72-.52-1.56-.77-2.25l1.78-.43c.35.85.73,1.89,1,2.68Zm-.8,18.08c0,.89-.22,1.27-.89,1.51a10.87,10.87,0,0,1-3.27.23,6.16,6.16,0,0,0-.59-1.37c1.06.06,2.2,0,2.5,0s.42-.1.42-.4V490h-16.28v9.19h-1.78V488.46h19.89Zm-2.67-15.11v5h-14.37v-5Zm-2.23,14.39h-8.72v1.22h-1.71v-6.29h10.43Zm.35-13h-10.68v2.22h10.68Zm-9.07,9.33v2.31h7.06v-2.31Z" fill="#4c4948"/>
    <path d="M1052.67,476.94h1.81v22.28h-1.81v-6.87c-4.5,1.66-5.22,2-5.69,2.41a8,8,0,0,0-.75-1.69,1.82,1.82,0,0,0,.85-1.66V479.3h1.8v12.56l3.79-1.27Zm13.7,6.15a28.33,28.33,0,0,1-3.29,9.76,14.51,14.51,0,0,0,5.35,4.73,6.11,6.11,0,0,0-1.26,1.51,15.68,15.68,0,0,1-5.11-4.68,17.52,17.52,0,0,1-5.67,4.81,8.42,8.42,0,0,0-1.21-1.52,15.24,15.24,0,0,0,5.84-4.9,29.7,29.7,0,0,1-3-7.06,17.11,17.11,0,0,1-2,3.17,12.84,12.84,0,0,0-1.31-1.54c2.13-2.5,3.42-6.54,4.11-10.82l1.88.32c-.27,1.53-.64,3.05-1,4.48h8.48v1.74Zm-7.35.37a30.72,30.72,0,0,0,3,7.68,26.46,26.46,0,0,0,2.51-8.05h-5.36Z" fill="#4c4948"/>
    <path d="M1093.38,497.55v1.67H1071v-1.67h3.19v-7.68h16.13v7.68Zm-.5-13.72h-21.42v-1.66h6.36a19.41,19.41,0,0,0-2.48-4.09l1.57-.69a20.76,20.76,0,0,1,2.62,4.11l-1.31.67h8l-1.31-.5a25,25,0,0,0,2.57-4.31l1.84.57a37.83,37.83,0,0,1-2.85,4.24h6.46Zm-13.22,2a35.94,35.94,0,0,1-7,4.36,8.13,8.13,0,0,0-1.11-1.44,26.66,26.66,0,0,0,6.81-3.81Zm-3.8,11.74h3.1V491.5h-3.1Zm4.78-6.07v6.07h3.13V491.5Zm11.28-1.81a59.73,59.73,0,0,0-7.48-3.36l.89-1.32a66.44,66.44,0,0,1,7.53,3.2Zm-6.47,1.81v6.07h3.15V491.5Z" fill="#4c4948"/>
    <path d="M1103.15,477a35.33,35.33,0,0,1-2.4,5v16.87H1099V484.82a26.73,26.73,0,0,1-2.53,3.08,11.72,11.72,0,0,0-1.11-1.69,27.62,27.62,0,0,0,6.14-9.74Zm6.2,18.83a20.44,20.44,0,0,1-5.95,3.39,10,10,0,0,0-1.38-1.38,18,18,0,0,0,5.57-2.66Zm.22-16.68h-6.07v-1.28h6.07V476.5h1.86v1.37h6.29v1.28h-6.29v1.22h5.6v1.24h-5.6v1.31h7.06v1.34h-16.08v-1.34h7.16v-1.31h-5.45v-1.24h5.45Zm-5.23,15.64v-9.32h12.57v9.32Zm1.79-6.57h9v-1.51h-9Zm0,2.63h9v-1.54h-9Zm0,2.65h9v-1.56h-9Zm7.75,1.56a37.73,37.73,0,0,1,4.91,3.17l-1.83,1a31.47,31.47,0,0,0-4.91-3.42Z" fill="#4c4948"/>
    <path d="M1129.37,489l-3.1.94V497c0,1.07-.25,1.54-.89,1.86a8.61,8.61,0,0,1-3.27.32,6.49,6.49,0,0,0-.57-1.71H1124c.29,0,.48-.1.48-.47v-6.54c-1.22.35-2.36.69-3.35,1l-.55-1.81c1.07-.27,2.43-.64,3.9-1.06v-5.23H1121V481.6h3.52v-5h1.8v5h2.8v1.76h-2.8V488c.94-.24,1.91-.54,2.85-.84Zm4.49-2.65c-2.43,0-3.2-.77-3.2-2.9V476.7h1.81v3h10v1.61h-10v2.18c0,.92.27,1.26,1.36,1.26h6.49a19,19,0,0,0,2.72-.17c.08.5.15,1.19.23,1.61a17,17,0,0,1-2.85.15Zm-3.18,2.1h11.6v10.71h-1.81v-1h-8v1.14h-1.76Zm1.76,1.59v2.45h8V490Zm8,6.56V494h-8v2.6Z" fill="#4c4948"/>
    <path d="M1156.55,492.72a5.36,5.36,0,0,1-2.13,3.28,21.87,21.87,0,0,1,2.85,1.46l-1.21,1.06a30.86,30.86,0,0,0-3-1.61,25.26,25.26,0,0,1-6.94,2.13,5.41,5.41,0,0,0-.77-1.23,25.54,25.54,0,0,0,6-1.64,28.93,28.93,0,0,0-3.82-1.36,20.51,20.51,0,0,0,1.26-1.64l-2.92.15-.17-1.36c1.11,0,2.5-.1,4-.15.37-.67.77-1.31,1.12-2h-4v-4h4.68v-1h-4v-2.68h-1.66v-1.41h1.66v-2.53h4v-1.73H1153v1.73h4.21v2.53h1.69v1.41h-1.69v2.68H1153v1h4.81v4h-5.23a18.46,18.46,0,0,1-1,1.86c1.21,0,2.47-.12,3.76-.2v-1.16h1.51v1.09l1.24-.08v1.29Zm-8.25-4.11h3.1v-1.53h-3.1Zm.69-9.14v1.32h2.41v-1.32Zm2.41,4V482H1149v1.49Zm-.87,9.54c-.25.4-.52.76-.77,1.11,1,.33,2.08.72,3.1,1.14a4.7,4.7,0,0,0,2.08-2.48Zm2.33-13.58v1.32h2.58v-1.32Zm2.58,4V482h-2.58v1.49Zm-2.58,3.57v1.53H1156V487Zm13.48-4.24a35.23,35.23,0,0,1-2.26,9.49,12.17,12.17,0,0,0,4.19,5.15,5.8,5.8,0,0,0-1.11,1.31,12.37,12.37,0,0,1-3.9-4.68,14.78,14.78,0,0,1-4.48,5.11,5.71,5.71,0,0,0-1-1.39,12.87,12.87,0,0,0,4.65-5.57,33.84,33.84,0,0,1-1.81-6.55,15.23,15.23,0,0,1-1.31,2.73,14.83,14.83,0,0,0-1.26-1.12c1.63-2.6,2.6-6.61,3.17-10.67l1.56.24c-.2,1.44-.47,2.9-.79,4.29h6v1.66Zm-4.76,0a41.81,41.81,0,0,0,1.66,7.33,35.1,35.1,0,0,0,1.44-7.33Z" fill="#4c4948"/>
  </g>
  <rect x="986.04" y="221.54" width="74.78" height="232.98" fill="#0068b6"/>
  <rect x="1074.02" y="178.39" width="74.77" height="276.13" fill="#f5ab18"/>
  <g>
    <path d="M996.46,206.16l8.24-11.24h4.81v12h3.22v3.33h-3.22v4.21h-3.77v-4.21h-9.28Zm9.28-7.35-5.89,8.09h5.89Z" fill="#002f7c"/>
    <path d="M1016.6,209.62a2.51,2.51,0,1,1-2.51,2.51A2.53,2.53,0,0,1,1016.6,209.62Z" fill="#002f7c"/>
    <path d="M1021,209.21a5.08,5.08,0,0,1,3.49-4.76,4.77,4.77,0,0,1-3-4.4c0-3.25,2.89-5.54,6.82-5.54s6.86,2.29,6.86,5.54a4.8,4.8,0,0,1-3.09,4.4,5.12,5.12,0,0,1,3.53,4.76c0,3.25-2.84,5.65-7.3,5.65S1021,212.46,1021,209.21Zm10.79-.38c0-1.55-1.21-2.92-3.53-2.92s-3.49,1.37-3.49,2.92,1.24,2.86,3.49,2.86,3.51-1.35,3.51-2.86Zm-.44-8.54c0-1.4-1.16-2.61-3.09-2.61a2.75,2.75,0,0,0-3,2.49s0,.08,0,.12a2.83,2.83,0,0,0,2.89,2.76h.11a2.84,2.84,0,0,0,3.07-2.76Z" fill="#002f7c"/>
    <path d="M1041.41,214.44V201.17h-4.68v-2.58c2.81-.09,4.77-1.63,5.15-3.67h3.3v19.52Z" fill="#002f7c"/>
  </g>
  <g>
    <path d="M1088.75,162.36a3.63,3.63,0,0,0,3.78,3.47h0a3.43,3.43,0,1,0,.31-6.85h-.37a4.15,4.15,0,0,0-3.17,1.35c-.57-.22-3-1.05-3.55-1.27l2.37-9.88h10.76v3.3h-8.17l-1.13,4.65a5.65,5.65,0,0,1,3.66-1.23c3.91,0,6.66,2.36,6.66,6.49,0,3.63-2.78,6.72-7.37,6.72-4.24,0-7.11-2.81-7.38-5.89Z" fill="#002f7c"/>
    <path d="M1104.06,163.88a2.51,2.51,0,1,1-2.5,2.52v0A2.51,2.51,0,0,1,1104.06,163.88Z" fill="#002f7c"/>
    <path d="M1122.42,152.45c-1.57,1.3-7,6.28-7.92,16.24h-3.94a24.5,24.5,0,0,1,7.49-16.21h-10.27v-3.3h14.64Z" fill="#002f7c"/>
    <path d="M1137,152.81a8.21,8.21,0,0,0-3.27-.74,6.29,6.29,0,0,0-6.58,6h0a5.52,5.52,0,0,1,4.87-2.29c3.91,0,6.61,2.54,6.61,6.53s-3.28,6.8-7.46,6.8-7.82-3-7.82-9c0-7,4.41-11.37,10.6-11.37a8,8,0,0,1,4.13,1Zm-5.83,13.08a3.44,3.44,0,0,0,3.65-3.23,1.93,1.93,0,0,0,0-.24,3.5,3.5,0,0,0-3.47-3.53h-.19a3.5,3.5,0,0,0,0,7Z" fill="#002f7c"/>
  </g>
  <g>
    <path d="M49.87,586.22c-.8,5.66-2.75,10.11-5.27,12.48a8,8,0,0,0-1.53-1.55c2.15-1.9,3.74-5.31,4.52-9.47H43.8v-1.86h4.43l.37-.09Zm4.65,7.92h3.67v1.77H54.52V598c0,1.17-.27,1.73-1.07,2a11.35,11.35,0,0,1-3.85.37,8.75,8.75,0,0,0-.75-2,20,20,0,0,0,3,0c.32-.07.53-.13.53-.46v-2.13h-3.8V594h3.85v-1.72H49.56v-1.75h2.87V589H50v-1.75h2.45v-1.84a17.86,17.86,0,0,0,4-2.46H46.7V581.1H58.48l.46-.09,1.42,1a22.62,22.62,0,0,1-5.84,4.3v1h2.3V589h-2.3v1.64h2.67v1.75H54.52Zm8.41-8.23c-1.06,1-2.37,2-3.48,2.85.73,3.52,2.11,6.71,4.28,8.33a7,7,0,0,0-1.44,1.72c-2.64-2.19-4-6.13-4.81-10.69a25.31,25.31,0,0,0,3.85-3.54Z" fill="#0068b6"/>
    <path d="M82.39,591.35a13.55,13.55,0,0,1-4.72,5.38,29,29,0,0,0,7.79,1.84,9.29,9.29,0,0,0-1.26,1.95A27.19,27.19,0,0,1,75.56,598a30.67,30.67,0,0,1-8.74,2.59,6.31,6.31,0,0,0-1.2-1.86,29.47,29.47,0,0,0,7.95-2,15,15,0,0,1-4-4.07l.4-.18H69v-1.9H80.61l.38-.07ZM68,591.22H66.11v-4.58h3.34A14.21,14.21,0,0,0,68.19,584l1.8-.51a12.05,12.05,0,0,1,1.41,2.77l-1.19.38H75a12.29,12.29,0,0,0-1-3.13l1.84-.39a12.45,12.45,0,0,1,1.11,3l-1.86.47h4.4A23.76,23.76,0,0,0,81.27,583l2.14.58c-.57,1-1.21,2.1-1.83,3H85v4.58H83v-2.77H68Zm16-9.32a119.8,119.8,0,0,1-17.22,1.66,5.94,5.94,0,0,0-.45-1.75,113.21,113.21,0,0,0,16.23-1.59ZM71.74,592.48a12.41,12.41,0,0,0,3.87,3.26,11,11,0,0,0,3.67-3.26Z" fill="#0068b6"/>
    <path d="M88.53,596.8H92.1V585.46H89.18v-1.61a10.11,10.11,0,0,0,3.54-1.24h1.92V596.8h3.19v2.1h-9.3Z" fill="#0068b6"/>
    <path d="M100,587.43c0-3.27,1.53-5.13,3.81-5.13s3.83,1.86,3.83,5.13-1.55,5.18-3.83,5.18S100,590.71,100,587.43Zm5.78,0c0-2.52-.82-3.63-2-3.63s-2,1.11-2,3.63.82,3.68,2,3.68,2-1.17,2-3.68Zm7.46-5.13h1.62l-9,16.89h-1.59ZM111.58,594c0-3.27,1.55-5.14,3.83-5.14s3.81,1.87,3.81,5.14-1.55,5.16-3.81,5.16S111.58,597.31,111.58,594Zm5.78,0c0-2.52-.82-3.63-2-3.63s-2,1.11-2,3.63.82,3.68,2,3.68S117.36,596.53,117.36,594Z" fill="#0068b6"/>
    <path d="M124.77,590.27a23.83,23.83,0,0,0-3.92-2.33l1.15-1.52a27.42,27.42,0,0,1,4,2.14Zm1.77,3.07c-1,2.31-2.24,5-3.37,7l-1.81-1.24a68,68,0,0,0,3.61-7Zm-.64-8.87a26.34,26.34,0,0,0-3.81-2.46l1.17-1.48a26.26,26.26,0,0,1,3.86,2.28Zm13.84,4.85a17,17,0,0,1-3.57,7,14.23,14.23,0,0,0,5.18,2.57,7.76,7.76,0,0,0-1.35,1.77,15.51,15.51,0,0,1-5.27-2.92,15.83,15.83,0,0,1-5,3A8.36,8.36,0,0,0,128.4,599a15,15,0,0,0,4.94-2.64,17.75,17.75,0,0,1-3.32-5.68h-.22c-.14,3.25-.71,7.23-2.75,10a6.9,6.9,0,0,0-1.75-1c2.33-3.08,2.55-7.46,2.55-10.65v-5.58h5.2v-3h2v3h4.29l.36-.07,1.48.38a29.76,29.76,0,0,1-1.84,4.54l-1.75-.51c.29-.64.62-1.53.93-2.41h-3.47v3.52h3l.4-.09Zm-9.92-4v3.52h3.23v-3.52Zm2.15,5.34a14.43,14.43,0,0,0,2.74,4.31,12.9,12.9,0,0,0,2.52-4.31Z" fill="#0068b6"/>
    <path d="M163,585.38v1c-.24,9.14-.44,12.28-1.15,13.24a2,2,0,0,1-1.57,1,15.56,15.56,0,0,1-2.73,0,5.55,5.55,0,0,0-.57-2c1,.09,1.92.09,2.32.09a.84.84,0,0,0,.8-.35c.49-.62.71-3.43.88-11.05h-2.61c-.29,5.89-1.28,10.58-5.09,13.51a6.76,6.76,0,0,0-1.49-1.53,3.9,3.9,0,0,0,.4-.31c-3.18.37-6.37.71-8.74.93l-.27-1.75c1.29-.09,2.88-.22,4.63-.38V596.1h-4v-1.51h4v-1.13h-4V586.8h4v-1.15h-4.56v-1.53h4.56v-1.24c-1.35.11-2.7.18-3.94.22a6.43,6.43,0,0,0-.49-1.48,68.91,68.91,0,0,0,9.5-1.09l1,1.55a39.18,39.18,0,0,1-4.17.62v1.42h4.48v1.29h2.32v-4.74h2v4.74Zm-17.49,4.09h2.28v-1.35h-2.28Zm2.28,2.61v-1.35h-2.28v1.35Zm1.88,5.49c1.37-.13,2.79-.26,4.19-.42,1.81-2.5,2.37-5.84,2.54-9.87h-2.34v-1.66h-4.39v1.15h4.12v6.66h-4.12v1.13h4.17v1.51h-4.17Zm2.37-8.1v-1.35h-2.37v1.35Zm-2.37,1.26v1.35H152v-1.35Z" fill="#0068b6"/>
    <path d="M46.39,617.3c-.13,2.74-.55,5.86-1.82,8a7.07,7.07,0,0,0-1.68-1.3c1.42-2.64,1.53-6.36,1.53-9.24V607a32.47,32.47,0,0,0,7.48-1.64l1.33,1.73a30.74,30.74,0,0,1-6.77,1.46v1.86h5.8v6.89Zm.07-5v3.17h3.83V612.3Zm17,2H61.13v10.85h-2V614.31h-3c0,3.43-.51,8.12-3.49,11A8.39,8.39,0,0,0,51,623.92c2.79-2.73,3-6.67,3-9.77v-7.08a34.82,34.82,0,0,0,7.66-1.86l1.4,1.77a35.74,35.74,0,0,1-7,1.62v3.72h7.33Z" fill="#0068b6"/>
    <path d="M73.42,613c-.29.31-.58.6-.84.85a12.16,12.16,0,0,0-1.2-1.18,24.2,24.2,0,0,1,.29,4.08c0,3.07-.25,5.89-1.15,7.17a1.81,1.81,0,0,1-1.24.8,10.62,10.62,0,0,1-2.64.13,4.28,4.28,0,0,0-.6-2,16,16,0,0,0,2.4,0,.85.85,0,0,0,.66-.4c.51-.69.71-3.06.71-5.78v-.55A17.54,17.54,0,0,1,66.4,620a9.51,9.51,0,0,0-1.13-1.75,13.92,13.92,0,0,0,4.29-5.07,11.79,11.79,0,0,0-.66-2.48,20.28,20.28,0,0,1-2.63,2.44,7.83,7.83,0,0,0-1.16-1.84A15.34,15.34,0,0,0,68,608.93a11.91,11.91,0,0,0-2.15-2.44l1.35-1.11a14,14,0,0,1,2.06,2.15,17.3,17.3,0,0,0,1.46-2.15l1.49,1a28.24,28.24,0,0,1-1.93,2.79,12.56,12.56,0,0,1,1.09,3.32,13,13,0,0,0,3-3.72l1.44.49V608H72.33v-1.53h3.46v-1.55H77.6v4.27l1.24-.66a25.55,25.55,0,0,1,1.75,2h4.12v1.26H80.19v.89h4v1.13h-4v1h4v1.1h-4v1H85v1.28H75.21v.54H73.42Zm11.31,6.69a10.93,10.93,0,0,1-3.92,3.08,37.66,37.66,0,0,0,5.07.8,8.48,8.48,0,0,0-1.19,1.61,30.8,30.8,0,0,1-6.29-1.42,36,36,0,0,1-6.4,1.46,6.52,6.52,0,0,0-.9-1.61,35.71,35.71,0,0,0,4.93-.82,12.93,12.93,0,0,1-2.81-2l.76-.31H72.6V619H83.25l.31-.07Zm-6.37-8H75.21v.89h3.15Zm0,2H75.21v1h3.15Zm0,2H75.21v1h3.15Zm-2.53-6.59.27.09c-.23.39-.45.77-.71,1.17h3c-.33-.42-.68-.84-1-1.22h.09Zm-.44,11.27a12.09,12.09,0,0,0,3,1.57,13.62,13.62,0,0,0,3.06-1.57Zm6.31-11.23H79.79v-4.36H81.7v1.48h3.87V608H81.7Z" fill="#0068b6"/>
    <path d="M94.27,610.52a25.5,25.5,0,0,1-1.86,2.75v12h-2V615.6a22.46,22.46,0,0,1-2.32,2.15,16,16,0,0,0-1-2.09,20.4,20.4,0,0,0,5.4-5.82ZM94,605.76a22.32,22.32,0,0,1-5.54,5.34,11.59,11.59,0,0,0-1.06-1.71A16.31,16.31,0,0,0,92,605Zm13.59,13.6h-3.16v3.74c0,1-.2,1.53-.93,1.81a9.58,9.58,0,0,1-3.37.33,8.68,8.68,0,0,0-.66-1.85H102c.31,0,.42-.09.42-.36v-3.69H93.8v-1.77h8.53V616h-8v-1.71h12.8V616h-2.74v1.62h3.16ZM97,619.49a19.35,19.35,0,0,1,2.72,3l-1.55,1.11a19.65,19.65,0,0,0-2.63-3.13Zm9.28-6.49H95.57v-7.42h10.68Zm-2.09-5.91H97.57v1.48h6.59Zm0,2.9H97.57v1.48h6.59Z" fill="#0068b6"/>
    <path d="M129.27,608.35v1c-.31,10-.57,13.41-1.46,14.52a2.47,2.47,0,0,1-1.92,1,23.41,23.41,0,0,1-3.35,0,4.73,4.73,0,0,0-.66-2c1.42.11,2.7.13,3.25.13a1,1,0,0,0,.93-.37c.71-.74,1-4.08,1.29-12.43h-5.23a21.16,21.16,0,0,1-2,3.72,10.8,10.8,0,0,0-1.62-1.15V623h-6v1.68h-1.88V608.46h2.48a25.63,25.63,0,0,0,.77-3.58l2.24.37c-.38,1.11-.8,2.28-1.15,3.21h3.54v4.19a21.18,21.18,0,0,0,3.3-7.77l2,.46c-.26,1-.55,2-.9,3Zm-16.81,1.91v4.2h4.12v-4.2Zm4.12,10.89v-4.9h-4.12v4.9Zm7.37-1.73a35.75,35.75,0,0,0-3.23-5.11l1.62-.91a40.37,40.37,0,0,1,3.34,4.94Z" fill="#0068b6"/>
    <path d="M137.9,605.27h2v20h-2v-5.89c-3.79,1.33-4.48,1.7-4.94,2.06a9.25,9.25,0,0,0-.8-1.89,1.63,1.63,0,0,0,.78-1.5V607.36h2v11l3-.93Zm12.59,5.78a25.28,25.28,0,0,1-2.85,8.53,13,13,0,0,0,4.54,3.92,6.26,6.26,0,0,0-1.42,1.66,14.72,14.72,0,0,1-4.3-3.83,14.94,14.94,0,0,1-4.73,4,8.86,8.86,0,0,0-1.35-1.7,12.6,12.6,0,0,0,4.93-4.08,28.59,28.59,0,0,1-2.41-5.6,11.81,11.81,0,0,1-1.46,2.24,15.22,15.22,0,0,0-1.46-1.75c1.88-2.19,3-5.74,3.58-9.5l2.11.35a33.65,33.65,0,0,1-.87,3.83H152v2Zm-6.48.47a25.42,25.42,0,0,0,2.41,6.18,22.72,22.72,0,0,0,2-6.65h-4.25Z" fill="#0068b6"/>
    <path d="M174,622.74v1.82H154v-1.82h2.72v-6.66h14.64v6.66ZM173.6,611H154.38v-1.82h5.49a21.88,21.88,0,0,0-2.1-3.43l1.75-.78a16.62,16.62,0,0,1,2.3,3.61l-1.19.6h6.82l-1.22-.44a25.42,25.42,0,0,0,2.17-3.79l2.08.62a34.87,34.87,0,0,1-2.41,3.61h5.55ZM162,612.63a36.12,36.12,0,0,1-6.4,3.85,8.35,8.35,0,0,0-1.24-1.66,25.13,25.13,0,0,0,6.23-3.19Zm-3.43,10.11h2.35v-4.91h-2.35Zm4.23-4.91v4.91h2.37v-4.91Zm4.12-6.18a61.49,61.49,0,0,1,6.77,2.81l-1.13,1.64a59,59,0,0,0-6.7-3Zm.13,6.18v4.91h2.39v-4.91Z" fill="#0068b6"/>
  </g>
  <g>
    <g>
      <path d="M204.66,596.91a9.57,9.57,0,0,1,15.65,0,19.29,19.29,0,0,1,0,18,9.56,9.56,0,0,1-15.65,0c-1.67-2.47-2.23-5.61-2.23-9S203,599.38,204.66,596.91Zm3.88,16.56a5.23,5.23,0,0,0,7.84,0c1.35-1.55,1.94-4.1,1.94-7.56s-.59-6-1.94-7.55a5.23,5.23,0,0,0-7.84,0c-1.34,1.51-1.94,4.09-1.94,7.55S207.2,612,208.54,613.47Z" fill="#0069b3"/>
      <path d="M229,612.87a2.92,2.92,0,0,1,2.9,2.9,2.88,2.88,0,0,1-2.9,2.86,2.85,2.85,0,0,1-2.86-2.86A2.88,2.88,0,0,1,229,612.87Z" fill="#0069b3"/>
      <path d="M240.5,618.42V601h-6v-2.93c3.53-.11,6-2.05,6.5-4.7h3.71v25Z" fill="#0069b3"/>
      <path d="M248.19,608.18l10.63-14.81h5.62v15.72h4.2v3.78h-4.2v5.55h-4.13v-5.55H248.19Zm12.12-10.64L252,609.09h8.3Z" fill="#0069b3"/>
      <path d="M276.55,604.36a5.67,5.67,0,1,1,5.79-5.69A5.7,5.7,0,0,1,276.55,604.36Zm0-3.07a2.58,2.58,0,1,0-2.51-2.62A2.46,2.46,0,0,0,276.55,601.29Zm-2.19,17.13,16.28-25h3.75l-16.25,25Zm17.87-11a5.67,5.67,0,1,1-5.79,5.65A5.75,5.75,0,0,1,292.23,607.43Zm0,3.07a2.6,2.6,0,0,0,0,5.2,2.6,2.6,0,0,0,0-5.2Z" fill="#0069b3"/>
    </g>
    <g>
      <path d="M413.34,596.91a9.57,9.57,0,0,1,15.65,0,19.29,19.29,0,0,1,0,18,9.56,9.56,0,0,1-15.65,0,15.92,15.92,0,0,1-2.23-9C411.11,602.56,411.64,599.38,413.34,596.91Zm3.88,16.56a5.23,5.23,0,0,0,7.84,0c1.35-1.55,1.94-4.1,1.94-7.56s-.59-6-1.94-7.55a5.23,5.23,0,0,0-7.84,0c-1.34,1.51-1.94,4.09-1.94,7.55S415.88,612,417.22,613.47Z" fill="#0069b3"/>
      <path d="M437.63,612.87a2.92,2.92,0,0,1,2.9,2.9,2.88,2.88,0,0,1-2.9,2.86,2.85,2.85,0,0,1-2.86-2.86A2.88,2.88,0,0,1,437.63,612.87Z" fill="#0069b3"/>
      <path d="M449.18,618.42V601h-6v-2.93c3.53-.11,6-2.05,6.5-4.7h3.71v25Z" fill="#0069b3"/>
      <path d="M457.58,611.78a6.56,6.56,0,0,1,4.62-6.18,6.19,6.19,0,0,1-4-5.73c0-4.13,3.63-7,8.51-7s8.58,2.89,8.58,7a6.14,6.14,0,0,1-4.06,5.73,6.55,6.55,0,0,1,4.66,6.18c0,4.06-3.43,7.17-9.18,7.17S457.58,615.84,457.58,611.78Zm14.09-.39c0-2.23-1.77-4.07-4.94-4.07s-4.91,1.84-4.91,4.07,1.73,4,4.91,4S471.67,613.54,471.67,611.39Zm-.6-11.31c0-2-1.66-3.74-4.34-3.74s-4.35,1.7-4.35,3.74c0,2.26,1.8,3.82,4.35,3.89S471.07,602.34,471.07,600.08Z" fill="#0069b3"/>
      <path d="M484.53,604.36a5.67,5.67,0,1,1,5.79-5.69A5.7,5.7,0,0,1,484.53,604.36Zm0-3.07a2.58,2.58,0,1,0-2.51-2.62A2.46,2.46,0,0,0,484.53,601.29Zm-2.2,17.13,16.29-25h3.74l-16.24,25Zm17.88-11a5.67,5.67,0,1,1-5.8,5.65A5.74,5.74,0,0,1,500.21,607.43Zm0,3.07a2.6,2.6,0,1,0,2.47,2.58A2.46,2.46,0,0,0,500.21,610.5Z" fill="#0069b3"/>
    </g>
    <g>
      <path d="M624.64,618.42V601h-6v-2.93c3.53-.11,6-2.05,6.5-4.7h3.71v25Z" fill="#0069b3"/>
      <path d="M636,612.87a2.91,2.91,0,0,1,2.89,2.9,2.88,2.88,0,1,1-2.89-2.9Z" fill="#0069b3"/>
      <path d="M659.63,597.61a10.11,10.11,0,0,0-4.37-1c-5,0-8.27,3.46-8.66,8.41a7.44,7.44,0,0,1,6.47-3.08c5,0,8.51,3.14,8.51,8.44s-4.27,8.59-9.36,8.59-9.86-3.5-9.86-11.52c0-9.18,5.62-14.58,13.14-14.58a9.67,9.67,0,0,1,5.34,1.34Zm-7.41,17.73a4.94,4.94,0,1,0-5.09-4.94A4.92,4.92,0,0,0,652.22,615.34Z" fill="#0069b3"/>
      <path d="M664.93,602.24a6.73,6.73,0,0,1-.11-1.24c0-4.31,3.22-8.15,8.8-8.15,5.4,0,8.58,3.56,8.58,7.77,0,3.28-1.84,5.93-4.73,7.73l-4.91,3.11a5.54,5.54,0,0,0-2.76,3.14h12.54v3.82H664.58c.07-4.21,1.62-7.42,5.93-10.14l4.13-2.65c2.26-1.41,3.29-3.07,3.29-4.94a4,4,0,0,0-4.42-4.14c-3.11,0-4.55,2.16-4.55,4.84,0,.39.07.82.1,1.24Z" fill="#0069b3"/>
      <path d="M691,604.36a5.67,5.67,0,1,1,5.79-5.69A5.7,5.7,0,0,1,691,604.36Zm0-3.07a2.58,2.58,0,1,0-2.51-2.62A2.46,2.46,0,0,0,691,601.29Zm-2.2,17.13,16.29-25h3.74l-16.24,25Zm17.88-11a5.67,5.67,0,1,1-5.8,5.65A5.74,5.74,0,0,1,706.71,607.43Zm0,3.07a2.6,2.6,0,1,0,2.47,2.58A2.46,2.46,0,0,0,706.71,610.5Z" fill="#0069b3"/>
    </g>
    <g>
      <path d="M835.73,618.45V601h-6V598.1c3.54-.1,6-2,6.5-4.69h3.71v25Z" fill="#0069b3"/>
      <path d="M847.07,612.91a2.88,2.88,0,1,1,0,5.75,2.88,2.88,0,0,1,0-5.75Z" fill="#0069b3"/>
      <path d="M853.67,602.27a6.7,6.7,0,0,1-.11-1.23c0-4.31,3.22-8.16,8.8-8.16,5.4,0,8.58,3.57,8.58,7.77,0,3.28-1.84,5.93-4.73,7.73l-4.91,3.11a5.52,5.52,0,0,0-2.75,3.14h12.54v3.82H853.32c.07-4.2,1.62-7.42,5.93-10.14l4.13-2.65c2.26-1.41,3.29-3.07,3.29-4.94a4,4,0,0,0-4.42-4.13c-3.1,0-4.55,2.15-4.55,4.84,0,.38.07.81.1,1.23Z" fill="#0069b3"/>
      <path d="M879.73,618.45V601h-6V598.1c3.53-.1,6-2,6.5-4.69h3.71v25Z" fill="#0069b3"/>
      <path d="M893.29,604.39a5.67,5.67,0,1,1,5.8-5.68A5.7,5.7,0,0,1,893.29,604.39Zm0-3.07a2.58,2.58,0,1,0-2.51-2.61A2.46,2.46,0,0,0,893.29,601.32Zm-2.19,17.13,16.28-25h3.75l-16.25,25Zm17.87-11a5.67,5.67,0,1,1-5.79,5.65A5.75,5.75,0,0,1,909,607.47Zm0,3.07a2.6,2.6,0,1,0,2.48,2.58A2.46,2.46,0,0,0,909,610.54Z" fill="#0069b3"/>
    </g>
    <g>
      <path d="M1031.15,596.91a9.57,9.57,0,0,1,15.65,0c1.66,2.47,2.22,5.65,2.22,9s-.56,6.5-2.22,9a9.56,9.56,0,0,1-15.65,0,15.92,15.92,0,0,1-2.23-9C1028.92,602.56,1029.45,599.38,1031.15,596.91Zm3.89,16.56a5.21,5.21,0,0,0,7.83,0c1.35-1.55,2-4.1,2-7.56s-.6-6-2-7.55a5.21,5.21,0,0,0-7.83,0c-1.35,1.51-2,4.09-2,7.55S1033.69,612,1035,613.47Z" fill="#0069b3"/>
      <path d="M1055.44,612.87a2.92,2.92,0,0,1,2.9,2.9,2.88,2.88,0,0,1-2.9,2.86,2.85,2.85,0,0,1-2.86-2.86A2.88,2.88,0,0,1,1055.44,612.87Z" fill="#0069b3"/>
      <path d="M1061.87,611.78a6.56,6.56,0,0,1,4.62-6.18,6.19,6.19,0,0,1-4-5.73c0-4.13,3.63-7,8.51-7s8.58,2.89,8.58,7a6.14,6.14,0,0,1-4.06,5.73,6.55,6.55,0,0,1,4.66,6.18c0,4.06-3.43,7.17-9.18,7.17S1061.87,615.84,1061.87,611.78Zm14.09-.39c0-2.23-1.76-4.07-4.94-4.07s-4.91,1.84-4.91,4.07,1.73,4,4.91,4S1076,613.54,1076,611.39Zm-.6-11.31c0-2-1.66-3.74-4.34-3.74s-4.35,1.7-4.35,3.74c0,2.26,1.81,3.82,4.35,3.89S1075.36,602.34,1075.36,600.08Z" fill="#0069b3"/>
      <path d="M1083,608.18l10.63-14.81h5.62v15.72h4.2v3.78h-4.2v5.55h-4.14v-5.55H1083Zm12.11-10.64-8.3,11.55h8.3Z" fill="#0069b3"/>
      <path d="M1111.3,604.36a5.67,5.67,0,1,1,5.8-5.69A5.7,5.7,0,0,1,1111.3,604.36Zm0-3.07a2.58,2.58,0,1,0-2.51-2.62A2.46,2.46,0,0,0,1111.3,601.29Zm-2.19,17.13,16.28-25h3.75l-16.25,25Zm17.87-11a5.67,5.67,0,1,1-5.79,5.65A5.75,5.75,0,0,1,1127,607.43Zm0,3.07a2.6,2.6,0,1,0,2.48,2.58A2.49,2.49,0,0,0,1127,610.5Z" fill="#0069b3"/>
    </g>
  </g>
</svg>
