<svg id="圖層_1" data-name="圖層 1" xmlns="http://www.w3.org/2000/svg" width="1242" height="683" viewBox="0 0 1242 683">
  <g>
    <path d="M417.76,86.1H406.47v9.63h-2.09V86.1H393.26v-2h11.12V74.48h-9.69v-2h21.53v2h-9.75v9.61h11.29ZM398.41,75.83A26.51,26.51,0,0,1,401,82l-1.93.66a32.19,32.19,0,0,0-2.48-6.31Zm11.07,6.36a40.83,40.83,0,0,0,3-6.49l2.15.6a54.48,54.48,0,0,1-3.39,6.47Z" fill="#4c4948"/>
    <path d="M429.17,85.58l.44,1.82c-2.89,1.34-6,2.72-8.34,3.77l-.8-2c1-.39,2.32-.94,3.75-1.49V79.14h-3.28v-2h3.28V70.93h1.92v6.25h3v2h-3v7.7ZM445.25,75s0,.82,0,1.07c-.33,12.91-.69,17.12-1.73,18.5a2.76,2.76,0,0,1-2.2,1.15,31.59,31.59,0,0,1-4,0,4.85,4.85,0,0,0-.68-2c1.76.16,3.35.16,4,.16a1.18,1.18,0,0,0,1.1-.44c.91-.93,1.26-5.36,1.57-16.51H434a23.37,23.37,0,0,1-2.67,4.48,13.48,13.48,0,0,0-1.71-1.07,26.22,26.22,0,0,0,4.68-9.72l1.87.47A32.65,32.65,0,0,1,434.84,75Zm-12.5,11.83h8.78v1.82h-8.78Zm8.1-5.72v1.79H434V81.12Z" fill="#4c4948"/>
    <path d="M457.21,91c1.87-.36,3.83-.72,5.73-1.07l.13,1.78c-4.87.94-10.07,1.93-13.68,2.65L449,92.46c1.68-.28,3.91-.69,6.31-1.1V86.73h-5.37V84.92h5.37V82h1.95v3h5.48v1.81h-5.48Zm-8-18.61h14.07v1.82h-7.43a37.77,37.77,0,0,1-3.17,5.12l7-.61c-.66-1-1.38-1.9-2-2.72l1.46-.88A38.54,38.54,0,0,1,463.24,81l-1.57,1a15.4,15.4,0,0,0-1-1.7c-8.57.82-9.55.93-10.22,1.24a13.34,13.34,0,0,0-.69-1.93c.45-.08.86-.55,1.33-1.21a26.32,26.32,0,0,0,2.39-4.21h-4.35Zm17.51,17.12h-1.93V73h1.93Zm5.48-18.47V92.54c0,1.3-.3,1.93-1.13,2.23a13.92,13.92,0,0,1-4.29.39,7.87,7.87,0,0,0-.75-2c1.6,0,3.11,0,3.58,0s.58-.14.58-.61V71.07Z" fill="#4c4948"/>
    <path d="M489.27,89.1H475.83V87.26h2.67V76.08h-2.31V74.24h2.31V70.91h1.88v3.33h5V70.91h1.9v3.33h2v1.84h-2V87.26h2Zm-7.68,1.1a18.1,18.1,0,0,1-4.08,5.56,11.58,11.58,0,0,0-1.65-1.18,14.19,14.19,0,0,0,3.77-4.9Zm-1.21-14.12V78.5h5V76.08Zm0,6.77h5V80.16h-5Zm0,4.41h5V84.51h-5Zm4.76,2.42A20.29,20.29,0,0,1,488,93.75l-1.65,1a22.16,22.16,0,0,0-2.84-4.19Zm15,3.44c0,1.21-.3,1.82-1,2.15a12.3,12.3,0,0,1-4.11.38,7.37,7.37,0,0,0-.63-2c1.46,0,2.84,0,3.22,0s.58-.14.58-.58v-6.6h-5.81c-.27,3.27-1,6.77-2.61,9.41a5.86,5.86,0,0,0-1.63-1.21c2.28-3.63,2.51-8.84,2.51-12.77V72h9.52Zm-2-8.48V80.07h-5.62v1.85c0,.85,0,1.79-.05,2.72Zm-5.62-10.79v4.38h5.62V73.85Z" fill="#4c4948"/>
    <path d="M528.45,93.18V95h-16.6V93.18h2.67V77.71h3.78c.13-.69.27-1.49.44-2.29h-5.35V73.8H509c-.22,1.26-.49,2.5-.77,3.69h3.28l.36-.06,1.18.33c-1,9-3.8,14.89-7.85,17.95a5.49,5.49,0,0,0-1.42-1.46,15.56,15.56,0,0,0,5.17-6.91,33.32,33.32,0,0,0-3.08-3.25,12,12,0,0,1-1.19,2,10.43,10.43,0,0,0-1.32-1.46c1.9-2.64,3.06-6.61,3.8-10.87H504V71.87h9.41v1.79H519c.16-1.07.3-2.12.38-3.06l2.23.14c-.16.91-.35,1.93-.57,2.92h6.74v1.76h-7.1c-.19.8-.36,1.6-.55,2.29h6.08V93.18ZM507.67,79.36a25.33,25.33,0,0,1-1.07,3.08c1,.91,2.14,2,3,2.92a37.57,37.57,0,0,0,1.3-6Zm8.81-.09v2.32h7.76V79.27Zm7.76,3.83h-7.76v2.34h7.76Zm-7.76,3.83v2.36h7.76V86.93Zm0,6.25h7.76V90.81h-7.76Z" fill="#4c4948"/>
    <path d="M539.31,78.86H545v1.9h-5.65v.74c1.32,1.24,4.49,4.41,5.31,5.23l-1.21,1.68c-.82-1-2.67-3-4.1-4.59V95.71h-2V83.9A29.53,29.53,0,0,1,532.07,92,15.06,15.06,0,0,0,530.94,90a27.38,27.38,0,0,0,5.92-9.28H531.5v-1.9h5.78V74.18c-1.79.36-3.58.64-5.29.88a5.74,5.74,0,0,0-.63-1.62c4-.61,8.78-1.54,11.36-2.67l1.52,1.57a40.16,40.16,0,0,1-4.93,1.46Zm9.8,10.1h-2V73.88h2Zm5.84-18v22c0,1.4-.39,2-1.24,2.34s-2.4.41-4.9.41a10.63,10.63,0,0,0-.74-2.06c1.9,0,3.63,0,4.15,0s.72-.17.72-.72v-22Z" fill="#4c4948"/>
    <path d="M583.67,90h-11.2v5.8h-2.15V90H559.15v-1.9h11.17V85.8h2.15v2.26h11.2ZM566.44,82.8c-2.09,1.13-4.32,2.31-6.14,3.22l-1-1.65c1.71-.69,4.27-1.9,6.75-3.09Zm9.41,3.38a6.47,6.47,0,0,0-.74-1.46c-7.15.69-8.12.83-8.67,1.11a16.35,16.35,0,0,0-.6-1.79,5.88,5.88,0,0,0,2.28-1.35c.52-.44,1.71-1.52,3-2.86-3.17.24-3.77.38-4.18.55a10.44,10.44,0,0,0-.58-1.74,2.11,2.11,0,0,0,1.21-.88A19.37,19.37,0,0,0,569.72,75h-10V73.08h11.2c-.36-.69-.85-1.51-1.27-2.15l2-.52a16.51,16.51,0,0,1,1.63,2.67h10.21V75H571.86a30.07,30.07,0,0,1-2.61,3.36l3.49-.22a25.23,25.23,0,0,0,1.85-2.28l1.68,1a54.55,54.55,0,0,1-6.94,6.85l4.82-.38c-.44-.61-.91-1.24-1.35-1.76l1.51-.64a20.7,20.7,0,0,1,3.17,4.63Zm-14.39-10.1a24.15,24.15,0,0,1,4.18,3.11l-1.43,1.24a21.89,21.89,0,0,0-4.13-3.22Zm20.15,10.21a35.15,35.15,0,0,0-5.4-3.85l1.46-1.1a34,34,0,0,1,5.45,3.74Zm.47-9.24a29.93,29.93,0,0,1-4.1,3.44l-1.49-1A23.73,23.73,0,0,0,580.37,76Z" fill="#4c4948"/>
    <path d="M588.2,79.8l1.74-2.87-3-1.23.49-1.41,3.14.77.28-3.33h1.48l.28,3.3,3.13-.74.47,1.41-3,1.23L595,79.8l-1.21.88-2.17-2.62-2.18,2.62Z" fill="#4c4948"/>
  </g>
  <g>
    <path d="M82.44,444.13c4.82,0,6.44,4.56,6.44,8.84s-1.62,8.81-6.44,8.81S76,457.24,76,453,77.59,444.13,82.44,444.13Zm0,16.33c3.44,0,5-3.24,5-7.49s-1.52-7.52-5-7.52-5,3.24-5,7.52S79,460.46,82.44,460.46Z" fill="#4c4948"/>
    <path d="M93.47,459a1.27,1.27,0,0,1,1.28,1.28A1.27,1.27,0,1,1,93.47,459Z" fill="#4c4948"/>
    <path d="M104.53,444.13c4.82,0,6.44,4.56,6.44,8.84s-1.62,8.81-6.44,8.81S98.1,457.24,98.1,453,99.69,444.13,104.53,444.13Zm0,16.33c3.45,0,5-3.24,5-7.49s-1.52-7.52-5-7.52-5,3.24-5,7.52S101.06,460.46,104.53,460.46Z" fill="#4c4948"/>
    <path d="M117.4,451.62a3.69,3.69,0,1,1,3.72-3.7A3.69,3.69,0,0,1,117.4,451.62Zm0-1.2a2.49,2.49,0,1,0-2.43-2.5A2.42,2.42,0,0,0,117.4,450.42ZM116,461.47l11.4-17h1.42l-11.4,17Zm11.48-7.18a3.69,3.69,0,1,1-3.72,3.67A3.69,3.69,0,0,1,127.51,454.29Zm0,1.2a2.49,2.49,0,1,0,2.41,2.47A2.41,2.41,0,0,0,127.51,455.49Z" fill="#4c4948"/>
  </g>
  <g>
    <path d="M88.37,413.61H86.89V399.34a6.05,6.05,0,0,1-4.26,2v-1.25A4.74,4.74,0,0,0,87,396.58h1.38Z" fill="#4c4948"/>
    <path d="M93.47,411.19a1.26,1.26,0,0,1,1.28,1.27,1.27,1.27,0,1,1-1.28-1.27Z" fill="#4c4948"/>
    <path d="M104.53,396.27c4.82,0,6.44,4.56,6.44,8.84s-1.62,8.81-6.44,8.81-6.43-4.53-6.43-8.81S99.69,396.27,104.53,396.27Zm0,16.33c3.45,0,5-3.24,5-7.49s-1.52-7.52-5-7.52-5,3.24-5,7.52S101.06,412.6,104.53,412.6Z" fill="#4c4948"/>
    <path d="M117.4,403.76a3.69,3.69,0,1,1,3.72-3.7A3.69,3.69,0,0,1,117.4,403.76Zm0-1.2a2.49,2.49,0,1,0-2.43-2.5A2.42,2.42,0,0,0,117.4,402.56ZM116,413.61l11.4-17h1.42l-11.4,17Zm11.48-7.18a3.69,3.69,0,1,1-3.72,3.68A3.69,3.69,0,0,1,127.51,406.43Zm0,1.2a2.49,2.49,0,1,0,2.41,2.48A2.42,2.42,0,0,0,127.51,407.63Z" fill="#4c4948"/>
  </g>
  <line x1="145.93" y1="406.49" x2="1200" y2="406.49" fill="none" stroke="#9e9e9f" stroke-miterlimit="10" stroke-width="0.5"/>
  <g>
    <path d="M77.66,365.76c0-2.64,1.45-4.56,4.27-6.46l2.53-1.7c1.64-1.11,2.78-2.48,2.78-4.16a3.61,3.61,0,0,0-3.86-3.7,3.93,3.93,0,0,0-4.15,4.18,4.52,4.52,0,0,0,0,.81l-1.5-.21c0-.22,0-.58,0-.77a5.38,5.38,0,0,1,5.65-5.33c3.45,0,5.38,2.28,5.38,5,0,3.78-3.94,5.55-6.9,7.55a5.12,5.12,0,0,0-2.39,3.41H89v1.39Z" fill="#4c4948"/>
    <path d="M93.47,363.34a1.26,1.26,0,0,1,1.28,1.27,1.27,1.27,0,1,1-1.28-1.27Z" fill="#4c4948"/>
    <path d="M104.53,348.42c4.82,0,6.44,4.56,6.44,8.84s-1.62,8.81-6.44,8.81-6.43-4.54-6.43-8.81S99.69,348.42,104.53,348.42Zm0,16.33c3.45,0,5-3.24,5-7.49s-1.52-7.52-5-7.52-5,3.24-5,7.52S101.06,364.75,104.53,364.75Z" fill="#4c4948"/>
    <path d="M117.4,355.91a3.69,3.69,0,1,1,3.72-3.7A3.69,3.69,0,0,1,117.4,355.91Zm0-1.2a2.49,2.49,0,1,0-2.43-2.5A2.42,2.42,0,0,0,117.4,354.71ZM116,365.76l11.4-17h1.42l-11.4,17Zm11.48-7.18a3.69,3.69,0,1,1-3.72,3.67A3.69,3.69,0,0,1,127.51,358.58Zm0,1.2a2.49,2.49,0,1,0,2.41,2.47A2.41,2.41,0,0,0,127.51,359.78Z" fill="#4c4948"/>
  </g>
  <line x1="145.93" y1="358.46" x2="1200" y2="358.46" fill="none" stroke="#9e9e9f" stroke-miterlimit="10" stroke-width="0.5"/>
  <g>
    <path d="M89,312.88c0,3.15-2.61,5.34-6,5.34s-6-2.21-6.13-5.17l1.45-.33A4.43,4.43,0,0,0,83,316.9c2.55,0,4.46-1.69,4.46-4,0-2.5-1.93-3.84-4.22-3.84a6.49,6.49,0,0,0-1.62.21l-.72-1.24,5.74-5.8H77.27v-1.39H88.58v1.39l-5.64,5.68a5.25,5.25,0,0,1,.82-.08A4.89,4.89,0,0,1,89,312.88Z" fill="#4c4948"/>
    <path d="M93.47,315.48a1.27,1.27,0,0,1,1.28,1.27,1.27,1.27,0,0,1-2.53,0A1.26,1.26,0,0,1,93.47,315.48Z" fill="#4c4948"/>
    <path d="M104.53,300.56c4.82,0,6.44,4.57,6.44,8.84s-1.62,8.82-6.44,8.82-6.43-4.54-6.43-8.82S99.69,300.56,104.53,300.56Zm0,16.34c3.45,0,5-3.25,5-7.5s-1.52-7.52-5-7.52-5,3.25-5,7.52S101.06,316.9,104.53,316.9Z" fill="#4c4948"/>
    <path d="M117.4,308.06a3.69,3.69,0,1,1,3.72-3.71A3.7,3.7,0,0,1,117.4,308.06Zm0-1.21a2.49,2.49,0,1,0-2.43-2.5A2.42,2.42,0,0,0,117.4,306.85Zm-1.37,11,11.4-17h1.42l-11.4,17Zm11.48-7.18a3.69,3.69,0,1,1-3.72,3.68A3.69,3.69,0,0,1,127.51,310.72Zm0,1.2a2.49,2.49,0,1,0,2.41,2.48A2.42,2.42,0,0,0,127.51,311.92Z" fill="#4c4948"/>
  </g>
  <line x1="145.93" y1="310.43" x2="1200" y2="310.43" fill="none" stroke="#9e9e9f" stroke-miterlimit="10" stroke-width="0.5"/>
  <g>
    <path d="M76.43,264.09,84.29,253h2.17V264.5h3v1.35h-3v4.2H85v-4.2H76.43ZM85,254.36,77.83,264.5H85Z" fill="#4c4948"/>
    <path d="M93.47,267.62a1.27,1.27,0,0,1,1.28,1.28,1.27,1.27,0,1,1-1.28-1.28Z" fill="#4c4948"/>
    <path d="M104.53,252.7c4.82,0,6.44,4.57,6.44,8.85s-1.62,8.81-6.44,8.81-6.43-4.54-6.43-8.81S99.69,252.7,104.53,252.7Zm0,16.34c3.45,0,5-3.24,5-7.49s-1.52-7.52-5-7.52-5,3.24-5,7.52S101.06,269,104.53,269Z" fill="#4c4948"/>
    <path d="M117.4,260.2a3.69,3.69,0,1,1,3.72-3.7A3.69,3.69,0,0,1,117.4,260.2Zm0-1.2a2.49,2.49,0,1,0-2.43-2.5A2.42,2.42,0,0,0,117.4,259ZM116,270.05l11.4-17h1.42l-11.4,17Zm11.48-7.18a3.69,3.69,0,1,1-3.72,3.67A3.69,3.69,0,0,1,127.51,262.87Zm0,1.2a2.49,2.49,0,1,0,2.41,2.47A2.41,2.41,0,0,0,127.51,264.07Z" fill="#4c4948"/>
  </g>
  <line x1="145.93" y1="262.4" x2="1200" y2="262.4" fill="none" stroke="#9e9e9f" stroke-miterlimit="10" stroke-width="0.5"/>
  <g>
    <path d="M78.48,217.08a4.44,4.44,0,0,0,4.58,4.11,4.3,4.3,0,1,0,0-8.6,5.22,5.22,0,0,0-3.86,1.73l-1.5-.6,2.2-8.56h8.49v1.37h-7.5L79.3,212.9a5.48,5.48,0,0,1,4-1.63,5.42,5.42,0,0,1,5.71,5.62,5.65,5.65,0,0,1-6,5.62,5.72,5.72,0,0,1-6-5Z" fill="#4c4948"/>
    <path d="M93.47,219.77A1.27,1.27,0,0,1,94.75,221a1.27,1.27,0,0,1-2.53,0A1.26,1.26,0,0,1,93.47,219.77Z" fill="#4c4948"/>
    <path d="M104.53,204.85c4.82,0,6.44,4.56,6.44,8.84s-1.62,8.82-6.44,8.82S98.1,218,98.1,213.69,99.69,204.85,104.53,204.85Zm0,16.34c3.45,0,5-3.25,5-7.5s-1.52-7.52-5-7.52-5,3.24-5,7.52S101.06,221.19,104.53,221.19Z" fill="#4c4948"/>
    <path d="M117.4,212.35a3.69,3.69,0,1,1,3.72-3.7A3.69,3.69,0,0,1,117.4,212.35Zm0-1.21a2.49,2.49,0,1,0-2.43-2.49A2.42,2.42,0,0,0,117.4,211.14ZM116,222.2l11.4-17h1.42l-11.4,17ZM127.51,215a3.69,3.69,0,1,1-3.72,3.68A3.7,3.7,0,0,1,127.51,215Zm0,1.2a2.49,2.49,0,1,0,2.41,2.48A2.42,2.42,0,0,0,127.51,216.21Z" fill="#4c4948"/>
  </g>
  <line x1="145.93" y1="214.37" x2="1200" y2="214.37" fill="none" stroke="#9e9e9f" stroke-miterlimit="10" stroke-width="0.5"/>
  <g>
    <path d="M90,111a23.52,23.52,0,0,0-7.76,15.52H80.67a24.42,24.42,0,0,1,7.72-15.67H77.8v-1.37H90Z" fill="#4c4948"/>
    <path d="M93.47,124.06a1.27,1.27,0,0,1,1.28,1.27,1.27,1.27,0,0,1-2.54,0A1.27,1.27,0,0,1,93.47,124.06Z" fill="#4c4948"/>
    <path d="M104.53,109.14c4.82,0,6.44,4.56,6.44,8.84s-1.62,8.82-6.44,8.82-6.44-4.54-6.44-8.82S99.68,109.14,104.53,109.14Zm0,16.34c3.45,0,5-3.25,5-7.5s-1.52-7.52-5-7.52-5,3.24-5,7.52S101.06,125.48,104.53,125.48Z" fill="#4c4948"/>
    <path d="M117.4,116.64a3.69,3.69,0,1,1,3.71-3.7A3.69,3.69,0,0,1,117.4,116.64Zm0-1.2a2.49,2.49,0,1,0-2.44-2.5A2.43,2.43,0,0,0,117.4,115.44Zm-1.38,11,11.41-17h1.42l-11.4,17Zm11.48-7.19a3.69,3.69,0,1,1-3.71,3.68A3.69,3.69,0,0,1,127.5,119.3Zm0,1.2a2.49,2.49,0,1,0,2.41,2.48A2.42,2.42,0,0,0,127.5,120.5Z" fill="#4c4948"/>
  </g>
  <line x1="145.93" y1="119.72" x2="1200" y2="119.72" fill="none" stroke="#9e9e9f" stroke-miterlimit="10" stroke-width="0.5"/>
  <line x1="42.7" y1="550.72" x2="1208" y2="550.72" fill="none" stroke="#9e9e9f" stroke-miterlimit="10"/>
  <g>
    <path d="M89,169a5.72,5.72,0,0,1-6,5.67c-3.61,0-6.38-2.74-6.38-7.92,0-6.47,3.85-9.73,8.31-9.73a7,7,0,0,1,3.67.93l-.48,1.28a5.93,5.93,0,0,0-3.26-.84c-4.53,0-6.73,3.86-6.82,8.12A5.78,5.78,0,0,1,89,169Zm-6,4.38a4.32,4.32,0,0,0,4.48-4.4,4.25,4.25,0,0,0-4.43-4.42A4.46,4.46,0,0,0,78.55,169,4.38,4.38,0,0,0,83,173.36Z" fill="#4c4948"/>
    <path d="M93.47,171.91a1.28,1.28,0,0,1,1.28,1.28,1.27,1.27,0,0,1-2.54,0A1.27,1.27,0,0,1,93.47,171.91Z" fill="#4c4948"/>
    <path d="M104.53,157c4.82,0,6.44,4.56,6.44,8.84s-1.62,8.81-6.44,8.81-6.44-4.54-6.44-8.81S99.68,157,104.53,157Zm0,16.33c3.45,0,5-3.24,5-7.49s-1.52-7.52-5-7.52-5,3.24-5,7.52S101.06,173.33,104.53,173.33Z" fill="#4c4948"/>
    <path d="M117.4,164.49a3.69,3.69,0,1,1,3.71-3.7A3.69,3.69,0,0,1,117.4,164.49Zm0-1.2a2.49,2.49,0,1,0-2.44-2.5A2.42,2.42,0,0,0,117.4,163.29ZM116,174.34l11.41-17h1.42l-11.4,17Zm11.48-7.18a3.69,3.69,0,1,1-3.71,3.67A3.68,3.68,0,0,1,127.5,167.16Zm0,1.2a2.49,2.49,0,1,0,2.41,2.47A2.41,2.41,0,0,0,127.5,168.36Z" fill="#4c4948"/>
  </g>
  <line x1="145.93" y1="166.34" x2="1200" y2="166.34" fill="none" stroke="#9e9e9f" stroke-miterlimit="10" stroke-width="0.5"/>
  <line x1="145.93" y1="454.52" x2="1200" y2="454.52" fill="none" stroke="#9e9e9f" stroke-miterlimit="10" stroke-width="0.5"/>
  <rect x="357.23" y="70.6" width="23.04" height="23.04" fill="#0068b6"/>
  <g>
    <path d="M704.76,92.24v2H680.45v-2h6.69c.55-2.5,1.13-5.73,1.68-9H683.7v-2h5.45c.33-2,.63-4.08.88-5.92h-7.84v-2h20.59v2H692.21c-.28,1.84-.58,3.91-.91,5.92h6.94l.35-.11,1.57.16c-.19,3-.58,7.38-1,11Zm-13.77-9c-.52,3.27-1.1,6.5-1.62,9h7.68c.31-2.95.63-6.47.85-9Z" fill="#4c4948"/>
    <path d="M732.66,89.46h-10v6.3h-2.06v-6.3H707.91v-2h4.52V80.1h8.2V75.92h-6.69a25.31,25.31,0,0,1-4.19,5.42A11.6,11.6,0,0,0,708,80.05a23.37,23.37,0,0,0,6.2-9.5l2.06.49c-.38,1-.82,2-1.26,2.9h16.4v2h-8.7V80.1h8.07V82h-8.07v5.45h10Zm-12-2V82h-6.17v5.45Z" fill="#4c4948"/>
    <path d="M760.37,89.46h-10v6.3h-2.06v-6.3H735.62v-2h4.51V80.1h8.21V75.92h-6.69a25.31,25.31,0,0,1-4.19,5.42,12.12,12.12,0,0,0-1.76-1.29,23.37,23.37,0,0,0,6.2-9.5L744,71c-.38,1-.82,2-1.26,2.9h16.4v2h-8.7V80.1h8.07V82H750.4v5.45h10Zm-12-2V82h-6.17v5.45Z" fill="#4c4948"/>
    <path d="M772.44,71.35a41.6,41.6,0,0,1-2.75,5.2V95.76h-2V79.47A32.7,32.7,0,0,1,764,83.65a15.73,15.73,0,0,0-1.16-2,30.78,30.78,0,0,0,7.71-10.9ZM784.06,93c1.54,0,1.76-1.22,2-5.92a5.42,5.42,0,0,0,1.9.93c-.33,5.1-.89,6.86-3.78,6.86h-5.22c-2.73,0-3.59-.8-3.59-3.72V71h2v7.49h9.77v2h-9.77V91.17c0,1.45.3,1.79,1.73,1.79Z" fill="#4c4948"/>
    <path d="M795.6,82.66a29.19,29.19,0,0,0-4.84-3l1.18-1.48A31.74,31.74,0,0,1,796.79,81Zm1.9,3.88c-1.24,2.89-2.86,6.3-4.27,8.84l-1.78-1.24a80.26,80.26,0,0,0,4.48-8.81Zm-.52-11a28.73,28.73,0,0,0-4.73-3.16l1.15-1.46a25.19,25.19,0,0,1,4.76,3Zm16.95,6.33a20.45,20.45,0,0,1-4.65,8.7A18.14,18.14,0,0,0,816.17,94a7.62,7.62,0,0,0-1.36,1.76,19.27,19.27,0,0,1-7-3.85,21.93,21.93,0,0,1-6.74,3.91,8.06,8.06,0,0,0-1.32-1.71,20.45,20.45,0,0,0,6.63-3.58A23,23,0,0,1,802,83.16h-.68c-.14,4-.86,9-3.56,12.57a6.66,6.66,0,0,0-1.7-1c3-3.8,3.3-9.22,3.3-13.19V74.57H806v-4h2v4h6.06l.33-.09,1.46.42a39,39,0,0,1-2.34,5.53l-1.73-.55c.44-.88.93-2.15,1.4-3.39H808v4.82h4.24l.39-.08Zm-12.55-5.34v4.82H806V76.49ZM804,83.16a18.67,18.67,0,0,0,3.86,6,16.88,16.88,0,0,0,3.6-6Z" fill="#4c4948"/>
    <path d="M842.85,77.07s0,.77,0,1c-.34,11.51-.61,15.25-1.49,16.41a2.35,2.35,0,0,1-2,1,24.38,24.38,0,0,1-3.33,0,4.4,4.4,0,0,0-.58-1.84c1.38.11,2.62.11,3.14.11a1.06,1.06,0,0,0,1-.41c.66-.8,1-4.55,1.26-14.43H837c-.33,7.52-1.57,13.43-6.44,17.07a6.36,6.36,0,0,0-1.59-1.6,10.2,10.2,0,0,0,1.21-1c-4.13.52-8.35,1-11.4,1.35L818.41,93c1.62-.11,3.69-.3,6-.52V90.06h-5.21V88.5h5.21V86.87h-5.12v-8.2h5.12V76.93h-5.92V75.34h5.92V73.58c-1.77.13-3.55.24-5.18.3a5.94,5.94,0,0,0-.5-1.49A85.83,85.83,0,0,0,830.55,71l1.1,1.51a44.55,44.55,0,0,1-5.42.88v2h5.83v1.59h-5.83v1.74h5.34v8.2h-5.34V88.5h5.42v1.56h-5.42V92.3c1.79-.2,3.66-.39,5.5-.61v0c2.34-3.22,3.06-7.55,3.28-12.75h-3.19v-1.9h3.27q0-2.85,0-6h2q0,3.15-.08,6Zm-21.94,5h3.45v-2h-3.45Zm3.45,3.39v-2h-3.45v2Zm1.87-5.34v2h3.58v-2Zm3.58,3.33h-3.58v2h3.58Z" fill="#4c4948"/>
    <path d="M850.27,80.76c0,4.38-.33,10.68-2.64,15a7,7,0,0,0-1.82-.93c2.23-4.13,2.45-10,2.45-14.07v-7.4h10.6c-.33-.77-.72-1.68-1.1-2.4l2-.49a20.13,20.13,0,0,1,1.4,2.89h9.56v1.9H850.27ZM868.52,87a13.59,13.59,0,0,1-5.7,5.4A35.64,35.64,0,0,0,871.08,94a7.31,7.31,0,0,0-1.15,1.76,33,33,0,0,1-9.39-2.36,40.09,40.09,0,0,1-9.63,2.2,8.41,8.41,0,0,0-.88-1.71,40,40,0,0,0,8.36-1.59A14,14,0,0,1,854,88.41l1-.38h-3.6V86.35h15.55l.39-.11Zm-13.16-2.36V80.05H851V78.34h4.4V76h2v2.37H864V76h2v2.37h4.43v1.71H866v4.54ZM856,88a12.82,12.82,0,0,0,4.65,3.41A12.93,12.93,0,0,0,865.47,88Zm1.35-8v2.89H864V80.05Z" fill="#4c4948"/>
  </g>
  <rect x="644.31" y="70.6" width="23.04" height="23.04" fill="#f5ab18"/>
  <g>
    <path d="M186.07,477.17a25.49,25.49,0,0,0,10.51,8.44,7.25,7.25,0,0,0-1.36,1.57,30.35,30.35,0,0,1-10.14-8.25,37.91,37.91,0,0,1-10.3,8.54,6.9,6.9,0,0,0-1.12-1.56,31.37,31.37,0,0,0,9.29-7h-4.41v-1.73Zm-.1,19.57h9.57v1.68H174.68v-1.68h9.39V492.6h-6.94V491h6.94V487.2h-5.88v-1.66H192v1.66h-6V491h7v1.63h-7Z" fill="#4c4948"/>
    <path d="M206.9,494c-2.75.87-5.68,1.78-7.91,2.53l-.39-1.79c.89-.24,2-.57,3.24-.94V487h-2.77v-1.74h2.77v-5.37h-3v-1.74h7.56v1.74h-2.85v5.37h2.5V487h-2.5v6.29l3-1ZM221,484.72a53.94,53.94,0,0,1-4.31,5.33,14.12,14.12,0,0,0,5.05,5.87,4.27,4.27,0,0,0-1.16,1.39,15.62,15.62,0,0,1-5.72-7.46v6.94c0,1.11-.3,1.63-1,1.93a9.6,9.6,0,0,1-3.77.4,7.25,7.25,0,0,0-.67-1.79c1.44.05,2.71,0,3.08,0s.54-.15.54-.57v-5.85c-2,2.06-4.14,4.09-5.82,5.68L206.08,495c1.68-1.39,4.41-3.81,7-6.12v-6.44h-6v-1.71h6v-4.29h1.79v4.29h6.49v1.71h-6.49v.89a30.75,30.75,0,0,0,1.21,5.18,36.4,36.4,0,0,0,3.32-4.68ZM208.83,484a19.53,19.53,0,0,1,2.7,4.59l-1.51.72a21.5,21.5,0,0,0-2.63-4.64Zm10.11-3.56a14.44,14.44,0,0,0-2.93-2.73l1.07-1a17.84,17.84,0,0,1,3,2.57Z" fill="#4c4948"/>
    <path d="M232.48,477.81a33.13,33.13,0,0,1-7.26,10.53,14.15,14.15,0,0,0-1.64-1.49,25.64,25.64,0,0,0,6.89-9.66Zm7,11.77A76.89,76.89,0,0,1,245,497.9l-1.83,1c-.35-.69-.82-1.49-1.34-2.38-12.84.89-14.2,1-15.16,1.31a12.36,12.36,0,0,0-.72-2c.67-.15,1.39-1,2.33-2.13a55.69,55.69,0,0,0,6.24-9.77l2.06.87a65.18,65.18,0,0,1-7.26,10.63l11.44-.64c-1-1.54-2.08-3.15-3.07-4.46Zm.52-12.49c1.19,3.92,3.67,7.63,6.56,9.54a9.61,9.61,0,0,0-1.43,1.71,20.68,20.68,0,0,1-6.52-9.39H234v-1.86Z" fill="#4c4948"/>
    <path d="M255.78,477a35.34,35.34,0,0,1-2.41,5v16.87h-1.78V484.82a27.7,27.7,0,0,1-2.52,3.08,11.77,11.77,0,0,0-1.12-1.69,27.56,27.56,0,0,0,6.14-9.74ZM262,495.8a20.38,20.38,0,0,1-5.94,3.39,10.67,10.67,0,0,0-1.39-1.38,17.81,17.81,0,0,0,5.57-2.66Zm.23-16.68h-6.07v-1.28h6.07v-1.37h1.85v1.37h6.3v1.28h-6.3v1.22h5.6v1.24h-5.6v1.31h7.06v1.34H255v-1.34h7.16v-1.31h-5.45v-1.24h5.45ZM257,494.76v-9.32h12.56v9.32Zm1.78-6.57h9v-1.51h-9Zm0,2.63h9v-1.54h-9Zm0,2.65h9v-1.56h-9Zm7.76,1.56a37,37,0,0,1,4.9,3.17l-1.83,1a30.37,30.37,0,0,0-4.91-3.42Z" fill="#4c4948"/>
    <path d="M281.93,488.81l-3.1.94v7.11c0,1.07-.25,1.54-.89,1.86a8.61,8.61,0,0,1-3.27.32,7.16,7.16,0,0,0-.57-1.71c1.12,0,2.16,0,2.45,0s.47-.1.47-.47v-6.54l-3.34,1-.55-1.8c1.07-.28,2.43-.65,3.89-1.07v-5.23h-3.51v-1.76H277v-5h1.81v5h2.8v1.76h-2.8v4.69c.94-.25,1.91-.55,2.85-.85Zm4.48-2.65c-2.43,0-3.19-.77-3.19-2.9v-6.71H285v3h10v1.61H285v2.18c0,.92.27,1.27,1.36,1.27h6.49a18.13,18.13,0,0,0,2.72-.18c.08.5.15,1.19.23,1.61a17,17,0,0,1-2.85.15Zm-3.17,2.1h11.59V499H293v-1h-8v1.14h-1.76Zm1.76,1.59v2.45h8v-2.45Zm8,6.57v-2.61h-8v2.61Z" fill="#4c4948"/>
    <path d="M309.2,492.72a5.41,5.41,0,0,1-2.14,3.28,21.87,21.87,0,0,1,2.85,1.46l-1.21,1.06a29.48,29.48,0,0,0-3.05-1.61,24.92,24.92,0,0,1-6.94,2.13,5.12,5.12,0,0,0-.76-1.23,25.69,25.69,0,0,0,6-1.64,29.21,29.21,0,0,0-3.82-1.36c.4-.5.84-1,1.26-1.64l-2.92.15-.17-1.36c1.11,0,2.5-.1,4-.15.37-.67.77-1.31,1.12-2h-4v-4H304v-1h-4v-2.68h-1.66v-1.41h1.66v-2.53h4v-1.73h1.46v1.73h4.21v2.53h1.69v1.41h-1.69v2.68H305.5v1h4.81v4h-5.23a17.35,17.35,0,0,1-1,1.86c1.22,0,2.48-.12,3.77-.2v-1.16h1.51v1.09l1.24-.08,0,1.29Zm-8.26-4.11H304v-1.53h-3.1Zm.7-9.14v1.32H304v-1.32Zm2.4,4V482h-2.4v1.49Zm-.87,9.54c-.24.4-.52.76-.76,1.11,1,.33,2.08.72,3.09,1.14a4.71,4.71,0,0,0,2.08-2.48Zm2.33-13.58v1.32h2.58v-1.32Zm2.58,4V482H305.5v1.49Zm-2.58,3.57v1.53h3.17v-1.53ZM319,482.84a35.55,35.55,0,0,1-2.26,9.49,12.25,12.25,0,0,0,4.19,5.15,6.07,6.07,0,0,0-1.11,1.31,12.28,12.28,0,0,1-3.89-4.68,14.86,14.86,0,0,1-4.49,5.11,5.77,5.77,0,0,0-1-1.39,12.94,12.94,0,0,0,4.66-5.57,32.64,32.64,0,0,1-1.81-6.55,16.13,16.13,0,0,1-1.32,2.73,14.26,14.26,0,0,0-1.26-1.12c1.64-2.6,2.6-6.61,3.17-10.67l1.56.24c-.2,1.44-.47,2.9-.79,4.29h6v1.66Zm-4.76,0a41.34,41.34,0,0,0,1.66,7.33,35,35,0,0,0,1.44-7.33Z" fill="#4c4948"/>
  </g>
  <rect x="166.66" y="431.2" width="74.77" height="23.32" fill="#0068b6"/>
  <rect x="254.63" y="287.52" width="74.78" height="167" fill="#f5ab18"/>
  <g>
    <path d="M175.28,404.79a7.75,7.75,0,0,1,12.58,0,12.67,12.67,0,0,1,1.73,7,12.53,12.53,0,0,1-1.73,6.93,7.75,7.75,0,0,1-12.58,0,12.2,12.2,0,0,1-1.71-6.93A12.33,12.33,0,0,1,175.28,404.79Zm3.3,12.25a3.69,3.69,0,0,0,6,0,11.88,11.88,0,0,0,0-10.57,3.71,3.71,0,0,0-6,0,12.15,12.15,0,0,0,0,10.57Z" fill="#002f7c"/>
    <path d="M194,416.68a2.51,2.51,0,1,1-2.51,2.51A2.52,2.52,0,0,1,194,416.68Z" fill="#002f7c"/>
    <path d="M197.89,413.22,206.12,402h4.82v12h3.22v3.33h-3.22v4.21h-3.77v-4.21h-9.28Zm9.28-7.35-5.9,8.09h5.9Z" fill="#002f7c"/>
    <path d="M216.84,417.76a8.08,8.08,0,0,0,3.49.82c3.86,0,6.14-2.23,6.34-5.83a5.33,5.33,0,0,1-4.66,2.17,6.43,6.43,0,0,1-6.71-6.55c0-4,3.22-6.8,7.37-6.8s7.74,2.95,7.74,9.14c0,7.05-3.44,11.2-10,11.2a9.53,9.53,0,0,1-4.51-1.07Zm5.75-12.94a3.46,3.46,0,1,0,3.58,3.44A3.43,3.43,0,0,0,222.59,404.82Z" fill="#002f7c"/>
  </g>
  <g>
    <path d="M269.77,266.29l5.29-4.68h-8.75v-3.3h13.62v3.14l-5.2,4.48a5.79,5.79,0,0,1,5.75,5.92c0,3.36-2.67,6.39-7.35,6.39-4.51,0-7.21-2.92-7.46-6.17l3.69-.74A3.65,3.65,0,0,0,273.1,275c2.26,0,3.53-1.43,3.53-3.14a3.12,3.12,0,0,0-3.42-3.16,4.37,4.37,0,0,0-1.7.38Z" fill="#002f7c"/>
    <path d="M284.87,273a2.51,2.51,0,1,1-2.51,2.5A2.52,2.52,0,0,1,284.87,273Z" fill="#002f7c"/>
    <path d="M292.39,271.5a3.63,3.63,0,0,0,3.79,3.46,3.33,3.33,0,0,0,3.55-3.38,3.37,3.37,0,0,0-3.6-3.47,4.16,4.16,0,0,0-3.17,1.35c-.57-.22-3-1-3.55-1.27l2.37-9.88h10.76v3.3h-8.17l-1.13,4.65A5.63,5.63,0,0,1,296.9,265c3.91,0,6.66,2.36,6.66,6.49,0,3.63-2.78,6.72-7.38,6.72-4.24,0-7.1-2.81-7.37-5.89Z" fill="#002f7c"/>
    <path d="M308.33,271.5a3.64,3.64,0,0,0,3.8,3.46,3.33,3.33,0,0,0,3.55-3.38,3.37,3.37,0,0,0-3.6-3.47,4.16,4.16,0,0,0-3.17,1.35c-.58-.22-3-1-3.55-1.27l2.37-9.88h10.76v3.3h-8.17l-1.13,4.65a5.63,5.63,0,0,1,3.66-1.23c3.91,0,6.66,2.36,6.66,6.49,0,3.63-2.78,6.72-7.38,6.72-4.24,0-7.1-2.81-7.37-5.89Z" fill="#002f7c"/>
  </g>
  <g>
    <path d="M374.2,478a25.51,25.51,0,0,0,10.51,8.45,7.28,7.28,0,0,0-1.37,1.56,30.29,30.29,0,0,1-10.13-8.25,38.13,38.13,0,0,1-10.3,8.55,6.69,6.69,0,0,0-1.12-1.56,31.54,31.54,0,0,0,9.29-7h-4.41V478Zm-.1,19.57h9.57v1.69H362.81v-1.69h9.39v-4.14h-6.94v-1.63h6.94V488h-5.88v-1.66H380.1V488h-6v3.77h7v1.63h-7Z" fill="#4c4948"/>
    <path d="M395,494.09c-2.75.86-5.68,1.78-7.91,2.52l-.39-1.78c.89-.25,2-.57,3.24-.94v-6.81H387.2v-1.74H390V480h-3v-1.73h7.55V480h-2.84v5.38h2.5v1.74h-2.5v6.29l3-1Zm14.07-9.27a55.13,55.13,0,0,1-4.31,5.33,14.18,14.18,0,0,0,5,5.87,4.15,4.15,0,0,0-1.16,1.39A15.7,15.7,0,0,1,403,490v6.94c0,1.11-.29,1.63-1,1.93a9.8,9.8,0,0,1-3.77.4,7.25,7.25,0,0,0-.67-1.79c1.44.05,2.7,0,3.07,0s.55-.14.55-.56V491c-2,2-4.14,4.09-5.82,5.67l-1.14-1.58c1.68-1.39,4.41-3.82,7-6.12v-6.44h-6v-1.71h6v-4.29H403v4.29h6.49v1.71H403v.89a30.69,30.69,0,0,0,1.22,5.18,36.47,36.47,0,0,0,3.32-4.69ZM397,484.1a19.68,19.68,0,0,1,2.7,4.59l-1.51.71a21.45,21.45,0,0,0-2.63-4.63Zm10.11-3.57a14.7,14.7,0,0,0-2.93-2.72l1.07-1a18.34,18.34,0,0,1,3,2.58Z" fill="#4c4948"/>
    <path d="M433.86,479.2v1.58H412.28V479.2h10.14c-.23-.72-.52-1.56-.77-2.25l1.78-.43c.35.85.72,1.89,1,2.68Zm-.79,18.08c0,.89-.23,1.27-.9,1.51a11,11,0,0,1-3.26.23,5.94,5.94,0,0,0-.6-1.37c1.07.06,2.21,0,2.5,0s.42-.1.42-.4V490H415v9.19h-1.78V488.46h19.89Zm-2.68-15.11v5H416v-5Zm-2.23,14.39h-8.72v1.22h-1.71v-6.29h10.43Zm.35-13H417.83v2.22h10.68Zm-9.07,9.33v2.31h7.06v-2.31Z" fill="#4c4948"/>
    <path d="M445.81,482.32h-8.89v-1.51h8.89Zm-7.92,1.74h7v1.46h-7Zm0,3.22h7v1.46h-7Zm6.93,10.45H439.4v1.16h-1.51v-8.32h6.93Zm-5.42-5.63v4.09h3.91V492.1Zm1.83-11.56a23.79,23.79,0,0,0-1.71-3.3l1.31-.74a24,24,0,0,1,1.81,3.19Zm18.21,9.81h-5.82v8.87h-1.79v-8.87h-6v-1.74h6v-8.89h-5.07V478h12.18v1.73h-5.32v8.89h5.82Zm-10.65-9.27a31.27,31.27,0,0,1,1.36,6.07l-1.58.4a29.27,29.27,0,0,0-1.29-6.1Zm6.31,6a43.47,43.47,0,0,0,1.61-6.22l1.77.45c-.6,2.08-1.34,4.61-2,6.19Z" fill="#4c4948"/>
    <path d="M464.69,479.94a15.55,15.55,0,0,1-2.45,2.95,8.81,8.81,0,0,0-1.32-1.22,14.48,14.48,0,0,0,3.82-5.27l1.64.44c-.23.5-.45,1-.7,1.49h6.37v1.61h-4.63a26.65,26.65,0,0,1,2.37,2.23l-1.21,1.09a19.64,19.64,0,0,0-2.58-2.6l.9-.72Zm13.43,11.57h4.93v1.56h-4.93v4.19c0,1.06-.28,1.48-1.09,1.71a19.23,19.23,0,0,1-4.41.25,5.61,5.61,0,0,0-.5-1.57c1.66.08,3.17.08,3.59.05s.55-.15.55-.49v-4.14H461.32v-1.56h14.94v-1.74h1.86Zm5.37-13.16V480H478a21.14,21.14,0,0,1,2.31,2.43l-1.27,1.07a16.51,16.51,0,0,0-2.35-2.65l1.09-.85h-2.43a16.56,16.56,0,0,1-2.08,3l-.22-.2v1.16h9.06v1.61h-9.06v2.21h7.68v1.49H463.48v-1.49h7.75v-2.21h-9V483.9h9v-1.53h1.39a7.36,7.36,0,0,0-.72-.52A13,13,0,0,0,475,476.4l1.71.39a12.11,12.11,0,0,1-.57,1.56Zm-16.77,14.94a40.53,40.53,0,0,1,4.21,3.67l-1.36,1.09a41.62,41.62,0,0,0-4.16-3.79Z" fill="#4c4948"/>
    <path d="M492.85,477a36.45,36.45,0,0,1-2.41,5v16.87h-1.78V484.82a27.74,27.74,0,0,1-2.53,3.08,10.91,10.91,0,0,0-1.11-1.69,27.7,27.7,0,0,0,6.14-9.74ZM499,495.8a20.31,20.31,0,0,1-6,3.39,10,10,0,0,0-1.38-1.38,17.81,17.81,0,0,0,5.57-2.66Zm.22-16.68h-6.07v-1.28h6.07v-1.37h1.86v1.37h6.29v1.28h-6.29v1.22h5.6v1.24h-5.6v1.31h7.06v1.34H492.1v-1.34h7.16v-1.31h-5.45v-1.24h5.45ZM494,494.76v-9.32h12.56v9.32Zm1.79-6.57h9v-1.51h-9Zm0,2.63h9v-1.54h-9Zm0,2.65h9v-1.56h-9Zm7.75,1.56a37.18,37.18,0,0,1,4.91,3.17l-1.83,1a30.82,30.82,0,0,0-4.91-3.42Z" fill="#4c4948"/>
    <path d="M519,489l-3.1.94V497c0,1.07-.25,1.54-.89,1.86a8.61,8.61,0,0,1-3.27.32,7.63,7.63,0,0,0-.57-1.71c1.11,0,2.15,0,2.45,0s.47-.1.47-.47v-6.54l-3.34,1-.55-1.81c1.07-.27,2.43-.64,3.89-1.06v-5.23h-3.52V481.6h3.52v-5h1.81v5h2.8v1.76h-2.8V488c.94-.24,1.91-.54,2.85-.84Zm4.48-2.65c-2.43,0-3.2-.77-3.2-2.9V476.7h1.81v3h10v1.61h-10v2.18c0,.92.28,1.26,1.36,1.26H530a18.33,18.33,0,0,0,2.72-.17c.08.5.15,1.19.22,1.61a16.94,16.94,0,0,1-2.85.15Zm-3.17,2.1H531.9v10.71h-1.8v-1h-8v1.14h-1.76Zm1.76,1.59v2.45h8V490Zm8,6.56V494h-8v2.6Z" fill="#4c4948"/>
    <path d="M546.26,492.72a5.39,5.39,0,0,1-2.13,3.28,21.87,21.87,0,0,1,2.85,1.46l-1.21,1.06a30.56,30.56,0,0,0-3-1.61,25.14,25.14,0,0,1-6.94,2.13,5.16,5.16,0,0,0-.77-1.23,25.65,25.65,0,0,0,6-1.64,29.21,29.21,0,0,0-3.82-1.36c.4-.5.84-1,1.26-1.64l-2.92.15-.17-1.36c1.11,0,2.5-.1,4-.15.37-.67.77-1.31,1.12-2h-4v-4h4.68v-1h-4v-2.68h-1.66v-1.41h1.66v-2.53h4v-1.73h1.46v1.73h4.21v2.53h1.69v1.41h-1.69v2.68h-4.21v1h4.81v4h-5.23a17.35,17.35,0,0,1-1,1.86c1.21,0,2.48-.12,3.76-.2v-1.16h1.51v1.09l1.24-.08,0,1.29ZM538,488.61h3.1v-1.53H538Zm.69-9.14v1.32h2.41v-1.32Zm2.41,4V482H538.7v1.49Zm-.87,9.54c-.25.4-.52.76-.77,1.11,1,.33,2.09.72,3.1,1.14a4.71,4.71,0,0,0,2.08-2.48Zm2.33-13.58v1.32h2.58v-1.32Zm2.58,4V482h-2.58v1.49Zm-2.58,3.57v1.53h3.17v-1.53Zm13.48-4.24a35.55,35.55,0,0,1-2.26,9.49,12.18,12.18,0,0,0,4.19,5.15,5.8,5.8,0,0,0-1.11,1.31,12.39,12.39,0,0,1-3.9-4.68,14.83,14.83,0,0,1-4.48,5.11,5.77,5.77,0,0,0-1-1.39,12.85,12.85,0,0,0,4.65-5.57,34,34,0,0,1-1.81-6.55,15.4,15.4,0,0,1-1.31,2.73,14.26,14.26,0,0,0-1.26-1.12c1.63-2.6,2.6-6.61,3.17-10.67l1.56.24c-.2,1.44-.47,2.9-.79,4.29h6v1.66Zm-4.76,0a41.34,41.34,0,0,0,1.66,7.33,35,35,0,0,0,1.44-7.33Z" fill="#4c4948"/>
  </g>
  <rect x="371.62" y="419.44" width="74.77" height="35.08" fill="#0068b6"/>
  <rect x="459.6" y="236.4" width="74.77" height="218.12" fill="#f5ab18"/>
  <g>
    <path d="M380.79,393a7.75,7.75,0,0,1,12.58,0,14.83,14.83,0,0,1,0,13.9,7.75,7.75,0,0,1-12.58,0,15,15,0,0,1,0-13.9Zm3.3,12.25a3.72,3.72,0,0,0,6,0,12,12,0,0,0,0-10.57,3.7,3.7,0,0,0-6,0,12.15,12.15,0,0,0,0,10.57Z" fill="#002f7c"/>
    <path d="M399.49,404.92a2.51,2.51,0,1,1-2.5,2.5A2.52,2.52,0,0,1,399.49,404.92Z" fill="#002f7c"/>
    <path d="M403.87,404.51a5.07,5.07,0,0,1,3.5-4.76,4.78,4.78,0,0,1-3.06-4.41c0-3.25,2.89-5.53,6.83-5.53s6.85,2.28,6.85,5.53a4.79,4.79,0,0,1-3.08,4.41,5.09,5.09,0,0,1,3.52,4.76c0,3.25-2.83,5.64-7.29,5.64S403.87,407.76,403.87,404.51Zm10.79-.39c0-1.54-1.21-2.92-3.52-2.92s-3.5,1.38-3.5,2.92,1.24,2.86,3.5,2.86S414.66,405.64,414.66,404.12Zm-.44-8.53c0-1.41-1.16-2.62-3.08-2.62a2.76,2.76,0,0,0-3.06,2.62,2.82,2.82,0,0,0,3.06,2.75C413,398.29,414.22,397.13,414.22,395.59Z" fill="#002f7c"/>
    <path d="M424.09,398.2l5.28-4.67h-8.75v-3.31h13.62v3.14l-5.2,4.49a5.77,5.77,0,0,1,5.75,5.91c0,3.36-2.67,6.39-7.35,6.39-4.51,0-7.21-2.92-7.45-6.17l3.68-.74a3.66,3.66,0,0,0,3.75,3.64c2.26,0,3.52-1.44,3.52-3.14a3.12,3.12,0,0,0-3.41-3.17,4.22,4.22,0,0,0-1.71.39Z" fill="#002f7c"/>
  </g>
  <g>
    <path d="M470.11,218.42l8.23-11.24h4.82v12h3.22v3.33h-3.22v4.21h-3.77v-4.21h-9.28Zm9.28-7.35-5.89,8.09h5.89Z" fill="#002f7c"/>
    <path d="M490.25,221.88a2.51,2.51,0,1,1-2.51,2.51A2.52,2.52,0,0,1,490.25,221.88Z" fill="#002f7c"/>
    <path d="M508.25,210.82a8.39,8.39,0,0,0-3.27-.75,6.28,6.28,0,0,0-6.58,6,5.48,5.48,0,0,1,4.87-2.29c3.91,0,6.6,2.53,6.6,6.52s-3.27,6.8-7.45,6.8-7.82-2.94-7.82-9c0-7,4.4-11.37,10.6-11.37a7.94,7.94,0,0,1,4.13,1Zm-5.83,13.07a3.45,3.45,0,0,0,3.66-3.47,3.49,3.49,0,0,0-3.66-3.52,3.5,3.5,0,1,0,0,7Z" fill="#002f7c"/>
    <path d="M525.52,210.46c-1.57,1.29-7,6.27-7.92,16.24h-3.94a24.44,24.44,0,0,1,7.49-16.21H510.88v-3.31h14.64Z" fill="#002f7c"/>
  </g>
  <g>
    <path d="M630.14,496.32V498H608v-1.68h7.36v-4.44h-5.57v-8.27h5.57v-3.87h-6.69V478h20.84v1.71h-6.91v3.84h5.69v8.28h-.89v0h-4.8v4.44Zm-13-6.05v6.05h3.67v-6.07h5.63v-5.08h-5.63v-5.43h-3.69v5.48h-5.55v5Z" fill="#4c4948"/>
    <path d="M639.89,477a36.39,36.39,0,0,1-2.4,5v16.87h-1.78V484.82a28.91,28.91,0,0,1-2.53,3.08,11,11,0,0,0-1.12-1.69,27.72,27.72,0,0,0,6.15-9.74Zm6.19,18.83a20.38,20.38,0,0,1-5.94,3.39,10.67,10.67,0,0,0-1.39-1.38,17.87,17.87,0,0,0,5.58-2.66Zm.23-16.68h-6.07v-1.28h6.07v-1.37h1.86v1.37h6.29v1.28h-6.29v1.22h5.59v1.24h-5.59v1.31h7.06v1.34H639.15v-1.34h7.16v-1.31h-5.45v-1.24h5.45Zm-5.23,15.64v-9.32h12.56v9.32Zm1.79-6.57h9v-1.51h-9Zm0,2.63h9v-1.54h-9Zm0,2.65h9v-1.56h-9Zm7.75,1.56a37.18,37.18,0,0,1,4.91,3.17l-1.84,1a30.69,30.69,0,0,0-4.9-3.42Z" fill="#4c4948"/>
    <path d="M666,488.81l-3.1.94v7.11c0,1.07-.24,1.54-.89,1.86a8.61,8.61,0,0,1-3.27.32,6.74,6.74,0,0,0-.57-1.71c1.12,0,2.16,0,2.46,0s.47-.1.47-.47v-6.54c-1.22.35-2.36.7-3.35,1l-.54-1.8c1.06-.28,2.43-.65,3.89-1.07v-5.23h-3.52v-1.76h3.52v-5h1.8v5h2.81v1.76h-2.81v4.69c.95-.25,1.91-.55,2.85-.85Zm4.49-2.65c-2.43,0-3.2-.77-3.2-2.9v-6.71h1.81v3h10v1.61h-10v2.18c0,.92.27,1.27,1.36,1.27H677a18.27,18.27,0,0,0,2.73-.18c.07.5.15,1.19.22,1.61a17,17,0,0,1-2.85.15Zm-3.17,2.1H679V499h-1.81v-1h-8v1.14h-1.75Zm1.75,1.59v2.45h8v-2.45Zm8,6.57v-2.61h-8v2.61Z" fill="#4c4948"/>
    <path d="M693.31,492.72a5.43,5.43,0,0,1-2.13,3.28,23.25,23.25,0,0,1,2.85,1.46l-1.22,1.06a30.28,30.28,0,0,0-3-1.61,25.14,25.14,0,0,1-6.94,2.13,5.5,5.5,0,0,0-.77-1.23,25.69,25.69,0,0,0,6-1.64,29.09,29.09,0,0,0-3.81-1.36c.39-.5.84-1,1.26-1.64l-2.93.15-.17-1.36c1.12,0,2.5-.1,4-.15.38-.67.77-1.31,1.12-2h-4v-4h4.69v-1h-4v-2.68h-1.65v-1.41h1.65v-2.53h4v-1.73h1.46v1.73h4.21v2.53h1.68v1.41h-1.68v2.68h-4.21v1h4.8v4h-5.23a17.24,17.24,0,0,1-1,1.86c1.21,0,2.47-.12,3.76-.2v-1.16h1.51v1.09l1.24-.08,0,1.29Zm-8.25-4.11h3.1v-1.53h-3.1Zm.69-9.14v1.32h2.41v-1.32Zm2.41,4V482h-2.41v1.49Zm-.87,9.54c-.25.4-.52.76-.77,1.11,1,.33,2.08.72,3.1,1.14a4.81,4.81,0,0,0,2.08-2.48Zm2.33-13.58v1.32h2.57v-1.32Zm2.57,4V482h-2.57v1.49Zm-2.57,3.57v1.53h3.17v-1.53Zm13.47-4.24a35.57,35.57,0,0,1-2.25,9.49,12.24,12.24,0,0,0,4.18,5.15,6.07,6.07,0,0,0-1.11,1.31,12.28,12.28,0,0,1-3.89-4.68,14.83,14.83,0,0,1-4.48,5.11,5.56,5.56,0,0,0-1-1.39,12.87,12.87,0,0,0,4.66-5.57,34,34,0,0,1-1.81-6.55,16.92,16.92,0,0,1-1.31,2.73,14.45,14.45,0,0,0-1.27-1.12c1.64-2.6,2.6-6.61,3.18-10.67l1.56.24c-.2,1.44-.48,2.9-.8,4.29h6v1.66Zm-4.75,0a40.48,40.48,0,0,0,1.66,7.33,34.39,34.39,0,0,0,1.43-7.33Z" fill="#4c4948"/>
  </g>
  <rect x="575.68" y="272.13" width="74.77" height="182.39" fill="#0068b6"/>
  <rect x="663.66" y="336.15" width="74.78" height="118.37" fill="#f5ab18"/>
  <g>
    <path d="M587.14,250.9l5.28-4.68h-8.75v-3.31H597.3v3.14l-5.21,4.49a5.78,5.78,0,0,1,5.75,5.92c0,3.36-2.66,6.38-7.34,6.38-4.52,0-7.22-2.91-7.46-6.16l3.69-.74a3.65,3.65,0,0,0,3.74,3.63c2.26,0,3.52-1.43,3.52-3.14a3.11,3.11,0,0,0-3.41-3.16,4.21,4.21,0,0,0-1.71.38Z" fill="#002f7c"/>
    <path d="M602.23,257.61a2.51,2.51,0,1,1-2.5,2.51A2.52,2.52,0,0,1,602.23,257.61Z" fill="#002f7c"/>
    <path d="M607.93,258.69a8.17,8.17,0,0,0,3.5.82c3.85,0,6.14-2.23,6.33-5.83a5.31,5.31,0,0,1-4.65,2.17,6.43,6.43,0,0,1-6.72-6.55c0-4,3.22-6.8,7.38-6.8s7.73,2.95,7.73,9.14c0,7.05-3.44,11.2-10,11.2a9.54,9.54,0,0,1-4.52-1.07Zm5.76-12.94a3.46,3.46,0,1,0,3.57,3.44A3.42,3.42,0,0,0,613.69,245.75Z" fill="#002f7c"/>
    <path d="M622.89,254.15l8.24-11.24h4.81v12h3.22v3.33h-3.22v4.21h-3.77v-4.21h-9.28Zm9.28-7.35-5.89,8.09h5.89Z" fill="#002f7c"/>
  </g>
  <g>
    <path d="M674.55,314.17a7.48,7.48,0,0,1-.11-1.21c0-3.38,2.53-6.44,7-6.44s6.91,2.84,6.91,6.17a7,7,0,0,1-3.74,6.05l-3.8,2.34a4,4,0,0,0-1.85,2h9.5v3.33H674.27a8.78,8.78,0,0,1,4.63-8.15l3.19-2c1.68-1.05,2.4-2.15,2.4-3.55a2.84,2.84,0,0,0-3.14-2.89c-2.2,0-3.25,1.51-3.25,3.44a6,6,0,0,0,.11,1.05Z" fill="#002f7c"/>
    <path d="M692.89,321.63a2.51,2.51,0,1,1-2.51,2.51A2.52,2.52,0,0,1,692.89,321.63Z" fill="#002f7c"/>
    <path d="M696.8,318.17,705,306.93h4.82v12h3.22v3.33h-3.22v4.21h-3.77v-4.21H696.8Zm9.28-7.35-5.89,8.09h5.89Z" fill="#002f7c"/>
    <path d="M718.23,314.91l5.28-4.67h-8.75v-3.31h13.63v3.14l-5.21,4.49a5.77,5.77,0,0,1,5.75,5.92c0,3.35-2.67,6.38-7.35,6.38-4.51,0-7.21-2.92-7.45-6.16l3.69-.75a3.65,3.65,0,0,0,3.74,3.64c2.26,0,3.52-1.43,3.52-3.14a3.12,3.12,0,0,0-3.41-3.17,4.22,4.22,0,0,0-1.71.39Z" fill="#002f7c"/>
  </g>
  <g>
    <path d="M783.26,492.35a20,20,0,0,1-2.55,4.93,14.57,14.57,0,0,0-1.29-.89,13.8,13.8,0,0,0,2.33-4.46Zm3-1.73v8.6h-1.81v-8.6h-4.93V489h4.93v-2.6h-5v-1.56h6.84a35.44,35.44,0,0,0,1.34-3.91l1.68.34c-.45,1.19-.91,2.53-1.39,3.57h3.15v1.56H786.3V489h4.49v1.59Zm4.39-9.81H779.84v-1.54h4.85c-.32-.74-.74-1.58-1.09-2.25l1.79-.47a20,20,0,0,1,1.39,2.72h3.91Zm-8.3,4a17.33,17.33,0,0,0-.94-3.44l1.46-.35a12.16,12.16,0,0,1,1,3.37Zm6.29,7a25.83,25.83,0,0,1,2.08,3.89l-1.31.74a27.12,27.12,0,0,0-2-4Zm13.21-5.08h-2.73v12.49h-1.78V486.7H794v.87c0,3.54-.32,8.4-2.57,11.62a6.1,6.1,0,0,0-1.42-1.12c2.09-3,2.28-7.21,2.28-10.5v-8.52a38.84,38.84,0,0,0,7.71-1.94l1.49,1.37a39.41,39.41,0,0,1-7.49,1.78V485h7.91Z" fill="#4c4948"/>
    <path d="M826.65,491.68v1.71H804.43v-1.71h2L806,478.5a41.05,41.05,0,0,0,4.24-1.55l.87,1.58c-1,.37-2.31.74-3.45,1l.08,2.92h2.8V484H807.8l.1,3.07h2.77v1.54h-2.73l.08,3h3.24V477.89h8.55v13.79h3.3c0-.89.1-1.9.14-3h-2.79v-1.53h2.84c0-1,.08-2.06.1-3.08h-2.8v-1.53h2.83c0-1.14.05-2.26.05-3.3h-3v-1.53h4.66c0,4.33-.22,10.18-.42,13.94ZM813.07,495a39.5,39.5,0,0,1-7.38,4.24,9.84,9.84,0,0,0-1.09-1.39,27.35,27.35,0,0,0,6.89-4Zm-.42-3.3h5.72V479.35h-5.72Zm4.93-10.6v1.26h-4.23v-1.26ZM813.67,484h3.76v5.7h-3.76Zm1,4.51h1.81v-3.32h-1.81Zm4.31,5.18a64,64,0,0,1,7.19,4l-1.21,1.42a56.54,56.54,0,0,0-7-4.12Z" fill="#4c4948"/>
    <path d="M842.1,477.88c-.18.28-.38.52-.57.8a27.88,27.88,0,0,0,10.55,7.4,5.87,5.87,0,0,0-1.19,1.56A29.93,29.93,0,0,1,840.54,480a29.09,29.09,0,0,1-10.26,7.66,8.28,8.28,0,0,0-1.26-1.54,25.24,25.24,0,0,0,11.42-9Zm-.45,19.65h9.46v1.69h-21v-1.69h3.12v-9.14h1.81v9.14h4.65V484.05h1.91v5.68h7.16v1.66h-7.16Z" fill="#4c4948"/>
    <path d="M863.29,495.23a23.07,23.07,0,0,1-7.6,3.19,6.77,6.77,0,0,0-1.12-1.38,22,22,0,0,0,7.33-2.46Zm12.93-3.45v1.56h-9.93v5.88h-1.81v-5.88H854.7v-1.56h9.78v-1.85H857v-1.42h7.46v-1.78h-8.72v-1.49h5.35a10.51,10.51,0,0,0-1.26-2.37l1.31-.35h-6.39V481h4a19.57,19.57,0,0,0-2-3.59l1.57-.54a15.43,15.43,0,0,1,2.1,3.64l-1.24.49h3V476.6H864V481h2.95V476.6h1.76V481h3l-1-.32a20.47,20.47,0,0,0,1.91-3.76l1.88.51c-.69,1.27-1.51,2.63-2.15,3.57h3.82v1.54h-6.45l1.61.44a26,26,0,0,1-1.71,2.28h5.68v1.49h-9v1.78H874v1.42h-7.75v1.85Zm-14.59-9.26a9.84,9.84,0,0,1,1.31,2.45l-1,.27h6.84l-.87-.27a20,20,0,0,0,1.46-2.45ZM869,494.46c2.33.77,5.47,2,7.18,2.75L875,498.37c-1.64-.79-4.79-2.05-7.14-2.92Z" fill="#4c4948"/>
    <path d="M884.44,477a36.45,36.45,0,0,1-2.41,5v16.87h-1.78V484.82a27.74,27.74,0,0,1-2.53,3.08,10.91,10.91,0,0,0-1.11-1.69,27.7,27.7,0,0,0,6.14-9.74Zm6.19,18.83a20.31,20.31,0,0,1-6,3.39,10,10,0,0,0-1.38-1.38,17.81,17.81,0,0,0,5.57-2.66Zm.22-16.68h-6.07v-1.28h6.07v-1.37h1.86v1.37H899v1.28h-6.29v1.22h5.6v1.24h-5.6v1.31h7.06v1.34H883.69v-1.34h7.16v-1.31H885.4v-1.24h5.45Zm-5.23,15.64v-9.32h12.57v9.32Zm1.79-6.57h9v-1.51h-9Zm0,2.63h9v-1.54h-9Zm0,2.65h9v-1.56h-9Zm7.75,1.56a37.18,37.18,0,0,1,4.91,3.17l-1.83,1a30.37,30.37,0,0,0-4.91-3.42Z" fill="#4c4948"/>
    <path d="M910.59,489l-3.1.94V497c0,1.07-.25,1.54-.89,1.86a8.61,8.61,0,0,1-3.27.32,7.63,7.63,0,0,0-.57-1.71c1.11,0,2.15,0,2.45,0s.47-.1.47-.47v-6.54l-3.34,1-.55-1.81c1.07-.27,2.43-.64,3.89-1.06v-5.23h-3.52V481.6h3.52v-5h1.81v5h2.8v1.76h-2.8V488c.94-.24,1.91-.54,2.85-.84Zm4.48-2.65c-2.43,0-3.19-.77-3.19-2.9V476.7h1.8v3h10v1.61h-10v2.18c0,.92.28,1.26,1.37,1.26h6.49a18.33,18.33,0,0,0,2.72-.17c.08.5.15,1.19.23,1.61a17.15,17.15,0,0,1-2.86.15Zm-3.17,2.1h11.59v10.71h-1.8v-1h-8v1.14H911.9Zm1.76,1.59v2.45h8V490Zm8,6.56V494h-8v2.6Z" fill="#4c4948"/>
    <path d="M937.85,492.72a5.39,5.39,0,0,1-2.13,3.28,21.87,21.87,0,0,1,2.85,1.46l-1.21,1.06a30.56,30.56,0,0,0-3.05-1.61,25.14,25.14,0,0,1-6.94,2.13,5.16,5.16,0,0,0-.77-1.23,25.65,25.65,0,0,0,6-1.64,29.21,29.21,0,0,0-3.82-1.36c.4-.5.84-1,1.26-1.64l-2.92.15-.17-1.36c1.11,0,2.5-.1,4-.15.37-.67.77-1.31,1.12-2h-4v-4h4.68v-1h-4v-2.68h-1.66v-1.41h1.66v-2.53h4v-1.73h1.46v1.73h4.21v2.53h1.69v1.41h-1.69v2.68h-4.21v1H939v4h-5.23a19.28,19.28,0,0,1-1,1.86c1.21,0,2.48-.12,3.76-.2v-1.16H938v1.09l1.24-.08,0,1.29Zm-8.25-4.11h3.1v-1.53h-3.1Zm.69-9.14v1.32h2.41v-1.32Zm2.41,4V482h-2.41v1.49Zm-.87,9.54c-.25.4-.52.76-.77,1.11,1,.33,2.09.72,3.1,1.14a4.71,4.71,0,0,0,2.08-2.48Zm2.33-13.58v1.32h2.58v-1.32Zm2.58,4V482h-2.58v1.49Zm-2.58,3.57v1.53h3.17v-1.53Zm13.48-4.24a35.55,35.55,0,0,1-2.26,9.49,12.18,12.18,0,0,0,4.19,5.15,5.8,5.8,0,0,0-1.11,1.31,12.39,12.39,0,0,1-3.9-4.68,14.83,14.83,0,0,1-4.48,5.11,5.77,5.77,0,0,0-1-1.39,12.85,12.85,0,0,0,4.65-5.57,34,34,0,0,1-1.81-6.55,15.4,15.4,0,0,1-1.31,2.73,14.26,14.26,0,0,0-1.26-1.12c1.63-2.6,2.6-6.61,3.17-10.67l1.56.24c-.2,1.44-.47,2.9-.79,4.29h6v1.66Zm-4.76,0a41.34,41.34,0,0,0,1.66,7.33,35,35,0,0,0,1.44-7.33Z" fill="#4c4948"/>
  </g>
  <rect x="781.1" y="256.45" width="74.77" height="198.07" fill="#0068b6"/>
  <rect x="869.07" y="294.32" width="74.77" height="160.2" fill="#f5ab18"/>
  <g>
    <path d="M787.31,238.47l8.23-11.23h4.81v12h3.23v3.33h-3.23v4.21h-3.76v-4.21h-9.28Zm9.28-7.35-5.89,8.09h5.89Z" fill="#002f7c"/>
    <path d="M807.44,241.93a2.51,2.51,0,1,1-2.51,2.51A2.52,2.52,0,0,1,807.44,241.93Z" fill="#002f7c"/>
    <path d="M813.55,230a7.75,7.75,0,0,1,12.58,0,14.77,14.77,0,0,1,0,13.91,7.75,7.75,0,0,1-12.58,0,15.08,15.08,0,0,1,0-13.91Zm3.31,12.25a3.69,3.69,0,0,0,6,0,11.88,11.88,0,0,0,0-10.57,3.71,3.71,0,0,0-6,0,12.15,12.15,0,0,0,0,10.57Z" fill="#002f7c"/>
    <path d="M829.28,238.47l8.24-11.23h4.81v12h3.22v3.33h-3.22v4.21h-3.77v-4.21h-9.28Zm9.28-7.35-5.89,8.09h5.89Z" fill="#002f7c"/>
  </g>
  <g>
    <path d="M883.39,273.09l5.28-4.67h-8.75v-3.31h13.63v3.14l-5.21,4.49a5.78,5.78,0,0,1,5.76,5.91c0,3.36-2.67,6.39-7.35,6.39-4.52,0-7.22-2.92-7.46-6.17l3.69-.74a3.64,3.64,0,0,0,3.74,3.63c2.26,0,3.52-1.43,3.52-3.14a3.12,3.12,0,0,0-3.41-3.16,4.38,4.38,0,0,0-1.71.38Z" fill="#002f7c"/>
    <path d="M898.48,279.81a2.51,2.51,0,1,1-2.5,2.5A2.52,2.52,0,0,1,898.48,279.81Z" fill="#002f7c"/>
    <path d="M906.66,273.09l5.28-4.67h-8.75v-3.31h13.63v3.14l-5.21,4.49a5.78,5.78,0,0,1,5.76,5.91c0,3.36-2.67,6.39-7.35,6.39-4.51,0-7.21-2.92-7.46-6.17l3.69-.74a3.65,3.65,0,0,0,3.74,3.63c2.26,0,3.52-1.43,3.52-3.14a3.12,3.12,0,0,0-3.41-3.16,4.42,4.42,0,0,0-1.71.38Z" fill="#002f7c"/>
    <path d="M918.78,276.34,927,265.11h4.82v12h3.22v3.33h-3.22v4.22h-3.77v-4.22h-9.28Zm9.28-7.35-5.89,8.09h5.89Z" fill="#002f7c"/>
  </g>
  <g>
    <path d="M983.69,478a25.44,25.44,0,0,0,10.51,8.45,7.28,7.28,0,0,0-1.37,1.56,30.29,30.29,0,0,1-10.13-8.25,38.13,38.13,0,0,1-10.3,8.55,6.69,6.69,0,0,0-1.12-1.56,31.54,31.54,0,0,0,9.29-7h-4.41V478Zm-.1,19.57h9.57v1.69H972.3v-1.69h9.39v-4.14h-6.94v-1.63h6.94V488h-5.88v-1.66h13.78V488h-6v3.77h7v1.63h-7Z" fill="#4c4948"/>
    <path d="M1004.35,494.09c-2.75.86-5.68,1.78-7.91,2.52l-.39-1.78c.89-.25,2-.57,3.24-.94v-6.81h-2.77v-1.74h2.77V480h-3v-1.73h7.55V480H1001v5.38h2.5v1.74H1001v6.29l3-1Zm14.07-9.27a56.68,56.68,0,0,1-4.31,5.33,14.18,14.18,0,0,0,5,5.87,4.3,4.3,0,0,0-1.17,1.39,15.74,15.74,0,0,1-5.72-7.46v6.94c0,1.11-.29,1.63-1,1.93a9.83,9.83,0,0,1-3.77.4,7.67,7.67,0,0,0-.67-1.79c1.44.05,2.7,0,3.07,0s.55-.14.55-.56V491c-2,2-4.14,4.09-5.82,5.67l-1.14-1.58c1.68-1.39,4.41-3.82,7-6.12v-6.44h-6v-1.71h6v-4.29h1.78v4.29h6.49v1.71h-6.49v.89a30.69,30.69,0,0,0,1.22,5.18,36.47,36.47,0,0,0,3.32-4.69Zm-12.14-.72a19.68,19.68,0,0,1,2.7,4.59l-1.51.71a21.45,21.45,0,0,0-2.63-4.63Zm10.11-3.57a14.7,14.7,0,0,0-2.93-2.72l1.07-1a18.34,18.34,0,0,1,3,2.58Z" fill="#4c4948"/>
    <path d="M1043.26,479.2v1.58h-21.58V479.2h10.13c-.22-.72-.52-1.56-.77-2.25l1.78-.43c.35.85.73,1.89,1,2.68Zm-.8,18.08c0,.89-.22,1.27-.89,1.51a11,11,0,0,1-3.27.23,5.91,5.91,0,0,0-.59-1.37c1.06.06,2.2,0,2.5,0s.42-.1.42-.4V490h-16.28v9.19h-1.78V488.46h19.89Zm-2.67-15.11v5h-14.37v-5Zm-2.23,14.39h-8.72v1.22h-1.71v-6.29h10.43Zm.35-13h-10.68v2.22h10.68Zm-9.07,9.33v2.31h7.06v-2.31Z" fill="#4c4948"/>
    <path d="M1052.67,476.94h1.81v22.28h-1.81v-6.87c-4.5,1.66-5.22,2-5.69,2.41a8,8,0,0,0-.75-1.69,1.83,1.83,0,0,0,.85-1.66V479.3h1.8v12.56l3.79-1.27Zm13.7,6.15a28.28,28.28,0,0,1-3.29,9.76,14.56,14.56,0,0,0,5.35,4.73,6.25,6.25,0,0,0-1.26,1.51,15.72,15.72,0,0,1-5.11-4.68,17.44,17.44,0,0,1-5.67,4.81,8.31,8.31,0,0,0-1.21-1.52,15.22,15.22,0,0,0,5.84-4.9,29.62,29.62,0,0,1-3-7.06,17.21,17.21,0,0,1-2,3.17,13.07,13.07,0,0,0-1.31-1.54c2.13-2.5,3.42-6.54,4.11-10.82l1.88.32c-.27,1.53-.64,3.05-1,4.48h8.48v1.74Zm-7.35.37a30.85,30.85,0,0,0,3,7.68,26.28,26.28,0,0,0,2.51-8.05h-5.36Z" fill="#4c4948"/>
    <path d="M1093.38,497.55v1.67H1071v-1.67h3.19v-7.68h16.13v7.68Zm-.5-13.72h-21.42v-1.66h6.36a19.27,19.27,0,0,0-2.48-4.09l1.57-.69a20.65,20.65,0,0,1,2.62,4.11l-1.31.67h8l-1.31-.5a24.78,24.78,0,0,0,2.57-4.31l1.84.57a37.59,37.59,0,0,1-2.85,4.24h6.46Zm-13.22,2a35.76,35.76,0,0,1-7,4.36,7.92,7.92,0,0,0-1.11-1.44,26.82,26.82,0,0,0,6.81-3.81Zm-3.8,11.74h3.1v-6.07h-3.1Zm4.78-6.07v6.07h3.13v-6.07Zm11.28-1.81a59.19,59.19,0,0,0-7.48-3.36l.89-1.32a67.13,67.13,0,0,1,7.53,3.2Zm-6.47,1.81v6.07h3.15v-6.07Z" fill="#4c4948"/>
    <path d="M1103.15,477a35.28,35.28,0,0,1-2.4,5v16.87H1099V484.82a27.74,27.74,0,0,1-2.53,3.08,11.69,11.69,0,0,0-1.11-1.69,27.7,27.7,0,0,0,6.14-9.74Zm6.2,18.83a20.31,20.31,0,0,1-5.95,3.39,10,10,0,0,0-1.38-1.38,17.81,17.81,0,0,0,5.57-2.66Zm.22-16.68h-6.07v-1.28h6.07v-1.37h1.86v1.37h6.29v1.28h-6.29v1.22h5.6v1.24h-5.6v1.31h7.06v1.34h-16.08v-1.34h7.16v-1.31h-5.45v-1.24h5.45Zm-5.23,15.64v-9.32h12.57v9.32Zm1.79-6.57h9v-1.51h-9Zm0,2.63h9v-1.54h-9Zm0,2.65h9v-1.56h-9Zm7.75,1.56a37.18,37.18,0,0,1,4.91,3.17l-1.83,1a31.29,31.29,0,0,0-4.91-3.42Z" fill="#4c4948"/>
    <path d="M1129.37,489l-3.1.94V497c0,1.07-.25,1.54-.89,1.86a8.61,8.61,0,0,1-3.27.32,6.74,6.74,0,0,0-.57-1.71c1.12,0,2.16,0,2.45,0s.48-.1.48-.47v-6.54c-1.22.35-2.36.69-3.35,1l-.55-1.81c1.07-.27,2.43-.64,3.9-1.06v-5.23H1121V481.6h3.52v-5h1.8v5h2.8v1.76h-2.8V488c.94-.24,1.91-.54,2.85-.84Zm4.49-2.65c-2.43,0-3.2-.77-3.2-2.9V476.7h1.81v3h10v1.61h-10v2.18c0,.92.27,1.26,1.36,1.26h6.49a18.14,18.14,0,0,0,2.72-.17c.08.5.15,1.19.23,1.61a17,17,0,0,1-2.85.15Zm-3.18,2.1h11.6v10.71h-1.81v-1h-8v1.14h-1.76Zm1.76,1.59v2.45h8V490Zm8,6.56V494h-8v2.6Z" fill="#4c4948"/>
    <path d="M1156.55,492.72a5.39,5.39,0,0,1-2.13,3.28,21.87,21.87,0,0,1,2.85,1.46l-1.21,1.06a30.56,30.56,0,0,0-3-1.61,25.14,25.14,0,0,1-6.94,2.13,5.5,5.5,0,0,0-.77-1.23,25.65,25.65,0,0,0,6-1.64,29.21,29.21,0,0,0-3.82-1.36c.4-.5.84-1,1.26-1.64l-2.92.15-.17-1.36c1.11,0,2.5-.1,4-.15.37-.67.77-1.31,1.12-2h-4v-4h4.68v-1h-4v-2.68h-1.66v-1.41h1.66v-2.53h4v-1.73h1.46v1.73h4.21v2.53h1.69v1.41h-1.69v2.68h-4.21v1h4.81v4h-5.23a19.28,19.28,0,0,1-1,1.86c1.21,0,2.47-.12,3.76-.2v-1.16h1.51v1.09l1.24-.08,0,1.29Zm-8.25-4.11h3.1v-1.53h-3.1Zm.69-9.14v1.32h2.41v-1.32Zm2.41,4V482H1149v1.49Zm-.87,9.54c-.25.4-.52.76-.77,1.11,1,.33,2.08.72,3.1,1.14a4.71,4.71,0,0,0,2.08-2.48Zm2.33-13.58v1.32h2.58v-1.32Zm2.58,4V482h-2.58v1.49Zm-2.58,3.57v1.53H1156v-1.53Zm13.48-4.24a35.55,35.55,0,0,1-2.26,9.49,12.18,12.18,0,0,0,4.19,5.15,5.8,5.8,0,0,0-1.11,1.31,12.39,12.39,0,0,1-3.9-4.68,14.83,14.83,0,0,1-4.48,5.11,5.77,5.77,0,0,0-1-1.39,12.85,12.85,0,0,0,4.65-5.57,34,34,0,0,1-1.81-6.55,15.4,15.4,0,0,1-1.31,2.73,14.26,14.26,0,0,0-1.26-1.12c1.63-2.6,2.6-6.61,3.17-10.67l1.56.24c-.2,1.44-.47,2.9-.79,4.29h6v1.66Zm-4.76,0a41.34,41.34,0,0,0,1.66,7.33,35,35,0,0,0,1.44-7.33Z" fill="#4c4948"/>
  </g>
  <rect x="986.04" y="221.54" width="74.78" height="232.98" fill="#0068b6"/>
  <rect x="1074.02" y="178.39" width="74.77" height="276.13" fill="#f5ab18"/>
  <g>
    <path d="M996.46,206.16l8.24-11.24h4.81v12h3.22v3.33h-3.22v4.21h-3.77v-4.21h-9.28Zm9.28-7.35-5.89,8.09h5.89Z" fill="#002f7c"/>
    <path d="M1016.6,209.62a2.51,2.51,0,1,1-2.51,2.51A2.52,2.52,0,0,1,1016.6,209.62Z" fill="#002f7c"/>
    <path d="M1021,209.21a5.09,5.09,0,0,1,3.49-4.76,4.77,4.77,0,0,1-3.05-4.4c0-3.25,2.89-5.54,6.82-5.54s6.86,2.29,6.86,5.54a4.79,4.79,0,0,1-3.09,4.4,5.12,5.12,0,0,1,3.53,4.76c0,3.25-2.84,5.65-7.3,5.65S1021,212.46,1021,209.21Zm10.79-.38c0-1.55-1.21-2.92-3.53-2.92s-3.49,1.37-3.49,2.92,1.24,2.86,3.49,2.86S1031.77,210.34,1031.77,208.83Zm-.44-8.54c0-1.4-1.16-2.61-3.09-2.61a2.75,2.75,0,0,0-3,2.61,2.83,2.83,0,0,0,3,2.76C1030.14,203,1031.33,201.83,1031.33,200.29Z" fill="#002f7c"/>
    <path d="M1041.41,214.44V201.17h-4.68v-2.58c2.81-.09,4.77-1.63,5.15-3.67h3.3v19.52Z" fill="#002f7c"/>
  </g>
  <g>
    <path d="M1088.75,162.36a3.63,3.63,0,0,0,3.8,3.47,3.43,3.43,0,1,0-.06-6.85,4.16,4.16,0,0,0-3.17,1.35c-.57-.22-3-1.05-3.55-1.27l2.37-9.88h10.76v3.3h-8.17l-1.13,4.65a5.63,5.63,0,0,1,3.66-1.23c3.91,0,6.66,2.36,6.66,6.49,0,3.63-2.78,6.72-7.37,6.72-4.24,0-7.11-2.81-7.38-5.89Z" fill="#002f7c"/>
    <path d="M1104.06,163.88a2.51,2.51,0,1,1-2.5,2.5A2.52,2.52,0,0,1,1104.06,163.88Z" fill="#002f7c"/>
    <path d="M1122.42,152.45c-1.57,1.3-7,6.28-7.92,16.24h-3.94a24.47,24.47,0,0,1,7.49-16.21h-10.27v-3.3h14.64Z" fill="#002f7c"/>
    <path d="M1137,152.81a8.35,8.35,0,0,0-3.27-.74,6.29,6.29,0,0,0-6.58,6,5.52,5.52,0,0,1,4.87-2.29c3.91,0,6.61,2.54,6.61,6.53s-3.28,6.8-7.46,6.8-7.82-3-7.82-9c0-7,4.41-11.37,10.6-11.37a7.93,7.93,0,0,1,4.13,1Zm-5.83,13.08a3.45,3.45,0,0,0,3.66-3.47,3.5,3.5,0,0,0-3.66-3.53,3.5,3.5,0,1,0,0,7Z" fill="#002f7c"/>
  </g>
  <g>
    <path d="M49.87,586.22c-.8,5.66-2.75,10.11-5.27,12.48a8,8,0,0,0-1.53-1.55c2.15-1.9,3.74-5.31,4.52-9.47H43.8v-1.86h4.43l.37-.09Zm4.65,7.92h3.67v1.77H54.52V598c0,1.17-.27,1.73-1.07,2a11.3,11.3,0,0,1-3.85.37,8.62,8.62,0,0,0-.75-2c1.35.07,2.68.07,3,0s.53-.13.53-.46v-2.13H48.58v-1.77h3.85v-1.72H49.56v-1.75h2.87V589H50v-1.75h2.45v-1.84a17.85,17.85,0,0,0,4-2.46H46.7V581.1H58.48l.46-.09,1.42,1a22.74,22.74,0,0,1-5.84,4.3v.95h2.3V589h-2.3v1.64h2.67v1.75H54.52Zm8.41-8.23c-1.06,1-2.37,2-3.48,2.85.73,3.52,2.11,6.71,4.28,8.33a7.2,7.2,0,0,0-1.44,1.72c-2.64-2.19-4-6.13-4.81-10.69a25.44,25.44,0,0,0,3.85-3.54Z" fill="#0068b6"/>
    <path d="M82.39,591.35a13.59,13.59,0,0,1-4.72,5.38,29.1,29.1,0,0,0,7.79,1.84,9.18,9.18,0,0,0-1.26,1.95A27.2,27.2,0,0,1,75.56,598a30.69,30.69,0,0,1-8.74,2.59,6.36,6.36,0,0,0-1.2-1.86,29.59,29.59,0,0,0,7.95-1.95,15,15,0,0,1-4-4.07l.4-.18H69v-1.9H80.61l.38-.07ZM68,591.22H66.11v-4.58h3.34A14.36,14.36,0,0,0,68.19,584l1.8-.51a11.89,11.89,0,0,1,1.41,2.77l-1.19.38H75a12.49,12.49,0,0,0-1-3.13l1.84-.39a12.24,12.24,0,0,1,1.11,3l-1.86.47h4.4a24.24,24.24,0,0,0,1.78-3.57l2.14.58c-.57,1-1.21,2.1-1.83,3H85v4.58H83v-2.77H68Zm16-9.32a119.8,119.8,0,0,1-17.22,1.66,6,6,0,0,0-.45-1.75,113.54,113.54,0,0,0,16.23-1.59ZM71.74,592.48a12.35,12.35,0,0,0,3.87,3.26,11.05,11.05,0,0,0,3.67-3.26Z" fill="#0068b6"/>
    <path d="M88.53,596.8H92.1V585.46H89.18v-1.61a10.21,10.21,0,0,0,3.54-1.24h1.92V596.8h3.19v2.1h-9.3Z" fill="#0068b6"/>
    <path d="M100,587.43c0-3.27,1.53-5.13,3.81-5.13s3.83,1.86,3.83,5.13-1.55,5.18-3.83,5.18S100,590.71,100,587.43Zm5.78,0c0-2.52-.82-3.63-2-3.63s-2,1.11-2,3.63.82,3.68,2,3.68S105.8,589.94,105.8,587.43Zm7.46-5.13h1.62l-8.95,16.89h-1.59ZM111.58,594c0-3.27,1.55-5.14,3.83-5.14s3.81,1.87,3.81,5.14-1.55,5.16-3.81,5.16S111.58,597.31,111.58,594Zm5.78,0c0-2.52-.82-3.63-2-3.63s-2,1.11-2,3.63.82,3.68,2,3.68S117.36,596.53,117.36,594Z" fill="#0068b6"/>
    <path d="M124.77,590.27a23.59,23.59,0,0,0-3.92-2.33l1.15-1.52a26.94,26.94,0,0,1,4,2.14Zm1.77,3.07c-1,2.31-2.24,5-3.37,7l-1.81-1.24a67.61,67.61,0,0,0,3.61-7Zm-.64-8.87a26.26,26.26,0,0,0-3.81-2.46l1.17-1.48a27,27,0,0,1,3.86,2.28Zm13.84,4.85a17.06,17.06,0,0,1-3.57,7,14.23,14.23,0,0,0,5.18,2.57,7.76,7.76,0,0,0-1.35,1.77,15.62,15.62,0,0,1-5.27-2.92,15.84,15.84,0,0,1-5,3A8.47,8.47,0,0,0,128.4,599a15.07,15.07,0,0,0,4.94-2.64,17.71,17.71,0,0,1-3.32-5.68h-.22c-.14,3.25-.71,7.23-2.75,10a7,7,0,0,0-1.75-1c2.33-3.08,2.55-7.46,2.55-10.65v-5.58h5.2v-3h2v3h4.29l.36-.07,1.48.38a29.83,29.83,0,0,1-1.84,4.54l-1.75-.51c.29-.64.62-1.53.93-2.41h-3.47v3.52h3l.4-.09Zm-9.92-4v3.52h3.23v-3.52Zm2.15,5.34a14.32,14.32,0,0,0,2.74,4.31,12.93,12.93,0,0,0,2.52-4.31Z" fill="#0068b6"/>
    <path d="M163,585.38s0,.7,0,1c-.24,9.14-.44,12.28-1.15,13.24a2,2,0,0,1-1.57.95,15.14,15.14,0,0,1-2.73,0,5.41,5.41,0,0,0-.57-1.95c1,.09,1.92.09,2.32.09a.85.85,0,0,0,.8-.35c.49-.62.71-3.43.88-11.05h-2.61c-.29,5.89-1.28,10.58-5.09,13.51a6.75,6.75,0,0,0-1.49-1.53,3.9,3.9,0,0,0,.4-.31c-3.18.37-6.37.71-8.74.93l-.27-1.75c1.29-.09,2.88-.22,4.63-.38v-1.68h-4v-1.51h4v-1.13h-4v-6.66h4v-1.15h-4.56v-1.53h4.56v-1.24c-1.35.11-2.7.18-3.94.22a6.27,6.27,0,0,0-.49-1.48,69.05,69.05,0,0,0,9.5-1.09l1,1.55a39.29,39.29,0,0,1-4.17.62v1.42h4.48v1.29h2.32c0-1.51,0-3.08,0-4.74h2c0,1.63,0,3.23,0,4.74Zm-17.49,4.09h2.28v-1.35h-2.28Zm2.28,2.61v-1.35h-2.28v1.35Zm1.88,5.49c1.37-.13,2.79-.26,4.19-.42,1.81-2.5,2.37-5.84,2.54-9.87h-2.34v-1.66h-4.39v1.15h4.12v6.66h-4.12v1.13h4.17v1.51h-4.17Zm2.37-8.1v-1.35h-2.37v1.35Zm-2.37,1.26v1.35H152v-1.35Z" fill="#0068b6"/>
    <path d="M46.39,617.3c-.13,2.74-.55,5.86-1.82,8a7,7,0,0,0-1.68-1.3c1.42-2.64,1.53-6.36,1.53-9.24V607a32.82,32.82,0,0,0,7.48-1.64l1.33,1.73a30.39,30.39,0,0,1-6.77,1.46v1.86h5.8v6.89Zm.07-5v3.17h3.83v-3.17Zm17,2H61.13v10.85h-2V614.31h-3c0,3.43-.51,8.12-3.49,11A8.39,8.39,0,0,0,51,623.92c2.79-2.73,3-6.67,3-9.77v-7.08a35.09,35.09,0,0,0,7.66-1.86l1.4,1.77a35.66,35.66,0,0,1-7,1.62v3.72h7.33Z" fill="#0068b6"/>
    <path d="M73.42,613c-.29.31-.58.6-.84.85a12.29,12.29,0,0,0-1.2-1.18,24.73,24.73,0,0,1,.29,4.08c0,3.07-.25,5.89-1.15,7.17a1.81,1.81,0,0,1-1.24.8,10.54,10.54,0,0,1-2.64.13,4.23,4.23,0,0,0-.6-2,14.84,14.84,0,0,0,2.4,0,.85.85,0,0,0,.66-.4c.51-.69.71-3.06.71-5.78v-.55A17.38,17.38,0,0,1,66.4,620a9.18,9.18,0,0,0-1.13-1.75,13.87,13.87,0,0,0,4.29-5.07,12.29,12.29,0,0,0-.66-2.48,20.79,20.79,0,0,1-2.63,2.44,7.67,7.67,0,0,0-1.16-1.84A15.48,15.48,0,0,0,68,608.93a11.92,11.92,0,0,0-2.15-2.44l1.35-1.11a14.22,14.22,0,0,1,2.06,2.15,16.71,16.71,0,0,0,1.46-2.15l1.49,1a28.19,28.19,0,0,1-1.93,2.79,12.43,12.43,0,0,1,1.09,3.32,13,13,0,0,0,3-3.72l1.44.49V608H72.33v-1.53h3.46v-1.55H77.6v4.27l1.24-.66a25.72,25.72,0,0,1,1.75,2h4.12v1.26H80.19v.89h4v1.13h-4v1h4v1.1h-4v1H85v1.28H75.21v.54H73.42Zm11.31,6.69a11,11,0,0,1-3.92,3.08,37.57,37.57,0,0,0,5.07.8,8.79,8.79,0,0,0-1.19,1.61,30.45,30.45,0,0,1-6.29-1.42A35.73,35.73,0,0,1,72,625.22a6.56,6.56,0,0,0-.9-1.61,35,35,0,0,0,4.93-.82,12.65,12.65,0,0,1-2.81-2l.76-.31H72.6V619H83.25l.31-.07Zm-6.37-8H75.21v.89h3.15Zm0,2H75.21v1h3.15Zm0,2.05H75.21v1h3.15Zm-2.53-6.59.27.09c-.23.39-.45.77-.71,1.17h3c-.33-.42-.68-.84-1-1.22l.09,0Zm-.44,11.27a12.06,12.06,0,0,0,3,1.57,13.26,13.26,0,0,0,3.06-1.57Zm6.31-11.23H79.79v-4.36H81.7v1.48h3.87V608H81.7Z" fill="#0068b6"/>
    <path d="M94.27,610.52a26.11,26.11,0,0,1-1.86,2.75v12h-2v-9.67a22.74,22.74,0,0,1-2.32,2.15,15.6,15.6,0,0,0-1-2.09,20.36,20.36,0,0,0,5.4-5.82ZM94,605.76a22.32,22.32,0,0,1-5.54,5.34,11.28,11.28,0,0,0-1.06-1.71A16.35,16.35,0,0,0,92,605Zm13.59,13.6h-3.16v3.74c0,1-.2,1.53-.93,1.81a9.56,9.56,0,0,1-3.37.33,8.72,8.72,0,0,0-.66-1.85c1.1,0,2.17,0,2.48,0s.42-.09.42-.36v-3.69H93.8v-1.77h8.53V616h-8v-1.71h12.8V616h-2.74v1.62h3.16ZM97,619.49a19.18,19.18,0,0,1,2.72,3l-1.55,1.11a19.32,19.32,0,0,0-2.63-3.13Zm9.28-6.49H95.57v-7.42h10.68Zm-2.09-5.91H97.57v1.48h6.59Zm0,2.9H97.57v1.48h6.59Z" fill="#0068b6"/>
    <path d="M129.27,608.35s0,.71,0,1c-.31,10-.57,13.41-1.46,14.52a2.45,2.45,0,0,1-1.92,1,23.13,23.13,0,0,1-3.35,0,4.68,4.68,0,0,0-.66-2c1.42.11,2.7.13,3.25.13a1,1,0,0,0,.93-.37c.71-.74,1-4.08,1.29-12.43h-5.23a21.73,21.73,0,0,1-2,3.72,10.91,10.91,0,0,0-1.62-1.15V623h-6v1.68h-1.88V608.46h2.48a25.43,25.43,0,0,0,.77-3.58l2.24.37c-.38,1.11-.8,2.28-1.15,3.21h3.54v4.19a21.15,21.15,0,0,0,3.3-7.77l2,.46c-.26,1-.55,2-.9,3Zm-16.81,1.91v4.2h4.12v-4.2Zm4.12,10.89v-4.9h-4.12v4.9Zm7.37-1.73a36.11,36.11,0,0,0-3.23-5.11l1.62-.91a40.65,40.65,0,0,1,3.34,4.94Z" fill="#0068b6"/>
    <path d="M137.9,605.27h2v20h-2v-5.89c-3.79,1.33-4.48,1.7-4.94,2.06a9.16,9.16,0,0,0-.8-1.89,1.64,1.64,0,0,0,.78-1.5V607.36h2v11l3-.93Zm12.59,5.78a25.17,25.17,0,0,1-2.85,8.53,13,13,0,0,0,4.54,3.92,6.31,6.31,0,0,0-1.42,1.66,14.66,14.66,0,0,1-4.3-3.83,15,15,0,0,1-4.73,4,9.07,9.07,0,0,0-1.35-1.7,12.63,12.63,0,0,0,4.93-4.08,28.54,28.54,0,0,1-2.41-5.6,12.19,12.19,0,0,1-1.46,2.24,15,15,0,0,0-1.46-1.75c1.88-2.19,3-5.74,3.58-9.5l2.11.35a33.36,33.36,0,0,1-.87,3.83H152v1.95Zm-6.48.47a25.4,25.4,0,0,0,2.41,6.18,22.73,22.73,0,0,0,2-6.65h-4.25Z" fill="#0068b6"/>
    <path d="M174,622.74v1.82H154v-1.82h2.72v-6.66h14.64v6.66Zm-.4-11.75H154.38v-1.82h5.49a22,22,0,0,0-2.1-3.43l1.75-.78a16.75,16.75,0,0,1,2.3,3.61l-1.19.6h6.82l-1.22-.44a24.93,24.93,0,0,0,2.17-3.79l2.08.62a35.33,35.33,0,0,1-2.41,3.61h5.55ZM162,612.63a35.74,35.74,0,0,1-6.4,3.85,8.07,8.07,0,0,0-1.24-1.66,25,25,0,0,0,6.23-3.19Zm-3.43,10.11h2.35v-4.91h-2.35Zm4.23-4.91v4.91h2.37v-4.91Zm4.12-6.18a60.84,60.84,0,0,1,6.77,2.81l-1.13,1.64a58.14,58.14,0,0,0-6.7-3Zm.13,6.18v4.91h2.39v-4.91Z" fill="#0068b6"/>
  </g>
  <g>
    <path d="M213.27,592.31c7,0,8.85,6.47,8.85,11.9s-1.78,11.86-8.85,11.86-8.86-6.53-8.86-11.86S206.25,592.31,213.27,592.31Zm0,2.84c-4.53,0-5.69,4.43-5.69,9.06s1.19,9,5.69,9,5.71-4.46,5.71-9S217.76,595.15,213.27,595.15Z" fill="#4c4948"/>
    <path d="M227.09,611.32a2.25,2.25,0,0,1,2.27,2.26,2.22,2.22,0,0,1-2.27,2.23,2.19,2.19,0,0,1-2.23-2.23A2.22,2.22,0,0,1,227.09,611.32Z" fill="#4c4948"/>
    <path d="M236.27,615.65V598.9H231.2v-2.22c2.9-.07,4.91-1.69,5.39-3.95h2.78v22.92Z" fill="#4c4948"/>
    <path d="M242,606.92l10.09-14.19h4v14.83h3.95v3h-3.95v5.14H253v-5.14H242Zm11-10.73-8,11.37h8Z" fill="#4c4948"/>
    <path d="M261.37,597.51a5.19,5.19,0,1,1,5.17,5.11A5.15,5.15,0,0,1,261.37,597.51Zm5.17,2.56a2.54,2.54,0,1,0-2.48-2.56A2.45,2.45,0,0,0,266.54,600.07Zm-2,15.58,15.06-22.92h2.94l-15,22.92Zm16,.29a5.09,5.09,0,1,1,5.21-5.11A5.15,5.15,0,0,1,280.57,615.94Zm0-2.56a2.54,2.54,0,1,0-2.48-2.55A2.44,2.44,0,0,0,280.57,613.38Z" fill="#4c4948"/>
  </g>
  <g>
    <path d="M419.49,592.31c7,0,8.86,6.47,8.86,11.9s-1.78,11.86-8.86,11.86-8.86-6.53-8.86-11.86S412.48,592.31,419.49,592.31Zm0,2.84c-4.53,0-5.69,4.43-5.69,9.06s1.2,9,5.69,9,5.72-4.46,5.72-9S424,595.15,419.49,595.15Z" fill="#4c4948"/>
    <path d="M433.32,611.32a2.25,2.25,0,0,1,2.26,2.26,2.22,2.22,0,0,1-2.26,2.23,2.19,2.19,0,0,1-2.23-2.23A2.22,2.22,0,0,1,433.32,611.32Z" fill="#4c4948"/>
    <path d="M442.49,615.65V598.9h-5.07v-2.22c2.91-.07,4.91-1.69,5.4-3.95h2.78v22.92Z" fill="#4c4948"/>
    <path d="M449,609.6a5.9,5.9,0,0,1,4.53-5.68,5.63,5.63,0,0,1-4.07-5.34c0-3.62,3.07-6.27,7.59-6.27s7.6,2.65,7.6,6.27a5.64,5.64,0,0,1-4.11,5.34,5.89,5.89,0,0,1,4.56,5.68c0,3.72-3.1,6.47-8.05,6.47S449,613.32,449,609.6Zm3.07-.29c0,2.23,1.81,4.11,5,4.11s5-1.88,5-4.11-1.71-4.14-5-4.14S452.09,607.05,452.09,609.31Zm9.47-10.53c0-2.14-1.64-3.79-4.49-3.79s-4.49,1.65-4.49,3.79,1.74,3.87,4.49,3.9S461.56,601,461.56,598.78Z" fill="#4c4948"/>
    <path d="M467.18,597.51a5.19,5.19,0,1,1,5.17,5.11A5.14,5.14,0,0,1,467.18,597.51Zm5.17,2.56a2.54,2.54,0,1,0-2.49-2.56A2.45,2.45,0,0,0,472.35,600.07Zm-2,15.58,15.06-22.92h2.94l-15,22.92Zm16,.29a5.09,5.09,0,1,1,5.2-5.11A5.16,5.16,0,0,1,486.38,615.94Zm0-2.56a2.54,2.54,0,1,0-2.49-2.55A2.44,2.44,0,0,0,486.38,613.38Z" fill="#4c4948"/>
  </g>
  <g>
    <path d="M608.19,615.42V594.67h-7.32v-4c4.39-.13,7.45-2.54,8-5.73h5.17v30.53Z" fill="#0068b6"/>
    <path d="M621.85,607.89a3.92,3.92,0,1,1-3.92,3.91A3.94,3.94,0,0,1,621.85,607.89Z" fill="#0068b6"/>
    <path d="M650,590.58a13.19,13.19,0,0,0-5.12-1.17c-5.73,0-9.69,3.62-10.29,9.39,1.12-1.89,3.79-3.57,7.62-3.57,6.11,0,10.33,4,10.33,10.2,0,6.42-5.12,10.64-11.66,10.64s-12.23-4.61-12.23-14c0-11,6.89-17.78,16.57-17.78a12.4,12.4,0,0,1,6.46,1.5ZM640.89,611a5.4,5.4,0,0,0,5.72-5.43,5.46,5.46,0,0,0-5.72-5.51,5.47,5.47,0,1,0,0,10.94Z" fill="#0068b6"/>
    <path d="M655.45,596.22a10.67,10.67,0,0,1-.17-1.9c0-5.29,4-10.07,10.93-10.07,6.76,0,10.81,4.43,10.81,9.64,0,4-2.2,7.24-5.85,9.47L665.22,607a6.3,6.3,0,0,0-2.88,3.19h14.85v5.21H655c0-5.3,1.85-9.47,7.23-12.74l5-3.11c2.62-1.63,3.74-3.35,3.74-5.55,0-2.37-1.59-4.52-4.91-4.52s-5.08,2.37-5.08,5.38a10.84,10.84,0,0,0,.17,1.64Z" fill="#0068b6"/>
    <path d="M686.68,598.46a7,7,0,0,1-7.1-7,7.15,7.15,0,0,1,14.29,0A7,7,0,0,1,686.68,598.46Zm0-4a3,3,0,0,0,0-6,3,3,0,0,0,0,6Zm-2.66,21,19.63-30.53h5.08l-19.63,30.53Zm22-13.56a7,7,0,1,1-7.15,7A7.08,7.08,0,0,1,706.1,601.86Zm0,4a3,3,0,1,0,2.84,3A2.79,2.79,0,0,0,706.1,605.91Z" fill="#0068b6"/>
  </g>
  <g>
    <path d="M819,615.59V594.84h-7.32v-4.05c4.39-.13,7.45-2.54,8-5.72h5.17v30.52Z" fill="#0068b6"/>
    <path d="M832.67,608.06a3.92,3.92,0,1,1-3.92,3.92A3.94,3.94,0,0,1,832.67,608.06Z" fill="#0068b6"/>
    <path d="M839.82,596.39a10.58,10.58,0,0,1-.17-1.9c0-5.29,4-10.07,10.93-10.07,6.76,0,10.81,4.43,10.81,9.64,0,4-2.2,7.24-5.85,9.48l-5.95,3.66a6.24,6.24,0,0,0-2.88,3.18h14.85v5.21H839.39c0-5.29,1.85-9.47,7.23-12.74l5-3.1c2.62-1.64,3.74-3.36,3.74-5.56,0-2.36-1.59-4.52-4.91-4.52s-5.08,2.37-5.08,5.39a9.57,9.57,0,0,0,.18,1.63Z" fill="#0068b6"/>
    <path d="M870.88,615.59V594.84h-7.32v-4.05c4.39-.13,7.45-2.54,8.05-5.72h5.17v30.52Z" fill="#0068b6"/>
    <path d="M887.07,598.63a7,7,0,0,1-7.1-7,7.15,7.15,0,1,1,7.1,7Zm0-4a3,3,0,0,0,0-6,3,3,0,0,0,0,6Zm-2.67,21,19.63-30.52h5.08l-19.63,30.52Zm22-13.56a7,7,0,1,1-7.14,7A7.09,7.09,0,0,1,906.49,602Zm0,4.05a3,3,0,1,0,2.85,3A2.82,2.82,0,0,0,906.49,606.08Z" fill="#0068b6"/>
  </g>
  <g>
    <path d="M1032.32,592.31c7,0,8.85,6.47,8.85,11.9s-1.78,11.86-8.85,11.86-8.86-6.53-8.86-11.86S1025.3,592.31,1032.32,592.31Zm0,2.84c-4.53,0-5.69,4.43-5.69,9.06s1.19,9,5.69,9,5.71-4.46,5.71-9S1036.81,595.15,1032.32,595.15Z" fill="#4c4948"/>
    <path d="M1046.14,611.32a2.25,2.25,0,0,1,2.27,2.26,2.22,2.22,0,0,1-2.27,2.23,2.19,2.19,0,0,1-2.23-2.23A2.22,2.22,0,0,1,1046.14,611.32Z" fill="#4c4948"/>
    <path d="M1051.18,609.6a5.9,5.9,0,0,1,4.53-5.68,5.64,5.64,0,0,1-4.08-5.34c0-3.62,3.08-6.27,7.6-6.27s7.6,2.65,7.6,6.27a5.64,5.64,0,0,1-4.11,5.34,5.89,5.89,0,0,1,4.56,5.68c0,3.72-3.11,6.47-8,6.47S1051.18,613.32,1051.18,609.6Zm3.07-.29c0,2.23,1.81,4.11,5,4.11s5-1.88,5-4.11-1.71-4.14-5-4.14S1054.25,607.05,1054.25,609.31Zm9.47-10.53c0-2.14-1.65-3.79-4.49-3.79s-4.49,1.65-4.49,3.79,1.74,3.87,4.49,3.9S1063.72,601,1063.72,598.78Z" fill="#4c4948"/>
    <path d="M1069.24,606.92l10.09-14.19h4v14.83h3.94v3h-3.94v5.14h-3.11v-5.14h-11Zm11-10.73-8,11.37h8Z" fill="#4c4948"/>
    <path d="M1088.59,597.51a5.19,5.19,0,1,1,5.18,5.11A5.15,5.15,0,0,1,1088.59,597.51Zm5.18,2.56a2.54,2.54,0,1,0-2.49-2.56A2.47,2.47,0,0,0,1093.77,600.07Zm-2,15.58,15.07-22.92h2.94l-15,22.92Zm16,.29a5.09,5.09,0,1,1,5.21-5.11A5.16,5.16,0,0,1,1107.79,615.94Zm0-2.56a2.54,2.54,0,1,0-2.48-2.55A2.44,2.44,0,0,0,1107.79,613.38Z" fill="#4c4948"/>
  </g>
</svg>
