<svg id="圖層_1" data-name="圖層 1" xmlns="http://www.w3.org/2000/svg" viewBox="0 0 438.07 188.4"><defs><style>.cls-1{fill:#4c4948;}.cls-2{fill:#0068b7;}.cls-3,.cls-4,.cls-6,.cls-7{fill:none;stroke-miterlimit:10;}.cls-3,.cls-4{stroke:#83ccd2;}.cls-3,.cls-6{stroke-width:2px;}.cls-5{fill:#76ba5a;}.cls-6,.cls-7{stroke:#b5d676;}.cls-8{fill:#dcdddd;}</style></defs><path class="cls-1" d="M312.06,36.69A10.41,10.41,0,0,1,310,39.1a7.38,7.38,0,0,0-.8-.9,8.49,8.49,0,0,0,2.69-3.47l1.1.32c-.1.25-.23.5-.36.75h7.28v.89Zm.52,6.72a7,7,0,0,1-2.47,2.42,4.26,4.26,0,0,0-.72-.81,5.89,5.89,0,0,0,2.35-1.93Zm1.29-.61v3.06h-1.06V42.8h-3.14v-.89h3.14V40h1.06v2h1.22l-.7-.27a10.42,10.42,0,0,0,1-1.59l1,.32a14.74,14.74,0,0,1-1.25,1.54h1.74v.89ZM311.28,40a5.5,5.5,0,0,1,.9,1.47l-.9.37a5.69,5.69,0,0,0-.85-1.48Zm7-1.2c0,3.55.08,5.93.93,5.93.23,0,.29-.69.31-1.72a6,6,0,0,0,.75.7c-.09,1.55-.32,2.14-1.12,2.14-1.73,0-2-2.43-2-6.17h-6.73v-.88Zm-6.56-.64v-.85h7.13v.85Zm3.1,4.91a16.76,16.76,0,0,1,2.26,1.86l-.71.67a18.63,18.63,0,0,0-2.2-1.92Z"/><path class="cls-1" d="M324.57,35.1a20.63,20.63,0,0,1-1,2.58v8.2h-1.08V39.73a11.54,11.54,0,0,1-.74,1.06,7.16,7.16,0,0,0-.57-1.19,14.33,14.33,0,0,0,2.3-4.79Zm.84,8.42h-1V37.28h1Zm4.11-.73c-.29,1.1-1.17,2.27-3.43,3.12a4.51,4.51,0,0,0-.74-.85c2-.61,2.73-1.46,3-2.27h-2.52v-1h2.69v-1.4H327.4a6.88,6.88,0,0,1-.85,1.24,6.09,6.09,0,0,0-.88-.58,6.52,6.52,0,0,0,1.45-2.66l1,.25c-.09.27-.2.54-.3.82H332v.93h-2.38v1.4h2.74v1Zm2.85-4.38h-6.56v-.95H330c.08-.4.14-.85.2-1.23h-3.75v-.94h4l.17,0,.77.1c-.07.69-.18,1.46-.29,2.12h1.29ZM330.2,43c.78.67,1.83,1.62,2.38,2.2l-.83.67c-.5-.58-1.54-1.56-2.33-2.29Z"/><path class="cls-1" d="M342.47,42.87a6.49,6.49,0,0,1-2,1.51,24.24,24.24,0,0,0,4.15.6,3.84,3.84,0,0,0-.57.91,21.18,21.18,0,0,1-4.9-1,23.57,23.57,0,0,1-5.17,1,4.93,4.93,0,0,0-.52-.92,27.15,27.15,0,0,0,4.34-.62A9.18,9.18,0,0,1,336,43.3a9,9,0,0,1-1.77,1,5.56,5.56,0,0,0-.64-.85,6.4,6.4,0,0,0,3.15-2.25l1,.31c-.11.17-.23.32-.36.49h6.72v.85Zm-8-3a9.36,9.36,0,0,1-.41,2,4.46,4.46,0,0,0-.61-.36,7.4,7.4,0,0,0,.32-1.81Zm2-.36a3.21,3.21,0,0,0-.1-.43,15.41,15.41,0,0,0-2.58.42c0-.16-.17-.54-.24-.75a1.68,1.68,0,0,0,.71-.49,8.54,8.54,0,0,0,.75-.78,4.54,4.54,0,0,0-1.23.17,7.13,7.13,0,0,0-.26-.78,1,1,0,0,0,.49-.38,8.1,8.1,0,0,0,1.07-1.74l.81.28a12.06,12.06,0,0,1-1.18,1.79l.87-.05a8.52,8.52,0,0,0,.61-.87l.78.35a18.5,18.5,0,0,1-2,2.37l1.25-.16a5.33,5.33,0,0,0-.25-.64l.64-.19a7.75,7.75,0,0,1,.57,1.68Zm-1.42,2.07a11.08,11.08,0,0,0-.2-1.73l.66-.14a10.36,10.36,0,0,1,.26,1.7Zm1.3-.27a13.81,13.81,0,0,0-.36-1.53l.61-.18a12.09,12.09,0,0,1,.4,1.5Zm.41,1.61A8.57,8.57,0,0,0,339.11,44a6.58,6.58,0,0,0,2-1.12Zm4-6.46h-3.75v-.66h1.52a5.42,5.42,0,0,0-.37-.81l.84-.27a5,5,0,0,1,.51,1.08h1.25Zm-.24,1.09h-3.25v-.63h3.25Zm0,1.11h-3.25V38h3.25Zm-3.2,2.71V39.14h3.14v2.18Zm.7-.63h1.71v-.91H338.1Zm5.69-1.24c0-.14-.06-.31-.1-.5a12.69,12.69,0,0,0-2.61.45c-.05-.17-.15-.54-.24-.75a1.72,1.72,0,0,0,.72-.48,9.32,9.32,0,0,0,.69-.76,5.17,5.17,0,0,0-1.22.17,5.72,5.72,0,0,0-.26-.76,1.15,1.15,0,0,0,.5-.36,8.68,8.68,0,0,0,1.05-1.74l.8.28A9.88,9.88,0,0,1,342,36.77l.84,0c.22-.29.44-.58.63-.88l.73.33a17.52,17.52,0,0,1-1.88,2.3l1.25-.13a5.84,5.84,0,0,0-.28-.71l.66-.17a8.19,8.19,0,0,1,.58,1.76Zm-2,.34a15.05,15.05,0,0,1-.39,1.88,5.19,5.19,0,0,0-.65-.37,10.47,10.47,0,0,0,.3-1.68Zm.58,1.68a8.54,8.54,0,0,0-.22-1.73l.67-.12a8.63,8.63,0,0,1,.25,1.7Zm1.36-.09a16.54,16.54,0,0,0-.43-1.76l.63-.14a10.8,10.8,0,0,1,.46,1.72Z"/><path class="cls-1" d="M349.76,35.13a17.91,17.91,0,0,1-1.19,2.3v8.43H347.5V39a12,12,0,0,1-1.44,1.61,6.12,6.12,0,0,0-.62-1.14,13,13,0,0,0,3.29-4.66Zm5,9.37c.66,0,.77-.51.86-2.55a3.22,3.22,0,0,0,1,.5c-.15,2.27-.43,3.07-1.8,3.07h-2.18c-1.33,0-1.71-.4-1.71-1.86V34.94H352v3.2h4.27v1.08H352v4.47c0,.67.12.81.73.81Z"/><path class="cls-1" d="M363.85,36h5.28v1.18h-3.87v2.49h3.27v1.18h-3.27v2.89h4v1.19h-5.41Z"/><path class="cls-1" d="M370.39,43.76l.83-1a3.45,3.45,0,0,0,2.37,1.05c1.08,0,1.69-.51,1.69-1.26s-.61-1.07-1.43-1.43l-1.24-.53a2.59,2.59,0,0,1-1.82-2.35,2.66,2.66,0,0,1,2.94-2.46,3.83,3.83,0,0,1,2.7,1.13l-.74.9a2.82,2.82,0,0,0-2-.8c-.91,0-1.51.43-1.51,1.15s.72,1.06,1.45,1.35l1.22.52a2.48,2.48,0,0,1,1.82,2.41c0,1.43-1.19,2.6-3.14,2.6A4.47,4.47,0,0,1,370.39,43.76Z"/><path class="cls-1" d="M377.93,40.47c0-2.91,1.79-4.66,4.16-4.66a3.54,3.54,0,0,1,2.65,1.13l-.76.9a2.41,2.41,0,0,0-1.84-.8c-1.66,0-2.77,1.28-2.77,3.38s1,3.42,2.83,3.42a2.19,2.19,0,0,0,1.4-.43v-2.1h-1.77V40.16h3.05V44a4,4,0,0,1-2.83,1C379.66,45.07,377.93,43.39,377.93,40.47Z"/><path class="cls-1" d="M390.19,41c-.39.12-.79.24-1.17.34v3.17c0,.59-.13.88-.48,1a4.12,4.12,0,0,1-1.72.2,4,4,0,0,0-.33-1c.54,0,1.05,0,1.19,0s.24-.07.24-.25V41.67l-1.4.39L386.21,41c.49-.11,1.07-.25,1.71-.42V38.15h-1.55v-1h1.55V34.74H389v2.37h1.4v1H389v2.11l1-.27Zm6.43-.76a7.73,7.73,0,0,1-2.23,3.5,9.64,9.64,0,0,0,3,1.09,5,5,0,0,0-.71,1,9.44,9.44,0,0,1-3.27-1.42A11.29,11.29,0,0,1,390,45.89a3.55,3.55,0,0,0-.56-1,9.94,9.94,0,0,0,3.07-1.11,8.49,8.49,0,0,1-1.85-2.59l.3-.11h-.61V40h5.34l.19,0Zm-4.09-3.76a3.43,3.43,0,0,1-1.89,3.27,4.44,4.44,0,0,0-.73-.83,2.49,2.49,0,0,0,1.57-2.47V35.16h4v2.71c0,.34,0,.48.22.48h.81a2.65,2.65,0,0,0,.63-.08,8.77,8.77,0,0,0,.09.95,2.43,2.43,0,0,1-.71.07h-.91c-1,0-1.2-.4-1.2-1.43V36.2h-1.87Zm-.77,4.55a6.31,6.31,0,0,0,1.7,2.05,6.33,6.33,0,0,0,1.67-2.05Z"/><path class="cls-1" d="M406,36.55a1.52,1.52,0,0,1,0,.29A5.6,5.6,0,0,0,409.52,38a3.28,3.28,0,0,0-.61.92,5.94,5.94,0,0,1-3.25-1.33c-.43.56-1.39,1.08-3.48,1.37a3.12,3.12,0,0,0-.57-.84h-3.08v-.88h3.52v.8c2.63-.34,2.91-1,2.91-1.54v-.16h-1a5.74,5.74,0,0,1-.88,1.13,4.85,4.85,0,0,0-.85-.57,5,5,0,0,0,1.39-2.24l1,.22c-.07.21-.15.4-.23.61h3.78l.16,0,.78.26a11,11,0,0,1-1.06,1.79l-.88-.31c.15-.22.34-.54.51-.84H406Zm-.1,7.35a33.67,33.67,0,0,1,3.43,1.33l-1,.61A24.51,24.51,0,0,0,405,44.47l.71-.57h-3.63l1,.46a16.48,16.48,0,0,1-3.72,1.52,9.47,9.47,0,0,0-.83-.85,12.89,12.89,0,0,0,3.49-1.13h-1.95V39H408V43.9Zm-4.13-7.65h-3V35.4h3Zm-.56,4.18h5.69v-.69H401.2Zm0,1.36h5.69v-.68H401.2Zm0,1.4h5.69v-.71H401.2Z"/><path class="cls-1" d="M309,123.47l.67-.91a2.85,2.85,0,0,0,2.09,1,1.75,1.75,0,0,0,1.77-1.91,1.66,1.66,0,0,0-1.7-1.87,2.34,2.34,0,0,0-1.43.51l-.68-.45.27-4.23h4.52v1.18H311.2L311,119a2.68,2.68,0,0,1,3.94,2.52,3,3,0,0,1-3,3.1A4,4,0,0,1,309,123.47Z"/><path class="cls-1" d="M316.28,120.06c0-2.91,1.8-4.66,4.16-4.66a3.56,3.56,0,0,1,2.66,1.13l-.76.9a2.43,2.43,0,0,0-1.85-.8c-1.66,0-2.76,1.28-2.76,3.38s1,3.42,2.82,3.42A2.2,2.2,0,0,0,322,123V120.9h-1.77v-1.16h3v3.87a4,4,0,0,1-2.82,1C318,124.66,316.28,123,316.28,120.06Z"/><path class="cls-1" d="M328.68,121.74c-.17-.36-.59-1-.95-1.6v5.3h-1.09v-4.91a11.63,11.63,0,0,1-1.56,2.83,6.52,6.52,0,0,0-.54-1,12.08,12.08,0,0,0,1.94-3.55H324.7v-1.05h1.94v-1.63c-.52.1-1.05.17-1.53.24a3.66,3.66,0,0,0-.32-.87,18.52,18.52,0,0,0,3.86-1l.64.92a11.15,11.15,0,0,1-1.56.46v1.86h1.7v1.05h-1.7v.17c.36.38,1.39,1.61,1.63,1.93Zm5.68.6v3.1h-1.11v-2.91l-3.82.65-.17-1.08,4-.67v-7.11h1.11v6.93l1.33-.22.17,1Zm-2.64-1.64a10.54,10.54,0,0,0-2-1.81l.72-.65a10.92,10.92,0,0,1,2.07,1.72Zm.3-3.19a9.8,9.8,0,0,0-1.88-1.76l.74-.64a9.93,9.93,0,0,1,1.93,1.69Z"/><path class="cls-1" d="M340.88,120.57l-1.38.4v3.19c0,.58-.12.88-.47,1a4.2,4.2,0,0,1-1.73.2,3.82,3.82,0,0,0-.34-1c.54,0,1.05,0,1.19,0s.25-.06.25-.23v-2.88l-1.34.37-.29-1.08,1.63-.39v-2.44h-1.5v-1h1.5v-2.38h1.1v2.37h1.27v1H339.5v2.14l1.25-.33Zm6.54-1.48a8.84,8.84,0,0,1-2.36,4,8.4,8.4,0,0,0,3,1.41,4.27,4.27,0,0,0-.73,1,8.48,8.48,0,0,1-3.14-1.64,10.19,10.19,0,0,1-3.31,1.61,4.53,4.53,0,0,0-.61-1,9.73,9.73,0,0,0,3.12-1.37,9.81,9.81,0,0,1-1.88-3.15l.16,0h-.49v-1h2.5v-1.66h-2.72v-1h2.72v-1.82h1.12v1.82h2.8v1h-2.8v1.66h1.72l.19,0Zm-4.83.77a7.67,7.67,0,0,0,1.63,2.5,7.11,7.11,0,0,0,1.77-2.5Z"/><path class="cls-1" d="M365.42,120.2h-2.54v5.24h-1.15V120.2H358.3a5.8,5.8,0,0,1-3.08,5.27,3.87,3.87,0,0,0-.81-.86,5,5,0,0,0,2.76-4.41h-2.65v-1.08h2.67v-2.45c-.73.21-1.46.39-2.17.55a3.26,3.26,0,0,0-.4-.92,20.3,20.3,0,0,0,5.19-1.85l.83.93a17.46,17.46,0,0,1-2.32,1v2.79h3.41v-4.58h1.15v4.58h2.54Z"/><path class="cls-1" d="M370.57,121.62c0-.19-.08-.4-.15-.65-2.69.45-3.12.54-3.36.69a7.11,7.11,0,0,0-.36-1c.3-.06.57-.35.94-.8a12.35,12.35,0,0,0,.91-1.19,5.81,5.81,0,0,0-1.58.29,10.38,10.38,0,0,0-.35-1,1.45,1.45,0,0,0,.68-.65,14.07,14.07,0,0,0,1.53-3l1,.43a17.67,17.67,0,0,1-1.74,3l1.09-.09a16.78,16.78,0,0,0,.9-1.6l.94.59a22.45,22.45,0,0,1-2.63,3.71l1.73-.23a10.18,10.18,0,0,0-.41-1l.8-.28a11.31,11.31,0,0,1,.89,2.42Zm-2.52.66a15.06,15.06,0,0,1-.58,2.92,6.52,6.52,0,0,0-.85-.31,11.83,11.83,0,0,0,.54-2.77Zm1.24-.22a20.67,20.67,0,0,1,.32,2.4l-.85.22a20.65,20.65,0,0,0-.27-2.44Zm8.09-3.57a11.34,11.34,0,0,1-1.67,4.44,5.45,5.45,0,0,0,2,1.52,3.7,3.7,0,0,0-.76,1,6.26,6.26,0,0,1-1.93-1.57,8.64,8.64,0,0,1-1.95,1.65,3.8,3.8,0,0,0-.72-.87,6.3,6.3,0,0,0,2-1.71,11.7,11.7,0,0,1-1.17-2.79,11.52,11.52,0,0,1-1.65,5.29,6.27,6.27,0,0,0-1-.72,6.41,6.41,0,0,0,.6-1l-.81.28a15.85,15.85,0,0,0-.56-2l.78-.24a12.71,12.71,0,0,1,.6,1.92c.93-1.91,1.12-4.59,1.14-7.76h-1.11v-1.05h4.2l.16,0,.78.1c-.13,1-.34,2.29-.54,3.36h.66l.21-.05Zm-4-2.56c0,.83-.05,1.61-.09,2.36h1.41c.16-.75.29-1.63.41-2.36Zm.52,3.36A10.17,10.17,0,0,0,375,122a10,10,0,0,0,1.08-2.67Z"/><path class="cls-1" d="M380.69,120a12.46,12.46,0,0,0-2-1.4l.67-.76a12.49,12.49,0,0,1,2.07,1.29Zm-1.79,4.52a30.78,30.78,0,0,0,1.87-3.77l.91.67c-.51,1.25-1.16,2.66-1.75,3.78Zm2.16-7.57a10.14,10.14,0,0,0-1.82-1.56l.77-.68a11.07,11.07,0,0,1,1.84,1.47Zm8.2,4.84a12.53,12.53,0,0,1-1.81,1.23,5.7,5.7,0,0,0,2.35,1.41,4.08,4.08,0,0,0-.72,1,6.59,6.59,0,0,1-4-4.56h-1.61V124l2.13-.65a8.55,8.55,0,0,0,.16,1c-2.61.86-3,1-3.3,1.24a3.84,3.84,0,0,0-.59-.86,1.45,1.45,0,0,0,.47-1.12v-7.93h2.84a8.16,8.16,0,0,0-.49-1.14l1-.27a9.69,9.69,0,0,1,.63,1.41h2.4v5.17h-2.61a7,7,0,0,0,.73,1.44,13.65,13.65,0,0,0,1.67-1.23Zm-5.82-5.15v1.13h4.2v-1.13Zm0,3.21h4.2v-1.14h-4.2Z"/><path class="cls-1" d="M392.52,119.76a11.49,11.49,0,0,0-1.82-1.38l.66-.74a11.38,11.38,0,0,1,1.86,1.29Zm-1.57,5a36.92,36.92,0,0,0,1.51-4.07l.89.57c-.38,1.33-.93,2.86-1.4,4.06Zm1.86-8.14a9.63,9.63,0,0,0-1.71-1.5l.71-.67a10.32,10.32,0,0,1,1.76,1.41Zm3.44,6.67v2.13h-1v-2.13h-1.77v-1h1.77v-.9h-1.36v-4h1.36v-.87h-1.56v-1h1.56v-1.27h1v1.27h1.57v1h-1.57v.87h1.36v4h-1.36v.9h1.62v1Zm-1.48-4.27h1.9v-.8h-1.9Zm0,1.59h1.9v-.83h-1.9Zm6.82,3.5c0,.54-.1.88-.42,1a3.48,3.48,0,0,1-1.59.21,4.14,4.14,0,0,0-.32-1.08c.49,0,1,0,1.12,0s.2-.06.2-.23v-2.75h-1.37a8.37,8.37,0,0,1-1.22,4.12,3.66,3.66,0,0,0-.84-.6c1-1.47,1.13-3.61,1.13-5.28v-4.84h3.31Zm-1-3.79v-1.81h-1.31v1.06c0,.24,0,.49,0,.75Zm-1.31-4.57v1.75h1.31v-1.75Z"/><path class="cls-1" d="M311.36,159.69c-.5-.34-1.51-.92-2.24-1.3l.62-.83c.69.33,1.72.86,2.25,1.2Zm1.28,1.57c-.63,1.26-1.44,2.71-2.15,3.84l-1-.75a34.38,34.38,0,0,0,2.3-3.84Zm-.67-4.77c-.48-.37-1.46-1-2.17-1.4l.66-.81c.69.39,1.68,1,2.19,1.32Zm7.67,7.46c0,.57-.12.9-.52,1.07a5.31,5.31,0,0,1-1.93.18,4.8,4.8,0,0,0-.35-1c.62,0,1.27,0,1.45,0s.25-.07.25-.24v-2l-3.81,1-.35-.95c1.05-.21,2.62-.57,4.16-.93v-2.47h-4.26V161a9.22,9.22,0,0,1-.79,4.3,4.31,4.31,0,0,0-.88-.64,7.9,7.9,0,0,0,.63-3.67v-3.49h2.65v-3.41H317v3.41h2.61Zm-5.57-6.77a8.42,8.42,0,0,0-1.15-2.25l1-.43a8.63,8.63,0,0,1,1.21,2.19Zm.95,2a13.94,13.94,0,0,1,3,1l-.49.79a12.61,12.61,0,0,0-2.92-1.07Zm5.05-4.34a20.62,20.62,0,0,1-1.29,2.27l-1-.39a13.78,13.78,0,0,0,1.19-2.29Z"/><path class="cls-1" d="M329.17,163.44c1.14.36,2.3.78,3.05,1.09l-.83.7a30.9,30.9,0,0,0-3.5-1.34l.46-.45h-3.21l.87.39a16.33,16.33,0,0,1-3.72,1.43,6.27,6.27,0,0,0-.81-.82,14.17,14.17,0,0,0,3.41-1H323v-3.71a8.28,8.28,0,0,1-1,.22,3.81,3.81,0,0,0-.53-.89,6.08,6.08,0,0,0,2.85-1h-2c.13-.57.25-1.38.33-2H325v-.59h-2.86v-.71H325v-.61h1v.61h1.65v-.61h1.06v.61h2.64v2h-2.64v.65h3.4s0,.2,0,.32a2.5,2.5,0,0,1-.32,1.26,1,1,0,0,1-.63.25h-.27v4.23Zm-5.61-6.72c0,.22-.07.44-.11.65h1.41a2.37,2.37,0,0,0,.15-.65Zm6.21,2.84h-5.66v.62h5.66Zm0,1.28h-5.66v.63h5.66Zm-5.66,1.92h5.66v-.64h-5.66Zm1.6-4.69a2.6,2.6,0,0,1-.73.8h2.71v-.8Zm2-1.35H326a2.75,2.75,0,0,1-.08.65h1.73ZM326,156h1.65v-.59H326Zm2.71-.59V156h1.61v-.59Zm0,2.64v.8H330c0-.15-.1-.28-.14-.39a6.52,6.52,0,0,0,.74.05.33.33,0,0,0,.27-.08.82.82,0,0,0,.13-.38Z"/><path class="cls-1" d="M336.75,163.38a6.78,6.78,0,0,0,3,.48c.69,0,4,0,4.9,0a3.66,3.66,0,0,0-.46,1.11h-4.45c-2.5,0-4-.37-4.94-2.06a7.08,7.08,0,0,1-.84,2.36,2.49,2.49,0,0,0-.71-.67,10,10,0,0,0,.82-5l.94.05c0,.45,0,.92,0,1.4a4.63,4.63,0,0,0,.76,1.56v-3.89h-2.19v-1h1.91v-1.22h-1.6v-1h1.6v-1.36h1v1.36H338v.83a5.93,5.93,0,0,0,1.55-2.26l1,.24c-.07.17-.16.34-.24.51h4s0,.23,0,.37c-.12,2.12-.23,2.91-.49,3.23a1,1,0,0,1-.69.29,8.63,8.63,0,0,1-1.15,0,1.85,1.85,0,0,0-.2-.72c.4,0,.75,0,.91,0a.38.38,0,0,0,.31-.11,5.69,5.69,0,0,0,.34-2.32H339.8c-.11.17-.22.34-.34.5h.1V157h.75v-1.1h.75V157h.74v-.91h.78v1.56H341a1.65,1.65,0,0,1-1,1l.37.09a4.11,4.11,0,0,1-.25.52h4.14l0,.39c-.11,2.31-.23,3.16-.52,3.48a.91.91,0,0,1-.69.31,10.8,10.8,0,0,1-1.18,0,1.94,1.94,0,0,0-.2-.75c.4,0,.76,0,.92,0a.31.31,0,0,0,.33-.11,7.05,7.05,0,0,0,.37-2.57h-3.6c-.13.2-.27.38-.4.55h.16v.94h.76v-1.16H341v1.16h.77v-.94h.79v1.64h-1.67c-.21.57-.8,1.09-2.19,1.42a2.27,2.27,0,0,0-.49-.6,2.71,2.71,0,0,0,1.76-.82h-1.28v-1l-.13.11a3.58,3.58,0,0,0-.47-.35v.1h-1.36Zm0-4.69v1.39h1.36v.33a6.35,6.35,0,0,0,1.11-1.5l-.47.09a1.65,1.65,0,0,0-.41-.55c1.09-.17,1.62-.48,1.83-.81h-1.35v-.81l-.14.14a5.76,5.76,0,0,0-.73-.5h-1.48v1.22h1.77v1Z"/><path class="cls-1" d="M348,156.8a2.37,2.37,0,0,1-1.89,1.66,3.29,3.29,0,0,0-.43-.67,1.81,1.81,0,0,0,1.48-1h-1.39V156h2.16v-.55h-1.72v-.72h1.72v-.66h1v.66h1.75v.72H349V156h2.22v.76h-1.5v.35c0,.23,0,.31.18.31h.53a2.14,2.14,0,0,0,.56-.06c0,.22,0,.45.06.67a2.09,2.09,0,0,1-.6.06h-.77c-.69,0-.82-.32-.82-1v-.34Zm7.65-1.3c0,2.61,0,4.62.38,4.62.16,0,.21-.62.22-1.44a3.82,3.82,0,0,0,.65.63c-.09,1.26-.26,1.78-1,1.78-1.15,0-1.27-1.94-1.3-4.68h-1.05a12.81,12.81,0,0,1-.25,1.67,14.33,14.33,0,0,1,1.21.79l-.51.8c-.25-.18-.6-.44-1-.7a3.83,3.83,0,0,1-1.54,1.89,2.7,2.7,0,0,0-.58-.69v.4l-5.18.37-.06-.82c.62,0,1.39-.07,2.24-.12v-.71h-1.73v-.71h1.73V158h1v.62h1.79v.71H349v.65l2-.15v.33a3.32,3.32,0,0,0,1.3-1.67l-1-.65.48-.69c.26.13.51.29.8.46a9.66,9.66,0,0,0,.16-1.15h-1.21v-.92h1.26c0-.43,0-.9,0-1.39h.95c0,.49,0,.95,0,1.39Zm0,6.11a4.21,4.21,0,0,1-.05.45c-.19,1.72-.39,2.49-.72,2.81a1.37,1.37,0,0,1-.94.36,17,17,0,0,1-1.71,0,2.12,2.12,0,0,0-.33-1c.66.06,1.32.07,1.58.07s.36,0,.47-.11.33-.64.45-1.67h-3.16c-.56,1.45-1.81,2.34-4.94,2.77a3.6,3.6,0,0,0-.51-.92c2.59-.3,3.71-.88,4.24-1.85H346.5v-.89h3.88c.05-.22.08-.45.12-.69h1.14q0,.36-.12.69Z"/><path class="cls-1" d="M364.51,162.07A19.13,19.13,0,0,1,364,165a4.91,4.91,0,0,0-.83-.32,11.55,11.55,0,0,0,.53-2.77Zm2.36-3.3a17.26,17.26,0,0,1,.81,2.28l-.81.33a3.47,3.47,0,0,0-.13-.54,13.12,13.12,0,0,0-3.18.63,6,6,0,0,0-.3-.95c.25-.07.52-.36.87-.83a13.09,13.09,0,0,0,.9-1.24,6.4,6.4,0,0,0-1.54.26,9.36,9.36,0,0,0-.32-.92c.21-.06.41-.3.65-.65a17,17,0,0,0,1.47-3l.93.39a21,21,0,0,1-1.73,3.11l1.1-.08c.3-.55.61-1.13.87-1.69l.85.53a24,24,0,0,1-2.56,3.89l1.73-.25c-.11-.32-.23-.68-.35-1Zm-1.17,3.08a21.23,21.23,0,0,1,.32,2.54l-.81.21a22.69,22.69,0,0,0-.28-2.56Zm1.24-.31a19.49,19.49,0,0,1,.71,2.29l-.77.28a17,17,0,0,0-.65-2.33Zm7.09,2.52c0,.55-.11.83-.43,1a3.64,3.64,0,0,1-1.58.18,3.64,3.64,0,0,0-.31-1c.48,0,1,0,1.11,0s.2-.06.2-.23v-8.4h-4.26v9.6h-1V154.67H374Zm-2.1-1.89a3.2,3.2,0,0,0,.7-.06c0,.24,0,.57.08.8a3.33,3.33,0,0,1-.77.06h-1.31c-.88,0-1.09-.34-1.09-1.2v-1h-.4v-.89h1.46c-.1-.28-.26-.64-.4-.93l.63-.21H369v-.87h2.14a16.33,16.33,0,0,0,.48-1.92l.8.22c-.17.56-.37,1.2-.54,1.7h.84v.87H371a10,10,0,0,1,.46,1l-.45.18h1.64v.89h-2.2v1c0,.28.05.39.27.39ZM370,156a6.6,6.6,0,0,1,.58,1.66l-.7.24a6.37,6.37,0,0,0-.55-1.69Z"/><path class="cls-1" d="M385.7,155.57a9,9,0,0,1-1.73,3.24,7.86,7.86,0,0,0,2.64,1.59,4.32,4.32,0,0,0-.69.93l-.24-.09v3.94H384.6v-.39h-2.71v.42h-1v-4c-.18.08-.35.17-.53.24a3.74,3.74,0,0,0-.32-.5v0h-1.42v1.91l1.51-.35.11,1c-1.66.43-3.42.85-4.73,1.16l-.2-1.09.58-.11v-4.09h.93v3.89l.8-.18v-4.73H375.9V154.6h4v3.11a8.63,8.63,0,0,0,2.1-3.6l1.09.27c-.1.32-.23.63-.36.94h2.06l.2,0Zm-8.82,1.87h2v-1.87h-2Zm3.13,3.07a8.22,8.22,0,0,0,2.56-1.73,9.64,9.64,0,0,1-1-1.39,9,9,0,0,1-.93,1.14,8.09,8.09,0,0,0-.78-.67v.55h-1.31V160H380Zm4.93.34a9.11,9.11,0,0,1-1.68-1.29,8.89,8.89,0,0,1-1.67,1.29Zm-.34,3v-2h-2.71v2Zm-2.32-7.55-.11.22a8.61,8.61,0,0,0,1.06,1.56,7.83,7.83,0,0,0,1.08-1.78Z"/><path class="cls-1" d="M398.33,156.31h-7.08c.24.41.55,1,.7,1.29l-.88.34H394a14,14,0,0,0,.79-1.61l1.12.25a15.56,15.56,0,0,1-.85,1.36h2.69v6.16c0,.56-.14.79-.53.93a6.55,6.55,0,0,1-2,.16,3,3,0,0,0-.34-.86c.7,0,1.39,0,1.56,0s.28-.06.28-.24v-5.25h-2.2v.58c0,.26,0,.36.24.36h.86a3.16,3.16,0,0,0,.69-.06c0,.27,0,.54.07.79a3.06,3.06,0,0,1-.74.06h-1.12c-.84,0-1-.38-1-1.16v-.57h-1.15c-.18,1.18-.73,1.85-2.39,2.22a2.21,2.21,0,0,0-.51-.77v4.93h-1.07v-7.29h2.57c-.14-.37-.45-.95-.66-1.35l.81-.28h-3.35v-1h4.89c-.11-.34-.26-.73-.38-1l1.08-.27c.17.41.37.92.49,1.31h4.53Zm-8.91,4c1.32-.24,1.76-.66,1.9-1.44h-1.9Zm2.24,3.44v.54h-.94v-3.36h4.52v2.82Zm0-2v1.2h2.66v-1.2Z"/><path class="cls-1" d="M402.43,160.73a11.82,11.82,0,0,0-.59-1.33v5.85h-1V160a13.48,13.48,0,0,1-1,2.7,7.07,7.07,0,0,0-.47-1.13,13.89,13.89,0,0,0,1.4-4.12H399.7v-1h1.17v-2.28h1v2.28h.91v1h-.91v.67c.28.4,1,1.53,1.11,1.82Zm7.51.86a7,7,0,0,1-1.41,1.88,1.51,1.51,0,0,0,1,.68c.23,0,.38-.42.47-1.28a2.85,2.85,0,0,0,.73.57c-.25,1.42-.68,1.83-1.19,1.81a2.43,2.43,0,0,1-1.83-1.14,8.51,8.51,0,0,1-2,1.09,6.42,6.42,0,0,0-.6-.73,7.44,7.44,0,0,0,2.16-1.17,11.17,11.17,0,0,1-.64-2.1H404.8c0,.12,0,.25,0,.37a15,15,0,0,1,1.6,1.4l-.69.68a10.06,10.06,0,0,0-1.08-1,4.57,4.57,0,0,1-1.72,2.64,3.9,3.9,0,0,0-.75-.66,4,4,0,0,0,1.7-3.4H403v-.89h3.48a48,48,0,0,1-.51-6.11h.95a40.3,40.3,0,0,0,.52,6.11h1.45a7.57,7.57,0,0,0-.87-.65l.5-.45a3.27,3.27,0,0,0-.86.22c-.05-.17-.19-.61-.28-.83.19,0,.37-.24.59-.54a10.11,10.11,0,0,0,.66-1,3,3,0,0,0-1.11.24,6,6,0,0,0-.28-.81c.15,0,.28-.19.43-.41a8.32,8.32,0,0,0,.8-1.85l.84.23a12.34,12.34,0,0,1-1,1.92l.72-.07a5.86,5.86,0,0,0,.38-.8l.84.31a17,17,0,0,1-1.7,2.63l1-.12c-.09-.21-.17-.44-.25-.63l.66-.19a13.21,13.21,0,0,1,.63,1.77l-.71.25c0-.15-.08-.33-.13-.52l-1.09.16a9.32,9.32,0,0,1,1.12.83l-.32.3h1v.89h-2.81a8.8,8.8,0,0,0,.44,1.39,5.81,5.81,0,0,0,.93-1.35Zm-4.52-1.88c0-.14-.05-.29-.08-.46a7.55,7.55,0,0,0-2.06.38,6.05,6.05,0,0,0-.28-.81,1.27,1.27,0,0,0,.62-.54c.12-.15.38-.53.67-1a3.65,3.65,0,0,0-1.13.24c-.05-.18-.19-.59-.27-.8a.85.85,0,0,0,.45-.43,9.21,9.21,0,0,0,.92-2l.84.24a13.46,13.46,0,0,1-1.13,2.11l.75-.07c.14-.25.28-.52.4-.79l.81.31a18.4,18.4,0,0,1-1.76,2.62l1-.13c-.07-.23-.15-.46-.23-.66l.68-.18a10.6,10.6,0,0,1,.59,1.75Z"/><path class="cls-1" d="M320,75.74v1H309.43v-1h4.81c-.11-.33-.23-.69-.34-1l1.14-.27c.16.39.36.87.48,1.26Zm-.32,8.81c0,.53-.14.74-.51.88a5.45,5.45,0,0,1-1.75.14,3.83,3.83,0,0,0-.35-.84c.51,0,1.12,0,1.25,0s.22,0,.22-.19V81.28h-7.62v4.38h-1.1V80.35h9.86Zm-1.24-7.27v2.49h-7.28V77.28Zm-5.3,7.16V85h-1V81.88h5.14v2.56Zm4.11-6.37h-5V79h5Zm-4.11,4.62v.93h3.1v-.93Z"/><path class="cls-1" d="M326.9,78.06h-5.58v-.89h.76v-2h.86v2h.82V74.54h.92v1h1.87v.85h-1.87v.79h2.22Zm-1.14.36h.81v7h-.81V85h-4.08V78.4h.8v1.76a3.19,3.19,0,0,0,.66-1.9l.58.08a5.83,5.83,0,0,1-.16.87c.21.23.4.5.54.67a3.49,3.49,0,0,0,.53-1.61l.58.09a4,4,0,0,1-.18.85,10.72,10.72,0,0,1,.73.92Zm-2.06,2c-.08-.15-.21-.36-.33-.54a2.73,2.73,0,0,1-.5.79,2.06,2.06,0,0,0-.39-.4v.5h3.28v-.58l-.39.44c-.12-.2-.34-.5-.55-.8a2.52,2.52,0,0,1-.55.8,2.91,2.91,0,0,0-.39-.41Zm2.06,1.2h-3.28v2a3.38,3.38,0,0,0,.66-1.91l.58.08a6.22,6.22,0,0,1-.16.88,6.87,6.87,0,0,1,.55.69,3.62,3.62,0,0,0,.53-1.64l.59.08a5,5,0,0,1-.19.87,9.42,9.42,0,0,1,.72.9Zm0,2.57v-.47l-.37.42c-.13-.21-.35-.52-.55-.81a2.79,2.79,0,0,1-.56.8,2.72,2.72,0,0,0-.38-.39l-.16.18c-.09-.16-.24-.36-.38-.57a2.52,2.52,0,0,1-.5.8,2.73,2.73,0,0,0-.38-.4v.44Zm4.35-9.28c-.07.17-.12.35-.19.53a10.48,10.48,0,0,0,2.57,3.12,5.06,5.06,0,0,0-.67.89,11.77,11.77,0,0,1-1-1.07v.8h-2.59v-.73a10.44,10.44,0,0,1-.91,1.1,10.72,10.72,0,0,0-.72-.81,11.06,11.06,0,0,0,2.6-4.18Zm2,5.8A17.7,17.7,0,0,1,330,83.92c.38.37.71.74,1,1l-.73.74a36.13,36.13,0,0,0-2.5-2.72l.67-.63c.27.27.6.57.92.89a15.93,15.93,0,0,0,1.47-2.1H327.3v-1h4l.16-.06Zm-1.44-2.5a13.47,13.47,0,0,1-1.2-1.86,14.6,14.6,0,0,1-1.08,1.86Z"/><path class="cls-1" d="M337.48,82c-.23-.34-.69-.88-1.1-1.35v5h-1.1V80.94a9.52,9.52,0,0,1-1.54,1.24,5.16,5.16,0,0,0-.47-1.12,9.49,9.49,0,0,0,3.34-3.46h-3v-1h2.29A7.79,7.79,0,0,0,334.81,75l.88-.5A7.63,7.63,0,0,1,336.83,76l-.88.54h1.25l.2,0,.6.42a11.29,11.29,0,0,1-1.44,2.55c.48.44,1.38,1.33,1.62,1.59Zm7.09,2.1v1.11h-6.93V84.12h3.06V79.31h-2.52V78.23h2.52V74.54h1.15v3.69h2.45v1.08h-2.45v4.81Z"/><path class="cls-1" d="M352,74.82c-.06.07-.11.16-.18.23a11.7,11.7,0,0,0,5.07,2.36,5,5,0,0,0-.72.86c-.29-.08-.6-.18-.91-.29v3.15H347V78.07c-.3.11-.59.2-.89.29a4.37,4.37,0,0,0-.61-.86,10.32,10.32,0,0,0,5.45-3ZM355.2,78a12,12,0,0,1-1.95-.86v.35h-4.19v-.29a12.16,12.16,0,0,1-1.76.8Zm-7.46,3.64h6.91v4H353.5v-.33h-4.65v.38h-1.11Zm1.65-2.83a5.2,5.2,0,0,1,.61,1.34l-.8.27h1.43V78.71H348v1.68h1.17A5.5,5.5,0,0,0,348.6,79Zm-.54,3.61v.67h4.65v-.67Zm4.65,2.12v-.68h-4.65v.68Zm-1-7.82a8.9,8.9,0,0,1-1.34-1,9.23,9.23,0,0,1-1.32,1Zm1.71,2h-2.69v1.68h1.36l-.76-.23a8.81,8.81,0,0,0,.61-1.42l1,.26c-.27.52-.54,1-.76,1.39h1.29Z"/><path class="cls-1" d="M370.27,81.06v.48h2.84v4.1h-1.06v-.41h-6.63v.41h-1v-4.1h3v-.48h-4.26v-.75h11.09v.75Zm-6.42-5.49h-.37v-.68h5.37v.68h-4.11v3.12c0,.42.09.57.52.57h2.4a6.64,6.64,0,0,0,1.14-.07,5.88,5.88,0,0,0,.1.7,6,6,0,0,1-1.17.07h-2.52c-1.06,0-1.36-.35-1.36-1.3Zm2,1.08a3.94,3.94,0,0,1-.41.49,3.34,3.34,0,0,0-.58-.36,3.27,3.27,0,0,0,.84-1.21l.66.16a3.35,3.35,0,0,1-.15.35h2.25v.57h-1.25v.55h1.46v.59h-1.43a10.07,10.07,0,0,1,1.31.91l-.46.5a7.15,7.15,0,0,0-1.22-.9,2.92,2.92,0,0,1-1.39,1,2.68,2.68,0,0,0-.47-.54,2,2,0,0,0,1.34-.93H365V77.2h1.51v-.55Zm6.19,7.93V83.26h-1.49c-.95,0-1.18-.16-1.18-.84v-.24H368.3c-.13.62-.73,1.07-2.4,1.32a3.15,3.15,0,0,0-.48-.64c1.29-.12,1.79-.38,2-.68h-2v2.4Zm-5.69-1h4.9v.59h-4.9Zm3-2.54h-1.05v.48h1.05Zm-.15-3.8a3.49,3.49,0,0,0-.59-.66c.93-.34,1.08-.74,1.08-1.15v-.62h3v1c0,.23,0,.3.17.3h.49a2.31,2.31,0,0,0,.52-.06c0,.23,0,.54.07.75a1.81,1.81,0,0,1-.56.06h-.65c-.77,0-.92-.31-.92-1.06v-.22H370.6a1.8,1.8,0,0,1-1,1.48h3.05l.17,0,.55.24a4.23,4.23,0,0,1-1.21,1.63c.55.26,1.07.49,1.44.69l-.41.66c-.43-.23-1.06-.53-1.74-.85a7.78,7.78,0,0,1-2.13.85,3.61,3.61,0,0,0-.46-.69,8.17,8.17,0,0,0,1.69-.56c-.47-.21-.93-.4-1.35-.57l.4-.57c.52.19,1.12.44,1.72.69a3.9,3.9,0,0,0,.82-.8h-2.94Zm1,4.92v.26c0,.23.06.26.39.26h1.39v-.51Z"/><path class="cls-1" d="M386.14,78.88a6.82,6.82,0,0,1-.93.8,6.14,6.14,0,0,0,1.33.72,3.31,3.31,0,0,0-.64.8,6.34,6.34,0,0,1-.88-.49v2.22H382.8v1.7c0,.5-.09.74-.46.89a5.1,5.1,0,0,1-1.66.16,3.6,3.6,0,0,0-.36-.91c.53,0,1,0,1.2,0s.2,0,.2-.17V82.93h-2.18v-2.2c-.27.18-.57.36-.88.53a2.51,2.51,0,0,0-.64-.7,8.31,8.31,0,0,1-1.71,5.1,4.15,4.15,0,0,0-.78-.74,6.37,6.37,0,0,0,1.38-3.44c-.46.28-.92.56-1.38.8l-.36-1c.48-.19,1.13-.54,1.83-.9,0-.32,0-.61,0-.92V75.58h4.11c-.07-.29-.18-.58-.27-.85L382,74.5a10.8,10.8,0,0,1,.4,1.08h4v1h-8.35v2.91c0,.33,0,.66,0,1a7.74,7.74,0,0,0,1.32-.81,10.72,10.72,0,0,0-.84-.67l.6-.51c.26.18.59.41.86.64a5.7,5.7,0,0,0,.65-.76h-2.08v-.87h2.6a4.19,4.19,0,0,0,.38-.95l1.05.15a5.21,5.21,0,0,1-.3.8h4v.87h-2.43a6.8,6.8,0,0,0,.77.85,8.3,8.3,0,0,0,.84-.8Zm-10.09.49c-.14-.6-.45-1.63-.72-2.39l.84-.32a19.66,19.66,0,0,1,.75,2.31Zm4.61,4.07a16.74,16.74,0,0,1-1.85,2,5.82,5.82,0,0,0-.86-.64,9.61,9.61,0,0,0,1.7-1.67ZM384,80.31H380.5v.62H384Zm0,1.29H380.5v.62H384Zm-2.22-3.24a7.06,7.06,0,0,1-1,1.25h2.88a6.1,6.1,0,0,1-.92-1.25Zm2.59,4.72c.58.56,1.39,1.36,1.79,1.84l-.86.54c-.38-.48-1.15-1.31-1.75-1.91Z"/><path class="cls-1" d="M390.49,74.84a24.1,24.1,0,0,1-.87,2.38v8.43h-1V79.19a9.83,9.83,0,0,1-.73,1.06,7.07,7.07,0,0,0-.53-1.17,13.1,13.1,0,0,0,2.1-4.53ZM393.12,79a15,15,0,0,1-.88,4.26,5.56,5.56,0,0,0,4.11,1.32h2.25a3.43,3.43,0,0,0-.35.92h-2a6.23,6.23,0,0,1-4.46-1.36,4.83,4.83,0,0,1-1.37,1.55,3.22,3.22,0,0,0-.74-.69,4.38,4.38,0,0,0,1.46-1.65,7.4,7.4,0,0,1-1.05-2.22l.82-.29a6,6,0,0,0,.64,1.55,12.23,12.23,0,0,0,.54-2.6H390.3c.4-.91.91-2.24,1.34-3.43h-1.21v-1H393c-.39,1.12-.89,2.44-1.31,3.51h.85ZM395,76.32h-1.47v-.84H395v-1h.93v1h1.8v1.61h.79v.85h-.79v1.62h-1.8v.74h2v.89h-2V82h2.36v.88h-2.36v1.3H395v-1.3h-1.92V82H395v-.8h-1.63V80.3H395v-.74h-1.47v-.84H395v-.78h-2v-.85h2Zm.93,0v.77h.93v-.77Zm.93,1.62h-.93v.78h.93Z"/><path class="cls-1" d="M403.92,77.45H399.6v-.9h2.15a13,13,0,0,0-.85-1.65l.85-.43a11.2,11.2,0,0,1,.88,1.59l-.86.49h2.15ZM403.56,85H401v.55h-.95V81.4h3.49Zm0-5.91H400.1v-.88h3.42Zm-3.42.73h3.42v.87H400.1Zm.92,2.53v1.74h1.58V82.31Zm3.71-3.17c-.18.21-.35.42-.53.62a5.74,5.74,0,0,0-.6-.85,6,6,0,0,0,1.53-2.47l.67.21v-.58H404v-.86h1.83v-.68h1v2.16h-.87l.12,0a6.76,6.76,0,0,1-.29.69h1.36c-.07-.23-.16-.47-.24-.68l1-.26,0,.06v-2h1v.66h1.72v.88h-1.72v.62h-1a6.92,6.92,0,0,1,.25.72h2.14v.73h-2.23v.51H410v.62h-1.91v.52H410v.61h-1.91v.53h2.49v.71h-4.94v.21h-.94Zm5.42,3.24a5.27,5.27,0,0,1-1.77,1.84,12.19,12.19,0,0,0,2.48.55,3.61,3.61,0,0,0-.63.89,10.41,10.41,0,0,1-2.91-.88,13.13,13.13,0,0,1-3.18.91,3.68,3.68,0,0,0-.5-.91,13.47,13.47,0,0,0,2.67-.59A5.71,5.71,0,0,1,405.08,83l.44-.15h-1.35v-.79h5.15l.19,0Zm-3-4.24h-1.51v.51h1.51Zm0,1.13h-1.51v.52h1.51Zm0,1.13h-1.51v.53h1.51Zm-1,2.47a5.06,5.06,0,0,0,1.2.89,4.91,4.91,0,0,0,1.26-.89Z"/><path class="cls-2" d="M271.65,40.07A14.51,14.51,0,0,1,284.33,25.7V22.32a17.84,17.84,0,0,0,0,35.5V54.44a14.49,14.49,0,0,1-12.67-14.37"/><path class="cls-2" d="M288,22.32V25.7a14.49,14.49,0,0,1,0,28.74v3.38a17.84,17.84,0,0,0,0-35.5"/><path class="cls-2" d="M283.26,36.41a3.69,3.69,0,0,0-1.9.53,16.21,16.21,0,0,1,1.4-4.79,5.57,5.57,0,0,1,2.62-2.87v7.8a3.76,3.76,0,0,0-2.12-.67m-5.85,0a3.76,3.76,0,0,0-1.71.42,11,11,0,0,1,6.67-7,15.62,15.62,0,0,0-2.63,7.43,3.69,3.69,0,0,0-2.33-.84m19.25.42a3.66,3.66,0,0,0-4,.4,15.68,15.68,0,0,0-2.62-7.4,11,11,0,0,1,6.63,7m-7.55-.42a3.77,3.77,0,0,0-2.17.7V29.26a5.41,5.41,0,0,1,2.68,2.9A16.1,16.1,0,0,1,291,37a3.62,3.62,0,0,0-1.92-.55m0,1.56a2.16,2.16,0,0,1,2.15,2.15h0v.05h1.56V40a2.15,2.15,0,0,1,4.29.09h1.62a12.55,12.55,0,0,0-12.16-12.53l-.38,0-.36,0a12.56,12.56,0,0,0-12.19,12.53h1.62a2.15,2.15,0,0,1,4.3,0h0v.05h1.56c0-.11,0-.22,0-.33a2.15,2.15,0,0,1,4.27.16v.12H287s0-.08,0-.12a2.14,2.14,0,0,1,2.14-2"/><rect class="cls-2" x="285.38" y="41.69" width="1.56" height="7.61"/><rect class="cls-2" x="285.38" y="50.85" width="1.56" height="1.62"/><path class="cls-2" d="M290.62,80.92a2.73,2.73,0,1,0-2.72-2.73A2.73,2.73,0,0,0,290.62,80.92Zm1.36.91-.2,0a3.55,3.55,0,0,1-2.32,0,.69.69,0,0,0-.2,0A3.18,3.18,0,0,0,286.08,85h0a1.36,1.36,0,0,0,1.36,1.35h6.36A1.35,1.35,0,0,0,295.16,85,3.17,3.17,0,0,0,292,81.83Zm-5.62.29a3.85,3.85,0,0,1,.63-.5V75.47a.91.91,0,0,0-.91-.91h-.91V72.74a.91.91,0,0,0-.91-.91h-4.54a.91.91,0,0,0-.91.91v1.82h-.91a.9.9,0,0,0-.9.91V85.91a.45.45,0,0,0,.45.46h8.18a2.33,2.33,0,0,1-.46-1.34A4.07,4.07,0,0,1,286.36,82.12Zm-5.28,1.18a.34.34,0,0,1-.34.34h-1.13a.34.34,0,0,1-.34-.34V82.17a.34.34,0,0,1,.34-.34h1.13a.34.34,0,0,1,.34.34Zm0-3.63a.34.34,0,0,1-.34.34h-1.13a.34.34,0,0,1-.34-.34V78.53a.34.34,0,0,1,.34-.34h1.13a.34.34,0,0,1,.34.34Zm1.37-3.46a.18.18,0,0,1-.17.17h-.57a.17.17,0,0,1-.17-.17v-.74h-.74a.18.18,0,0,1-.17-.17v-.57a.18.18,0,0,1,.17-.17h.74v-.74a.17.17,0,0,1,.17-.17h.57a.18.18,0,0,1,.17.17v.74h.73a.17.17,0,0,1,.17.17v.57a.17.17,0,0,1-.17.17h-.73Zm2.27,7.09a.34.34,0,0,1-.34.34h-1.14a.34.34,0,0,1-.34-.34V82.17a.34.34,0,0,1,.34-.34h1.14a.34.34,0,0,1,.34.34Zm0-3.63a.34.34,0,0,1-.34.34h-1.14a.34.34,0,0,1-.34-.34V78.53a.34.34,0,0,1,.34-.34h1.14a.35.35,0,0,1,.34.34Z"/><path class="cls-2" d="M271.65,79.8a14.5,14.5,0,0,1,12.68-14.37V62.05a17.84,17.84,0,0,0,0,35.5V94.17A14.5,14.5,0,0,1,271.65,79.8"/><path class="cls-2" d="M288,62.05v3.38a14.49,14.49,0,0,1,0,28.74v3.38a17.84,17.84,0,0,0,0-35.5"/><path class="cls-2" d="M284.22,126.65a2,2,0,1,0,2-2A2,2,0,0,0,284.22,126.65Z"/><path class="cls-2" d="M286.19,111.33a14.23,14.23,0,0,0-10.23,4.3.72.72,0,0,0-.22.55.73.73,0,0,0,.23.54.74.74,0,0,0,.54.23v0a.79.79,0,0,0,.54-.24,12.8,12.8,0,0,1,18.26,0,.79.79,0,0,0,1.09,0,.76.76,0,0,0,.23-.55.75.75,0,0,0-.22-.55A14.23,14.23,0,0,0,286.19,111.33Z"/><path class="cls-2" d="M286.19,117.18a8.83,8.83,0,0,1,6.36,2.69.79.79,0,0,0,1.1,0,.77.77,0,0,0,0-1.09h0a10.39,10.39,0,0,0-14.94,0,.7.7,0,0,0-.22.55.74.74,0,0,0,.23.54.78.78,0,0,0,1.1,0A8.8,8.8,0,0,1,286.19,117.18Z"/><path class="cls-2" d="M286.19,121.8a5.27,5.27,0,0,1,3.83,1.63.77.77,0,0,0,1.33-.51.74.74,0,0,0-.22-.55,6.83,6.83,0,0,0-9.89,0,.73.73,0,0,0-.21.55.75.75,0,0,0,.24.54.77.77,0,0,0,1.09,0A5.27,5.27,0,0,1,286.19,121.8Z"/><path class="cls-2" d="M271.65,119.53a14.5,14.5,0,0,1,12.68-14.37v-3.39a17.85,17.85,0,0,0,0,35.51V133.9a14.5,14.5,0,0,1-12.67-14.37"/><path class="cls-2" d="M288,101.77v3.39a14.49,14.49,0,0,1,0,28.74v3.38a17.85,17.85,0,0,0,0-35.51"/><path class="cls-2" d="M271.65,159.26a14.5,14.5,0,0,1,12.68-14.37V141.5a17.85,17.85,0,0,0,0,35.51v-3.38a14.51,14.51,0,0,1-12.67-14.37"/><path class="cls-2" d="M288,141.5v3.39a14.49,14.49,0,0,1,0,28.74V177a17.85,17.85,0,0,0,0-35.51"/><path class="cls-2" d="M290.58,149.31h-8.83a1.89,1.89,0,0,0-1.9,1.89v16.41a1.89,1.89,0,0,0,1.9,1.89h8.83a1.89,1.89,0,0,0,1.9-1.89V151.2A1.89,1.89,0,0,0,290.58,149.31Zm-4.42,18.93a1.26,1.26,0,1,1,1.27-1.26A1.26,1.26,0,0,1,286.16,168.24Zm4.42-4.26a.47.47,0,0,1-.47.47h-7.89a.47.47,0,0,1-.47-.47V151.67a.47.47,0,0,1,.47-.47h7.89a.47.47,0,0,1,.47.47Z"/><path class="cls-2" d="M287.62,155.88a2,2,0,0,0-1.43-.66c-.65,0-1,.31-1,.92,0,1.38,3.38,1.17,3.38,3.66a2.25,2.25,0,0,1-2,2.35v1.29h-1.1V162.2a4.21,4.21,0,0,1-2.2-1l.73-1.1a3,3,0,0,0,1.83.76c.78,0,1.13-.35,1.13-1,0-1.5-3.37-1.37-3.37-3.69a2.19,2.19,0,0,1,1.88-2.27v-1.28h1.1v1.26a3.08,3.08,0,0,1,1.85,1Z"/><path class="cls-3" d="M263.91,17.78H258.5c-6.49,0-11.76,5-11.76,11.08V170c0,6.12,5.27,11.08,11.76,11.08h5.41"/><path class="cls-4" d="M263.91,21.11h-5.42c-4.73,0-8.57,4.75-8.57,10.62V167.11c0,5.87,3.84,10.63,8.57,10.63h5.42"/><path class="cls-3" d="M419.91,17.78h5.4c6.5,0,11.76,5,11.76,11.08V170c0,6.12-5.26,11.08-11.76,11.08h-5.4"/><path class="cls-4" d="M419.91,21.11h5.41c4.74,0,8.57,4.75,8.57,10.62V167.11c0,5.87-3.83,10.63-8.57,10.63h-5.41"/><path class="cls-1" d="M99.32,92a12,12,0,0,1-1.75,4.38,4.61,4.61,0,0,0-.89-.49,9.66,9.66,0,0,0,1.59-4.08Zm2.55-2.47v7.8c0,.62-.16.89-.55,1a6.23,6.23,0,0,1-2,.17,4.47,4.47,0,0,0-.37-1c.68,0,1.41,0,1.62,0s.28-.07.28-.27v-7.8Zm2.28,2.2a16.2,16.2,0,0,1,1.92,4.42l-1,.4a17,17,0,0,0-1.81-4.48Z"/><path class="cls-1" d="M115.8,97.39v.86h-8.94v-.86h4V96.33h-3v-.85h3V94.7h-.75v-2H109A3.09,3.09,0,0,1,107.49,95a4.7,4.7,0,0,0-.61-.65,2.36,2.36,0,0,0,1.25-1.63H107v-.83h1.2V90.62h-.86V89.8h4.47v.82H111v1.22h1v.83h-1v1.85h.84v1h2.94v.85h-2.94v1.06Zm-5.67-5.55V90.62h-1.06v1.22Zm3.29,1.48h-.85V90h.85Zm1.86.52c0,.47-.09.7-.42.84a4.51,4.51,0,0,1-1.52.15,3.32,3.32,0,0,0-.28-.84c.51,0,1,0,1.14,0s.2,0,.2-.17V89.5h.88Z"/><path class="cls-1" d="M105.26,108.49c0,.43-.08.7-.34.85a2.67,2.67,0,0,1-1.26.17,3.53,3.53,0,0,0-.24-.87h.84c.12,0,.16-.05.16-.18v-2.39l-1,.62-.29-.65a11.15,11.15,0,0,1-.67,3.55,2.77,2.77,0,0,0-.75-.42,13,13,0,0,0,.65-4.83v-3.58h2.91Zm-2.09-4.16c0,.45,0,1,0,1.48l1.28-.53v-1.14l-.38.32a10.88,10.88,0,0,0-.87-1Zm0-2.71V103l.31-.22a10.42,10.42,0,0,1,.94.94v-2.12Zm7.42,3.33a6.26,6.26,0,0,1-1.75,2.94,6.51,6.51,0,0,0,2.08.89,3.11,3.11,0,0,0-.6.8,6.58,6.58,0,0,1-2.22-1.09,8.22,8.22,0,0,1-2.28,1.07,3.27,3.27,0,0,0-.5-.8,7.3,7.3,0,0,0,2.09-.88,7.3,7.3,0,0,1-1.42-2.16l.33-.1h-.63v-.87h4.14l.16,0Zm-3.11-3.07a2.83,2.83,0,0,1-1.53,2.67,3.09,3.09,0,0,0-.6-.65,2.09,2.09,0,0,0,1.28-2v-1.08h3.16V103c0,.28,0,.38.14.38h.48a1.74,1.74,0,0,0,.45-.06l.07.75a1.56,1.56,0,0,1-.5.06h-.58c-.77,0-.94-.32-.94-1.14v-1.37h-1.43Zm-.61,3.74a5.21,5.21,0,0,0,1.24,1.71,5.19,5.19,0,0,0,1.28-1.71Z"/><path class="cls-5" d="M91.85,98.5a14.5,14.5,0,0,1,12.68-14.37V80.74a17.84,17.84,0,0,0,0,35.5v-3.37A14.51,14.51,0,0,1,91.85,98.5"/><path class="cls-5" d="M108.16,80.74v3.39a14.48,14.48,0,0,1,0,28.73v3.38a17.84,17.84,0,0,0,0-35.5"/><path class="cls-1" d="M61.88,97.23h3.79v.84H57.24v-.84H60.9V95.76H58.21V95H60.9V93.59H58.66v-.81a11.74,11.74,0,0,1-1.3.8,3.2,3.2,0,0,0-.58-.76,12,12,0,0,0,3.53-2.52H58.72v-.87h3.19a9.63,9.63,0,0,0,4.18,3.27,4.5,4.5,0,0,0-.63.84,9.84,9.84,0,0,1-1.29-.73v.78H61.88V95H64.6v.81H61.88Zm-3.2-4.46h5.43a12.34,12.34,0,0,1-2.7-2.47A14.48,14.48,0,0,1,58.68,92.77Z"/><path class="cls-1" d="M75.89,92.59a25.23,25.23,0,0,1-1.69,2.06,5.57,5.57,0,0,0,2,2.24,2,2,0,0,0-.57.72A6.45,6.45,0,0,1,73.46,95v2.23c0,.5-.12.76-.42.91a3.66,3.66,0,0,1-1.55.19,4,4,0,0,0-.32-.89c.54,0,1,0,1.17,0s.22-.06.22-.22v-2c-.77.77-1.56,1.52-2.22,2.12l-.57-.81.14-.11c-1,.34-2.11.68-2.94.94l-.2-.89L68,96.09v-2.6H67v-.86H68v-2H66.89v-.86H70v.86H68.88v2h.94v.86h-.94v2.34L70,95.48l.12.74c.66-.53,1.57-1.3,2.42-2V91.68H70.19v-.86h2.37V89.16h.9v1.66H76v.86H73.46v.41a11.7,11.7,0,0,0,.42,1.78,14.38,14.38,0,0,0,1.2-1.7ZM71,92.23a7.64,7.64,0,0,1,1,1.78l-.77.37a7.39,7.39,0,0,0-1-1.83Zm4-1.42a6.47,6.47,0,0,0-1.16-1.09l.52-.48a6.65,6.65,0,0,1,1.2,1Z"/><path class="cls-1" d="M65.35,108.23c0,.43-.08.7-.34.85a2.67,2.67,0,0,1-1.26.17,3.53,3.53,0,0,0-.24-.87h.84c.12,0,.16,0,.16-.18v-2.39l-1,.62-.29-.65a11.15,11.15,0,0,1-.67,3.55,2.83,2.83,0,0,0-.76-.42,12.82,12.82,0,0,0,.66-4.83v-3.58h2.91Zm-2.09-4.16c0,.45,0,1,0,1.48l1.28-.53v-1.14l-.38.32a10.88,10.88,0,0,0-.87-1Zm0-2.71v1.4l.31-.22a10.42,10.42,0,0,1,.94.94v-2.12Zm7.42,3.33a6.26,6.26,0,0,1-1.75,2.94,6.51,6.51,0,0,0,2.08.89,3.11,3.11,0,0,0-.6.8,6.58,6.58,0,0,1-2.22-1.09,8.22,8.22,0,0,1-2.28,1.07,3.27,3.27,0,0,0-.5-.8,7.3,7.3,0,0,0,2.09-.88,7.3,7.3,0,0,1-1.42-2.16l.33-.1h-.63v-.87h4.14l.16,0Zm-3.11-3.07A2.83,2.83,0,0,1,66,104.29a3.09,3.09,0,0,0-.6-.65,2.09,2.09,0,0,0,1.28-2v-1.08h3.16v2.24c0,.28,0,.38.14.38h.48a1.74,1.74,0,0,0,.45-.06l.07.75a1.56,1.56,0,0,1-.5.06h-.58c-.77,0-.94-.32-.94-1.14v-1.37H67.57ZM67,105.36a5.21,5.21,0,0,0,1.24,1.71,5.19,5.19,0,0,0,1.28-1.71Z"/><path class="cls-5" d="M51.94,98.5A14.5,14.5,0,0,1,64.62,84.13V80.74a17.84,17.84,0,0,0,0,35.5v-3.37A14.51,14.51,0,0,1,51.94,98.5"/><path class="cls-5" d="M68.25,80.74v3.39a14.48,14.48,0,0,1,0,28.73v3.38a17.84,17.84,0,0,0,0-35.5"/><path class="cls-1" d="M123.73,60.5a10.86,10.86,0,0,0-1.53-1.11l.56-.63a10.68,10.68,0,0,1,1.57,1Zm-1.33,4a30.94,30.94,0,0,0,1.34-3.17l.75.49c-.36,1-.83,2.23-1.25,3.16Zm1.6-6.66a11.29,11.29,0,0,0-1.47-1.19l.58-.61a11.76,11.76,0,0,1,1.49,1.1ZM126.61,59a4.18,4.18,0,0,1-1.7,1.93,2.73,2.73,0,0,0-.5-.52,3.41,3.41,0,0,0,1.52-1.54h-1.17c.09-.51.17-1.27.21-1.91h-.25v-.67h3V57h-.78v.41a5.52,5.52,0,0,1-.06.77h1v.73h-.6v1l.66-.28a4.08,4.08,0,0,0,.2.56,6,6,0,0,0-1.49.82,2.43,2.43,0,0,0-.35-.49,1,1,0,0,0,.35-.84Zm-1.37,2.06h5.41v4h-.91v-.39h-3.63v.43h-.87Zm.91-2.92a4.3,4.3,0,0,0,0-.78V57h-.56c0,.38-.09.8-.14,1.18Zm0,3.65v.72h3.63v-.72ZM129.74,64V63.2h-3.63V64Zm.93-3.8c.14,0,.17-.06.19-.73a1.81,1.81,0,0,0,.58.25c-.07.88-.24,1.09-.67,1.09h-.5c-.56,0-.68-.18-.68-.79v-.31A4.08,4.08,0,0,1,128.28,61a1.93,1.93,0,0,0-.49-.5,3.11,3.11,0,0,0,1.43-1.57H128c.09-.52.17-1.28.21-1.93H128v-.67h3.18V57h-1v.52a4.19,4.19,0,0,1,0,.68h1.11v.73h-1.29c0,.09-.05.19-.09.28h.38V60c0,.17,0,.19.13.19Zm-1.27-2a5.76,5.76,0,0,0,0-.69V57h-.56c0,.38-.09.82-.15,1.2Z"/><path class="cls-1" d="M140.86,58.09s0,.33,0,.46c-.22,4.05-.41,5.53-.85,6a1.22,1.22,0,0,1-.92.46,11.91,11.91,0,0,1-1.59,0,2.47,2.47,0,0,0-.32-1c.65.06,1.26.06,1.51.06a.56.56,0,0,0,.46-.15c.34-.32.55-1.69.72-5h-3.12a7.26,7.26,0,0,1-3.67,6.16,3.93,3.93,0,0,0-.72-.75,6.42,6.42,0,0,0,3.4-5.41h-3.1v-.95h3.15V56h1v2.1Z"/><path class="cls-1" d="M131.3,75.1v.76H124V75.1h3.14v-.82h-2.22v-.73h2.22v-.73h-1.88a5.65,5.65,0,0,1-1,1.27,4.82,4.82,0,0,0-.45-.82,5.32,5.32,0,0,1-1,3,3.28,3.28,0,0,0-.71-.59,5.15,5.15,0,0,0,.89-3.32V70.4h1.28a3.79,3.79,0,0,0-.41-.4c.76-.13,1.63-.32,2.45-.52-.72-.2-1.44-.38-2.1-.52l.51-.39H123v-.73h3.56a5.37,5.37,0,0,0-.46-.65l.65-.31a5.58,5.58,0,0,1,.7,1h3.39v.73h-1.49l.44.28a15,15,0,0,1-1.41.59c.67.19,1.29.39,1.78.56l-.46.4h1.45v.76h-7.33v1.19c0,.29,0,.6,0,.92a5.2,5.2,0,0,0,1.27-2l.8.23c-.07.19-.15.37-.24.56h1.49v-.74H128v.74h2.59v.74H128v.73h2.33v.73H128v.82Zm-2-4.7c-.53-.19-1.21-.4-1.93-.62-.82.25-1.66.45-2.44.62Zm-4.16-1.83c.73.17,1.52.37,2.28.58a10.23,10.23,0,0,0,1.54-.58Z"/><path class="cls-1" d="M136,74.57a8.52,8.52,0,0,1-3,1.29,4,4,0,0,0-.56-.68,8.37,8.37,0,0,0,2.86-.93Zm5.23-1.52v.78h-3.94v2.32h-.91V73.83h-3.88v-.78h3.88v-.6h-3v-.7h3v-.6H133v-.73h2a5.39,5.39,0,0,0-.44-.86l.58-.14h-2.55v-.74h1.49a7.5,7.5,0,0,0-.73-1.35l.81-.28a7,7,0,0,1,.8,1.43l-.53.2h1.12V67h.87v1.72h1V67h.88v1.72h1.09l-.39-.13a8.72,8.72,0,0,0,.7-1.48l1,.25a15.65,15.65,0,0,1-.83,1.36h1.43v.74H138.6l.78.2c-.22.3-.45.57-.65.8h2.12v.73h-3.54v.6h3.07v.7h-3.07v.6Zm-5.81-3.63a4,4,0,0,1,.47.88l-.45.12h2.73l-.36-.11a7.74,7.74,0,0,0,.56-.89Zm3,4.77c.88.32,2.1.8,2.77,1.12l-.62.54c-.62-.31-1.84-.84-2.75-1.19Z"/><path class="cls-5" d="M117.31,65.84A14.5,14.5,0,0,1,130,51.47V48.08a17.84,17.84,0,0,0,0,35.5V80.21a14.51,14.51,0,0,1-12.68-14.37"/><path class="cls-5" d="M133.63,48.08v3.39a14.48,14.48,0,0,1,0,28.73v3.38a17.84,17.84,0,0,0,0-35.5"/><path class="cls-1" d="M123.86,128.45a9.21,9.21,0,0,1-1,2,5.14,5.14,0,0,0-.64-.44,6.17,6.17,0,0,0,.92-1.79Zm1.29-.65v3.39h-.9V127.8h-1.92V127h1.92v-.91h-2v-.78h1.09a5,5,0,0,0-.35-1.25l.76-.19a6.25,6.25,0,0,1,.37,1.23l-.74.21H125a10.32,10.32,0,0,0,.49-1.45l.85.18c-.16.44-.33.9-.5,1.27H127v.78h-1.84V127h1.69v.79Zm1.67-3.94h-4.39v-.77h1.83c-.11-.28-.24-.6-.36-.85l.92-.24c.17.34.37.76.5,1.09h1.5Zm-.71,4.29a8.62,8.62,0,0,1,.84,1.5l-.66.39a9.48,9.48,0,0,0-.79-1.55Zm5.26-1.9h-1v4.95h-.91v-4.95h-1.17v.24a8.72,8.72,0,0,1-1,4.71,2.94,2.94,0,0,0-.71-.55,7.63,7.63,0,0,0,.86-4.16V123a15.41,15.41,0,0,0,3.06-.81l.73.68a16.37,16.37,0,0,1-2.92.74v1.75h3.1Z"/><path class="cls-1" d="M141.27,128.05v.86h-9v-.86h.76l-.15-5.26a13.34,13.34,0,0,0,1.67-.62l.42.79c-.4.14-.85.27-1.28.38l0,1.06h1v.75h-1l0,1.07h1V127h-1l0,1.08H135v-5.49h3.5v5.49h1.19c0-.32,0-.69.05-1.06h-1v-.75h1l0-1.07h-1v-.75h1c0-.39,0-.78,0-1.15h-1.07v-.77h1.89c0,1.75-.09,4-.18,5.55Zm-5.38,1.53a18,18,0,0,1-3,1.65,5.38,5.38,0,0,0-.53-.7,12.2,12.2,0,0,0,2.78-1.54Zm-.18-1.53h2.13v-4.77h-2.13Zm1.86-4.16v.61H136v-.61Zm-1.5,1.19h1.45v2.27h-1.45Zm.42,1.7h.6v-1.13h-.6Zm1.7,2.14a24.4,24.4,0,0,1,2.87,1.55l-.6.7a21,21,0,0,0-2.79-1.6Z"/><path class="cls-1" d="M130.73,141.15c0,.43-.08.7-.34.85a2.67,2.67,0,0,1-1.26.17,3.53,3.53,0,0,0-.24-.87h.84c.12,0,.16-.05.16-.18v-2.39l-1,.62-.29-.65a11.15,11.15,0,0,1-.67,3.55,2.83,2.83,0,0,0-.76-.42,13,13,0,0,0,.65-4.83v-3.58h2.92ZM128.64,137c0,.45,0,1,0,1.48l1.28-.53V136.8l-.38.32a10.88,10.88,0,0,0-.87-1Zm0-2.71v1.4l.31-.22a10.42,10.42,0,0,1,.94.94v-2.12Zm7.41,3.33a6.26,6.26,0,0,1-1.75,2.94,6.51,6.51,0,0,0,2.08.89,3.11,3.11,0,0,0-.6.8,6.58,6.58,0,0,1-2.22-1.09,8.22,8.22,0,0,1-2.28,1.07,3,3,0,0,0-.49-.8,7.24,7.24,0,0,0,2.08-.88,7.5,7.5,0,0,1-1.42-2.16l.33-.1h-.62v-.87h4.13l.16,0Zm-3.11-3.07a2.83,2.83,0,0,1-1.53,2.67,2.8,2.8,0,0,0-.59-.65,2.09,2.09,0,0,0,1.27-2v-1.08h3.16v2.24c0,.28,0,.38.14.38h.48a1.74,1.74,0,0,0,.45-.06l.07.75a1.56,1.56,0,0,1-.5.06h-.58c-.77,0-.94-.32-.94-1.14v-1.37h-1.43Zm-.61,3.74a5.21,5.21,0,0,0,1.24,1.71,5.19,5.19,0,0,0,1.28-1.71Z"/><path class="cls-5" d="M117.31,131.17A14.5,14.5,0,0,1,130,116.8v-3.39a17.85,17.85,0,0,0,0,35.51v-3.38a14.51,14.51,0,0,1-12.68-14.37"/><path class="cls-5" d="M133.63,113.41v3.39a14.49,14.49,0,0,1,0,28.74v3.38a17.85,17.85,0,0,0,0-35.51"/><path class="cls-1" d="M39.32,62.27v8.39h-1v-.61H33.62v.65h-.95V62.27Zm-5.7.94v2.44h4.71V63.21Zm4.71,5.9V66.57H33.62v2.54Z"/><path class="cls-1" d="M44.89,69.71c0,.43-.08.7-.34.85a2.67,2.67,0,0,1-1.26.17,3.53,3.53,0,0,0-.24-.87h.84c.12,0,.16-.05.16-.18V67.3l-1,.62-.29-.65a11.15,11.15,0,0,1-.67,3.55,2.83,2.83,0,0,0-.76-.42A13,13,0,0,0,42,65.57V62h2.92ZM42.8,65.55c0,.45,0,1,0,1.48l1.28-.53V65.36l-.38.32a10.88,10.88,0,0,0-.87-1Zm0-2.71v1.4l.31-.22a10.42,10.42,0,0,1,.94.94V62.84Zm7.42,3.33a6.26,6.26,0,0,1-1.75,2.94,6.51,6.51,0,0,0,2.08.89,3.11,3.11,0,0,0-.6.8,6.58,6.58,0,0,1-2.22-1.09,8.22,8.22,0,0,1-2.28,1.07A3.27,3.27,0,0,0,45,70,7.3,7.3,0,0,0,47,69.1a7.3,7.3,0,0,1-1.42-2.16l.33-.1h-.63V66h4.14l.16,0ZM47.11,63.1a2.83,2.83,0,0,1-1.53,2.67,3.09,3.09,0,0,0-.6-.65,2.09,2.09,0,0,0,1.28-2V62h3.16v2.24c0,.28,0,.38.14.38H50a1.74,1.74,0,0,0,.45-.06l.07.75a1.56,1.56,0,0,1-.5.06h-.58c-.77,0-.94-.32-.94-1.14V62.87H47.11Zm-.61,3.74a5.21,5.21,0,0,0,1.24,1.71A5.19,5.19,0,0,0,49,66.84Z"/><path class="cls-5" d="M26.48,65.84A14.5,14.5,0,0,1,39.16,51.47V48.08a17.84,17.84,0,0,0,0,35.5V80.21A14.51,14.51,0,0,1,26.48,65.84"/><path class="cls-5" d="M42.79,48.08v3.39a14.48,14.48,0,0,1,0,28.73v3.38a17.84,17.84,0,0,0,0-35.5"/><path class="cls-1" d="M38.61,131.92c0,.21,0,.43,0,.67a6.46,6.46,0,0,0,1.95,4.16,2.17,2.17,0,0,0-.59.72,6.44,6.44,0,0,1-1.67-2.8,6.4,6.4,0,0,1-1.61,2.81,2.83,2.83,0,0,0-.48-.59,7.82,7.82,0,0,1-.9,0h-2c-1.15,0-1.56-.41-1.56-1.65v-5.73h-.32v-.79h4.88v.79H32.53v5.78c0,.61.17.82.69.82h2.12a5.32,5.32,0,0,0,.94-.08c0,.11,0,.27,0,.42a6.68,6.68,0,0,0,1.44-4.59v-.71h.84ZM32.83,133h1.53v2.52H32.83Zm2.88-.59H33.17v-2.27h2.54Zm-2.4,2.53h.56v-1.36h-.56ZM35,130.72H33.86v1.11H35Zm1.24,4.81H34.65V133h1.57Zm-.51-1.93h-.57v1.34h.57Zm1.85-2.95a7.67,7.67,0,0,1-.85,1.95,5.15,5.15,0,0,0-.75-.5,8.92,8.92,0,0,0,1.25-3.83l.85.14c-.07.48-.15.94-.26,1.39h2.12l.14,0,.6.18a21.4,21.4,0,0,1-.75,2.7l-.7-.24a16.29,16.29,0,0,0,.46-1.76Z"/><path class="cls-1" d="M44.89,136.37c0,.43-.08.7-.34.85a2.67,2.67,0,0,1-1.26.17,3.53,3.53,0,0,0-.24-.87h.84c.12,0,.16-.05.16-.18V134l-1,.62-.29-.65a11.15,11.15,0,0,1-.67,3.55,2.83,2.83,0,0,0-.76-.42,13,13,0,0,0,.65-4.83v-3.58h2.92Zm-2.09-4.16c0,.45,0,1,0,1.48l1.28-.53V132l-.38.32a10.88,10.88,0,0,0-.87-1Zm0-2.71v1.4l.31-.22a10.42,10.42,0,0,1,.94.94V129.5Zm7.42,3.33a6.26,6.26,0,0,1-1.75,2.94,6.51,6.51,0,0,0,2.08.89,3.11,3.11,0,0,0-.6.8,6.58,6.58,0,0,1-2.22-1.09,8.22,8.22,0,0,1-2.28,1.07,3.27,3.27,0,0,0-.5-.8,7.3,7.3,0,0,0,2.09-.88,7.3,7.3,0,0,1-1.42-2.16l.33-.1h-.63v-.87h4.14l.16,0Zm-3.11-3.07a2.83,2.83,0,0,1-1.53,2.67,3.09,3.09,0,0,0-.6-.65,2.09,2.09,0,0,0,1.28-2v-1.08h3.16v2.24c0,.28,0,.38.14.38H50a1.74,1.74,0,0,0,.45-.06l.07.75a1.56,1.56,0,0,1-.5.06h-.58c-.77,0-.94-.32-.94-1.14v-1.37H47.11Zm-.61,3.74a5.21,5.21,0,0,0,1.24,1.71A5.19,5.19,0,0,0,49,133.5Z"/><path class="cls-5" d="M26.48,132.67A14.5,14.5,0,0,1,39.16,118.3v-3.39a17.85,17.85,0,0,0,0,35.51V147a14.5,14.5,0,0,1-12.68-14.37"/><path class="cls-5" d="M42.79,114.91v3.39a14.49,14.49,0,0,1,0,28.74v3.38a17.85,17.85,0,0,0,0-35.51"/><path class="cls-1" d="M82.77,48.12a6.53,6.53,0,0,1-.1.66h4v.79H82.46c-.47,1.29-1.53,2.13-4.17,2.56a2.69,2.69,0,0,0-.47-.84C80,51,81,50.44,81.41,49.57H78.22v-.79h3.47c0-.21.08-.42.11-.66H78V47.3h3.91v-.71h-3V45.8h3v-.68H78.33V44.3h2a6.12,6.12,0,0,0-.67-1l.81-.32a4.47,4.47,0,0,1,.82,1.21L81,44.3h2.44a9.46,9.46,0,0,0,.78-1.36l1,.27c-.23.37-.5.77-.74,1.09h2v.82H82.87v.68H86v.79H82.87v.71h4v.82Zm3.7,4.07a25.68,25.68,0,0,0-4-1.92l.41-.7a27.6,27.6,0,0,1,4,1.8Z"/><path class="cls-1" d="M91.34,51.06c0,.42-.08.69-.34.84a2.67,2.67,0,0,1-1.26.17,3.66,3.66,0,0,0-.24-.87h.84c.12,0,.16-.05.16-.18V48.65l-1,.62-.29-.65a11,11,0,0,1-.67,3.54,2.83,2.83,0,0,0-.76-.42,13,13,0,0,0,.65-4.82V43.34h2.92ZM89.25,46.9c0,.45,0,1,0,1.48l1.28-.53V46.71l-.38.32a10.88,10.88,0,0,0-.87-1Zm0-2.71v1.4l.31-.22a10.42,10.42,0,0,1,.94.94V44.19Zm7.42,3.33a6.26,6.26,0,0,1-1.75,2.94,7,7,0,0,0,2.08.89,2.9,2.9,0,0,0-.6.79,6.75,6.75,0,0,1-2.22-1.08,8.49,8.49,0,0,1-2.28,1.06,3.47,3.47,0,0,0-.5-.8,6.78,6.78,0,0,0,2.09-.88,7.12,7.12,0,0,1-1.42-2.15l.33-.1h-.63v-.87h4.14l.16,0Zm-3.11-3.07A2.83,2.83,0,0,1,92,47.12a3.09,3.09,0,0,0-.6-.65,2.09,2.09,0,0,0,1.28-2V43.36h3.16V45.6c0,.28,0,.38.14.38h.48a1.74,1.74,0,0,0,.45-.06l.07.75a1.56,1.56,0,0,1-.5.06h-.58c-.77,0-.94-.32-.94-1.14V44.22H93.56ZM93,48.19a5.21,5.21,0,0,0,1.24,1.71,5.19,5.19,0,0,0,1.28-1.71Z"/><path class="cls-5" d="M73,47.08A14.5,14.5,0,0,1,85.7,32.71V29.32a17.85,17.85,0,0,0,0,35.51V61.45A14.5,14.5,0,0,1,73,47.08"/><path class="cls-5" d="M89.33,29.32v3.39a14.49,14.49,0,0,1,0,28.74v3.38a17.85,17.85,0,0,0,0-35.51"/><path class="cls-1" d="M79.74,144.17a12.41,12.41,0,0,1-1,5.63,3.37,3.37,0,0,0-.8-.47,11,11,0,0,0,.92-5.16v-2.84H87v.85H79.74Zm2.36,3.32a15.16,15.16,0,0,1-1.74,2.12,5.52,5.52,0,0,0-.78-.51,9.3,9.3,0,0,0,1.63-1.9Zm1.7-.7V149c0,.45-.08.69-.41.82a4.85,4.85,0,0,1-1.57.14,3.43,3.43,0,0,0-.27-.82h1.16c.15,0,.19-.05.19-.17v-2.23H80.53v-3.71H82.4a7.32,7.32,0,0,0,.34-.83l1.1.15c-.14.23-.27.46-.41.68h2.79v3.71Zm-2.36-2.19h3.83v-.8H81.44Zm0,1.47h3.83v-.8H81.44Zm3.78,1.13c.57.62,1.36,1.47,1.76,2l-.79.47c-.36-.53-1.14-1.42-1.7-2.06Z"/><path class="cls-1" d="M91.77,146.05l-1.17.37V150h-.86v-3.31l-1.57.48-.24-.89,1.81-.49v-2.1h-.8a9.8,9.8,0,0,1-.41,1.39,5.6,5.6,0,0,0-.68-.42,11.57,11.57,0,0,0,.63-3.26l.79.13c0,.43-.1.86-.17,1.28h.64v-2h.86v2h.93v.88H90.6v1.84l1.05-.3Zm5.3-3.61s0,.32,0,.44c-.22,4.49-.41,6.07-.8,6.56a.94.94,0,0,1-.73.44,5.77,5.77,0,0,1-1.13,0,2.2,2.2,0,0,0-.26-.91c.42,0,.79,0,1,0a.38.38,0,0,0,.36-.18c.29-.33.5-1.75.68-5.55h-.28c-.51,2.58-1.58,5.21-3.2,6.51a4.22,4.22,0,0,0-.77-.55c1.61-1.15,2.66-3.54,3.16-6H94.4A9.61,9.61,0,0,1,92,147.75a3.36,3.36,0,0,0-.72-.53,8.1,8.1,0,0,0,2.31-3.92h-.71a7.5,7.5,0,0,1-1.08,1.84,7.07,7.07,0,0,0-.72-.53,8.48,8.48,0,0,0,1.71-3.78l.84.16c-.11.5-.26,1-.41,1.45Z"/><path class="cls-1" d="M84.52,156.74A8.25,8.25,0,0,1,83.33,160a5.84,5.84,0,0,0-.44-1.08,6.68,6.68,0,0,0,1-2.4Zm1.34-.22c.21.29.93,1.6,1.08,1.91l-.65.71a21,21,0,0,0-.84-2V161h-.87v-5H83v-.87h1.55v-3.31h.87v3.31H87V156H85.45v.8Zm-2.29-1.64a10.34,10.34,0,0,0-.5-2.25l.66-.17a9.36,9.36,0,0,1,.55,2.24Zm3.52-2.27c-.26.76-.56,1.69-.82,2.26l-.59-.18a17.38,17.38,0,0,0,.6-2.26ZM91,158.25V161h-.87v-2.6l-3,.54-.15-.86,3.11-.56v-5.69H91v5.53l1.11-.19.13.85Zm-2.15-1.45a7.65,7.65,0,0,0-1.64-1.2l.44-.67a8.66,8.66,0,0,1,1.67,1.13Zm.4-2.41a7.24,7.24,0,0,0-1.56-1.29l.47-.63a8.07,8.07,0,0,1,1.58,1.21Z"/><path class="cls-5" d="M72.92,149.65a14.51,14.51,0,0,1,12.69-14.37v-3.39a17.84,17.84,0,0,0,0,35.5V164a14.51,14.51,0,0,1-12.68-14.37"/><path class="cls-5" d="M89.24,131.89v3.39a14.48,14.48,0,0,1,0,28.73v3.38a17.84,17.84,0,0,0,0-35.5"/><circle class="cls-6" cx="86.38" cy="100" r="85.38"/><circle class="cls-7" cx="86.38" cy="100" r="81.49" transform="translate(-45.41 90.37) rotate(-45)"/><rect class="cls-8" x="204.75" y="81.73" width="7.26" height="33.52" transform="translate(130.68 -118.5) rotate(45)"/><rect class="cls-8" x="204.75" y="81.73" width="7.26" height="33.52" transform="translate(425.37 20.79) rotate(135)"/></svg>