<svg id="圖層_1" data-name="圖層 1" xmlns="http://www.w3.org/2000/svg" viewBox="0 0 438.07 172.76"><defs><style>.cls-1{fill:#4c4948;}.cls-2{fill:#0068b7;}.cls-3,.cls-4,.cls-6,.cls-7{fill:none;stroke-miterlimit:10;}.cls-3,.cls-4{stroke:#83ccd2;}.cls-3,.cls-6{stroke-width:2px;}.cls-5{fill:#76ba5a;}.cls-6,.cls-7{stroke:#b5d676;}.cls-8{fill:#dcdddd;}</style></defs><path class="cls-1" d="M312.06,23.07A10.41,10.41,0,0,1,310,25.48a7.38,7.38,0,0,0-.8-.9,8.49,8.49,0,0,0,2.69-3.47l1.1.32c-.1.25-.23.5-.36.75h7.28v.89Zm.52,6.72a6.89,6.89,0,0,1-2.47,2.42,4.26,4.26,0,0,0-.72-.81,5.89,5.89,0,0,0,2.35-1.93Zm1.29-.61v3.06h-1.06V29.18h-3.14V28.3h3.14v-2h1.06v2h1.22l-.7-.28a10.42,10.42,0,0,0,1-1.59l1,.32a16.1,16.1,0,0,1-1.25,1.55h1.74v.88Zm-2.59-2.79a5.66,5.66,0,0,1,.9,1.47l-.9.37a5.69,5.69,0,0,0-.85-1.48Zm7-1.2c0,3.55.08,5.93.93,5.93.23,0,.29-.69.31-1.72a6,6,0,0,0,.75.7c-.09,1.56-.32,2.14-1.12,2.14-1.73,0-2-2.43-2-6.16h-6.73v-.89Zm-6.56-.64V23.7h7.13v.85Zm3.1,4.91a16.76,16.76,0,0,1,2.26,1.86l-.71.67a18.63,18.63,0,0,0-2.2-1.92Z"/><path class="cls-1" d="M324.57,21.48a20.63,20.63,0,0,1-1,2.58v8.2h-1.08V26.11a11.54,11.54,0,0,1-.74,1.06,7.16,7.16,0,0,0-.57-1.19,14.33,14.33,0,0,0,2.3-4.79Zm.84,8.42h-1V23.66h1Zm4.11-.73c-.29,1.1-1.17,2.27-3.43,3.12a4.85,4.85,0,0,0-.74-.85c2-.61,2.73-1.46,3-2.27h-2.52v-1h2.69v-1.4H327.4a6.88,6.88,0,0,1-.85,1.24,6.09,6.09,0,0,0-.88-.58,6.52,6.52,0,0,0,1.45-2.66l1,.25c-.09.27-.2.54-.3.82H332v.93h-2.38v1.4h2.74v1Zm2.85-4.38h-6.56v-.95H330c.08-.4.14-.85.2-1.23h-3.75v-.94h4l.17-.05.77.1c-.07.69-.18,1.46-.29,2.12h1.29Zm-2.17,4.54c.78.67,1.83,1.62,2.38,2.2l-.83.67c-.5-.58-1.54-1.56-2.33-2.29Z"/><path class="cls-1" d="M342.47,29.25a6.49,6.49,0,0,1-2,1.51,24.24,24.24,0,0,0,4.15.6,3.84,3.84,0,0,0-.57.91,21.18,21.18,0,0,1-4.9-1,23.57,23.57,0,0,1-5.17,1,4.93,4.93,0,0,0-.52-.92,27.15,27.15,0,0,0,4.34-.62,9.18,9.18,0,0,1-1.81-1.1,9,9,0,0,1-1.77,1,5.56,5.56,0,0,0-.64-.85,6.4,6.4,0,0,0,3.15-2.25l1,.31c-.11.17-.23.32-.36.49h6.72v.85Zm-8-3.05a9.36,9.36,0,0,1-.41,2,5.78,5.78,0,0,0-.61-.36,7.4,7.4,0,0,0,.32-1.81Zm2-.36a3.21,3.21,0,0,0-.1-.43,15.41,15.41,0,0,0-2.58.42c0-.16-.17-.54-.24-.75a1.68,1.68,0,0,0,.71-.49,8.54,8.54,0,0,0,.75-.78,4.54,4.54,0,0,0-1.23.17,7.13,7.13,0,0,0-.26-.78,1,1,0,0,0,.49-.38,8.1,8.1,0,0,0,1.07-1.74l.81.28a12.06,12.06,0,0,1-1.18,1.79l.87,0a8.52,8.52,0,0,0,.61-.87l.78.35A18.5,18.5,0,0,1,335,25l1.25-.16a5.33,5.33,0,0,0-.25-.64l.64-.19a7.75,7.75,0,0,1,.57,1.68Zm-1.42,2.07a11.08,11.08,0,0,0-.2-1.73l.66-.14a10.36,10.36,0,0,1,.26,1.7Zm1.3-.27a13.81,13.81,0,0,0-.36-1.53l.61-.18a12.09,12.09,0,0,1,.4,1.5Zm.41,1.61a8.57,8.57,0,0,0,2.31,1.12,6.58,6.58,0,0,0,2-1.12Zm4-6.46h-3.75v-.66h1.52a5.42,5.42,0,0,0-.37-.81l.84-.27a5,5,0,0,1,.51,1.08h1.25Zm-.24,1.09h-3.25v-.63h3.25Zm0,1.12h-3.25v-.65h3.25Zm-3.2,2.7V25.52h3.14V27.7Zm.7-.63h1.71v-.91H338.1Zm5.69-1.24c0-.14-.06-.31-.1-.5a12.69,12.69,0,0,0-2.61.45c-.05-.17-.15-.54-.24-.75a1.62,1.62,0,0,0,.72-.48,9.32,9.32,0,0,0,.69-.76A5.17,5.17,0,0,0,341,24a5.72,5.72,0,0,0-.26-.76,1.15,1.15,0,0,0,.5-.36,8.39,8.39,0,0,0,1.05-1.74l.8.28A9.53,9.53,0,0,1,342,23.15l.84,0c.22-.3.44-.59.63-.89l.73.33a17.52,17.52,0,0,1-1.88,2.3l1.25-.13a6.56,6.56,0,0,0-.28-.71l.66-.17a8.19,8.19,0,0,1,.58,1.76Zm-2,.34a15.05,15.05,0,0,1-.39,1.88,5.19,5.19,0,0,0-.65-.37,10.47,10.47,0,0,0,.3-1.68Zm.58,1.68a8.54,8.54,0,0,0-.22-1.73l.67-.12a8.63,8.63,0,0,1,.25,1.7Zm1.36-.09a16.54,16.54,0,0,0-.43-1.76l.63-.14a10.8,10.8,0,0,1,.46,1.72Z"/><path class="cls-1" d="M349.76,21.51a17.91,17.91,0,0,1-1.19,2.3v8.43H347.5V25.36A12,12,0,0,1,346.06,27a6.12,6.12,0,0,0-.62-1.14,13,13,0,0,0,3.29-4.66Zm5,9.37c.66,0,.77-.51.86-2.55a3.22,3.22,0,0,0,1,.5c-.15,2.27-.43,3.07-1.8,3.07h-2.18c-1.33,0-1.71-.4-1.71-1.86V21.32H352v3.2h4.27V25.6H352v4.47c0,.68.12.81.73.81Z"/><path class="cls-1" d="M363.85,22.36h5.28v1.18h-3.87V26h3.27v1.18h-3.27V30.1h4v1.19h-5.41Z"/><path class="cls-1" d="M370.39,30.14l.83-1a3.45,3.45,0,0,0,2.37,1c1.08,0,1.69-.51,1.69-1.26s-.61-1.07-1.43-1.43L372.61,27a2.58,2.58,0,0,1-1.82-2.34,2.66,2.66,0,0,1,2.94-2.47,3.83,3.83,0,0,1,2.7,1.13l-.74.9a2.82,2.82,0,0,0-2-.8c-.91,0-1.51.43-1.51,1.15s.72,1.06,1.45,1.35l1.22.52a2.48,2.48,0,0,1,1.82,2.41c0,1.43-1.19,2.6-3.14,2.6A4.47,4.47,0,0,1,370.39,30.14Z"/><path class="cls-1" d="M377.93,26.85c0-2.91,1.79-4.66,4.16-4.66a3.54,3.54,0,0,1,2.65,1.13l-.76.9a2.41,2.41,0,0,0-1.84-.8c-1.66,0-2.77,1.28-2.77,3.38s1,3.42,2.83,3.42a2.19,2.19,0,0,0,1.4-.43v-2.1h-1.77V26.54h3.05v3.87a4,4,0,0,1-2.83,1C379.66,31.45,377.93,29.77,377.93,26.85Z"/><path class="cls-1" d="M390.19,27.4c-.39.12-.79.24-1.17.34v3.18c0,.58-.13.87-.48,1a4.12,4.12,0,0,1-1.72.2,4,4,0,0,0-.33-1c.54,0,1.05,0,1.19,0s.24-.07.24-.25V28.05l-1.4.39-.31-1.08c.49-.11,1.07-.25,1.71-.42V24.53h-1.55v-1h1.55V21.13H389v2.36h1.4v1H389v2.11l1-.27Zm6.43-.76a7.67,7.67,0,0,1-2.23,3.5,9.64,9.64,0,0,0,3,1.09,5,5,0,0,0-.71,1,9.44,9.44,0,0,1-3.27-1.42A11.29,11.29,0,0,1,390,32.27a3.68,3.68,0,0,0-.56-1,9.94,9.94,0,0,0,3.07-1.11,8.49,8.49,0,0,1-1.85-2.59l.3-.11h-.61V26.38h5.34l.19,0Zm-4.09-3.76a3.43,3.43,0,0,1-1.89,3.27,4.44,4.44,0,0,0-.73-.83,2.49,2.49,0,0,0,1.57-2.47V21.54h4v2.71c0,.34,0,.48.22.48h.81a3.29,3.29,0,0,0,.63-.07,8.83,8.83,0,0,0,.09.94,2.43,2.43,0,0,1-.71.07h-.91c-1,0-1.2-.4-1.2-1.43V22.58h-1.87Zm-.77,4.55a6.31,6.31,0,0,0,1.7,2.05,6.33,6.33,0,0,0,1.67-2.05Z"/><path class="cls-1" d="M406,22.93a1.46,1.46,0,0,1,0,.29,5.6,5.6,0,0,0,3.55,1.18,3.28,3.28,0,0,0-.61.92A5.94,5.94,0,0,1,405.66,24c-.43.56-1.39,1.08-3.48,1.37a3.12,3.12,0,0,0-.57-.84h-3.08v-.88h3.52v.8c2.63-.34,2.91-1,2.91-1.54v-.16h-1a5.74,5.74,0,0,1-.88,1.13,4.85,4.85,0,0,0-.85-.57,5,5,0,0,0,1.39-2.24l1,.22c-.07.21-.15.4-.23.61h3.78l.16-.05.78.26a11,11,0,0,1-1.06,1.79l-.88-.31c.15-.22.34-.54.51-.84H406Zm-.1,7.35a33.67,33.67,0,0,1,3.43,1.33l-1,.61A25.91,25.91,0,0,0,405,30.85l.71-.57h-3.63l1,.47a16.94,16.94,0,0,1-3.72,1.51,9.47,9.47,0,0,0-.83-.85,12.89,12.89,0,0,0,3.49-1.13h-1.95V25.41H408v4.87Zm-4.13-7.65h-3v-.85h3Zm-.56,4.18h5.69v-.69H401.2Zm0,1.36h5.69v-.68H401.2Zm0,1.4h5.69v-.7H401.2Z"/><path class="cls-1" d="M309,109.85l.67-.91a2.85,2.85,0,0,0,2.09,1,1.75,1.75,0,0,0,1.77-1.91,1.66,1.66,0,0,0-1.7-1.87,2.34,2.34,0,0,0-1.43.51l-.68-.45L310,102h4.52v1.18H311.2l-.21,2.29a2.68,2.68,0,0,1,3.94,2.52,3,3,0,0,1-3,3.1A4,4,0,0,1,309,109.85Z"/><path class="cls-1" d="M316.28,106.44c0-2.91,1.8-4.66,4.16-4.66a3.56,3.56,0,0,1,2.66,1.13l-.76.9a2.43,2.43,0,0,0-1.85-.8c-1.66,0-2.76,1.28-2.76,3.38s1,3.42,2.82,3.42a2.26,2.26,0,0,0,1.41-.43v-2.1h-1.77v-1.16h3V110a4,4,0,0,1-2.82,1.05C318,111,316.28,109.36,316.28,106.44Z"/><path class="cls-1" d="M328.68,108.13a17.19,17.19,0,0,0-.95-1.61v5.31h-1.09v-4.92a11.63,11.63,0,0,1-1.56,2.83,6,6,0,0,0-.54-1,12.27,12.27,0,0,0,1.94-3.56H324.7v-1h1.94v-1.63c-.52.1-1.05.17-1.53.24a3.66,3.66,0,0,0-.32-.87,18.52,18.52,0,0,0,3.86-1l.64.92a11.15,11.15,0,0,1-1.56.46v1.86h1.7v1h-1.7v.17c.36.38,1.39,1.61,1.63,1.93Zm5.68.59v3.11h-1.11v-2.92l-3.82.65-.17-1.08,4-.67V100.7h1.11v6.93l1.33-.22.17,1Zm-2.64-1.64a10.54,10.54,0,0,0-2-1.81l.72-.65a10.92,10.92,0,0,1,2.07,1.72Zm.3-3.19a9.8,9.8,0,0,0-1.88-1.76l.74-.64a9.93,9.93,0,0,1,1.93,1.69Z"/><path class="cls-1" d="M340.88,107l-1.38.4v3.19c0,.58-.12.88-.47,1a4.2,4.2,0,0,1-1.73.2,3.82,3.82,0,0,0-.34-1c.54,0,1.05,0,1.19,0s.25-.06.25-.23v-2.88l-1.34.37-.29-1.08,1.63-.39v-2.44h-1.5v-1h1.5V100.7h1.1v2.37h1.27v1.05H339.5v2.14l1.25-.33Zm6.54-1.48a8.84,8.84,0,0,1-2.36,4,8.4,8.4,0,0,0,3,1.41,4.27,4.27,0,0,0-.73,1,8.48,8.48,0,0,1-3.14-1.64,10.42,10.42,0,0,1-3.31,1.62,4.38,4.38,0,0,0-.61-1,9.73,9.73,0,0,0,3.12-1.37,9.81,9.81,0,0,1-1.88-3.15l.16,0h-.49v-1h2.5v-1.66h-2.72v-1h2.72V100.7h1.12v1.82h2.8v1h-2.8v1.66h1.72l.19,0Zm-4.83.78a7.73,7.73,0,0,0,1.63,2.49,7.16,7.16,0,0,0,1.77-2.49Z"/><path class="cls-1" d="M365.42,106.58h-2.54v5.25h-1.15v-5.25H358.3a5.8,5.8,0,0,1-3.08,5.27,3.87,3.87,0,0,0-.81-.86,5,5,0,0,0,2.76-4.41h-2.65V105.5h2.67v-2.45c-.73.21-1.46.39-2.17.55a3.26,3.26,0,0,0-.4-.92,20.3,20.3,0,0,0,5.19-1.85l.83.93a17.46,17.46,0,0,1-2.32.95v2.79h3.41v-4.58h1.15v4.58h2.54Z"/><path class="cls-1" d="M370.57,108c0-.19-.08-.4-.15-.65-2.69.45-3.12.54-3.36.69a7.11,7.11,0,0,0-.36-1c.3-.06.57-.35.94-.8a12.35,12.35,0,0,0,.91-1.19,5.81,5.81,0,0,0-1.58.29,10.38,10.38,0,0,0-.35-1,1.45,1.45,0,0,0,.68-.65,13.92,13.92,0,0,0,1.53-3l1,.42a17.67,17.67,0,0,1-1.74,3l1.09-.09a16.78,16.78,0,0,0,.9-1.6l.94.59a22.45,22.45,0,0,1-2.63,3.71l1.73-.23a10.18,10.18,0,0,0-.41-1l.8-.28a11.31,11.31,0,0,1,.89,2.42Zm-2.52.66a15.06,15.06,0,0,1-.58,2.92,8.4,8.4,0,0,0-.85-.31,11.83,11.83,0,0,0,.54-2.77Zm1.24-.22a21,21,0,0,1,.32,2.4l-.85.22a20.65,20.65,0,0,0-.27-2.44Zm8.09-3.57a11.28,11.28,0,0,1-1.67,4.44,5.45,5.45,0,0,0,2,1.52,3.7,3.7,0,0,0-.76,1,6.26,6.26,0,0,1-1.93-1.57,8.64,8.64,0,0,1-1.95,1.65,3.8,3.8,0,0,0-.72-.87,6.3,6.3,0,0,0,2-1.71,11.7,11.7,0,0,1-1.17-2.79,11.52,11.52,0,0,1-1.65,5.29,6.27,6.27,0,0,0-1-.72,6.41,6.41,0,0,0,.6-1l-.81.28a15.85,15.85,0,0,0-.56-2l.78-.24a13.07,13.07,0,0,1,.6,1.92c.93-1.91,1.12-4.59,1.14-7.76h-1.11v-1h4.19l.17-.05.78.1c-.13,1-.34,2.29-.54,3.36h.66l.21,0Zm-4-2.56c0,.83-.05,1.61-.09,2.36h1.41c.16-.75.29-1.63.41-2.36Zm.52,3.36a10.17,10.17,0,0,0,1.08,2.67,10,10,0,0,0,1.08-2.67Z"/><path class="cls-1" d="M380.69,106.33a12.46,12.46,0,0,0-2-1.4l.67-.76a12.49,12.49,0,0,1,2.07,1.29Zm-1.79,4.52a30.07,30.07,0,0,0,1.87-3.77l.91.67c-.51,1.25-1.16,2.66-1.75,3.78Zm2.16-7.56a9.77,9.77,0,0,0-1.82-1.57L380,101a11.07,11.07,0,0,1,1.84,1.47Zm8.2,4.84a13.33,13.33,0,0,1-1.81,1.22,5.7,5.7,0,0,0,2.35,1.41,4.08,4.08,0,0,0-.72,1,6.59,6.59,0,0,1-4-4.56h-1.61v3.16l2.13-.65a8.55,8.55,0,0,0,.16,1c-2.61.86-3,1-3.3,1.24a4.09,4.09,0,0,0-.59-.86,1.45,1.45,0,0,0,.47-1.12V102h2.84a8.16,8.16,0,0,0-.49-1.14l1-.27a9.69,9.69,0,0,1,.63,1.41h2.4v5.17h-2.61a7,7,0,0,0,.73,1.44,13.65,13.65,0,0,0,1.67-1.23ZM383.44,103v1.13h4.2V103Zm0,3.21h4.2V105h-4.2Z"/><path class="cls-1" d="M392.52,106.14a11.49,11.49,0,0,0-1.82-1.38l.66-.73a10.78,10.78,0,0,1,1.86,1.28Zm-1.57,5a36.92,36.92,0,0,0,1.51-4.07l.89.57c-.38,1.33-.93,2.86-1.4,4.06Zm1.86-8.14a10,10,0,0,0-1.71-1.5l.71-.67a10.32,10.32,0,0,1,1.76,1.41Zm3.44,6.67v2.13h-1v-2.13h-1.77v-1h1.77v-.9h-1.36v-4h1.36V103h-1.56v-1h1.56v-1.27h1V102h1.57v1h-1.57v.88h1.36v4h-1.36v.9h1.62v1Zm-1.48-4.27h1.9v-.8h-1.9Zm0,1.59h1.9v-.83h-1.9Zm6.82,3.5c0,.54-.1.88-.42,1a3.48,3.48,0,0,1-1.59.21,4.14,4.14,0,0,0-.32-1.08c.49,0,1,0,1.12,0s.2-.06.2-.23v-2.75h-1.37a8.37,8.37,0,0,1-1.22,4.12,3.66,3.66,0,0,0-.84-.6c1-1.47,1.13-3.61,1.13-5.28v-4.84h3.31Zm-1-3.79v-1.81h-1.31V106c0,.24,0,.49,0,.75Zm-1.31-4.57v1.75h1.31v-1.75Z"/><path class="cls-1" d="M311.36,146.08c-.5-.34-1.51-.93-2.24-1.31l.62-.83c.69.33,1.72.86,2.25,1.2Zm1.28,1.56c-.63,1.26-1.44,2.71-2.15,3.85l-1-.76a34.38,34.38,0,0,0,2.3-3.84Zm-.67-4.77c-.48-.37-1.46-1-2.17-1.4l.66-.8c.69.38,1.68,1,2.19,1.31Zm7.67,7.46c0,.57-.12.9-.52,1.07a5.31,5.31,0,0,1-1.93.18,4.8,4.8,0,0,0-.35-1.05c.62,0,1.27,0,1.45,0s.25-.07.25-.24v-2l-3.81,1-.35-1c1.05-.21,2.62-.57,4.16-.93v-2.47h-4.26v2.48a9.22,9.22,0,0,1-.79,4.3,4.31,4.31,0,0,0-.88-.64,7.9,7.9,0,0,0,.63-3.67V143.9h2.65v-3.4H317v3.4h2.61Zm-5.57-6.77a8.42,8.42,0,0,0-1.15-2.25l1-.43a8.63,8.63,0,0,1,1.21,2.19Zm.95,2a13.41,13.41,0,0,1,3,1l-.49.79a12.61,12.61,0,0,0-2.92-1.07Zm5.05-4.35a20.62,20.62,0,0,1-1.29,2.27l-1-.39a13.78,13.78,0,0,0,1.19-2.29Z"/><path class="cls-1" d="M329.17,149.82c1.14.36,2.3.78,3.05,1.1l-.83.69a30.9,30.9,0,0,0-3.5-1.34l.46-.45h-3.21l.87.39a16.33,16.33,0,0,1-3.72,1.43,6.27,6.27,0,0,0-.81-.82,14.17,14.17,0,0,0,3.41-1H323v-3.71a8.28,8.28,0,0,1-1,.22,4,4,0,0,0-.53-.89,6.08,6.08,0,0,0,2.85-1h-2c.13-.57.25-1.38.33-2H325v-.59h-2.86v-.71H325v-.6h1v.6h1.65v-.6h1.06v.6h2.64v2h-2.64v.65h3.4s0,.2,0,.32a2.5,2.5,0,0,1-.32,1.26,1,1,0,0,1-.63.25h-.27v4.23Zm-5.61-6.72c0,.22-.07.44-.11.65h1.41a2.37,2.37,0,0,0,.15-.65Zm6.21,2.84h-5.66v.62h5.66Zm0,1.28h-5.66v.63h5.66Zm-5.66,1.92h5.66v-.64h-5.66Zm1.6-4.69a2.6,2.6,0,0,1-.73.8h2.71v-.8Zm2-1.35H326a2.75,2.75,0,0,1-.08.65h1.73Zm-1.65-.7h1.65v-.59H326Zm2.71-.59v.59h1.61v-.59Zm0,2.64v.8H330c0-.15-.1-.28-.14-.39a6.52,6.52,0,0,0,.74,0,.33.33,0,0,0,.27-.08.82.82,0,0,0,.13-.38Z"/><path class="cls-1" d="M336.75,149.76a6.78,6.78,0,0,0,3,.48c.69,0,4,0,4.9,0a3.62,3.62,0,0,0-.46,1.12h-4.45c-2.5,0-4-.38-4.94-2.07a7.08,7.08,0,0,1-.84,2.36,2.49,2.49,0,0,0-.71-.67,10,10,0,0,0,.82-5l.94.05c0,.45,0,.92,0,1.4a4.63,4.63,0,0,0,.76,1.56v-3.89h-2.19v-1h1.91v-1.22h-1.6v-1h1.6V140.5h1v1.35H338v.83a5.93,5.93,0,0,0,1.55-2.26l1,.25c-.07.16-.16.33-.24.5h4s0,.24,0,.37c-.12,2.12-.23,2.91-.49,3.23a1,1,0,0,1-.69.29,8.63,8.63,0,0,1-1.15,0,1.9,1.9,0,0,0-.2-.72c.4,0,.75,0,.91,0a.35.35,0,0,0,.31-.11,5.69,5.69,0,0,0,.34-2.32H339.8c-.11.17-.22.34-.34.5h.1v.91h.75v-1.1h.75v1.1h.74v-.91h.78V144H341a1.66,1.66,0,0,1-1,1l.37.09a4.11,4.11,0,0,1-.25.52h4.14l0,.39c-.11,2.31-.23,3.16-.52,3.48a.88.88,0,0,1-.69.31,10.8,10.8,0,0,1-1.18,0,1.94,1.94,0,0,0-.2-.75c.4,0,.76,0,.92,0a.31.31,0,0,0,.33-.11,7.05,7.05,0,0,0,.37-2.57h-3.6c-.13.2-.27.38-.4.55h.16v.94h.76v-1.16H341v1.16h.77V147h.79v1.64h-1.67c-.21.57-.8,1.09-2.19,1.42a2.27,2.27,0,0,0-.49-.6,2.71,2.71,0,0,0,1.76-.82h-1.28v-1l-.13.11a3.58,3.58,0,0,0-.47-.35v.1h-1.36Zm0-4.69v1.39h1.36v.33a6.35,6.35,0,0,0,1.11-1.5l-.47.09a1.65,1.65,0,0,0-.41-.55c1.09-.17,1.62-.48,1.83-.8h-1.35v-.82l-.14.14a5.76,5.76,0,0,0-.73-.5h-1.48v1.22h1.77v1Z"/><path class="cls-1" d="M348,143.18a2.37,2.37,0,0,1-1.89,1.66,3.29,3.29,0,0,0-.43-.67,1.81,1.81,0,0,0,1.48-1h-1.39v-.76h2.16v-.55h-1.72v-.72h1.72v-.65h1v.65h1.75v.72H349v.55h2.22v.76h-1.5v.35c0,.23,0,.31.18.31h.53a2.14,2.14,0,0,0,.56-.06c0,.22,0,.45.06.67a2.09,2.09,0,0,1-.6.06h-.77c-.69,0-.82-.31-.82-1v-.34Zm7.65-1.3c0,2.61,0,4.62.38,4.62.16,0,.21-.62.22-1.44a3.82,3.82,0,0,0,.65.63c-.09,1.26-.26,1.78-1,1.78-1.15,0-1.27-1.94-1.3-4.68h-1.05a12.81,12.81,0,0,1-.25,1.67,14.33,14.33,0,0,1,1.21.79l-.51.8c-.25-.18-.6-.44-1-.7a3.83,3.83,0,0,1-1.54,1.89,2.7,2.7,0,0,0-.58-.69v.4l-5.18.38-.06-.83c.62,0,1.39-.07,2.24-.12v-.71h-1.73V145h1.73v-.62h1V145h1.79v.71H349v.65l2-.15v.33a3.32,3.32,0,0,0,1.3-1.67l-1-.65.48-.69.8.46a9.66,9.66,0,0,0,.16-1.15h-1.21v-.92h1.26c0-.43,0-.9,0-1.38h.95q0,.72,0,1.38Zm0,6.11a4.21,4.21,0,0,1-.05.45c-.19,1.72-.39,2.49-.73,2.81a1.32,1.32,0,0,1-.93.36,17,17,0,0,1-1.71,0,2.12,2.12,0,0,0-.33-1c.66.06,1.32.07,1.58.07s.36,0,.47-.11.33-.64.45-1.67h-3.16c-.56,1.45-1.81,2.34-4.94,2.78a3.5,3.5,0,0,0-.51-.93c2.59-.3,3.71-.88,4.24-1.85H346.5V148h3.88c.05-.22.08-.45.12-.69h1.14q0,.36-.12.69Z"/><path class="cls-1" d="M364.51,148.45a19.13,19.13,0,0,1-.56,2.93,4.91,4.91,0,0,0-.83-.32,11.56,11.56,0,0,0,.53-2.76Zm2.36-3.3a17.26,17.26,0,0,1,.81,2.28l-.81.33a3.47,3.47,0,0,0-.13-.54,13.12,13.12,0,0,0-3.18.63,6.39,6.39,0,0,0-.3-.95c.25-.07.52-.36.87-.82a15.29,15.29,0,0,0,.9-1.25,6.4,6.4,0,0,0-1.54.26,9.36,9.36,0,0,0-.32-.92c.21-.06.41-.3.65-.65a17,17,0,0,0,1.47-3l.93.39a20.53,20.53,0,0,1-1.73,3.11l1.1-.08c.3-.55.61-1.13.87-1.69l.85.54a24.36,24.36,0,0,1-2.56,3.88l1.73-.24c-.11-.33-.23-.68-.35-1Zm-1.17,3.08a21.23,21.23,0,0,1,.32,2.54l-.81.21a22.94,22.94,0,0,0-.28-2.56Zm1.24-.31a19.49,19.49,0,0,1,.71,2.29l-.77.28a17,17,0,0,0-.65-2.33Zm7.09,2.52c0,.55-.11.83-.43,1a3.64,3.64,0,0,1-1.58.18,3.76,3.76,0,0,0-.31-1c.48,0,1,0,1.11,0s.2-.06.2-.23V142h-4.26v9.6h-1V141.05H374Zm-2.1-1.89a3.2,3.2,0,0,0,.7-.06c0,.24,0,.57.08.8a3.33,3.33,0,0,1-.77.06h-1.31c-.88,0-1.09-.34-1.09-1.2v-1h-.4v-.89h1.46c-.1-.28-.26-.64-.4-.93l.63-.21H369v-.87h2.14a16.33,16.33,0,0,0,.48-1.92l.8.22c-.17.56-.37,1.2-.54,1.7h.84v.87H371a10,10,0,0,1,.46,1l-.45.18h1.64v.89h-2.2v1c0,.28.05.39.27.39ZM370,142.33a6.6,6.6,0,0,1,.58,1.66l-.7.24a6.2,6.2,0,0,0-.55-1.68Z"/><path class="cls-1" d="M385.7,142a9,9,0,0,1-1.73,3.24,7.7,7.7,0,0,0,2.64,1.59,4.58,4.58,0,0,0-.69.93l-.24-.09v3.94H384.6v-.39h-2.71v.42h-1v-4c-.18.08-.35.17-.53.24a3.74,3.74,0,0,0-.32-.5v0h-1.42v1.91l1.51-.35.11,1c-1.66.42-3.42.84-4.73,1.15l-.2-1.09.58-.11v-4.09h.93v3.89l.8-.18v-4.73H375.9V141h4v3.11a8.65,8.65,0,0,0,2.1-3.59l1.09.26c-.1.32-.23.63-.36.94h2.06l.2,0Zm-8.82,1.87h2V142h-2Zm3.13,3.07a8.36,8.36,0,0,0,2.56-1.72,10.3,10.3,0,0,1-1-1.4,8.35,8.35,0,0,1-.93,1.14,8.09,8.09,0,0,0-.78-.67v.55h-1.31v1.6H380Zm4.93.34a8.7,8.7,0,0,1-1.68-1.29,8.89,8.89,0,0,1-1.67,1.29Zm-.34,3v-2h-2.71v2Zm-2.32-7.55-.11.22a8.61,8.61,0,0,0,1.06,1.56,7.83,7.83,0,0,0,1.08-1.78Z"/><path class="cls-1" d="M398.33,142.69h-7.08c.24.41.55,1,.7,1.29l-.88.34H394a14,14,0,0,0,.79-1.61l1.12.25a15.56,15.56,0,0,1-.85,1.36h2.69v6.16c0,.56-.14.79-.53.93a6.55,6.55,0,0,1-2,.16,3,3,0,0,0-.34-.86c.7,0,1.39,0,1.56,0s.28-.06.28-.24v-5.25h-2.2v.58c0,.27,0,.36.24.36h.86a3.16,3.16,0,0,0,.69-.06c0,.27,0,.54.07.79a3.06,3.06,0,0,1-.74.06h-1.12c-.84,0-1-.38-1-1.16v-.57h-1.15c-.18,1.19-.73,1.85-2.39,2.22a2.21,2.21,0,0,0-.51-.77v4.93h-1.07v-7.29h2.57c-.14-.37-.45-.95-.66-1.35l.81-.28h-3.35v-1h4.89c-.11-.34-.26-.73-.38-1l1.08-.27c.17.41.37.92.49,1.31h4.53Zm-8.91,4c1.32-.24,1.76-.66,1.9-1.44h-1.9Zm2.24,3.45v.53h-.94v-3.36h4.52v2.83Zm0-2v1.2h2.66v-1.2Z"/><path class="cls-1" d="M402.43,147.11a11.82,11.82,0,0,0-.59-1.33v5.85h-1v-5.25a13.48,13.48,0,0,1-1,2.7,6.6,6.6,0,0,0-.47-1.12,14.06,14.06,0,0,0,1.4-4.13H399.7v-1h1.17v-2.28h1v2.28h.91v1h-.91v.67c.28.4,1,1.53,1.11,1.82Zm7.51.86a7,7,0,0,1-1.41,1.88,1.51,1.51,0,0,0,1,.68c.23,0,.38-.41.47-1.28a2.85,2.85,0,0,0,.73.57c-.25,1.42-.68,1.84-1.19,1.81a2.43,2.43,0,0,1-1.83-1.14,8.51,8.51,0,0,1-2,1.09,6.42,6.42,0,0,0-.6-.73,7.44,7.44,0,0,0,2.16-1.17,11.17,11.17,0,0,1-.64-2.1H404.8c0,.12,0,.25,0,.38a14,14,0,0,1,1.6,1.39l-.69.68a10.06,10.06,0,0,0-1.08-1,4.57,4.57,0,0,1-1.72,2.64,3.9,3.9,0,0,0-.75-.66,4,4,0,0,0,1.7-3.4H403v-.89h3.48a48,48,0,0,1-.51-6.11h.95a40.18,40.18,0,0,0,.52,6.11h1.45A7.57,7.57,0,0,0,408,146l.5-.45a3.58,3.58,0,0,0-.87.22,7.9,7.9,0,0,0-.27-.83c.19,0,.37-.24.59-.54a11,11,0,0,0,.66-1,2.85,2.85,0,0,0-1.11.23,6,6,0,0,0-.28-.81c.15,0,.28-.19.43-.41a8.32,8.32,0,0,0,.8-1.85l.84.23a12.93,12.93,0,0,1-1,1.93l.72-.08a5.86,5.86,0,0,0,.38-.8l.84.31a17,17,0,0,1-1.7,2.63l1-.12c-.09-.21-.17-.44-.25-.63l.66-.19a13.21,13.21,0,0,1,.63,1.77l-.71.25c0-.15-.08-.33-.13-.52l-1.09.17a8.35,8.35,0,0,1,1.12.82l-.32.3h1v.89h-2.81a8.8,8.8,0,0,0,.44,1.39,5.81,5.81,0,0,0,.93-1.35Zm-4.52-1.88c0-.14-.05-.29-.08-.46a7.55,7.55,0,0,0-2.06.38,6.05,6.05,0,0,0-.28-.81c.19,0,.4-.24.62-.54.12-.15.38-.53.67-1a3.87,3.87,0,0,0-1.14.24,8.19,8.19,0,0,0-.26-.8.85.85,0,0,0,.45-.43,9.21,9.21,0,0,0,.92-2l.84.24A13.46,13.46,0,0,1,404,143l.75-.07c.14-.25.28-.52.4-.79l.81.31a18.4,18.4,0,0,1-1.76,2.62l1-.13c-.07-.23-.15-.46-.23-.66l.68-.18a10.6,10.6,0,0,1,.59,1.75Z"/><path class="cls-1" d="M320,62.12v1H309.43v-1h4.81c-.11-.33-.23-.69-.34-1l1.14-.27c.16.39.36.87.48,1.26Zm-.32,8.81c0,.53-.14.74-.51.88a5.45,5.45,0,0,1-1.75.14,3.83,3.83,0,0,0-.35-.84c.51,0,1.12,0,1.25,0s.22-.05.22-.19V67.66h-7.62V72h-1.1V66.73h9.86Zm-1.24-7.27v2.49h-7.28V63.66Zm-5.3,7.16v.56h-1V68.26h5.14v2.56Zm4.11-6.37h-5v.9h5Zm-4.11,4.62V70h3.1v-.93Z"/><path class="cls-1" d="M326.9,64.44h-5.58v-.89h.76v-2h.86v2h.82V60.92h.92v1h1.87v.85h-1.87v.79h2.22Zm-1.14.36h.81v7h-.81v-.41h-4.08v-6.6h.8v1.76a3.16,3.16,0,0,0,.66-1.9l.58.08a5.83,5.83,0,0,1-.16.87c.21.23.4.5.54.67a3.49,3.49,0,0,0,.53-1.6l.58.08a4,4,0,0,1-.18.85c.28.32.56.68.73.92Zm-2.06,2c-.08-.15-.21-.35-.33-.54a2.73,2.73,0,0,1-.5.79,2.06,2.06,0,0,0-.39-.4v.5h3.28v-.58l-.39.44c-.12-.2-.34-.5-.55-.8a2.52,2.52,0,0,1-.55.8,2.91,2.91,0,0,0-.39-.41Zm2.06,1.2h-3.28v2a3.38,3.38,0,0,0,.66-1.91l.58.08a6.22,6.22,0,0,1-.16.88,6.87,6.87,0,0,1,.55.69,3.61,3.61,0,0,0,.53-1.63l.59.07a5,5,0,0,1-.19.87,9.42,9.42,0,0,1,.72.9Zm0,2.57v-.47l-.37.42c-.13-.21-.35-.52-.55-.81a2.79,2.79,0,0,1-.56.8,2.72,2.72,0,0,0-.38-.39l-.16.18c-.09-.16-.24-.36-.38-.57a2.52,2.52,0,0,1-.5.8,3.35,3.35,0,0,0-.38-.4v.44Zm4.35-9.28c-.07.17-.12.35-.19.53a10.48,10.48,0,0,0,2.57,3.12,5.06,5.06,0,0,0-.67.89,11.77,11.77,0,0,1-1-1.07v.8h-2.59V64.8a11.75,11.75,0,0,1-.91,1.11,9.18,9.18,0,0,0-.72-.82,11,11,0,0,0,2.6-4.18Zm2,5.8A17.7,17.7,0,0,1,330,70.3c.38.37.71.74,1,1l-.73.74a36.13,36.13,0,0,0-2.5-2.72l.67-.63c.27.27.6.57.92.89a15.3,15.3,0,0,0,1.47-2.1H327.3v-1h4l.16-.06Zm-1.44-2.5a13.47,13.47,0,0,1-1.2-1.86,14.6,14.6,0,0,1-1.08,1.86Z"/><path class="cls-1" d="M337.48,68.4c-.23-.34-.69-.88-1.1-1.35v5h-1.1V67.32a9.52,9.52,0,0,1-1.54,1.24,4.88,4.88,0,0,0-.47-1.11A9.6,9.6,0,0,0,336.61,64h-3V63h2.29a7.79,7.79,0,0,0-1.09-1.59l.88-.5a7.63,7.63,0,0,1,1.14,1.55L336,63h1.25l.2-.05.6.42a11.29,11.29,0,0,1-1.44,2.55c.48.44,1.38,1.33,1.62,1.59Zm7.09,2.1v1.11h-6.93V70.5h3.06V65.69h-2.52V64.61h2.52V60.92h1.15v3.69h2.45v1.08h-2.45V70.5Z"/><path class="cls-1" d="M352,61.2c-.06.07-.11.16-.18.23a11.7,11.7,0,0,0,5.07,2.36,4.7,4.7,0,0,0-.72.87l-.91-.3v3.15H347V64.45c-.3.11-.59.21-.89.29a4.37,4.37,0,0,0-.61-.86,10.32,10.32,0,0,0,5.45-3Zm3.22,3.15a12,12,0,0,1-1.95-.86v.35h-4.19v-.29a12.67,12.67,0,0,1-1.76.8ZM347.74,68h6.91v4H353.5v-.32h-4.65V72h-1.11Zm1.65-2.82A5,5,0,0,1,350,66.5l-.8.27h1.43V65.09H348v1.68h1.17a5.5,5.5,0,0,0-.57-1.36Zm-.54,3.6v.67h4.65v-.67Zm4.65,2.12v-.68h-4.65v.68Zm-1-7.82a8.9,8.9,0,0,1-1.34-1,9.23,9.23,0,0,1-1.32,1Zm1.71,2h-2.69v1.68h1.36l-.76-.23a8.81,8.81,0,0,0,.61-1.42l1,.26c-.27.53-.54,1-.76,1.39h1.29Z"/><path class="cls-1" d="M370.27,67.45v.47h2.84V72h-1.06v-.41h-6.63V72h-1v-4.1h3v-.47h-4.26v-.76h11.09v.76ZM363.85,62h-.37v-.68h5.37V62h-4.11v3.12c0,.42.09.57.52.57h2.4a6.64,6.64,0,0,0,1.14-.07,5.88,5.88,0,0,0,.1.7,6,6,0,0,1-1.17.07h-2.52c-1.06,0-1.36-.35-1.36-1.3Zm2,1.08a3.94,3.94,0,0,1-.41.49,3.34,3.34,0,0,0-.58-.36,3.27,3.27,0,0,0,.84-1.21l.66.16a3.35,3.35,0,0,1-.15.35h2.25V63h-1.25v.55h1.46v.59h-1.43a11.16,11.16,0,0,1,1.31.91l-.46.5a7.15,7.15,0,0,0-1.22-.9,2.92,2.92,0,0,1-1.39,1,2.68,2.68,0,0,0-.47-.54,2,2,0,0,0,1.34-.93H365v-.59h1.51V63ZM372.05,71V69.64h-1.49c-.95,0-1.18-.16-1.18-.84v-.24H368.3c-.13.62-.73,1.07-2.4,1.32a3.15,3.15,0,0,0-.48-.64c1.29-.12,1.79-.37,2-.68h-2V71Zm-5.69-1h4.9v.6h-4.9Zm3-2.53h-1.05v.47h1.05Zm-.15-3.81a3.49,3.49,0,0,0-.59-.66c.93-.34,1.08-.74,1.08-1.15v-.62h3v1c0,.23,0,.3.17.3h.49a2.31,2.31,0,0,0,.52-.06c0,.23,0,.54.07.75a1.78,1.78,0,0,1-.56.07h-.65c-.77,0-.92-.32-.92-1.07V62H370.6a1.8,1.8,0,0,1-1,1.48h3.05l.17,0,.55.23a4.23,4.23,0,0,1-1.21,1.63c.55.26,1.07.49,1.44.69l-.41.66c-.43-.23-1.06-.53-1.74-.85a7.78,7.78,0,0,1-2.13.85,3.61,3.61,0,0,0-.46-.69,8.17,8.17,0,0,0,1.69-.56c-.47-.21-.93-.4-1.35-.57l.4-.57c.52.19,1.12.44,1.72.69a3.9,3.9,0,0,0,.82-.8h-2.94Zm1,4.92v.26c0,.23.06.26.39.26h1.39v-.51Z"/><path class="cls-1" d="M386.14,65.26a6.82,6.82,0,0,1-.93.8,6.14,6.14,0,0,0,1.33.72,3.31,3.31,0,0,0-.64.8,5.45,5.45,0,0,1-.88-.49v2.22H382.8V71c0,.5-.09.74-.46.89a5.1,5.1,0,0,1-1.66.16,3.6,3.6,0,0,0-.36-.91h1.2c.16,0,.2,0,.2-.17V69.31h-2.18v-2.2c-.27.18-.57.36-.89.53a2.34,2.34,0,0,0-.63-.7,8.31,8.31,0,0,1-1.71,5.1,4.5,4.5,0,0,0-.78-.74,6.37,6.37,0,0,0,1.38-3.44c-.46.28-.92.56-1.38.8l-.36-1c.48-.19,1.13-.54,1.83-.9,0-.32,0-.61,0-.92V62h4.11c-.07-.29-.18-.58-.27-.85l1.13-.23a10.8,10.8,0,0,1,.4,1.08h4v1h-8.35v2.91c0,.33,0,.66,0,1a7.74,7.74,0,0,0,1.32-.81,10.72,10.72,0,0,0-.84-.67l.6-.51c.26.18.59.41.86.64a5.7,5.7,0,0,0,.65-.76h-2.08v-.87h2.6a4.19,4.19,0,0,0,.38-.95l1.05.15a5.21,5.21,0,0,1-.3.8h4v.87h-2.43a6.8,6.8,0,0,0,.77.85,8.3,8.3,0,0,0,.84-.8Zm-10.09.49c-.14-.6-.45-1.63-.72-2.39l.84-.32a19.66,19.66,0,0,1,.75,2.31Zm4.61,4.07a16.74,16.74,0,0,1-1.85,2,5.82,5.82,0,0,0-.86-.64,9.61,9.61,0,0,0,1.7-1.67ZM384,66.69H380.5v.62H384ZM384,68H380.5v.62H384Zm-2.22-3.24a7.06,7.06,0,0,1-1,1.25h2.88a6.1,6.1,0,0,1-.92-1.25Zm2.58,4.72c.59.56,1.4,1.36,1.8,1.84l-.86.54c-.38-.48-1.15-1.31-1.75-1.91Z"/><path class="cls-1" d="M390.49,61.22a24.1,24.1,0,0,1-.87,2.38V72h-1V65.57a9.83,9.83,0,0,1-.73,1.06,7.46,7.46,0,0,0-.53-1.17,13.1,13.1,0,0,0,2.1-4.53Zm2.63,4.14a15,15,0,0,1-.88,4.26,5.56,5.56,0,0,0,4.11,1.32h2.25a3.43,3.43,0,0,0-.35.92h-2a6.23,6.23,0,0,1-4.46-1.36A4.72,4.72,0,0,1,390.45,72a3.72,3.72,0,0,0-.74-.69,4.38,4.38,0,0,0,1.46-1.65,7.4,7.4,0,0,1-1.05-2.22l.82-.29a6,6,0,0,0,.64,1.55,12.23,12.23,0,0,0,.54-2.6H390.3c.4-.91.91-2.24,1.34-3.43h-1.21v-1H393c-.39,1.12-.89,2.44-1.31,3.51h.85ZM395,62.7h-1.47v-.83H395v-1h.93v1h1.8v1.6h.79v.85h-.79v1.62h-1.8v.74h2v.89h-2v.8h2.36v.88h-2.36v1.3H395v-1.3h-1.92v-.88H395v-.8h-1.63v-.89H395v-.74h-1.47V65.1H395v-.78h-2v-.85h2Zm.93,0v.77h.93V62.7Zm.93,1.62h-.93v.78h.93Z"/><path class="cls-1" d="M403.92,63.83H399.6v-.9h2.15a13,13,0,0,0-.85-1.65l.85-.43a11.2,11.2,0,0,1,.88,1.59l-.86.49h2.15Zm-.36,7.51H401v.55h-.95v-4.1h3.49Zm0-5.91H400.1v-.88h3.42Zm-3.42.73h3.42V67H400.1ZM401,68.7v1.73h1.58V68.7Zm3.71-3.18c-.18.22-.35.42-.53.62a5.74,5.74,0,0,0-.6-.85,6,6,0,0,0,1.53-2.47l.67.21v-.58H404v-.86h1.83v-.68h1v2.16h-.87l.12,0a6.76,6.76,0,0,1-.29.69h1.36c-.07-.23-.16-.47-.24-.67l1-.27,0,.06v-2h1v.66h1.73v.88H408.9v.62H408a6.92,6.92,0,0,1,.25.72h2.14v.73h-2.23V65H410v.62h-1.91v.52H410v.61h-1.91v.53h2.49V68h-4.94v.21h-.94Zm5.42,3.24a5.27,5.27,0,0,1-1.77,1.84,12.19,12.19,0,0,0,2.48.55,3.61,3.61,0,0,0-.63.89,10.41,10.41,0,0,1-2.91-.88,13.13,13.13,0,0,1-3.18.91,3.68,3.68,0,0,0-.5-.91,14.21,14.21,0,0,0,2.67-.58,5.75,5.75,0,0,1-1.23-1.18l.44-.15h-1.35v-.79h5.15l.19,0Zm-3-4.24h-1.51V65h1.51Zm0,1.13h-1.51v.52h1.51Zm0,1.13h-1.51v.53h1.51Zm-1,2.47a5.06,5.06,0,0,0,1.2.89,4.91,4.91,0,0,0,1.26-.89Z"/><path class="cls-2" d="M271.65,26.45a14.51,14.51,0,0,1,12.68-14.37V8.7a17.84,17.84,0,0,0,0,35.5V40.82a14.49,14.49,0,0,1-12.67-14.37"/><path class="cls-2" d="M288,8.7v3.38a14.49,14.49,0,0,1,0,28.74V44.2a17.84,17.84,0,0,0,0-35.5"/><path class="cls-2" d="M283.26,22.8a3.68,3.68,0,0,0-1.9.52,16.21,16.21,0,0,1,1.4-4.79,5.57,5.57,0,0,1,2.62-2.87v7.81a3.68,3.68,0,0,0-2.12-.67m-5.85,0a3.75,3.75,0,0,0-1.71.41,11,11,0,0,1,6.67-7,15.62,15.62,0,0,0-2.63,7.43,3.68,3.68,0,0,0-2.33-.83m19.25.41a3.71,3.71,0,0,0-4,.4,15.68,15.68,0,0,0-2.62-7.4,11,11,0,0,1,6.63,7m-7.55-.41a3.76,3.76,0,0,0-2.17.69V15.64a5.41,5.41,0,0,1,2.68,2.9,16.1,16.1,0,0,1,1.41,4.8,3.61,3.61,0,0,0-1.92-.54m0,1.55a2.16,2.16,0,0,1,2.15,2.15h0v.05h1.56v-.14a2.15,2.15,0,0,1,4.29.09h1.62A12.55,12.55,0,0,0,286.57,14l-.38,0-.36,0A12.56,12.56,0,0,0,273.64,26.5h1.62a2.15,2.15,0,0,1,4.3,0h0v.05h1.56c0-.11,0-.22,0-.33a2.15,2.15,0,0,1,4.27.16v.12H287s0-.08,0-.12a2.14,2.14,0,0,1,2.14-2"/><rect class="cls-2" x="285.38" y="28.07" width="1.56" height="7.61"/><rect class="cls-2" x="285.38" y="37.23" width="1.56" height="1.62"/><path class="cls-2" d="M290.62,67.3a2.73,2.73,0,1,0-2.72-2.73A2.73,2.73,0,0,0,290.62,67.3Zm1.36.91-.2,0a3.55,3.55,0,0,1-2.32,0,.69.69,0,0,0-.2,0,3.18,3.18,0,0,0-3.18,3.18h0a1.36,1.36,0,0,0,1.36,1.35h6.36a1.35,1.35,0,0,0,1.36-1.35A3.17,3.17,0,0,0,292,68.21Zm-5.62.29A4.47,4.47,0,0,1,287,68V61.85a.91.91,0,0,0-.91-.91h-.91V59.12a.9.9,0,0,0-.91-.9h-4.54a.9.9,0,0,0-.91.9v1.82h-.91a.9.9,0,0,0-.9.91V72.3a.45.45,0,0,0,.45.45h8.18a2.33,2.33,0,0,1-.46-1.34A4.07,4.07,0,0,1,286.36,68.5Zm-5.28,1.18a.34.34,0,0,1-.34.34h-1.13a.34.34,0,0,1-.34-.34V68.55a.34.34,0,0,1,.34-.34h1.13a.34.34,0,0,1,.34.34Zm0-3.63a.34.34,0,0,1-.34.34h-1.13a.34.34,0,0,1-.34-.34V64.91a.34.34,0,0,1,.34-.34h1.13a.34.34,0,0,1,.34.34Zm1.37-3.46a.18.18,0,0,1-.17.17h-.57a.17.17,0,0,1-.17-.17v-.74h-.74a.18.18,0,0,1-.17-.17v-.57a.18.18,0,0,1,.17-.17h.74V60.2a.17.17,0,0,1,.17-.17h.57a.18.18,0,0,1,.17.17v.74h.73a.17.17,0,0,1,.17.17v.57a.17.17,0,0,1-.17.17h-.73Zm2.27,7.09a.34.34,0,0,1-.34.34h-1.14a.34.34,0,0,1-.34-.34V68.55a.34.34,0,0,1,.34-.34h1.14a.34.34,0,0,1,.34.34Zm0-3.63a.34.34,0,0,1-.34.34h-1.14a.34.34,0,0,1-.34-.34V64.91a.34.34,0,0,1,.34-.34h1.14a.35.35,0,0,1,.34.34Z"/><path class="cls-2" d="M271.65,66.18a14.5,14.5,0,0,1,12.68-14.37V48.43a17.84,17.84,0,0,0,0,35.5V80.55a14.5,14.5,0,0,1-12.67-14.37"/><path class="cls-2" d="M288,48.43v3.38a14.49,14.49,0,0,1,0,28.74v3.38a17.84,17.84,0,0,0,0-35.5"/><path class="cls-2" d="M284.22,113a2,2,0,1,0,2-2A2,2,0,0,0,284.22,113Z"/><path class="cls-2" d="M286.19,97.71A14.23,14.23,0,0,0,276,102a.72.72,0,0,0-.22.55.76.76,0,0,0,.23.55.77.77,0,0,0,.54.22v0a.79.79,0,0,0,.54-.24,12.8,12.8,0,0,1,18.26,0,.79.79,0,0,0,1.09,0,.76.76,0,0,0,.23-.55.75.75,0,0,0-.22-.55A14.23,14.23,0,0,0,286.19,97.71Z"/><path class="cls-2" d="M286.19,103.56a8.83,8.83,0,0,1,6.36,2.69.79.79,0,0,0,1.1,0,.77.77,0,0,0,0-1.09h0a10.39,10.39,0,0,0-14.94,0,.7.7,0,0,0-.22.55.74.74,0,0,0,.23.54.78.78,0,0,0,1.1,0A8.8,8.8,0,0,1,286.19,103.56Z"/><path class="cls-2" d="M286.19,108.18a5.27,5.27,0,0,1,3.83,1.63.77.77,0,0,0,1.33-.51.75.75,0,0,0-.22-.55,6.83,6.83,0,0,0-9.89,0,.77.77,0,0,0,1.12,1.06A5.27,5.27,0,0,1,286.19,108.18Z"/><path class="cls-2" d="M271.65,105.91a14.5,14.5,0,0,1,12.68-14.37V88.15a17.85,17.85,0,0,0,0,35.51v-3.38a14.5,14.5,0,0,1-12.67-14.37"/><path class="cls-2" d="M288,88.15v3.39a14.49,14.49,0,0,1,0,28.74v3.38a17.85,17.85,0,0,0,0-35.51"/><path class="cls-2" d="M271.65,145.64a14.5,14.5,0,0,1,12.68-14.37v-3.39a17.85,17.85,0,0,0,0,35.51V160a14.51,14.51,0,0,1-12.67-14.37"/><path class="cls-2" d="M288,127.88v3.39A14.49,14.49,0,0,1,288,160v3.38a17.85,17.85,0,0,0,0-35.51"/><path class="cls-2" d="M290.58,135.69h-8.83a1.89,1.89,0,0,0-1.9,1.89V154a1.89,1.89,0,0,0,1.9,1.89h8.83a1.89,1.89,0,0,0,1.9-1.89V137.58A1.89,1.89,0,0,0,290.58,135.69Zm-4.42,18.93a1.26,1.26,0,1,1,1.27-1.26A1.26,1.26,0,0,1,286.16,154.62Zm4.42-4.26a.48.48,0,0,1-.47.48h-7.89a.48.48,0,0,1-.47-.48V138.05a.47.47,0,0,1,.47-.47h7.89a.47.47,0,0,1,.47.47Z"/><path class="cls-2" d="M287.62,142.26a2,2,0,0,0-1.43-.66c-.65,0-1,.31-1,.92,0,1.38,3.38,1.17,3.38,3.66a2.25,2.25,0,0,1-2,2.35v1.29h-1.1v-1.24a4.21,4.21,0,0,1-2.2-1l.73-1.1a3,3,0,0,0,1.83.76c.78,0,1.13-.35,1.13-1,0-1.5-3.37-1.37-3.37-3.69a2.19,2.19,0,0,1,1.88-2.27v-1.28h1.1v1.26a3.08,3.08,0,0,1,1.85,1Z"/><path class="cls-3" d="M263.91,4.16H258.5c-6.49,0-11.76,5-11.76,11.08V156.37c0,6.12,5.27,11.08,11.76,11.08h5.41"/><path class="cls-4" d="M263.91,7.49h-5.42c-4.73,0-8.57,4.75-8.57,10.62V153.49c0,5.87,3.84,10.63,8.57,10.63h5.42"/><path class="cls-3" d="M419.91,4.16h5.4c6.5,0,11.76,5,11.76,11.08V156.37c0,6.12-5.26,11.08-11.76,11.08h-5.4"/><path class="cls-4" d="M419.91,7.49h5.41c4.74,0,8.57,4.75,8.57,10.62V153.49c0,5.87-3.83,10.63-8.57,10.63h-5.41"/><path class="cls-1" d="M99.32,78.41a12,12,0,0,1-1.75,4.38,4.61,4.61,0,0,0-.89-.49,9.66,9.66,0,0,0,1.59-4.08Zm2.55-2.47v7.8c0,.62-.16.89-.55,1.05a6.23,6.23,0,0,1-2,.17A4.47,4.47,0,0,0,99,84c.68,0,1.41,0,1.62,0s.28-.07.28-.27v-7.8Zm2.28,2.2a16.2,16.2,0,0,1,1.92,4.42l-1,.4a17,17,0,0,0-1.81-4.48Z"/><path class="cls-1" d="M115.8,83.77v.86h-8.94v-.86h4V82.71h-3v-.85h3v-.78h-.75v-2H109a3.09,3.09,0,0,1-1.52,2.28,4.7,4.7,0,0,0-.61-.65,2.36,2.36,0,0,0,1.25-1.63H107v-.83h1.2V77h-.86v-.82h4.47V77H111v1.22h1v.83h-1V80.9h.84v1h2.94v.85h-2.94v1.06Zm-5.67-5.55V77h-1.06v1.22Zm3.29,1.48h-.85V76.38h.85Zm1.86.52c0,.47-.09.7-.42.84a4.51,4.51,0,0,1-1.52.15,3.32,3.32,0,0,0-.28-.84c.51,0,1,0,1.14,0s.2,0,.2-.17V75.88h.88Z"/><path class="cls-1" d="M105.26,94.87c0,.43-.08.7-.34.85a2.67,2.67,0,0,1-1.26.17,3.53,3.53,0,0,0-.24-.87h.84c.12,0,.16,0,.16-.18V92.46l-1,.62-.29-.65a11.15,11.15,0,0,1-.67,3.55,2.93,2.93,0,0,0-.75-.42,13,13,0,0,0,.65-4.83V87.16h2.91Zm-2.09-4.16c0,.45,0,1,0,1.48l1.28-.53V90.52l-.38.32a10.88,10.88,0,0,0-.87-1Zm0-2.71v1.4l.31-.22a10.42,10.42,0,0,1,.94.94V88Zm7.42,3.33a6.26,6.26,0,0,1-1.75,2.94,6.51,6.51,0,0,0,2.08.89,3.11,3.11,0,0,0-.6.8,6.58,6.58,0,0,1-2.22-1.09,8.22,8.22,0,0,1-2.28,1.07,3.27,3.27,0,0,0-.5-.8,7.3,7.3,0,0,0,2.09-.88A7.3,7.3,0,0,1,106,92.1l.33-.1h-.63v-.87h4.14l.16,0Zm-3.11-3.07A2.83,2.83,0,0,1,106,90.93a3.09,3.09,0,0,0-.6-.65,2.09,2.09,0,0,0,1.28-2V87.17h3.16v2.24c0,.28,0,.38.14.38h.48a1.74,1.74,0,0,0,.45-.06l.07.75a1.56,1.56,0,0,1-.5.06h-.58c-.77,0-.94-.32-.94-1.14V88h-1.43ZM106.87,92a5.21,5.21,0,0,0,1.24,1.71A5.19,5.19,0,0,0,109.39,92Z"/><path class="cls-5" d="M91.85,84.88a14.5,14.5,0,0,1,12.68-14.37V67.12a17.84,17.84,0,0,0,0,35.5V99.25A14.51,14.51,0,0,1,91.85,84.88"/><path class="cls-5" d="M108.16,67.12v3.39a14.48,14.48,0,0,1,0,28.73v3.38a17.84,17.84,0,0,0,0-35.5"/><path class="cls-1" d="M61.88,83.61h3.79v.84H57.24v-.84H60.9V82.14H58.21v-.81H60.9V80H58.66v-.81a11.74,11.74,0,0,1-1.3.8,3.2,3.2,0,0,0-.58-.76,12,12,0,0,0,3.53-2.52H58.72v-.87h3.19a9.63,9.63,0,0,0,4.18,3.27,4.5,4.5,0,0,0-.63.84,9.84,9.84,0,0,1-1.29-.73V80H61.88v1.36H64.6v.81H61.88Zm-3.2-4.46h5.43a12.34,12.34,0,0,1-2.7-2.47A14.48,14.48,0,0,1,58.68,79.15Z"/><path class="cls-1" d="M75.89,79A25.23,25.23,0,0,1,74.2,81a5.57,5.57,0,0,0,2,2.24,2,2,0,0,0-.57.72,6.45,6.45,0,0,1-2.12-2.6v2.23c0,.5-.12.76-.42.91a3.66,3.66,0,0,1-1.55.19,4,4,0,0,0-.32-.89c.54,0,1,0,1.17,0s.22-.06.22-.22v-2c-.77.77-1.56,1.52-2.22,2.12l-.57-.81.14-.11c-1,.34-2.11.68-2.94.94l-.2-.89L68,82.47v-2.6H67V79H68V77H66.89v-.86H70V77H68.88v2h.94v.86h-.94v2.34L70,81.86l.12.74c.66-.53,1.57-1.3,2.42-2V78.06H70.19V77.2h2.37V75.54h.9V77.2H76v.86H73.46v.41a11.7,11.7,0,0,0,.42,1.78,14.38,14.38,0,0,0,1.2-1.7ZM71,78.61a7.64,7.64,0,0,1,1,1.78l-.77.37a7.39,7.39,0,0,0-1-1.83Zm4-1.42a6.47,6.47,0,0,0-1.16-1.09l.52-.48a6.65,6.65,0,0,1,1.2,1Z"/><path class="cls-1" d="M65.35,94.61c0,.43-.08.7-.34.85a2.67,2.67,0,0,1-1.26.17,3.53,3.53,0,0,0-.24-.87h.84c.12,0,.16,0,.16-.18V92.2l-1,.62-.29-.65a11.15,11.15,0,0,1-.67,3.55,2.83,2.83,0,0,0-.76-.42,12.82,12.82,0,0,0,.66-4.83V86.89h2.91Zm-2.09-4.16c0,.45,0,1,0,1.48l1.28-.53V90.26l-.38.32a10.88,10.88,0,0,0-.87-1Zm0-2.71v1.4l.31-.22a10.42,10.42,0,0,1,.94.94V87.74Zm7.42,3.33A6.26,6.26,0,0,1,68.93,94,6.51,6.51,0,0,0,71,94.9a3.11,3.11,0,0,0-.6.8,6.58,6.58,0,0,1-2.22-1.09,8.22,8.22,0,0,1-2.28,1.07,3.27,3.27,0,0,0-.5-.8A7.3,7.3,0,0,0,67.5,94a7.3,7.3,0,0,1-1.42-2.16l.33-.1h-.63v-.87h4.14l.16,0ZM67.57,88A2.83,2.83,0,0,1,66,90.67a3.09,3.09,0,0,0-.6-.65,2.09,2.09,0,0,0,1.28-2V86.91h3.16v2.24c0,.28,0,.38.14.38h.48a1.74,1.74,0,0,0,.45-.06l.07.75a1.56,1.56,0,0,1-.5.06h-.58c-.77,0-.94-.32-.94-1.14V87.77H67.57ZM67,91.74a5.21,5.21,0,0,0,1.24,1.71,5.19,5.19,0,0,0,1.28-1.71Z"/><path class="cls-5" d="M51.94,84.88A14.5,14.5,0,0,1,64.62,70.51V67.12a17.84,17.84,0,0,0,0,35.5V99.25A14.51,14.51,0,0,1,51.94,84.88"/><path class="cls-5" d="M68.25,67.12v3.39a14.48,14.48,0,0,1,0,28.73v3.38a17.84,17.84,0,0,0,0-35.5"/><path class="cls-1" d="M123.73,46.88a10.86,10.86,0,0,0-1.53-1.11l.56-.63a10.68,10.68,0,0,1,1.57,1Zm-1.33,4a30.94,30.94,0,0,0,1.34-3.17l.75.49c-.36,1-.83,2.23-1.25,3.16Zm1.6-6.66a11.29,11.29,0,0,0-1.47-1.19l.58-.61a11.76,11.76,0,0,1,1.49,1.1Zm2.61,1.16a4.18,4.18,0,0,1-1.7,1.93,2.73,2.73,0,0,0-.5-.52,3.41,3.41,0,0,0,1.52-1.54h-1.17c.09-.51.17-1.27.21-1.91h-.25v-.67h3v.67h-.78v.41a5.52,5.52,0,0,1-.06.77h1v.73h-.6v1l.66-.28a4.08,4.08,0,0,0,.2.56,6,6,0,0,0-1.49.82,2.43,2.43,0,0,0-.35-.49,1,1,0,0,0,.35-.84Zm-1.37,2.06h5.41v4h-.91v-.39h-3.63v.43h-.87Zm.91-2.92a4.3,4.3,0,0,0,0-.78v-.4h-.56c0,.38-.09.8-.14,1.18Zm0,3.65v.72h3.63v-.72Zm3.63,2.15v-.78h-3.63v.78Zm.93-3.8c.14,0,.17-.06.19-.73a1.81,1.81,0,0,0,.58.25c-.07.88-.24,1.09-.67,1.09h-.5c-.56,0-.68-.18-.68-.79v-.31a4.08,4.08,0,0,1-1.31,1.31,1.93,1.93,0,0,0-.49-.5,3.11,3.11,0,0,0,1.43-1.57H128c.09-.52.17-1.28.21-1.93H128v-.67h3.18v.67h-1v.52a4.19,4.19,0,0,1,0,.68h1.11v.73h-1.29c0,.09-.05.19-.09.28h.38v.78c0,.17,0,.19.13.19Zm-1.27-2a5.76,5.76,0,0,0,0-.69v-.51h-.56c0,.38-.09.82-.15,1.2Z"/><path class="cls-1" d="M140.86,44.47s0,.33,0,.46c-.22,4-.41,5.53-.85,6a1.22,1.22,0,0,1-.92.46,11.91,11.91,0,0,1-1.59,0,2.34,2.34,0,0,0-.33-1c.66.06,1.27.06,1.52.06a.56.56,0,0,0,.46-.15c.34-.32.55-1.69.72-5h-3.12a7.26,7.26,0,0,1-3.67,6.16,3.93,3.93,0,0,0-.72-.75,6.42,6.42,0,0,0,3.4-5.41h-3.1v-1h3.15v-2.1h1v2.1Z"/><path class="cls-1" d="M131.3,61.48v.76H124v-.76h3.14v-.82h-2.22v-.73h2.22V59.2h-1.88a5.65,5.65,0,0,1-1,1.27,4.82,4.82,0,0,0-.45-.82,5.32,5.32,0,0,1-1,3A3.28,3.28,0,0,0,122,62a5.15,5.15,0,0,0,.89-3.32V56.78h1.28a3.79,3.79,0,0,0-.41-.4c.76-.13,1.63-.32,2.45-.52-.72-.2-1.44-.38-2.1-.52l.51-.39H123v-.73h3.56a5.37,5.37,0,0,0-.46-.65l.65-.31a5.58,5.58,0,0,1,.7,1h3.39V55h-1.49l.44.28a15,15,0,0,1-1.41.59c.67.19,1.29.39,1.78.56l-.46.4h1.45v.76h-7.33v1.19c0,.29,0,.6,0,.92a5.2,5.2,0,0,0,1.27-2l.8.23c-.07.19-.15.37-.24.56h1.49v-.74H128v.74h2.59v.74H128v.73h2.33v.73H128v.82Zm-2-4.7c-.53-.19-1.21-.4-1.93-.62-.82.25-1.66.45-2.44.62ZM125.11,55c.73.17,1.52.37,2.28.58a10.23,10.23,0,0,0,1.54-.58Z"/><path class="cls-1" d="M136,61a8.52,8.52,0,0,1-3,1.29,4,4,0,0,0-.56-.68,8.37,8.37,0,0,0,2.86-.93Zm5.23-1.52v.78h-3.94v2.32h-.91V60.21h-3.88v-.78h3.88v-.6h-3v-.7h3v-.6H133V56.8h2a5.39,5.39,0,0,0-.44-.86l.58-.14h-2.55v-.74h1.49a7.5,7.5,0,0,0-.73-1.35l.81-.28a7,7,0,0,1,.8,1.43l-.53.2h1.12V53.34h.87v1.72h1V53.34h.88v1.72h1.09l-.39-.13a8.72,8.72,0,0,0,.7-1.48l1,.25a15.65,15.65,0,0,1-.83,1.36h1.43v.74H138.6l.78.2c-.22.3-.45.57-.65.8h2.12v.73h-3.54v.6h3.07v.7h-3.07v.6Zm-5.81-3.63a4,4,0,0,1,.47.88l-.45.12h2.73l-.36-.11a7.74,7.74,0,0,0,.56-.89Zm3,4.77c.88.32,2.1.8,2.77,1.12l-.62.54c-.62-.31-1.84-.84-2.75-1.19Z"/><path class="cls-5" d="M117.31,52.22A14.5,14.5,0,0,1,130,37.85V34.46A17.84,17.84,0,0,0,130,70V66.59a14.51,14.51,0,0,1-12.68-14.37"/><path class="cls-5" d="M133.63,34.46v3.39a14.48,14.48,0,0,1,0,28.73V70a17.84,17.84,0,0,0,0-35.5"/><path class="cls-1" d="M123.86,114.83a9.21,9.21,0,0,1-1,2,5.14,5.14,0,0,0-.64-.44,6.17,6.17,0,0,0,.92-1.79Zm1.29-.65v3.39h-.9v-3.39h-1.92v-.79h1.92v-.91h-2v-.78h1.09a5,5,0,0,0-.35-1.25l.76-.19a6.25,6.25,0,0,1,.37,1.23l-.74.21H125a10.32,10.32,0,0,0,.49-1.45l.85.18c-.17.44-.33.9-.5,1.27H127v.78h-1.84v.91h1.69v.79Zm1.67-3.94h-4.39v-.77h1.83c-.11-.28-.24-.6-.36-.85l.92-.24c.17.34.37.76.5,1.09h1.5Zm-.71,4.29A8.62,8.62,0,0,1,127,116l-.66.39a9.48,9.48,0,0,0-.79-1.55Zm5.26-1.9h-1v5h-.91v-5h-1.17v.24a8.72,8.72,0,0,1-1,4.71,2.94,2.94,0,0,0-.71-.55,7.63,7.63,0,0,0,.86-4.16v-3.46a15.41,15.41,0,0,0,3.06-.81l.73.68a16.37,16.37,0,0,1-2.92.74v1.75h3.1Z"/><path class="cls-1" d="M141.27,114.43v.86h-9v-.86h.76l-.15-5.26a13.34,13.34,0,0,0,1.67-.62l.42.79c-.4.14-.85.27-1.28.38l0,1.06h1v.75h-1l0,1.07h1v.75h-1l0,1.08H135v-5.49h3.5v5.49h1.19c0-.32,0-.69.05-1.06h-1v-.75h1l0-1.07h-1v-.75h1c0-.39,0-.78,0-1.15h-1.07v-.77h1.89c0,1.75-.09,4-.18,5.55ZM135.89,116a18,18,0,0,1-3,1.65,5.38,5.38,0,0,0-.53-.7,12.2,12.2,0,0,0,2.78-1.54Zm-.18-1.53h2.13v-4.77h-2.13Zm1.86-4.16v.61H136v-.61Zm-1.5,1.19h1.45v2.27h-1.45Zm.42,1.7h.6V112h-.6Zm1.7,2.14a24.4,24.4,0,0,1,2.87,1.55l-.6.7a21,21,0,0,0-2.79-1.6Z"/><path class="cls-1" d="M130.73,127.53c0,.43-.08.7-.34.85a2.67,2.67,0,0,1-1.26.17,3.53,3.53,0,0,0-.24-.87h.84c.12,0,.16,0,.16-.18v-2.39l-1,.62-.29-.65a11.15,11.15,0,0,1-.67,3.55,2.83,2.83,0,0,0-.76-.42,13,13,0,0,0,.65-4.83v-3.58h2.92Zm-2.09-4.16c0,.45,0,1,0,1.48l1.28-.53v-1.14l-.38.32a10.88,10.88,0,0,0-.87-1Zm0-2.71v1.4l.31-.22a10.42,10.42,0,0,1,.94.94v-2.12Zm7.41,3.33a6.26,6.26,0,0,1-1.75,2.94,6.51,6.51,0,0,0,2.08.89,3.11,3.11,0,0,0-.6.8,6.58,6.58,0,0,1-2.22-1.09,8.22,8.22,0,0,1-2.28,1.07,3,3,0,0,0-.49-.8,7.24,7.24,0,0,0,2.08-.88,7.5,7.5,0,0,1-1.42-2.16l.33-.1h-.63v-.87h4.14l.16,0Zm-3.11-3.07a2.83,2.83,0,0,1-1.53,2.67,2.8,2.8,0,0,0-.59-.65,2.09,2.09,0,0,0,1.27-2v-1.08h3.16v2.24c0,.28,0,.38.14.38h.48a1.74,1.74,0,0,0,.45-.06l.07.75a1.56,1.56,0,0,1-.5.06h-.58c-.77,0-.94-.32-.94-1.14v-1.37h-1.43Zm-.61,3.74a5.21,5.21,0,0,0,1.24,1.71,5.19,5.19,0,0,0,1.28-1.71Z"/><path class="cls-5" d="M117.31,117.55A14.5,14.5,0,0,1,130,103.18V99.79a17.85,17.85,0,0,0,0,35.51v-3.38a14.51,14.51,0,0,1-12.68-14.37"/><path class="cls-5" d="M133.63,99.79v3.39a14.49,14.49,0,0,1,0,28.74v3.38a17.85,17.85,0,0,0,0-35.51"/><path class="cls-1" d="M39.32,48.65V57h-1v-.61H33.62v.65h-.95V48.65Zm-5.7.94V52h4.71V49.59Zm4.71,5.9V53H33.62v2.54Z"/><path class="cls-1" d="M44.89,56.09c0,.43-.08.7-.34.85a2.67,2.67,0,0,1-1.26.17,3.53,3.53,0,0,0-.24-.87h.84c.12,0,.16,0,.16-.18V53.68l-1,.62-.29-.65a11.15,11.15,0,0,1-.67,3.55,2.83,2.83,0,0,0-.76-.42A13,13,0,0,0,42,52V48.37h2.92ZM42.8,51.93c0,.45,0,1,0,1.48l1.28-.53V51.74l-.38.32a10.88,10.88,0,0,0-.87-1Zm0-2.71v1.4l.31-.22a10.42,10.42,0,0,1,.94.94V49.22Zm7.42,3.33a6.26,6.26,0,0,1-1.75,2.94,6.51,6.51,0,0,0,2.08.89,3.11,3.11,0,0,0-.6.8,6.58,6.58,0,0,1-2.22-1.09,8.22,8.22,0,0,1-2.28,1.07,3.27,3.27,0,0,0-.5-.8A7.3,7.3,0,0,0,47,55.48a7.3,7.3,0,0,1-1.42-2.16l.33-.1h-.63v-.87h4.14l.16,0Zm-3.11-3.07a2.83,2.83,0,0,1-1.53,2.67,3.09,3.09,0,0,0-.6-.65,2.09,2.09,0,0,0,1.28-2V48.39h3.16v2.24c0,.28,0,.38.14.38H50a1.74,1.74,0,0,0,.45-.06l.07.75a1.56,1.56,0,0,1-.5.06h-.58c-.77,0-.94-.32-.94-1.14V49.25H47.11Zm-.61,3.74a5.21,5.21,0,0,0,1.24,1.71A5.19,5.19,0,0,0,49,53.22Z"/><path class="cls-5" d="M26.48,52.22A14.5,14.5,0,0,1,39.16,37.85V34.46a17.84,17.84,0,0,0,0,35.5V66.59A14.51,14.51,0,0,1,26.48,52.22"/><path class="cls-5" d="M42.79,34.46v3.39a14.48,14.48,0,0,1,0,28.73V70a17.84,17.84,0,0,0,0-35.5"/><path class="cls-1" d="M38.61,118.3c0,.21,0,.43,0,.67a6.46,6.46,0,0,0,1.95,4.16,2.17,2.17,0,0,0-.59.72,6.44,6.44,0,0,1-1.67-2.8,6.4,6.4,0,0,1-1.61,2.81,2.83,2.83,0,0,0-.48-.59,7.82,7.82,0,0,1-.9,0h-2c-1.15,0-1.56-.41-1.56-1.65v-5.73h-.32v-.79h4.88v.79H32.53v5.78c0,.61.17.82.69.82h2.12a5.32,5.32,0,0,0,.94-.08c0,.11,0,.27,0,.42a6.68,6.68,0,0,0,1.44-4.59v-.71h.84Zm-5.78,1.08h1.53v2.52H32.83Zm2.88-.59H33.17v-2.27h2.54Zm-2.4,2.53h.56V120h-.56ZM35,117.1H33.86v1.11H35Zm1.24,4.81H34.65V119.4h1.57ZM35.71,120h-.57v1.34h.57Zm1.85-3a7.67,7.67,0,0,1-.85,2,5.15,5.15,0,0,0-.75-.5,8.92,8.92,0,0,0,1.25-3.82l.85.14c-.07.47-.15.93-.26,1.38h2.12l.14,0,.6.18a21.4,21.4,0,0,1-.75,2.7l-.7-.24a16.29,16.29,0,0,0,.46-1.76Z"/><path class="cls-1" d="M44.89,122.75c0,.43-.08.7-.34.85a2.67,2.67,0,0,1-1.26.17,3.53,3.53,0,0,0-.24-.87h.84c.12,0,.16,0,.16-.18v-2.39L43,121l-.29-.65a11.15,11.15,0,0,1-.67,3.55,2.83,2.83,0,0,0-.76-.42,13,13,0,0,0,.65-4.83V115h2.92Zm-2.09-4.16c0,.45,0,1,0,1.48l1.28-.53V118.4l-.38.32a10.88,10.88,0,0,0-.87-1Zm0-2.71v1.4l.31-.22a10.42,10.42,0,0,1,.94.94v-2.12Zm7.42,3.33a6.26,6.26,0,0,1-1.75,2.94,6.51,6.51,0,0,0,2.08.89,3.11,3.11,0,0,0-.6.8,6.58,6.58,0,0,1-2.22-1.09,8.22,8.22,0,0,1-2.28,1.07,3.27,3.27,0,0,0-.5-.8,7.3,7.3,0,0,0,2.09-.88A7.3,7.3,0,0,1,45.62,120l.33-.1h-.63V119h4.14l.16,0Zm-3.11-3.07a2.83,2.83,0,0,1-1.53,2.67,3.09,3.09,0,0,0-.6-.65,2.09,2.09,0,0,0,1.28-2v-1.08h3.16v2.24c0,.28,0,.38.14.38H50a1.74,1.74,0,0,0,.45-.06l.07.75a1.56,1.56,0,0,1-.5.06h-.58c-.77,0-.94-.32-.94-1.14v-1.37H47.11Zm-.61,3.74a5.21,5.21,0,0,0,1.24,1.71A5.19,5.19,0,0,0,49,119.88Z"/><path class="cls-5" d="M26.48,119.05a14.5,14.5,0,0,1,12.68-14.37V101.3a17.84,17.84,0,0,0,0,35.5v-3.38a14.5,14.5,0,0,1-12.68-14.37"/><path class="cls-5" d="M42.79,101.29v3.39a14.49,14.49,0,0,1,0,28.74v3.38a17.85,17.85,0,0,0,0-35.51"/><path class="cls-1" d="M82.77,34.5a6.53,6.53,0,0,1-.1.66h4V36H82.46c-.47,1.3-1.53,2.13-4.17,2.56a2.69,2.69,0,0,0-.47-.84C80,37.38,81,36.82,81.41,36H78.22v-.79h3.47c0-.21.08-.42.11-.66H78v-.82h3.91V33h-3v-.79h3V31.5H78.33v-.82h2a6.12,6.12,0,0,0-.67-1l.81-.32a4.47,4.47,0,0,1,.82,1.21l-.33.15h2.44a9.46,9.46,0,0,0,.78-1.36l1,.27c-.23.37-.5.77-.74,1.09h2v.82H82.87v.68H86V33H82.87v.71h4v.82Zm3.7,4.07a27.6,27.6,0,0,0-4-1.92l.41-.7a28.71,28.71,0,0,1,4,1.8Z"/><path class="cls-1" d="M91.34,37.44c0,.43-.08.69-.34.85a2.81,2.81,0,0,1-1.26.17,3.61,3.61,0,0,0-.24-.88h.84c.12,0,.16,0,.16-.17V35l-1,.62L89.2,35a11.15,11.15,0,0,1-.67,3.55,2.58,2.58,0,0,0-.76-.42,13,13,0,0,0,.65-4.83V29.72h2.92Zm-2.09-4.16c0,.45,0,1,0,1.48l1.28-.53V33.09l-.38.32a10.88,10.88,0,0,0-.87-1Zm0-2.71V32l.31-.22a10.42,10.42,0,0,1,.94.94V30.57Zm7.42,3.33a6.26,6.26,0,0,1-1.75,2.94,6.51,6.51,0,0,0,2.08.89,3.06,3.06,0,0,0-.6.79,6.38,6.38,0,0,1-2.22-1.08A8.2,8.2,0,0,1,91.9,38.5a3.21,3.21,0,0,0-.5-.79,7.3,7.3,0,0,0,2.09-.88,7.3,7.3,0,0,1-1.42-2.16l.33-.1h-.63V33.7h4.14l.16,0Zm-3.11-3.07A2.83,2.83,0,0,1,92,33.5a3.09,3.09,0,0,0-.6-.65,2.09,2.09,0,0,0,1.28-2V29.74h3.16V32c0,.28,0,.38.14.38h.48a1.74,1.74,0,0,0,.45-.06l.07.75a1.56,1.56,0,0,1-.5.06h-.58c-.77,0-.94-.32-.94-1.14V30.6H93.56ZM93,34.57a5.21,5.21,0,0,0,1.24,1.71,5.19,5.19,0,0,0,1.28-1.71Z"/><path class="cls-5" d="M73,33.46A14.5,14.5,0,0,1,85.7,19.09V15.7a17.85,17.85,0,0,0,0,35.51V47.83A14.5,14.5,0,0,1,73,33.46"/><path class="cls-5" d="M89.33,15.7v3.39a14.49,14.49,0,0,1,0,28.74v3.38a17.85,17.85,0,0,0,0-35.51"/><path class="cls-1" d="M79.74,130.55a12.41,12.41,0,0,1-1,5.63,3.37,3.37,0,0,0-.8-.47,11,11,0,0,0,.92-5.16v-2.84H87v.85H79.74Zm2.36,3.32A15.16,15.16,0,0,1,80.36,136a5.52,5.52,0,0,0-.78-.51,9.3,9.3,0,0,0,1.63-1.9Zm1.7-.7v2.25c0,.45-.08.69-.41.82a4.85,4.85,0,0,1-1.57.14,3.43,3.43,0,0,0-.27-.82h1.16c.15,0,.19,0,.19-.17v-2.23H80.53v-3.71H82.4a7.32,7.32,0,0,0,.34-.83l1.1.15c-.14.23-.27.46-.41.68h2.79v3.71ZM81.44,131h3.83v-.8H81.44Zm0,1.47h3.83v-.8H81.44Zm3.78,1.13c.57.62,1.36,1.47,1.76,2l-.79.47c-.36-.53-1.14-1.42-1.7-2.06Z"/><path class="cls-1" d="M91.77,132.43l-1.17.37v3.58h-.86v-3.31l-1.57.48-.24-.89,1.81-.49v-2.1h-.8a9.8,9.8,0,0,1-.41,1.39,5.6,5.6,0,0,0-.68-.42,11.57,11.57,0,0,0,.63-3.26l.79.13c0,.43-.1.86-.17,1.28h.64v-2h.86v2h.93v.88H90.6v1.84l1.05-.3Zm5.3-3.61s0,.32,0,.44c-.22,4.49-.41,6.07-.8,6.56a.94.94,0,0,1-.73.44,5.77,5.77,0,0,1-1.13,0,2.2,2.2,0,0,0-.26-.91c.42,0,.79,0,1,0a.38.38,0,0,0,.36-.18c.29-.33.5-1.75.68-5.55h-.28c-.51,2.58-1.58,5.21-3.2,6.51a4.22,4.22,0,0,0-.77-.55c1.61-1.15,2.66-3.54,3.16-6H94.4A9.61,9.61,0,0,1,92,134.13a3.36,3.36,0,0,0-.72-.53,8.1,8.1,0,0,0,2.31-3.92h-.71a7.5,7.5,0,0,1-1.08,1.84,7.07,7.07,0,0,0-.72-.53,8.48,8.48,0,0,0,1.71-3.78l.84.16c-.11.5-.26,1-.41,1.45Z"/><path class="cls-1" d="M84.52,143.12a8.25,8.25,0,0,1-1.19,3.24,5.84,5.84,0,0,0-.44-1.08,6.68,6.68,0,0,0,1-2.4Zm1.34-.22c.21.29.93,1.6,1.08,1.91l-.65.71a21,21,0,0,0-.84-2v3.91h-.87v-5H83v-.87h1.55v-3.31h.87v3.31H87v.87H85.45v.8Zm-2.29-1.64a10.34,10.34,0,0,0-.5-2.25l.66-.17a9.36,9.36,0,0,1,.55,2.24ZM87.09,139c-.26.76-.56,1.69-.82,2.26l-.59-.18a17.38,17.38,0,0,0,.6-2.26ZM91,144.63v2.76h-.87v-2.6l-3,.54-.15-.86,3.11-.56v-5.69H91v5.53l1.11-.19.13.85Zm-2.15-1.45a7.65,7.65,0,0,0-1.64-1.2l.44-.67a8.66,8.66,0,0,1,1.67,1.13Zm.4-2.41a7.24,7.24,0,0,0-1.56-1.29l.47-.63a8.07,8.07,0,0,1,1.58,1.21Z"/><path class="cls-5" d="M72.92,136a14.51,14.51,0,0,1,12.69-14.37v-3.39a17.84,17.84,0,0,0,0,35.5V150.4A14.51,14.51,0,0,1,72.92,136"/><path class="cls-5" d="M89.24,118.27v3.39a14.48,14.48,0,0,1,0,28.73v3.38a17.84,17.84,0,0,0,0-35.5"/><circle class="cls-6" cx="86.38" cy="86.38" r="85.38"/><circle class="cls-7" cx="86.38" cy="86.38" r="81.49" transform="translate(-35.78 86.38) rotate(-45)"/><rect class="cls-8" x="204.75" y="68.11" width="7.26" height="33.52" transform="translate(121.05 -122.49) rotate(45)"/><rect class="cls-8" x="204.75" y="68.11" width="7.26" height="33.52" transform="translate(415.74 -2.46) rotate(135)"/></svg>