<svg id="圖層_1" data-name="圖層 1" xmlns="http://www.w3.org/2000/svg" viewBox="0 0 280 180"><defs><style>.cls-1,.cls-3{fill:#0068b7;}.cls-1{opacity:0.7;}.cls-2{fill:#b5d676;opacity:0.71;}.cls-4{fill:#fff;}</style></defs><circle class="cls-1" cx="78.79" cy="128.11" r="43.16" transform="translate(-63.5 176.83) rotate(-77.31)"/><circle class="cls-1" cx="78.79" cy="128.11" r="38.85"/><circle class="cls-1" cx="201.21" cy="128.11" r="43.16" transform="translate(28.89 293.04) rotate(-76.23)"/><circle class="cls-1" cx="201.21" cy="128.11" r="38.85"/><circle class="cls-1" cx="78.79" cy="51.89" r="43.16" transform="translate(10.85 117.35) rotate(-77.31)"/><circle class="cls-1" cx="78.79" cy="51.89" r="38.85"/><circle class="cls-1" cx="201.21" cy="51.89" r="43.16" transform="matrix(0.24, -0.97, 0.97, 0.24, 102.91, 234.96)"/><circle class="cls-1" cx="201.21" cy="51.89" r="38.85"/><circle class="cls-2" cx="140" cy="87.52" r="45.35"/><path class="cls-3" d="M124.92,95.92A9.19,9.19,0,0,0,128.73,99a3,3,0,0,0-.49.57,10.92,10.92,0,0,1-3.68-3,14,14,0,0,1-3.75,3.11,2.45,2.45,0,0,0-.4-.57,11.42,11.42,0,0,0,3.37-2.55h-1.6v-.63Zm0,7.11h3.48v.61h-7.58V103h3.41v-1.5h-2.52v-.6h2.52V99.57h-2.14V99h5v.61h-2.18v1.36h2.55v.6h-2.55Z"/><path class="cls-3" d="M132.42,102c-1,.32-2.06.65-2.87.92l-.14-.65,1.17-.34V99.49h-1v-.63h1v-2H129.5v-.63h2.75v.63h-1v2h.92v.63h-.92v2.28l1.11-.35Zm5.12-3.36A19.87,19.87,0,0,1,136,100.6a5.2,5.2,0,0,0,1.83,2.14,1.48,1.48,0,0,0-.42.5,5.75,5.75,0,0,1-2.08-2.71v2.52c0,.41-.11.59-.35.7a3.39,3.39,0,0,1-1.37.15,2.45,2.45,0,0,0-.24-.65c.52,0,1,0,1.12,0s.19-.06.19-.21v-2.12c-.73.74-1.5,1.48-2.11,2.06l-.41-.58c.61-.5,1.6-1.38,2.52-2.22V97.85h-2.17v-.62h2.17V95.67h.65v1.56h2.36v.62H135.3v.32a11.36,11.36,0,0,0,.44,1.88,12.74,12.74,0,0,0,1.21-1.7Zm-4.42-.27a7.51,7.51,0,0,1,1,1.67l-.55.26a8,8,0,0,0-1-1.68Zm3.68-1.29a5.18,5.18,0,0,0-1.07-1l.39-.35a6.1,6.1,0,0,1,1.08.93Z"/><path class="cls-3" d="M141.55,103c0,.35-.07.54-.29.66a2.77,2.77,0,0,1-1.12.12,2.11,2.11,0,0,0-.19-.62h.84c.11,0,.15,0,.15-.17v-2.45c-.37.24-.74.46-1.08.66l-.25-.54a9.07,9.07,0,0,1-.66,3.2,3.2,3.2,0,0,0-.54-.32,10.88,10.88,0,0,0,.64-4.36V96h2.5Zm-1.89-3.83c0,.42,0,.9,0,1.39.36-.14.83-.36,1.32-.6V99l-.34.28a8.46,8.46,0,0,0-.94-1.07Zm0-2.6V98l.3-.23a10.08,10.08,0,0,1,1,1V96.6Zm6.69,3.16a5.79,5.79,0,0,1-1.65,2.63,5.53,5.53,0,0,0,2,.9,2.75,2.75,0,0,0-.44.59,6.28,6.28,0,0,1-2.06-1.06,7.41,7.41,0,0,1-2.15,1.05,2.34,2.34,0,0,0-.36-.58,6.57,6.57,0,0,0,2-.91,6.08,6.08,0,0,1-1.35-2.09l.13-.05H142v-.63h3.8l.1,0ZM143.5,97a2.6,2.6,0,0,1-1.33,2.39,2.76,2.76,0,0,0-.43-.47A2,2,0,0,0,142.88,97V96h2.74v2.1c0,.24,0,.32.13.32h.5a2.45,2.45,0,0,0,.38,0c0,.17,0,.4.06.56a1.82,1.82,0,0,1-.42,0h-.56c-.6,0-.72-.25-.72-.9V96.63H143.5Zm-.53,3.24a5.47,5.47,0,0,0,1.22,1.75,4.87,4.87,0,0,0,1.28-1.75Z"/><path class="cls-3" d="M150.13,102.06A7.14,7.14,0,0,1,148,103.7a4.36,4.36,0,0,0-.5-.44,5.92,5.92,0,0,0,2-1.42Zm5.45-1v.55h-3.69v2.29h-.66v-2.29h-3.66v-.55Zm-5.38-4.49h-2.53V96h7.74v.56h-2.54v.69H155v2h-6.76v-2h2Zm-1.53,3.87v-.53h5.82v.53Zm.16-1.64h1.37v-1h-1.37Zm3.4-2.23h-1.41v.69h1.41Zm-1.41,2.23h1.41v-1h-1.41Zm2.05-1v1h1.44v-1Zm.48,4.09a15.84,15.84,0,0,1,2.18,1.41l-.52.38a16.81,16.81,0,0,0-2.14-1.44Z"/><path class="cls-3" d="M122.77,82.26a16.38,16.38,0,0,1-2.41,4.8c.4,1,.85,1.6,1.3,1.6s.5-.7.57-2.45a4.56,4.56,0,0,0,1.42.94c-.27,2.59-.83,3.21-2.13,3.21-1,0-1.75-.71-2.37-1.85a11.92,11.92,0,0,1-2.36,1.9A11.87,11.87,0,0,0,115.58,89a10.7,10.7,0,0,0,2.86-2.27,28.39,28.39,0,0,1-1-5.65h-4.06v1.5h3.46s0,.44,0,.63c0,2.94-.13,4.19-.45,4.6a1.34,1.34,0,0,1-1,.56,12.71,12.71,0,0,1-1.61,0,3.82,3.82,0,0,0-.46-1.55c.5,0,1,0,1.2,0a.45.45,0,0,0,.42-.17,7.79,7.79,0,0,0,.24-2.63h-1.82c-.06,2-.35,4.78-1.5,6.49a7.27,7.27,0,0,0-1.41-1.14c1.06-1.68,1.16-4.12,1.16-5.94V79.47h5.71c0-.69-.05-1.37-.05-2.07h1.75c0,.7,0,1.38,0,2.07h2.14a18.2,18.2,0,0,0-1.79-1.22l1-1a11.26,11.26,0,0,1,2.28,1.5l-.67.71h1.45v1.65h-4.33a35.58,35.58,0,0,0,.56,3.84,14.12,14.12,0,0,0,1.35-3.11Z"/><path class="cls-3" d="M136.6,86.27a22,22,0,0,1-2.47,1.54,9.5,9.5,0,0,0,3.2,1.14,6,6,0,0,0-1.05,1.49,8.32,8.32,0,0,1-6.19-4.92h-2v3l3.07-.61a10.34,10.34,0,0,0-.14,1.48,40.14,40.14,0,0,0-4.5,1.09l-.08.07a7.29,7.29,0,0,0-.7-1.65,1.23,1.23,0,0,0,.71-1.08V85.52h-2V84.05h2.32V77.86h8.84v1.36h-7.13V80h6.74v1.29h-6.74V82h6.74V83.3h-6.74v.75H137v1.47h-1.51Zm-4.76-.75A6.2,6.2,0,0,0,133,86.94,19.45,19.45,0,0,0,135,85.52Z"/><path class="cls-3" d="M151.27,80.54s0,.54,0,.74c-.13,5.73-.24,7.76-.69,8.4a1.5,1.5,0,0,1-1.1.7,9.22,9.22,0,0,1-1.74.06,4,4,0,0,0-.49-1.6c.62.06,1.15.07,1.42.07a.49.49,0,0,0,.47-.24c.3-.37.44-2.08.52-6.61h-1.26c-.18,3.76-.83,6.64-3.18,8.51a5.54,5.54,0,0,0-1-1.11c-2,.21-4,.42-5.55.54l-.19-1.4,2.84-.19v-.84h-2.47V86.39h2.47v-.55h-2.41V81.52h2.41V81h-2.76v-1.2h2.76v-.56c-.81.05-1.61.09-2.37.11a5,5,0,0,0-.36-1.18,42.41,42.41,0,0,0,6-.69l.73,1.25c-.74.16-1.61.28-2.52.38v.69h2.69v.77h1.32c0-.93,0-1.89,0-2.93h1.6c0,1,0,2,0,2.93Zm-11,2.64h1.09v-.61h-1.09Zm1.09,1.63v-.63h-1.09v.63Zm1.51,3.47c.8,0,1.63-.12,2.44-.19,1.09-1.52,1.43-3.52,1.53-6h-1.28V81h-2.69v.55h2.48v4.32h-2.48v.55h2.54v1.18h-2.54Zm1.09-5.1v-.61h-1.09v.61Zm-1.09,1v.63h1.09v-.63Z"/><path class="cls-3" d="M158.66,88.93c0,.68-.12,1-.58,1.26a4.87,4.87,0,0,1-1.94.24,4.66,4.66,0,0,0-.5-1.31c.5,0,1.05,0,1.22,0s.23-.06.23-.24V87.48c-.7.51-1.4,1-2,1.39l-.35-1a6.11,6.11,0,0,1-1,2.63,7.18,7.18,0,0,0-1.16-1.12,7,7,0,0,0,.79-3.85V82.4h5.31Zm-.78-10.51a30.46,30.46,0,0,1,1.67,3.22l-1.46.59c-.09-.25-.21-.55-.35-.88-3.55.35-4.12.43-4.53.6-.08-.32-.35-1.08-.51-1.5a1.58,1.58,0,0,0,.77-.56,12.14,12.14,0,0,0,1.65-2.49l1.68.47a15.93,15.93,0,0,1-1.72,2.33l2-.15c-.21-.41-.4-.8-.59-1.14Zm-3,7.14a16.54,16.54,0,0,1-.09,1.8c.63-.28,1.45-.7,2.29-1.15v-.46l-.67.65a18.93,18.93,0,0,0-1.53-1.34Zm0-1.76v1l.71-.6c.47.34,1.07.83,1.49,1.19V83.8Zm6.92-.24c-1.68,0-2.12-.61-2.12-2.17v-4h1.65v1.66h3.44v1.42h-3.44v.93c0,.52.08.71.53.71h2A7.1,7.1,0,0,0,165.2,82c0,.44.1,1,.16,1.42a6.09,6.09,0,0,1-1.42.12Zm1.77,5.35c.48,0,.57-.24.64-1.52a4.67,4.67,0,0,0,1.45.6c-.17,1.83-.61,2.38-1.94,2.38h-2c-1.66,0-2.06-.49-2.06-2V84h1.65v1.4h3.54v1.48h-3.54v1.52c0,.49.1.56.64.56Z"/><path class="cls-4" d="M56.64,56.23a9.28,9.28,0,0,0,3.82,3.07,3,3,0,0,0-.5.57,11,11,0,0,1-3.68-3A14.14,14.14,0,0,1,52.54,60a2.49,2.49,0,0,0-.41-.57,11.46,11.46,0,0,0,3.38-2.55H53.9v-.63Zm0,7.11h3.48V64H52.5v-.62h3.41v-1.5H53.39v-.59h2.52V59.88H53.78v-.61h5v.61H56.6v1.37h2.55v.59H56.6Z"/><path class="cls-4" d="M64.15,62.34c-1,.32-2.07.65-2.88.92l-.14-.65c.32-.09.73-.2,1.18-.34V59.8h-1v-.63h1v-2H61.23v-.63H64v.63h-1v2h.91v.63h-.91v2.28l1.11-.35ZM69.26,59a18.73,18.73,0,0,1-1.57,1.93,5.17,5.17,0,0,0,1.84,2.14,1.48,1.48,0,0,0-.42.5A5.65,5.65,0,0,1,67,60.84v2.52c0,.41-.11.6-.35.7a3.42,3.42,0,0,1-1.37.15,2.9,2.9,0,0,0-.25-.65c.53,0,1,0,1.12,0s.2-.06.2-.21V61.24c-.74.74-1.5,1.48-2.12,2.06l-.41-.58c.61-.5,1.6-1.38,2.53-2.22V58.16H64.2v-.62h2.18V56H67v1.56h2.36v.62H67v.32a10.43,10.43,0,0,0,.44,1.88,12,12,0,0,0,1.2-1.7Zm-4.41-.26a6.84,6.84,0,0,1,1,1.66l-.55.26a7.9,7.9,0,0,0-1-1.68Zm3.67-1.3a4.87,4.87,0,0,0-1.06-1l.39-.35a6.91,6.91,0,0,1,1.08.93Z"/><path class="cls-4" d="M78.2,56.92v.57H70.36v-.57H74c-.08-.27-.19-.57-.28-.82l.65-.16c.12.31.26.69.36,1Zm-.29,6.57c0,.32-.08.46-.33.55a4,4,0,0,1-1.18.08,2.24,2.24,0,0,0-.22-.5c.39,0,.8,0,.91,0s.15,0,.15-.14V60.85H71.33v3.34h-.65V60.28h7.23Zm-1-5.49v1.8H71.71V58Zm-.81,5.23H73v.44h-.62V61.38h3.79Zm.12-4.74H72.37v.81h3.88ZM73,61.88v.84h2.56v-.84Z"/><path class="cls-4" d="M82.48,58.05H79.25V57.5h3.23Zm-2.88.63h2.53v.53H79.6Zm0,1.17h2.53v.53H79.6Zm2.52,3.8h-2v.42H79.6v-3h2.52Zm-2-2v1.48h1.42V61.61Zm.66-4.21a8.12,8.12,0,0,0-.62-1.2l.48-.27a9.61,9.61,0,0,1,.66,1.17ZM87.43,61H85.32v3.22h-.65V61h-2.2v-.63h2.2V57.1H82.82v-.63h4.43v.63H85.32v3.24h2.11ZM83.56,57.6a11.09,11.09,0,0,1,.49,2.21l-.57.14A10.53,10.53,0,0,0,83,57.73Zm2.3,2.19a18.65,18.65,0,0,0,.58-2.26l.64.16c-.22.76-.49,1.67-.71,2.25Z"/><path class="cls-4" d="M89.56,57.2a5.4,5.4,0,0,1-.89,1.08,3,3,0,0,0-.48-.45,5.19,5.19,0,0,0,1.39-1.91l.59.16c-.08.18-.16.36-.25.54h2.32v.58H90.55a10.37,10.37,0,0,1,.87.81l-.44.4a7.59,7.59,0,0,0-.94-.95l.32-.26Zm4.88,4.21h1.79V62H94.44V63.5c0,.38-.1.54-.4.62a6.94,6.94,0,0,1-1.6.09,2.09,2.09,0,0,0-.18-.57c.61,0,1.16,0,1.31,0s.2-.06.2-.18V62H88.34v-.57h5.43v-.63h.67Zm2-4.78v.58h-2a7.45,7.45,0,0,1,.84.88l-.46.39a6.44,6.44,0,0,0-.85-1l.39-.31h-.88a5.14,5.14,0,0,1-.76,1.08l-.08-.07v.42h3.3v.59h-3.3V60H95.4v.54H89.12V60h2.82v-.8H88.67v-.59h3.27v-.55h.5a1.68,1.68,0,0,0-.26-.19,4.75,4.75,0,0,0,1.12-2l.62.14a3.9,3.9,0,0,1-.21.57ZM90.3,62.06a14.19,14.19,0,0,1,1.53,1.33l-.5.39a14.19,14.19,0,0,0-1.51-1.37Z"/><path class="cls-4" d="M99.79,56.16A13.46,13.46,0,0,1,98.91,58v6.13h-.65V59a8.84,8.84,0,0,1-.91,1.12,3.83,3.83,0,0,0-.41-.61A10.11,10.11,0,0,0,99.17,56ZM102,63a7.18,7.18,0,0,1-2.16,1.23,4,4,0,0,0-.51-.5,6.49,6.49,0,0,0,2-1Zm.08-6.06H99.91v-.47h2.21V56h.67v.49h2.29v.47h-2.29v.44h2v.45h-2v.48h2.57v.49H99.52v-.49h2.6v-.48h-2v-.45h2Zm-1.9,5.68V59.24h4.56v3.38Zm.65-2.38h3.26v-.55h-3.26Zm0,.95h3.26v-.56h-3.26Zm0,1h3.26v-.56h-3.26Zm2.81.57a14,14,0,0,1,1.79,1.15l-.67.37A11.61,11.61,0,0,0,103,63Z"/><path class="cls-4" d="M65.67,45.31a14.07,14.07,0,0,1-1.49,4.51,6.76,6.76,0,0,0,2.29,1.9,5.1,5.1,0,0,0-1,1.18A7.71,7.71,0,0,1,63.35,51,7.85,7.85,0,0,1,61,53a6.23,6.23,0,0,0-.93-1.16,6.65,6.65,0,0,0,2.5-2,12.49,12.49,0,0,1-1.14-2.62,8.25,8.25,0,0,1-.62.86,7.74,7.74,0,0,0-.87-1.11v6H58.51V49.87A8.84,8.84,0,0,0,55.94,51a5.78,5.78,0,0,0-.55-1.31.88.88,0,0,0,.44-.85V43h1.4v5.85l1.28-.38V41.93h1.41v4.72a10.56,10.56,0,0,0,1.78-4.92l1.45.24c-.12.68-.25,1.35-.42,2h3.66v1.36Zm-3.37,0c0,.11-.09.21-.12.32a12.45,12.45,0,0,0,1.14,2.88,11.37,11.37,0,0,0,.93-3.2Z"/><path class="cls-4" d="M78.25,51.3v1.26H67.32V51.3H68.7V47.92l-.49.22A5.06,5.06,0,0,0,67.4,47a14,14,0,0,0,3.49-1.6l1,.7a21.81,21.81,0,0,1-3,1.77h8V51.3Zm-.15-6H67.47V44H70.3a13.32,13.32,0,0,0-1-1.73l1.21-.53a9.3,9.3,0,0,1,1.25,1.92l-.65.34h3.49l-.66-.23a12.4,12.4,0,0,0,1.1-2l1.45.44c-.4.66-.85,1.33-1.22,1.82H78.1ZM70,51.3h1V49H70ZM72.26,49V51.3h1V49Zm2.22-3.69a34.31,34.31,0,0,1,3.73,1.52L77.41,48a33.77,33.77,0,0,0-3.68-1.64ZM74.56,49V51.3h1V49Z"/><path class="cls-4" d="M82.71,48.76c-.12-.33-.34-.8-.56-1.27v5.43H80.78V48.51a10.53,10.53,0,0,1-1,2.27,8.26,8.26,0,0,0-.69-1.44,12,12,0,0,0,1.72-4.06H79.33V44h1.45V41.72h1.37V44h1.2v1.33h-1.2v.39c.33.44,1.18,1.8,1.39,2.13ZM90.3,48a11.08,11.08,0,0,1-1.8,2.23,19.57,19.57,0,0,1,2,1.72l-1.1.93A15.41,15.41,0,0,0,87.48,51,13.05,13.05,0,0,1,83.62,53a8,8,0,0,0-.84-1.21,9.58,9.58,0,0,0,6-4.32Zm-.83-2.37a11.75,11.75,0,0,1-5.28,4.71,7.18,7.18,0,0,0-.8-1.1,9.92,9.92,0,0,0,3-1.83,9,9,0,0,0-2.44.31,8.4,8.4,0,0,0-.35-1.29,1.91,1.91,0,0,0,1-.4c.19-.22.64-.94,1-1.54h-2V43.15h2.8A5.93,5.93,0,0,0,85.91,42l1.35-.41a7,7,0,0,1,.62,1.54h2.43v1.29H87c-.36.58-.76,1.23-1.13,1.78l1.59-.07a9,9,0,0,0,.64-1Z"/><path class="cls-4" d="M93.57,46.12a32.67,32.67,0,0,1-.87,5l-1.44-.57a24,24,0,0,0,.92-4.67Zm2.26-1v5.57c0,.56.09.66.67.66h1.71c.6,0,.71-.39.79-2.26a4.3,4.3,0,0,0,1.35.6c-.17,2.28-.56,3-2,3h-2c-1.56,0-2-.48-2-2V45.15Zm-.11-3.22A21.09,21.09,0,0,1,99,44.41L98,45.52a20.51,20.51,0,0,0-3.23-2.62ZM101,45.48a22,22,0,0,1,1.54,4.46l-1.45.6A20.31,20.31,0,0,0,99.62,46Z"/><path class="cls-4" d="M180.54,137.88a7.42,7.42,0,0,1-.93,1.8,3.28,3.28,0,0,0-.47-.33,4.9,4.9,0,0,0,.85-1.62Zm1.11-.63v3.13H181v-3.13H179.2v-.57H181v-1h-1.84v-.56h2.49a13.34,13.34,0,0,0,.48-1.43l.61.13c-.16.43-.33.92-.5,1.3h1.14v.56h-1.72v1h1.63v.57Zm1.59-3.56h-4v-.56h1.77c-.12-.27-.27-.58-.4-.82l.65-.17a7.18,7.18,0,0,1,.51,1h1.42Zm-3,1.44a6.19,6.19,0,0,0-.34-1.25l.53-.13a4.27,4.27,0,0,1,.37,1.23Zm2.29,2.55a9.42,9.42,0,0,1,.76,1.41l-.48.27a9.88,9.88,0,0,0-.74-1.44Zm4.8-1.85h-1v4.54h-.65v-4.54h-1.23v.32a7.71,7.71,0,0,1-.94,4.22A2.48,2.48,0,0,0,183,140a6.83,6.83,0,0,0,.82-3.81v-3.1a14.18,14.18,0,0,0,2.81-.7l.53.49a14,14,0,0,1-2.71.65v1.71h2.87Z"/><path class="cls-4" d="M196.25,137.66v.62h-8.08v-.62h.72l-.14-4.79a14.29,14.29,0,0,0,1.54-.57l.31.58c-.38.13-.84.27-1.25.38l0,1.06h1v.56h-1l0,1.11h1v.56h-1l0,1.11h1.18v-5h3.11v5H195c0-.32,0-.69,0-1.08h-1V136h1c0-.36,0-.75,0-1.12h-1v-.55h1c0-.42,0-.82,0-1.2H194v-.56h1.7c0,1.58-.08,3.7-.16,5.07Zm-4.94,1.2a14.38,14.38,0,0,1-2.68,1.54,3.41,3.41,0,0,0-.4-.51,9.67,9.67,0,0,0,2.51-1.44Zm-.15-1.2h2.08v-4.48h-2.08Zm1.79-3.85v.46h-1.54v-.46Zm-1.42,1.06h1.37v2.07h-1.37Zm.35,1.64h.66V135.3h-.66Zm1.57,1.88a23.88,23.88,0,0,1,2.61,1.44l-.44.51a22,22,0,0,0-2.54-1.49Z"/><path class="cls-4" d="M201.8,132.39l-.21.29a10,10,0,0,0,3.83,2.69,2.19,2.19,0,0,0-.43.57,11,11,0,0,1-3.76-2.79,10.53,10.53,0,0,1-3.73,2.78,3.24,3.24,0,0,0-.46-.56,9.08,9.08,0,0,0,4.15-3.27Zm-.17,7.14h3.44v.61h-7.61v-.61h1.13v-3.32h.66v3.32h1.69v-4.9h.69v2.07h2.61v.6h-2.61Z"/><path class="cls-4" d="M209.44,139a8.39,8.39,0,0,1-2.77,1.17,2.5,2.5,0,0,0-.4-.51,7.85,7.85,0,0,0,2.66-.89Zm4.7-1.25v.57h-3.61v2.13h-.66v-2.13h-3.56v-.57h3.56V137h-2.71v-.51h2.71v-.65H206.7v-.54h2a4.32,4.32,0,0,0-.46-.87l.47-.12h-2.32v-.56h1.45a6.93,6.93,0,0,0-.72-1.31l.57-.19a5.35,5.35,0,0,1,.76,1.32l-.45.18h1.1v-1.6h.63v1.6h1.07v-1.6h.64v1.6h1.09l-.36-.12a7.33,7.33,0,0,0,.69-1.37l.69.19a14.31,14.31,0,0,1-.79,1.3h1.39v.56h-2.34l.59.16c-.21.3-.43.6-.63.83h2.07v.54h-3.26v.65h2.81V137h-2.81v.67Zm-5.31-3.36a3.41,3.41,0,0,1,.48.89l-.37.1h2.49l-.32-.1a6.32,6.32,0,0,0,.53-.89Zm2.68,4.34c.84.27,2,.71,2.61,1l-.41.43c-.6-.29-1.74-.75-2.6-1.06Z"/><path class="cls-4" d="M217.71,132.38a12.81,12.81,0,0,1-.88,1.83v6.13h-.64v-5.11a10.64,10.64,0,0,1-.92,1.11,4.34,4.34,0,0,0-.41-.61,10,10,0,0,0,2.24-3.54Zm2.25,6.84a7.5,7.5,0,0,1-2.16,1.23,3.46,3.46,0,0,0-.51-.5,6.5,6.5,0,0,0,2-1Zm.08-6.06h-2.21v-.47H220v-.5h.67v.5H223v.47h-2.29v.44h2v.45h-2v.48h2.57V135h-5.84v-.48H220v-.48h-2v-.45h2Zm-1.9,5.68v-3.39h4.57v3.39Zm.65-2.39h3.26v-.55h-3.26Zm0,1h3.26v-.56h-3.26Zm0,1h3.26v-.57h-3.26Zm2.82.57a13.81,13.81,0,0,1,1.78,1.15l-.67.37a11.61,11.61,0,0,0-1.78-1.24Z"/><path class="cls-4" d="M188.09,121.52A13.67,13.67,0,0,1,186.6,126a6.89,6.89,0,0,0,2.29,1.91,4.94,4.94,0,0,0-1,1.18,7.73,7.73,0,0,1-2.15-1.89,7.9,7.9,0,0,1-2.37,2,6.6,6.6,0,0,0-.92-1.16,6.82,6.82,0,0,0,2.49-2,12.4,12.4,0,0,1-1.14-2.61,8.25,8.25,0,0,1-.62.86,7.78,7.78,0,0,0-.87-1.12v6h-1.41v-3.1a9.37,9.37,0,0,0-2.57,1.1,5.08,5.08,0,0,0-.55-1.3.88.88,0,0,0,.44-.85v-5.79h1.41v5.86l1.27-.39v-6.57h1.41v4.73a10.6,10.6,0,0,0,1.78-4.92l1.45.24c-.12.67-.25,1.34-.42,2h3.66v1.35Zm-3.37,0c0,.11-.09.22-.12.33a13.1,13.1,0,0,0,1.14,2.88,11.44,11.44,0,0,0,.93-3.21Z"/><path class="cls-4" d="M200.68,127.52v1.26H189.74v-1.26h1.38v-3.38l-.48.21a5.63,5.63,0,0,0-.82-1.17,14.06,14.06,0,0,0,3.49-1.61l1,.71a21.81,21.81,0,0,1-3,1.76h8v3.48Zm-.16-6.06H189.89V120.2h2.83a13.23,13.23,0,0,0-1.05-1.72l1.21-.53a9,9,0,0,1,1.25,1.92l-.65.33H197l-.66-.22a13.28,13.28,0,0,0,1.1-2l1.46.43c-.41.66-.86,1.33-1.23,1.82h2.88Zm-8.14,6.06h1v-2.28h-1Zm2.3-2.28v2.28h1v-2.28Zm2.22-3.68a34.36,34.36,0,0,1,3.73,1.51l-.79,1.13a33.58,33.58,0,0,0-3.68-1.64Zm.08,3.68v2.28h1v-2.28Z"/><path class="cls-4" d="M203.71,125.78a11.51,11.51,0,0,1-1.22,2.46,9.53,9.53,0,0,0-.93-.65,8.39,8.39,0,0,0,1.05-2.12Zm1.67-.69v4H204v-4h-2.24v-1.2H204V123H201.7v-1.17h1.17a7.57,7.57,0,0,0-.35-1.25l1-.24h-1.62v-1.16h2.05c-.1-.33-.24-.66-.36-1l1.43-.35c.18.4.4.89.54,1.3h1.72v1.16h-1.5l1,.19c-.18.46-.36.93-.54,1.3h1.25V123h-2.06v.93h1.86v1.2Zm-1.72-4.79a5.91,5.91,0,0,1,.39,1.25l-.86.24h1.73a13.79,13.79,0,0,0,.51-1.49Zm9.12,2.91h-1.11v5.89h-1.39v-5.89h-1.12v.15c0,1.76-.15,4.23-1.17,5.77a5.28,5.28,0,0,0-1.11-.85,4.63,4.63,0,0,0,.54-1.17l-.85.53a14.82,14.82,0,0,0-.93-1.8l.93-.5a10.62,10.62,0,0,1,.9,1.57,12.81,12.81,0,0,0,.37-3.55v-4.27a17,17,0,0,0,3.64-1l1.09,1a17.88,17.88,0,0,1-3.41.9v1.89h3.62Z"/><path class="cls-4" d="M224.51,127.62v1.23H213.94v-1.23h4.57v-.82h-3.09v-1.11h3.09V125H216a8.09,8.09,0,0,1-1.1,1.2,8,8,0,0,0-1.2-.87,6.71,6.71,0,0,0,2-2.45h-.57v-4.46h8.21v4.46h-7.17l1,.29c-.11.21-.21.43-.35.66h1.74v-.73H220v.73h3.76V125H220v.74h3.21v1.11H220v.82Zm-8-7.54h5.3v-.63h-5.3Zm0,1.66h5.3v-.65h-5.3Z"/><path class="cls-4" d="M78.3,139.41V140h-8v-.61H73v-1.62h-2v-3h2v-1.41H70.52v-.62h7.57v.62H75.58v1.4h2.07v3H75.58v1.62Zm-4.7-2.2v2.2h1.33V137.2h2v-1.85h-2v-2H73.59v2h-2v1.84Z"/><path class="cls-4" d="M81.79,132.37a12.43,12.43,0,0,1-.88,1.84v6.13h-.65v-5.11a9.47,9.47,0,0,1-.91,1.11,4.34,4.34,0,0,0-.41-.61,9.93,9.93,0,0,0,2.23-3.54ZM84,139.22a7.63,7.63,0,0,1-2.16,1.23,3.46,3.46,0,0,0-.51-.5,6.5,6.5,0,0,0,2-1Zm.08-6.06H81.91v-.47h2.21v-.5h.67v.5h2.29v.47H84.79v.44h2v.45h-2v.48h2.57V135H81.52v-.48h2.6v-.48h-2v-.45h2Zm-1.9,5.68v-3.39h4.56v3.39Zm.65-2.39h3.26v-.55H82.87Zm0,1h3.26v-.56H82.87Zm0,1h3.26v-.57H82.87Zm2.81.57a14,14,0,0,1,1.79,1.15l-.67.37A11.61,11.61,0,0,0,85,139.22Z"/><path class="cls-4" d="M59.67,121.52A13.9,13.9,0,0,1,58.18,126a6.79,6.79,0,0,0,2.29,1.91,4.84,4.84,0,0,0-1,1.17,7.4,7.4,0,0,1-2.15-1.88,8,8,0,0,1-2.37,2,6.23,6.23,0,0,0-.93-1.16,6.77,6.77,0,0,0,2.5-2,12.4,12.4,0,0,1-1.14-2.61,8.25,8.25,0,0,1-.62.86,7.78,7.78,0,0,0-.87-1.12v6H52.51v-3.09a9.18,9.18,0,0,0-2.57,1.1,5.9,5.9,0,0,0-.55-1.3.89.89,0,0,0,.44-.85v-5.79h1.4v5.86l1.28-.39v-6.57h1.41v4.73A10.6,10.6,0,0,0,55.7,118l1.45.24c-.12.67-.25,1.34-.42,2h3.66v1.35Zm-3.37,0c0,.11-.09.22-.12.33a12.63,12.63,0,0,0,1.14,2.88,11.44,11.44,0,0,0,.93-3.21Z"/><path class="cls-4" d="M72.25,127.52v1.26H61.32v-1.26H62.7v-3.38l-.49.21a5.23,5.23,0,0,0-.81-1.17,14.43,14.43,0,0,0,3.49-1.61l1,.71a21.81,21.81,0,0,1-3,1.76h8v3.48Zm-.15-6.06H61.47V120.2H64.3a13.23,13.23,0,0,0-1-1.72l1.21-.53a9,9,0,0,1,1.25,1.92l-.65.33h3.49l-.66-.22a13.28,13.28,0,0,0,1.1-2l1.45.43c-.4.66-.85,1.33-1.22,1.82H72.1ZM64,127.52h1v-2.28H64Zm2.31-2.28v2.28h1v-2.28Zm2.22-3.68a32.45,32.45,0,0,1,3.73,1.51l-.8,1.13a33.68,33.68,0,0,0-3.68-1.65Zm.08,3.68v2.28h1v-2.28Z"/><path class="cls-4" d="M80.81,120.08a5.63,5.63,0,0,0,3.54,1,4.85,4.85,0,0,0-.79,1.14A5.7,5.7,0,0,1,80.42,121c-.46.53-1.46,1-3.47,1.22a4.53,4.53,0,0,0-.48-.77H73.29v-1.1h3.62v.74c2.29-.24,2.59-.78,2.59-1.23v-.18h-.71a5.22,5.22,0,0,1-.84,1,7.61,7.61,0,0,0-1.06-.73,4.76,4.76,0,0,0,1.4-2.13l1.25.27c-.06.18-.13.36-.2.53h3.4l.22-.06,1,.3a10.67,10.67,0,0,1-1.1,1.9l-1.11-.41a5.63,5.63,0,0,0,.42-.7H80.81v.37Zm.33,7.06c1.1.4,2.27.88,3,1.23l-1.28.77a22.19,22.19,0,0,0-3.12-1.42l.73-.58H77.07l1,.48a15.41,15.41,0,0,1-3.74,1.55,10.33,10.33,0,0,0-1.05-1,13.4,13.4,0,0,0,3.27-1H74.86v-4.87h8v4.87Zm-4.5-7.56H73.57v-1h3.07Zm-.4,4h5.2v-.51h-5.2Zm0,1.32h5.2v-.51h-5.2Zm0,1.35h5.2v-.54h-5.2Z"/><path class="cls-4" d="M88.63,118.36a21.48,21.48,0,0,1-.82,2.18v8.6H86.46v-6c-.26.37-.51.72-.76,1a12.54,12.54,0,0,0-.68-1.54,13.48,13.48,0,0,0,2.3-4.63Zm7.74,6.19H95.28a4.87,4.87,0,0,1,.52.62l-.77.48a6.6,6.6,0,0,0-.66-.84c-.12.5-.41.66-1,.66h-1l-.31.36h2.44l.24,0,.85.48a4.77,4.77,0,0,1-1.69,1.49,20.94,20.94,0,0,0,2.55.35,4.65,4.65,0,0,0-.68,1,15.21,15.21,0,0,1-3.41-.71,19.07,19.07,0,0,1-3.49.77,4.58,4.58,0,0,0-.68-1,22.08,22.08,0,0,0,2.67-.42c-.24-.15-.47-.29-.68-.45-.31.18-.65.36-1,.53a3.25,3.25,0,0,0-.77-.8,9,9,0,0,0,1-.45,3.28,3.28,0,0,1-.42-.5l1-.36a4.15,4.15,0,0,0,.27.32,5,5,0,0,0,.82-.72.68.68,0,0,1-.36-.65,4.28,4.28,0,0,1-.94,1l-.78-.62a3,3,0,0,0,.57-.46H88.35v-1.71h1.09v-3h2a2.84,2.84,0,0,0,.08-.42H88.71v-1h7.42v1H93l-.18.42h2.57v3h1Zm-1.82-.74c.18.17.37.34.55.54v-.7H92.8a6.84,6.84,0,0,1,.65.58l-.79.47a6.45,6.45,0,0,0-.92-.86l.36-.19H89.56v.81a4.37,4.37,0,0,0,.49-.61l.57.29v-.24h1.11v.54c0,.24.07.27.4.27h1.05c.24,0,.3-.06.34-.4a3.23,3.23,0,0,0,.56.2,3.19,3.19,0,0,0-.26-.26Zm-3.84-3.25v.36H94v-.36Zm3.33.94H90.71v.38H94Zm-3.33,1.34H94v-.38H90.71Zm1.56,4.45a4.88,4.88,0,0,0,1.21-.61H91A5.07,5.07,0,0,0,92.27,127.29Z"/><path class="cls-4" d="M108.21,127.41v1.41H97.42v-1.41h4.63V125H98.8v-1.38h3.25v-2.11H99.57a10.45,10.45,0,0,1-1.11,1.74,11.07,11.07,0,0,0-1.29-.85,10.18,10.18,0,0,0,2.12-4.29l1.48.32c-.17.57-.36,1.14-.56,1.69h1.84V118h1.5v2.16h4v1.39h-4v2.11h3.59V125h-3.59v2.41Z"/><path class="cls-4" d="M179.06,56.23a9.28,9.28,0,0,0,3.82,3.07,3,3,0,0,0-.5.57,11.11,11.11,0,0,1-3.68-3A13.83,13.83,0,0,1,175,60a2.22,2.22,0,0,0-.41-.57,11.33,11.33,0,0,0,3.38-2.55h-1.6v-.63Zm0,7.11h3.47V64h-7.58v-.62h3.41v-1.5h-2.52v-.59h2.52V59.88H176.2v-.61h5v.61H179v1.37h2.54v.59H179Z"/><path class="cls-4" d="M186.57,62.34c-1,.32-2.06.65-2.87.92l-.15-.65c.33-.09.73-.2,1.18-.34V59.8h-1v-.63h1v-2h-1.08v-.63h2.75v.63h-1v2h.91v.63h-.91v2.28l1.11-.35ZM191.68,59a20.11,20.11,0,0,1-1.56,1.93A5.14,5.14,0,0,0,192,63.05a1.48,1.48,0,0,0-.42.5,5.65,5.65,0,0,1-2.08-2.71v2.52c0,.41-.11.6-.35.7a3.42,3.42,0,0,1-1.37.15,2.85,2.85,0,0,0-.24-.65c.52,0,1,0,1.11,0s.2-.06.2-.21V61.24c-.74.74-1.5,1.48-2.11,2.06l-.42-.58c.61-.5,1.6-1.38,2.53-2.22V58.16h-2.18v-.62h2.18V56h.65v1.56h2.36v.62h-2.36v.32a11.36,11.36,0,0,0,.44,1.88,13,13,0,0,0,1.21-1.7Zm-4.41-.26a6.84,6.84,0,0,1,1,1.66l-.55.26a7.49,7.49,0,0,0-.95-1.68Zm3.67-1.3a4.87,4.87,0,0,0-1.06-1l.39-.35a6.48,6.48,0,0,1,1.08.93Z"/><path class="cls-4" d="M200.62,56.92v.57h-7.84v-.57h3.68c-.08-.27-.19-.57-.28-.82l.65-.16c.13.31.26.69.36,1Zm-.29,6.57c0,.32-.08.46-.32.55a4.08,4.08,0,0,1-1.19.08,2.24,2.24,0,0,0-.22-.5c.39,0,.8,0,.91,0s.15,0,.15-.14V60.85h-5.91v3.34h-.65V60.28h7.23Zm-1-5.49v1.8h-5.22V58Zm-.81,5.23h-3.17v.44h-.62V61.38h3.79Zm.12-4.74h-3.88v.81h3.88Zm-3.29,3.39v.84H198v-.84Z"/><path class="cls-4" d="M204.14,56.11h.65v8.1h-.65v-2.5a8.26,8.26,0,0,0-2.07.88,2.6,2.6,0,0,0-.28-.61.69.69,0,0,0,.31-.61V57h.66v4.56l1.38-.46Zm5,2.24a10.59,10.59,0,0,1-1.2,3.54,5.22,5.22,0,0,0,1.94,1.72,2.4,2.4,0,0,0-.46.55,5.55,5.55,0,0,1-1.85-1.7,6.4,6.4,0,0,1-2.06,1.75,2.86,2.86,0,0,0-.45-.55,5.51,5.51,0,0,0,2.13-1.78,10.85,10.85,0,0,1-1.08-2.57,6.41,6.41,0,0,1-.71,1.15,4.78,4.78,0,0,0-.48-.56A8.27,8.27,0,0,0,206.4,56l.68.12c-.1.56-.23,1.1-.38,1.63h3.08v.63Zm-2.68.13a11.11,11.11,0,0,0,1.09,2.79,9.64,9.64,0,0,0,.91-2.92H206.5Z"/><path class="cls-4" d="M218.78,63.32v.6h-8.13v-.6h1.16V60.53h5.86v2.79Zm-.18-5h-7.79v-.6h2.32a6.8,6.8,0,0,0-.9-1.49l.56-.25a7.71,7.71,0,0,1,1,1.49l-.48.25h2.89l-.48-.18a9.32,9.32,0,0,0,.94-1.57l.67.21a15.8,15.8,0,0,1-1,1.54h2.35Zm-4.81.72a12.59,12.59,0,0,1-2.53,1.58,3.28,3.28,0,0,0-.4-.52,10,10,0,0,0,2.47-1.38Zm-1.37,4.27h1.12V61.11h-1.12Zm1.73-2.21v2.21h1.14V61.11Zm4.1-.66a20.94,20.94,0,0,0-2.72-1.22l.33-.48a25.47,25.47,0,0,1,2.73,1.16Zm-2.35.66v2.21H217V61.11Z"/><path class="cls-4" d="M222.21,56.16a13.46,13.46,0,0,1-.88,1.84v6.13h-.64V59a9.84,9.84,0,0,1-.92,1.12,3.83,3.83,0,0,0-.41-.61A10.13,10.13,0,0,0,221.6,56ZM224.46,63a7.06,7.06,0,0,1-2.16,1.23,4,4,0,0,0-.51-.5,6.49,6.49,0,0,0,2-1Zm.08-6.06h-2.21v-.47h2.21V56h.67v.49h2.29v.47h-2.29v.44h2v.45h-2v.48h2.57v.49h-5.84v-.49h2.6v-.48h-2v-.45h2Zm-1.9,5.68V59.24h4.57v3.38Zm.65-2.38h3.26v-.55h-3.26Zm0,.95h3.26v-.56h-3.26Zm0,1h3.26v-.56h-3.26Zm2.82.57a13.81,13.81,0,0,1,1.78,1.15l-.67.37A11.61,11.61,0,0,0,225.44,63Z"/><path class="cls-4" d="M188.09,45.31a13.83,13.83,0,0,1-1.49,4.51,6.86,6.86,0,0,0,2.29,1.9,5.36,5.36,0,0,0-1,1.18A7.86,7.86,0,0,1,185.77,51a7.73,7.73,0,0,1-2.37,2,6.6,6.6,0,0,0-.92-1.16,6.69,6.69,0,0,0,2.49-2,12.49,12.49,0,0,1-1.14-2.62,8.25,8.25,0,0,1-.62.86,7.74,7.74,0,0,0-.87-1.11v6h-1.41V49.87a9,9,0,0,0-2.57,1.1,5,5,0,0,0-.55-1.31.88.88,0,0,0,.44-.85V43h1.41v5.85l1.27-.38V41.93h1.41v4.72a10.56,10.56,0,0,0,1.78-4.92l1.45.24c-.12.68-.25,1.35-.42,2h3.66v1.36Zm-3.37,0c0,.11-.09.21-.12.32a12.91,12.91,0,0,0,1.14,2.88,11.37,11.37,0,0,0,.93-3.2Z"/><path class="cls-4" d="M200.68,51.3v1.26H189.74V51.3h1.38V47.92l-.48.22a5.44,5.44,0,0,0-.82-1.18,14,14,0,0,0,3.49-1.6l1,.7a21.81,21.81,0,0,1-3,1.77h8V51.3Zm-.16-6H189.89V44h2.83a13.32,13.32,0,0,0-1.05-1.73l1.21-.53a9.3,9.3,0,0,1,1.25,1.92l-.65.34H197l-.66-.23a12.4,12.4,0,0,0,1.1-2l1.46.44c-.41.66-.86,1.33-1.23,1.82h2.88Zm-8.14,6h1V49h-1Zm2.3-2.27V51.3h1V49Zm2.22-3.69a34.31,34.31,0,0,1,3.73,1.52L199.84,48a35.59,35.59,0,0,0-3.68-1.64ZM197,49V51.3h1V49Z"/><path class="cls-4" d="M205.23,49.17c0-.14-.06-.32-.1-.52a14.46,14.46,0,0,0-3.09.58,12.34,12.34,0,0,0-.45-1.25c.3-.07.57-.33.94-.78.14-.17.42-.51.76-1a5,5,0,0,0-1.35.26,10,10,0,0,0-.42-1.17,1.51,1.51,0,0,0,.69-.66,14,14,0,0,0,1.42-3l1.24.51a16.69,16.69,0,0,1-1.61,2.87l.79-.06a16.5,16.5,0,0,0,.81-1.56l1.17.72a21.44,21.44,0,0,1-2.44,3.57l1.25-.15c-.08-.33-.19-.65-.28-.94l1-.32a17.1,17.1,0,0,1,.74,2.47Zm-2,.62a14,14,0,0,1-.56,3.07,7.26,7.26,0,0,0-1.11-.4,10.47,10.47,0,0,0,.5-2.85Zm1.22-.2a22.36,22.36,0,0,1,.32,2.47l-1.09.22a21.4,21.4,0,0,0-.25-2.49Zm1.19-.37a18,18,0,0,1,.55,1.82l-1,.36a14,14,0,0,0-.51-1.87Zm7.16,2.13v1.31h-6.86V51.35h2.71V49.7h-2.16V48.43h5.81V49.7h-2.21v1.65ZM208.48,44c-.36.62-.77,1.29-1.15,1.86a12.78,12.78,0,0,1,1.23,1.92l-1.14.44A12.35,12.35,0,0,0,206,45.87a18.79,18.79,0,0,0,1.26-2.17Zm4.19-.48H206.2V42.24h6.47Zm-3.21,4.65A12.4,12.4,0,0,0,208,45.85a18,18,0,0,0,1.27-2.13l1.2.28c-.36.61-.78,1.28-1.15,1.84a13.89,13.89,0,0,1,1.26,1.85Zm2.11.05A12,12,0,0,0,210,45.87a19.17,19.17,0,0,0,1.32-2.17l1.22.29c-.37.63-.8,1.29-1.2,1.86a12.85,12.85,0,0,1,1.37,1.87Z"/><path class="cls-4" d="M224.78,50.18h-3.45a33.07,33.07,0,0,1,3.23,1.76l-1.32,1A24.31,24.31,0,0,0,220,51l.87-.79h-3.56l1.13.74a15.2,15.2,0,0,1-3.69,2,10.32,10.32,0,0,0-1.13-1A12.81,12.81,0,0,0,217,50.18h-3.38V48.83h1.19V43.11h2.48V41.7h1.33v1.41h1.14V41.7h1.35v1.41h2.6v5.72h1.07Zm-8.59-5.75v1.49h1.1V44.43Zm0,4.4h1.1V47.24h-1.1Zm2.43-4.4v1.49h1.14V44.43Zm1.14,2.81h-1.14v1.59h1.14Zm1.35-2.81v1.49h1.16V44.43Zm0,4.4h1.16V47.24h-1.16Z"/></svg>