<svg id="圖層_1" data-name="圖層 1" xmlns="http://www.w3.org/2000/svg" viewBox="0 0 300 180"><defs><style>.cls-1{fill:#f6ac19;fill-rule:evenodd;}.cls-2{fill:#0068b7;}.cls-3{fill:#76ba5a;}.cls-4{fill:#fff;}.cls-5{fill:none;stroke:#fff;stroke-miterlimit:10;stroke-width:0.75px;}.cls-6{fill:#dcdddd;}.cls-7{fill:#814f9c;}</style></defs><path class="cls-1" d="M149.9,90l79.3-21.06c7,26.27,1.51,51.74-15.64,72.84Z"/><path class="cls-2" d="M149.9,90,105.36,21.09A82,82,0,0,1,218.81,45.46,77.83,77.83,0,0,1,229.2,68.94Z"/><path class="cls-3" d="M149.9,90l63.66,51.78A82.06,82.06,0,0,1,86.24,38.23a78.12,78.12,0,0,1,19.12-17.14Z"/><circle class="cls-4" cx="149.88" cy="89.92" r="47.9"/><path class="cls-4" d="M150.51,32.54h5.18V34H143.77V32.55h5V30.85h-3.63V29.41h3.63V27.81h-2.94v-1.2a20,20,0,0,1-1.77,1.05,7.11,7.11,0,0,0-1-1.35,15.76,15.76,0,0,0,4.61-3h-1.86V21.73h4.8a12.69,12.69,0,0,0,5.83,4.39,7.93,7.93,0,0,0-1.12,1.53,13.55,13.55,0,0,1-1.77-1V27.8h-3V29.4h3.67v1.44h-3.67ZM153,26.33a18.17,18.17,0,0,1-3.37-3.06,19.35,19.35,0,0,1-3.44,3.07Z"/><path class="cls-4" d="M170.73,29.61a30.73,30.73,0,0,1-2.87,2.09,7.75,7.75,0,0,0,1.87,3.46,3.62,3.62,0,0,0-1.28,1,9.26,9.26,0,0,1-1.88-3.55l-.51,2.17c-.2.81-.46,1.2-1,1.34a4.46,4.46,0,0,1-2.24-.17,7.66,7.66,0,0,0-.18-1.69c.65.18,1.29.33,1.5.36s.31,0,.36-.2l.53-2.23c-1.17.7-2.37,1.41-3.4,2l-.48-1.32-4.34.32,0-1.62,1.74-.06.78-3.28L158,27.86l.35-1.48,1.36.32.57-2.4L158.84,24l.36-1.51,4.31,1L163.16,25l-1.38-.33-.57,2.4,1.17.28L162,28.82l-1.17-.28-.67,2.85,1.48-.09-.06.92c1-.45,2.48-1.11,3.83-1.78l.78-3.26-3.13-.74.35-1.48,3.13.74.52-2.18,1.55.37-.52,2.18,1.85.44a9.61,9.61,0,0,0-1.12-1.62l1.08-.61A9,9,0,0,1,171.24,26l-1,.57,1.17.28-.35,1.48-3.34-.79-.13.55a18.75,18.75,0,0,0,0,2.13,19.68,19.68,0,0,0,1.86-1.69Zm-6.45-2.26a11,11,0,0,1,.74,2.71l-1.47.3a10.61,10.61,0,0,0-.66-2.74Z"/><path class="cls-4" d="M183.36,37.12a8.88,8.88,0,0,1-4,2.7,10.12,10.12,0,0,0,2,2.15,6.51,6.51,0,0,0-1.6.81,9.66,9.66,0,0,1-2.06-2.6,11.85,11.85,0,0,1-3.33-.18,5.85,5.85,0,0,0-.11-1.61,1.25,1.25,0,0,1-.93.7,3.28,3.28,0,0,1-1.72-.52A5.76,5.76,0,0,0,172,37l.89.47c.14.07.22,0,.29-.11l1.25-2.49c-.44,0-.86.1-1.27.13l.09-1.08a17.24,17.24,0,0,1-3,4.07,6.12,6.12,0,0,0-.85-1.27A21.16,21.16,0,0,0,173.06,31l2.28-4.54,3.94,2-1.88,3.74a2.65,2.65,0,0,0,2.71-1.62l.68-1.34,4.2,2.12-1.38,2.73c-.18.37-.23.52-.08.59l.49.25a2.84,2.84,0,0,0,.66.22c-.15.38-.37.88-.49,1.24a2.57,2.57,0,0,1-.75-.28l-.64-.32c-1.19-.6-1.17-1.22-.57-2.42l.68-1.34-1.47-.73h0a4,4,0,0,1-3.71,2.38,6.06,6.06,0,0,0-.4-1.36l-2.87,5.71a1.87,1.87,0,0,1-.16.28,9.94,9.94,0,0,0,2.77.29,10,10,0,0,1-.37-3.25l.71.12-.9-.45.7-1.39,5.08,2.57.31.07Zm-9-5.43c-.26.51-.57,1.09-.89,1.68.43.07,1,.12,1.54.18l.68-1.36-.7.15a12.54,12.54,0,0,0-.28-1.34ZM176,28.5l-.78,1.55.47-.07c.16.44.32.95.44,1.4l1.13-2.24Zm2.17,7.38a6.85,6.85,0,0,0,.47,2.47,6.59,6.59,0,0,0,2.24-1.1Z"/><path class="cls-4" d="M185.94,44.11a11.47,11.47,0,0,1-4.05-.07,10.4,10.4,0,0,0-.22-1.64,8.15,8.15,0,0,0,3.45.31Zm7.63,3.9-.84,1-4.22-3.58-2.22,2.62L185,47l2.22-2.61-4.16-3.52.84-1Zm-8-7.54.82-1,7.07,6-.81,1Zm5.62-3.11-2.86-2.43.84-1,9.27,7.84-.84,1-2.94-2.49-.49.58,2.38,2-2.21,2.61-8.09-6.85,2.21-2.6,2.25,1.9Zm-3,1.37,1.07.9.68-.8-1.07-.9ZM190.07,47a19.6,19.6,0,0,1,1.11,3.7l-1.62-.15a17,17,0,0,0-1-3.7Zm.38-6.33,1.11.94.68-.8-1.11-.94Zm3-1.33-1.11-.95-.49.58,1.11.94Zm-.06,2.47-.68.81,1.12,1,.68-.81Z"/><circle class="cls-5" cx="149.88" cy="89.92" r="79.75" transform="translate(-19.69 132.31) rotate(-45)"/><path class="cls-4" d="M96,120.13a18.72,18.72,0,0,1-6.31.56,9.22,9.22,0,0,0-1.12,3.82,6.49,6.49,0,0,0-2-.57,10.17,10.17,0,0,1,1.17-3.63,10.65,10.65,0,0,1-3.67-1.87,8.25,8.25,0,0,0,.94-1.74,9,9,0,0,0,3.79,2,16.43,16.43,0,0,1,2.6-2.78,10.93,10.93,0,0,1-1.39-.31A10.81,10.81,0,0,0,91,114l-7.38,3.19-.75-1.74,3.79-1.63c-1.83-2-2.3-2.35-2.71-2.56a6.82,6.82,0,0,0,1.31-1.37,1.19,1.19,0,0,0,1.28.09l7.08-3.06.75,1.72-7.17,3.1L88.32,113l8.05-3.47.75,1.73-5.79,2.5a14.11,14.11,0,0,0,7-.43l.48,1.91c-.89.21-1.78.4-2.65.53l1.94,4.48-1.67.72ZM94.23,116l-.46,0a17.16,17.16,0,0,0-2.92,2.92,14.89,14.89,0,0,0,4.42-.55Z"/><path class="cls-4" d="M90.21,127.21a17,17,0,0,0,3.58-.87l.49,1.77a30,30,0,0,1-3.66,1Zm6,7c.48.61.72.58,2-.28a5,5,0,0,0,.54,1.77c-1.9,1.21-2.68,1.1-3.78-.31L93.07,133c-1.39-1.76-1.33-2.55,0-3.61l1.74-1.36L96,129.6,94.29,131c-.38.29-.32.45.24,1.17Zm1.52-4-2.83-3.62,6.18-4.84,2.27,2.9a13.89,13.89,0,0,0,1.49-.64l1.19,2c-.51.12-1,.17-1.43.24l2.7,3.46-6.17,4.83-2.85-3.63a10.17,10.17,0,0,1-.62,2.63L96,132.86a10.86,10.86,0,0,0,.82-3.06Zm-.56-3.06,3.9,5,.59-.47-3.9-5Zm3.94,8a13.11,13.11,0,0,1-1.6,3.51l-1.73-1a13.61,13.61,0,0,0,1.74-3.44Zm-2.28-9.35,3.9,5,.58-.46-3.9-5Zm1.66-1.3,3.89,5,.58-.45-3.89-5Z"/><path class="cls-4" d="M112.79,133.59a26.37,26.37,0,0,1-2.91,1.47L102.82,144l-1.46-1.15,5.27-6.67a15.62,15.62,0,0,1-1.76.35,13.49,13.49,0,0,0,.44-2.14,16.67,16.67,0,0,0,6.45-2.33Zm-4.22,12.3a13.86,13.86,0,0,1-4.21-.59,9.64,9.64,0,0,0-.36-2,10.92,10.92,0,0,0,3.55.89Zm2.57,1.11a19.92,19.92,0,0,1,1,3.33l-2-.29a17.44,17.44,0,0,0-.92-3.55l1.75.44-5-3.91,3.83-4.84,6.45,5.09-3.83,4.85Zm-2.87-3.78,3.51,2.78.4-.5-3.52-2.78Zm1-1.25,3.51,2.77.4-.5-3.52-2.77Zm5.55-5-2.76-2.17.74-.93,2.75,2.17.48-.61,1.51,1.19-.49.61,2.87,2.26-.74.93-2.86-2.26-.33.42,2.6,2.05-.69.88-2.6-2.05-.34.42,3.29,2.6-.78,1-8.09-6.38.79-1,3.29,2.59.33-.42-2.48-2,.69-.88,2.49,2Zm-4.56,3.76,3.51,2.78.39-.49-3.52-2.78Z"/><path class="cls-4" d="M128.06,149.94a10.33,10.33,0,0,0,2.85,3.26,7,7,0,0,0-1.75.94,11.06,11.06,0,0,1-1.42-1.49c-1.3,2.51-2,3.59-2.63,3.86a1.81,1.81,0,0,1-1.41,0,12.71,12.71,0,0,1-1.92-.8,4.15,4.15,0,0,0,.23-1.85,12.54,12.54,0,0,0,1.51.73.69.69,0,0,0,.6.08c.3-.13.75-.76,1.59-2.31l-2.88-1.27c-1.26,1.86-2.89,2.9-6.4,2.36a5.38,5.38,0,0,0-.32-1.92c2.78.55,4,0,4.89-1.25l-1.89-.84.28-.63a13.17,13.17,0,0,1-2,.14,5.15,5.15,0,0,0-.42-1.93,12.78,12.78,0,0,0,3.71-.39l-2.55-1.13.69-1.57,4,1.8c.38-.21.69-.42,1-.65l-3.78-1.67.68-1.54,2.08.92a12.41,12.41,0,0,0-.29-1.88l1.69-.06a9,9,0,0,1,.37,2.32l-.81,0,1.45.64a10.71,10.71,0,0,0,1.59-2.14l1.77,1a19.29,19.29,0,0,1-1.5,2l1.26.55a18.54,18.54,0,0,0,2-1.53l1.4,1.22c-.59.38-1.19.75-1.73,1.07l1.86.82-.68,1.53L125.85,146c-.3.25-.59.47-.9.7l6.83,3-.69,1.57Zm-4.92-2.17a11.2,11.2,0,0,1-2,.74l5.49,2.43a9.86,9.86,0,0,1-.72-1.94Z"/><path class="cls-6" d="M115,89.93a34.91,34.91,0,0,1,30.52-34.58V47.21a42.93,42.93,0,0,0,0,85.42V124.5A34.88,34.88,0,0,1,115,89.93"/><path class="cls-6" d="M154.27,47.21v8.15a34.85,34.85,0,0,1,0,69.14v8.13a42.93,42.93,0,0,0,0-85.42"/><path class="cls-7" d="M130.93,89.33h7.2v1.6h-16v-1.6h7V86.54H124V85h5.11V82.42h-4.25V80.88a22.64,22.64,0,0,1-2.47,1.52A6.66,6.66,0,0,0,121.24,81,22.65,22.65,0,0,0,128,76.17h-3V74.51H131a18.3,18.3,0,0,0,7.94,6.22,8.35,8.35,0,0,0-1.19,1.59,17.87,17.87,0,0,1-2.46-1.39v1.49h-4.35V85h5.17v1.54h-5.17Zm-6.08-8.47h10.32A23.39,23.39,0,0,1,130,76.17,27.68,27.68,0,0,1,124.85,80.86Z"/><path class="cls-7" d="M145.54,82.87a24.53,24.53,0,0,1-1.74,5c.32.19.74.51,1.33.89,1.31.8,3,.91,5.24.91a71.18,71.18,0,0,0,7.6-.43,6.77,6.77,0,0,0-.52,1.82c-1.48.1-4.92.21-7.16.21-2.47,0-4.08-.21-5.45-1-.78-.43-1.46-1.1-1.84-1.1s-1.09,1.24-1.6,2.4l-1.18-1.66a8.61,8.61,0,0,1,1.85-1.9,18.9,18.9,0,0,0,1.46-3.82h-2.32c.48-1.1,1-2.62,1.56-4.06h-2.28v-1.6h4.43c-.44,1.31-1,2.83-1.5,4.13h1.08l.26-.08Zm-2.86-5.09c-.23-.82-.71-2.13-1-3.11l1.61-.44c.34,1,.8,2.18,1.05,3Zm5.16,3.65a20.81,20.81,0,0,1-1.19,7,7.8,7.8,0,0,0-1.47-.84c1-2.35,1.1-5.64,1.1-8V74.7h10.49V86.84c0,.84-.17,1.28-.7,1.52a6.76,6.76,0,0,1-2.7.29,6.07,6.07,0,0,0-.47-1.48h1.9c.26,0,.34-.09.34-.36V81.43Zm0-5.28v1.33h2.85V76.15Zm0,4h2.85V78.71h-2.85v1.46Zm6,2.21v4.33h-5V82.38Zm-1.31,1.14h-2.47v2h2.47Zm2.53-7.37h-2.95v1.33h2.95Zm0,4V78.71h-2.95v1.46Z"/><path class="cls-7" d="M163.76,87.62A13.06,13.06,0,0,1,161,91.44a9.23,9.23,0,0,0-1.41-1,9.3,9.3,0,0,0,2.55-3.22Zm5.09-.76H159.6V85.32h1.77V77.91h-1.54V76.37h1.54V74.19H163v2.18h3V74.19h1.63v2.18h1.37v1.54h-1.37v7.41h1.29Zm-5.89-9v1.43h3V77.91Zm0,4.39h3V80.73h-3Zm0,3h3V83.69h-3Zm3.21,1.79a17.47,17.47,0,0,1,2.06,2.77l-1.43.86a19.59,19.59,0,0,0-2-2.89Zm10.26,2.22c0,.93-.21,1.44-.79,1.71a6.68,6.68,0,0,1-2.89.32,6.54,6.54,0,0,0-.51-1.67c.89,0,1.84,0,2.08,0s.4-.09.4-.4V85.09h-3.49a15.16,15.16,0,0,1-1.75,6.41,5.53,5.53,0,0,0-1.41-1c1.5-2.49,1.64-6,1.64-8.76V74.89h6.72Zm-1.71-5.83V80.73h-3.34v1c0,.55,0,1.16,0,1.77Zm-3.34-7v2.68h3.34V76.49Z"/><path class="cls-7" d="M136.15,94.29h1.75v17.15h-1.75v-5c-3.25,1.14-3.84,1.46-4.24,1.76a7.26,7.26,0,0,0-.68-1.61,1.42,1.42,0,0,0,.66-1.29V96.07h1.73v9.4l2.53-.79ZM147,99.24a22,22,0,0,1-2.45,7.32,11.16,11.16,0,0,0,3.89,3.36,5.34,5.34,0,0,0-1.21,1.42,12.26,12.26,0,0,1-3.69-3.28,12.68,12.68,0,0,1-4.07,3.42,7.64,7.64,0,0,0-1.15-1.47,10.79,10.79,0,0,0,4.23-3.49,25.07,25.07,0,0,1-2.07-4.81,10.43,10.43,0,0,1-1.25,1.92,12.86,12.86,0,0,0-1.26-1.5c1.62-1.88,2.57-4.92,3.08-8.15l1.81.31a29,29,0,0,1-.75,3.28h6.16v1.67Zm-5.57.4a22.08,22.08,0,0,0,2.07,5.3,19.12,19.12,0,0,0,1.73-5.7h-3.65Z"/><path class="cls-7" d="M167.4,109.27v1.56H150.25v-1.56h2.33v-5.71h12.56v5.71Zm-.34-10.08H150.55V97.63h4.71a20.49,20.49,0,0,0-1.8-2.95L155,94a14.2,14.2,0,0,1,2,3.1l-1,.51h5.85l-1-.38A21.39,21.39,0,0,0,162.58,94l1.78.53a28.27,28.27,0,0,1-2.07,3.1h4.77Zm-9.95,1.4a31.1,31.1,0,0,1-5.5,3.31,7.15,7.15,0,0,0-1.06-1.43,21.44,21.44,0,0,0,5.34-2.73Zm-3,8.68h2v-4.21h-2Zm3.63-4.21v4.21h2v-4.21Zm3.53-5.3a52.06,52.06,0,0,1,5.82,2.41l-1,1.41a48.63,48.63,0,0,0-5.76-2.57Zm.12,5.3v4.21h2.05v-4.21Z"/><path class="cls-4" d="M208.67,117.31l-4.45,8.1-3.91-2.15,4.45-8.1Zm-3.41,0-2.92,5.31,1.34.74,2.91-5.31Zm5,.29.54.35c2.23,1.4,3.15,2.14,3.35,2.73a1.71,1.71,0,0,1-.12,1.34,16.83,16.83,0,0,1-.93,1.76,3.73,3.73,0,0,0-1.61-.29,16.67,16.67,0,0,0,1-1.54.69.69,0,0,0,.12-.55c-.07-.3-.62-.78-1.92-1.63L209,122.7c1.4,1.41,2,3.26,1.17,6.59a4.77,4.77,0,0,0-1.63.09c.77-2.62.48-4.09-.37-5.16l-1.83,3.33-1.2-.67,2-3.66c-.3-.22-.61-.43-.93-.65l.79-1.45c.31.21.64.44.93.66Z"/><path class="cls-4" d="M209.16,113.4l-.71,2.14-1.16-.38L208,113l-2.53-.83.42-1.27,2.53.83.66-2,1.16.38-.66,2,.75.24-.26-.76c.31-.27,1.39-1,1.67-1.25l.67,1.08a18.57,18.57,0,0,0-1.92,1l1.26.41-.42,1.27Zm-1.89.87a6.34,6.34,0,0,0-1.74.12l0-1.11a5.51,5.51,0,0,1,1.7-.18Zm0-5.07c.48.49,1,1,1.32,1.35l-.62.84a13.18,13.18,0,0,0-1.41-1.08Zm2.41-1.41-.76-.44-.67,2L207,109l1.91-5.83,1.26.42-.73,2.24c.25.2.49.38.71.57l.72-2.17,6.5,2.13-1.67,5.09-6.5-2.14Zm0,5.89a5.55,5.55,0,0,1,1.65,2.18,4.17,4.17,0,0,0-1.19.54,4.35,4.35,0,0,0-1.07-2Zm1.77-7.74-.78,2.38.75.25.79-2.38Zm5.72,7.51a18,18,0,0,0-1.85,1.37,4.65,4.65,0,0,1,.95,2.74,4.63,4.63,0,0,0-1.3.4,3.29,3.29,0,0,0-1.3-2.84l-.62,1.91-1.21-.4.66-2-1-.33L212,113l1,.33.32-1a6.81,6.81,0,0,0-.91.41l-.27-1a5.19,5.19,0,0,1,1.22-.59l.16.51.2-.58,1.2.39-.73,2.24a2.91,2.91,0,0,1,.3.17,19.84,19.84,0,0,1,2-1.67Zm-3.95-6.93-.79,2.38.77.25.78-2.38Zm1.78.58-.79,2.39.77.25.78-2.38Zm2.25,2.21a8.39,8.39,0,0,1,.95,2.86c-.33.15-.87.42-1.23.63a7,7,0,0,0-.88-2.54Zm-.3-1.57a16.7,16.7,0,0,1,2.28-1.52l.42,1.37a17.12,17.12,0,0,0-2.33,1.43Z"/><path class="cls-4" d="M211.64,95.4c.78-.61,1.27-1.94,1.58-3.67a5.1,5.1,0,0,0,1.12,1A6.26,6.26,0,0,1,212.61,96c.51.56.88,1.69.85,3.89a4.44,4.44,0,0,0-.91.41l-.43,3.42-1.17-.15.49-3.89.79.1c.05-2.5-.49-2.9-1-3l-.19,0-.1.77a5.77,5.77,0,0,1,1,1,6.61,6.61,0,0,0-.93,1,5.37,5.37,0,0,0-2.11-1.8l.47-1.3.53.29.47-3.67,0-.24.46-1a12.16,12.16,0,0,1,1.89,1.44l-.59,1.13c-.19-.16-.44-.36-.69-.54l-.19,1.43.26,0Zm-1.1,4.43-.42,3.3L209,103l.41-3.31ZM219.28,96c.58-1.13,1.26-2.33,1.73-3l.65,1.48a23,23,0,0,0-1.94,3.16l-.54-.86-.46,3.63.66-1a16.5,16.5,0,0,1,1.17,4.23,11.75,11.75,0,0,0-1.26,1,14.9,14.9,0,0,0-.63-3.66l-.23,1.86-5.24-.66,1.08-8.63,5.24.65Zm-4.44,4.79.71-5.59-.56-.07-.7,5.59Zm1.42.18.71-5.59-.56-.07-.7,5.59Zm1.45.18.7-5.59-.58-.07-.7,5.59Z"/><path class="cls-4" d="M219.58,79l1.25-.08.62,9.53-1.24.09L220,84.56l-.75,0,.18,2.75-.93.06a7.31,7.31,0,0,1,.84.68,8.21,8.21,0,0,0-1.25.7,7.61,7.61,0,0,1,4,1.13,5.44,5.44,0,0,0-.92,1.26,7.07,7.07,0,0,0-4.55-.86l-2.31.15-.11-1.75a7.41,7.41,0,0,0-.56.69c-.2-.93-.45-1.94-.75-2.92-.15.83-.28,1.68-.37,2.46l-.61-.69L212,90.5l-1.21.08-.29-4.52a7.52,7.52,0,0,0-.64.54l-.58-1a7.9,7.9,0,0,1,1.13-.95l-.3-4.49,1.21-.08.12,1.88.35-.64a16.11,16.11,0,0,1,.75,1.55c.16-.78.32-1.49.48-2.09l.64.69-.12-1.91,1.23-.08.62,9.42,1.09-.08c.41,0,.87,0,1.36,0a6.44,6.44,0,0,0-2.43-1.33l.3-1.33.54.17-.1-1.5-.79,0-.1-1.52.79,0-.21-3.21L217,80l.21,3.2.68,0-.19-2.83,1.18-.08.19,2.83.75,0Zm-7.81,8.18c.13-.83.27-1.7.42-2.57a12.57,12.57,0,0,0-.7-1.66Zm1.94-4.82c-.18.65-.35,1.44-.52,2.27.31.92.59,1.85.85,2.75ZM218,84.68l-.68,0,.14,2.11c.25.13.48.26.71.4Z"/></svg>