<svg id="圖層_1" data-name="圖層 1" xmlns="http://www.w3.org/2000/svg" viewBox="0 0 300 180"><defs><style>.cls-1,.cls-8{fill:#0068b7;}.cls-2{fill:#4c4948;}.cls-3{fill:#002f7b;}.cls-4,.cls-9{fill:#814f9c;}.cls-10,.cls-5{fill:#e95383;}.cls-11,.cls-6{fill:#f6ac19;}.cls-7{fill:none;stroke:#9fa0a0;stroke-width:0.5px;}.cls-14,.cls-7{stroke-miterlimit:10;}.cls-10,.cls-11,.cls-12,.cls-8,.cls-9{fill-rule:evenodd;}.cls-12,.cls-14,.cls-15{fill:#fff;}.cls-13{fill:#76ba5a;}.cls-14{stroke:#76ba5a;}</style></defs><rect class="cls-1" x="7.37" y="171.57" width="6.69" height="6.69"/><path class="cls-2" d="M3.35,158.93c1.41,0,1.88,1.33,1.88,2.57s-.47,2.57-1.88,2.57-1.87-1.32-1.87-2.57S2,158.93,3.35,158.93Zm0,4.76c1,0,1.45-.95,1.45-2.19s-.44-2.19-1.45-2.19-1.44.95-1.44,2.19S2.35,163.69,3.35,163.69Z"/><path class="cls-2" d="M6.56,163.27a.37.37,0,0,1,.37.38.37.37,0,0,1-.73,0A.37.37,0,0,1,6.56,163.27Z"/><path class="cls-2" d="M9.77,158.93c1.4,0,1.87,1.33,1.87,2.57s-.47,2.57-1.87,2.57S7.9,162.75,7.9,161.5,8.36,158.93,9.77,158.93Zm0,4.76c1,0,1.45-.95,1.45-2.19s-.45-2.19-1.45-2.19-1.44.95-1.44,2.19S8.76,163.69,9.77,163.69Z"/><path class="cls-2" d="M13.51,161.11A1.08,1.08,0,1,1,14.59,160,1.08,1.08,0,0,1,13.51,161.11Zm0-.35a.73.73,0,1,0-.71-.73A.71.71,0,0,0,13.51,160.76Zm-.4,3.22,3.31-5h.42l-3.32,5Zm3.34-2.09A1.08,1.08,0,1,1,15.37,163,1.06,1.06,0,0,1,16.45,161.89Zm0,.35a.7.7,0,0,0-.71.72.71.71,0,1,0,1.41,0A.7.7,0,0,0,16.45,162.24Z"/><path class="cls-2" d="M5.08,147.07H4.65v-4.16a1.7,1.7,0,0,1-1.24.58v-.36a1.4,1.4,0,0,0,1.27-1h.4Z"/><path class="cls-2" d="M6.56,146.37a.37.37,0,1,1,0,.73.37.37,0,0,1,0-.73Z"/><path class="cls-2" d="M9.77,142c1.4,0,1.87,1.33,1.87,2.57s-.47,2.57-1.87,2.57-1.87-1.32-1.87-2.57S8.36,142,9.77,142Zm0,4.76c1,0,1.45-.95,1.45-2.19s-.45-2.19-1.45-2.19-1.44.95-1.44,2.19S8.76,146.78,9.77,146.78Z"/><path class="cls-2" d="M13.51,144.2a1.08,1.08,0,1,1,1.08-1.08A1.08,1.08,0,0,1,13.51,144.2Zm0-.35a.73.73,0,1,0-.71-.73A.7.7,0,0,0,13.51,143.85Zm-.4,3.22,3.31-5h.42l-3.32,5ZM16.45,145a1.08,1.08,0,1,1-1.08,1.07A1.06,1.06,0,0,1,16.45,145Zm0,.35a.7.7,0,0,0-.71.72.71.71,0,1,0,1.41,0A.7.7,0,0,0,16.45,145.33Z"/><path class="cls-2" d="M2,130.16a2.26,2.26,0,0,1,1.24-1.88l.73-.5a1.52,1.52,0,0,0,.81-1.21,1,1,0,0,0-1.12-1.08,1.15,1.15,0,0,0-1.21,1.22,1,1,0,0,0,0,.24L2,126.89c0-.07,0-.17,0-.23a1.56,1.56,0,0,1,1.64-1.55,1.43,1.43,0,0,1,1.56,1.45c0,1.1-1.14,1.62-2,2.2a1.53,1.53,0,0,0-.7,1H5.25v.4Z"/><path class="cls-2" d="M6.56,129.46a.37.37,0,1,1,0,.73.37.37,0,0,1,0-.73Z"/><path class="cls-2" d="M9.77,125.11c1.4,0,1.87,1.33,1.87,2.57s-.47,2.57-1.87,2.57-1.87-1.32-1.87-2.57S8.36,125.11,9.77,125.11Zm0,4.76c1,0,1.45-1,1.45-2.19s-.45-2.19-1.45-2.19-1.44,1-1.44,2.19S8.76,129.87,9.77,129.87Z"/><path class="cls-2" d="M13.51,127.29a1.08,1.08,0,1,1,1.08-1.08A1.08,1.08,0,0,1,13.51,127.29Zm0-.35a.73.73,0,1,0-.71-.73A.7.7,0,0,0,13.51,126.94Zm-.4,3.22,3.31-5h.42l-3.32,5Zm3.34-2.09a1.08,1.08,0,1,1-1.08,1.07A1.07,1.07,0,0,1,16.45,128.07Zm0,.35a.7.7,0,0,0-.71.72.71.71,0,1,0,1.41,0A.7.7,0,0,0,16.45,128.42Z"/><path class="cls-2" d="M5.25,111.79a1.61,1.61,0,0,1-1.74,1.56,1.65,1.65,0,0,1-1.78-1.51l.42-.1A1.28,1.28,0,0,0,3.52,113a1.2,1.2,0,0,0,1.29-1.16,1.12,1.12,0,0,0-1.22-1.12,1.49,1.49,0,0,0-.47.07l-.21-.37,1.66-1.69H1.85v-.4H5.14v.4L3.5,110.35a1.1,1.1,0,0,1,.24,0A1.42,1.42,0,0,1,5.25,111.79Z"/><path class="cls-2" d="M6.56,112.55a.37.37,0,0,1,.37.37.37.37,0,0,1-.73,0A.37.37,0,0,1,6.56,112.55Z"/><path class="cls-2" d="M9.77,108.2c1.4,0,1.87,1.33,1.87,2.57s-.47,2.58-1.87,2.58S7.9,112,7.9,110.77,8.36,108.2,9.77,108.2Zm0,4.76c1,0,1.45-.94,1.45-2.19s-.45-2.19-1.45-2.19-1.44,1-1.44,2.19S8.76,113,9.77,113Z"/><path class="cls-2" d="M13.51,110.38a1.08,1.08,0,1,1,1.08-1.08A1.08,1.08,0,0,1,13.51,110.38Zm0-.35a.73.73,0,1,0-.71-.73A.7.7,0,0,0,13.51,110Zm-.4,3.22,3.31-5h.42l-3.32,5Zm3.34-2.09a1.08,1.08,0,1,1-1.08,1.07A1.07,1.07,0,0,1,16.45,111.16Zm0,.35a.73.73,0,1,0,.7.72A.71.71,0,0,0,16.45,111.51Z"/><path class="cls-2" d="M1.61,94.61l2.28-3.23h.63v3.35h.89v.39H4.52v1.23H4.1V95.12H1.61ZM4.1,91.77,2,94.73H4.1Z"/><path class="cls-2" d="M6.56,95.64a.37.37,0,0,1,.37.37.37.37,0,0,1-.73,0A.37.37,0,0,1,6.56,95.64Z"/><path class="cls-2" d="M9.77,91.29c1.4,0,1.87,1.33,1.87,2.58s-.47,2.57-1.87,2.57S7.9,95.11,7.9,93.87,8.36,91.29,9.77,91.29Zm0,4.76c1,0,1.45-1,1.45-2.18s-.45-2.2-1.45-2.2-1.44,1-1.44,2.2S8.76,96.05,9.77,96.05Z"/><path class="cls-2" d="M13.51,93.47a1.08,1.08,0,1,1,1.08-1.08A1.08,1.08,0,0,1,13.51,93.47Zm0-.35a.73.73,0,1,0-.71-.73A.7.7,0,0,0,13.51,93.12Zm-.4,3.23,3.31-5h.42l-3.32,5Zm3.34-2.1a1.08,1.08,0,1,1-1.08,1.07A1.07,1.07,0,0,1,16.45,94.25Zm0,.35a.73.73,0,1,0,.7.72A.71.71,0,0,0,16.45,94.6Z"/><path class="cls-2" d="M2.21,77.94a1.28,1.28,0,0,0,1.33,1.2,1.26,1.26,0,1,0,0-2.51,1.51,1.51,0,0,0-1.12.51L2,77l.64-2.49H5.09v.4H2.91l-.47,1.86a1.59,1.59,0,0,1,1.18-.48,1.57,1.57,0,0,1,1.66,1.64,1.65,1.65,0,0,1-1.74,1.64,1.66,1.66,0,0,1-1.75-1.46Z"/><path class="cls-2" d="M6.56,78.73a.37.37,0,0,1,.37.37.37.37,0,0,1-.73,0A.37.37,0,0,1,6.56,78.73Z"/><path class="cls-2" d="M9.77,74.38c1.4,0,1.87,1.33,1.87,2.58s-.47,2.57-1.87,2.57S7.9,78.2,7.9,77,8.36,74.38,9.77,74.38Zm0,4.76c1,0,1.45-.94,1.45-2.18s-.45-2.2-1.45-2.2-1.44.95-1.44,2.2S8.76,79.14,9.77,79.14Z"/><path class="cls-2" d="M13.51,76.56a1.08,1.08,0,1,1,1.08-1.07A1.07,1.07,0,0,1,13.51,76.56Zm0-.35a.7.7,0,0,0,.7-.72.71.71,0,1,0-.7.72Zm-.4,3.23,3.31-5h.42l-3.32,5Zm3.34-2.1a1.08,1.08,0,1,1-1.08,1.07A1.07,1.07,0,0,1,16.45,77.34Zm0,.35a.73.73,0,1,0,.7.72A.71.71,0,0,0,16.45,77.69Z"/><path class="cls-2" d="M5.27,61a1.67,1.67,0,0,1-1.75,1.66c-1,0-1.85-.8-1.85-2.31,0-1.89,1.12-2.84,2.41-2.84a2,2,0,0,1,1.07.27L5,58.11a1.78,1.78,0,0,0-1-.24c-1.32,0-1.95,1.13-2,2.37a1.59,1.59,0,0,1,1.53-1A1.59,1.59,0,0,1,5.27,61ZM3.53,62.24A1.26,1.26,0,0,0,4.83,61a1.24,1.24,0,0,0-1.29-1.29A1.29,1.29,0,0,0,2.23,61,1.27,1.27,0,0,0,3.53,62.24Z"/><path class="cls-2" d="M6.56,61.82a.37.37,0,0,1,.37.37.36.36,0,0,1-.37.36.37.37,0,0,1-.37-.36A.38.38,0,0,1,6.56,61.82Z"/><path class="cls-2" d="M9.77,57.47c1.4,0,1.87,1.33,1.87,2.58s-.47,2.57-1.87,2.57S7.9,61.29,7.9,60.05,8.36,57.47,9.77,57.47Zm0,4.76c1,0,1.44-.94,1.44-2.18s-.44-2.2-1.44-2.2-1.44.95-1.44,2.2S8.76,62.23,9.77,62.23Z"/><path class="cls-2" d="M13.51,59.65a1.07,1.07,0,1,1,1.08-1.07A1.07,1.07,0,0,1,13.51,59.65Zm0-.34a.73.73,0,1,0-.71-.73A.71.71,0,0,0,13.51,59.31Zm-.4,3.22,3.31-5h.42l-3.32,5Zm3.33-2.1a1.08,1.08,0,1,1-1.07,1.07A1.07,1.07,0,0,1,16.44,60.43Zm0,.35a.73.73,0,1,0,.71.72A.71.71,0,0,0,16.44,60.78Z"/><path class="cls-3" d="M7.46,4.6V5.81h2.91V9c0,.39-.09.59-.37.7a5.56,5.56,0,0,1-1.58.12,2.66,2.66,0,0,0-.23-.67c.61,0,1.15,0,1.3,0S9.7,9.08,9.7,9V6.47H7.46v4.36H6.78V6.47H4.68V9.81H4v-4H6.78V4.6H3.14V3.94H7a11.8,11.8,0,0,0-.59-1.18L7,2.56a8.23,8.23,0,0,1,.7,1.33l-.12,0h3.58V4.6Z"/><path class="cls-3" d="M14.91,7.92,12.24,9.2,12,8.54,13.2,8V5.19h-1V4.56h1V2.7h.63V4.56h1v.63h-1V7.73l.91-.42Zm1.64-1a4.28,4.28,0,0,1-.38.62H20s0,.18,0,.28c-.14,1.87-.29,2.56-.54,2.82a.7.7,0,0,1-.55.23,8.49,8.49,0,0,1-.88,0,1.34,1.34,0,0,0-.16-.54c.34,0,.67,0,.79,0a.36.36,0,0,0,.29-.08,5.22,5.22,0,0,0,.4-2.19h-.7a6.22,6.22,0,0,1-1.86,2.84,2.31,2.31,0,0,0-.47-.41,5.23,5.23,0,0,0,1.77-2.43h-.87A6.9,6.9,0,0,1,15,10.5a2.23,2.23,0,0,0-.43-.44,5.85,5.85,0,0,0,2-2h-.9a5.65,5.65,0,0,1-1.23,1.08,3.78,3.78,0,0,0-.45-.44,5,5,0,0,0,1.82-1.81H14.63V6.31h5.61v.57Zm3.09-1.07H15.51V2.89h4.13ZM19,3.4H16.12v.71H19Zm0,1.18H16.12v.73H19Z"/><path class="cls-3" d="M24.14,7.12,23,7.46V10c0,.39-.09.56-.33.68a3.09,3.09,0,0,1-1.18.11,2.67,2.67,0,0,0-.21-.62h.89c.13,0,.17,0,.17-.17V7.67c-.44.12-.85.25-1.21.36L21,7.37,22.36,7V5.08H21.08V4.44h1.28V2.63H23V4.44h1v.64H23v1.7c.34-.09.69-.19,1-.3Zm1.63-1c-.88,0-1.16-.28-1.16-1.05V2.66h.66V3.74h3.62v.59H25.27v.79c0,.33.1.46.49.46h2.36a5.75,5.75,0,0,0,1-.07c0,.18.06.44.08.59a6.68,6.68,0,0,1-1,.05Zm-1.15.77h4.21v3.89h-.65v-.38H25.26v.41h-.64Zm.64.57v.9h2.92v-.9Zm2.92,2.39V8.94H25.26v.94Z"/><path class="cls-3" d="M34,8.54a2,2,0,0,1-.77,1.19,9.92,9.92,0,0,1,1,.53l-.45.39a9.69,9.69,0,0,0-1.1-.59,8.88,8.88,0,0,1-2.53.77,1.92,1.92,0,0,0-.27-.45,9.08,9.08,0,0,0,2.17-.59,10,10,0,0,0-1.39-.49c.14-.19.31-.38.46-.6l-1.06.06-.07-.5,1.46,0c.14-.25.28-.48.41-.72H30.47V6h1.7V5.66H30.72v-1h-.6V4.17h.6V3.25h1.45V2.62h.53v.63h1.53v.92h.61v.52h-.61v1H32.7V6h1.75V7.49h-1.9a7.73,7.73,0,0,1-.38.68l1.37-.07V7.67h.55v.4l.45,0v.47Zm-3-1.5h1.12V6.49H31.05Zm.25-3.32V4.2h.87V3.72Zm.87,1.47V4.65H31.3v.54Zm-.31,3.47c-.09.14-.19.28-.28.4.37.12.75.26,1.12.42a1.76,1.76,0,0,0,.76-.91Zm.84-4.94V4.2h.94V3.72Zm.94,1.47V4.65H32.7v.54Zm-.94,1.3V7h1.15V6.49ZM37.6,5a13.14,13.14,0,0,1-.82,3.45,4.49,4.49,0,0,0,1.52,1.87,2,2,0,0,0-.4.47A4.42,4.42,0,0,1,36.48,9a5.28,5.28,0,0,1-1.63,1.86,1.88,1.88,0,0,0-.37-.51,4.65,4.65,0,0,0,1.7-2A11.93,11.93,0,0,1,35.52,6,5.7,5.7,0,0,1,35,7a4.72,4.72,0,0,0-.46-.4A10.51,10.51,0,0,0,35.74,2.7l.56.09c-.07.52-.17,1-.28,1.55h2.19V5ZM35.87,5a14.62,14.62,0,0,0,.61,2.66A13.48,13.48,0,0,0,37,5Z"/><path class="cls-3" d="M39.64,5.63l.57-.94-1-.4.16-.46,1,.25L40.5,3H41l.09,1.08,1-.24.15.46-1,.4.58.94-.4.29-.71-.86L40,5.92Z"/><path class="cls-3" d="M43.84,5.63l.57-.94-1-.4.16-.46,1,.25L44.71,3h.48l.09,1.08,1-.24.15.46-1,.4.58.94-.4.29L45,5.06l-.71.86Z"/><path class="cls-3" d="M55.61,8.79H52.35v2.06h-.68V8.79H47.52V8.14H49V5.73h2.68V4.36H49.49a8.61,8.61,0,0,1-1.37,1.78,4.36,4.36,0,0,0-.58-.43,7.59,7.59,0,0,0,2-3.1l.67.16c-.12.31-.27.64-.41.94h5.36v.65H52.35V5.73H55v.63H52.35V8.14h3.26Zm-3.94-.65V6.36h-2V8.14Z"/><path class="cls-3" d="M64.57,7.69H60.88v3.15H60.2V7.69H56.56V7H60.2V3.89H57V3.24h7v.65H60.88V7h3.69ZM58.24,4.33a8.83,8.83,0,0,1,.86,2l-.63.22a10.76,10.76,0,0,0-.81-2.06Zm3.62,2.08a12.85,12.85,0,0,0,1-2.12l.7.2A18.64,18.64,0,0,1,62.43,6.6Z"/><path class="cls-3" d="M68.24,7.52l.15.6c-1,.44-2,.89-2.73,1.23l-.26-.66,1.22-.48V5.41H65.55V4.78h1.07V2.73h.63V4.78h1v.63h-1V7.94ZM73.5,4.06s0,.27,0,.36c-.11,4.22-.22,5.6-.57,6.05a.86.86,0,0,1-.72.37,9.52,9.52,0,0,1-1.3,0,1.59,1.59,0,0,0-.23-.65c.58.05,1.1.05,1.31.05a.4.4,0,0,0,.36-.14c.3-.31.41-1.76.51-5.4h-3A7.24,7.24,0,0,1,69,6.15a3.7,3.7,0,0,0-.55-.35,8.73,8.73,0,0,0,1.53-3.18l.61.16a10.72,10.72,0,0,1-.44,1.28ZM69.41,7.94h2.88v.59H69.41Zm2.65-1.88v.59H69.82V6.06Z"/><path class="cls-3" d="M76.81,8.44h1.6V9h-1.6v1.8h-.62V9H74.51V8.44h1.68v-1H74.7V6.88h.84a4.46,4.46,0,0,0-.42-1.1l.49-.13a3.5,3.5,0,0,1,.46,1.07l-.45.16h1.12a9.24,9.24,0,0,0,.62-1.27l.58.16c-.19.37-.41.77-.61,1.11h.9v.59H76.81ZM78.4,5.61H74.52V5h1.67v-.9H74.78V3.55h1.41V2.64h.62v.91h1.36v.58H76.81V5H78.4Zm4,.59a8.37,8.37,0,0,1-1.1,2.91,4.42,4.42,0,0,0,1.43,1.14,3,3,0,0,0-.46.54A5.36,5.36,0,0,1,81,9.65a5.61,5.61,0,0,1-1.31,1.22,1.83,1.83,0,0,0-.3-.33v.29h-.61V3h3.48V4.77c0,.34-.06.51-.34.61a4.9,4.9,0,0,1-1.41.11,2.26,2.26,0,0,0-.21-.6c.56,0,1,0,1.16,0s.18,0,.18-.14V3.65H79.35V6.07h2.56l.11,0Zm-3.09,4.11a4.92,4.92,0,0,0,1.22-1.19,9,9,0,0,1-1.14-2.49h-.08ZM80,6.63a7.36,7.36,0,0,0,.92,1.94,6.78,6.78,0,0,0,.77-1.94Z"/><path class="cls-3" d="M83.47,3h3.35v.55h-1V4.72h.87v6h-.5v-.5H84.13v.63h-.5V4.72h.85V3.58h-1Zm2.71,6.62V7.23H85.8c-.35,0-.46-.08-.46-.5V5.28h-.41V6a2.52,2.52,0,0,1-.59,1.74.81.81,0,0,0-.21-.2V9.65ZM84.13,5.28V7.43A2.1,2.1,0,0,0,84.56,6V5.28Zm.32,2.93h1.42v.51H84.45Zm.89-4.63h-.41V4.72h.41Zm.84,1.7h-.46V6.72c0,.11,0,.13.11.13h.35Zm1.63-2.47h.56V6.39a7.15,7.15,0,0,1-1.06,4.49,2.52,2.52,0,0,0-.49-.37,5.32,5.32,0,0,0,1-3.2l-.44.18a11.49,11.49,0,0,0-.49-2l.42-.16a11.46,11.46,0,0,1,.51,2c0-.28,0-.58,0-.86Zm3.53,0v8h-.58V7.24l-.34.16a12,12,0,0,0-.61-1.89v5.15h-.53V7.25l-.41.18a12.11,12.11,0,0,0-.48-2l.38-.16a11.17,11.17,0,0,1,.51,1.87V3h.53V5.33l.33-.16a10.27,10.27,0,0,1,.62,1.67v-4Z"/><path class="cls-3" d="M100.57,9H96.91v1.9h-.7V9H92.55V8.33h3.66V7.59h.7v.74h3.66ZM94.94,6.61c-.69.37-1.42.76-2,1.06l-.33-.54c.55-.23,1.39-.63,2.2-1ZM98,7.72a2.47,2.47,0,0,0-.25-.48,13.79,13.79,0,0,0-2.83.36c0-.12-.13-.42-.2-.58a2,2,0,0,0,.75-.44c.17-.15.56-.5,1-.94a5.46,5.46,0,0,0-1.37.18,3.81,3.81,0,0,0-.19-.57A.66.66,0,0,0,95.31,5a6.22,6.22,0,0,0,.7-.92H92.73V3.43H96.4c-.12-.22-.28-.49-.42-.7l.65-.17a5.49,5.49,0,0,1,.53.87h3.34v.62H96.71a12.7,12.7,0,0,1-.85,1.1L97,5.07a7.18,7.18,0,0,0,.6-.74l.55.31a17.09,17.09,0,0,1-2.27,2.24l1.58-.12c-.15-.2-.3-.41-.44-.58L97.51,6a6.55,6.55,0,0,1,1,1.52Zm-4.71-3.3a7.85,7.85,0,0,1,1.37,1l-.47.41a7.47,7.47,0,0,0-1.35-1.06ZM99.9,7.76A10.41,10.41,0,0,0,98.13,6.5l.48-.36a10.81,10.81,0,0,1,1.78,1.22Zm.15-3a9,9,0,0,1-1.34,1.13l-.49-.32a7.37,7.37,0,0,0,1.27-1.15Z"/><path class="cls-3" d="M102.05,5.63l.56-.94-1-.4.17-.46,1,.25L102.91,3h.49l.09,1.08,1-.24.16.46-1,.4.57.94-.39.29-.72-.86-.71.86Z"/><path class="cls-3" d="M5.49,19.36A8.39,8.39,0,0,1,6.82,14.8l.51.23a8.36,8.36,0,0,0-1.15,4.33,8.33,8.33,0,0,0,1.15,4.33l-.51.24A8.42,8.42,0,0,1,5.49,19.36Z"/><path class="cls-3" d="M8.06,17.51c0-1.33.59-2.08,1.49-2.08s1.51.75,1.51,2.08-.6,2.09-1.51,2.09S8.06,18.84,8.06,17.51Zm2.38,0c0-1.06-.36-1.57-.89-1.57s-.87.51-.87,1.57.36,1.58.87,1.58S10.44,18.56,10.44,17.51Zm3-2.08H14L10.3,22.28H9.75Zm-.74,4.76c0-1.33.6-2.07,1.5-2.07s1.5.74,1.5,2.07-.59,2.09-1.5,2.09S12.65,21.52,12.65,20.19Zm2.38,0c0-1.06-.36-1.57-.88-1.57s-.88.51-.88,1.57.36,1.58.88,1.58S15,21.24,15,20.19Z"/><path class="cls-3" d="M16.48,23.38a1.35,1.35,0,0,0,.9-1.22h-.1a.57.57,0,0,1-.61-.58.58.58,0,0,1,.62-.57c.44,0,.7.37.7,1a2,2,0,0,1-1.32,1.88Z"/><path class="cls-3" d="M20.91,21.67c2.07-1.81,3-3.12,3-4.26a1.16,1.16,0,0,0-1.22-1.3,1.85,1.85,0,0,0-1.37.76l-.47-.46a2.5,2.5,0,0,1,1.94-1,1.82,1.82,0,0,1,1.92,2c0,1.31-1,2.65-2.59,4.12.35,0,.75-.06,1.08-.06h1.83v.71H20.91Z"/><path class="cls-3" d="M26,18.84c0-2.3.8-3.41,2.06-3.41s2.06,1.12,2.06,3.41-.81,3.44-2.06,3.44S26,21.13,26,18.84Zm3.31,0c0-1.93-.5-2.74-1.25-2.74s-1.26.81-1.26,2.74.51,2.78,1.26,2.78S29.26,20.78,29.26,18.84Z"/><path class="cls-3" d="M31,18.84c0-2.3.8-3.41,2.06-3.41s2.05,1.12,2.05,3.41-.8,3.44-2.05,3.44S31,21.13,31,18.84Zm3.31,0c0-1.93-.5-2.74-1.25-2.74s-1.26.81-1.26,2.74.5,2.78,1.26,2.78S34.26,20.78,34.26,18.84Z"/><path class="cls-3" d="M39.14,16.26h-3.2v-.7h4.13v.5c-1.54,2-1.83,3.52-1.93,6.1h-.86A9.79,9.79,0,0,1,39.14,16.26Z"/><path class="cls-3" d="M43.3,15h.59L41.2,23.77h-.6Z"/><path class="cls-3" d="M44.82,21.48h1.46V16.55H45.11V16a4.13,4.13,0,0,0,1.37-.47h.63v5.92h1.33v.68H44.82Z"/><path class="cls-3" d="M49.46,18.84c0-2.3.8-3.41,2.06-3.41s2,1.12,2,3.41-.8,3.44-2,3.44S49.46,21.13,49.46,18.84Zm3.31,0c0-1.93-.5-2.74-1.25-2.74s-1.26.81-1.26,2.74.51,2.78,1.26,2.78S52.77,20.78,52.77,18.84Z"/><path class="cls-3" d="M56.81,15h.6l-2.69,8.75h-.61Z"/><path class="cls-3" d="M57.8,21.38l.42-.54a2.18,2.18,0,0,0,1.64.75,1.22,1.22,0,0,0,1.34-1.22c0-.79-.53-1.33-2.05-1.33v-.63c1.35,0,1.82-.55,1.82-1.26a1,1,0,0,0-1.11-1.06,2.05,2.05,0,0,0-1.37.66l-.44-.52a2.63,2.63,0,0,1,1.84-.8,1.69,1.69,0,0,1,1.92,1.66,1.64,1.64,0,0,1-1.18,1.59v0A1.69,1.69,0,0,1,62,20.4a1.92,1.92,0,0,1-2.11,1.88A2.76,2.76,0,0,1,57.8,21.38Z"/><path class="cls-3" d="M63.33,21.48H64.8V16.55H63.63V16A4.06,4.06,0,0,0,65,15.56h.64v5.92H67v.68H63.33Z"/><path class="cls-3" d="M71.14,18.72c-.29,0-.54.18-.77.61L69.91,19a1.52,1.52,0,0,1,1.26-.9c.78,0,1.21.84,1.78.84.29,0,.54-.18.77-.61l.46.34a1.51,1.51,0,0,1-1.25.9C72.13,19.58,71.71,18.72,71.14,18.72Z"/><path class="cls-3" d="M77,21.67c2.07-1.81,3-3.12,3-4.26a1.16,1.16,0,0,0-1.21-1.3,1.85,1.85,0,0,0-1.37.76l-.48-.46a2.52,2.52,0,0,1,1.94-1,1.82,1.82,0,0,1,1.92,2c0,1.31-1,2.65-2.58,4.12.34,0,.75-.06,1.08-.06h1.83v.71H77Z"/><path class="cls-3" d="M82,18.84c0-2.3.8-3.41,2.06-3.41s2,1.12,2,3.41-.8,3.44-2,3.44S82,21.13,82,18.84Zm3.31,0c0-1.93-.5-2.74-1.25-2.74s-1.26.81-1.26,2.74.5,2.78,1.26,2.78S85.31,20.78,85.31,18.84Z"/><path class="cls-3" d="M87,21.67c2.07-1.81,3-3.12,3-4.26a1.16,1.16,0,0,0-1.21-1.3,1.85,1.85,0,0,0-1.37.76l-.48-.46a2.52,2.52,0,0,1,1.94-1,1.82,1.82,0,0,1,1.92,2c0,1.31-1,2.65-2.58,4.12.34,0,.75-.06,1.08-.06H91.1v.71H87Z"/><path class="cls-3" d="M92,18.84c0-2.3.8-3.41,2.06-3.41s2,1.12,2,3.41-.8,3.44-2,3.44S92,21.13,92,18.84Zm3.31,0c0-1.93-.5-2.74-1.25-2.74s-1.26.81-1.26,2.74.5,2.78,1.26,2.78S95.3,20.78,95.3,18.84Z"/><path class="cls-3" d="M99.34,15h.59l-2.69,8.75h-.6Z"/><path class="cls-3" d="M100.86,21.48h1.47V16.55h-1.17V16a4.21,4.21,0,0,0,1.37-.47h.63v5.92h1.32v.68h-3.62Z"/><path class="cls-3" d="M105.46,21.67c2.07-1.81,3-3.12,3-4.26a1.15,1.15,0,0,0-1.21-1.3,1.85,1.85,0,0,0-1.37.76l-.48-.46a2.52,2.52,0,0,1,2-1,1.82,1.82,0,0,1,1.92,2c0,1.31-1,2.65-2.59,4.12.34,0,.75-.06,1.08-.06h1.83v.71h-4.15Z"/><path class="cls-3" d="M112.86,15h.59l-2.69,8.75h-.6Z"/><path class="cls-3" d="M113.85,21.38l.41-.54a2.2,2.2,0,0,0,1.64.75,1.22,1.22,0,0,0,1.34-1.22c0-.79-.53-1.33-2-1.33v-.63c1.36,0,1.83-.55,1.83-1.26a1,1,0,0,0-1.12-1.06,2.08,2.08,0,0,0-1.37.66l-.44-.52a2.66,2.66,0,0,1,1.85-.8,1.69,1.69,0,0,1,1.91,1.66,1.63,1.63,0,0,1-1.18,1.59v0a1.69,1.69,0,0,1,1.41,1.68A1.93,1.93,0,0,1,116,22.28,2.75,2.75,0,0,1,113.85,21.38Z"/><path class="cls-3" d="M119.37,21.48h1.47V16.55h-1.17V16a4.13,4.13,0,0,0,1.37-.47h.63v5.92H123v.68h-3.62Z"/><path class="cls-3" d="M124,23.69A8.66,8.66,0,0,0,124,15l.51-.23a8.5,8.5,0,0,1,0,9.13Z"/><path class="cls-2" d="M21.7,171.8a8.2,8.2,0,0,0,3.39,2.73,2.08,2.08,0,0,0-.44.5,9.69,9.69,0,0,1-3.27-2.66,12.3,12.3,0,0,1-3.33,2.76,2.16,2.16,0,0,0-.36-.51,10,10,0,0,0,3-2.26H19.27v-.56Zm0,6.32h3.08v.54H18v-.54h3v-1.34H18.81v-.53h2.24V175H19.16v-.54H23.6V175H21.67v1.21h2.26v.53H21.67Z"/><path class="cls-2" d="M28.42,177.23l-2.55.82-.13-.58,1.05-.3V175h-.9v-.56h.9v-1.74h-1v-.56h2.44v.56h-.92v1.74h.8V175h-.8v2l1-.31Zm4.54-3A19.59,19.59,0,0,1,31.57,176a4.54,4.54,0,0,0,1.63,1.89,1.38,1.38,0,0,0-.38.45A5,5,0,0,1,31,175.89v2.24c0,.36-.1.53-.31.63a3.22,3.22,0,0,1-1.22.13,2.3,2.3,0,0,0-.22-.58c.47,0,.88,0,1,0s.17,0,.17-.19v-1.88c-.65.66-1.33,1.32-1.88,1.83l-.37-.51c.55-.45,1.43-1.24,2.25-2v-2.08H28.47V173H30.4v-1.38H31V173h2.09v.55H31v.29a9.36,9.36,0,0,0,.39,1.67A11,11,0,0,0,32.44,174ZM29,174a5.81,5.81,0,0,1,.87,1.48l-.48.23a7.57,7.57,0,0,0-.85-1.5Zm3.27-1.15a4.8,4.8,0,0,0-1-.88l.35-.31a5,5,0,0,1,.95.83Z"/><path class="cls-2" d="M40.9,172.41v.51h-7v-.51h3.27c-.07-.23-.17-.51-.25-.73l.58-.13c.11.27.23.6.32.86Zm-.25,5.84c0,.28-.07.4-.29.48a3.5,3.5,0,0,1-1,.08,1.6,1.6,0,0,0-.2-.44h.81c.1,0,.14,0,.14-.12V175.9H34.8v3h-.57V175.4h6.42Zm-.86-4.88V175H35.15v-1.6ZM39.06,178H36.25v.4H35.7v-2h3.36Zm.12-4.2H35.73v.72h3.45Zm-2.93,3v.75h2.28v-.75Z"/><path class="cls-2" d="M44.76,173.42H41.89v-.49h2.87ZM42.2,174h2.25v.47H42.2Zm0,1h2.25v.47H42.2Zm2.24,3.37H42.69v.38H42.2v-2.69h2.24Zm-1.75-1.82v1.32H44v-1.32Zm.59-3.73a7.19,7.19,0,0,0-.55-1.06l.43-.24a7.91,7.91,0,0,1,.58,1ZM49.16,176H47.28v2.86h-.57V176h-2v-.56h2v-2.87H45.07V172H49v.56H47.28v2.87h1.88Zm-3.44-3a9.87,9.87,0,0,1,.44,2l-.51.12a9.1,9.1,0,0,0-.42-2Zm2,1.94a13.42,13.42,0,0,0,.52-2l.57.15c-.19.67-.43,1.48-.63,2Z"/><path class="cls-2" d="M51.06,172.66a5.12,5.12,0,0,1-.79,1,2.81,2.81,0,0,0-.43-.4,4.65,4.65,0,0,0,1.24-1.7l.52.15c-.07.15-.14.31-.22.47h2v.52H51.94c.27.24.6.53.77.72l-.4.36a5,5,0,0,0-.83-.84l.29-.24Zm4.33,3.74H57v.5H55.39v1.35c0,.35-.08.48-.35.56a6.22,6.22,0,0,1-1.42.08,2,2,0,0,0-.16-.51c.53,0,1,0,1.16,0s.17-.05.17-.16V176.9H50v-.5h4.82v-.56h.6Zm1.74-4.25v.52H55.37a6.57,6.57,0,0,1,.74.79l-.4.34a6.25,6.25,0,0,0-.76-.86l.35-.27h-.79a4.9,4.9,0,0,1-.67,1l-.07-.06v.37H56.7v.52H53.77v.72h2.48v.47H50.67v-.47h2.5v-.72h-2.9v-.52h2.9v-.49h.45a2.21,2.21,0,0,0-.23-.17,4.15,4.15,0,0,0,1-1.76l.55.13a5,5,0,0,1-.18.5ZM51.72,177a14,14,0,0,1,1.35,1.19l-.43.35a12.09,12.09,0,0,0-1.35-1.22Z"/><path class="cls-2" d="M60.2,171.74a11.58,11.58,0,0,1-.78,1.63v5.44h-.58v-4.54a7.53,7.53,0,0,1-.81,1,4.22,4.22,0,0,0-.36-.54,9,9,0,0,0,2-3.14Zm2,6.07a6.54,6.54,0,0,1-1.91,1.1,3.82,3.82,0,0,0-.45-.45,5.9,5.9,0,0,0,1.8-.85Zm.08-5.38h-2V172h2v-.44h.6V172h2v.41h-2v.39h1.8v.4h-1.8v.43h2.28v.43H60v-.43h2.31v-.43H60.51v-.4h1.76Zm-1.69,5v-3h4v3Zm.57-2.12h2.9v-.49h-2.9Zm0,.85h2.9v-.5h-2.9Zm0,.85h2.9v-.5h-2.9Zm2.51.51a11.14,11.14,0,0,1,1.58,1l-.59.33a10.47,10.47,0,0,0-1.58-1.11Z"/><path class="cls-2" d="M68.64,175.56l-1,.3v2.3c0,.34-.08.49-.29.6a2.75,2.75,0,0,1-1.06.1,2.08,2.08,0,0,0-.18-.55h.79c.11,0,.15,0,.15-.15v-2.11l-1.08.32-.17-.59,1.25-.34v-1.69H65.92v-.57h1.13v-1.6h.59v1.6h.9v.57h-.9v1.51l.92-.27Zm1.44-.86c-.78,0-1-.24-1-.93V171.6h.58v1h3.22v.52H69.63v.7c0,.3.09.41.44.41h2.1a5.89,5.89,0,0,0,.88-.05c0,.16,0,.38.07.52a5.54,5.54,0,0,1-.92,0Zm-1,.68H72.8v3.46h-.58v-.34H69.63v.37h-.57Zm.57.51v.8h2.59v-.8ZM72.22,178v-.84H69.63V178Z"/><path class="cls-2" d="M77.43,176.82a1.73,1.73,0,0,1-.68,1.06,7.74,7.74,0,0,1,.92.47l-.4.34a9.42,9.42,0,0,0-1-.52,7.73,7.73,0,0,1-2.24.69,2,2,0,0,0-.24-.4,8.06,8.06,0,0,0,1.92-.53,13,13,0,0,0-1.23-.44c.13-.16.27-.33.41-.52l-1,0,0-.44c.36,0,.81,0,1.29,0,.12-.22.25-.43.36-.64h-1.3v-1.3h1.51v-.33H74.48v-.86H74v-.46h.53v-.81h1.29v-.56h.47v.56H77.6v.81h.55v.46H77.6v.86H76.24v.33h1.55v1.3H76.11a6.08,6.08,0,0,1-.34.6l1.22-.06v-.38h.49v.36l.39,0v.42Zm-2.66-1.33h1V175h-1Zm.23-3V173h.77v-.43Zm.77,1.31v-.48H75v.48Zm-.28,3.08-.25.36c.33.1.68.23,1,.36a1.46,1.46,0,0,0,.67-.8Zm.75-4.39V173h.83v-.43Zm.83,1.31v-.48h-.83v.48ZM76.24,175v.49h1V175Zm4.35-1.37a11.67,11.67,0,0,1-.72,3.06,3.93,3.93,0,0,0,1.35,1.67,1.82,1.82,0,0,0-.36.42,4,4,0,0,1-1.26-1.51,4.69,4.69,0,0,1-1.45,1.65,1.63,1.63,0,0,0-.32-.45,4.12,4.12,0,0,0,1.5-1.8,10.11,10.11,0,0,1-.58-2.11,5.55,5.55,0,0,1-.43.88,5,5,0,0,0-.41-.36,9.43,9.43,0,0,0,1-3.45l.5.08c-.06.47-.15.94-.25,1.39h2v.53Zm-1.53,0a13.33,13.33,0,0,0,.53,2.37,11.69,11.69,0,0,0,.47-2.37Z"/><path class="cls-2" d="M104.87,178v.54H97.74V178h2.37v-1.43h-1.8v-2.67h1.8v-1.25H98v-.55h6.73v.55h-2.23v1.24h1.83v2.67h-1.83V178ZM100.69,176V178h1.18v-2h1.82v-1.64h-1.82v-1.75h-1.19v1.77H98.89V176Z"/><path class="cls-2" d="M108,171.74a12.74,12.74,0,0,1-.77,1.63v5.44h-.58v-4.54a7.53,7.53,0,0,1-.81,1,5.63,5.63,0,0,0-.36-.54,9,9,0,0,0,2-3.14Zm2,6.07a6.59,6.59,0,0,1-1.92,1.1,3.11,3.11,0,0,0-.44-.45,5.73,5.73,0,0,0,1.79-.85Zm.07-5.38h-2V172h2v-.44h.6V172h2v.41h-2v.39h1.81v.4h-1.81v.43H113v.43h-5.19v-.43h2.31v-.43h-1.75v-.4h1.75Zm-1.68,5v-3h4v3Zm.57-2.12h2.9v-.49H109Zm0,.85h2.9v-.5H109Zm0,.85h2.9v-.5H109Zm2.5.51a11.29,11.29,0,0,1,1.59,1l-.59.33a10.61,10.61,0,0,0-1.59-1.11Z"/><path class="cls-2" d="M115.29,175.58h-1.63V175h1.63V173.3h.58V175h1.62v.54h-1.62v1.75h-.58Z"/><path class="cls-2" d="M119.42,176.63a6.09,6.09,0,0,1-.82,1.59c-.1-.07-.3-.22-.42-.29a4.21,4.21,0,0,0,.76-1.44Zm1-.56v2.78h-.59v-2.78h-1.59v-.51h1.59v-.84h-1.63v-.5h2.21a12.66,12.66,0,0,0,.43-1.27l.54.11c-.14.39-.29.82-.44,1.16h1v.5h-1.53v.84h1.44v.51Zm1.41-3.17h-3.5v-.49h1.57c-.11-.24-.24-.51-.35-.73l.57-.15a5.23,5.23,0,0,1,.45.88h1.26Zm-2.68,1.28a5.45,5.45,0,0,0-.3-1.11l.47-.11a3.84,3.84,0,0,1,.33,1.09Zm2,2.27a8.27,8.27,0,0,1,.68,1.25l-.43.24a9.1,9.1,0,0,0-.65-1.28Zm4.27-1.64h-.88v4H124v-4h-1.09v.28a6.84,6.84,0,0,1-.84,3.75,1.74,1.74,0,0,0-.45-.36,6.06,6.06,0,0,0,.73-3.39v-2.75a13,13,0,0,0,2.49-.63l.48.44a12.71,12.71,0,0,1-2.41.58v1.52h2.55Z"/><path class="cls-2" d="M133.44,176.43V177h-7.18v-.55h.64l-.12-4.25a14,14,0,0,0,1.36-.51l.28.52c-.33.12-.74.23-1.11.33l0,.94h.9v.5h-.89l0,1h.9v.5h-.88l0,1h1V172h2.76v4.45h1.06c0-.29,0-.62.05-1h-.9V175h.92c0-.32,0-.67,0-1h-.91v-.49h.92c0-.37,0-.73,0-1.07h-1v-.49H133c0,1.4-.07,3.29-.14,4.5Zm-4.39,1.06a12.31,12.31,0,0,1-2.38,1.37,3.25,3.25,0,0,0-.35-.45,8.52,8.52,0,0,0,2.22-1.28Zm-.13-1.06h1.85v-4h-1.85Zm1.59-3.42v.41h-1.37V173Zm-1.26.94h1.21v1.84h-1.21Zm.31,1.46h.58v-1.07h-.58Zm1.39,1.67a19.79,19.79,0,0,1,2.32,1.28l-.39.45a18.35,18.35,0,0,0-2.26-1.32Z"/><path class="cls-2" d="M138.43,171.75l-.18.26a8.93,8.93,0,0,0,3.4,2.39,2.07,2.07,0,0,0-.38.5,9.57,9.57,0,0,1-3.34-2.48,9.29,9.29,0,0,1-3.31,2.47,2.6,2.6,0,0,0-.41-.49,8.12,8.12,0,0,0,3.68-2.9Zm-.14,6.34h3.05v.55h-6.76v-.55h1v-3h.59v3h1.5v-4.35h.62v1.83h2.31v.54h-2.31Z"/><path class="cls-2" d="M145.22,177.59a7.36,7.36,0,0,1-2.45,1,2.54,2.54,0,0,0-.36-.45,6.82,6.82,0,0,0,2.36-.79Zm4.18-1.11v.5h-3.21v1.9h-.58V177h-3.16v-.5h3.16v-.6H143.2v-.46h2.41v-.57h-2.82v-.48h1.73a3.2,3.2,0,0,0-.41-.77l.42-.11h-2.06V173h1.29a6.19,6.19,0,0,0-.64-1.16l.5-.17a4.81,4.81,0,0,1,.68,1.17l-.4.16h1v-1.41h.56V173h.95v-1.41H147V173h1l-.33-.1a6.09,6.09,0,0,0,.62-1.22l.61.17c-.23.41-.49.85-.7,1.15h1.23v.5h-2.07l.52.14a8.36,8.36,0,0,1-.56.74h1.83v.48h-2.89v.57h2.5v.46h-2.5v.6Zm-4.71-3a3.22,3.22,0,0,1,.42.79l-.33.09H147l-.28-.09a5.87,5.87,0,0,0,.47-.79Zm2.37,3.85c.75.25,1.77.63,2.32.89l-.37.37c-.53-.25-1.54-.66-2.3-.94Z"/><path class="cls-2" d="M152.63,171.74a12.74,12.74,0,0,1-.77,1.63v5.44h-.58v-4.54a7.57,7.57,0,0,1-.82,1,3.38,3.38,0,0,0-.36-.54,8.9,8.9,0,0,0,2-3.14Zm2,6.07a6.59,6.59,0,0,1-1.92,1.1,3.19,3.19,0,0,0-.45-.45,5.68,5.68,0,0,0,1.8-.85Zm.07-5.38h-2V172h2v-.44h.6V172h2v.41h-2v.39h1.81v.4H155.3v.43h2.28v.43h-5.19v-.43h2.31v-.43h-1.76v-.4h1.76Zm-1.68,5v-3h4v3Zm.57-2.12h2.89v-.49h-2.89Zm0,.85h2.89v-.5h-2.89Zm0,.85h2.89v-.5h-2.89Zm2.5.51a11.29,11.29,0,0,1,1.59,1l-.6.33a10,10,0,0,0-1.58-1.11Z"/><path class="cls-2" d="M161.07,175.56l-1,.3v2.3c0,.34-.08.49-.29.6a2.72,2.72,0,0,1-1.05.1,2.57,2.57,0,0,0-.19-.55h.8c.11,0,.15,0,.15-.15v-2.11l-1.08.32-.18-.59,1.26-.34v-1.69h-1.14v-.57h1.14v-1.6h.58v1.6H161v.57h-.91v1.51c.31-.08.62-.17.92-.27Zm1.45-.86c-.79,0-1-.24-1-.93V171.6h.58v1h3.21v.52h-3.21v.7c0,.3.09.41.44.41h2.1a5.67,5.67,0,0,0,.87-.05c0,.16.05.38.08.52a5.67,5.67,0,0,1-.92,0Zm-1,.68h3.75v3.46h-.59v-.34h-2.59v.37h-.57Zm.57.51v.8h2.59v-.8Zm2.59,2.12v-.84h-2.59V178Z"/><path class="cls-2" d="M169.87,176.82a1.75,1.75,0,0,1-.69,1.06,7.74,7.74,0,0,1,.92.47l-.39.34a10.58,10.58,0,0,0-1-.52,7.73,7.73,0,0,1-2.24.69,1.67,1.67,0,0,0-.25-.4,8,8,0,0,0,1.93-.53,13,13,0,0,0-1.23-.44c.12-.16.27-.33.4-.52l-.94,0-.06-.44c.36,0,.81,0,1.3,0,.12-.22.25-.43.36-.64h-1.3v-1.3h1.51v-.33h-1.29v-.86h-.54v-.46h.54v-.81h1.29v-.56h.47v.56H170v.81h.54v.46H170v.86h-1.36v.33h1.55v1.3h-1.69a4.46,4.46,0,0,1-.33.6l1.21-.06v-.38h.49v.36l.4,0v.42Zm-2.66-1.33h1V175h-1Zm.22-3V173h.78v-.43Zm.78,1.31v-.48h-.78v.48Zm-.28,3.08-.25.36c.33.1.67.23,1,.36a1.51,1.51,0,0,0,.67-.8Zm.75-4.39V173h.83v-.43Zm.83,1.31v-.48h-.83v.48Zm-.83,1.15v.49h1V175Zm4.35-1.37a11.27,11.27,0,0,1-.73,3.06,3.93,3.93,0,0,0,1.35,1.67,1.82,1.82,0,0,0-.36.42,4,4,0,0,1-1.25-1.51,4.79,4.79,0,0,1-1.45,1.65,1.92,1.92,0,0,0-.33-.45,4.21,4.21,0,0,0,1.51-1.8,10.75,10.75,0,0,1-.59-2.11,5.54,5.54,0,0,1-.42.88,5,5,0,0,0-.41-.36,9.24,9.24,0,0,0,1-3.45l.51.08c-.07.47-.15.94-.26,1.39h1.95v.53Zm-1.54,0A13.31,13.31,0,0,0,172,176a11.07,11.07,0,0,0,.46-2.37Z"/><rect class="cls-4" x="87.29" y="171.57" width="6.69" height="6.69"/><path class="cls-2" d="M195.1,172.41v.51h-7v-.51h3.27c-.07-.23-.17-.51-.25-.73l.58-.13c.11.27.23.6.32.86Zm-.25,5.84c0,.28-.07.4-.29.48a3.54,3.54,0,0,1-1.06.08,1.58,1.58,0,0,0-.19-.44h.81c.1,0,.14,0,.14-.12V175.9H189v3h-.57V175.4h6.42Zm-.87-4.88V175h-4.63v-1.6Zm-.72,4.64h-2.81v.4h-.55v-2h3.36Zm.12-4.2h-3.45v.72h3.45Zm-2.93,3v.75h2.28v-.75Z"/><path class="cls-2" d="M198.23,171.7h.59v7.19h-.59v-2.22a7.9,7.9,0,0,0-1.84.78,2.48,2.48,0,0,0-.24-.55.57.57,0,0,0,.28-.53v-3.91H197v4l1.22-.41Zm4.42,2a9.11,9.11,0,0,1-1.06,3.15,4.68,4.68,0,0,0,1.73,1.53,1.91,1.91,0,0,0-.41.49,5.19,5.19,0,0,1-1.65-1.52,5.57,5.57,0,0,1-1.83,1.56,2.47,2.47,0,0,0-.39-.49,4.84,4.84,0,0,0,1.89-1.59,9.51,9.51,0,0,1-1-2.27,6.31,6.31,0,0,1-.63,1,4.78,4.78,0,0,0-.43-.5,7.28,7.28,0,0,0,1.33-3.49l.61.1c-.09.5-.21,1-.34,1.45h2.74v.56Zm-2.37.12a9.71,9.71,0,0,0,1,2.48,8.64,8.64,0,0,0,.81-2.6h-1.73Z"/><path class="cls-2" d="M211.25,178.09v.54H204v-.54h1v-2.48h5.2v2.48Zm-.16-4.43h-6.92v-.53h2.06a6.46,6.46,0,0,0-.8-1.32l.5-.22a6.34,6.34,0,0,1,.85,1.32l-.43.22h2.57l-.42-.16a9,9,0,0,0,.83-1.39l.59.18a12.06,12.06,0,0,1-.92,1.37h2.09Zm-4.27.64a11.58,11.58,0,0,1-2.25,1.41,2.6,2.6,0,0,0-.36-.46,9,9,0,0,0,2.2-1.23Zm-1.23,3.79h1v-2h-1Zm1.55-2v2h1v-2Zm3.64-.58a20.2,20.2,0,0,0-2.42-1.09l.29-.42a20.66,20.66,0,0,1,2.43,1Zm-2.09.58v2h1v-2Z"/><path class="cls-2" d="M214.3,171.74a11.58,11.58,0,0,1-.78,1.63v5.44H213v-4.54a8.46,8.46,0,0,1-.82,1,4.22,4.22,0,0,0-.36-.54,8.88,8.88,0,0,0,2-3.14Zm2,6.07a6.72,6.72,0,0,1-1.92,1.1,3.19,3.19,0,0,0-.45-.45,5.9,5.9,0,0,0,1.8-.85Zm.07-5.38h-2V172h2v-.44h.6V172h2v.41h-2v.39h1.81v.4H217v.43h2.28v.43h-5.19v-.43h2.31v-.43h-1.76v-.4h1.76Zm-1.69,5v-3h4v3Zm.58-2.12h2.89v-.49h-2.89Zm0,.85h2.89v-.5h-2.89Zm0,.85h2.89v-.5h-2.89Zm2.5.51a11.14,11.14,0,0,1,1.58,1l-.59.33a10.47,10.47,0,0,0-1.58-1.11Z"/><path class="cls-2" d="M222.74,175.56l-1,.3v2.3c0,.34-.08.49-.29.6a2.75,2.75,0,0,1-1.06.1,2.08,2.08,0,0,0-.18-.55H221c.11,0,.15,0,.15-.15v-2.11l-1.08.32-.17-.59,1.25-.34v-1.69H220v-.57h1.13v-1.6h.59v1.6h.9v.57h-.9v1.51l.92-.27Zm1.44-.86c-.78,0-1-.24-1-.93V171.6h.59v1H227v.52h-3.21v.7c0,.3.08.41.44.41h2.09a5.81,5.81,0,0,0,.88-.05c0,.16,0,.38.07.52a5.54,5.54,0,0,1-.92,0Zm-1,.68h3.74v3.46h-.58v-.34h-2.59v.37h-.57Zm.57.51v.8h2.59v-.8Zm2.59,2.12v-.84h-2.59V178Z"/><path class="cls-2" d="M231.54,176.82a1.8,1.8,0,0,1-.69,1.06,7.74,7.74,0,0,1,.92.47l-.39.34a9.69,9.69,0,0,0-1-.52,7.73,7.73,0,0,1-2.24.69,1.63,1.63,0,0,0-.24-.4,7.93,7.93,0,0,0,1.92-.53,12.09,12.09,0,0,0-1.23-.44c.13-.16.27-.33.41-.52l-.94,0-.06-.44c.36,0,.81,0,1.3,0l.36-.64h-1.31v-1.3h1.51v-.33h-1.28v-.86h-.54v-.46h.54v-.81h1.28v-.56h.48v.56h1.35v.81h.55v.46h-.55v.86h-1.35v.33h1.55v1.3h-1.69a6.08,6.08,0,0,1-.34.6l1.22-.06v-.38h.49v.36l.4,0v.42Zm-2.67-1.33h1V175h-1Zm.23-3V173h.77v-.43Zm.77,1.31v-.48h-.77v.48Zm-.28,3.08-.24.36c.32.1.67.23,1,.36a1.55,1.55,0,0,0,.67-.8Zm.76-4.39V173h.83v-.43Zm.83,1.31v-.48h-.83v.48Zm-.83,1.15v.49h1V175Zm4.34-1.37a11.67,11.67,0,0,1-.72,3.06,3.93,3.93,0,0,0,1.35,1.67,1.82,1.82,0,0,0-.36.42,4,4,0,0,1-1.26-1.51,4.76,4.76,0,0,1-1.44,1.65,1.92,1.92,0,0,0-.33-.45,4.12,4.12,0,0,0,1.5-1.8,10.76,10.76,0,0,1-.58-2.11,5.55,5.55,0,0,1-.43.88,3.61,3.61,0,0,0-.4-.36,9.43,9.43,0,0,0,1-3.45l.5.08c-.06.47-.15.94-.25,1.39h2v.53Zm-1.53,0a14.26,14.26,0,0,0,.53,2.37,11,11,0,0,0,.47-2.37Z"/><rect class="cls-5" x="177.62" y="171.57" width="6.69" height="6.69"/><path class="cls-2" d="M253.49,171.8a8.26,8.26,0,0,0,3.39,2.73,2.32,2.32,0,0,0-.44.5,9.69,9.69,0,0,1-3.27-2.66,12.3,12.3,0,0,1-3.33,2.76,2.16,2.16,0,0,0-.36-.51,10,10,0,0,0,3-2.26h-1.42v-.56Zm0,6.32h3.08v.54h-6.73v-.54h3v-1.34H250.6v-.53h2.24V175H251v-.54h4.44V175h-1.93v1.21h2.26v.53h-2.26Z"/><path class="cls-2" d="M260.16,177.23l-2.55.82-.13-.58,1-.3V175h-.89v-.56h.89v-1.74h-1v-.56H260v.56h-.92v1.74h.81V175h-.81v2l1-.31Zm4.54-3a17.92,17.92,0,0,1-1.39,1.72,4.54,4.54,0,0,0,1.63,1.89,1.49,1.49,0,0,0-.37.45,5,5,0,0,1-1.85-2.41v2.24c0,.36-.1.53-.31.63a3.15,3.15,0,0,1-1.22.13,2.26,2.26,0,0,0-.21-.58c.46,0,.87,0,1,0s.18,0,.18-.19v-1.88c-.66.66-1.34,1.32-1.88,1.83l-.37-.51c.54-.45,1.42-1.24,2.25-2v-2.08h-1.94V173h1.94v-1.38h.57V173h2.1v.55h-2.1v.29a9.36,9.36,0,0,0,.39,1.67,10.22,10.22,0,0,0,1.07-1.51Zm-3.91-.23a6.46,6.46,0,0,1,.87,1.48l-.49.23a7.1,7.1,0,0,0-.85-1.5Zm3.26-1.15a4.3,4.3,0,0,0-.95-.88l.35-.31a5.42,5.42,0,0,1,1,.83Z"/><path class="cls-2" d="M268.27,178.12c0,.31-.06.48-.25.58a2.38,2.38,0,0,1-1,.11,3.23,3.23,0,0,0-.17-.56h.74c.1,0,.14,0,.14-.15v-2.17c-.34.2-.67.39-1,.58l-.22-.48a8.08,8.08,0,0,1-.6,2.84,1.89,1.89,0,0,0-.48-.28,9.58,9.58,0,0,0,.58-3.88v-2.86h2.21Zm-1.68-3.41c0,.38,0,.8,0,1.24.32-.13.74-.32,1.18-.54v-.91l-.31.25a6.73,6.73,0,0,0-.84-.95Zm0-2.3v1.24l.28-.21a9,9,0,0,1,.87.9v-1.93Zm6,2.8a5.14,5.14,0,0,1-1.47,2.34,5.06,5.06,0,0,0,1.76.8,2.44,2.44,0,0,0-.39.52,5.47,5.47,0,0,1-1.83-.94,6.85,6.85,0,0,1-1.9.93,2.43,2.43,0,0,0-.32-.51,5.8,5.8,0,0,0,1.79-.82,5.33,5.33,0,0,1-1.2-1.85l.11,0h-.41v-.56h3.38l.09,0ZM270,172.76a2.31,2.31,0,0,1-1.19,2.12,2.16,2.16,0,0,0-.38-.42,1.8,1.8,0,0,0,1-1.71v-.88h2.43v1.87c0,.21,0,.28.12.28h.44a1.32,1.32,0,0,0,.34,0c0,.16,0,.36,0,.5a1.48,1.48,0,0,1-.38,0H272c-.53,0-.64-.22-.64-.8v-1.29H270Zm-.47,2.88a4.76,4.76,0,0,0,1.08,1.55,4.31,4.31,0,0,0,1.14-1.55Z"/><path class="cls-2" d="M275.91,177.25a6.44,6.44,0,0,1-1.9,1.46,3.51,3.51,0,0,0-.45-.39,5.1,5.1,0,0,0,1.8-1.26Zm4.83-.88v.49h-3.27v2h-.59v-2h-3.25v-.49Zm-4.78-4h-2.24v-.49h6.87v.49h-2.25V173h1.86v1.82h-6V173H276Zm-1.36,3.44v-.47h5.18v.47Zm.15-1.45H276v-.92h-1.21Zm3-2h-1.26V173h1.26Zm-1.26,2h1.26v-.92h-1.26Zm1.83-.92v.92h1.28v-.92Zm.42,3.64a14.52,14.52,0,0,1,1.94,1.24l-.46.35a13.87,13.87,0,0,0-1.9-1.28Z"/><path class="cls-2" d="M284.28,175.56l-1,.3v2.3c0,.34-.08.49-.29.6a2.69,2.69,0,0,1-1.05.1,2.57,2.57,0,0,0-.19-.55h.8c.11,0,.15,0,.15-.15v-2.11l-1.08.32-.18-.59,1.26-.34v-1.69h-1.14v-.57h1.14v-1.6h.58v1.6h.91v.57h-.91v1.51c.31-.08.62-.17.92-.27Zm1.45-.86c-.78,0-1-.24-1-.93V171.6h.58v1h3.21v.52h-3.21v.7c0,.3.09.41.44.41h2.1a5.89,5.89,0,0,0,.88-.05c0,.16,0,.38.07.52a5.54,5.54,0,0,1-.92,0Zm-1,.68h3.74v3.46h-.59v-.34h-2.59v.37h-.56Zm.56.51v.8h2.59v-.8Zm2.59,2.12v-.84h-2.59V178Z"/><path class="cls-2" d="M293.08,176.82a1.75,1.75,0,0,1-.69,1.06,7.74,7.74,0,0,1,.92.47l-.39.34a10.58,10.58,0,0,0-1-.52,7.73,7.73,0,0,1-2.24.69,1.67,1.67,0,0,0-.25-.4,8,8,0,0,0,1.93-.53,13,13,0,0,0-1.23-.44c.12-.16.27-.33.41-.52l-.95,0-.05-.44c.35,0,.8,0,1.29,0,.12-.22.25-.43.36-.64h-1.3v-1.3h1.51v-.33h-1.29v-.86h-.54v-.46h.54v-.81h1.29v-.56h.47v.56h1.36v.81h.54v.46h-.54v.86h-1.36v.33h1.55v1.3h-1.69a4.46,4.46,0,0,1-.33.6l1.21-.06v-.38h.49v.36l.4,0v.42Zm-2.66-1.33h1V175h-1Zm.22-3V173h.78v-.43Zm.78,1.31v-.48h-.78v.48Zm-.28,3.08-.25.36c.33.1.67.23,1,.36a1.51,1.51,0,0,0,.67-.8Zm.75-4.39V173h.83v-.43Zm.83,1.31v-.48h-.83v.48Zm-.83,1.15v.49h1V175Zm4.35-1.37a11.27,11.27,0,0,1-.73,3.06,4,4,0,0,0,1.35,1.67,1.82,1.82,0,0,0-.36.42,4,4,0,0,1-1.25-1.51,4.79,4.79,0,0,1-1.45,1.65,1.92,1.92,0,0,0-.33-.45,4.21,4.21,0,0,0,1.51-1.8,10.75,10.75,0,0,1-.59-2.11,5.54,5.54,0,0,1-.42.88,5,5,0,0,0-.41-.36,9.24,9.24,0,0,0,1-3.45l.51.08c-.07.47-.15.94-.26,1.39h1.95v.53Zm-1.54,0a13.31,13.31,0,0,0,.54,2.37,11.07,11.07,0,0,0,.46-2.37Z"/><rect class="cls-6" x="239.16" y="171.57" width="6.69" height="6.69"/><line class="cls-7" x1="21.76" y1="145.05" x2="293.31" y2="145.05"/><line class="cls-7" x1="21.76" y1="128.15" x2="293.31" y2="128.15"/><line class="cls-7" x1="21.76" y1="111.24" x2="293.31" y2="111.24"/><line class="cls-7" x1="21.76" y1="94.33" x2="293.31" y2="94.33"/><line class="cls-7" x1="21.76" y1="77.42" x2="293.31" y2="77.42"/><line class="cls-7" x1="21.76" y1="60.51" x2="293.31" y2="60.51"/><line class="cls-7" x1="21.76" y1="161.96" x2="293.31" y2="161.96"/><polygon class="cls-8" points="61.31 124.79 89.44 124.79 89.44 161.71 61.31 161.71 61.31 124.79 61.31 124.79"/><polygon class="cls-8" points="115.49 133.75 143.62 133.75 143.62 161.71 115.49 161.71 115.49 133.75 115.49 133.75"/><polygon class="cls-9" points="115.36 104.07 143.5 104.07 143.5 133.75 115.36 133.75 115.36 104.07 115.36 104.07"/><polygon class="cls-8" points="169.66 141.54 197.86 141.54 197.86 161.96 169.66 161.96 169.66 141.54 169.66 141.54"/><polygon class="cls-9" points="169.66 107.09 197.86 107.09 197.86 141.69 169.66 141.69 169.66 107.09 169.66 107.09"/><polygon class="cls-10" points="169.72 98.29 197.92 98.29 197.92 107.49 169.72 107.49 169.72 98.29 169.72 98.29"/><polygon class="cls-8" points="223.72 144.66 251.91 144.66 251.91 161.81 223.72 161.81 223.72 144.66 223.72 144.66"/><polygon class="cls-9" points="223.72 109.4 251.85 109.4 251.85 144.56 223.72 144.56 223.72 109.4 223.72 109.4"/><polygon class="cls-10" points="223.78 100.2 251.91 100.2 251.91 109.4 223.78 109.4 223.78 100.2 223.78 100.2"/><polygon class="cls-11" points="223.78 75.35 251.91 75.35 251.91 100.3 223.78 100.3 223.78 75.35 223.78 75.35"/><polygon class="cls-12" points="223.78 75.35 237.84 75.35 251.91 75.35 251.91 40.86 251.91 1.08 223.78 1.08 223.78 40.86 223.78 75.35 223.78 75.35 223.78 75.35"/><path class="cls-13" d="M247.91,1.08h-2v1h2v-1Zm-4,0h-2v1h2v-1Zm-4,0h-2v1h2v-1Zm-4,0h-2v1h2v-1Zm-4,0h-2v1h2v-1Zm-4,0h-2v1h2v-1Zm-3.13,0h-1v1h0V3h1V1.08Zm0,3.87h-1V7h1V5Zm0,4h-1v2h1V9Zm0,4h-1v2h1V13Zm0,4h-1v2h1V17Zm0,4h-1v2h1V21Zm0,4h-1v2h1V25Zm0,4h-1v2h1V29Zm0,4h-1v2h1V33Zm0,4h-1v2h1V37Zm0,4h-1v2h1V41Zm0,4h-1v2h1V45Zm0,4h-1v2h1V49Zm0,4h-1v2h1V53Zm0,4h-1v2h1V57Zm0,4h-1v2h1V61Zm0,4h-1v2h1V65Zm0,4h-1v2h1V69Zm0,4h-1v2h1V73Zm2.6,1.4h-2v1h2v-1Zm4,0h-2v1h2v-1Zm4,0h-2v1h2v-1Zm4,0h-2v1h2v-1Zm4,0h-2v1h2v-1Zm4,0h-2v1h2v-1Zm4,0h-2v1h2v-1Zm.53-2.47h-1v2h1v-2Zm0-4h-1v2h1v-2Zm0-4h-1v2h1v-2Zm0-4h-1v2h1v-2Zm0-4h-1v2h1v-2Zm0-4h-1v2h1v-2Zm0-4h-1v2h1v-2Zm0-4h-1v2h1v-2Zm0-4h-1v2h1v-2Zm0-4h-1v2h1v-2Zm0-4h-1v2h1v-2Zm0-4h-1v2h1v-2Zm0-4h-1v2h1v-2Zm0-4h-1v2h1v-2Zm0-4h-1v2h1v-2Zm0-4h-1v2h1v-2Zm0-4h-1v2h1v-2Zm0-4h-1v2h1v-2Zm0-2.8h-2v1h2v-1Z"/><path class="cls-13" d="M234.18,11.26a9.83,9.83,0,0,0-1.75-1.18l.5-.55a9.45,9.45,0,0,1,1.77,1.11Zm-1.51,4.63a31,31,0,0,0,1.51-3.49l.66.44c-.41,1.13-1,2.48-1.44,3.48Zm1.83-7.51a10.63,10.63,0,0,0-1.65-1.28l.52-.53A9.74,9.74,0,0,1,235,7.77Zm2.73,1.29a4.6,4.6,0,0,1-1.94,2.24,2.18,2.18,0,0,0-.44-.47,3.77,3.77,0,0,0,1.75-1.87h-1.36c.11-.56.19-1.42.25-2.12h-.29V6.84h3.26v.61h-.94V8a5.53,5.53,0,0,1-.08,1h1.15v.65h-.79V10.8l.85-.38a3.3,3.3,0,0,0,.18.51,6.9,6.9,0,0,0-1.66.94,1.59,1.59,0,0,0-.33-.47,1.07,1.07,0,0,0,.39-.86Zm-1.41,2.4h5.87v4.35h-.8V16h-4.31v.49h-.76Zm1-3.15a5.39,5.39,0,0,0,.07-1V7.45h-.75c-.05.47-.13,1-.19,1.47Zm-.21,3.81v.94h4.31v-.94Zm4.31,2.58v-1h-4.31v1Zm.89-4.18c.18,0,.21-.05.23-.85a1.85,1.85,0,0,0,.53.24c0,1-.22,1.18-.66,1.18h-.63c-.56,0-.7-.15-.7-.76V10.3A4.53,4.53,0,0,1,239,11.92a1.88,1.88,0,0,0-.44-.45,3.47,3.47,0,0,0,1.62-1.88h-1.39c.1-.57.2-1.43.27-2.14h-.28V6.84h3.48v.61h-1.22V8.1a5.27,5.27,0,0,1-.07.84h1.37v.65h-1.51c0,.11-.08.23-.12.33h.41v1c0,.18,0,.19.18.19Zm-1.43-2.19a5.41,5.41,0,0,0,.06-.86V7.45h-.74c-.06.48-.13,1-.2,1.49Z"/><path class="cls-13" d="M241.91,19.55s0,.3,0,.43c-.24,4.51-.47,6.14-1,6.7a1.2,1.2,0,0,1-.93.43,12,12,0,0,1-1.76,0,1.71,1.71,0,0,0-.28-.83c.75.06,1.46.07,1.73.07a.64.64,0,0,0,.51-.16c.39-.38.64-1.93.84-5.8h-3.75a8.09,8.09,0,0,1-4.07,6.89,3,3,0,0,0-.62-.65,7.42,7.42,0,0,0,3.85-6.24h-3.52v-.81h3.56V17.17h.85v2.38Z"/><path class="cls-13" d="M242.35,36.76v.81h-9.72v-.81H237V34.07h-3.39v-.8H237v-2.4h-3.9v-.81H238a12.5,12.5,0,0,0-1.87-1.68l.66-.46a12,12,0,0,1,2,1.77l-.52.37h3.55v.81h-3.9v2.4h3.45v.8H237.9v2.69Z"/><path class="cls-13" d="M235.41,47.31a8.52,8.52,0,0,0,3.31.45h3.84a2.31,2.31,0,0,0-.29.71H238.7c-2.33,0-4-.27-5-1.73a4.47,4.47,0,0,1-.85,2,1.87,1.87,0,0,0-.5-.51,6.44,6.44,0,0,0,.9-3.65H234c0,.43,0,.86-.09,1.26a3,3,0,0,0,.83,1.07V43.94h-2.18v-.63h5v.63h-2.07v1.17h1.89v.64h-1.89Zm1.4-4.81h-3.65V39.07h3.65Zm-.76-2.82h-2.16v.81h2.16Zm0,1.38h-2.16v.84h2.16Zm3.32,4.79a6.71,6.71,0,0,1-2,1.64,3.29,3.29,0,0,0-.52-.54,5.78,5.78,0,0,0,1.83-1.32Zm-.2-5.24c.09-.26.17-.55.25-.82h-2v-.63h5v.63h-2.2c-.1.28-.21.57-.31.82h2v4.83h-4.13V40.61Zm2,.61h-2.62V42h2.62Zm0,1.38h-2.62v.83h2.62Zm0,1.41h-2.62v.83h2.62Zm-.38,1.57A9.11,9.11,0,0,1,242.51,47l-.57.42a8.58,8.58,0,0,0-1.72-1.49Z"/><path class="cls-13" d="M235,55.2a12.44,12.44,0,0,0-.58-1.28v5.45h-.71V54.13a12,12,0,0,1-1,2.88,5.12,5.12,0,0,0-.35-.79,13.86,13.86,0,0,0,1.32-4h-1.1v-.77h1.17V49.32h.71v2.12h.87v.77h-.87v.71c.24.39.84,1.41,1,1.67Zm6.74.81a6.08,6.08,0,0,1-1.36,1.76,1.55,1.55,0,0,0,1.15.79c.23,0,.37-.39.46-1.18a2.25,2.25,0,0,0,.55.41c-.21,1.2-.55,1.61-1,1.58a2.25,2.25,0,0,1-1.74-1.12,9.11,9.11,0,0,1-1.92,1.06,2.92,2.92,0,0,0-.44-.51,8.06,8.06,0,0,0,2-1.15,10.61,10.61,0,0,1-.63-2h-1.8v.16a2.35,2.35,0,0,1,0,.26,14.43,14.43,0,0,1,1.52,1.31l-.51.49c-.25-.26-.68-.67-1.11-1a4.24,4.24,0,0,1-1.62,2.56,2.28,2.28,0,0,0-.53-.5,3.69,3.69,0,0,0,1.56-3.1v-.15h-.84V55h3.21a44.2,44.2,0,0,1-.47-5.57H239a36.47,36.47,0,0,0,.48,5.57H241a8.21,8.21,0,0,0-1-.71l.42-.38a7.92,7.92,0,0,1,1.15.79l-.29.3h.91v.66h-2.65a9.7,9.7,0,0,0,.47,1.51,5.18,5.18,0,0,0,1-1.39Zm-3.9-1.65c0-.13-.07-.28-.12-.46a9.64,9.64,0,0,0-2,.37,3.42,3.42,0,0,0-.18-.61c.15,0,.34-.22.56-.5a11.87,11.87,0,0,0,.7-1,5.06,5.06,0,0,0-1.18.23,4,4,0,0,0-.18-.6c.13,0,.26-.18.4-.41a9,9,0,0,0,.93-1.89l.61.2a10.47,10.47,0,0,1-1.1,2l.87-.09c.13-.24.27-.48.38-.74l.59.23a14.87,14.87,0,0,1-1.65,2.44l1.07-.15c-.08-.24-.17-.47-.26-.69l.52-.14a10.22,10.22,0,0,1,.56,1.63Zm4-.18c0-.14-.08-.31-.15-.5a10,10,0,0,0-2,.38,5.32,5.32,0,0,0-.22-.63c.18,0,.34-.22.55-.49a9,9,0,0,0,.66-1,4.36,4.36,0,0,0-1.11.22,3.7,3.7,0,0,0-.21-.61c.13,0,.25-.16.39-.37a8.24,8.24,0,0,0,.79-1.72l.61.18a11,11,0,0,1-.95,1.81l.8-.09a7.69,7.69,0,0,0,.38-.76l.63.23a15.69,15.69,0,0,1-1.6,2.47l1.1-.16-.27-.66.5-.14a12.1,12.1,0,0,1,.61,1.63Z"/><path class="cls-13" d="M238.12,60.28l-.16.21a10.86,10.86,0,0,0,4.65,2.29,3.11,3.11,0,0,0-.52.62,12.67,12.67,0,0,1-2.7-1.1v.34h-3.8v-.29a15.53,15.53,0,0,1-2.7,1.12,7.09,7.09,0,0,0-.46-.63,9.5,9.5,0,0,0,5-2.82Zm-4.33,2.9h7.35V66h-7.35Zm.64,3.29h6.19v3.58h-.83v-.33h-4.55v.36h-.81Zm.07-1.08h2.6V63.76h-2.6Zm1.24-1.51a4.29,4.29,0,0,1,.66,1.24l-.62.23a5,5,0,0,0-.62-1.29Zm-.5,3.18v.74h4.55v-.74Zm4.55,2.08v-.75h-4.55v.75ZM239,62.05a9.14,9.14,0,0,1-1.46-1.1,7.79,7.79,0,0,1-1.42,1.1Zm1.44,1.71h-2.62v1.63h2.62Zm-1.92,1.39a8.72,8.72,0,0,0,.61-1.32l.69.22a11.29,11.29,0,0,1-.75,1.3Z"/><polygon class="cls-14" points="61.57 70.96 190.56 71.15 190.54 66.03 212.39 77.48 190.65 91.93 190.62 85.99 61.55 85.8 61.57 70.96"/><polygon class="cls-13" points="209.61 77.63 191.97 68.38 191.98 72.57 62.99 72.38 62.97 84.38 192.03 84.57 192.06 89.29 209.61 77.63"/><path class="cls-15" d="M92.59,78.51a11.31,11.31,0,0,1-.94,2.72c.13.09.28.2.47.31A5.48,5.48,0,0,0,94.9,82a36.08,36.08,0,0,0,4-.27A4.65,4.65,0,0,0,98.61,83c-.84.05-2.58.12-3.75.13A5.49,5.49,0,0,1,92,82.56c-.42-.23-.77-.56-1-.56s-.56.69-.79,1.26l-.79-1.14a3.9,3.9,0,0,1,1.22-1.06,9.57,9.57,0,0,0,.61-1.69H89.92c.23-.56.5-1.35.73-2.1H89.59V76.21h2.46c-.21.68-.47,1.46-.7,2.14h.57l.17,0ZM90.7,76c-.13-.45-.37-1.15-.55-1.67L91.24,74l.58,1.61ZM93,74.85h1.59a9.2,9.2,0,0,0,.23-1l1.41.17c-.11.29-.24.56-.36.82h1.93v2.81H94.18v.61h4v3.08H93Zm1.15,1v.87h2.5v-.88Zm0,3.42v1.14h2.88V79.23Z"/><path class="cls-15" d="M108.54,77.51a22.76,22.76,0,0,1-1.89,1.91,7.31,7.31,0,0,0,2.47,1.81,5.07,5.07,0,0,0-.88,1.07A8,8,0,0,1,105,79v2.74c0,.71-.13,1-.55,1.23a4.7,4.7,0,0,1-2,.25,4.89,4.89,0,0,0-.4-1.25c.6,0,1.23,0,1.43,0s.26-.06.26-.25V80.17c-1.14.74-2.32,1.48-3.29,2.06l-.76-1.08c1-.49,2.57-1.38,4.05-2.23V76.51H100V75.37h3.76V73.87H105v1.49h2a15.21,15.21,0,0,0-1.35-.78l.71-.75a12.31,12.31,0,0,1,1.85,1l-.44.49h1.09V76.5H105v.12a9.59,9.59,0,0,0,1,1.92,14.1,14.1,0,0,0,1.5-1.77Zm-6.61,1.9a8.59,8.59,0,0,0-1.59-1.89l.91-.64a9.4,9.4,0,0,1,1.65,1.81Z"/><path class="cls-15" d="M118.48,76.54h-1.54l.66.16c-.1.12-.19.24-.29.35h1.17v2.69l-6.26,0V77.08h1.24c-.08-.12-.16-.24-.25-.35l.51-.17H112v.6c0,1.73-.15,4.31-1.18,6a4.61,4.61,0,0,0-1.06-.62c1-1.51,1-3.76,1-5.34v-3l7.67,0Zm-1.19-1.43H112v.54l5.28,0Zm-4.64,5h5.5v3.09H117v-.29h-3.14v.29h-1.15Zm.67-1h1.46v-1.4h-1.46Zm.79-1.35a3.73,3.73,0,0,1,.58.91l-.73.41a3.68,3.68,0,0,0-.56-1Zm-.3,3v.36H117v-.36ZM117,82.14v-.38h-3.14v.38Zm-.76-5.07c.11-.17.24-.36.33-.52h-2.28a3,3,0,0,1,.33.52Zm1.15.63h-1.47v1.4h1.47Zm-1.46,1a5.68,5.68,0,0,0,.63-1l.74.39a11.5,11.5,0,0,1-.7.94Z"/><path class="cls-15" d="M128.36,76.52h-1.54l.66.17-.3.35h1.18v2.69h-6.25V77.05h1.24c-.08-.12-.16-.24-.25-.35l.51-.17h-1.72v.6c0,1.73-.15,4.31-1.17,6a4.14,4.14,0,0,0-1.07-.61c1-1.52,1-3.76,1-5.34v-3l7.67,0Zm-1.2-1.44-5.28,0v.53h5.28Zm-4.63,5H128v3.08h-1.21v-.29h-3.14v.28h-1.15Zm.66-1h1.46v-1.4h-1.46Zm.79-1.35a3.73,3.73,0,0,1,.58.91l-.73.41a3.68,3.68,0,0,0-.56-1Zm-.3,3v.36h3.14v-.36Zm3.14,1.35v-.38h-3.14v.38ZM126.06,77c.11-.17.24-.36.33-.52h-2.28a3,3,0,0,1,.33.52Zm1.15.64h-1.47v1.4h1.47Zm-1.46,1a5.68,5.68,0,0,0,.63-1l.74.4a9.71,9.71,0,0,1-.7.93Z"/><path class="cls-15" d="M138.34,76.74a11.31,11.31,0,0,1-1.23,3.76A5.86,5.86,0,0,0,139,82.09a4.11,4.11,0,0,0-.81,1,6.5,6.5,0,0,1-1.79-1.56,6.63,6.63,0,0,1-2,1.64,5.29,5.29,0,0,0-.77-1,5.58,5.58,0,0,0,2.08-1.68,10.06,10.06,0,0,1-1-2.18,6.64,6.64,0,0,1-.52.72,6,6,0,0,0-.72-.93v5h-1.18V80.56a7.54,7.54,0,0,0-2.14.92,4.51,4.51,0,0,0-.46-1.09.74.74,0,0,0,.37-.71l0-4.82h1.17l0,4.88,1-.32V73.94h1.18v3.94A8.91,8.91,0,0,0,135,73.77l1.21.2c-.1.56-.21,1.12-.35,1.65h3.05v1.13Zm-2.8,0-.1.27a10.63,10.63,0,0,0,.95,2.4,9.11,9.11,0,0,0,.77-2.67Z"/><path class="cls-15" d="M149.13,81.71v1.05l-9.12,0V81.74h1.15V78.92l-.4.18a4.54,4.54,0,0,0-.68-1A11.86,11.86,0,0,0,143,76.77l.83.59a19,19,0,0,1-2.5,1.48l6.68,0v2.9Zm-.15-5-8.85,0v-1h2.36a11.69,11.69,0,0,0-.89-1.44l1-.45a7.33,7.33,0,0,1,1,1.6l-.54.28H146l-.55-.19a10.61,10.61,0,0,0,.92-1.69l1.21.35c-.34.55-.71,1.11-1,1.52H149Zm-6.77,5.06H143v-1.9h-.82Zm1.91-1.9v1.9H145v-1.9ZM146,76.76A26,26,0,0,1,149.08,78l-.66.94a26.81,26.81,0,0,0-3.07-1.36Zm.08,3.06v1.9h.85v-1.9Z"/><path class="cls-15" d="M154.91,75.48s0,.4,0,.55c-.14,4.23-.28,5.79-.63,6.26a1.05,1.05,0,0,1-.77.53,6.3,6.3,0,0,1-1.14.06,3.24,3.24,0,0,0-.34-1.23c.35,0,.67,0,.85,0a.39.39,0,0,0,.35-.2c.22-.29.36-1.52.48-4.83h-1c-.12,2.52-.48,4.82-1.67,6.41a3.19,3.19,0,0,0-.94-.85c1.06-1.36,1.35-3.36,1.43-5.56h-1.17V75.51h1.2c0-.57,0-1.16,0-1.74h1.2c0,.58,0,1.17,0,1.74Zm4.22-.63,0,7.92h-1.24v-.62h-1.34v.69h-1.19l0-8ZM157.9,81V76h-1.34v5Z"/><path class="cls-15" d="M163.46,74.1a15.83,15.83,0,0,1-1,2.18l0,6.75h-1.1l0-5c-.18.23-.36.46-.54.67a7.63,7.63,0,0,0-.63-1.24,10.57,10.57,0,0,0,2.15-3.74Zm6.21,7.73v1l-6.73,0v-1h.86V76.31h1.73c0-.21.08-.44.12-.68h-2.27v-1h2.41c0-.32.06-.61.08-.89l1.26,0c0,.28-.1.56-.15.85h2.46v1h-2.66c-.06.25-.11.47-.17.68h2.31v5.54Zm-4.83-4.65v.55h3v-.55Zm3,1.36h-3v.55h3Zm-3,1.36v.57h3v-.57Zm0,1.95h3v-.56h-3Z"/></svg>