<svg id="圖層_1" data-name="圖層 1" xmlns="http://www.w3.org/2000/svg" viewBox="0 0 527.12 249.19"><defs><style>.cls-1{fill:#002f7b;}.cls-2{fill:none;stroke:#9fa0a0;stroke-miterlimit:10;stroke-width:0.64px;}.cls-3{fill:#fff;}.cls-4{fill:#4c4948;}</style></defs><path class="cls-1" d="M27.32,36.86l-.5.74a6.24,6.24,0,0,1-1.54-.89v.59h-2v.8h3.59v.79h-8V38.1h3.51v-.8H20.42v-.6a6.14,6.14,0,0,1-1.55.91l-.49-.76a4.39,4.39,0,0,0,2-1.23H18.48v-.79H20.1v-3H18.69V31H20.1v-.66H21V31h3.64v-.66h.9V31H27v.79H25.52v3h1.64v.79H25.32A5.65,5.65,0,0,0,27.32,36.86ZM25,36.51a6.44,6.44,0,0,1-.88-.89H21.41a3.75,3.75,0,0,1-.76.89h1.71v-.64h.91v.64Zm-.39-4.19V31.8H21v.52Zm0,1.24V33H21v.55Zm0,1.27v-.58H21v.58Z"/><path class="cls-1" d="M37.27,33.2l-.43.78a14.79,14.79,0,0,1-1.5-.74v.56H33.29v1h3.37v.86H33.29V38H36.9v.85H28.81V38h3.57V35.64H29.07v-.86h3.31v-1H30.3v-.53A13.93,13.93,0,0,1,29,34l-.56-.76a10.5,10.5,0,0,0,4.25-2.93l.9.26a.5.5,0,0,1-.13.19A10.92,10.92,0,0,0,37.27,33.2Zm-5.59,4.31-.84.29a9.91,9.91,0,0,0-1.12-1.56l.85-.35A8.25,8.25,0,0,1,31.68,37.51ZM34.86,33a10.39,10.39,0,0,1-2-1.55,11.41,11.41,0,0,1-2,1.55ZM36,36.2a8.33,8.33,0,0,1-1.08,1.58L34,37.4a7.08,7.08,0,0,0,1.09-1.51Z"/><path class="cls-1" d="M40,33.49a6.83,6.83,0,0,1-.91,1.63l-.72-.45a6.4,6.4,0,0,0,.89-1.47Zm2.79,3.13H41a.54.54,0,0,1,0,.19,8.8,8.8,0,0,1,1.62,1.12l-.55.69a7.76,7.76,0,0,0-1.35-1,3.66,3.66,0,0,1-1.78,1.52l-.48-.71a2.51,2.51,0,0,0,1.72-1.77H38.47v-.75h1.74c0-.16,0-.41,0-.75h.83l0,.75h1.75Zm0-3.64H41.14v1.85h-.87V33H38.5v-.76h1.77v-1.9h.87v1.9h1.71ZM40,31.74l-.78.3a5.64,5.64,0,0,0-.56-1.23l.76-.31A5.33,5.33,0,0,1,40,31.74Zm2.41,3.55-.54.48a4.8,4.8,0,0,0-.63-.48l.54-.44A3.44,3.44,0,0,1,42.43,35.29Zm.28-4.5a5,5,0,0,1-.55,1.27l-.77-.32a6.82,6.82,0,0,0,.54-1.19Zm.22,3.72-.7.42a6.24,6.24,0,0,0-.81-1.31l.73-.35A4.67,4.67,0,0,1,42.93,34.51Zm4.28-3.16H45.54a7.16,7.16,0,0,1-.25.85h1.64v5.09H44.32l.52.42a7.15,7.15,0,0,1-1.67,1.45l-.58-.68a6.2,6.2,0,0,0,1.47-1.19h-.85V32.2h1.13a5.2,5.2,0,0,0,.26-.85H42.9v-.82h4.31ZM46.06,33.6V33h-2v.62Zm0,1.41v-.68h-2V35Zm0,1.51v-.75h-2v.75Zm1.18,2-.56.66a10.34,10.34,0,0,0-1.5-1.08l.53-.65A8.27,8.27,0,0,1,47.24,38.5Z"/><path class="cls-1" d="M57.2,38.86H48.5v-.79h3.89v-.94H49.11v-.8h3.28v-.69h.91v.69h3.31v.8H53.3v.94h3.9Zm-3.39-5.47H52.63v2h-.86v-2h-1.1a3.63,3.63,0,0,1-1.29,2.39l-.61-.62a2.89,2.89,0,0,0,1.06-1.77H48.58v-.78H49.9v-1.3H48.73V30.5h5v.81h-1v1.3h1.18Zm-2-.78v-1.3h-1v1.3Zm3.32,1.59h-.87V30.82h.87Zm1.79.68a.73.73,0,0,1-.26.6,1.06,1.06,0,0,1-.71.23H54.63l-.26-.82c.23,0,.47,0,.71,0a2.75,2.75,0,0,0,.84-.07c.08,0,.11-.12.11-.24V30.39h.85Z"/><path class="cls-1" d="M27.16,52.37h-.92v6.76a.9.9,0,0,1-.23.67.88.88,0,0,1-.55.25c-.21,0-.86,0-2,0l-.3-.94c.44,0,.86,0,1.25,0h.67a.41.41,0,0,0,.14-.1.3.3,0,0,0,.06-.18V52.37H18.47v-.89h8.69Zm-3.34,5.55H19.41V53.67h4.41Zm-.91-.87V54.54H20.32v2.51Z"/><path class="cls-1" d="M31.75,53.77H30.66v1.69a7.61,7.61,0,0,0,.92-.36l.1.89c-.36.16-.7.29-1,.4v2.75a.9.9,0,0,1-.15.55.67.67,0,0,1-.36.27,2.56,2.56,0,0,1-.67.07l-.62,0-.3-.86h1.07c.12,0,.17,0,.17-.16V56.72q-.75.24-1.14.33l-.25-.85c.59-.15,1.05-.29,1.39-.41v-2H28.48v-.85H29.8v-1.6h.86v1.6h1.09Zm5.55,5.51-.41.76a8.12,8.12,0,0,1-2.46-1.12,8.87,8.87,0,0,1-2.67,1.13l-.52-.78a6.76,6.76,0,0,0,2.45-.92,4.74,4.74,0,0,1-1.29-2.06h-.35v-.83h4.53v.75a6.42,6.42,0,0,1-1.46,2.12A8.17,8.17,0,0,0,37.3,59.28Zm-.12-4.37H36c-.53,0-.8-.28-.8-.85V52.28H33.61A2.74,2.74,0,0,1,32.24,55l-.64-.64a2.11,2.11,0,0,0,.88-.76,2.23,2.23,0,0,0,.25-1.15v-1H36v2.47a.12.12,0,0,0,.13.13h1Zm-1.62,1.38H33.32a3.19,3.19,0,0,0,1.1,1.53A5.76,5.76,0,0,0,35.56,56.29Z"/><path class="cls-1" d="M47.26,54.38l-.42.8a5.37,5.37,0,0,1-.87-.25v3.76H41.75l.43.5a12.72,12.72,0,0,1-3.33,1l-.43-.8a11.35,11.35,0,0,0,2.73-.66H39.68V54.91h1.89l-.38-.55a4.54,4.54,0,0,0,2.61-1.55l.91.2a1.61,1.61,0,0,1-.22.33A8,8,0,0,0,47.26,54.38Zm-5.85-.28H38.5v-.82h2.91Zm-.09-1.59H38.63v-.8h2.69ZM45.07,56v-.35H40.61V56Zm0,1v-.37H40.61V57Zm0,1v-.39H40.61V58Zm2-5.41a11,11,0,0,1-.87,1.12l-.76-.45c.09-.09.27-.32.54-.67H42.84a7.28,7.28,0,0,1-.88.88l-.68-.58a5.79,5.79,0,0,0,1.49-1.7l.82.28a.87.87,0,0,1-.19.35h3.68Zm-1.21,2.29a7.36,7.36,0,0,1-1.95-1,5.2,5.2,0,0,1-1.63,1Zm1.33,4.51-.48.77a15.75,15.75,0,0,0-2.93-.61l.46-.75A12.85,12.85,0,0,1,47.2,59.42Z"/><path class="cls-1" d="M51.48,55.53l-.58.57a8.72,8.72,0,0,0-.46-.84v4.79h-.88v-4.3a6.38,6.38,0,0,1-.74,1.74l-.48-.88a8.87,8.87,0,0,0,1.12-2.75h-1V53h1.11V51.32h.88V53h.9v.87h-.9V54A12.57,12.57,0,0,1,51.48,55.53Zm2,2.64A8.14,8.14,0,0,1,52,59.89l-.71-.59a6.17,6.17,0,0,0,1.41-1.53Zm3.71-.65H54.65v2.53h-.86V57.52H51.45v-.76h5.71Zm0-5.27H55.45v.57h1.47V55H51.74V52.82h1.45v-.57H51.46v-.78h5.7Zm-.29,4h-5v-.77h5ZM53.19,54.3v-.8h-.63v.8Zm1.45-1.48v-.57H54v.57Zm0,1.48v-.8H54v.8Zm2.56,5.1-.66.53a13.08,13.08,0,0,0-1.37-1.64l.68-.48A10,10,0,0,1,57.2,59.4Zm-1.11-5.1v-.8h-.64v.8Z"/><path class="cls-1" d="M62.25,60h-.86v-.66H59.58v.76H58.7V52.81h.89a6.84,6.84,0,0,0,.59-1.53l.92.15a5.85,5.85,0,0,1-.47,1.38h1.62Zm-.86-4.46V53.67H59.58v1.85Zm0,2.94v-2.1H59.58v2.1Zm5.69-5.61c0,1,0,2.2-.1,3.73a11.69,11.69,0,0,1-.27,2.69,1.22,1.22,0,0,1-.55.61,5.16,5.16,0,0,1-1.8.2L64,59.2h1.34a.69.69,0,0,0,.41-.16,5.42,5.42,0,0,0,.32-2.17c.07-1.34.1-2.39.1-3.14h-2a9.17,9.17,0,0,1-1.06,2l-.68-.61A11.59,11.59,0,0,0,64,51.26l.88.19c-.06.34-.18.81-.35,1.4Zm-1.45,4.47-.78.5a11.08,11.08,0,0,0-1.38-2.15l.78-.49A9.58,9.58,0,0,1,65.63,57.32Z"/><path class="cls-1" d="M21.75,74.77H20.66v1.69a7.61,7.61,0,0,0,.92-.36l.1.89c-.36.16-.7.29-1,.4v2.75a.9.9,0,0,1-.15.55.67.67,0,0,1-.36.27,2.56,2.56,0,0,1-.67.07l-.62,0-.3-.86h1.07c.12,0,.17,0,.17-.16V77.72q-.75.24-1.14.33l-.25-.85c.59-.15,1.05-.29,1.39-.41v-2H18.48v-.85H19.8v-1.6h.86v1.6h1.09Zm5.55,5.51-.41.76a8.12,8.12,0,0,1-2.46-1.12,8.87,8.87,0,0,1-2.67,1.13l-.52-.78a6.76,6.76,0,0,0,2.45-.92,4.74,4.74,0,0,1-1.29-2.06h-.35v-.83h4.53v.75a6.42,6.42,0,0,1-1.46,2.12A8.17,8.17,0,0,0,27.3,80.28Zm-.12-4.37H26c-.53,0-.8-.28-.8-.85V73.28H23.61A2.74,2.74,0,0,1,22.24,76l-.64-.64a2.11,2.11,0,0,0,.88-.76,2.23,2.23,0,0,0,.25-1.15v-1H26v2.47a.12.12,0,0,0,.13.13h1Zm-1.62,1.38H23.32a3.19,3.19,0,0,0,1.1,1.53A5.76,5.76,0,0,0,25.56,77.29Z"/><path class="cls-1" d="M37.26,75.38l-.42.8a5.37,5.37,0,0,1-.87-.25v3.76H31.75l.43.5a12.72,12.72,0,0,1-3.33,1l-.43-.8a11.35,11.35,0,0,0,2.73-.66H29.68V75.91h1.89l-.38-.55a4.54,4.54,0,0,0,2.61-1.55l.91.2a1.61,1.61,0,0,1-.22.33A8,8,0,0,0,37.26,75.38Zm-5.85-.28H28.5v-.82h2.91Zm-.09-1.59H28.63v-.8h2.69ZM35.07,77v-.35H30.61V77Zm0,1v-.37H30.61V78Zm0,1v-.39H30.61V79Zm2-5.41a11,11,0,0,1-.87,1.12l-.76-.45c.09-.09.27-.32.54-.67H32.84a7.28,7.28,0,0,1-.88.88l-.68-.58a5.79,5.79,0,0,0,1.49-1.7l.82.28a.87.87,0,0,1-.19.35h3.68Zm-1.21,2.29a7.36,7.36,0,0,1-1.95-1,5.2,5.2,0,0,1-1.63,1Zm1.33,4.51-.48.77a15.75,15.75,0,0,0-2.93-.61l.46-.75A12.85,12.85,0,0,1,37.2,80.42Z"/><path class="cls-1" d="M47.19,80.82H39.85a.85.85,0,0,1-.67-.27,1.08,1.08,0,0,1-.24-.72V73.34h-.46v-.77h8.6v.77H39.81v6.43a.26.26,0,0,0,.09.19.3.3,0,0,0,.19.1h7.1Zm-4-1.36H40.39V76.68h2.77Zm2.5-3.3H41.22V73.89h4.44ZM42.33,78.7V77.43h-1.1V78.7Zm2.44-3.28v-.78H42.12v.78Zm1.79,4H43.74V76.68h2.82Zm-.83-.77V77.43H44.57v1.26Z"/><path class="cls-1" d="M51.16,78.87a17.81,17.81,0,0,1-2.48,1.34l-.31-.81a6.7,6.7,0,0,0,1.05-.47V75.69h-.84v-.84h.84v-2.5h.86v2.5H51v.84h-.76v2.78a8.48,8.48,0,0,0,.79-.49Zm3.06.15a17.84,17.84,0,0,1-3.07,1.12L51,79.29a15,15,0,0,0,3.18-1.09Zm3.05.15a4.13,4.13,0,0,1-.36,1.4.78.78,0,0,1-.69.54.85.85,0,0,1-.7-.42,5.29,5.29,0,0,1-.53-1,13,13,0,0,1-1.41,1.48L53,80.55a10.74,10.74,0,0,0,1.77-1.86,23.4,23.4,0,0,1-.4-4.17H51.11v-.81h3.16c0-.35,0-.62,0-.81s0-.4,0-.57l.84,0c0,.29,0,.55,0,.79s0,.42,0,.56h2v.81h-2a22.91,22.91,0,0,0,.23,3.09,12.75,12.75,0,0,0,.87-2.4l.8.29a11.85,11.85,0,0,1-1.45,3.32,4,4,0,0,0,.31.89c.12.25.22.37.3.37s.09-.1.16-.31a4.06,4.06,0,0,0,.15-.93ZM53.87,78H51.35V75.13h2.52ZM53,77.21v-1.3h-.81v1.3ZM56.87,73l-.55.57a5,5,0,0,0-.87-.73l.5-.57A4.64,4.64,0,0,1,56.87,73Z"/><path class="cls-1" d="M20.06,94.37l-.72.35a11,11,0,0,0-.73-.94l.69-.35C19.52,93.68,19.78,94,20.06,94.37Zm2.81,3.15a.76.76,0,0,1-.2.5c-.14.16-.5.22-1.08.19l-.23-.76a4.17,4.17,0,0,0,.52,0q.18,0,.18-.21V95.64h-.89v2.52h-.82V95.64h-.91v2.69h-.81V94.85h1.72v-1.5h.82v1.5h1.7Zm3.58,3.31a.74.74,0,0,1-.27.67,1.93,1.93,0,0,1-1,.18c-.23,0-.46,0-.67,0l-.25-.85H25.4c.11,0,.17-.06.17-.19V99.7H23.24v2.36h-.87V99.7H20v1.94h-.87V98.91h3.22v-.54h.87v.54h3.21ZM20.2,96A10.73,10.73,0,0,1,20,97.57l-.46-.12a14,14,0,0,0,.23-1.51ZM22,97l-.46.16a7.94,7.94,0,0,0-.24-1.2l.46-.12A5.69,5.69,0,0,1,22,97ZM23,93.86a8.79,8.79,0,0,1-.88.85l-.76-.37a5.31,5.31,0,0,0,.92-.86Zm4.19,3.91-.38.74a6.69,6.69,0,0,1-1.6-.81,4.73,4.73,0,0,1-1.79.76l-.39-.76a3.68,3.68,0,0,0,1.52-.52,4.64,4.64,0,0,1-.68-1l.64-.44a3.43,3.43,0,0,0,.64.84,3.58,3.58,0,0,0,.51-1.47H24.36a6.59,6.59,0,0,1-.85,1.12L23,95.62a6.73,6.73,0,0,0,1.34-2.36l.79.18a6,6,0,0,1-.34.87h2.36v.84h-.66a4.25,4.25,0,0,1-.71,2A4.23,4.23,0,0,0,27.21,97.77Z"/><path class="cls-1" d="M33.41,97.89A11.68,11.68,0,0,1,33,101.5a1.23,1.23,0,0,1-1.2.57l-.85,0-.26-.84,1.13,0c.27,0,.43-.15.49-.47s.11-1,.16-2H30.6a5.61,5.61,0,0,1-1.52,3.35l-.68-.59a6.73,6.73,0,0,0,1.5-4.74H29V93.48h4.35v3.31H30.79a10.65,10.65,0,0,1-.08,1.1Zm-.95-2v-1.6H30v1.6Zm2.62,4.32H34.2V94h.88Zm1.87.61a1.2,1.2,0,0,1-.29,1,1.13,1.13,0,0,1-.81.26H34.78l-.27-.86c.32,0,.72,0,1.22,0a.3.3,0,0,0,.24-.11.37.37,0,0,0,.09-.25v-7.5H37Z"/><path class="cls-1" d="M22.25,115.81a15.6,15.6,0,0,1-2.57,3.54,7.2,7.2,0,0,0,1.45-.33,2.44,2.44,0,0,0-.18-.51l.66-.28a7.59,7.59,0,0,1,.58,1.75l-.72.26a1.69,1.69,0,0,0-.11-.47,20,20,0,0,1-2.68.55l-.25-.76a8.8,8.8,0,0,0,1.82-2.09c-.44.09-1,.18-1.57.27l-.15-.74a10,10,0,0,0,1.52-2.77l.86.26a11,11,0,0,1-1.29,2.29,10.29,10.29,0,0,0,1.19-.23,11.6,11.6,0,0,0,.59-1.1Zm-2.59,4.93a10.51,10.51,0,0,1-.45,2.3l-.78-.33a9.6,9.6,0,0,0,.44-2.2Zm1.07,1.81-.76.14c0-.14,0-.29,0-.44a12.08,12.08,0,0,0-.11-1.57l.7-.11A12.19,12.19,0,0,1,20.73,122.55Zm1.1-.78-.66.22a9.58,9.58,0,0,0-.31-1.44l.67-.12A9.67,9.67,0,0,1,21.83,121.77Zm5.43.6-.57.73a8.08,8.08,0,0,1-1.51-1.31,8.45,8.45,0,0,1-1.74,1.31l-.65-.68a7.43,7.43,0,0,0,1.85-1.3,8,8,0,0,1-1-2.73,11,11,0,0,1-1.41,4.72l-.71-.54q1.43-2.31,1.34-7.16h-.66v-.84h4.43c-.15,1-.32,1.92-.52,2.72H27a7.63,7.63,0,0,1-1.27,3.83A5.88,5.88,0,0,0,27.26,122.37Zm-1.62-7H23.79c0,.58,0,1.2-.05,1.88h1.5C25.4,116.69,25.53,116.07,25.64,115.41Zm.41,2.74H24.5a6.35,6.35,0,0,0,.72,2.27A5.91,5.91,0,0,0,26.05,118.15Z"/><path class="cls-1" d="M33.41,118.89A11.68,11.68,0,0,1,33,122.5a1.23,1.23,0,0,1-1.2.57l-.85,0-.26-.84,1.13,0c.27,0,.43-.15.49-.47s.11-1,.16-2H30.6a5.61,5.61,0,0,1-1.52,3.35l-.68-.59a6.73,6.73,0,0,0,1.5-4.74H29v-3.31h4.35v3.31H30.79a10.65,10.65,0,0,1-.08,1.1Zm-.95-2v-1.6H30v1.6Zm2.62,4.32H34.2V115h.88Zm1.87.61a1.2,1.2,0,0,1-.29,1,1.13,1.13,0,0,1-.81.26H34.78l-.27-.86c.32,0,.72,0,1.22,0a.3.3,0,0,0,.24-.11.37.37,0,0,0,.09-.25v-7.5H37Z"/><path class="cls-1" d="M27.31,142c-.16,1.45-.51,2.17-1,2.17s-.7-.38-.86-1.15a26.72,26.72,0,0,1-.24-4.5c0-.74,0-1.45,0-2.15h-5V140a8,8,0,0,1-1,4.19l-.71-.58a6.1,6.1,0,0,0,.84-3.44V135.5H26.1q-.09,2-.09,4a20,20,0,0,0,.12,2.74,2.82,2.82,0,0,0,.15.72s.12-.18.2-.54a4.58,4.58,0,0,0,.12-1Zm-2,1.78-.77.39a2.22,2.22,0,0,0-.24-.6c-1.37.19-2.73.34-4.07.45l-.2-.82c.89,0,1.63-.1,2.23-.18v-1.44H20.73v-3h1.55v-.7H20.5v-.79h4.36v.79H23.12v.7h1.53v3H23.12v1.34l.81-.1a3.93,3.93,0,0,0-.32-.58l.73-.35A8.43,8.43,0,0,1,25.33,143.73Zm-3-3v-1.41h-.73v1.41Zm1.55,0v-1.41h-.71v1.41Z"/><path class="cls-1" d="M31.12,136.39s-.06.29-.17.74a12.55,12.55,0,0,1-.42,1.31,4.45,4.45,0,0,1,.66,2.16,1.48,1.48,0,0,1-.33,1.12,1.18,1.18,0,0,1-.84.3h-.19l-.2-.92a1.63,1.63,0,0,0,.35,0q.39,0,.39-.51a4,4,0,0,0-.74-2.17,11,11,0,0,0,.67-2.1h-.79v7.71h-.85V135.5h2.46ZM34.05,143l-.56.61a8,8,0,0,0-.89-.81,8.38,8.38,0,0,1-1.14,1.32l-.7-.53a6.1,6.1,0,0,0,1.69-2.25l.8.24a5.83,5.83,0,0,1-.25.55A9.33,9.33,0,0,1,34.05,143Zm3.27-5.54-.47.75a9.24,9.24,0,0,1-1.05-.61v.59H32.61v-.62a10.83,10.83,0,0,1-1.06.61l-.49-.72a8.12,8.12,0,0,0,3-2.22l.88.27a1,1,0,0,1-.13.18A7.65,7.65,0,0,0,37.32,137.48ZM34,141.22H31.68v-2.57H34Zm-.82-.8v-1h-.62v1Zm2.3-3a7.84,7.84,0,0,1-1.22-1.06,10.59,10.59,0,0,1-1.29,1.06Zm1.83,6.17-.6.57A11.23,11.23,0,0,0,35.42,143a9.83,9.83,0,0,1-.93,1.16l-.68-.52a6.74,6.74,0,0,0,1.52-2.24l.79.23-.31.69A10.28,10.28,0,0,1,37.26,143.56Zm-.47-2.34H34.47v-2.57h2.32Zm-.84-.8v-1h-.64v1Z"/><path class="cls-1" d="M42.61,142.31H41.05v1.75h-.82v-1.75H38.51v-.79h1.72v-.8H38.72v-.78h.77a8.34,8.34,0,0,0-.34-1.28h-.62v-.81h1.68v-.74H38.8v-.79h1.41v-1h.84v1h1.32v.79H41.05v.74h1.52v.81h-.46c-.08.32-.21.75-.39,1.28h.69v.78H41.05v.8h1.56Zm-1.35-3.65H40c.09.34.19.77.28,1.28h.55A8.25,8.25,0,0,0,41.26,138.66Zm6.06,4.72-.55.7a9.09,9.09,0,0,1-1.28-1.1,7,7,0,0,1-1,1.12l-.54-.68a4.94,4.94,0,0,0,1.06-1.1,7.39,7.39,0,0,1-1-2.93h-.25v4.66h-.86v-8.56h4c0,.51,0,1-.05,1.4a1.71,1.71,0,0,1-.19.79,1.59,1.59,0,0,1-.29.29,1.71,1.71,0,0,1-.88.13l-.47,0-.29-.79h1a.23.23,0,0,0,.19-.1,2.74,2.74,0,0,0,.1-.86H43.74v2.24h3.12a10.24,10.24,0,0,1-.88,3.65A6.8,6.8,0,0,0,47.32,143.38Zm-1.39-4H44.82a6.14,6.14,0,0,0,.63,2A7.86,7.86,0,0,0,45.93,139.39Z"/><path class="cls-1" d="M52.22,136.44H51.06v1h1v6.63h-.69v-.52h-2v.52h-.73v-6.63h1v-1H48.47v-.79h3.75Zm-.87,6.33v-2.21H51a.45.45,0,0,1-.36-.18.67.67,0,0,1-.15-.44v-1.72H50.2a6.08,6.08,0,0,1-.44,2.68l-.4-.43v2.3Zm-1.73-4.55h-.26v2A5.52,5.52,0,0,0,49.62,138.22ZM51.1,142H49.63v-.74H51.1Zm-.63-4.57v-1H50.2v1Zm.88,2.35v-1.57h-.29v1.43c0,.1,0,.14.13.14ZM57,144.07h-.76v-3.82l-.52.22a9.12,9.12,0,0,0-.3-1.88V144h-.75v-3.77l-.53.26a8.76,8.76,0,0,0-.26-1.79v1.28a13.22,13.22,0,0,1-.2,2.54,3.79,3.79,0,0,1-.74,1.62l-.65-.52a5.55,5.55,0,0,0,.81-3.34l-.58.16a16.07,16.07,0,0,0-.37-2.24l.54-.18a13.77,13.77,0,0,1,.41,1.88v-4.49h.78v2.79l.41-.15a16,16,0,0,1,.38,1.9v-4.4h.75v2.65l.42-.18a12.42,12.42,0,0,1,.4,1.78v-4.39H57Z"/><path class="cls-1" d="M62.66,136.76h-2.6a6,6,0,0,1-1,1.16l-.71-.54a7,7,0,0,0,1.62-2.1l.87.2c-.05.12-.14.29-.25.5h2.07Zm4.52,5H65.54v1.45a.79.79,0,0,1-.25.62.84.84,0,0,1-.57.26H64l-.71,0-.31-.85,1.41,0c.18,0,.27-.08.27-.25v-1.24H58.46V141h6.17v-.6H59.15v-.76h3.2V139H58.68v-.76h3.67v-.59h.91v.59H67V139h-3.7v.61h3.21v.76h-.93v.6h1.64Zm-4.75,1.4-.69.58a7.72,7.72,0,0,0-1.53-1.22l.7-.58A7.75,7.75,0,0,1,62.43,143.15Zm-.64-5.45-.9.2a6.91,6.91,0,0,0-.48-.81l.92-.22A6.7,6.7,0,0,1,61.79,137.7Zm5.37-.94H64.07a6.64,6.64,0,0,1-.7.83l-.86-.36a7.09,7.09,0,0,0,1.43-2l.84.21a4.06,4.06,0,0,1-.24.51h2.62ZM66,137.7l-.93.22a5.68,5.68,0,0,0-.49-.79l.93-.22A6.19,6.19,0,0,1,66,137.7Z"/><path class="cls-1" d="M72.25,136.81a15.6,15.6,0,0,1-2.57,3.54,7.2,7.2,0,0,0,1.45-.33,2.44,2.44,0,0,0-.18-.51l.66-.28a7.59,7.59,0,0,1,.58,1.75l-.72.26a1.69,1.69,0,0,0-.11-.47,20,20,0,0,1-2.68.55l-.25-.76a8.8,8.8,0,0,0,1.82-2.09c-.44.09-1,.18-1.57.27l-.15-.74a10,10,0,0,0,1.52-2.77l.86.26a11,11,0,0,1-1.29,2.29,10.29,10.29,0,0,0,1.19-.23,11.6,11.6,0,0,0,.59-1.1Zm-2.59,4.93a10.51,10.51,0,0,1-.45,2.3l-.78-.33a9.6,9.6,0,0,0,.44-2.2Zm1.07,1.81-.76.14c0-.14,0-.29,0-.44a12.08,12.08,0,0,0-.11-1.57l.7-.11A12.19,12.19,0,0,1,70.73,143.55Zm1.1-.78-.66.22a9.58,9.58,0,0,0-.31-1.44l.67-.12A9.67,9.67,0,0,1,71.83,142.77Zm5.43.6-.57.73a8.08,8.08,0,0,1-1.51-1.31,8.45,8.45,0,0,1-1.74,1.31l-.65-.68a7.43,7.43,0,0,0,1.85-1.3,8,8,0,0,1-1-2.73,11,11,0,0,1-1.41,4.72l-.71-.54q1.42-2.31,1.34-7.16h-.66v-.84h4.43c-.15,1-.32,1.92-.52,2.72H77a7.63,7.63,0,0,1-1.27,3.83A5.88,5.88,0,0,0,77.26,143.37Zm-1.62-7H73.79c0,.58,0,1.2-.05,1.88h1.5C75.4,137.69,75.53,137.07,75.64,136.41Zm.41,2.74H74.5a6.35,6.35,0,0,0,.72,2.27A5.91,5.91,0,0,0,76.05,139.15Z"/><path class="cls-1" d="M19.64,162.8a12.77,12.77,0,0,1-.49,2.3l-.74-.36a12.57,12.57,0,0,0,.48-2.13Zm2.3-4.88a13.64,13.64,0,0,1-2.2,3.43,8.1,8.1,0,0,0,1.13-.27,1.68,1.68,0,0,0-.17-.49l.69-.27a6.76,6.76,0,0,1,.49,1.71l-.69.25-.09-.43q-1.32.33-2.43.51l-.21-.73a8.88,8.88,0,0,0,1.66-2.1c-.48.1-.95.18-1.41.23L18.5,159A7.71,7.71,0,0,0,20,156.26l.84.31a8.74,8.74,0,0,1-1.23,2.24,6.07,6.07,0,0,0,1.06-.22,8.92,8.92,0,0,0,.52-1Zm-1.12,6.67-.77.19a12.23,12.23,0,0,0-.2-2l.72-.18A9.48,9.48,0,0,1,20.82,164.59Zm1-.86-.68.17a9.58,9.58,0,0,0-.26-1.23l.67-.17A7.62,7.62,0,0,1,21.84,163.73Zm1.83-2.68-.76.34a18.72,18.72,0,0,0-1.19-2,11.33,11.33,0,0,0,1.07-1.78l.81.31a8.45,8.45,0,0,1-.89,1.49A15.42,15.42,0,0,1,23.67,161.05Zm3.52,3.82H21.85V164h2.24v-1.55H22.14v-.84H26.9v.84H25V164h2.2Zm-.14-7.53H22v-.85h5.06Zm-1.66,3.72-.79.35a12.87,12.87,0,0,0-1.19-2,8.2,8.2,0,0,0,1.06-1.77l.82.32a14.75,14.75,0,0,1-.87,1.44A18.65,18.65,0,0,1,25.39,161.06Zm1.7,0-.79.37a13.06,13.06,0,0,0-1.16-1.94,13.1,13.1,0,0,0,1.07-1.82L27,158a8.94,8.94,0,0,1-.82,1.48A14.43,14.43,0,0,1,27.09,161Z"/><path class="cls-1" d="M31.49,162.93a24.28,24.28,0,0,1-2.78,1.44l-.31-.85c.24-.09.64-.27,1.19-.54v-2.49h-1v-.83h1v-2H28.48v-.8h3v.8h-1v2h.87v.83h-.87v2a6.52,6.52,0,0,0,1-.53Zm5.69,1.91H31.45V164h2.46v-1H31.8v-.79h2.11v-.86h-2v-4.8H36.8v4.8h-2v.86h2.16V163H34.78v1h2.4Zm-3.27-6.26v-1.19H32.74v1.19Zm0,2v-1.3H32.74v1.3Zm2-2v-1.19H34.78v1.19Zm0,2v-1.3H34.78v1.3Z"/><path class="cls-1" d="M47.06,159a2.59,2.59,0,0,1-.23,1.36.72.72,0,0,1-.45.24l-.4.06v3.32H41.66l.42.43a11.2,11.2,0,0,1-3.29.75l-.38-.7a13,13,0,0,0,2.69-.48H39.69V161a8.93,8.93,0,0,1-1,.18l-.35-.79a3.79,3.79,0,0,0,2.35-.85H38.8l.32-1.67h2.16v-.48h-2.6v-.59h2.6v-.48h.86v.48h1.41v-.48h.86v.48h2.31v1.67H44.41V159Zm-5.84-.47H39.87l-.07.47h1.3A4.64,4.64,0,0,0,41.22,158.48Zm3.87,2.82v-.41H40.57v.41Zm0,1v-.44H40.57v.44Zm0,1v-.43H40.57v.43Zm1.08-3.76H44.41V160h-.86v-.49H41.74a3.22,3.22,0,0,1-.65.73h4.48l-.15-.39a1.45,1.45,0,0,0,.64,0C46.13,159.81,46.17,159.71,46.17,159.55Zm-2.62-.6v-.47H42.11a2,2,0,0,1-.1.47Zm0-1.07v-.47H42.14v.47Zm3.69,6.61-.38.67a16.94,16.94,0,0,0-3-.46l.34-.67A16.08,16.08,0,0,1,47.24,164.49Zm-1.39-6.61v-.47H44.41v.47Z"/><path class="cls-1" d="M20.94,177.48c-.14.43-.27.83-.41,1.2l-.21.52v6.86h-.91V181a10.74,10.74,0,0,1-.64.89l-.46-.92a12.65,12.65,0,0,0,1.79-3.69Zm2.1,6a9.49,9.49,0,0,1-1.67,2.37l-.75-.54A9.81,9.81,0,0,0,22.25,183Zm4.09-.82H24.41v3.44h-.9v-3.44H20.77v-.86h2.74v-.94h-2.2V177.6h5.25v3.22H24.41v.94h2.72ZM25.65,180v-1.51H22.23V180Zm1.56,5.45-.81.45a14.62,14.62,0,0,0-1.5-2.39l.77-.43A14.81,14.81,0,0,1,27.21,185.41Z"/><path class="cls-1" d="M32.74,178.65H30.1a7,7,0,0,1-1.11,1l-.58-.72a3.76,3.76,0,0,0,1.52-1.7l.9.24a1.86,1.86,0,0,1-.2.4h2.11Zm4.21,3h-.88v-1H29.58v1H28.7v-1.7h3.6a2.6,2.6,0,0,0-.24-.45l1-.16a4.59,4.59,0,0,1,.32.61H37Zm-.91,4H30.73v.4h-.87v-4.89h5.85v1.91h-5v.53H36Zm-4.22-6.14-1,.18a3.87,3.87,0,0,0-.42-.7l.95-.19A4.49,4.49,0,0,1,31.82,179.51Zm3,2.91v-.58H30.73v.58Zm.33,2.55v-.7H30.73v.7Zm2.05-6.32H34.12a4.43,4.43,0,0,1-.57.71l-.81-.43a5.77,5.77,0,0,0,1.17-1.7l.9.26a2.94,2.94,0,0,1-.22.41H37.2Zm-1.34.92-1,.15a3.93,3.93,0,0,0-.38-.78l1-.11A5.1,5.1,0,0,1,35.86,179.57Z"/><path class="cls-1" d="M47.06,180a2.59,2.59,0,0,1-.23,1.36.72.72,0,0,1-.45.24l-.4.06v3.32H41.66l.42.43a11.2,11.2,0,0,1-3.29.75l-.38-.7a13,13,0,0,0,2.69-.48H39.69V182a8.93,8.93,0,0,1-1,.18l-.35-.79a3.79,3.79,0,0,0,2.35-.85H38.8l.32-1.67h2.16v-.48h-2.6v-.59h2.6v-.48h.86v.48h1.41v-.48h.86v.48h2.31v1.67H44.41V180Zm-5.84-.47H39.87l-.07.47h1.3A4.64,4.64,0,0,0,41.22,179.48Zm3.87,2.82v-.41H40.57v.41Zm0,1v-.44H40.57v.44Zm0,1v-.43H40.57v.43Zm1.08-3.76H44.41V181h-.86v-.49H41.74a3.22,3.22,0,0,1-.65.73h4.48l-.15-.39a1.45,1.45,0,0,0,.64,0C46.13,180.81,46.17,180.71,46.17,180.55Zm-2.62-.6v-.47H42.11a2,2,0,0,1-.1.47Zm0-1.07v-.47H42.14v.47Zm3.69,6.61-.38.67a16.94,16.94,0,0,0-3-.46l.34-.67A16.08,16.08,0,0,1,47.24,185.49Zm-1.39-6.61v-.47H44.41v.47Z"/><path class="cls-1" d="M20.94,198.48c-.14.43-.27.83-.41,1.2l-.21.52v6.86h-.91V202a10.74,10.74,0,0,1-.64.89l-.46-.92a12.65,12.65,0,0,0,1.79-3.69Zm2.1,6a9.49,9.49,0,0,1-1.67,2.37l-.75-.54A9.81,9.81,0,0,0,22.25,204Zm4.09-.82H24.41v3.44h-.9v-3.44H20.77v-.86h2.74v-.94h-2.2V198.6h5.25v3.22H24.41v.94h2.72ZM25.65,201v-1.51H22.23V201Zm1.56,5.45-.81.45a14.62,14.62,0,0,0-1.5-2.39l.77-.43A14.81,14.81,0,0,1,27.21,206.41Z"/><path class="cls-1" d="M32.74,199.65H30.1a7,7,0,0,1-1.11,1l-.58-.72a3.76,3.76,0,0,0,1.52-1.7l.9.24a1.86,1.86,0,0,1-.2.4h2.11Zm4.21,3h-.88v-1H29.58v1H28.7v-1.7h3.6a2.6,2.6,0,0,0-.24-.45l1-.16a4.59,4.59,0,0,1,.32.61H37Zm-.91,4H30.73v.4h-.87v-4.89h5.85v1.91h-5v.53H36Zm-4.22-6.14-1,.18a3.87,3.87,0,0,0-.42-.7l.95-.19A4.49,4.49,0,0,1,31.82,200.51Zm3,2.91v-.58H30.73v.58Zm.33,2.55v-.7H30.73v.7Zm2.05-6.32H34.12a4.43,4.43,0,0,1-.57.71l-.81-.43a5.77,5.77,0,0,0,1.17-1.7l.9.26a2.94,2.94,0,0,1-.22.41H37.2Zm-1.34.92-1,.15a3.93,3.93,0,0,0-.38-.78l1-.11A5.1,5.1,0,0,1,35.86,200.57Z"/><path class="cls-1" d="M42.41,200.29l-.55.66a3.05,3.05,0,0,0-.19-.24v.77h-.88v.74h1.37V203H40.79v2.64a10.91,10.91,0,0,0,1.38-.33l0,.84a36.62,36.62,0,0,1-3.6.75l-.19-.82a13.38,13.38,0,0,0,1.54-.26V203H38.62v-.81H40v-.74h-.78V201a2.11,2.11,0,0,1-.34.29l-.46-.75a8,8,0,0,0,1.81-2.27l.85.26a.68.68,0,0,1-.12.24A12.41,12.41,0,0,1,42.41,200.29Zm-2.73,5.12-.75.24a11.49,11.49,0,0,0-.32-2.09l.76-.18A15.92,15.92,0,0,1,39.68,205.41Zm1.93-4.76a10,10,0,0,0-1.14-1.18,12.88,12.88,0,0,1-.93,1.18Zm.53,2.95a8.81,8.81,0,0,1-.42,1.69l-.69-.24a11.09,11.09,0,0,0,.4-1.64Zm4.5-.87H43.47v3.21a8.14,8.14,0,0,0,1.23-.48l.15.83a17.16,17.16,0,0,1-2.12.81l-.31-.75a.28.28,0,0,0,.18-.26v-7.5h4Zm-.89-2.49v-.82H43.47v.82Zm0,1.66V201H43.47v.87Zm1.52,4.58-.59.65a7.2,7.2,0,0,1-2.49-3.91l.81-.29a10.73,10.73,0,0,0,.38,1.11,4.86,4.86,0,0,0,1-1l.72.45a6.66,6.66,0,0,1-1.35,1.37A6.57,6.57,0,0,0,47.27,206.48Z"/><path class="cls-1" d="M51.49,198.65A8.81,8.81,0,0,1,48.82,201l-.43-.86a6.92,6.92,0,0,0,2.23-1.92Zm.21,1.85a14.65,14.65,0,0,1-1,1.48v5.09h-.93v-4a5.75,5.75,0,0,1-1,.83l-.39-.89a8.25,8.25,0,0,0,2.45-2.84ZM57.17,202H55.82v4.05c0,.67-.36,1-1.08,1-.46,0-.91,0-1.36,0l-.33-.91H54.6a.29.29,0,0,0,.28-.28V202H51.62v-.88h5.55Zm-.25-2.53h-5v-.87h5Z"/><path class="cls-1" d="M27.32,225.86l-.5.74a6.24,6.24,0,0,1-1.54-.89v.59h-2v.8h3.59v.79h-8v-.79h3.51v-.8H20.42v-.6a6.14,6.14,0,0,1-1.55.91l-.49-.76a4.39,4.39,0,0,0,2-1.23H18.48v-.79H20.1v-3H18.69V220H20.1v-.66H21V220h3.64v-.66h.9V220H27v.79H25.52v3h1.64v.79H25.32A5.65,5.65,0,0,0,27.32,225.86ZM25,225.51a6.44,6.44,0,0,1-.88-.89H21.41a3.75,3.75,0,0,1-.76.89h1.71v-.64h.91v.64Zm-.39-4.19v-.52H21v.52Zm0,1.24V222H21v.55Zm0,1.27v-.58H21v.58Z"/><path class="cls-1" d="M37.27,222.2l-.43.78a14.79,14.79,0,0,1-1.5-.74v.56H33.29v1h3.37v.86H33.29V227H36.9v.85H28.81V227h3.57v-2.33H29.07v-.86h3.31v-1H30.3v-.53A13.93,13.93,0,0,1,29,223l-.56-.76a10.5,10.5,0,0,0,4.25-2.93l.9.26a.5.5,0,0,1-.13.19A10.92,10.92,0,0,0,37.27,222.2Zm-5.59,4.31-.84.29a9.91,9.91,0,0,0-1.12-1.56l.85-.35A8.25,8.25,0,0,1,31.68,226.51ZM34.86,222a10.39,10.39,0,0,1-2-1.55,11.41,11.41,0,0,1-2,1.55ZM36,225.2a8.33,8.33,0,0,1-1.08,1.58L34,226.4a7.08,7.08,0,0,0,1.09-1.51Z"/><path class="cls-1" d="M39.64,225.8a12.77,12.77,0,0,1-.49,2.3l-.74-.36a12.57,12.57,0,0,0,.48-2.13Zm2.3-4.88a13.64,13.64,0,0,1-2.2,3.43,8.1,8.1,0,0,0,1.13-.27,1.68,1.68,0,0,0-.17-.49l.69-.27a6.76,6.76,0,0,1,.49,1.71l-.69.25-.09-.43q-1.32.33-2.43.51l-.21-.73a8.88,8.88,0,0,0,1.66-2.1c-.48.1-.95.18-1.41.23L38.5,222A7.71,7.71,0,0,0,40,219.26l.84.31a8.74,8.74,0,0,1-1.23,2.24,6.07,6.07,0,0,0,1.06-.22,8.92,8.92,0,0,0,.52-1Zm-1.12,6.67-.77.19a12.23,12.23,0,0,0-.2-2l.72-.18A9.48,9.48,0,0,1,40.82,227.59Zm1-.86-.68.17a9.58,9.58,0,0,0-.26-1.23l.67-.17A7.62,7.62,0,0,1,41.84,226.73Zm1.83-2.68-.76.34a18.72,18.72,0,0,0-1.19-2,11.33,11.33,0,0,0,1.07-1.78l.81.31a8.45,8.45,0,0,1-.89,1.49A15.42,15.42,0,0,1,43.67,224.05Zm3.52,3.82H41.85V227h2.24v-1.55h-2v-.84H46.9v.84H45V227h2.2Zm-.14-7.53H42v-.85h5.06Zm-1.66,3.72-.79.35a12.87,12.87,0,0,0-1.19-2,8.2,8.2,0,0,0,1.06-1.77l.82.32a14.75,14.75,0,0,1-.87,1.44A18.65,18.65,0,0,1,45.39,224.06Zm1.7,0-.79.37a13.06,13.06,0,0,0-1.16-1.94,13.1,13.1,0,0,0,1.07-1.82L47,221a8.94,8.94,0,0,1-.82,1.48A14.43,14.43,0,0,1,47.09,224Z"/><path class="cls-1" d="M51.49,225.93a24.28,24.28,0,0,1-2.78,1.44l-.31-.85c.24-.09.64-.27,1.19-.54v-2.49h-1v-.83h1v-2H48.48v-.8h3v.8h-1v2h.87v.83h-.87v2a6.52,6.52,0,0,0,1-.53Zm5.69,1.91H51.45V227h2.46v-1H51.8v-.79h2.11v-.86h-2v-4.8H56.8v4.8h-2v.86h2.16V226H54.78v1h2.4Zm-3.27-6.26v-1.19H52.74v1.19Zm0,2v-1.3H52.74v1.3Zm2-2v-1.19H54.78v1.19Zm0,2v-1.3H54.78v1.3Z"/><path class="cls-1" d="M67.24,227.4l-.58.73a11,11,0,0,1-3.84-4.64A7.74,7.74,0,0,1,59,228.08l-.6-.73q3.95-2.44,3.94-6.41v-1.59h1v2.05a5.53,5.53,0,0,0,1.09,3.2A11.27,11.27,0,0,0,67.24,227.4Z"/><path class="cls-1" d="M26,247.57H21.44l.5.44a12.08,12.08,0,0,1-3.16,1.15l-.4-.78a12.09,12.09,0,0,0,2.54-.81H19.65v-4.13H26Zm.7-4.69H19v-2.36h7.7Zm-5.43-.7v-.93H19.86v.93Zm3.84,2.44v-.47H20.56v.47Zm0,1.1v-.49H20.56v.49Zm0,1.15v-.52H20.56v.52Zm-1.57-4.69v-.93H22.1v.93Zm3.74,6.14-.33.82a12.65,12.65,0,0,0-2.85-.65l.32-.79A14.65,14.65,0,0,1,27.25,248.32Zm-1.49-6.14v-.93H24.37v.93Z"/><path class="cls-1" d="M36.83,249h-.91v-.68H29.68V249h-.92v-8.48h8.07Zm-.91-1.55v-6.06H29.68v6.06Zm-1.05-1.17H30.74v-3.79h4.13Zm-.87-.84v-2.12H31.61v2.12Z"/><path class="cls-1" d="M42.5,243.74H39.64v5.34h-.9v-8.51H42.5Zm-.9-1.93v-.42h-2v.42Zm0,1.17v-.43h-2V243Zm4.09,3.74h-1.4v2.17H43.4v-2.17H42.22a3,3,0,0,1-1.3,2.19l-.74-.6a2.29,2.29,0,0,0,1.12-1.59H39.91v-.84h1.47v-.82H40.22v-.83H45.4v.83H44.29v.82h1.4Zm-2.29-.84v-.82H42.29v.82Zm3.51,2.43a.69.69,0,0,1-.24.55,2.64,2.64,0,0,1-1.34.2H45l-.23-1a3.6,3.6,0,0,0,.86.09.85.85,0,0,0,.35-.05s.07-.1.07-.21v-4.18H43.16v-3.17h3.75Zm-.89-6.5v-.42h-2v.42ZM46,243v-.43h-2V243Z"/><path class="cls-1" d="M52.47,242.82l-.51.06a10.93,10.93,0,0,1-.8,3.6,11.57,11.57,0,0,1,1.11,1.09l-.75.74a8.26,8.26,0,0,0-.82-1,6.83,6.83,0,0,1-1.64,1.73l-.65-.77A6.27,6.27,0,0,0,50,246.68a15.14,15.14,0,0,0-1.41-1.09,21.92,21.92,0,0,0,.58-2.47,5.72,5.72,0,0,1-.71,0v-.88l.87-.06a17.86,17.86,0,0,0,.26-1.9l.94.08c-.08.6-.16,1.19-.26,1.76l.82,0a7.17,7.17,0,0,0,0-.79H52c0,.14,0,.37,0,.69l.46-.05ZM51,243l-.91.08q-.16.93-.45,2.22.49.36.75.57A9.84,9.84,0,0,0,51,243Zm6.25,1.35-.94.4A5,5,0,0,0,56,244a36.56,36.56,0,0,1-3.68.37l-.21-.85a1.31,1.31,0,0,0,.47-.24,3.69,3.69,0,0,0,.66-1.1,12.45,12.45,0,0,0,.68-1.85l1,.12a14.55,14.55,0,0,1-1.34,2.92,12.34,12.34,0,0,0,2-.21,10.83,10.83,0,0,0-.74-1.29l.87-.35A14.37,14.37,0,0,1,57.26,244.33Zm-.51,4.74h-.93v-.44H53.38v.44h-.92v-4.14h4.29Zm-.93-1.31v-2H53.38v2Z"/><path class="cls-1" d="M66.15,249h-.93v-.67H60.49V249h-1v-8.46h6.61Zm-.93-5.13v-2.47H60.49v2.47Zm0,3.59v-2.73H60.49v2.73Z"/><line class="cls-2" y1="46.2" x2="527.12" y2="46.2"/><line class="cls-2" y1="67.05" x2="527.12" y2="67.05"/><line class="cls-2" y1="87.9" x2="527.12" y2="87.9"/><line class="cls-2" y1="108.75" x2="527.12" y2="108.75"/><line class="cls-2" y1="129.6" x2="527.12" y2="129.6"/><line class="cls-2" y1="150.45" x2="527.12" y2="150.45"/><line class="cls-2" y1="171.3" x2="527.12" y2="171.3"/><line class="cls-2" y1="192.15" x2="527.12" y2="192.15"/><line class="cls-2" y1="213" x2="527.12" y2="213"/><line class="cls-2" y1="233.85" x2="527.12" y2="233.85"/><line class="cls-2" y1="22.94" x2="527.12" y2="22.94"/><rect class="cls-1" x="0.13" width="526.57" height="22.94"/><path class="cls-3" d="M247.71,15,247,16.13a9.15,9.15,0,0,1-2.31-1.34v.89h-3v1.2H247v1.17H235V16.88h5.26v-1.2h-2.91v-.9A9.27,9.27,0,0,1,235,16.14L234.3,15a6.6,6.6,0,0,0,2.95-1.85h-2.8V12h2.43V7.42h-2.12V6.25h2.12v-1h1.32v1h5.46v-1H245v1h2.15V7.42H245V12h2.46v1.18h-2.76A8.74,8.74,0,0,0,247.71,15Zm-3.46-.53a9.58,9.58,0,0,1-1.33-1.33h-4.08a5.78,5.78,0,0,1-1.13,1.33h2.56v-1h1.36v1Zm-.59-6.28V7.42H238.2v.79Zm0,1.86V9.24H238.2v.83Zm0,1.91V11.1H238.2V12Z"/><path class="cls-3" d="M262.57,15.08l-.94,1a15.12,15.12,0,0,1-5-6.3v4.92h3V16h-3v2.38H255.3V16h-3V14.66h3V9.71A14.7,14.7,0,0,1,250.2,16l-.88-1a15.63,15.63,0,0,0,5-6.15h-4.57V7.49h5.51V5.26h1.36V7.49h5.54V8.81h-4.67A14.63,14.63,0,0,0,262.57,15.08Z"/><path class="cls-3" d="M277.62,9.8,277,11a10.36,10.36,0,0,1-1.31-.37v5.64h-6.32L270,17a19.75,19.75,0,0,1-5,1.45l-.65-1.2a17.85,17.85,0,0,0,4.09-1h-2.2V10.6h2.83l-.57-.83a6.81,6.81,0,0,0,3.92-2.34l1.36.3a2,2,0,0,1-.33.51A12.14,12.14,0,0,0,277.62,9.8Zm-8.78-.42h-4.36V8.15h4.36ZM268.71,7h-4V5.79h4Zm5.63,5.2v-.53h-6.69v.53Zm0,1.53v-.56h-6.69v.56Zm0,1.56v-.59h-6.69v.59Zm3-8.12A15.72,15.72,0,0,1,276,8.84l-1.13-.67c.12-.15.39-.48.8-1H271a11.71,11.71,0,0,1-1.32,1.32l-1-.87a9,9,0,0,0,2.24-2.55l1.23.42a1.48,1.48,0,0,1-.29.53h5.52Zm-1.81,3.44a11.89,11.89,0,0,1-2.93-1.44,8.24,8.24,0,0,1-2.44,1.44Zm2,6.76-.72,1.16a23.24,23.24,0,0,0-4.39-.92l.69-1.13A19.14,19.14,0,0,1,277.53,17.36Z"/><path class="cls-3" d="M281.68,11.93a22.94,22.94,0,0,1-1.1,4.38l-1.18-.56a21.51,21.51,0,0,0,1.06-4.15Zm-.07-3-1.23.43a17.56,17.56,0,0,0-.82-2.95L280.74,6A19.22,19.22,0,0,1,281.61,9Zm3.89,2.18h-2.05v7.17h-1.3V11.15h-2.53V9.87h2.53V5.24h1.3V9.87h2.05Zm.39,4.23-1.2.32a21.45,21.45,0,0,0-.75-3.77l1.13-.36A16.6,16.6,0,0,1,285.89,15.38Zm.11-9a14.64,14.64,0,0,1-.86,3.09L284,8.9a14.67,14.67,0,0,0,.8-2.95Zm3.26,5.55-.9.93a15.34,15.34,0,0,0-2.49-2.58l.86-1A16.11,16.11,0,0,1,289.26,11.9Zm.19-3.62-.94.93a13.89,13.89,0,0,0-2.22-2.52l.86-1A16.15,16.15,0,0,1,289.45,8.28Zm3.08,6.19-1.29.21v3.64h-1.33v-3.4l-3.51.59-.1-1.3,3.61-.6V5.24h1.33v8.12l1.2-.18Z"/><path class="cls-4" d="M253.32,31.81a12.8,12.8,0,0,1-7.08,3.46l-.42-.79a15.15,15.15,0,0,0,3.54-.92A7.11,7.11,0,0,0,248,32.38a12.15,12.15,0,0,1-1.54.72l-.53-.66a10.27,10.27,0,0,0,3.48-2.19l.84.32a3,3,0,0,1-.44.46h3.53Zm1.12,3.57a2.67,2.67,0,0,1-.59.87,7,7,0,0,1-1.31,1.19,9,9,0,0,1-1.61.85,10.31,10.31,0,0,1-2,.59,13.58,13.58,0,0,1-2.35.22l-.36-.83a10.45,10.45,0,0,0,4.36-.76,7.86,7.86,0,0,0-1.39-1.26,11.19,11.19,0,0,1-2.09.81l-.56-.71a10.23,10.23,0,0,0,4.73-2.64l.85.31a6.73,6.73,0,0,1-.53.56h2.88Zm-2.34-3.57h-3.23l-.17.12a11.1,11.1,0,0,1,1.48,1.23A9,9,0,0,0,252.1,31.81Zm1.38,3.57H250.6a8.16,8.16,0,0,1-.68.46,9.7,9.7,0,0,1,1.45,1.31A6,6,0,0,0,253.48,35.38Z"/><path class="cls-4" d="M264.53,38.89h-8.71v-.72h3.94v-.56h-3.52v-.68h3.52V36.4h-3V33.3h3v-.56H256v-.68h3.73v-.6c-1.48.06-2.51.08-3.08.06l-.29-.71c.4,0,.8,0,1.2,0a32.76,32.76,0,0,0,6-.52L264,31c-1.3.21-2.41.35-3.34.42v.67h3.67v.68h-3.67v.56h3v3.1h-3v.53h3.47v.68h-3.46v.56h3.88Zm-4.77-4.35V34h-2.1v.59Zm0,1.22v-.6h-2.1v.6Zm3-1.22V34h-2.08v.59Zm0,1.22v-.6h-2.08v.6Z"/><path class="cls-4" d="M274.6,33.38l-.42.8a5.37,5.37,0,0,1-.87-.25v3.76h-4.22l.43.5a12.72,12.72,0,0,1-3.33,1l-.43-.8a11.35,11.35,0,0,0,2.73-.66H267V33.91h1.89l-.38-.55a4.54,4.54,0,0,0,2.61-1.55l.91.2a1.61,1.61,0,0,1-.22.33A8,8,0,0,0,274.6,33.38Zm-5.85-.28h-2.91v-.82h2.91Zm-.09-1.59H266v-.8h2.69ZM272.41,35v-.35H268V35Zm0,1v-.37H268V36Zm0,1v-.39H268V37Zm2-5.41a9.77,9.77,0,0,1-.87,1.12l-.76-.45c.09-.09.27-.32.54-.67h-3.15a7.28,7.28,0,0,1-.88.88l-.68-.58a5.79,5.79,0,0,0,1.49-1.7l.82.28a.87.87,0,0,1-.19.35h3.68Zm-1.21,2.29a7.36,7.36,0,0,1-1.95-1,5.2,5.2,0,0,1-1.63,1Zm1.33,4.51-.48.77a15.75,15.75,0,0,0-2.93-.61l.46-.75A12.85,12.85,0,0,1,274.54,38.42Z"/><path class="cls-4" d="M284.5,34.61h-7.14v1.64a4.09,4.09,0,0,1-.92,2.87l-.71-.63a2.24,2.24,0,0,0,.55-.9,6,6,0,0,0,.22-1.93V33.82h8Zm-.25-2.84h-1.49a4.89,4.89,0,0,1-.87.72,21.76,21.76,0,0,1,2.14.58l-.33.62A22.1,22.1,0,0,0,281,33a9.94,9.94,0,0,1-3.83.65l-.26-.68a11.43,11.43,0,0,0,2.49-.23,18.93,18.93,0,0,0-2-.25l.4-.59c.94.09,1.94.23,3,.42a4.09,4.09,0,0,0,.78-.54h-5.59V31h3.71c-.09-.17-.18-.34-.29-.51l.91-.19a6.68,6.68,0,0,1,.39.7h3.48Zm.27,7.1h-7.18v-.74h3.2v-.66h-2v-.72h2v-.57h-1.76a4.17,4.17,0,0,1-.81.93l-.55-.7a3.79,3.79,0,0,0,1.11-1.59l.83.25a1.11,1.11,0,0,1-.15.36h1.33v-.6h.91v.6h2.62v.75h-2.62v.57h2.39v.72h-2.39v.66h3.07Z"/><path class="cls-4" d="M294.54,38.86h-8.7v-.79h3.89v-.94h-3.28v-.8h3.28v-.69h.91v.69H294v.8h-3.31v.94h3.9Zm-3.39-5.47H290v2h-.86v-2H288a3.63,3.63,0,0,1-1.29,2.39l-.61-.62a2.89,2.89,0,0,0,1.06-1.77h-1.25v-.78h1.32v-1.3h-1.17V30.5H291v.81h-1v1.3h1.18Zm-2-.78v-1.3h-1v1.3Zm3.32,1.59h-.87V30.82h.87Zm1.79.68a.73.73,0,0,1-.26.6,1.06,1.06,0,0,1-.71.23H292l-.26-.82c.23,0,.47,0,.71,0a2.75,2.75,0,0,0,.84-.07c.08,0,.11-.12.11-.24V30.39h.85Z"/><path class="cls-4" d="M304.66,36.86l-.5.74a6.24,6.24,0,0,1-1.54-.89v.59h-2v.8h3.59v.79h-8V38.1h3.51v-.8h-1.94v-.6a6.14,6.14,0,0,1-1.55.91l-.49-.76a4.33,4.33,0,0,0,2-1.23h-1.87v-.79h1.62v-3H296V31h1.41v-.66h.88V31H302v-.66h.9V31h1.43v.79h-1.43v3h1.64v.79h-1.84A5.65,5.65,0,0,0,304.66,36.86Zm-2.31-.35a6.44,6.44,0,0,1-.88-.89h-2.72a3.75,3.75,0,0,1-.76.89h1.71v-.64h.91v.64ZM302,32.32V31.8h-3.64v.52Zm0,1.24V33h-3.64v.55Zm0,1.27v-.58h-3.64v.58Z"/><path class="cls-4" d="M314.61,33.2l-.43.78a14.79,14.79,0,0,1-1.5-.74v.56h-2.05v1H314v.86h-3.37V38h3.61v.85h-8.09V38h3.57V35.64h-3.31v-.86h3.31v-1h-2.08v-.53a12.86,12.86,0,0,1-1.35.69l-.56-.76A10.5,10.5,0,0,0,310,30.27l.9.26a.5.5,0,0,1-.13.19A10.92,10.92,0,0,0,314.61,33.2ZM309,37.51l-.84.29a9.3,9.3,0,0,0-1.12-1.56l.85-.35A7.83,7.83,0,0,1,309,37.51ZM312.2,33a10.39,10.39,0,0,1-2-1.55,11.41,11.41,0,0,1-2,1.55Zm1.13,3.24a7.5,7.5,0,0,1-1.08,1.58l-.87-.38a7.08,7.08,0,0,0,1.09-1.51Z"/><path class="cls-4" d="M249.11,59.23c0,.56-.33.85-1,.85l-.45,0-.33-.88h.77c.09,0,.14,0,.14-.13V56.63c-.3.39-.58.71-.82,1l-.3-.51a7.89,7.89,0,0,1-.64,3l-.72-.56a8.25,8.25,0,0,0,.52-3.31V51.5h2.81Zm-.85-4.83v-2h-1.11V53.5l.51-.37A9.35,9.35,0,0,1,248.26,54.4Zm0,.82v-.57l-.59.45a5.45,5.45,0,0,0-.52-1.31v2.8A9.51,9.51,0,0,0,248.26,55.22Zm6.36,4.12-.44.76A6.29,6.29,0,0,1,251.86,59a8.41,8.41,0,0,1-2.14,1.11l-.49-.76a6.54,6.54,0,0,0,1.94-.91A6.13,6.13,0,0,1,250,56.31h-.44v-.84H254v.84a7,7,0,0,1-1.4,2.07A6.6,6.6,0,0,0,254.62,59.34Zm-.1-4.42H253.1a.63.63,0,0,1-.48-.21.72.72,0,0,1-.18-.48V52.42h-1.39v.45a2.92,2.92,0,0,1-1,2.34l-.73-.57a2.1,2.1,0,0,0,.81-1.8V51.57h3.15v2.37a.14.14,0,0,0,.16.16h1.05Zm-1.58,1.39h-2.05a4.08,4.08,0,0,0,1,1.53A6.19,6.19,0,0,0,252.94,56.31Z"/><path class="cls-4" d="M259.05,58.22a8.57,8.57,0,0,1-2.78,1.8l-.49-.72a7.79,7.79,0,0,0,2.55-1.6Zm5.46-6h-2.77v.55H264v2.12h-7.69V52.81h2.28v-.55h-2.8v-.77h8.71Zm0,5.23h-3.89V60.1h-.91V57.49h-3.92v-.77h8.72Zm-.67-1.3H256.5v-.75h7.36Zm-5.26-2v-.68h-1.4v.68Zm2.27-1.4v-.55h-1.4v.55Zm0,1.4v-.68h-1.4v.68Zm3.74,5.18-.58.67a22.31,22.31,0,0,0-2.74-1.73l.59-.62A16.17,16.17,0,0,1,264.61,59.39Zm-1.47-5.18v-.68h-1.4v.68Z"/><path class="cls-4" d="M271.37,56.12l-.67.65a8,8,0,0,0-1.68-1.5l.66-.66A8.66,8.66,0,0,1,271.37,56.12Z"/><path class="cls-4" d="M278,51.44a13.29,13.29,0,0,1-.34,1.35l-.24.73v6.53h-.85V55.34a3.25,3.25,0,0,1-.47.69l-.42-1a10.41,10.41,0,0,0,1.52-3.83Zm6.51,3.2h-6.74V54h3v-.43h-2.44v-.62h2.44V52.5h-2.65v-.68h2.65v-.45h.88v.45h2.67v.68h-2.67v.41h2.43v.62h-2.43V54h2.86Zm-.68,4.14h-3.55l.45.48a10.45,10.45,0,0,1-2.5.84l-.43-.7a9.72,9.72,0,0,0,2.2-.62h-1.45v-3.7h5.28ZM283,56.1v-.4H279.4v.4Zm0,1v-.44H279.4v.44Zm0,1V57.7H279.4v.44Zm1.53,1.34-.38.66a13,13,0,0,0-2.45-.56l.38-.66A13.76,13.76,0,0,1,284.51,59.48Z"/><path class="cls-4" d="M294.54,56.63l-.41.73a9.09,9.09,0,0,1-.9-.43c0,.62,0,1.16-.09,1.64a4.13,4.13,0,0,1-.14.9.88.88,0,0,1-.26.33,1.09,1.09,0,0,1-.43.22,3.54,3.54,0,0,1-.87.07l-.69,0-.42-.86c.51,0,.91,0,1.2,0a1.08,1.08,0,0,0,.51-.07.34.34,0,0,0,.17-.2,3,3,0,0,0,.09-.75c0-.41,0-.74,0-1h-2c-.38,1.69-1.64,2.67-3.81,3l-.46-.84c1.9-.16,3-.86,3.36-2.11h-2.28v-.46a7.19,7.19,0,0,1-1,.47l-.52-.72A9.43,9.43,0,0,0,288,55.07h-2.12v-.78h2.86a3.21,3.21,0,0,0,.41-.68h-2.69v-.79h3a8.08,8.08,0,0,0,.4-1.54l.87,0a11.08,11.08,0,0,1-.36,1.49h3.62v.79h-3.92a5.93,5.93,0,0,1-.35.68h4.61v.78h-2.32A7.29,7.29,0,0,0,294.54,56.63Zm-5.64-4.52-.6.59a4.94,4.94,0,0,0-1.21-.69l.58-.65A5.31,5.31,0,0,1,288.9,52.11Zm3.57,4.36a4.88,4.88,0,0,1-1.39-1.4H289.2a8.31,8.31,0,0,1-1.61,1.4h2a6.76,6.76,0,0,0,.08-1h.9a8,8,0,0,1-.07,1Zm.87-4.54a6.48,6.48,0,0,1-1.36.71l-.62-.66a4,4,0,0,0,1.34-.63Z"/><path class="cls-4" d="M301.37,56.12l-.67.65a8,8,0,0,0-1.68-1.5l.66-.66A8.66,8.66,0,0,1,301.37,56.12Z"/><path class="cls-4" d="M314.66,57.86l-.5.74a6.24,6.24,0,0,1-1.54-.89v.59h-2v.8h3.59v.79h-8V59.1h3.51v-.8h-1.94v-.6a6.14,6.14,0,0,1-1.55.91l-.49-.76a4.33,4.33,0,0,0,2-1.23h-1.87v-.79h1.62v-3H306V52h1.41v-.66h.88V52H312v-.66h.9V52h1.43v.79h-1.43v3h1.64v.79h-1.84A5.65,5.65,0,0,0,314.66,57.86Zm-2.31-.35a6.44,6.44,0,0,1-.88-.89h-2.72a3.75,3.75,0,0,1-.76.89h1.71v-.64h.91v.64ZM312,53.32V52.8h-3.64v.52Zm0,1.24V54h-3.64v.55Zm0,1.27v-.58h-3.64v.58Z"/><path class="cls-4" d="M324.61,54.2l-.43.78a14.79,14.79,0,0,1-1.5-.74v.56h-2.05v1H324v.86h-3.37V59h3.61v.85h-8.09V59h3.57V56.64h-3.31v-.86h3.31v-1h-2.08v-.53a12.86,12.86,0,0,1-1.35.69l-.56-.76A10.5,10.5,0,0,0,320,51.27l.9.26a.5.5,0,0,1-.13.19A10.92,10.92,0,0,0,324.61,54.2ZM319,58.51l-.84.29a9.3,9.3,0,0,0-1.12-1.56l.85-.35A7.83,7.83,0,0,1,319,58.51ZM322.2,54a10.39,10.39,0,0,1-2-1.55,11.41,11.41,0,0,1-2,1.55Zm1.13,3.24a7.5,7.5,0,0,1-1.08,1.58l-.87-.38a7.08,7.08,0,0,0,1.09-1.51Z"/><path class="cls-4" d="M331.37,56.12l-.67.65a8,8,0,0,0-1.68-1.5l.66-.66A8.66,8.66,0,0,1,331.37,56.12Z"/><path class="cls-4" d="M340.27,59.56h-4.19V52h4v1h-2.85v2.22h2.64v1h-2.64v2.33h3Z"/><path class="cls-4" d="M346.43,53h-2.17v6.55h-1.18V53h-2.17V52h5.52Z"/><path class="cls-4" d="M351.57,53h-2.85v2.34h2.63v1h-2.63v3.21h-1.17V52h4Z"/><path class="cls-4" d="M358.24,56.12l-.67.65a8.52,8.52,0,0,0-1.68-1.5l.66-.66A9,9,0,0,1,358.24,56.12Z"/><path class="cls-4" d="M365.8,53h-3.09v-.83h1.21l-.39-.74.93-.26.47,1h.87Zm-.27,6.84h-.86v-.43h-.88v.64h-.87V56.61h2.61Zm0-5.38H363v-.83h2.59Zm0,1.46H363V55.1h2.6Zm-.88,2.67V57.43h-.88v1.18Zm6.87-3.87-.47.68a5.3,5.3,0,0,1-1.17-1v.54h-2.69v-.51a7.55,7.55,0,0,1-1,1l-.54-.66a5.61,5.61,0,0,0,1-.92,4.1,4.1,0,0,0-.76-.64l.57-.54a3.19,3.19,0,0,1,.63.49,3.54,3.54,0,0,0,.41-.87h-1.36V51.5h2.19v.79a7.42,7.42,0,0,1-.91,1.83h2.29a5.93,5.93,0,0,1-1.11-2.68l.77-.13a2.44,2.44,0,0,0,.12.52,5.53,5.53,0,0,0,.58-.47l.54.54a5.25,5.25,0,0,1-.87.66l.15.35a3.37,3.37,0,0,0,1-.71l.56.58a5.14,5.14,0,0,1-1.11.81A5.29,5.29,0,0,0,371.54,54.74ZM371.3,60h-5.46v-.81h1.38a4.72,4.72,0,0,0-.37-.94l.64-.37h-1V55.48h4.16v2.35H369.5l.7.4c-.11.33-.22.64-.32.91h1.42Zm-1.52-2.89v-.81h-2.45v.81Zm-.42.77h-1.69c.16.4.32.83.46,1.31h.79A8.41,8.41,0,0,0,369.36,57.83Z"/><path class="cls-4" d="M381.54,56.84l-.54.76a9,9,0,0,1-1.53-1,14.39,14.39,0,0,1-.18,1.93,3.58,3.58,0,0,1-.28,1.11,1,1,0,0,1-.41.34,2.68,2.68,0,0,1-1,.13,5.62,5.62,0,0,1-.66,0l-.23-.83a6.8,6.8,0,0,0,.76,0,2.05,2.05,0,0,0,.63-.05.31.31,0,0,0,.19-.16,2.45,2.45,0,0,0,.14-.62,9.44,9.44,0,0,0,.09-1.15H377a4.44,4.44,0,0,1-3.36,2.83l-.44-.75c1.6-.44,2.56-1.14,2.88-2.08h-1.51v-.77a15.29,15.29,0,0,1-1.46,1l-.55-.71a10.61,10.61,0,0,0,1.78-1.24h-1.56V54.8h2.36a4.5,4.5,0,0,0,.56-.79h-2.5v-.82h2.93a11.94,11.94,0,0,0,.71-2l.85.12a9.92,9.92,0,0,1-.62,1.84h3.74V54h-4.1c-.07.14-.23.41-.48.8h5v.81h-1.6A6.93,6.93,0,0,0,381.54,56.84Zm-5.67-4.26-.77.48A8.23,8.23,0,0,0,373.79,52l.77-.55A7,7,0,0,1,375.87,52.58Zm3.45,3.9a4.81,4.81,0,0,1-.84-.87h-2.86a6.31,6.31,0,0,1-1,.87Zm1-4.55a11.16,11.16,0,0,1-1.28,1.13l-.83-.49a11,11,0,0,0,1.34-1.13Z"/><path class="cls-4" d="M386.76,56l-.61.76a8.67,8.67,0,0,0-.81-1.4v4.7h-.87V55.65a8.79,8.79,0,0,1-1.38,2.05l-.44-1A8.88,8.88,0,0,0,384.41,54h-1.63v-.85h1.69V51.35h.87v1.79h1.39V54h-1.39v.11A13.64,13.64,0,0,1,386.76,56Zm4.42,4.07h-.88v-.73h-2.36v.72h-.89v-8.5h4.13Zm-.88-6.22V52.42h-2.36v1.43Zm0,2.3V54.68h-2.36v1.47Zm0,2.35V57h-2.36V58.5Z"/><path class="cls-4" d="M396.71,54.11h-2.86v5.94H393V51.48h3.75Zm-.88-1.58v-.38h-2v.38Zm0,.93v-.38h-2v.38Zm1.1,3.33-.53.29c0-.07-.09-.14-.14-.2-.72.11-1.35.18-1.88.21l-.15-.52a5.23,5.23,0,0,0,1.11-.76,7.83,7.83,0,0,1-.93.1l-.16-.52a2.69,2.69,0,0,0,1.15-1.12l.63.24a3.89,3.89,0,0,1-.82.8,4.63,4.63,0,0,0,.71-.1,4.31,4.31,0,0,0,.32-.4l.63.26a7.41,7.41,0,0,1-1.53,1.39,2.84,2.84,0,0,0,.64-.08l-.1-.15.53-.27A6.71,6.71,0,0,1,396.93,56.79Zm-.16.81a2.23,2.23,0,0,1-.42,1.48,3,3,0,0,1-1.51.81l-.47-.69a2.12,2.12,0,0,0,1.37-.62h-1.31V57.37h.77V58h.74a.59.59,0,0,0,0-.17v-.59h.81Zm3.17-.82-.59.28a1.19,1.19,0,0,0-.13-.22c-.46.07-1.11.15-2,.24l-.14-.51a3.71,3.71,0,0,0,1-.74l-.95.11-.14-.53a3,3,0,0,0,1-1.14l.65.21a4.24,4.24,0,0,1-.84.85l.74-.1a2.28,2.28,0,0,0,.27-.38l.68.22a6.33,6.33,0,0,1-1.43,1.39,6.68,6.68,0,0,0,.69-.09l-.14-.17.6-.26A5.2,5.2,0,0,1,399.94,56.78Zm-.26,1.84h-1.55v1.21h-.83v-2.6h.83V58h.75v-.62h.8Zm1.43.58a.81.81,0,0,1-.16.52.79.79,0,0,1-.39.28,2.85,2.85,0,0,1-.8.08,2.21,2.21,0,0,1-.39,0l-.34-.87a5,5,0,0,0,.56,0l.51,0c.09,0,.14-.1.14-.26V54.11h-2.85V51.48h3.72Zm-.87-6.67v-.38h-2v.38Zm0,.93v-.38h-2v.38Z"/><path class="cls-4" d="M411.39,52.75H408.7l.67.36a5,5,0,0,1-.47.8H411v5.27a.86.86,0,0,1-.16.51.8.8,0,0,1-.37.3,1.9,1.9,0,0,1-.69.09l-.61,0-.28-.83.47,0a2.56,2.56,0,0,0,.68-.05.17.17,0,0,0,.1-.18v-4.3h-1.65v.66a.15.15,0,0,0,.05.11.14.14,0,0,0,.1.05h1.17v.75h-1.55a.59.59,0,0,1-.43-.19.6.6,0,0,1-.19-.43v-.95h-1.15c0,1.07-.62,1.73-1.87,2l-.43-.75c1-.15,1.46-.56,1.46-1.23H404v5.35h-.87V53.91h2.09c-.23-.37-.41-.64-.55-.82l.65-.34h-2.6V52h3.89c0-.13-.13-.3-.23-.53l.92-.2a7.21,7.21,0,0,1,.26.73h3.85ZM409.22,59h-4.31V56.79h4.31Zm-.69-6.22h-3a7.78,7.78,0,0,1,.7,1.16h1.66A8.57,8.57,0,0,0,408.53,52.75Zm-.17,5.45v-.66h-2.58v.66Z"/><path class="cls-4" d="M416.6,60.05h-.89v-.51h-1.85v.51H413v-4.5h3.61Zm-.89-1.32V56.38h-1.85v2.35Zm4.4-4H414V51.51h6.15Zm-.9-.8V52.33h-4.33v1.55Zm1.86,6.17h-.87v-.51h-1.87v.51h-.88v-4.5h3.62Zm-.87-1.31V56.38h-1.87v2.36Z"/><path class="cls-4" d="M431.5,59.27l-.34.86A10.19,10.19,0,0,1,427,58.52a10.28,10.28,0,0,1-4.13,1.53l-.31-.9a9.23,9.23,0,0,0,3.75-1.23,7.47,7.47,0,0,1-1.5-2.4l.78-.36a6.53,6.53,0,0,0,1.4,2.23,6.56,6.56,0,0,0,1.46-2.13l.83.28A7.67,7.67,0,0,1,427.69,58,9,9,0,0,0,431.5,59.27ZM426,53.75a10,10,0,0,1-2.71,2.76l-.64-.68a9,9,0,0,0,2.58-2.5Zm5.3-1.43v.84h-8.48v-.84h3.88a3.43,3.43,0,0,0-.41-.81l.93-.28a4.43,4.43,0,0,1,.45,1.09Zm0,3.72-.68.55a17.66,17.66,0,0,0-2.58-2.67l.67-.54A16.6,16.6,0,0,1,431.31,56Z"/><path class="cls-4" d="M441.2,55.73c0,.72-.06,1.43-.12,2.14a10.61,10.61,0,0,1-.17,1.34,1.1,1.1,0,0,1-.25.48,1,1,0,0,1-.43.28,2.51,2.51,0,0,1-.84.1l-.75,0-.21-.84.88,0a1.29,1.29,0,0,0,.56-.07A.35.35,0,0,0,440,59a7.49,7.49,0,0,0,.13-.93c.05-.55.09-1.06.11-1.52h-.83a8,8,0,0,1-3.83,3.55l-.62-.63a7.88,7.88,0,0,0,3.53-2.92H437.3a8.91,8.91,0,0,1-3.91,2.71l-.5-.75a8.41,8.41,0,0,0,3.33-2h-1.51a10.6,10.6,0,0,1-1.56,1l-.53-.7a6.86,6.86,0,0,0,2.5-1.86h-1.29V51.52h6.45V55h-4.17a4.31,4.31,0,0,1-.55.74Zm-1.83-2.88V52.3h-4.63v.55Zm0,1.38v-.59h-4.63v.59Z"/><path class="cls-4" d="M254.61,75.2l-.42.83c-.49-.2-.83-.33-1-.41v.68h-2.54v1.39h2.46v.86h-2.46V80h3.66v.85H246V80h3.7V78.55h-2.52v-.86h2.52V76.3h-2.56v-.76c-.3.14-.64.28-1,.42l-.41-.82A10.18,10.18,0,0,0,249,73.35h-.79V72.5h2.46A7.33,7.33,0,0,0,254.61,75.2Zm-1.83.22a7.6,7.6,0,0,1-2.59-2,8.55,8.55,0,0,1-2.77,2Z"/><path class="cls-4" d="M259,78.66a22.06,22.06,0,0,1-2.92,1.7l-.33-.84a11,11,0,0,0,1.19-.58V76.47H256v-.81h.94v-2h-1.06v-.84h3v.84h-1.08v2h.93v.81h-.93v2a8.9,8.9,0,0,0,1.07-.64Zm2-.41a15.61,15.61,0,0,1-2.12,2.1l-.57-.69a15.77,15.77,0,0,0,2.14-2.07Zm3.68,1.31-.54.71A7.13,7.13,0,0,1,262,77.05v3.09a.85.85,0,0,1-.16.52,1.08,1.08,0,0,1-.37.32,1.51,1.51,0,0,1-.6.09l-.8,0-.28-.86c.17,0,.52,0,1,0a.3.3,0,0,0,.19-.09.23.23,0,0,0,.11-.18V74.76h-2.36v-.83h2.36V72.32H262v1.61h2.48v.83H262v.3a9,9,0,0,0,.52,1.41,5.9,5.9,0,0,0,1.21-1.4l.66.62a7.35,7.35,0,0,1-1.5,1.57A6.77,6.77,0,0,0,264.63,79.56Zm-3.82-2.71-.77.43a7.37,7.37,0,0,0-1.2-1.79l.77-.46A7.37,7.37,0,0,1,260.81,76.85Zm3.38-3.55-.72.54a4.51,4.51,0,0,0-.9-1l.68-.55A4.54,4.54,0,0,1,264.19,73.3Z"/><path class="cls-4" d="M267.56,82.28a6.66,6.66,0,0,1-1.66-4.61A7,7,0,0,1,267.56,73h1a7.26,7.26,0,0,0-1.63,4.67,7.06,7.06,0,0,0,1.63,4.61Z"/><path class="cls-4" d="M277.63,73.28q0,1.62-.06,3.21a11.34,11.34,0,0,1-.17,1.86.83.83,0,0,1-.35.42,1.53,1.53,0,0,1-.79.16h-.57l-.25-.88.89,0a.22.22,0,0,0,.19-.1,4.11,4.11,0,0,0,.14-1.16c0-.7.06-1.59.07-2.68h-5.22a10.47,10.47,0,0,1-1.59,1.6l-.62-.65a8.73,8.73,0,0,0,2.4-2.81l.87.24-.47.78Zm.38,6.07a3,3,0,0,1-.27,1.18,1,1,0,0,1-.9.46c-.45,0-1.19,0-2.21,0-1.53,0-2.51,0-2.92,0a1.3,1.3,0,0,1-.85-.29,1.16,1.16,0,0,1-.24-.82V75.24h4.53v2.94H271.5v1.74c0,.12.12.19.34.21s.94,0,2.16,0c1.69,0,2.62,0,2.81,0s.29-.39.32-1.13Zm-3.78-2V76.08H271.5v1.23Z"/><path class="cls-4" d="M282.36,77a8.5,8.5,0,0,1-1,.48V80.3a.61.61,0,0,1-.26.57,2.84,2.84,0,0,1-1.34.19l-.36-.86a4.92,4.92,0,0,0,1,0q.09,0,.09-.18V77.86c-.45.18-.78.3-1,.37l-.22-.84,1.22-.46V74.7h-1.18v-.85h1.18v-1.5h.87v1.5h.95v.85h-.95v1.82a8.32,8.32,0,0,0,.93-.46ZM288,75.78h-2.38v1.37h1.9v3.93h-.87v-.52h-2.95v.54h-.89V77.15h1.94V75.78h-2.38V75h2.38V73.54c-.47.06-1.1.11-1.91.14l-.29-.86a18.89,18.89,0,0,0,4.71-.53l.5.77a13.59,13.59,0,0,1-2.14.41V75H288Zm-1.35,4V78h-2.95v1.75Z"/><path class="cls-4" d="M298,78.43a4.34,4.34,0,0,1-.35,2,1.09,1.09,0,0,1-.89.49c-.38,0-1.23,0-2.56,0-.57,0-1.12,0-1.64,0s-.95,0-1.26,0a1.86,1.86,0,0,1-.62-.1.8.8,0,0,1-.27-.22.91.91,0,0,1-.2-.36,1.33,1.33,0,0,1-.08-.45v-5H291v1.1h5.24V73.43h-6.72v-.87h7.64v4.16H291v3a.3.3,0,0,0,.27.34c.18,0,1.49,0,3.94,0a10.89,10.89,0,0,0,1.42,0c.14,0,.24-.16.31-.38a7.3,7.3,0,0,0,.12-1.57Z"/><path class="cls-4" d="M303.35,75.74h-2.86v5.34h-.9V72.57h3.76Zm-.9-1.93v-.42h-2v.42Zm0,1.17v-.43h-2V75Zm4.09,3.74h-1.4v2.17h-.89V78.72h-1.18a3,3,0,0,1-1.3,2.19l-.74-.6a2.29,2.29,0,0,0,1.12-1.59h-1.39v-.84h1.47v-.82h-1.16v-.83h5.18v.83h-1.11v.82h1.4Zm-2.29-.84v-.82h-1.11v.82Zm3.51,2.43a.69.69,0,0,1-.24.55,2.61,2.61,0,0,1-1.34.2h-.36l-.23-1a3.6,3.6,0,0,0,.86.09.85.85,0,0,0,.35-.05c.05,0,.07-.1.07-.21V75.74H304V72.57h3.75Zm-.89-6.5v-.42h-1.95v.42Zm0,1.17v-.43h-1.95V75Z"/><path class="cls-4" d="M313.47,73.26a6.26,6.26,0,0,1-2.25,1.91H313v2.27h-2l-.1.87h2.19A8.34,8.34,0,0,1,313,80.2a1,1,0,0,1-.47.7,3.37,3.37,0,0,1-1.3.16h-.81l-.3-.82c.34,0,.9,0,1.67,0,.32,0,.47-.41.47-1.21H310l.29-2.37h1.9v-.76H310.5v-.42a5.42,5.42,0,0,1-.82.32l-.41-.73a9.44,9.44,0,0,0,1.47-.6,7.51,7.51,0,0,0-.86-.45l.59-.62a9.5,9.5,0,0,1,1.09.58,4.43,4.43,0,0,0,.85-.75h-2.25v-.78h3.31Zm4.66,1.87-.45.7a7.16,7.16,0,0,1-.92-.47v1c0,.11.06.16.17.16h.89v.76h-1.17a.64.64,0,0,1-.72-.74v-.61h-1a1.77,1.77,0,0,1-1.15,1.62l-.54-.66a1.57,1.57,0,0,0,.63-.45,1.44,1.44,0,0,0,.23-.91v-.37h2.31a6.26,6.26,0,0,1-2.55-2.66l.79-.25a3.06,3.06,0,0,0,.51.8,4.1,4.1,0,0,0,.76-.8l.72.45a5.81,5.81,0,0,1-.93.93,4.31,4.31,0,0,0,.45.38,7.23,7.23,0,0,0,1-.93l.69.44a6.21,6.21,0,0,1-1,1A7.91,7.91,0,0,0,318.13,75.13Zm-.19,5.44-.62.56a17.07,17.07,0,0,0-1.47-1,6.38,6.38,0,0,1-2.13,1l-.44-.73a5.62,5.62,0,0,0,1.78-.72c-.53-.31-1-.55-1.35-.73l.51-.53h-.59v-.77h3.74v.77a8.31,8.31,0,0,1-.88,1.13C317,79.9,317.48,80.23,317.94,80.57Zm-1.6-2.12h-1.88c.46.23.89.46,1.31.7A4.39,4.39,0,0,0,316.34,78.45Z"/><path class="cls-4" d="M328,74.27h-3.91v1.22h3.33V79.1q0,1.17-1,1.17h-1.2l-.29-.92c.45,0,.87,0,1.26,0a.32.32,0,0,0,.18-.06.23.23,0,0,0,.08-.16V76.38h-2.4v4.68h-.91V76.38h-2.39v3.88h-.91V75.49h3.3V74.27h-3.88V73.4h3.9a5,5,0,0,0-.54-.89l1-.24a9.1,9.1,0,0,1,.61,1.13H328Z"/><path class="cls-4" d="M332.07,75.38h-.84V77.5c.12-.07.35-.21.67-.43l.13.86a19,19,0,0,1-2.51,1.51l-.28-.81a8.63,8.63,0,0,0,1.15-.6V75.38h-1v-.8h1V72.36h.84v2.22h.84ZM338,77h-3.62a4.35,4.35,0,0,1-.35.5h3.77c0,.73-.06,1.4-.11,2a5.45,5.45,0,0,1-.14,1.08.92.92,0,0,1-.23.31,1,1,0,0,1-.44.19,7.21,7.21,0,0,1-1.2.06l-.28-.81a5.06,5.06,0,0,0,.55,0c.42,0,.67,0,.76-.16a6.75,6.75,0,0,0,.2-2h-.27a5.73,5.73,0,0,1-2.88,2.91l-.62-.58a5.31,5.31,0,0,0,2.65-2.33h-.63a7.21,7.21,0,0,1-3.08,2.29l-.57-.62a7.06,7.06,0,0,0,2.68-1.67h-.86a9.57,9.57,0,0,1-1.09.83l-.57-.62A5.79,5.79,0,0,0,333.48,77h-1.57v-.73H338Zm-.51-1.24h-5.06V72.5h5.06Zm-.85-2v-.52h-3.36v.52Zm0,1.22v-.53h-3.36V75Z"/><path class="cls-4" d="M344.58,79.6a3.77,3.77,0,0,1-2.72,1.09,3,3,0,0,1-1.95-.6,2,2,0,0,1-.72-1.63A2.43,2.43,0,0,1,341,76.19a2,2,0,0,1-.89-1.58,1.57,1.57,0,0,1,.57-1.27,2.31,2.31,0,0,1,1.51-.47,2.18,2.18,0,0,1,1.42.45,1.43,1.43,0,0,1,.55,1.17,1.9,1.9,0,0,1-1.4,1.75,4.56,4.56,0,0,1,2,1.82,4.39,4.39,0,0,0,.84-2.68,2.48,2.48,0,0,0-.1-.73h1a2.38,2.38,0,0,1,.09.7,5.53,5.53,0,0,1-1.33,3.52,3.68,3.68,0,0,0,.65.66,1,1,0,0,0,.59.19,2.25,2.25,0,0,0,.78-.17v1a2.59,2.59,0,0,1-.95.18,1.64,1.64,0,0,1-.88-.24A3.41,3.41,0,0,1,344.58,79.6Zm-.52-.79a4.77,4.77,0,0,0-2.33-2.1,1.83,1.83,0,0,0-1.37,1.7,1.23,1.23,0,0,0,.42,1,1.65,1.65,0,0,0,1.11.36A2.89,2.89,0,0,0,344.06,78.81Zm-2.14-3q1.17-.41,1.17-1.2a.8.8,0,0,0-.27-.63,1,1,0,0,0-.66-.24,1.08,1.08,0,0,0-.74.26.84.84,0,0,0-.28.66A1.3,1.3,0,0,0,341.92,75.78Z"/><path class="cls-4" d="M349.78,78.37a8.88,8.88,0,0,1-1,2l-.72-.54A7.8,7.8,0,0,0,349,78Zm3-.63h-1.87v3.34H350V77.74h-1.84v-.83H350v-.79h-1.74v-.8h1a8.76,8.76,0,0,0-.42-1.14l.6-.31h-1.14v-.8h1.6a2.63,2.63,0,0,0-.3-.61l1-.21a6.2,6.2,0,0,1,.37.82h1.68v.8h-1.08l.62.35a10.29,10.29,0,0,1-.51,1.1h1v.8h-1.71v.79h1.87Zm-1.47-3.87h-1.63a9.51,9.51,0,0,1,.53,1.45h.53A8.1,8.1,0,0,0,351.29,73.87Zm1.29,5.46-.72.41a7.06,7.06,0,0,0-.64-1.5l.74-.34A5.48,5.48,0,0,1,352.58,79.33Zm4.28-3.16H356v4.89h-.87V76.17h-1q0,3.42-1.14,4.9l-.73-.59a6.78,6.78,0,0,0,1-4V73a10.29,10.29,0,0,0,2.82-.74l.61.74a11.94,11.94,0,0,1-2.54.76v1.53h2.79Z"/><path class="cls-4" d="M361.67,79.81a9.55,9.55,0,0,1-3.09,1.34l-.44-.82a9.22,9.22,0,0,0,2.82-1.1Zm5.2-.74h-8.7v-.83h.61l-.2-5.45a5.74,5.74,0,0,0,1.56-.56l.35.79a4.36,4.36,0,0,1-1,.42l0,1h.8v.79h-.77l0,1.08h.74v.79h-.72l.05,1.14h1V72.56h3.68v5.68h1l.05-1.15h-.74v-.81h.76l0-1.06h-.8v-.81h.84l0-1h-.94v-.84h1.83l-.21,5.71h.63Zm-3.29-.83V73.35h-2.14v4.89Zm-.24-3.68h-1.68v-.75h1.68Zm-.09,3.1h-1.47V75.08h1.47Zm-.6-.75V75.83h-.3v1.08Zm4.25,3.54-.54.71a20.36,20.36,0,0,0-2.92-1.25l.56-.69A17.29,17.29,0,0,1,366.9,80.45Z"/><path class="cls-4" d="M376.87,74.27H373v1.22h3.33V79.1q0,1.17-1,1.17h-1.2l-.29-.92c.45,0,.87,0,1.26,0a.27.27,0,0,0,.17-.06.21.21,0,0,0,.09-.16V76.38H373v4.68h-.91V76.38h-2.39v3.88h-.91V75.49h3.3V74.27h-3.88V73.4h3.9a5.72,5.72,0,0,0-.54-.89l1-.24a9.1,9.1,0,0,1,.61,1.13h3.76Z"/><path class="cls-4" d="M380.9,75.38h-.84V77.5c.12-.07.34-.21.66-.43l.14.86a19,19,0,0,1-2.51,1.51l-.28-.81a8.63,8.63,0,0,0,1.15-.6V75.38h-1v-.8h1V72.36h.84v2.22h.84Zm6,1.58h-3.62a4.35,4.35,0,0,1-.35.5h3.77c0,.73-.06,1.4-.11,2a5.45,5.45,0,0,1-.14,1.08,1.08,1.08,0,0,1-.23.31,1,1,0,0,1-.44.19,7.21,7.21,0,0,1-1.2.06l-.28-.81a5,5,0,0,0,.55,0c.42,0,.67,0,.76-.16a6.75,6.75,0,0,0,.2-2h-.27a5.73,5.73,0,0,1-2.88,2.91l-.62-.58a5.31,5.31,0,0,0,2.65-2.33H384a7.21,7.21,0,0,1-3.08,2.29l-.57-.62a7.06,7.06,0,0,0,2.68-1.67h-.86a9.57,9.57,0,0,1-1.09.83l-.57-.62A5.79,5.79,0,0,0,382.31,77h-1.57v-.73h6.12Zm-.51-1.24h-5.06V72.5h5.06Zm-.85-2v-.52h-3.36v.52Zm0,1.22v-.53h-3.36V75Z"/><path class="cls-4" d="M387.58,82.28a7.05,7.05,0,0,0,1.64-4.61A7.29,7.29,0,0,0,387.58,73h1a7,7,0,0,1,1.66,4.67,6.69,6.69,0,0,1-1.67,4.61Z"/><path class="cls-4" d="M254.32,99.6h-3.91q-.87,2-4.17,2.55l-.43-.86c1.94-.34,3.14-.9,3.59-1.69h-3.35v-.73h3.6a2.84,2.84,0,0,0,.07-.66h.9c0,.27,0,.49,0,.66h3.74Zm.2-1.67h-8.68V97.2h3.88v-.64h-3v-.71h3v-.61h-3.47v-.72h7.83v.72h-3.45v.61h3v.71h-3v.64h3.89Zm-5.19-3.74-.93.24a6,6,0,0,0-.73-.87l.89-.29A5.69,5.69,0,0,1,249.33,94.19Zm5.3,7.28-.55.69a15,15,0,0,0-3.73-1.52l.54-.75A15.87,15.87,0,0,1,254.63,101.47Zm-1.83-8a6,6,0,0,1-.69.92l-1-.24a5.87,5.87,0,0,0,.74-.89Z"/><path class="cls-4" d="M264.54,99.5a7.14,7.14,0,0,1-.19,1.65,1.09,1.09,0,0,1-.52.7,3.22,3.22,0,0,1-1.3.18q-.63,0-1,0a1,1,0,0,1-.57-.23.7.7,0,0,1-.22-.56v-4h-1.54a6.63,6.63,0,0,1-.74,3.11,5,5,0,0,1-2.12,1.8l-.65-.74a4.07,4.07,0,0,0,1.94-1.45,5.35,5.35,0,0,0,.64-2.72H256v-.87h8.42v.87h-2.69v3.67c0,.11,0,.18.1.21a3.54,3.54,0,0,0,.82,0,2,2,0,0,0,.7-.07.32.32,0,0,0,.18-.2,4.76,4.76,0,0,0,.1-.59,11.15,11.15,0,0,0,.07-1.18Zm-.77-5.06h-7.2v-.88h7.2Z"/><path class="cls-4" d="M271.37,98.12l-.67.65a8,8,0,0,0-1.68-1.5l.66-.66A8.66,8.66,0,0,1,271.37,98.12Z"/><path class="cls-4" d="M284.58,101.4l-.58.73a11,11,0,0,1-3.84-4.64,7.74,7.74,0,0,1-3.83,4.59l-.6-.73q3.94-2.44,3.94-6.41V93.35h.95V95.4a5.53,5.53,0,0,0,1.09,3.2A11.44,11.44,0,0,0,284.58,101.4Z"/><path class="cls-4" d="M294.61,100.1c-.36,1.33-.91,2-1.65,2a2.49,2.49,0,0,1-1.66-1A5.79,5.79,0,0,1,290,98.38h-2.67V101a26.51,26.51,0,0,0,2.67-.7l.08.92a35.84,35.84,0,0,1-3.66.88l-.3-.9a.4.4,0,0,0,.28-.42V93.56h7.29v2.79h-3a7.22,7.22,0,0,0,.07,1.17h3.52v.86H291a4.64,4.64,0,0,0,.93,2c.44.52.78.79,1,.79a.39.39,0,0,0,.25-.08,1.32,1.32,0,0,0,.3-.51,4.42,4.42,0,0,0,.32-1Zm-1.84-4.63v-1h-5.43v1Zm-2.9,2c0-.34-.08-.73-.1-1.17h-2.43v1.17Z"/><path class="cls-4" d="M297.4,94.37l-.72.35a11,11,0,0,0-.73-.94l.69-.35C296.86,93.68,297.12,94,297.4,94.37Zm2.81,3.15a.76.76,0,0,1-.2.5c-.14.16-.5.22-1.08.19l-.23-.76a4.17,4.17,0,0,0,.52,0q.18,0,.18-.21V95.64h-.89v2.52h-.82V95.64h-.91v2.69H296V94.85h1.72v-1.5h.82v1.5h1.7Zm3.58,3.31a.74.74,0,0,1-.27.67,1.93,1.93,0,0,1-1,.18c-.23,0-.46,0-.67,0l-.25-.85h1.12c.12,0,.17-.06.17-.19V99.7h-2.33v2.36h-.87V99.7h-2.35v1.94h-.87V98.91h3.22v-.54h.87v.54h3.21ZM297.54,96a10.73,10.73,0,0,1-.23,1.55l-.46-.12a14,14,0,0,0,.23-1.51Zm1.76,1-.46.16a7.94,7.94,0,0,0-.24-1.2l.46-.12A5.69,5.69,0,0,1,299.3,97Zm1.06-3.18a8.79,8.79,0,0,1-.88.85l-.76-.37a5.31,5.31,0,0,0,.92-.86Zm4.19,3.91-.38.74a6.88,6.88,0,0,1-1.6-.81,4.73,4.73,0,0,1-1.79.76l-.39-.76a3.68,3.68,0,0,0,1.52-.52,4.64,4.64,0,0,1-.68-1l.64-.44a3.43,3.43,0,0,0,.64.84,3.58,3.58,0,0,0,.51-1.47H301.7a6.59,6.59,0,0,1-.85,1.12l-.51-.65a6.73,6.73,0,0,0,1.34-2.36l.79.18a6,6,0,0,1-.34.87h2.36v.84h-.66a4.14,4.14,0,0,1-.71,2A4.33,4.33,0,0,0,304.55,97.77Z"/><path class="cls-4" d="M307.56,103.28a6.66,6.66,0,0,1-1.66-4.61A7,7,0,0,1,307.56,94h1a7.26,7.26,0,0,0-1.63,4.67,7.06,7.06,0,0,0,1.63,4.61Z"/><path class="cls-4" d="M312.24,95.78h-.88v1.29a7.13,7.13,0,0,0,.72-.41l.09.89c-.14.1-.41.25-.81.47v3.2a.87.87,0,0,1-.14.52.67.67,0,0,1-.34.25,2.54,2.54,0,0,1-.75.07l-.44,0-.23-.84a2.93,2.93,0,0,0,.89,0,.2.2,0,0,0,.12-.21v-2.5a10.18,10.18,0,0,1-1,.46l-.23-.83c.38-.16.78-.34,1.19-.56V95.78h-1.09v-.84h1.09V93.35h.89v1.59h.88Zm5.92,5.25-.5.78a11.08,11.08,0,0,1-2.08-2.56v2.82h-.88V99.21a11.06,11.06,0,0,1-2.44,2.56l-.53-.72a9.35,9.35,0,0,0,2.51-2.53h-1.93v-.83h2.39V97h.88v.7H318v.83H316A9.38,9.38,0,0,0,318.16,101Zm-.45-7a29.3,29.3,0,0,1-5,.71l-.34-.83a25.13,25.13,0,0,0,4.88-.65ZM314.07,97l-.83.26a11.1,11.1,0,0,0-.79-1.82l.81-.32A8.29,8.29,0,0,1,314.07,97Zm1.72-.47-.83.24a10.47,10.47,0,0,0-.6-1.71l.86-.27A13.36,13.36,0,0,1,315.79,96.48ZM318,94.92a13.78,13.78,0,0,1-1,2.38l-.83-.35a11.32,11.32,0,0,0,1-2.3Z"/><path class="cls-4" d="M327.94,94.81h-8.46v-.76h3.85a3.42,3.42,0,0,0-.3-.62l.88-.16a5.58,5.58,0,0,1,.33.78h3.7Zm-.37,6.48a.69.69,0,0,1-.27.56,2.55,2.55,0,0,1-1.34.23l-.32-.86.57,0a1,1,0,0,0,.4,0,.14.14,0,0,0,.08-.14V98.58h-6v3.5h-.87V97.83h7.77Zm-1-4h-5.85v-2h5.85Zm-.82,3.75h-4.16v-2h4.16Zm-.1-4.46V96h-4v.62Zm-.78,3.77v-.63H322.5v.63Z"/><path class="cls-4" d="M338,94.78h-7v3.28a7.23,7.23,0,0,1-1,4l-.75-.5a6.36,6.36,0,0,0,.89-3.54V94h3.28a4.68,4.68,0,0,0-.38-.52l1-.21.42.73H338Zm.06,6.45-.27.85a10.48,10.48,0,0,1-3.37-.75,11.79,11.79,0,0,1-3.06.77l-.41-.84a8.45,8.45,0,0,0,2.5-.46,3.62,3.62,0,0,1-1.34-1.48h-.44v-.79H337v.79a5,5,0,0,1-1.55,1.48A8.57,8.57,0,0,0,338.09,101.23Zm-.16-4.74h-1.46V98H332.6V96.49h-1.2v-.78h1.2v-.59h.86v.59h2.13v-.59h.88v.59h1.46Zm-2.11,2.83h-2.65a3.78,3.78,0,0,0,1.24,1.11A5.08,5.08,0,0,0,335.82,99.32Zm-.23-2.13v-.7h-2.13v.7Z"/><path class="cls-4" d="M348.16,101.16l-.26.86c-1.38,0-2.57,0-3.56,0a7.28,7.28,0,0,1-2.25-.3,3.48,3.48,0,0,1-1.28-.82,7.06,7.06,0,0,1-1,1.31l-.64-.51a5.23,5.23,0,0,0,1.44-2.84h-1.23V98a10.38,10.38,0,0,0,1.06-1.79h-1.19v-.81h2.1v.81a17.45,17.45,0,0,1-1,1.79h1.06v.82a5.06,5.06,0,0,1-.33,1.27,2.61,2.61,0,0,0,1,.75,3.77,3.77,0,0,0,1.46.3l2,0Q347.19,101.19,348.16,101.16Zm-6.76-6.61-.65.63a5.93,5.93,0,0,0-1.25-1.28l.62-.63A8.49,8.49,0,0,1,341.4,94.55Zm3.19,6h-1.84V98.27a7,7,0,0,1-.62,2.12l-.64-.62a9.11,9.11,0,0,0,.57-3.57V93.59h2.4v2.76h-1.59l0,.9h1.75Zm-.94-4.91V94.35h-.78v1.26Zm.23,4.17V98h-.42v1.78ZM348,97.32h-1.25v1h1.06v.76h-1.06v1.65h-.86V99.07H345v-.76h.9v-1h-1.13v-.77h.63a11.31,11.31,0,0,0-.41-1.31l.53-.25h-.68v-.78h1l-.31-.7.8-.25a7.2,7.2,0,0,1,.36.95h1.11V95H347l.56.26a12.16,12.16,0,0,1-.29,1.3H348ZM346.8,95h-1.06a12.54,12.54,0,0,1,.45,1.56h.3C346.62,96,346.73,95.48,346.8,95Z"/><path class="cls-4" d="M352,94.39s-.06.29-.17.74a12.55,12.55,0,0,1-.42,1.31A4.45,4.45,0,0,1,352,98.6a1.48,1.48,0,0,1-.33,1.12,1.17,1.17,0,0,1-.84.3h-.19l-.2-.92a1.71,1.71,0,0,0,.36,0q.39,0,.39-.51a4,4,0,0,0-.75-2.17,11,11,0,0,0,.67-2.1h-.79v7.71h-.85V93.5H352ZM354.9,101l-.56.61a7.18,7.18,0,0,0-.89-.81,8.84,8.84,0,0,1-1.13,1.32l-.71-.53a6,6,0,0,0,1.69-2.25l.8.24a5.83,5.83,0,0,1-.25.55A9.33,9.33,0,0,1,354.9,101Zm3.27-5.54-.47.75a9.24,9.24,0,0,1-1.05-.61v.59h-3.19v-.62a10.83,10.83,0,0,1-1.06.61l-.49-.72a8.12,8.12,0,0,0,3-2.22l.88.27-.12.18A7.49,7.49,0,0,0,358.17,95.48Zm-3.36,3.74h-2.28V96.65h2.28Zm-.82-.8v-1h-.62v1Zm2.29-3a8.36,8.36,0,0,1-1.22-1.06,10.53,10.53,0,0,1-1.28,1.06Zm1.83,6.17-.59.57a13.38,13.38,0,0,0-1.24-1.14,11.15,11.15,0,0,1-.94,1.16l-.68-.52a6.59,6.59,0,0,0,1.52-2.24l.79.23-.31.69A9.74,9.74,0,0,1,358.11,101.56Zm-.47-2.34h-2.32V96.65h2.32Zm-.84-.8v-1h-.64v1Z"/><path class="cls-4" d="M358.76,103.28a7,7,0,0,0,1.63-4.61A7.29,7.29,0,0,0,358.75,94h1a7,7,0,0,1,1.66,4.67,6.64,6.64,0,0,1-1.67,4.61Z"/><path class="cls-4" d="M368.39,98.12l-.66.65a8.52,8.52,0,0,0-1.68-1.5l.65-.66A8.66,8.66,0,0,1,368.39,98.12Z"/><path class="cls-4" d="M374.46,99.37a8.88,8.88,0,0,1-1,2l-.72-.54a7.44,7.44,0,0,0,.92-1.83Zm3-.63h-1.87v3.34h-.88V98.74h-1.84v-.83h1.84v-.79H373v-.8h1c-.1-.32-.24-.71-.42-1.14l.59-.31H373v-.8h1.61a3.19,3.19,0,0,0-.31-.61l1-.21a7.88,7.88,0,0,1,.37.82h1.68v.8h-1.09l.62.35a7.46,7.46,0,0,1-.51,1.1h1v.8h-1.72v.79h1.87ZM376,94.87h-1.62a10.61,10.61,0,0,1,.52,1.45h.54A8.91,8.91,0,0,0,376,94.87Zm1.3,5.46-.73.41a6.58,6.58,0,0,0-.64-1.5l.75-.34A5.84,5.84,0,0,1,377.27,100.33Zm4.27-3.16h-.9v4.89h-.87V97.17h-1q0,3.42-1.15,4.9l-.72-.59a6.78,6.78,0,0,0,1-4V94a10.29,10.29,0,0,0,2.82-.74l.61.74a12,12,0,0,1-2.53.76v1.53h2.78Z"/><path class="cls-4" d="M391.49,101.93h-8.57v-.59h3.82v-.42h-3.2v-.54h3.2V100c-.51,0-1.06,0-1.64,0H384l-.13-.54a4.19,4.19,0,0,0,1.46-.56h-1v-.56h5.83v.56h-.48a8.17,8.17,0,0,1,.91.87l-.67.42-.29-.33-1.93.09v.39h3.27v.54h-3.27v.42h3.84Zm0-7.62h-3.85v.37H391v.54h-7.63v-.54h3.35v-.37h-3.79v-.57h3.79v-.39h.89v.39h3.85Zm-.12,4.54h-.87V98H384v.89h-.9V97.4h8.29ZM390.45,97H384V95.55h6.48Zm-.87-.54v-.39h-4.74v.39Zm-.38,2.46h-2.63a3.85,3.85,0,0,1-1,.57l3.48-.08a1.87,1.87,0,0,0-.31-.24Z"/><path class="cls-4" d="M394.42,94.37l-.72.35a11,11,0,0,0-.73-.94l.69-.35C393.88,93.68,394.14,94,394.42,94.37Zm2.81,3.15a.76.76,0,0,1-.2.5c-.14.16-.49.22-1.08.19l-.23-.76a4.33,4.33,0,0,0,.53,0c.11,0,.17-.07.17-.21V95.64h-.89v2.52h-.82V95.64h-.91v2.69H393V94.85h1.72v-1.5h.82v1.5h1.7Zm3.59,3.31a.75.75,0,0,1-.28.67,1.88,1.88,0,0,1-1,.18c-.24,0-.46,0-.68,0l-.25-.85h1.13c.11,0,.16-.06.16-.19V99.7H397.6v2.36h-.87V99.7h-2.34v1.94h-.87V98.91h3.21v-.54h.87v.54h3.22ZM394.57,96a12.16,12.16,0,0,1-.24,1.55l-.46-.12a11.91,11.91,0,0,0,.23-1.51Zm1.75,1-.45.16a7.94,7.94,0,0,0-.24-1.2l.45-.12A5.69,5.69,0,0,1,396.32,97Zm1.06-3.18a8.79,8.79,0,0,1-.88.85l-.76-.37a5.36,5.36,0,0,0,.93-.86Zm4.19,3.91-.38.74a6.62,6.62,0,0,1-1.59-.81,4.78,4.78,0,0,1-1.8.76l-.39-.76a3.77,3.77,0,0,0,1.53-.52,4.36,4.36,0,0,1-.69-1l.64-.44a3.43,3.43,0,0,0,.64.84,3.58,3.58,0,0,0,.51-1.47h-1.31a6.62,6.62,0,0,1-.86,1.12l-.51-.65a6.73,6.73,0,0,0,1.34-2.36l.79.18a5.89,5.89,0,0,1-.33.87h2.35v.84h-.65a4.25,4.25,0,0,1-.72,2A4.33,4.33,0,0,0,401.57,97.77Z"/><path class="cls-4" d="M404.58,103.28a6.7,6.7,0,0,1-1.65-4.61A7,7,0,0,1,404.58,94h1a7.32,7.32,0,0,0-1.63,4.67,7.12,7.12,0,0,0,1.63,4.61Z"/><path class="cls-4" d="M415.12,99l-.51.73a25.26,25.26,0,0,0-3.49-2.41v4.69h-.93V97a15.38,15.38,0,0,1-3.44,2.71l-.51-.76a11.13,11.13,0,0,0,4.66-4.56h-4.49v-.87h8.5v.87h-3a9.41,9.41,0,0,1-.81,1.42v.49A25,25,0,0,1,415.12,99Z"/><path class="cls-4" d="M425.18,101.16l-.26.86c-1.38,0-2.56,0-3.56,0a7.28,7.28,0,0,1-2.25-.3,3.48,3.48,0,0,1-1.28-.82,7.58,7.58,0,0,1-.95,1.31l-.64-.51a5.28,5.28,0,0,0,1.43-2.84h-1.22V98a11.84,11.84,0,0,0,1.06-1.79h-1.2v-.81h2.1v.81a17.45,17.45,0,0,1-1,1.79h1.06v.82a4.66,4.66,0,0,1-.33,1.27,2.69,2.69,0,0,0,1,.75,3.77,3.77,0,0,0,1.46.3l2,0Q424.21,101.19,425.18,101.16Zm-6.76-6.61-.65.63a5.93,5.93,0,0,0-1.25-1.28l.62-.63A8.49,8.49,0,0,1,418.42,94.55Zm3.19,6h-1.83V98.27a7.34,7.34,0,0,1-.62,2.12l-.65-.62a9.11,9.11,0,0,0,.57-3.57V93.59h2.41v2.76h-1.6l0,.9h1.75Zm-.94-4.91V94.35h-.78v1.26Zm.23,4.17V98h-.42v1.78ZM425,97.32h-1.25v1h1.06v.76h-1.06v1.65h-.86V99.07H422v-.76h.91v-1h-1.14v-.77h.63a9.65,9.65,0,0,0-.41-1.31l.54-.25h-.69v-.78h1l-.31-.7.81-.25a7,7,0,0,1,.35.95h1.11V95H424l.57.26a13,13,0,0,1-.3,1.3H425ZM423.82,95h-1.06a12.54,12.54,0,0,1,.45,1.56h.3A14.8,14.8,0,0,0,423.82,95Z"/><path class="cls-4" d="M429,94.39a6.29,6.29,0,0,1-.17.74,12.55,12.55,0,0,1-.42,1.31,4.45,4.45,0,0,1,.66,2.16,1.53,1.53,0,0,1-.32,1.12,1.2,1.2,0,0,1-.84.3h-.19l-.2-.92a1.56,1.56,0,0,0,.35,0q.39,0,.39-.51a4.06,4.06,0,0,0-.74-2.17,11,11,0,0,0,.66-2.1h-.79v7.71h-.85V93.5H429Zm2.93,6.63-.56.61a7.18,7.18,0,0,0-.89-.81,8.84,8.84,0,0,1-1.13,1.32l-.71-.53a6,6,0,0,0,1.69-2.25l.8.24a4,4,0,0,1-.25.55A9.33,9.33,0,0,1,431.92,101Zm3.28-5.54-.48.75a9.24,9.24,0,0,1-1.05-.61v.59h-3.19v-.62a10.83,10.83,0,0,1-1.06.61l-.48-.72a8.3,8.3,0,0,0,3-2.22l.87.27a1.28,1.28,0,0,1-.12.18A7.44,7.44,0,0,0,435.2,95.48Zm-3.37,3.74h-2.27V96.65h2.27Zm-.82-.8v-1h-.62v1Zm2.3-3a7.39,7.39,0,0,1-1.22-1.06,10.59,10.59,0,0,1-1.29,1.06Zm1.82,6.17-.59.57A13.38,13.38,0,0,0,433.3,101a9,9,0,0,1-.94,1.16l-.67-.52a6.7,6.7,0,0,0,1.51-2.24l.79.23-.31.69A9.74,9.74,0,0,1,435.13,101.56Zm-.47-2.34h-2.32V96.65h2.32Zm-.84-.8v-1h-.64v1Z"/><path class="cls-4" d="M435.78,103.28a7,7,0,0,0,1.63-4.61A7.24,7.24,0,0,0,435.77,94h1a7,7,0,0,1,1.66,4.67,6.64,6.64,0,0,1-1.67,4.61Z"/><path class="cls-4" d="M249.15,121.64a11.7,11.7,0,0,1-2.87,1.29l-.53-.72a10.27,10.27,0,0,0,2.63-1.07Zm5.17-.86-.7.48a5.1,5.1,0,0,0-.53-.62c-.75.09-1.57.16-2.44.2v1.34a1,1,0,0,1-.22.63c-.15.19-.5.28-1.07.28a3.33,3.33,0,0,1-.46,0l-.29-.76a8,8,0,0,0,.91,0c.17,0,.25-.08.25-.23v-1.15c-1.14.08-2.24.11-3.31.11l-.16-.71a11.75,11.75,0,0,0,3.43-1l-2.69.22-.11-.71a5.44,5.44,0,0,0,2-.92h-2.3v-3.4h7.06v3.4h-3.52a6.1,6.1,0,0,1-1.38.87l.92,0,1-.1a2.29,2.29,0,0,0,.79-.18c.14-.07.32-.18.54-.31l.76.41a20.84,20.84,0,0,1-4.13,1.74c1.24,0,2.48-.14,3.72-.29l-.42-.38.71-.46A11.41,11.41,0,0,1,254.32,120.78Zm-4.6-4.91v-.6h-2.16v.6Zm0,1.29v-.6h-2.16v.6Zm3.1-1.29v-.6h-2.21v.6Zm0,1.29v-.6h-2.21v.6Zm1.77,5.15-.53.66a14.68,14.68,0,0,0-2.79-1.27l.62-.63A13.57,13.57,0,0,1,254.59,122.31Z"/><path class="cls-4" d="M259.13,119.35l-.61.58a5.15,5.15,0,0,0-.57-1v4.11h-.87v-3.68a5,5,0,0,1-.86,1.66l-.48-.89a7.47,7.47,0,0,0,1.28-2.59h-1.2v-.85h1.26v-1.18a7.44,7.44,0,0,1-.91.14l-.34-.8a10,10,0,0,0,2.83-.63l.42.73a6.32,6.32,0,0,1-1.13.36v1.38h.77v.85H258v.23A8.38,8.38,0,0,1,259.13,119.35Zm4.91,2.33h-3.16l.5.46a10.94,10.94,0,0,1-2.27,1l-.55-.68a6.31,6.31,0,0,0,1.95-.77h-1V118H264Zm.53-4.1H259v-.68h2.34v-.38h-1.89v-.63h1.89v-.38h-2.1v-.65h2.1v-.49h.86v.49h2.13v.65h-2.13v.38h1.88v.63h-1.88v.38h2.35Zm-1.4,1.51v-.41h-2.81v.41Zm0,1v-.39h-2.81v.39Zm0,1v-.41h-2.81V121Zm1.41,1.44-.36.7a11.24,11.24,0,0,0-2.05-.61l.33-.72A9.42,9.42,0,0,1,264.58,122.48Z"/><path class="cls-4" d="M271.37,119.12l-.67.65a8,8,0,0,0-1.68-1.5l.66-.66A8.66,8.66,0,0,1,271.37,119.12Z"/><path class="cls-4" d="M280.39,115.39h-1.51v1h1.25v6.64h-.81v-.46h-2.47v.46h-.79v-6.64h1.22v-1h-1.46v-.81h4.57Zm-1.07,6.39v-2.22h-.47a.57.57,0,0,1-.44-.18.64.64,0,0,1-.16-.44v-1.71h-.34a4.67,4.67,0,0,1-.63,2.74l-.43-.46v2.27Zm-2.06-4.55h-.41v2.07A3.61,3.61,0,0,0,277.26,117.23Zm1.79,3.76h-1.93v-.75h1.93Zm-.8-4.58v-1h-.33v1Zm1.07,2.35v-1.53h-.44v1.29a.21.21,0,0,0,.24.24Zm5.2,2.06a4.43,4.43,0,0,1-.17,1.57.85.85,0,0,1-.44.5,5.63,5.63,0,0,1-1.45.11,4.21,4.21,0,0,1-1.14-.09.79.79,0,0,1-.36-.29,1,1,0,0,1-.12-.51v-4.48h2.47v-2.2h-2.56v-.85h3.42v3.89H281.7v3.38c0,.14,0,.23.11.26a2.48,2.48,0,0,0,.66,0,2.51,2.51,0,0,0,.91-.09c.1,0,.16-.18.2-.37a10.4,10.4,0,0,0,.07-1.19Z"/><path class="cls-4" d="M287.78,120.51a10.69,10.69,0,0,1-1.29,2.24l-.74-.48a10.63,10.63,0,0,0,1.25-2.12Zm5.7-.6h-6.61v-4.85h1.88a4.23,4.23,0,0,0,.46-.85l1,.18a3.25,3.25,0,0,1-.37.67h3.66Zm-.86-3.47v-.62h-4.89v.62Zm0,1.35v-.63h-4.89v.63Zm0,1.35v-.62h-4.89v.62Zm.12,2.45a1.26,1.26,0,0,1-1.39,1.38h-2.14a1.11,1.11,0,0,1-.75-.25.93.93,0,0,1-.29-.74v-1.71h.88v1.58a.24.24,0,0,0,.14.25,1.52,1.52,0,0,0,.6.07l1.49,0a.59.59,0,0,0,.36-.11c.11-.07.19-.34.23-.81Zm-1.26-.35-.77.47a8.77,8.77,0,0,0-1-1.23l.73-.46A7.13,7.13,0,0,1,291.48,121.24Zm3.17,1.08-.78.43a9.83,9.83,0,0,0-1.38-2.1l.77-.44A10.7,10.7,0,0,1,294.65,122.32Z"/><path class="cls-4" d="M301.37,119.12l-.67.65a8,8,0,0,0-1.68-1.5l.66-.66A8.66,8.66,0,0,1,301.37,119.12Z"/><path class="cls-4" d="M312.42,122.56h-1.31L307.49,117a3.73,3.73,0,0,1-.29-.54h0a8.63,8.63,0,0,1,.05,1.11v5h-1.14V115h1.39l3.51,5.47.33.54h0a9.11,9.11,0,0,1-.05-1.08V115h1.14Z"/><path class="cls-4" d="M317.39,121.64a11.87,11.87,0,0,1-2.87,1.29l-.53-.72a10.27,10.27,0,0,0,2.63-1.07Zm5.17-.86-.7.48a6.18,6.18,0,0,0-.53-.62c-.76.09-1.57.16-2.44.2v1.34a1,1,0,0,1-.22.63c-.15.19-.51.28-1.08.28a3.19,3.19,0,0,1-.45,0l-.29-.76a8,8,0,0,0,.91,0c.16,0,.25-.08.25-.23v-1.15c-1.14.08-2.24.11-3.31.11l-.16-.71a11.84,11.84,0,0,0,3.43-1l-2.69.22-.11-.71a5.51,5.51,0,0,0,2-.92h-2.3v-3.4H322v3.4h-3.52a6.57,6.57,0,0,1-1.38.87l.91,0c.31,0,.65-.06,1-.1a2.22,2.22,0,0,0,.79-.18c.15-.07.33-.18.55-.31l.76.41a21.1,21.1,0,0,1-4.13,1.74c1.24,0,2.48-.14,3.72-.29l-.42-.38.71-.46A11.41,11.41,0,0,1,322.56,120.78Zm-4.6-4.91v-.6H315.8v.6Zm0,1.29v-.6H315.8v.6Zm3.1-1.29v-.6h-2.21v.6Zm0,1.29v-.6h-2.21v.6Zm1.77,5.15-.53.66a15,15,0,0,0-2.79-1.27l.62-.63A13.57,13.57,0,0,1,322.83,122.31Z"/><path class="cls-4" d="M327.37,119.35l-.61.58a5.15,5.15,0,0,0-.57-1v4.11h-.87v-3.68a5.23,5.23,0,0,1-.86,1.66l-.48-.89a7.47,7.47,0,0,0,1.28-2.59h-1.2v-.85h1.26v-1.18a7.44,7.44,0,0,1-.91.14l-.34-.8a10.06,10.06,0,0,0,2.83-.63l.42.73a6.59,6.59,0,0,1-1.13.36v1.38H327v.85h-.77v.23A8.84,8.84,0,0,1,327.37,119.35Zm4.91,2.33h-3.16l.5.46a11.18,11.18,0,0,1-2.27,1l-.55-.68a6.51,6.51,0,0,0,1.95-.77h-1V118h4.55Zm.53-4.1h-5.55v-.68h2.34v-.38h-1.89v-.63h1.89v-.38h-2.1v-.65h2.1v-.49h.86v.49h2.13v.65h-2.13v.38h1.88v.63h-1.88v.38h2.35Zm-1.4,1.51v-.41H328.6v.41Zm0,1v-.39H328.6v.39Zm0,1v-.41H328.6V121Zm1.41,1.44-.36.7a11.48,11.48,0,0,0-2-.61l.33-.72A9.59,9.59,0,0,1,332.82,122.48Z"/><path class="cls-4" d="M335.86,115.89,335,116l.6.72-.42.29-.46-.81-.46.81-.42-.29.59-.72-.84-.15.16-.46.8.31-.1-.92H335l-.09.92.8-.31Z"/><path class="cls-4" d="M338.57,115.89l-.85.15.6.72-.42.29-.46-.81-.46.81-.42-.29.59-.72-.84-.15.16-.46.8.31-.1-.92h.53l-.09.92.8-.31Z"/><path class="cls-4" d="M345,119.12l-.67.65a8,8,0,0,0-1.68-1.5l.66-.66A9,9,0,0,1,345,119.12Z"/><path class="cls-4" d="M356.08,122.56h-1.31L351.15,117a3.73,3.73,0,0,1-.29-.54h0a9.24,9.24,0,0,1,0,1.11v5h-1.13V115h1.38l3.51,5.47c.17.26.28.44.34.54h0a7.35,7.35,0,0,1-.05-1.08V115h1.14Z"/><path class="cls-4" d="M362.29,115.39h-1.51v1H362v6.64h-.81v-.46h-2.47v.46H358v-6.64h1.23v-1h-1.46v-.81h4.57Zm-1.07,6.39v-2.22h-.47a.56.56,0,0,1-.44-.18.6.6,0,0,1-.16-.44v-1.71h-.34a4.67,4.67,0,0,1-.63,2.74l-.43-.46v2.27Zm-2.06-4.55h-.41v2.07A3.61,3.61,0,0,0,359.16,117.23ZM361,121H359v-.75H361Zm-.8-4.58v-1h-.33v1Zm1.07,2.35v-1.53h-.44v1.29a.21.21,0,0,0,.24.24Zm5.2,2.06a4.69,4.69,0,0,1-.17,1.57.84.84,0,0,1-.45.5,5.57,5.57,0,0,1-1.45.11,4.12,4.12,0,0,1-1.13-.09.7.7,0,0,1-.36-.29,1,1,0,0,1-.12-.51v-4.48h2.47v-2.2h-2.56v-.85h3.42v3.89H363.6v3.38c0,.14,0,.23.11.26a2.48,2.48,0,0,0,.66,0,2.44,2.44,0,0,0,.9-.09.47.47,0,0,0,.2-.37,9.68,9.68,0,0,0,.08-1.19Z"/><path class="cls-4" d="M369.68,120.51a11.65,11.65,0,0,1-1.29,2.24l-.74-.48a11.13,11.13,0,0,0,1.25-2.12Zm5.7-.6h-6.61v-4.85h1.88a4.8,4.8,0,0,0,.46-.85l1,.18a3.25,3.25,0,0,1-.37.67h3.66Zm-.86-3.47v-.62h-4.9v.62Zm0,1.35v-.63h-4.9v.63Zm0,1.35v-.62h-4.9v.62Zm.12,2.45a1.26,1.26,0,0,1-1.39,1.38h-2.14a1.08,1.08,0,0,1-.75-.25.93.93,0,0,1-.29-.74v-1.71H371v1.58a.24.24,0,0,0,.13.25,1.55,1.55,0,0,0,.61.07l1.49,0a.63.63,0,0,0,.36-.11c.11-.07.19-.34.23-.81Zm-1.27-.35-.76.47a8.77,8.77,0,0,0-1-1.23l.73-.46A6.66,6.66,0,0,1,373.37,121.24Zm3.18,1.08-.78.43a9.83,9.83,0,0,0-1.38-2.1l.77-.44A11.17,11.17,0,0,1,376.55,122.32Z"/><path class="cls-4" d="M379.52,115.89l-.85.15.59.72-.41.29-.46-.81-.46.81-.42-.29.59-.72-.85-.15.17-.46.8.31-.1-.92h.53l-.09.92.79-.31Z"/><path class="cls-4" d="M382.23,115.89l-.85.15.59.72-.41.29-.46-.81-.46.81-.42-.29.59-.72-.85-.15.17-.46.8.31-.1-.92h.53l-.09.92.79-.31Z"/><path class="cls-4" d="M251.82,143.56h-1.37l-1.23-2.06a2.75,2.75,0,0,0-.66-.82,1.06,1.06,0,0,0-.67-.22h-.64v3.1h-1.17V136h2.41a2.82,2.82,0,0,1,1.82.53A1.85,1.85,0,0,1,251,138a2,2,0,0,1-.45,1.3,2.25,2.25,0,0,1-1.24.76v0a2.69,2.69,0,0,1,1.14,1.19ZM247.25,137v2.52h1a1.45,1.45,0,0,0,1-.38,1.27,1.27,0,0,0,.39-1c0-.79-.47-1.18-1.41-1.18Z"/><path class="cls-4" d="M258.47,143.56h-1.38l-1.23-2.06a2.92,2.92,0,0,0-.65-.82,1.11,1.11,0,0,0-.68-.22h-.63v3.1h-1.18V136h2.41a2.8,2.8,0,0,1,1.82.53,1.82,1.82,0,0,1,.64,1.5,2,2,0,0,1-.44,1.3,2.29,2.29,0,0,1-1.24.76v0a2.69,2.69,0,0,1,1.14,1.19ZM253.9,137v2.52h1a1.42,1.42,0,0,0,1-.38,1.27,1.27,0,0,0,.39-1c0-.79-.47-1.18-1.4-1.18Z"/><path class="cls-4" d="M259.14,142.18a2.81,2.81,0,0,0,1.76.59,1.78,1.78,0,0,0,1.16-.35,1.19,1.19,0,0,0,.44-1c0-.89-.65-1.33-1.94-1.33h-.65v-.93h.61c1.15,0,1.73-.41,1.73-1.24s-.44-1.16-1.32-1.16a2.51,2.51,0,0,0-1.5.52v-1a3.46,3.46,0,0,1,1.77-.43,2.51,2.51,0,0,1,1.6.5,1.62,1.62,0,0,1,.62,1.33,1.81,1.81,0,0,1-1.51,1.9v0a2,2,0,0,1,1.28.58,1.68,1.68,0,0,1,.49,1.21,2,2,0,0,1-.77,1.67,3.07,3.07,0,0,1-2,.61,3.43,3.43,0,0,1-1.78-.4Z"/><path class="cls-4" d="M266.87,136.89,266,137l.6.72-.42.29-.46-.81-.46.81-.42-.29.59-.72-.84-.15.16-.46.8.31-.09-.92H266l-.09.92.79-.31Z"/><path class="cls-4" d="M250.5,164.56h-4.45v-.95h1.65v-5.47l-1.69.46v-1l2.84-.75v6.76h1.65Z"/><path class="cls-4" d="M251.64,164a.66.66,0,0,1,.21-.5.78.78,0,0,1,1,0,.65.65,0,0,1,.22.5.63.63,0,0,1-.21.48.71.71,0,0,1-.53.21.72.72,0,0,1-.5-.2A.65.65,0,0,1,251.64,164Z"/><path class="cls-4" d="M254.52,163.28a2.94,2.94,0,0,0,1.6.49,1.73,1.73,0,0,0,1.19-.4,1.36,1.36,0,0,0,.46-1.08c0-.95-.61-1.42-1.82-1.42-.28,0-.69,0-1.2.07V157h3.84v1h-2.81v2l.64,0a2.7,2.7,0,0,1,1.84.6,2.13,2.13,0,0,1,.68,1.67,2.28,2.28,0,0,1-.76,1.81,2.89,2.89,0,0,1-2,.68,3.54,3.54,0,0,1-1.66-.32Z"/><path class="cls-4" d="M260,160.93a5.48,5.48,0,0,1,.69-3,2.23,2.23,0,0,1,2-1c1.64,0,2.47,1.29,2.47,3.87a5.27,5.27,0,0,1-.68,2.92,2.18,2.18,0,0,1-2,1,2.09,2.09,0,0,1-1.87-1A5.1,5.1,0,0,1,260,160.93Zm1.17-.05c0,1.93.47,2.89,1.4,2.89s1.39-1,1.39-3-.46-3-1.36-3S261.2,158.82,261.2,160.88Z"/><path class="cls-4" d="M266,158.92a2.1,2.1,0,0,1,.5-1.49,1.77,1.77,0,0,1,1.35-.54,1.6,1.6,0,0,1,1.27.51,2,2,0,0,1,.46,1.4,2.05,2.05,0,0,1-.51,1.45,1.73,1.73,0,0,1-1.34.56,1.62,1.62,0,0,1-1.26-.52A1.92,1.92,0,0,1,266,158.92Zm.85,0a1.41,1.41,0,0,0,.25.91.82.82,0,0,0,.69.32c.63,0,.95-.42.95-1.27s-.31-1.24-.92-1.24a.86.86,0,0,0-.72.33A1.56,1.56,0,0,0,266.86,158.87ZM273,157l-4.87,7.6h-.94L272,157Zm-2.38,5.79a2.11,2.11,0,0,1,.51-1.49,1.74,1.74,0,0,1,1.34-.55,1.62,1.62,0,0,1,1.28.51,2.37,2.37,0,0,1-.06,2.86,1.72,1.72,0,0,1-1.33.56,1.64,1.64,0,0,1-1.27-.53A2,2,0,0,1,270.58,162.79Zm.85,0a1.41,1.41,0,0,0,.25.91.85.85,0,0,0,.69.32c.63,0,.95-.43.95-1.28a1.45,1.45,0,0,0-.25-.91.81.81,0,0,0-.67-.32C271.75,161.46,271.43,161.89,271.43,162.74Z"/><path class="cls-4" d="M245.56,181.93a5.48,5.48,0,0,1,.68-3,2.23,2.23,0,0,1,2-1q2.47,0,2.47,3.87a5.27,5.27,0,0,1-.68,2.92,2.16,2.16,0,0,1-1.95,1,2.07,2.07,0,0,1-1.86-1A5.1,5.1,0,0,1,245.56,181.93Zm1.16-.05c0,1.93.47,2.89,1.4,2.89s1.39-1,1.39-3-.45-3-1.36-3S246.72,179.82,246.72,181.88Z"/><path class="cls-4" d="M251.64,185a.66.66,0,0,1,.21-.5.78.78,0,0,1,1,0,.65.65,0,0,1,.22.5.63.63,0,0,1-.21.48.71.71,0,0,1-.53.21.72.72,0,0,1-.5-.2A.65.65,0,0,1,251.64,185Z"/><path class="cls-4" d="M258.89,185.56h-4.7v-.95l2.19-2.16a8,8,0,0,0,1.08-1.24,2,2,0,0,0,.35-1.14c0-.84-.44-1.26-1.33-1.26a2.81,2.81,0,0,0-1.91.84v-1.1a3.49,3.49,0,0,1,2.12-.68,2.37,2.37,0,0,1,1.65.56,1.93,1.93,0,0,1,.62,1.51,2.76,2.76,0,0,1-.39,1.38,7.78,7.78,0,0,1-1.36,1.63l-1.68,1.6v0h3.36Z"/><path class="cls-4" d="M260.47,184.28a3,3,0,0,0,1.61.49,1.75,1.75,0,0,0,1.19-.4,1.39,1.39,0,0,0,.46-1.08c0-.95-.61-1.42-1.82-1.42-.29,0-.69,0-1.21.07V178h3.85v1h-2.82v2l.64,0a2.66,2.66,0,0,1,1.84.6,2.09,2.09,0,0,1,.68,1.67,2.31,2.31,0,0,1-.75,1.81,2.89,2.89,0,0,1-2,.68,3.6,3.6,0,0,1-1.66-.32Z"/><path class="cls-4" d="M266,179.92a2.1,2.1,0,0,1,.5-1.49,1.77,1.77,0,0,1,1.35-.54,1.6,1.6,0,0,1,1.27.51,2,2,0,0,1,.46,1.4,2.05,2.05,0,0,1-.51,1.45,1.73,1.73,0,0,1-1.34.56,1.62,1.62,0,0,1-1.26-.52A1.92,1.92,0,0,1,266,179.92Zm.85,0a1.41,1.41,0,0,0,.25.91.82.82,0,0,0,.69.32c.63,0,.95-.42.95-1.27s-.31-1.24-.92-1.24a.86.86,0,0,0-.72.33A1.56,1.56,0,0,0,266.86,179.87ZM273,178l-4.87,7.6h-.94L272,178Zm-2.38,5.79a2.11,2.11,0,0,1,.51-1.49,1.74,1.74,0,0,1,1.34-.55,1.62,1.62,0,0,1,1.28.51,2.37,2.37,0,0,1-.06,2.86,1.72,1.72,0,0,1-1.33.56,1.64,1.64,0,0,1-1.27-.53A2,2,0,0,1,270.58,183.79Zm.85,0a1.41,1.41,0,0,0,.25.91.85.85,0,0,0,.69.32c.63,0,.95-.43.95-1.28a1.45,1.45,0,0,0-.25-.91.81.81,0,0,0-.67-.32C271.75,182.46,271.43,182.89,271.43,183.74Z"/><path class="cls-4" d="M249.57,202.8a4.13,4.13,0,0,1-3.32,4.32l-.43-.82c1.8-.47,2.74-1.51,2.82-3.11a20.83,20.83,0,0,1-2.48,1.56l-.45-.8a17.56,17.56,0,0,0,2.95-1.82V198.4h.91Zm-1.35-1.31-.76.43a12.78,12.78,0,0,0-1.46-2.3l.76-.47A12.44,12.44,0,0,1,248.22,201.49Zm6.35,2.42-.55.71a14.89,14.89,0,0,0-2.4-1.58v2.86a.2.2,0,0,0,.12.19,3.4,3.4,0,0,0,.78,0,1.88,1.88,0,0,0,.76-.09.75.75,0,0,0,.25-.38,2.67,2.67,0,0,0,.1-.84l.89.36a4.13,4.13,0,0,1-.31,1.26,1,1,0,0,1-.47.45,3.85,3.85,0,0,1-1.28.13,5.35,5.35,0,0,1-1.13-.07.82.82,0,0,1-.44-.27.74.74,0,0,1-.18-.48V198.4h.91v2.17a7.63,7.63,0,0,0,1.94-1.38l.77.48a7.9,7.9,0,0,1-2.71,1.87v.53A17.58,17.58,0,0,1,254.57,203.91Z"/><path class="cls-4" d="M264.54,206.94h-8.73v-.65h2.38a3.41,3.41,0,0,0-.33-.72h-1v-1.75h6.72v1.75h-1.08a6.84,6.84,0,0,1-.36.72h2.44Zm-.45-4.59H256.3v-3.78h.81v3.16h1v-.42h-.66v-.55h.66v-.41h-.58v-.5h.58v-.4h-.66v-.54h.66v-.47h.73v.47h.65v.54h-.65v.4h.58v.5h-.58v.41h.65v.55h-.65v.42h1v-3.37h.8v3.37h1v-.42h-.69v-.55h.69v-.41H261v-.5h.57v-.4h-.69v-.54h.69v-.47h.72v.47h.67v.54h-.67v.4h.57v.5h-.58v.41h.66v.55h-.66v.42h1v-3.14h.81Zm-.24,1.05h-7.32v-.64h7.32Zm-1.2,1.55v-.5h-4.94v.5Zm-1.14.62h-2.66c.11.21.21.45.32.72h2A4.17,4.17,0,0,0,261.51,205.57Z"/><path class="cls-4" d="M269.75,200.29l-.55.66-.19-.24v.77h-.88v.74h1.37V203h-1.37v2.64a10.91,10.91,0,0,0,1.38-.33l0,.84a36.62,36.62,0,0,1-3.6.75l-.19-.82a13.38,13.38,0,0,0,1.54-.26V203H266v-.81h1.33v-.74h-.78V201a1.75,1.75,0,0,1-.34.29l-.46-.75a8,8,0,0,0,1.81-2.27l.85.26a.68.68,0,0,1-.12.24A12.41,12.41,0,0,1,269.75,200.29ZM267,205.41l-.75.24a11.49,11.49,0,0,0-.32-2.09l.76-.18A15.92,15.92,0,0,1,267,205.41Zm1.93-4.76a10,10,0,0,0-1.14-1.18,12.88,12.88,0,0,1-.93,1.18Zm.53,2.95a8.13,8.13,0,0,1-.42,1.69l-.69-.24a11.09,11.09,0,0,0,.4-1.64Zm4.5-.87h-3.17v3.21a8.14,8.14,0,0,0,1.23-.48l.15.83a17.16,17.16,0,0,1-2.12.81l-.31-.75a.28.28,0,0,0,.18-.26v-7.5h4Zm-.89-2.49v-.82h-2.28v.82Zm0,1.66V201h-2.28v.87Zm1.52,4.58-.59.65a7.31,7.31,0,0,1-2.49-3.91l.81-.29a10.73,10.73,0,0,0,.38,1.11,4.86,4.86,0,0,0,1-1l.72.45a6.66,6.66,0,0,1-1.35,1.37A6.57,6.57,0,0,0,274.61,206.48Z"/><path class="cls-4" d="M278.83,198.65a8.81,8.81,0,0,1-2.67,2.38l-.43-.86a6.92,6.92,0,0,0,2.23-1.92Zm.21,1.85a14.65,14.65,0,0,1-1,1.48v5.09h-.93v-4a5.75,5.75,0,0,1-1,.83l-.39-.89a8.25,8.25,0,0,0,2.45-2.84Zm5.47,1.53h-1.35v4.05c0,.67-.36,1-1.08,1-.46,0-.91,0-1.36,0l-.33-.91h1.55a.29.29,0,0,0,.28-.28V202H279v-.88h5.55Zm-.25-2.53h-5v-.87h5Z"/><path class="cls-4" d="M247.94,222.38a5.4,5.4,0,0,1,.8,2.52c0,.82-.49,1.19-1.45,1.12l-.26-.88.35,0c.34,0,.51-.11.51-.32a4.85,4.85,0,0,0-.84-2.36,14.67,14.67,0,0,0,.64-2h-.79v7.67h-.85v-8.55h2.5v.88C248.4,221,248.2,221.64,247.94,222.38Zm6.7,4.67-.44.74a7.28,7.28,0,0,1-2.2-2.19v2.53h-.85V225.6a8,8,0,0,1-2.61,2.24l-.46-.74a8.09,8.09,0,0,0,2.48-2h-1.47v-3.62h2.06v-.58h-2.31v-.81h2.31v-.69H252v.69h2.42v.81H252v.58h2v3.62h-1.5A7,7,0,0,0,254.64,227.05Zm-3.49-4.19v-.64h-1.21v.64Zm0,1.45v-.7h-1.21v.7Zm2-1.45v-.64H252v.64Zm0,1.45v-.7H252v.7Z"/><path class="cls-4" d="M264.51,223.48h-2l.47.51a11.54,11.54,0,0,1-4.79,1.11l-.4-.79a11.14,11.14,0,0,0,4.43-.83h-4.78v1.15c0,1.7-.34,2.86-1,3.48l-.68-.52a4.45,4.45,0,0,0,.82-2.91v-2h8Zm-.44-2.81H262.8a6,6,0,0,1-1,.78c.67.17,1.33.36,2,.55l-.46.64c-.38-.14-1.26-.37-2.63-.71a12.35,12.35,0,0,1-3.5.6l-.34-.72a18.67,18.67,0,0,0,2.54-.17,15.21,15.21,0,0,0-1.79-.26l.43-.62c1.05.16,1.92.31,2.59.46a5.23,5.23,0,0,0,1.05-.55h-5.39v-.76h3.36a4.58,4.58,0,0,0-.33-.46l1-.22a3.51,3.51,0,0,1,.41.68h3.37Zm.49,5.49a10,10,0,0,1-2.34,1.11,22,22,0,0,1-4.2.76l-.42-.76a14.19,14.19,0,0,0,6.37-1.7Zm-.65-1.18a13.4,13.4,0,0,1-5.7,1.58l-.4-.78a12.33,12.33,0,0,0,5.53-1.4Z"/><path class="cls-4" d="M273.28,224.42h-5.92V227a13.5,13.5,0,0,0,2.33-.72l.07.88a19.72,19.72,0,0,1-3.28.95l-.33-.82a.46.46,0,0,0,.29-.43v-6.74h2.84a5.55,5.55,0,0,0-.38-.56l.91-.31a5.15,5.15,0,0,1,.53.87h2.94Zm-.93-2.62v-.88h-5v.88Zm0,1.81v-1h-5v1Zm2.25,3.68-.46.84a8.93,8.93,0,0,1-2.78-1,6.57,6.57,0,0,1-2.06-2.08l.81-.42a6.58,6.58,0,0,0,1,1.23,7.35,7.35,0,0,0,1.91-1.25l.71.59a7,7,0,0,1-1.83,1.22A7.65,7.65,0,0,0,274.6,227.29Z"/><path class="cls-4" d="M253.71,249.06h-.92v-.51h-5.25v.51h-.91v-7.65H249a4.44,4.44,0,0,0,.5-1.13l1,.16a3.31,3.31,0,0,1-.44,1h3.64Zm-.92-5.61v-1.17h-5.25v1.17Zm0,2.07V244.3h-5.25v1.22Zm0,2.17v-1.33h-5.25v1.33Z"/><path class="cls-4" d="M264.66,246.86l-.5.74a6.24,6.24,0,0,1-1.54-.89v.59h-2v.8h3.59v.79h-8v-.79h3.51v-.8h-1.94v-.6a6.14,6.14,0,0,1-1.55.91l-.49-.76a4.33,4.33,0,0,0,2-1.23h-1.87v-.79h1.62v-3H256V241h1.41v-.66h.88V241H262v-.66h.9V241h1.43v.79h-1.43v3h1.64v.79h-1.84A5.65,5.65,0,0,0,264.66,246.86Zm-2.31-.35a6.44,6.44,0,0,1-.88-.89h-2.72a3.75,3.75,0,0,1-.76.89h1.71v-.64h.91v.64Zm-.39-4.19v-.52h-3.64v.52Zm0,1.24V243h-3.64v.55Zm0,1.27v-.58h-3.64v.58Z"/><path class="cls-4" d="M274.61,243.2l-.43.78a14.79,14.79,0,0,1-1.5-.74v.56h-2.05v1H274v.86h-3.37V248h3.61v.85h-8.09V248h3.57v-2.33h-3.31v-.86h3.31v-1h-2.08v-.53a12.86,12.86,0,0,1-1.35.69l-.56-.76a10.5,10.5,0,0,0,4.25-2.93l.9.26a.5.5,0,0,1-.13.19A10.92,10.92,0,0,0,274.61,243.2ZM269,247.51l-.84.29a9.3,9.3,0,0,0-1.12-1.56l.85-.35A7.83,7.83,0,0,1,269,247.51ZM272.2,243a10.39,10.39,0,0,1-2-1.55,11.41,11.41,0,0,1-2,1.55Zm1.13,3.24a7.5,7.5,0,0,1-1.08,1.58l-.87-.38a7.08,7.08,0,0,0,1.09-1.51Z"/><path class="cls-4" d="M284.57,247.15c-.16,1.32-.55,2-1.16,2s-1.16-.61-1.62-1.83a13.29,13.29,0,0,1-2.23,1.89l-.62-.66a10.79,10.79,0,0,0,2.54-2.14,19.66,19.66,0,0,1-.58-3.63h-3.4v1.09h2.64c0,.82-.07,1.46-.11,1.93s-.08.81-.12,1.05a1.25,1.25,0,0,1-.25.63.86.86,0,0,1-.5.34,3.77,3.77,0,0,1-.75.06h-.49l-.25-.83h.52c.47,0,.74-.05.8-.16a3.13,3.13,0,0,0,.16-.89c.05-.5.08-.91.08-1.25h-1.76a8.69,8.69,0,0,1-1.07,4.44l-.69-.65a8.87,8.87,0,0,0,.9-4.48v-2.13h4.23c0-.53,0-1.06,0-1.59h.9c0,.17,0,.34,0,.52s0,.68,0,1.07h2.62v.85H281.8a15,15,0,0,0,.37,2.74,9.88,9.88,0,0,0,1.06-2.23l.8.29a11,11,0,0,1-1.57,3,5.45,5.45,0,0,0,.43,1.06,2.68,2.68,0,0,0,.32.51.3.3,0,0,0,.15,0,.18.18,0,0,0,.14-.06,1.89,1.89,0,0,0,.14-.49,6.43,6.43,0,0,0,.12-.85Zm-.48-6-.5.65a6.09,6.09,0,0,0-1.43-.75l.5-.67A5.9,5.9,0,0,1,284.09,241.16Z"/><path class="cls-4" d="M294.49,248.8H285.8v-.89h2.54a22.94,22.94,0,0,0-1.25-4.61l.69-.48h-1.63v-.9h3.63a8.36,8.36,0,0,0-.66-1.39l1-.33a11.51,11.51,0,0,1,.76,1.72h3.39v.9h-1.78l.73.47a25,25,0,0,1-1.19,4.62h2.5Zm-2.16-6h-4.4a27.52,27.52,0,0,1,1.33,5.09H291A26.29,26.29,0,0,0,292.33,242.82Z"/><path class="cls-4" d="M303.49,249h-.93v-.67h-4.73V249h-.95v-8.46h6.61Zm-.93-5.13v-2.47h-4.73v2.47Zm0,3.59v-2.73h-4.73v2.73Z"/><path class="cls-4" d="M314.6,248.09l-.23.86c-.41,0-.84,0-1.27,0-1.53,0-2.78-.05-3.74-.15a3.3,3.3,0,0,1-2.4-1.5,8.05,8.05,0,0,1-.45,1.78l-.75-.48a14.43,14.43,0,0,0,.58-4l.82,0a10.85,10.85,0,0,1-.06,1.39,3.37,3.37,0,0,0,.75,1v-3h-2v-.81h2v-1.06h-1.78v-.82h1.78v-1.06h.84v1.06h1.37v.82h-1.37v1.06h1.55v.81H308.7v1.11h1.36V246H308.7v1.72a12.52,12.52,0,0,0,4.12.36Zm-.1-2.74a3.68,3.68,0,0,1-.22,1.42.83.83,0,0,1-.47.51,5,5,0,0,1-1.2.09l-1.05,0a1.1,1.1,0,0,1-.7-.21.67.67,0,0,1-.21-.54v-5.86h3.47v3.43h-2.63v2.15a.19.19,0,0,0,.12.19,3,3,0,0,0,.84.06,2.64,2.64,0,0,0,.94-.09c.1,0,.17-.2.2-.44a8.63,8.63,0,0,0,0-1Zm-1.24-2v-1.79h-1.77v1.79Z"/><path class="cls-4" d="M319.5,244.49a16.19,16.19,0,0,1-3.11,4.62l-.62-.69a15,15,0,0,0,2.93-4.35Zm5-1.4h-8.59v-.86h4a11.2,11.2,0,0,0-.7-1.7l1-.3a14.21,14.21,0,0,1,.77,2h3.52Zm.16,5.38-.74.58a24.29,24.29,0,0,0-3.06-4.46l.77-.48A25.15,25.15,0,0,1,324.62,248.47Z"/><path class="cls-4" d="M334.51,244.36h-3.87v4.7h-.94v-4.7h-3.86v-.91h3.86v-3.12h.94v3.12h3.87Z"/><path class="cls-4" d="M343.49,249h-.93v-.67h-4.73V249h-.95v-8.46h6.61Zm-.93-5.13v-2.47h-4.73v2.47Zm0,3.59v-2.73h-4.73v2.73Z"/><path class="cls-4" d="M348.75,242.68c-.23.4-.55.89-1,1.46v4.92h-.88v-3.92a6.05,6.05,0,0,1-.73.66l-.47-.83a8.37,8.37,0,0,0,2.3-2.69Zm-.37-2a9.12,9.12,0,0,1-2.15,2.29l-.47-.77a6.86,6.86,0,0,0,1.83-1.91Zm6.27,7.68-.38.8a10.76,10.76,0,0,1-2.94-.92,13.69,13.69,0,0,1-2.91.89l-.37-.78a10.92,10.92,0,0,0,2.45-.65,6.43,6.43,0,0,1-.93-.9,10,10,0,0,1-.89.67l-.56-.62a7.2,7.2,0,0,0,.94-.69l-.36-.56.67-.43a3.56,3.56,0,0,0,.29.41,4.8,4.8,0,0,0,.59-.77l-1.55,0-.18-.8a9,9,0,0,0,2.3-1.1c-.39,0-1,.06-1.79.08l-.15-.71a7.5,7.5,0,0,0,2.29-2l.86.37a6.22,6.22,0,0,1-1.9,1.6q.83,0,1.83-.15c.59-.55.94-.88,1.06-1l.84.4A11.55,11.55,0,0,1,350,244.1q1-.06,2.82-.3c-.11-.14-.24-.31-.42-.51l.73-.42a10.68,10.68,0,0,1,1.38,1.86l-.76.39a3.68,3.68,0,0,0-.4-.61c-.72.07-1.43.14-2.12.19-.06.12-.21.37-.44.73h2.94v.82a6.65,6.65,0,0,1-1.55,1.46A10.51,10.51,0,0,0,354.65,248.33Zm-2-2.08H350.2a4.56,4.56,0,0,0,1.12,1A6.93,6.93,0,0,0,352.66,246.25Z"/></svg>