<svg xmlns="http://www.w3.org/2000/svg" width="1280" height="540" viewBox="0 0 1280 540">
  <g id="圖層_2" data-name="圖層 2">
    <g>
      <path d="M1203.49,339.67c-14.88-2.87-29.94-5.41-45-6.39-79-5.09-158-5.79-236.83,2.51A116.57,116.57,0,0,0,899,340.52c-7.24,2.28-7.76,5.67-2.86,11.45,5.08,6,10.93,11.46,15.16,18,6,9.37,14.6,13.08,24.61,13.89,30.81,2.49,30.55,4.5,78.85,7,4.71.25,9.13,2.73,13.7,4.17-4.45,1.78-8.88,5.08-13.33,5.09-85.16.29-269.41.21-323.82.18-2.36-.09-4.79-.35-7.68-.54,0-19.47-.19-27.41-.19-57.5,0-15.26,5.49-25.72,18.8-31.95,5.21-2.44,6.68-6.21,5.07-10.48-.9-2.38-4.8-4.6-7.66-5.11a211.58,211.58,0,0,0-73.09,0c-3,.51-6.83,3.15-7.86,5.76-1.88,4.71,1.2,7.37,5.93,9.73,14.28,7.11,22.56,18.28,21.73,35.24-.65,13.26-.27,27.47-.46,40.75-.06,4.57-.47,9.15-.72,13.55a29.47,29.47,0,0,1-3.61.58c-56.66,0-262.72.12-348.93-.18-4.46,0-8.89-3.31-13.33-5.09,4.56-1.44,9-3.92,13.69-4.17,48.3-2.53,48-4.54,78.85-7,10-.81,18.58-4.52,24.61-13.89,4.23-6.57,10.08-12,15.16-18,4.9-5.78,4.38-9.17-2.86-11.45a116.32,116.32,0,0,0-22.66-4.73c-78.86-8.3-157.85-7.6-236.83-2.51-15.09,1-30.15,3.52-45,6.39-9.68,1.87-10.48,6.05-4,13.52,3.25,3.74,7,7.15,9.57,11.35,8.74,14.42,21.76,19.81,37.55,20.71,28.57,1.62,28.19,3.6,73,5.64,4.36.2,10.53,1,12.46,3,6,6.1,11.45,12.65,15.11,19.5,3.54,6.62,8.62,8.79,19.48,8.75,91.15-.32,307.43-.19,367.34-.16,3.39,0,6.79.28,10.16.43v46.69c-6.18,0-11.7-.21-17.2.11-2.09.12-5.44,1-5.94,2.32-4.64,12.61-8.78,25.4-13.32,38.89H719.57c-3.64-10.4-7.5-19.93-10.28-29.77-2.4-8.48-6.11-13.65-15.92-11.66-2.71.55-5.7-.2-9.06-.38V421.92h11.81v0c59.91,0,253.09-.16,344.24.16,10.85,0,15.93-2.13,19.48-8.75,3.65-6.85,9.09-13.4,15.11-19.5,1.93-2,8.1-2.76,12.45-3,44.76-2,44.38-4,73-5.64,15.79-.9,28.8-6.29,37.54-20.71,2.54-4.2,6.33-7.61,9.57-11.35C1214,345.72,1213.17,341.54,1203.49,339.67ZM106.63,348l.57-5.17c99-10.83,198-11.3,297,.4,0,1.64,0,3.28,0,4.93C305,359.35,205.8,359.62,106.63,348ZM257.14,400.4c-5.86.13-11.92-3.54-17.89-5.54.83-1.15,1.67-2.29,2.5-3.43h29.74c.8.83,1.58,1.67,2.37,2.5C268.3,396.25,262.82,400.27,257.14,400.4Zm407.31,17.17c-2.6-3.5-5.18-5.48-5.3-7.59-.09-1.69,3.07-5.17,4.33-5,2.24.35,5.42,2.64,5.8,4.59S666.86,413.84,664.45,417.57Zm3.43-83.2c-1.1-2-3.09-4-3.14-6-.1-5.5.83-11,.92-16.53,0-2.5-.95-5-1.48-7.51l-3.24.18V335l-21.65-30.37c15.48-6.5,32.57-5.86,51.45.15-10.73,5.74-14.56,14.62-17.42,24.35C672.71,331.25,669.75,332.65,667.88,334.37Zm382.38,66c-5.67-.13-11.15-4.15-16.72-6.47.8-.83,1.58-1.67,2.37-2.5h29.74c.84,1.14,1.68,2.28,2.51,3.43C1062.19,396.86,1056.13,400.53,1050.26,400.4ZM903.51,348.14c0-1.65,0-3.29,0-4.93,99-11.7,198-11.23,297-.4l.57,5.17C1101.88,359.62,1002.7,359.35,903.51,348.14Z" fill="#c1c6c9" fill-rule="evenodd"/>
      <g>
        <g>
          <path d="M497.67,323.73a11.87,11.87,0,0,1-1.16-2.54l-1.68-.55a12.24,12.24,0,0,1-2.4,1.37,13.12,13.12,0,0,1-6,1.11,16.62,16.62,0,0,1-6.05-1.65,12.92,12.92,0,0,1-5-4.09,17.67,17.67,0,0,1-1.2-1.85L455.5,360.92c-1,2.4.16,4.25,1.79,2.95l24-19.19c1-.81,2-.42,2.13.86l3.8,30.5c.26,2.08,2.36,1.54,3.34-.85L509,330.46c-.38,0-.76-.06-1.15-.11A14,14,0,0,1,497.67,323.73Z" fill="#0068b6"/>
          <path d="M590.82,359.08,571.9,310.29a10.93,10.93,0,0,1-.26,1.77,14.58,14.58,0,0,1-2.62,5.33,13,13,0,0,1-5,4.11,16.54,16.54,0,0,1-6,1.62,13.13,13.13,0,0,1-6-1.1,12.15,12.15,0,0,1-2.43-1.38l-1.68.55a11.26,11.26,0,0,1-1.17,2.55,14.17,14.17,0,0,1-7.75,6.07l16.79,43.54c1,2.39,3.08,2.93,3.33.85l3.8-30.5c.16-1.29,1.12-1.67,2.13-.86L589,362C590.67,363.33,591.8,361.47,590.82,359.08Z" fill="#0068b6"/>
          <path d="M607.21,244.49h0a9.63,9.63,0,0,0-2.11-1.76l-.89-.57,0-1.79q0-.54,0-1.08c0-.36,0-.72,0-1.07l0-1.8.89-.57a9.62,9.62,0,0,0,2.11-1.75,11.61,11.61,0,0,0,2.17-3.94,11.47,11.47,0,0,0,.17-4.73,10.29,10.29,0,0,0-4.87-7.48,9.1,9.1,0,0,0-2.56-1l-1-.27-.3-1c-.35-1.17-.73-2.32-1.13-3.46l-.35-1,.67-.82a9.48,9.48,0,0,0,1.47-2.33,9.32,9.32,0,0,0,.83-4.24,13.15,13.15,0,0,0-1.29-4.72,9.26,9.26,0,0,0-3-3.64,10.9,10.9,0,0,0-4-2,9,9,0,0,0-2.74-.15l-1.07.08-.61-.88c-.69-1-1.4-2-2.14-2.95l-.64-.84.39-1a9.86,9.86,0,0,0,.71-2.7c.3-2.75-.83-5.71-3.16-8.36-2.66-2.33-5.62-3.45-8.34-3.16a9.8,9.8,0,0,0-2.72.71l-1,.39-.84-.64c-1-.74-1.95-1.45-2.95-2.14l-.88-.61.08-1.07a8.84,8.84,0,0,0-.16-2.76,10.88,10.88,0,0,0-2-3.93,9.22,9.22,0,0,0-3.59-3,13,13,0,0,0-4.76-1.31,9.45,9.45,0,0,0-4.29.83,9.55,9.55,0,0,0-2.3,1.46l-.81.67-1-.35c-1.14-.4-2.29-.77-3.46-1.12l-1-.31-.27-1a8.91,8.91,0,0,0-1-2.55,10.29,10.29,0,0,0-7.43-4.87,10,10,0,0,0-8.71,2.33,9.22,9.22,0,0,0-1.76,2.12l-.57.88-1.77,0c-.73,0-1.47,0-2.2,0l-1.77,0-.57-.88a9.18,9.18,0,0,0-1.76-2.11,11.33,11.33,0,0,0-3.93-2.18,11.48,11.48,0,0,0-4.73-.17,10.32,10.32,0,0,0-7.48,4.87,9.1,9.1,0,0,0-1,2.56l-.27,1-1,.31c-1.16.35-2.31.72-3.45,1.12l-1,.35-.81-.67A9.48,9.48,0,0,0,491,160a9.63,9.63,0,0,0-4.25-.83,13.26,13.26,0,0,0-4.72,1.29,9.4,9.4,0,0,0-3.64,3,11,11,0,0,0-2,4,8.68,8.68,0,0,0-.15,2.74l.08,1.07-.88.61c-1,.69-2,1.4-2.95,2.14l-.84.64-1-.39a9.86,9.86,0,0,0-2.7-.71c-2.74-.3-5.71.83-8.36,3.16-2.34,2.66-3.46,5.62-3.17,8.35a9.87,9.87,0,0,0,.72,2.71l.39,1-.64.84c-.74,1-1.45,1.95-2.14,2.95l-.62.88-1.06-.08a8.77,8.77,0,0,0-2.76.16,10.8,10.8,0,0,0-3.93,1.95,9.33,9.33,0,0,0-3,3.59,13.22,13.22,0,0,0-1.31,4.76,9.43,9.43,0,0,0,.84,4.29,9.25,9.25,0,0,0,1.46,2.3l.67.82-.35,1c-.4,1.14-.78,2.29-1.13,3.46l-.3,1-1,.27a9.15,9.15,0,0,0-2.55,1,10.22,10.22,0,0,0-4.86,7.44,11.19,11.19,0,0,0,.17,4.81,11.47,11.47,0,0,0,2.16,3.89,9.15,9.15,0,0,0,2.11,1.76l.89.57-.05,1.74c0,.38,0,.75,0,1.13s0,.76,0,1.13l.05,1.74-.89.57a9.4,9.4,0,0,0-2.11,1.76,11.66,11.66,0,0,0-2.17,3.93,11.15,11.15,0,0,0-.17,4.73,10.26,10.26,0,0,0,4.87,7.48,9.15,9.15,0,0,0,2.55,1l1,.27.3,1c.35,1.16.73,2.31,1.13,3.45l.35,1-.67.81a9.19,9.19,0,0,0-1.47,2.33,9.36,9.36,0,0,0-.83,4.25,13,13,0,0,0,1.29,4.72,9.33,9.33,0,0,0,3,3.64,10.91,10.91,0,0,0,3.95,2,8.49,8.49,0,0,0,2.75.15l1.06-.08.62.88c.69,1,1.4,2,2.14,2.95l.64.85-.39,1a9.68,9.68,0,0,0-.71,2.7c-.3,2.75.82,5.71,3.16,8.36,2.65,2.34,5.6,3.45,8.34,3.17a9.84,9.84,0,0,0,2.72-.72l1-.39.84.64c1,.74,1.95,1.45,2.95,2.15l.88.61-.08,1.06a9.37,9.37,0,0,0,0,1.94,6.77,6.77,0,0,0,.11.82,10.83,10.83,0,0,0,2,3.93,9.38,9.38,0,0,0,3.58,3,13.32,13.32,0,0,0,4.77,1.31,9.54,9.54,0,0,0,4.29-.83,9.32,9.32,0,0,0,2.3-1.47l.81-.67,1,.35c1.14.4,2.29.78,3.45,1.13l1,.3.27,1a9.15,9.15,0,0,0,1,2.55,10.23,10.23,0,0,0,7.43,4.86,15.63,15.63,0,0,0,2.17.16,9.38,9.38,0,0,0,2.65-.33A11.47,11.47,0,0,0,517,324.3a9.18,9.18,0,0,0,1.76-2.11l.57-.89,1.76.05q1.11,0,2.22,0l1.76-.05.57.89a8.94,8.94,0,0,0,1.76,2.11,11.47,11.47,0,0,0,3.93,2.17,11.14,11.14,0,0,0,4.73.17,9.39,9.39,0,0,0,1.49-.31,10.41,10.41,0,0,0,6-4.56,9.15,9.15,0,0,0,1-2.55l.27-1,1-.3c1.17-.35,2.32-.73,3.46-1.13l1-.35.81.67a9.39,9.39,0,0,0,2.32,1.48,9.52,9.52,0,0,0,4.25.82,12.9,12.9,0,0,0,4.72-1.29,9.36,9.36,0,0,0,3.65-3,11,11,0,0,0,2-3.95,9.07,9.07,0,0,0,.15-2.75l-.08-1.06.88-.61c.39-.27.76-.56,1.15-.84.6-.43,1.21-.86,1.8-1.31l.85-.64,1,.39a9.91,9.91,0,0,0,2.7.72c2.75.29,5.7-.83,8.36-3.17,2.33-2.65,3.46-5.61,3.17-8.34a10.21,10.21,0,0,0-.72-2.72l-.39-1,.64-.85c.74-1,1.45-1.95,2.14-2.95l.61-.88,1.07.08a8.87,8.87,0,0,0,2.76-.15,11,11,0,0,0,3.93-2,9.36,9.36,0,0,0,3-3.59,13.23,13.23,0,0,0,1.32-4.77,9.65,9.65,0,0,0-2.3-6.59l-.67-.81.35-1c.4-1.14.78-2.29,1.13-3.45l.3-1,1-.27a9.1,9.1,0,0,0,2.56-1,10.25,10.25,0,0,0,4.86-7.43,10,10,0,0,0-2.33-8.71Zm-85,71.7a76.9,76.9,0,1,1,76.9-76.9A77,77,0,0,1,522.2,316.19Z" fill="#0068b6"/>
        </g>
        <path d="M522.2,310.71a71.42,71.42,0,1,1,71.41-71.42A71.5,71.5,0,0,1,522.2,310.71Z" fill="#0068b6"/>
        <g>
          <path d="M487,224.34c0-7.25,4.67-11.49,10.22-11.49a9,9,0,0,1,6.45,2.82l-2.32,2.79a5.65,5.65,0,0,0-4-1.84c-3.33,0-5.82,2.85-5.82,7.57s2.26,7.67,5.73,7.67a6.12,6.12,0,0,0,4.55-2.17l2.31,2.73a8.88,8.88,0,0,1-7,3.24C491.56,235.66,487,231.68,487,224.34Z" fill="#fff"/>
          <path d="M509.15,213.26h7.22c4.87,0,8.61,1.7,8.61,6.89,0,5-3.77,7.28-8.49,7.28h-2.94v7.81h-4.4Zm7,10.7c3,0,4.49-1.28,4.49-3.81s-1.61-3.41-4.64-3.41h-2.49V224Z" fill="#fff"/>
          <path d="M538.63,211.24a47.29,47.29,0,0,1-2.85,6.48V237.8h-3.27V223c-.53.68-1.1,1.36-1.63,2a21.94,21.94,0,0,0-1.85-3.69,31.67,31.67,0,0,0,6.42-11.11Zm18.38,23v3H537v-3h2.56V217.84h5.14c.12-.63.23-1.31.35-2h-6.74v-3h7.16c.09-.95.18-1.81.24-2.64l3.74.11c-.12.84-.3,1.67-.45,2.53h7.31v3H548.4c-.18.74-.33,1.39-.5,2h6.86v16.45ZM542.7,220.42v1.63h8.79v-1.63Zm8.79,4.07H542.7v1.63h8.79Zm-8.79,4v1.69h8.79V228.5Zm0,5.79h8.79v-1.66H542.7Z" fill="#fff"/>
          <path d="M501.6,250.75a49.92,49.92,0,0,1-2.55,5.49v21.15H495.6V261.62a25,25,0,0,1-2.17,2.52,23.06,23.06,0,0,0-1.81-3.62,30.86,30.86,0,0,0,6.71-10.81Zm8,22.78a25.43,25.43,0,0,1-6.8,4,19.36,19.36,0,0,0-2.79-2.44,20.81,20.81,0,0,0,6.21-2.79Zm-1.19-20.2h-6.5v-2.2h6.5v-1.45H512v1.45h6.77v2.2H512v1h6.15v2.08H512v1h7.78v2.35H500.62V257.4h7.78v-1h-5.88v-2.08h5.88Zm6.21,18.86a36.21,36.21,0,0,1,5.35,3.66l-3.18,1.84a32.44,32.44,0,0,0-5.44-4.13l3.06-1.37H502.7V260.73H518v11.46Zm-8.52-8.14h8.31V262.9h-8.31Zm0,3h8.31v-1.18h-8.31Zm0,3h8.31v-1.18h-8.31Z" fill="#fff"/>
          <path d="M544.45,262.54a19.1,19.1,0,0,0,7.27,3.39,13,13,0,0,0-2.25,2.91,21.23,21.23,0,0,1-3.54-1.46c-.32,5.23-.74,7.6-1.57,8.52A3.34,3.34,0,0,1,542,277a24.81,24.81,0,0,1-3.86.09,7.79,7.79,0,0,0-1-3.32,27.65,27.65,0,0,0,3.12.11,1.3,1.3,0,0,0,1.07-.32c.42-.45.71-1.84,1-5.11h-5.85c-.74,4.1-2.73,7.1-9.09,8.82a10,10,0,0,0-2-3c5.14-1.16,6.71-3.06,7.36-5.79h-3.83V267.2a24.2,24.2,0,0,1-3.32,1.75,9.89,9.89,0,0,0-2.17-3,23,23,0,0,0,6-3.44h-5.17v-3.18h8.23a20.29,20.29,0,0,0,1.25-1.87h-7.67v-3.12h4.22a23.64,23.64,0,0,0-1.9-3L531.2,250a16.19,16.19,0,0,1,2.38,3.65l-1.34.68h2.94a20.35,20.35,0,0,0,1.1-4.81l3.74.36a35.17,35.17,0,0,1-1.07,4.45h2.56a33.46,33.46,0,0,0,2.28-4.13l3.3,1c-.71,1.1-1.45,2.17-2.14,3.12h3.77v3.12h-11c-.33.65-.66,1.25-1,1.87h13.86v3.18Zm-10,0a20.5,20.5,0,0,1-2.82,2.76h11.14a17.47,17.47,0,0,1-2.68-2.76Z" fill="#fff"/>
        </g>
      </g>
      <g>
        <path d="M799.83,359.37,795.41,357c-51.5-27.9-82.24-75.76-82.24-128v-59.2H886.5v59.2c0,52.28-30.75,100.14-82.24,128Z" fill="#0068b6"/>
        <path d="M799.83,353.34l-1.89-1c-49.76-26.95-79.46-73.07-79.46-123.37V175.05H881.19v53.89c0,50.3-29.71,96.42-79.46,123.37Z" fill="#fff"/>
        <path d="M722.46,179v49.91c0,48.56,29.18,93.76,77.37,119.87h0c48.2-26.11,77.38-71.31,77.38-119.87V179Z" fill="#0068b6"/>
        <g>
          <path d="M780.84,232.68c-3.92,1.16-8.2,2.35-11.47,3.24l-.86-3.66c1.22-.26,2.7-.59,4.28-1V219.73h-3.86V216.4H780.1v3.33h-3.81v10.66l4.1-1.07Zm14.79-13.19s0,1.19,0,1.61c-.36,12-.68,16.36-1.75,17.79a3.42,3.42,0,0,1-2.62,1.57,26.88,26.88,0,0,1-4.27.09,8.57,8.57,0,0,0-1.07-3.47c1.54.11,3,.11,3.68.11a1.25,1.25,0,0,0,1.16-.5c.74-.8,1.07-4.55,1.33-13.81h-4c-.5,7.93-2.22,14.2-8.73,18.09a11.11,11.11,0,0,0-2.49-2.85c5.76-3.27,7.27-8.44,7.66-15.24h-4v-3.39h4.16c0-1.81,0-3.77,0-5.79h3.59c0,2,0,4-.06,5.79Z" fill="#fff"/>
          <path d="M813.08,237.67c0,1.45-.27,2.2-1.25,2.67a10.13,10.13,0,0,1-4.09.51,10.24,10.24,0,0,0-1.07-2.77c1.07.06,2.22.06,2.58.06s.5-.11.5-.5v-3c-1.48,1.07-3,2.08-4.3,2.94l-.74-2.08a13.09,13.09,0,0,1-2.11,5.58,14.1,14.1,0,0,0-2.47-2.37c1.58-2.32,1.69-5.59,1.69-8.17v-6.68h11.26Zm-1.66-22.28a63.48,63.48,0,0,1,3.53,6.84l-3.09,1.24c-.18-.53-.44-1.16-.74-1.87-7.51.74-8.73.92-9.59,1.28-.18-.69-.74-2.29-1.1-3.18a3.4,3.4,0,0,0,1.63-1.19,24.89,24.89,0,0,0,3.51-5.28l3.56,1a33.53,33.53,0,0,1-3.65,4.94l4.33-.33c-.44-.86-.86-1.69-1.24-2.41Zm-6.33,15.15a34.77,34.77,0,0,1-.21,3.8c1.34-.59,3.09-1.48,4.87-2.43v-1l-1.42,1.39a42.65,42.65,0,0,0-3.24-2.85Zm0-3.74v2.11l1.49-1.28c1,.71,2.28,1.75,3.17,2.53V226.8Zm14.67-.51c-3.56,0-4.51-1.3-4.51-4.6v-8.43h3.5v3.5h7.31v3h-7.31v2c0,1.1.18,1.51,1.13,1.51h4.34A15.2,15.2,0,0,0,827,223c.06.92.21,2.19.33,3a12.34,12.34,0,0,1-3,.26Zm3.75,11.35c1,0,1.21-.51,1.36-3.24a9.68,9.68,0,0,0,3.06,1.28c-.35,3.89-1.28,5-4.1,5h-4.22c-3.5,0-4.36-1-4.36-4.28v-9.33h3.5v3h7.52v3.11h-7.52v3.24c0,1,.21,1.19,1.37,1.19Z" fill="#fff"/>
          <path d="M778.05,253.86a51.94,51.94,0,0,1-2.56,5.49V280.5h-3.44V264.73a27.8,27.8,0,0,1-2.17,2.52,24.94,24.94,0,0,0-1.81-3.62,31.15,31.15,0,0,0,6.71-10.81Zm8,22.78a25.64,25.64,0,0,1-6.81,4,18.84,18.84,0,0,0-2.79-2.44,20.7,20.7,0,0,0,6.21-2.79Zm-1.19-20.2h-6.51v-2.2h6.51v-1.45h3.56v1.45h6.77v2.2h-6.77v1h6.15v2.08h-6.15v1h7.78v2.35H777.07v-2.35h7.78v-1H779v-2.08h5.88Zm6.2,18.86A36.21,36.21,0,0,1,796.4,279l-3.18,1.84a32.33,32.33,0,0,0-5.43-4.13l3.06-1.37h-11.7V263.84h15.26V275.3Zm-8.52-8.14h8.32V266h-8.32Zm0,3h8.32V269h-8.32Zm0,3h8.32v-1.18h-8.32Z" fill="#fff"/>
          <path d="M820.89,265.65a19.15,19.15,0,0,0,7.28,3.39,13.36,13.36,0,0,0-2.26,2.91,21.13,21.13,0,0,1-3.53-1.46c-.33,5.23-.75,7.6-1.58,8.52a3.3,3.3,0,0,1-2.34,1.13,24.85,24.85,0,0,1-3.86.09,7.79,7.79,0,0,0-1-3.32,27.59,27.59,0,0,0,3.12.11,1.26,1.26,0,0,0,1.06-.32c.42-.45.72-1.84,1-5.11H812.9c-.74,4.1-2.73,7.1-9.08,8.82a9.85,9.85,0,0,0-2-3c5.14-1.16,6.72-3.06,7.37-5.79h-3.83v-1.28a23.75,23.75,0,0,1-3.33,1.75,9.56,9.56,0,0,0-2.17-3,23,23,0,0,0,6-3.44H800.7v-3.18h8.22a18.45,18.45,0,0,0,1.25-1.87h-7.66v-3.12h4.21a21.57,21.57,0,0,0-1.9-3l2.83-1.36A16.13,16.13,0,0,1,810,256.8l-1.33.68h2.94a20.33,20.33,0,0,0,1.09-4.81l3.75.36a39,39,0,0,1-1.07,4.45H818a35,35,0,0,0,2.29-4.13l3.29,1c-.71,1.1-1.45,2.17-2.13,3.12h3.77v3.12h-11c-.33.65-.65,1.25-1,1.87H827v3.18Zm-10,0a20.5,20.5,0,0,1-2.82,2.76h11.14a17.86,17.86,0,0,1-2.67-2.76Z" fill="#fff"/>
        </g>
      </g>
      <g>
        <g>
          <path d="M304.66,64a25.06,25.06,0,0,0,8.45,5.35,7.64,7.64,0,0,0-1.46,1.79,26.32,26.32,0,0,1-8.24-5.91v6.57h-2.15V64h-4.09v7.8H295V65.52a24.52,24.52,0,0,1-7.85,5.7,7.14,7.14,0,0,0-1.47-1.7A22.36,22.36,0,0,0,293.83,64h-5.35V62.17H295V59.34h-8.78V57.43H295V54.89h-6.27V53.1H295V50.47h-8.3V48.56h6.87a22,22,0,0,0-2.9-3.25l2-.9A20,20,0,0,1,296,48l-1.16.57H303a25.08,25.08,0,0,0,3-4.12l2.35.75a40.47,40.47,0,0,1-2.68,3.37h6.45v1.91h-8.69V53.1h6.21v4.33h3v1.91h-3V64ZM297.17,53.1h4.09V50.47h-4.09Zm0,4.33h4.09V54.89h-4.09Zm4.09,4.74V59.34h-4.09v2.83Zm2.15-7.28v2.54h4.06V54.89Zm4.06,4.45h-4.06v2.83h4.06Z" fill="#002f7c"/>
          <path d="M321.88,69.79V71.4h-1.7V62.68a8.82,8.82,0,0,1-.9,1.19,3.89,3.89,0,0,0-.48-.59,32.17,32.17,0,0,1-1.61,8.3,7.49,7.49,0,0,0-1.67-.93c1.52-4,1.61-9.76,1.61-13.85v-10h0a59.86,59.86,0,0,0,10.45-1.76l1.64,1.52A58,58,0,0,1,319,48.32v1.43h10.54V55.9H319v.9c0,1.4,0,3-.12,4.66a18,18,0,0,0,2.51-5.29l1.67.42a16.62,16.62,0,0,1-.83,2.24H325a19.3,19.3,0,0,0-1-2.12l1.49-.45a14,14,0,0,1,1.28,2.57H330v1.52h-3.43V62h3.1V63.4h-3.1v1.67h3.16V66.5h-3.16v1.67h3.61v1.62ZM319,51.52v2.62h8.54V51.52ZM325,60.35h-3.07V62H325Zm0,3h-3.07v1.67H325Zm0,3.1h-3.07v1.67H325Zm10.9,1.17a20.84,20.84,0,0,1-4.9,4.12,6.9,6.9,0,0,0-1.46-1.38A15.2,15.2,0,0,0,334,66.65ZM335,50.56c.15-.87.27-1.88.36-2.75h-4.8V45.9h12.18v1.91h-5.11c-.21.93-.42,1.91-.62,2.75h4.68V65.79h-10.3V50.56Zm4.75,1.76h-6.47v2.75h6.47Zm0,4.42h-6.47v2.81h6.47Zm0,4.48h-6.47V64h6.47Zm-.44,5.46a24.71,24.71,0,0,1,3.82,3.73l-1.67,1.14a26.34,26.34,0,0,0-3.8-3.88Z" fill="#002f7c"/>
          <path d="M354.14,45h2.18V71.79h-2.18V63.52c-5.43,2-6.3,2.41-6.86,2.89a9.73,9.73,0,0,0-.9-2,2.21,2.21,0,0,0,1-2V47.78h2.18V62.92l4.56-1.52Zm16.51,7.4a34.08,34.08,0,0,1-4,11.76,17.59,17.59,0,0,0,6.45,5.71,7.16,7.16,0,0,0-1.52,1.82A18.81,18.81,0,0,1,365.46,66a21,21,0,0,1-6.84,5.8A10.46,10.46,0,0,0,357.16,70a18.27,18.27,0,0,0,7-5.91,36.09,36.09,0,0,1-3.58-8.5,20.42,20.42,0,0,1-2.36,3.82,14.11,14.11,0,0,0-1.58-1.85c2.57-3,4.12-7.89,5-13.05l2.27.39c-.33,1.85-.78,3.67-1.26,5.4h10.21v2.09Zm-8.86.45a37.12,37.12,0,0,0,3.61,9.25,31.54,31.54,0,0,0,3-9.7H362Z" fill="#002f7c"/>
          <path d="M402.71,68.83v2h-27v-2h3.85V59.58H399v9.25Zm-.6-16.54H376.29v-2H384a23,23,0,0,0-3-4.92l1.89-.84A25.47,25.47,0,0,1,386,49.48l-1.58.81H394l-1.58-.6a30.43,30.43,0,0,0,3.1-5.19l2.21.69a45.58,45.58,0,0,1-3.43,5.1h7.79Zm-15.94,2.39a42.72,42.72,0,0,1-8.39,5.25,10,10,0,0,0-1.34-1.73,32.69,32.69,0,0,0,8.21-4.59ZM381.6,68.83h3.73V61.52H381.6Zm5.76-7.31v7.31h3.76V61.52ZM401,59.34a69.76,69.76,0,0,0-9-4.06L393,53.69a79.44,79.44,0,0,1,9.08,3.86Zm-7.8,2.18v7.31H397V61.52Z" fill="#002f7c"/>
          <path d="M432.52,62.71v2.06H405.63V62.71h3L408.07,47a51.64,51.64,0,0,0,5.53-2.3l1.07,1.82c-1.37.57-3,1.13-4.54,1.61l.12,3.49h4v1.92h-3.94l.12,3.64h3.94V59h-3.85l.12,3.67h16.93c.06-1,.15-2.3.21-3.58H423.9V57.25h3.94c.06-1.2.09-2.42.15-3.68h-3.94V51.66h4c0-1.28.05-2.53.05-3.73h-4.29V46h6.33c0,5.23-.18,12.3-.45,16.72Zm-16.29,3.88a48.18,48.18,0,0,1-8.9,5.11A20.06,20.06,0,0,0,406,70a34.24,34.24,0,0,0,8.3-4.77Zm2.29-10.69a15,15,0,0,1-1.82,5.59,9.72,9.72,0,0,0-1.55-1,11.65,11.65,0,0,0,1.64-4.92Zm2.06-1.58h-4.74V44.68h1.94v2.78h4.92v1.88h-4.92v3.19h3.91v0h.8v7.85c0,.93-.18,1.32-.83,1.61a9.61,9.61,0,0,1-3.14.27,6,6,0,0,0-.57-1.52,19.8,19.8,0,0,0,2.25,0c.32,0,.38-.12.38-.39Zm2.57,10.84a70.66,70.66,0,0,1,8.69,4.78l-1.47,1.67a68.09,68.09,0,0,0-8.45-4.93Z" fill="#002f7c"/>
          <path d="M440.31,57.55a31.93,31.93,0,0,0-5.26-3.2l1.29-1.61a33.73,33.73,0,0,1,5.25,3Zm2.06,4.21c-1.34,3.13-3.11,6.83-4.63,9.58L435.8,70a89.33,89.33,0,0,0,4.87-9.56Zm-.57-12a30.42,30.42,0,0,0-5.13-3.43l1.25-1.58A27.74,27.74,0,0,1,443.09,48Zm18.39,6.87a22.21,22.21,0,0,1-5,9.43,19.69,19.69,0,0,0,7.46,3.77,7.88,7.88,0,0,0-1.46,1.91,21,21,0,0,1-7.56-4.18,23.74,23.74,0,0,1-7.31,4.24A8.86,8.86,0,0,0,444.85,70,22.13,22.13,0,0,0,452,66.08a24.6,24.6,0,0,1-4.74-8h-.75c-.15,4.39-.93,9.83-3.85,13.65a7.18,7.18,0,0,0-1.86-1.14c3.26-4.12,3.59-10,3.59-14.3V48.77h7.19v-4.3h2.18v4.3h6.57l.36-.09,1.58.45a42,42,0,0,1-2.54,6l-1.88-.6c.48-1,1-2.33,1.52-3.67H453.8v5.22h4.6l.42-.09Zm-13.61-5.79v5.22h5V50.86Zm2.8,7.22a20.32,20.32,0,0,0,4.19,6.57,18.14,18.14,0,0,0,3.9-6.57Z" fill="#002f7c"/>
          <path d="M491.53,51.49s0,.83,0,1.1c-.36,12.48-.66,16.54-1.61,17.79a2.56,2.56,0,0,1-2.12,1.14,28.68,28.68,0,0,1-3.61,0,5,5,0,0,0-.63-2c1.49.12,2.83.12,3.4.12a1.12,1.12,0,0,0,1.08-.45c.72-.87,1.07-4.93,1.37-15.64h-4.24c-.36,8.15-1.7,14.56-7,18.51a6.85,6.85,0,0,0-1.74-1.74,10.24,10.24,0,0,0,1.32-1c-4.48.57-9.05,1.07-12.36,1.46l-.36-2c1.76-.12,4-.33,6.45-.57V65.58h-5.64V63.87h5.64V62.11h-5.56V53.22h5.56V51.34h-6.42V49.6h6.42V47.69c-1.91.15-3.85.27-5.61.33a6.36,6.36,0,0,0-.54-1.61,93.47,93.47,0,0,0,12.86-1.52l1.2,1.64a46.43,46.43,0,0,1-5.88.95V49.6h6.33v1.74H473.5v1.88h5.79v8.89H473.5v1.76h5.88v1.71H473.5V68c1.94-.21,4-.42,6-.66v0c2.54-3.5,3.31-8.18,3.55-13.82h-3.46V51.49h3.55c0-2.07.06-4.24.06-6.54h2.12q0,3.4-.09,6.54Zm-23.79,5.4h3.73V54.77h-3.73Zm3.73,3.67V58.38h-3.73v2.18Zm2-5.79v2.12h3.88V54.77Zm3.88,3.61H473.5v2.18h3.88Z" fill="#002f7c"/>
          <path d="M501.22,60.53v8.39c0,1.26-.32,1.85-1.1,2.18a10.67,10.67,0,0,1-4,.42,9.78,9.78,0,0,0-.69-2.06c1.43.06,2.72,0,3.08,0s.56-.15.56-.57v-7.7l-3.76,1.1-.65-2.15c1.22-.29,2.74-.71,4.41-1.19V52.56H495V50.47H499v-6h2.18v6h3.71v2.09h-3.71v5.82l2.78-.8.3,2ZM520,58.14a18.69,18.69,0,0,1-5.83,8.54A24.29,24.29,0,0,0,522,69.76a8,8,0,0,0-1.4,2,23.42,23.42,0,0,1-8.36-3.74,27.83,27.83,0,0,1-8.75,3.77,6.64,6.64,0,0,0-1.1-2,26.19,26.19,0,0,0,8.06-3.17,21,21,0,0,1-4.87-6.84l.3-.11h-1.16V57.58h13.34l.42-.09Zm-10.22-9.25a8.61,8.61,0,0,1-4.47,8,10.64,10.64,0,0,0-1.44-1.64,6.66,6.66,0,0,0,3.82-6.39V45.54h9.41v6.9c0,.84.09,1.13.57,1.13h2.29a8.89,8.89,0,0,0,1.5-.14,19,19,0,0,0,.18,1.91,6.33,6.33,0,0,1-1.62.15h-2.51c-2.06,0-2.53-.87-2.53-3.08V47.63h-5.2Zm-2,10.78a17.52,17.52,0,0,0,4.54,5.7,16.32,16.32,0,0,0,4.66-5.7Z" fill="#002f7c"/>
          <path d="M533.61,52.68h-8.54V50.89h8.54ZM536,68.09a40.88,40.88,0,0,1-9.11,3.64,13.58,13.58,0,0,0-1.64-1.67A35.8,35.8,0,0,0,534,67.19ZM532.86,48h-7.13V46.26h7.13ZM529,55H548.3V67H529Zm2.15,3.52h15v-2h-15Zm0,3.46h15V60h-15Zm0,3.53h15V63.43h-15Zm7.16-17.29a14.65,14.65,0,0,1-2.23,3,10,10,0,0,0-1.67-1.14,12.77,12.77,0,0,0,3.43-5.67l2,.45c-.18.56-.42,1.1-.63,1.64h10l.36-.09,1.49.51a27.76,27.76,0,0,1-2.51,4.3l-1.76-.63a16.91,16.91,0,0,0,1.41-2.36h-4.75v.39a5.85,5.85,0,0,1-.09,1c1.58,1.8,4.84,3,8.75,3.29a8.18,8.18,0,0,0-1.26,1.76,14.33,14.33,0,0,1-8.11-3.49c-1,1.46-3.35,2.83-8.6,3.64a7,7,0,0,0-1.2-1.64c7.74-1,8.45-3.08,8.45-4.63v-.3Zm4.48,18.93a81.83,81.83,0,0,1,8.78,3.22l-1.94,1.29a71.06,71.06,0,0,0-8.36-3.32Z" fill="#002f7c"/>
        </g>
        <g>
          <path d="M257.8,101.27c0-7.08,4.15-11.37,9.7-11.37a8.08,8.08,0,0,1,6,2.71L272,94.4a6,6,0,0,0-4.48-2.09c-4.15,0-6.9,3.41-6.9,8.87s2.63,9,6.81,9a6.68,6.68,0,0,0,5.08-2.45l1.52,1.73a8.46,8.46,0,0,1-6.72,3.14C261.89,112.59,257.8,108.38,257.8,101.27Z" fill="#002f7c"/>
          <path d="M278,90.31h6.24c4.92,0,8.21,1.65,8.21,6.42s-3.29,6.78-8.06,6.78h-3.62v8.69H278Zm6,11c3.85,0,5.67-1.4,5.67-4.54s-1.94-4.18-5.79-4.18h-3.14v8.72Z" fill="#002f7c"/>
          <path d="M303.85,87.9a43.55,43.55,0,0,1-3,6.8v19.77h-2.06V98a33.29,33.29,0,0,1-2.54,3.25A17.9,17.9,0,0,0,295,99.09a34.17,34.17,0,0,0,6.86-11.82Zm18.57,23.79v1.91H302.51v-1.91h2.84V95h5.13c.18-.81.36-1.79.57-2.78h-7.29V90.28h7.62c.15-1.07.29-2.15.39-3l2.35.15c-.18.89-.36,1.91-.56,2.89h8v1.94h-8.36c-.24,1-.45,2-.69,2.78h7.28v16.69Zm-15.08-15v2.51H317.7V96.73Zm10.36,4.15H307.34v2.54H317.7Zm-10.36,6.72H317.7V105H307.34Zm0,4.09H317.7v-2.45H307.34Z" fill="#002f7c"/>
          <path d="M332.12,109.45v5h-2.06v-5h-4.9v-1.94h4.9v-2.3h-4V94.55h4V92.31h-4.63V90.4h4.63V87.24h2.06V90.4h4.65v1.91h-4.65v2.24h4.12v10.66h-4.12v2.3h4.71v1.94Zm-4.27-10.39h2.38V96.23h-2.38Zm0,4.48h2.38v-2.87h-2.38Zm6.57-7.31h-2.48v2.83h2.48Zm0,4.44h-2.48v2.87h2.48Zm14.5-.5a24.14,24.14,0,0,1-3.07,7.07,16.65,16.65,0,0,0,6.87,5.35,7.78,7.78,0,0,0-1.47,1.85,18.91,18.91,0,0,1-6.71-5.41,21.27,21.27,0,0,1-7,5.5,8.5,8.5,0,0,0-1.4-1.65,19.48,19.48,0,0,0,7.07-5.61,28.84,28.84,0,0,1-3.25-6.93l1.91-.5a25.22,25.22,0,0,0,2.63,5.61,21.26,21.26,0,0,0,2.32-5.76Zm-6-5.23a41.9,41.9,0,0,1-4.39,6.78,12.31,12.31,0,0,0-1.72-1.34,26,26,0,0,0,4-6.13Zm9-1.43H337.22V91.45h7a33.84,33.84,0,0,0-1.94-3.55l1.85-.84a23.89,23.89,0,0,1,2,3.49l-1.82.9h7.61Zm-3.88.72c1.49,1.91,3.46,4.47,4.42,6l-1.79,1.25a75.14,75.14,0,0,0-4.33-6.21Z" fill="#002f7c"/>
          <path d="M363.75,87.93a53.37,53.37,0,0,1-2.89,6.53v20h-2.18V98.08a37.55,37.55,0,0,1-2.51,3.28,19.09,19.09,0,0,0-1.25-2.18,33.87,33.87,0,0,0,6.74-11.85Zm18.39,23.31v2.15H362.47v-2.15h8.84v-5h-7.05v-2.09h7.05v-3.44h2.21v3.44h7.19v2.09h-7.19v5Zm-10.83-18h-6.42V91.12h6.42V87.21h2.21v3.91h6.68v2.09h-6.68v4.24h8v2.12H363.43V97.45h7.88Z" fill="#002f7c"/>
          <path d="M393.39,87.9a43.55,43.55,0,0,1-3,6.8v19.77h-2.07V98a33.24,33.24,0,0,1-2.53,3.25,18,18,0,0,0-1.23-2.18,34,34,0,0,0,6.87-11.82ZM412,111.69v1.91H392.05v-1.91h2.84V95H400c.18-.81.36-1.79.57-2.78H393.3V90.28h7.61c.15-1.07.3-2.15.39-3l2.36.15c-.18.89-.36,1.91-.57,2.89h8v1.94h-8.35c-.24,1-.45,2-.69,2.78h7.28v16.69Zm-15.08-15v2.51h10.36V96.73Zm10.36,4.15H396.88v2.54h10.36Zm-10.36,6.72h10.36V105H396.88Zm0,4.09h10.36v-2.45H396.88Z" fill="#002f7c"/>
          <path d="M423.47,94.61A34,34,0,0,1,421,98.29v16.18h-2.18V100.79a29.49,29.49,0,0,1-3.49,3.23,13.91,13.91,0,0,0-1.17-2.12,28,28,0,0,0,7.34-8.06Zm-.35-6.48a29.75,29.75,0,0,1-7.29,7.08,9.12,9.12,0,0,0-1.16-1.79A22.78,22.78,0,0,0,421,87.33Zm18.69,18.19h-4.45v5.73c0,1.19-.27,1.76-1.14,2.12a15.17,15.17,0,0,1-4.53.36,7.36,7.36,0,0,0-.72-2c1.67.06,3.17.06,3.58,0s.6-.15.6-.54v-5.67h-12v-1.91h12v-2.54H423.86V100h17.41v1.91h-3.91v2.54h4.45ZM439.87,98H425.69v-9.8h14.18Zm-12.54,8.86a27.08,27.08,0,0,1,3.79,4.15l-1.7,1.2a26.3,26.3,0,0,0-3.68-4.33Zm10.33-17h-9.83v2.38h9.83Zm0,4h-9.83v2.41h9.83Z" fill="#002f7c"/>
          <path d="M470.34,105a46.89,46.89,0,0,1-6.45,3.91,20.84,20.84,0,0,0,8.45,3.41,11,11,0,0,0-1.37,2c-6.81-1.5-11.47-5.14-14-10.75h-4.77v8l8.06-1.94c0,.57-.09,1.46-.06,1.94-8.36,2.12-9.82,2.54-10.51,2.9l-.12.09a10.65,10.65,0,0,0-1-2.18A2.38,2.38,0,0,0,450,110.2v-6.69h-4.84v-2h5.23V88.4h18.36v1.88H452.6v2.57h15.23v1.82H452.6v2.48h15.23v1.79H452.6v2.57h19v2H459.17a15.21,15.21,0,0,0,3.2,4.18,45.65,45.65,0,0,0,6.12-3.94Z" fill="#002f7c"/>
          <path d="M489.11,107.27H474.54v-2h2.89V93.15h-2.5v-2h2.5V87.54h2v3.61h5.4V87.54h2.06v3.61h2.18v2h-2.18v12.12h2.18Zm-8.33,1.2a20.05,20.05,0,0,1-4.42,6,13.67,13.67,0,0,0-1.79-1.29,15.61,15.61,0,0,0,4.09-5.31Zm-1.31-15.32v2.63h5.4V93.15Zm0,7.35h5.4V97.57h-5.4Zm0,4.77h5.4v-3h-5.4Zm5.16,2.63a21.78,21.78,0,0,1,3.14,4.42l-1.8,1a23.59,23.59,0,0,0-3.07-4.54Zm16.27,3.73c0,1.31-.33,2-1.13,2.33a13.2,13.2,0,0,1-4.45.42,7.83,7.83,0,0,0-.69-2.15c1.58,0,3.08,0,3.5,0s.62-.15.62-.63v-7.16h-6.3c-.3,3.55-1,7.34-2.83,10.21a6.45,6.45,0,0,0-1.76-1.32c2.47-3.94,2.71-9.58,2.71-13.85V88.7H500.9Zm-2.15-9.19v-5h-6.09v2c0,.92,0,1.94-.06,3Zm-6.09-11.71v4.75h6.09V90.73Z" fill="#002f7c"/>
          <path d="M513.61,102.23l-3.19,1v8.45c0,1.22-.27,1.79-1,2.15a8.56,8.56,0,0,1-3.73.42,7.63,7.63,0,0,0-.63-2.06c1.29,0,2.45,0,2.78,0s.54-.12.54-.57v-7.76c-1.35.45-2.6.86-3.71,1.19l-.59-2.12c1.16-.33,2.65-.77,4.3-1.28V95.27h-3.88V93.21h3.88v-6h2.06v6h3.1v2.06h-3.1v5.82l2.89-.89ZM531.7,91.06v2.06h-7.79v3.64h6.42v2h-14.9v-2h6.36V93.12H514V91.06h7.82v-3.7h2.12v3.7Zm-3.88,11.17h3.68v2h-3.68v7.64c0,1.31-.27,1.91-1.13,2.27a14.26,14.26,0,0,1-4.54.39,8,8,0,0,0-.69-2.15c1.68.06,3.26.06,3.7,0s.57-.15.57-.57v-7.61H514.3v-2h11.43V99.57h2.09Zm-9.61,2.89a57.78,57.78,0,0,1,3.37,5.14l-1.82,1.1a47.42,47.42,0,0,0-3.25-5.25Z" fill="#002f7c"/>
          <path d="M544.68,93.15c-.56,1.16-1.16,2.36-1.82,3.46h14.45v15.08c0,1.34-.3,2-1.25,2.36a18.27,18.27,0,0,1-5.2.39,7.7,7.7,0,0,0-.74-2.18c2,.09,3.79.06,4.32.06s.69-.18.69-.63v-3.1H542.32a10.72,10.72,0,0,1-3,6.06,7.31,7.31,0,0,0-1.55-1.74c2.47-2.39,2.74-5.67,2.74-8.5v-4.36a24.88,24.88,0,0,1-4.83,4.56,15.73,15.73,0,0,0-1.41-1.73,24.3,24.3,0,0,0,8-9.73h-7.43V91.06h8.39a38.85,38.85,0,0,0,1.31-3.85l2.21.54a33.32,33.32,0,0,1-1.16,3.31H560.8v2.09Zm10.45,13.52v-3.1H542.68v.9c0,.71,0,1.43-.09,2.2Zm0-8.06H542.68v3h12.45Z" fill="#002f7c"/>
          <path d="M575.22,110a2.39,2.39,0,1,1,2.38,2.36A2.29,2.29,0,0,1,575.22,110Zm.68-16.6-.09-3.52h3.59l-.07,3.52L578.59,105h-2Z" fill="#002f7c"/>
        </g>
      </g>
      <g>
        <g>
          <path d="M782.21,50v1.91h-26V50h12.21c-.27-.87-.62-1.88-.92-2.72l2.15-.51c.42,1,.87,2.27,1.19,3.23Zm-1,21.79c0,1.08-.27,1.52-1.07,1.82a13.38,13.38,0,0,1-3.94.27,6.65,6.65,0,0,0-.72-1.64c1.28.06,2.66,0,3,0s.51-.12.51-.48V63H759.43V74.07h-2.15v-13h24ZM778,53.53v6H760.71v-6Zm-2.69,17.34H764.83v1.47h-2.06V64.76h12.57Zm.42-15.7H762.89v2.69h12.87ZM764.83,66.43V69.2h8.51V66.43Z" fill="#002f7c"/>
          <path d="M796.56,53.71H785.84V51.89h10.72ZM787,55.8h8.38v1.76H787Zm0,3.88h8.38v1.76H787Zm8.35,12.6h-6.53v1.4H787v-10h8.35Zm-6.53-6.78v4.93h4.71V65.5ZM791,51.56a28.63,28.63,0,0,0-2.06-4l1.59-.9a30.87,30.87,0,0,1,2.18,3.85Zm22,11.82h-7V74.07h-2.15V63.38h-7.28V61.29h7.28V50.57h-6.12V48.48h14.69v2.09H806V61.29h7ZM800.14,52.22a36.78,36.78,0,0,1,1.64,7.31l-1.91.48a35,35,0,0,0-1.55-7.35Zm7.62,7.25A54.62,54.62,0,0,0,809.69,52l2.12.53c-.71,2.51-1.61,5.56-2.35,7.47Z" fill="#002f7c"/>
          <path d="M820.19,50.9a18.63,18.63,0,0,1-3,3.56A10.85,10.85,0,0,0,815.66,53a17.49,17.49,0,0,0,4.6-6.36l2,.54c-.26.6-.53,1.2-.83,1.79h7.67V50.9h-5.58a32.39,32.39,0,0,1,2.86,2.69l-1.46,1.31a23.28,23.28,0,0,0-3.1-3.13l1.07-.87Zm16.19,13.94h5.94v1.89h-5.94v5c0,1.28-.33,1.79-1.32,2.06a23.17,23.17,0,0,1-5.31.3,6.52,6.52,0,0,0-.6-1.88c2,.09,3.82.09,4.33.06s.66-.18.66-.6v-5h-18V64.84h18V62.75h2.24ZM842.85,49v1.94h-6.56a24.41,24.41,0,0,1,2.77,2.93l-1.52,1.28A20.32,20.32,0,0,0,834.7,52l1.32-1h-2.93a19.84,19.84,0,0,1-2.51,3.59l-.27-.24v1.4h10.93v1.94H830.31v2.66h9.26v1.79H818.73V60.28h9.35V57.62H817.24V55.68h10.84V53.83h1.67a10.16,10.16,0,0,0-.87-.63,15.39,15.39,0,0,0,3.7-6.57l2.06.48A12.4,12.4,0,0,1,834,49ZM822.64,67a50.5,50.5,0,0,1,5.08,4.42l-1.64,1.32a49.1,49.1,0,0,0-5-4.57Z" fill="#002f7c"/>
          <path d="M872.4,71.32v1.82H845.83V71.32h12.06V68.76h-9.82V67h9.82V64.9H849V55.71h8.93V53.92H846V52.1h11.91V50c-3.1.21-6.27.33-9.19.38a6,6,0,0,0-.48-1.76A153.8,153.8,0,0,0,868.16,47l1.2,1.73a91.16,91.16,0,0,1-9.29,1.08v2.3h12.15v1.82H860.07v1.79h9.35V64.9h-9.35V67h10.45v1.8H860.07v2.56ZM851.14,59.56h6.75V57.32h-6.75Zm6.75,3.76V61.05h-6.75v2.27Zm2.18-6v2.24h7.11V57.32Zm7.11,3.73h-7.11v2.27h7.11Z" fill="#002f7c"/>
          <path d="M885.71,48.9c-.93,2.51-2.12,5.64-3.16,8.06a9.45,9.45,0,0,1,2.83,6.6c0,1.61-.36,2.93-1.23,3.49a3.56,3.56,0,0,1-1.6.6,17.57,17.57,0,0,1-2.18,0,4.86,4.86,0,0,0-.57-2c.74.06,1.34.06,1.88.06a2.07,2.07,0,0,0,1-.3,2.54,2.54,0,0,0,.63-2.06c0-1.67-.57-3.73-2.84-6.12.9-2.21,1.88-5,2.54-7.13h-4.39v24h-2.09v-26h7.35l.33-.09Zm6.33,5c0,1.55-.12,3-.24,4.51h8.74v1C900.19,68.64,899.89,72,899,73a2.47,2.47,0,0,1-2,1,30,30,0,0,1-4.06,0,5.52,5.52,0,0,0-.65-2.21c1.61.15,3.16.18,3.76.18a1.23,1.23,0,0,0,1.1-.39c.63-.66,1-3.52,1.26-11.13h-6.72c-.69,5.79-2.51,10.65-7.64,13.55a7,7,0,0,0-1.5-1.64c6.6-3.56,7.2-10.51,7.38-18.45h-4.72V51.83h17.17v2.09ZM894,46.87c.51,1.38,1.19,3.23,1.46,4.3l-2.12.66a42.09,42.09,0,0,0-1.37-4.48Z" fill="#002f7c"/>
          <path d="M915.49,53.71H905V51.89h10.47Zm-.92,18.57h-6.45v1.4h-1.91v-10h8.36Zm-.09-14.72h-8.24V55.8h8.24Zm-8.24,2.12h8.24v1.76h-8.24Zm1.88,5.82v4.93h4.51V65.5Zm2.36-13.94a22.8,22.8,0,0,0-2.15-4l1.67-.9a25,25,0,0,1,2.27,3.85Zm7.23,6a13.55,13.55,0,0,1-1.59,1.82,13.4,13.4,0,0,0-1.22-1.61,15.34,15.34,0,0,0,3.88-6.24l1.73.48V50.43h-4.83V48.66h4.83V46.84h2v5.23h-1.94c-.24.65-.51,1.34-.8,2h3.88c-.21-.63-.42-1.38-.66-1.94l1.91-.54a20.59,20.59,0,0,1,1,2.48h5.56v1.49h-5.83v1.49h5v1.32h-5v1.49h5v1.31h-5v1.58h6.49v1.47H919.58v.6h-1.87Zm13,8.54a13.59,13.59,0,0,1-4.66,4.63,30.24,30.24,0,0,0,6.57,1.64,6.78,6.78,0,0,0-1.25,1.76,27.61,27.61,0,0,1-7.4-2.33,31.4,31.4,0,0,1-8.07,2.36,7.35,7.35,0,0,0-.95-1.79,30.69,30.69,0,0,0,7-1.7,14.11,14.11,0,0,1-3.52-3.2l.93-.33h-3.35V65.47h13l.36-.09Zm-7.05-10.51h-4.09v1.49h4.09Zm0,2.81h-4.09v1.49h4.09Zm0,2.8h-4.09v1.58h4.09Zm-3.16,5.94A14,14,0,0,0,924,69.74a12.76,12.76,0,0,0,3.64-2.63Zm7-15h-2V46.84h2v1.82h4.51v1.77h-4.51Z" fill="#002f7c"/>
          <path d="M961.43,50v1.91h-26V50h12.21c-.27-.87-.63-1.88-.93-2.72l2.15-.51c.42,1,.87,2.27,1.2,3.23Zm-.95,21.79c0,1.08-.27,1.52-1.08,1.82a13.34,13.34,0,0,1-3.94.27,6.65,6.65,0,0,0-.72-1.64c1.29.06,2.66,0,3,0s.51-.12.51-.48V63H938.65V74.07h-2.14v-13h24Zm-3.23-18.21v6H939.94v-6Zm-2.68,17.34H944.06v1.47H942V64.76h12.57Zm.41-15.7H942.12v2.69H955ZM944.06,66.43V69.2h8.51V66.43Z" fill="#002f7c"/>
          <path d="M973.25,47.29h2.18V74.13h-2.18V65.86c-5.44,2-6.3,2.42-6.87,2.9a9.28,9.28,0,0,0-.9-2,2.23,2.23,0,0,0,1-2V50.13h2.18V65.26l4.57-1.52Zm16.51,7.4a34.43,34.43,0,0,1-4,11.77,17.52,17.52,0,0,0,6.44,5.7A7.55,7.55,0,0,0,990.71,74a18.67,18.67,0,0,1-6.15-5.64,20.89,20.89,0,0,1-6.83,5.79,10,10,0,0,0-1.47-1.82,18.32,18.32,0,0,0,7-5.91,35.93,35.93,0,0,1-3.58-8.51,21.17,21.17,0,0,1-2.36,3.82,15.68,15.68,0,0,0-1.58-1.85c2.56-3,4.11-7.88,5-13l2.27.39c-.33,1.85-.78,3.67-1.26,5.4H992v2.09Zm-8.87.45a37.2,37.2,0,0,0,3.61,9.26,32,32,0,0,0,3-9.71h-6.45Z" fill="#002f7c"/>
          <path d="M1022,71.17v2H995v-2h3.85V61.92h19.44v9.25Zm-.6-16.54H995.54v-2h7.67a22.92,22.92,0,0,0-3-4.92l1.88-.84a24.77,24.77,0,0,1,3.16,5l-1.58.8h9.58l-1.58-.59a31,31,0,0,0,3.11-5.2l2.21.69a45.59,45.59,0,0,1-3.44,5.1h7.79ZM1005.42,57A43.23,43.23,0,0,1,997,62.28a8.91,8.91,0,0,0-1.34-1.73,32.68,32.68,0,0,0,8.21-4.6Zm-4.57,14.15h3.74V63.86h-3.74Zm5.77-7.31v7.31h3.76V63.86Zm13.58-2.18a70.51,70.51,0,0,0-9-4.06l1.08-1.58a79.27,79.27,0,0,1,9.08,3.85Zm-7.79,2.18v7.31h3.79V63.86Z" fill="#002f7c"/>
        </g>
        <g>
          <path d="M758.3,107.55H746.18v1.88c0,1.23-.33,1.71-1.31,2a23.92,23.92,0,0,1-5.35.29,6.69,6.69,0,0,0-.77-1.76c2.09.06,4,.06,4.54,0s.71-.15.71-.59v-1.86H732v-1.61h12v-2H733.73v-1.58H744v-1.82c-3,.15-6.06.24-8.87.24a3.73,3.73,0,0,0-.41-1.5,144.58,144.58,0,0,0,18.74-1.19l1.41,1.4a83.18,83.18,0,0,1-8.69.93v1.94h10.54v1.58H746.18v2H758.3ZM734.77,94.3h-2.08V88.39h5a18.51,18.51,0,0,0-2.12-3l1.94-.78a19.62,19.62,0,0,1,2.33,3.14l-1.4.66H744v-4h2.24v4h5.46l-1.31-.54a27.83,27.83,0,0,0,2.51-3.26l2.21.78a40.88,40.88,0,0,1-2.81,3h5.47V94.3h-2.18v-4H734.77ZM737,97.49v-5.4h16.58v5.4ZM739,96h12.33V93.61H739Z" fill="#002f7c"/>
          <path d="M766.8,100.63v8.3c0,1.22-.27,1.82-1,2.18a8.49,8.49,0,0,1-3.68.41,9.4,9.4,0,0,0-.65-2.09c1.25,0,2.42,0,2.74,0s.51-.12.51-.54v-7.65l-3.16,1-.54-2.06c1-.3,2.3-.69,3.7-1.08V92.48H761.4V90.42h3.31v-6h2.09v6H770v2.06H766.8v6l3-1,.3,1.94Zm21.82,8.6v1.82H771.73v-1.82h7.61v-3.29h-5.82v-1.76h5.82V101.4a27.57,27.57,0,0,0-5,.57v-.12a.23.23,0,0,0,0,.12c-.12-.39-.45-1.37-.66-1.85a3.32,3.32,0,0,0,1.4-1,27,27,0,0,0,2.51-3.23h-4.48c-.09,4.84-.66,11.34-3.61,15.82a7.85,7.85,0,0,0-1.82-1.16c3-4.54,3.28-11,3.28-15.7V85.61h16.3v6.48H773.13v2.06h14.24v1.76h-7.28a32.29,32.29,0,0,1-3.2,3.91l7.29-.48c-.63-.74-1.25-1.52-1.91-2.15l1.58-.68a19.93,19.93,0,0,1,3.76,4.75l-1.7.8a9.49,9.49,0,0,0-.6-1.1l-3.79.26v3h5.85v1.76h-5.85v3.29Zm-15.49-21.8V90.3h11.94V87.43Z" fill="#002f7c"/>
          <path d="M795.9,97.55a26.82,26.82,0,0,0-4.75-3.22l1.35-1.49a25.44,25.44,0,0,1,4.8,3Zm-4.09,12.57a84.27,84.27,0,0,0,4.09-9.49l1.79,1.19c-1.1,3.08-2.59,6.75-3.91,9.47Zm5-20.39a27.4,27.4,0,0,0-4.48-3.46l1.4-1.46a25.59,25.59,0,0,1,4.51,3.25Zm7.4,3.49a12.47,12.47,0,0,1-5.25,6.09,5.59,5.59,0,0,0-1.2-1.28A10.29,10.29,0,0,0,802.47,93h-3.7a55.24,55.24,0,0,0,.68-5.77h-.77V85.55h8.84v1.64H805v1.44a13.56,13.56,0,0,1-.24,2.56h3.13V93h-2.15V96.3l2.3-1a8.34,8.34,0,0,0,.51,1.41c-3.52,1.76-4.15,2.15-4.51,2.53a5.05,5.05,0,0,0-.89-1.28,2.83,2.83,0,0,0,1-2.33Zm-3.82,6.51h15.94v11.83h-2.18v-1.23h-11.7v1.31h-2.06ZM803,91.19a13.16,13.16,0,0,0,.21-2.56V87.19h-2.06c-.12,1.29-.33,2.75-.51,4Zm-.57,10.33v2.57h11.7v-2.57Zm11.7,7V105.7h-11.7v2.84Zm2.42-11.35c.48,0,.57-.14.63-2.3a4.8,4.8,0,0,0,1.43.63c-.15,2.6-.6,3.23-1.79,3.23h-1.7c-1.53,0-1.91-.42-1.91-2.06V94.93A12.42,12.42,0,0,1,809,99.34a4.79,4.79,0,0,0-1.2-1.22A9.42,9.42,0,0,0,812.23,93h-3.76c.27-1.55.54-3.88.72-5.82h-.75V85.55h9.44v1.64h-3.32V89a12.79,12.79,0,0,1-.18,2.3h3.73V93H814c-.1.3-.22.63-.34.9h1.14v2.78c0,.48.06.5.48.5Zm-3.88-5.94a16.66,16.66,0,0,0,.15-2.33V87.19h-2c-.15,1.32-.36,2.78-.54,4.06Z" fill="#002f7c"/>
          <path d="M846.74,90.92s0,.84-.07,1.17c-.65,12.24-1.28,16.69-2.59,18.18a3.27,3.27,0,0,1-2.54,1.19,36.15,36.15,0,0,1-4.77-.08,5,5,0,0,0-.75-2.27c2,.18,3.94.21,4.69.21a1.71,1.71,0,0,0,1.37-.45c1.07-1,1.73-5.23,2.3-15.74H834.2c-.42,6.18-2.39,13.41-11.05,18.69a8.35,8.35,0,0,0-1.7-1.76c8.09-4.8,10-11.34,10.45-16.93h-9.56V90.92H832V84.48h2.3v6.44Z" fill="#002f7c"/>
          <path d="M877.81,109.11v1.58h-26.6v-1.58h12.12v-5.65H853v-1.52h23v1.52H865.45v5.65ZM854.13,93.64H852v-4.9h11.41V87.1H853.15V85.61h22.78V87.1H865.54v1.64h11.61v4.9h-2.21V90.21h-9.4v4.92h-2.18V90.21h-9.23Zm-1,2.45h6.57v4.72h-6.57Zm6.57,8a10.16,10.16,0,0,1-.87,1.49,19.27,19.27,0,0,1,3.46,2.15l-.89,1.23a22.46,22.46,0,0,0-3.47-2.27,13.14,13.14,0,0,1-3.28,2.42,7.82,7.82,0,0,0-1.2-1.26A8.51,8.51,0,0,0,858,103.7Zm-4.93-4.48h3.19V97.31h-3.19Zm7.19-5.16c-2.33.45-4.59.89-6.57,1.22l-.53-1.37c1.88-.24,4.39-.6,7.07-1Zm-5.64-4a28.87,28.87,0,0,1,5.34,1.64l-.53,1.16a29.64,29.64,0,0,0-5.41-1.76Zm11.49,10.42h-6.68V96.09h6.68Zm-1.7-3.53h-3.34v2.27h3.34Zm5.62,6.63a6.94,6.94,0,0,1-.63,1.49,22.16,22.16,0,0,1,4.18,2.24l-.81,1.32a25.62,25.62,0,0,0-4.15-2.36,10,10,0,0,1-3.07,2.45,11.66,11.66,0,0,0-1.17-1.29,6.79,6.79,0,0,0,3.91-4.12Zm2.21-8.09a45.4,45.4,0,0,0-7-1.64l.45-1.11a38.45,38.45,0,0,1,6.92,1.44Zm-.21-4.45a31.11,31.11,0,0,1-5.8,1.7l-.71-.95a53.48,53.48,0,0,0,5.61-1.85Zm2.36,9.44h-6.78V96.09h6.78Zm-1.71-3.53h-3.43v2.27h3.43Z" fill="#002f7c"/>
          <path d="M886.42,97.76c-1.22-.83-3.67-2.27-5.49-3.22l1.23-1.62c1.73.87,4.21,2.18,5.52,3Zm-4.77,12a86.67,86.67,0,0,0,5.64-9.55l1.61,1.46a107.9,107.9,0,0,1-5.4,9.59Zm6.27-20.12c-1.23-.87-3.7-2.3-5.52-3.28l1.22-1.58a52.42,52.42,0,0,1,5.58,3.07Zm11.94,5.58v4.9h6.24v11.37H904v-1.1H893.35v1.25h-2V100.15h6.42v-4.9h-8.6V93.1h8.6V88.27c-2.18.33-4.45.59-6.57.8a10.8,10.8,0,0,0-.6-1.88c5.14-.53,11.14-1.46,14.45-2.65l1.77,1.73a49.41,49.41,0,0,1-6.93,1.67V93.1H908v2.15Zm4.12,7H893.35v6.15H904Z" fill="#002f7c"/>
          <path d="M912.42,85.49h1.85v12c0,5.41-.24,10.18-2.33,14.12a10.7,10.7,0,0,0-1.43-1.34c1.7-3.55,1.91-7.94,1.91-12.78Zm4,2.12h1.67v19.74h-1.67Zm4-2.21h1.82v25.17h-1.82Zm9.22,22.33a21.8,21.8,0,0,1-5.94,4.06,10.56,10.56,0,0,0-1.4-1.46,18.11,18.11,0,0,0,5.47-3.67Zm-.65-17.16c.24-.9.48-1.91.63-2.81h-6V85.82h14.1v1.94H932c-.32,1-.62,1.94-.89,2.81H937v15.49H924.66V90.57Zm5.88,1.73h-8.24v2.89h8.24Zm0,4.51h-8.24v2.92h8.24Zm0,4.56h-8.24v3h8.24Zm-1.34,5.29a33.23,33.23,0,0,1,4.95,3.73l-1.67,1.28a34.2,34.2,0,0,0-4.9-3.88Z" fill="#002f7c"/>
          <path d="M953.88,100c-4.63.39-9.4.75-12.81,1L941,99.34c1.61-.09,3.62-.2,5.82-.38V97h-4.5v-1.5h4.5V93.79h2v1.67h4.66V97H948.8v1.88l5.11-.36Zm-7.25-9.23c-.51,2.24-2.27,3.53-4.75,4.21a6.09,6.09,0,0,0-.9-1.43c2-.42,3.44-1.22,3.88-2.78h-3.73V89.25h5.64V87.64h-4.45V86.18h4.45V84.42h2v1.76h4.54v1.46H948.8v1.61h5.77V90.8h-4v1.11c0,.63,0,.81.45.81h1.56a6.32,6.32,0,0,0,1.31-.12c0,.44.06,1,.12,1.37a4.38,4.38,0,0,1-1.38.15h-2c-1.53,0-1.83-.69-1.83-2.24V90.8Zm18.77,12.13s-.06.65-.12.95c-.47,4.36-.92,6.27-1.73,7a3,3,0,0,1-2.12.77c-.83,0-2.5,0-4.21-.06a4.79,4.79,0,0,0-.65-2c1.7.15,3.4.18,4,.18a1.8,1.8,0,0,0,1.16-.23c.51-.42.9-1.77,1.26-4.81h-8.57c-1.47,3.73-4.57,6-12.18,7a6.25,6.25,0,0,0-1-1.82c6.6-.83,9.5-2.47,10.84-5.22h-9.2v-1.79h9.82a10.94,10.94,0,0,0,.39-1.83h2.24a16.47,16.47,0,0,1-.36,1.83Zm0-14.93c0,6.63,0,11.52,1.2,11.52.35,0,.51-1.58.54-3.7A8.35,8.35,0,0,0,968.42,97c-.18,3.23-.54,4.42-2,4.42-2.75,0-3-4.71-3-11.61h-3a26,26,0,0,1-.66,4.39c1.22.78,2.36,1.52,3.11,2.09l-1,1.61c-.66-.51-1.61-1.19-2.63-1.91a9.71,9.71,0,0,1-3.94,4.84,5.11,5.11,0,0,0-1.28-1.41,8.49,8.49,0,0,0,3.58-4.54c-1-.59-1.91-1.22-2.75-1.73l1-1.4L958,93.13a26,26,0,0,0,.45-3.31h-3.17V88h3.29c0-1.11.06-2.33.09-3.58h1.94c0,1.25-.06,2.47-.12,3.58Z" fill="#002f7c"/>
          <path d="M980.68,91.31H970.59V89.46h10.09Zm-9,6h8.06v1.77h-8.06Zm8.09,12.63h-6.23v1.35h-1.86v-10h8.09Zm0-14.75h-8V93.4h8Zm-6.2,8v5H978v-5Zm2.29-13.89a36.15,36.15,0,0,0-2.12-4l1.65-.74a30.17,30.17,0,0,1,2.21,3.88ZM997,108.93c0,1.16-.27,1.79-1,2.12a11.74,11.74,0,0,1-4,.35,8.69,8.69,0,0,0-.66-1.91c1.52.06,2.87.06,3.28,0s.54-.15.54-.6V97.61H984.2c0,4.42-.44,10.24-2.72,14.12a7.42,7.42,0,0,0-1.55-1.1c2.21-3.91,2.42-9.49,2.42-13.73V85.76H997ZM984.2,87.76V91h4.48v-3.2Zm0,8h4.48v-3H984.2Zm3,10.78v1.37h-1.64V99.58h8v7Zm0-5.31v3.64h4.6v-3.64Zm7.91-13.5h-4.51V91h4.51Zm0,8v-3h-4.51v3Z" fill="#002f7c"/>
          <path d="M1000.47,85.7h14.06v1.91h-4.21v3.82h3.61V111.2h-1.85v-1.71h-9.26v2.12H1001V91.43h3.62V87.61h-4.18Zm11.61,22V99.88h-1.76c-1.35,0-1.74-.36-1.74-1.91V93.34h-2.11v2.24a6.9,6.9,0,0,1-2.57,5.73,5.51,5.51,0,0,0-1.08-.89v7.25Zm-9.26-14.33v7a5.62,5.62,0,0,0,2.24-4.81V93.34Zm1.23,9.59h6.81v1.79h-6.81Zm4.45-15.32h-2.06v3.82h2.06Zm3.58,5.73H1010v4.6c0,.42.06.45.45.45h1.16a1.37,1.37,0,0,0,.45,0Zm12,16c1.28,0,1.52-.75,1.67-5.05a5.83,5.83,0,0,0,2,1c-.27,4.83-.92,6.18-3.55,6.18h-4.9c-2.68,0-3.52-.69-3.52-3.41V95.1h8.69V87.91h-8.81V85.76h11V99.22h-2.18v-2H1018V108c0,1.11.27,1.32,1.58,1.32Z" fill="#002f7c"/>
          <path d="M1041.36,107.2a2.39,2.39,0,1,1,2.39,2.35A2.29,2.29,0,0,1,1041.36,107.2Zm.69-16.6-.1-3.53h3.59l-.06,3.53-.75,11.58h-2Z" fill="#002f7c"/>
        </g>
      </g>
      <g>
        <g>
          <g>
            <path d="M962.78,240.26h9.56v2.12H951v-2.12h9.26v-3.71h-6.79v-2h6.79v-3.43h-5.65V229a31.73,31.73,0,0,1-3.28,2,8.92,8.92,0,0,0-1.47-1.92,30.17,30.17,0,0,0,8.91-6.36h-4v-2.2h8.05a24.36,24.36,0,0,0,10.55,8.26,11.51,11.51,0,0,0-1.59,2.12,25.84,25.84,0,0,1-3.25-1.84v2h-5.78v3.43h6.86v2h-6.86ZM954.7,229h13.7a31.21,31.21,0,0,1-6.81-6.24A36.75,36.75,0,0,1,954.7,229Z" fill="#ee8923"/>
            <path d="M999.42,228.55a61.63,61.63,0,0,1-4.27,5.2,14,14,0,0,0,4.93,5.66,4.89,4.89,0,0,0-1.44,1.81,16.19,16.19,0,0,1-5.35-6.56v5.63c0,1.26-.31,1.92-1.06,2.3a9.35,9.35,0,0,1-3.92.48,9.94,9.94,0,0,0-.8-2.25c1.36.05,2.57,0,3,0s.55-.15.55-.55v-5.15c-1.94,1.94-3.93,3.84-5.6,5.35l-1.44-2,.36-.28c-2.6.86-5.33,1.72-7.45,2.37l-.51-2.24c.89-.23,2-.56,3.18-.91v-6.57h-2.7v-2.17h2.7v-5h-2.87v-2.17h7.8v2.17h-2.75v5h2.37v2.17h-2.37v5.91l2.87-.88.31,1.86c1.66-1.33,4-3.28,6.1-5.12v-6.34h-6v-2.17h6v-4.19h2.28v4.19h6.38v2.17h-6.38v1a29.54,29.54,0,0,0,1.05,4.49,35.32,35.32,0,0,0,3-4.29Zm-12.29-.91a19.28,19.28,0,0,1,2.62,4.5l-1.94.93a18.93,18.93,0,0,0-2.5-4.62Zm10.09-3.58a15.91,15.91,0,0,0-2.92-2.75l1.31-1.21a16.76,16.76,0,0,1,3,2.57Z" fill="#ee8923"/>
            <path d="M1025.61,222.39v2h-22v-2h10c-.22-.68-.47-1.44-.7-2.07l2.37-.55c.33.8.73,1.81,1,2.62Zm-.68,18.33c0,1.11-.28,1.54-1.06,1.84a11.65,11.65,0,0,1-3.63.28,8.46,8.46,0,0,0-.73-1.74c1,.05,2.32.05,2.6,0s.45-.1.45-.4v-6.79h-15.85V243h-2.3V232h20.52Zm-2.57-15.12v5.17h-15.15V225.6Zm-11,14.89v1.16h-2.18v-6.49h10.71v5.33Zm8.55-13.25h-10.35v1.87h10.35Zm-8.55,9.62v1.94h6.46v-1.94Z" fill="#ee8923"/>
            <path d="M959.37,253.32h-9.14v-1.87h4.26A22.41,22.41,0,0,0,952.8,248l1.69-.93a26.22,26.22,0,0,1,1.75,3.3l-1.69,1h4.82Zm-8.15,3.33V254.8h7.14v1.85Zm0,1.49h7.16V260h-7.16Zm7.16,10.8h-5.27v1.14h-1.87v-8.54h7.14Zm-5.27-5.5v3.61h3.38v-3.61Zm20.11-1.84H967.5v8.8h-2.3v-8.8h-5.83v-2.23h5.83v-8.63h-4.92v-2.17h12.47v2.17H967.5v8.63h5.72ZM962.57,252a31.18,31.18,0,0,1,1.29,6l-2,.48a32.67,32.67,0,0,0-1.17-6.06Zm6.11,6a45.76,45.76,0,0,0,1.54-6.18l2.22.5c-.6,2.1-1.34,4.62-1.94,6.18Z" fill="#ee8923"/>
            <path d="M980.59,250.94a15.91,15.91,0,0,1-2.42,2.91,13.76,13.76,0,0,0-1.62-1.62,13.71,13.71,0,0,0,3.81-5.2l2.1.61c-.2.45-.41.85-.66,1.31h6.11v2h-4.16a24.62,24.62,0,0,1,2,2l-1.52,1.36a21.38,21.38,0,0,0-2.52-2.57l.88-.76Zm13.75,11.49h4.88v1.92h-4.88v3.78c0,1.19-.3,1.74-1.23,2a19.77,19.77,0,0,1-4.55.27,8.08,8.08,0,0,0-.63-1.91c1.49.07,3.06.05,3.44,0s.55-.13.55-.48v-3.68h-9a49.44,49.44,0,0,1,4,3.55l-1.77,1.39a40.91,40.91,0,0,0-4-3.81l1.53-1.13H977v-1.92h14.89v-1.54h2.42ZM999.67,249v2h-5.1a16.87,16.87,0,0,1,2,2.19L995,254.53a15.5,15.5,0,0,0-2.35-2.7l1.06-.86h-2.22a14.91,14.91,0,0,1-2.07,3l-.08-.07v.73h9.06v2h-9.06v1.9h7.6v1.84H979.2v-1.84h7.7v-1.9h-9v-2h9v-1.42h1.59c-.3-.25-.63-.47-.86-.63a13.35,13.35,0,0,0,3.13-5.52l2.15.5c-.15.48-.31.93-.48,1.39Z" fill="#ee8923"/>
            <path d="M1010.64,247.91a39.22,39.22,0,0,1-2.32,5v17.46h-2.27v-13.9a25.85,25.85,0,0,1-2.27,2.7,16.16,16.16,0,0,0-1.26-2.38,27.08,27.08,0,0,0,6-9.51Zm6.49,19.21a20.34,20.34,0,0,1-5.83,3.28,14.62,14.62,0,0,0-1.84-1.61,17.65,17.65,0,0,0,5.43-2.5Zm-.3-17H1011v-1.54h5.88v-1.31h2.37v1.31h6.14v1.54h-6.14v1.07h5.53v1.48h-5.53v1.14h6.94v1.59h-16.28v-1.59h7v-1.14h-5.28v-1.48h5.28ZM1011.75,266v-9.54h12.83V266Zm2.28-6.74h8.2V258H1014Zm0,2.57h8.2v-1.31H1014Zm0,2.63h8.2v-1.32H1014Zm7.42,1.69a33.83,33.83,0,0,1,4.8,3.18l-2.13,1.26a32.15,32.15,0,0,0-4.77-3.46Z" fill="#ee8923"/>
          </g>
          <g>
            <path d="M981.92,299.54c-27.87-3.43-49.79-27.45-49.79-57.19,0-29.36,21.92-53.77,49.79-56.82v-6.48c-31.59,3-55.74,30.51-55.74,63.3,0,33.17,24.15,60.24,55.74,63.67v-6.48Z" fill="#ee8923" fill-rule="evenodd"/>
            <path d="M994.89,179.05v6.48c27.42,3.05,49.28,27.46,49.28,56.82,0,29.74-21.86,53.76-49.28,57.19V306c31.13-3.43,55.21-30.5,55.21-63.67,0-32.79-24.08-60.25-55.21-63.3Z" fill="#ee8923" fill-rule="evenodd"/>
          </g>
        </g>
        <g>
          <g>
            <path d="M1096.5,238h9.57v2.12h-21.31V238H1094v-3.71h-6.79v-2.05H1094v-3.43h-5.66v-2a27.77,27.77,0,0,1-3.28,2,9.11,9.11,0,0,0-1.46-1.92,30.3,30.3,0,0,0,8.91-6.36h-4v-2.19h8a24.2,24.2,0,0,0,10.55,8.25,11.4,11.4,0,0,0-1.59,2.12,23.67,23.67,0,0,1-3.26-1.84v2h-5.78v3.43h6.87v2.05h-6.87Zm-8.08-11.26h13.71a31.24,31.24,0,0,1-6.82-6.24A36.11,36.11,0,0,1,1088.42,226.78Z" fill="#ee8923"/>
            <path d="M1133.15,226.32a63.63,63.63,0,0,1-4.27,5.2,14,14,0,0,0,4.92,5.66,5.13,5.13,0,0,0-1.44,1.82,16.39,16.39,0,0,1-5.35-6.57v5.63c0,1.26-.3,1.92-1.06,2.3a9.3,9.3,0,0,1-3.91.48,10.16,10.16,0,0,0-.81-2.25c1.36,0,2.58,0,3,0s.56-.15.56-.56v-5.15c-1.94,2-3.94,3.84-5.6,5.35l-1.44-2,.35-.28c-2.6.86-5.33,1.72-7.44,2.37l-.51-2.24c.88-.23,2-.56,3.18-.91V228.6h-2.7v-2.18h2.7v-5h-2.88v-2.17h7.8v2.17h-2.75v5h2.37v2.18h-2.37v5.9l2.88-.88.3,1.87c1.67-1.34,4-3.28,6.11-5.13V224h-6v-2.17h6v-4.19H1127v4.19h6.39V224H1127v1a29.92,29.92,0,0,0,1.06,4.5,35.74,35.74,0,0,0,3-4.3Zm-12.3-.91a19.35,19.35,0,0,1,2.63,4.5l-2,.93a18.87,18.87,0,0,0-2.49-4.62Zm10.1-3.58a16.33,16.33,0,0,0-2.93-2.75l1.31-1.21a16.81,16.81,0,0,1,3,2.57Z" fill="#ee8923"/>
            <path d="M1159.34,220.16v2h-22v-2h10c-.23-.68-.48-1.43-.71-2.06l2.38-.56c.32.81.73,1.82,1,2.62Zm-.68,18.33c0,1.11-.28,1.54-1.06,1.84a11.38,11.38,0,0,1-3.64.28,7.49,7.49,0,0,0-.73-1.74c1.06,0,2.32,0,2.6,0s.46-.11.46-.41V231.7h-15.86v9.11h-2.29V229.76h20.52Zm-2.58-15.12v5.18h-15.14v-5.18Zm-11,14.89v1.16h-2.17v-6.48h10.71v5.32Zm8.56-13.25h-10.35v1.87h10.35Zm-8.56,9.62v1.94h6.46v-1.94Z" fill="#ee8923"/>
            <path d="M1090.8,245.41h2.32V268.2h-2.32v-6.71c-4.32,1.51-5.1,1.94-5.63,2.35a9.64,9.64,0,0,0-.91-2.15,1.89,1.89,0,0,0,.88-1.72V247.78h2.3v12.5l3.36-1.06Zm14.36,6.59a28.58,28.58,0,0,1-3.26,9.71,14.75,14.75,0,0,0,5.18,4.47,7.23,7.23,0,0,0-1.62,1.9,16.71,16.71,0,0,1-4.9-4.37,17,17,0,0,1-5.4,4.54,9.71,9.71,0,0,0-1.54-1.94,14.36,14.36,0,0,0,5.63-4.65,32.79,32.79,0,0,1-2.75-6.38,13.68,13.68,0,0,1-1.66,2.55,17.35,17.35,0,0,0-1.67-2c2.14-2.49,3.41-6.53,4.09-10.82l2.4.4a44.05,44.05,0,0,1-1,4.37h8.18V252Zm-7.4.53a29.49,29.49,0,0,0,2.75,7,25.54,25.54,0,0,0,2.3-7.57H1098Z" fill="#ee8923"/>
            <path d="M1133.27,265.32v2.07h-22.79v-2.07h3.1v-7.59h16.69v7.59Zm-.45-13.4h-21.94v-2.07h6.26a25.15,25.15,0,0,0-2.4-3.91l2-.88a19.32,19.32,0,0,1,2.62,4.11l-1.36.68h7.78l-1.39-.5a28.37,28.37,0,0,0,2.47-4.32l2.37.71a37.59,37.59,0,0,1-2.75,4.11h6.34Zm-13.23,1.87a41,41,0,0,1-7.29,4.39,10,10,0,0,0-1.42-1.89,28.15,28.15,0,0,0,7.09-3.64Zm-3.91,11.53h2.67v-5.6h-2.67Zm4.82-5.6v5.6h2.7v-5.6Zm4.69-7a71.87,71.87,0,0,1,7.73,3.2l-1.29,1.87a67,67,0,0,0-7.65-3.41Zm.16,7v5.6h2.72v-5.6Z" fill="#ee8923"/>
            <path d="M1144.37,245.69a41.23,41.23,0,0,1-2.32,5v17.47h-2.27V254.22a24.85,24.85,0,0,1-2.27,2.7,17.18,17.18,0,0,0-1.27-2.37,27.14,27.14,0,0,0,6-9.52Zm6.49,19.21a20.72,20.72,0,0,1-5.83,3.28,15.42,15.42,0,0,0-1.84-1.62,17.36,17.36,0,0,0,5.42-2.5Zm-.31-17h-5.88v-1.54h5.88V245h2.38v1.31h6.13v1.54h-6.13v1.06h5.53v1.49h-5.53v1.13h6.94v1.59h-16.28v-1.59h7v-1.13h-5.27v-1.49h5.27Zm-5.07,15.9v-9.54h12.83v9.54Zm2.27-6.74H1156v-1.29h-8.21Zm0,2.58H1156v-1.32h-8.21Zm0,2.62H1156v-1.31h-8.21Zm7.42,1.69a33.53,33.53,0,0,1,4.8,3.18l-2.12,1.26a31.45,31.45,0,0,0-4.77-3.45Z" fill="#ee8923"/>
          </g>
          <g>
            <path d="M1115.65,299.54c-27.87-3.43-49.8-27.45-49.8-57.19,0-29.36,21.93-53.77,49.8-56.82v-6.48c-31.59,3-55.74,30.51-55.74,63.3,0,33.17,24.15,60.24,55.74,63.67v-6.48Z" fill="#ee8923" fill-rule="evenodd"/>
            <path d="M1128.62,179.05v6.48c27.42,3.05,49.28,27.46,49.28,56.82,0,29.74-21.86,53.76-49.28,57.19V306c31.12-3.43,55.21-30.5,55.21-63.67,0-32.79-24.09-60.25-55.21-63.3Z" fill="#ee8923" fill-rule="evenodd"/>
          </g>
        </g>
      </g>
      <g>
        <g>
          <g>
            <path d="M188.81,252.12v2.15H166.27v-2.15h7.27v-4.07H168v-8.68h5.53v-3.58h-6.69v-2.12H188.3v2.12h-7v3.56H187V248h-5.68v4.09Zm-13-6.11v6.11h3.28V246h5.58v-4.64h-5.58v-5.58h-3.25v5.6H170.3V246Z" fill="#ee8923"/>
            <path d="M200,232.86a40.53,40.53,0,0,1-2.32,5V255.3h-2.27V241.39a24.85,24.85,0,0,1-2.27,2.7,17.77,17.77,0,0,0-1.27-2.37,27.14,27.14,0,0,0,6-9.52Zm6.49,19.21a20.47,20.47,0,0,1-5.83,3.28,14.68,14.68,0,0,0-1.84-1.62,17.36,17.36,0,0,0,5.42-2.5Zm-.3-17h-5.89v-1.54h5.89v-1.31h2.37v1.31h6.13V235h-6.13v1.06h5.53v1.49h-5.53v1.13h6.94v1.6H199.25v-1.6h7v-1.13h-5.28v-1.49h5.28Zm-5.08,15.9v-9.54H214v9.54Zm2.27-6.74h8.21v-1.28h-8.21Zm0,2.58h8.21v-1.32h-8.21Zm0,2.62h8.21v-1.31h-8.21Zm7.42,1.69a32.7,32.7,0,0,1,4.8,3.19l-2.12,1.26a32.15,32.15,0,0,0-4.77-3.46Z" fill="#ee8923"/>
          </g>
          <g>
            <path d="M184.57,299.54c-27.87-3.43-49.79-27.45-49.79-57.19,0-29.36,21.92-53.76,49.79-56.81v-6.49c-31.59,3-55.74,30.51-55.74,63.3,0,33.17,24.15,60.24,55.74,63.67v-6.48Z" fill="#ee8923" fill-rule="evenodd"/>
            <path d="M197.54,179.05v6.49c27.42,3.05,49.28,27.45,49.28,56.81,0,29.74-21.86,53.76-49.28,57.19V306c31.13-3.43,55.21-30.5,55.21-63.67,0-32.79-24.08-60.25-55.21-63.3Z" fill="#ee8923" fill-rule="evenodd"/>
          </g>
        </g>
        <g>
          <g>
            <path d="M279.2,237.46a23.18,23.18,0,0,1-2.55,5.08,13.83,13.83,0,0,0-1.61-1.11,15.67,15.67,0,0,0,2.32-4.52Zm3.26-1.64v8.56h-2.28v-8.56h-4.84v-2h4.84v-2.3h-5v-2h2.75a12.68,12.68,0,0,0-.89-3.15l1.92-.48a15.59,15.59,0,0,1,.94,3.1l-1.87.53h4a26.24,26.24,0,0,0,1.23-3.66l2.17.46c-.42,1.11-.85,2.27-1.28,3.2h3v2h-4.64v2.3h4.29v2Zm4.24-9.94H275.59v-1.94h4.62c-.28-.71-.61-1.52-.91-2.15l2.32-.61c.43.86.94,1.92,1.27,2.76h3.81Zm-1.8,10.83a21.22,21.22,0,0,1,2.1,3.78l-1.64,1a25.7,25.7,0,0,0-2-3.91Zm13.28-4.8h-2.57v12.5h-2.3v-12.5h-2.95v.61c0,3.63-.33,8.68-2.58,11.89A7.76,7.76,0,0,0,286,243c2-2.93,2.17-7.2,2.17-10.5v-8.74a39,39,0,0,0,7.72-2l1.85,1.71a40.86,40.86,0,0,1-7.37,1.87v4.42h7.82Z" fill="#ee8923"/>
            <path d="M323.19,236.45v2.18H300.52v-2.18h1.92l-.38-13.27a33.46,33.46,0,0,0,4.22-1.57l1.06,2c-1,.35-2.15.68-3.23,1l.07,2.67h2.55v1.89h-2.5l.1,2.71h2.5v1.89h-2.45l.08,2.72h3V222.6h8.86v13.85h3c.05-.8.1-1.74.13-2.67h-2.5v-1.89h2.6c0-.89.05-1.8.08-2.7H317.1v-1.9h2.56c0-1,0-2,0-2.9H317v-1.94h4.77c-.05,4.41-.23,10.12-.45,14Zm-13.61,3.87a44.82,44.82,0,0,1-7.62,4.16,12.24,12.24,0,0,0-1.34-1.76,31.09,31.09,0,0,0,7-3.89Zm-.45-3.87h5.4v-12h-5.4Zm4.72-10.5v1.54h-4.07V226ZM310,229h3.68v5.73H310Zm1.06,4.29h1.54V230.4H311.1Zm4.31,5.4a62.26,62.26,0,0,1,7.25,3.91l-1.52,1.77a52.85,52.85,0,0,0-7-4Z" fill="#ee8923"/>
            <path d="M338.28,227.22v3.13h8.1V239c0,1.23-.25,1.94-1.19,2.29a13.07,13.07,0,0,1-4.39.41,8.17,8.17,0,0,0-.83-2.3c1.51.05,3,.05,3.43.05s.56-.13.56-.48v-6.34h-5.68v11.82h-2.45V232.64H330.5v9.12h-2.37V230.35h7.7v-3.13h-10v-2.3h10.45c-.4-1-1-2.15-1.49-3.08l2.3-.68a28,28,0,0,1,1.92,3.76h9.46v2.3Z" fill="#ee8923"/>
            <path d="M358.92,236.51c-2.53,1.28-5.25,2.65-7.37,3.66l-.91-2.35c.91-.36,2-.83,3.28-1.37v-7.52h-2.78v-2.22h2.78v-5.1h2.17v5.1h2.55v2.22h-2.55v6.57c.76-.36,1.54-.71,2.32-1.06Zm4.89-3a11.13,11.13,0,0,1-.93,1.51h10.55s0,.58-.05.89c-.4,5-.78,7-1.46,7.77a2.22,2.22,0,0,1-1.52.71,20.16,20.16,0,0,1-2.52,0,4.75,4.75,0,0,0-.53-1.89,17,17,0,0,0,2,.1c.38,0,.58,0,.78-.28.38-.43.71-1.87,1-5.42h-1.52a17.43,17.43,0,0,1-5.07,7.67,7.31,7.31,0,0,0-1.69-1.31,14.64,14.64,0,0,0,4.79-6.36h-2a19.44,19.44,0,0,1-6,6.58,6.68,6.68,0,0,0-1.57-1.41,16.42,16.42,0,0,0,5.45-5.17h-2.12a18.07,18.07,0,0,1-3.1,2.7,13.24,13.24,0,0,0-1.59-1.47,13.57,13.57,0,0,0,4.77-4.64h-3.23v-2H374v2Zm8.43-3.21H360.58V222h11.66Zm-2.17-6.59H362.7v1.64h7.37Zm0,3.23H362.7v1.67h7.37Z" fill="#ee8923"/>
            <path d="M301.17,249.51c-.18.27-.38.53-.58.8a26.94,26.94,0,0,0,10.6,7,5.64,5.64,0,0,0-1.51,2,30.43,30.43,0,0,1-10.4-7.42,30.94,30.94,0,0,1-10.23,7.4,9.75,9.75,0,0,0-1.61-2c4.57-1.79,9.11-5,11.61-8.83ZM300.69,269H310v2.15H288.67V269h3v-9H294v9h4.24V255.69h2.47v5.53h7v2.09h-7Z" fill="#ee8923"/>
            <path d="M322.37,267.91a21.61,21.61,0,0,1-7.53,3.25,10.24,10.24,0,0,0-1.41-1.71,21.07,21.07,0,0,0,7.22-2.35Zm13.2-3.84v2h-9.95v5.86h-2.29V266h-9.8v-2h9.8v-1.51h-7.45v-1.77h7.45v-1.51h-8.69v-1.85h5.08a14.49,14.49,0,0,0-1.12-2.17l1.47-.35h-6.44V253h3.76a18.5,18.5,0,0,0-1.84-3.41l2.05-.7a17.7,17.7,0,0,1,2,3.61l-1.34.5h2.83V248.7h2.19V253h2.5V248.7H328V253h2.75l-1-.33a21.92,21.92,0,0,0,1.76-3.73l2.43.63a38.56,38.56,0,0,1-2.1,3.43h3.61v1.87h-6.61l2,.5c-.56.76-1.14,1.44-1.64,2h5.35v1.85h-8.94v1.51h7.75v1.77h-7.75v1.51Zm-14.67-9.16a10,10,0,0,1,1.19,2.22l-1.14.3h6.9l-.91-.28a20.83,20.83,0,0,0,1.41-2.24Zm7.62,12c2.23.81,5.31,2,7,2.83L334,271.14c-1.56-.78-4.64-2.12-6.94-3Z" fill="#ee8923"/>
            <path d="M345.76,249.41a41.23,41.23,0,0,1-2.32,5v17.47h-2.27V257.94a24.91,24.91,0,0,1-2.28,2.7,16.07,16.07,0,0,0-1.26-2.37,27.21,27.21,0,0,0,6-9.52Zm6.49,19.2a20.88,20.88,0,0,1-5.83,3.29,14.79,14.79,0,0,0-1.85-1.62,17.31,17.31,0,0,0,5.43-2.5Zm-.31-17h-5.88V250h5.88v-1.32h2.38V250h6.13v1.54h-6.13v1.06h5.52v1.49h-5.52v1.13h6.94v1.59H345v-1.59h7v-1.13h-5.27v-1.49h5.27Zm-5.07,15.9v-9.54h12.82v9.54Zm2.27-6.74h8.2v-1.29h-8.2Zm0,2.57h8.2V262h-8.2Zm0,2.63h8.2v-1.31h-8.2Zm7.42,1.69a34.11,34.11,0,0,1,4.8,3.18l-2.12,1.26a32.15,32.15,0,0,0-4.77-3.46Z" fill="#ee8923"/>
          </g>
          <g>
            <path d="M318.3,299.54c-27.87-3.43-49.8-27.45-49.8-57.19,0-29.36,21.93-53.76,49.8-56.81v-6.49c-31.59,3-55.74,30.51-55.74,63.3,0,33.17,24.15,60.24,55.74,63.67v-6.48Z" fill="#ee8923" fill-rule="evenodd"/>
            <path d="M331.27,179.05v6.49c27.42,3.05,49.28,27.45,49.28,56.81,0,29.74-21.86,53.76-49.28,57.19V306c31.12-3.43,55.21-30.5,55.21-63.67,0-32.79-24.09-60.25-55.21-63.3Z" fill="#ee8923" fill-rule="evenodd"/>
          </g>
        </g>
      </g>
    </g>
  </g>
</svg>
