<svg id="圖層_1" data-name="圖層 1" xmlns="http://www.w3.org/2000/svg" viewBox="0 0 450.52 192.45"><defs><style>.cls-1{fill:#c1c6c9;}.cls-1,.cls-6{fill-rule:evenodd;}.cls-2{fill:#0068b7;}.cls-3{fill:#fff;}.cls-4{fill:#002f7b;}.cls-5,.cls-6{fill:#ef8b24;}</style></defs><path class="cls-1" d="M447.21,123.52A145.16,145.16,0,0,0,429,120.94c-31.9-2.06-63.79-2.34-95.63,1a47.06,47.06,0,0,0-9.16,1.91c-2.92.92-3.13,2.29-1.15,4.63s4.41,4.62,6.12,7.28c2.44,3.78,5.9,5.28,9.94,5.6,12.44,1,12.34,1.82,31.84,2.84,1.9.1,3.69,1.1,5.53,1.69-1.8.71-3.59,2-5.38,2-34.39.12-108.79.09-130.76.07-1,0-1.94-.14-3.1-.21,0-7.87-.08-11.07-.08-23.22,0-6.16,2.21-10.39,7.59-12.91,2.1-1,2.7-2.5,2.05-4.23a4.51,4.51,0,0,0-3.1-2.06,85.27,85.27,0,0,0-29.51,0,4.75,4.75,0,0,0-3.18,2.32c-.75,1.91.49,3,2.4,3.93,5.77,2.87,9.11,7.38,8.78,14.24-.27,5.35-.11,11.09-.19,16.45,0,1.85-.19,3.69-.29,5.47a10.76,10.76,0,0,1-1.46.23c-22.88,0-106.09,0-140.9-.07-1.8,0-3.59-1.34-5.39-2,1.85-.59,3.64-1.59,5.54-1.69,19.5-1,19.4-1.83,31.84-2.84,4-.32,7.5-1.82,9.93-5.6,1.71-2.66,4.07-4.86,6.13-7.28s1.76-3.71-1.16-4.63a47.12,47.12,0,0,0-9.15-1.91c-31.85-3.35-63.74-3.07-95.64-1a145.43,145.43,0,0,0-18.18,2.58C-.6,124.27-.92,126,1.7,129a35.6,35.6,0,0,1,3.86,4.58c3.53,5.82,8.79,8,15.16,8.36,11.54.66,11.39,1.46,29.46,2.28,1.76.08,4.25.4,5,1.19a35.49,35.49,0,0,1,6.1,7.88c1.44,2.67,3.49,3.55,7.87,3.53,36.81-.12,124.14-.07,148.34-.06,1.37,0,2.74.11,4.1.17v18.86c-2.5,0-4.73-.09-7,0-.84.05-2.19.39-2.4.94-1.87,5.09-3.54,10.26-5.37,15.7h44.9c-1.47-4.2-3-8-4.15-12-1-3.42-2.46-5.51-6.42-4.71a16,16,0,0,1-3.66-.15V156.73h4.77c24.19,0,102.2-.06,139,.06,4.39,0,6.44-.86,7.87-3.53a35.79,35.79,0,0,1,6.1-7.88c.78-.79,3.27-1.11,5-1.19,18.08-.82,17.92-1.62,29.46-2.28,6.38-.36,11.63-2.54,15.16-8.36a35.68,35.68,0,0,1,3.87-4.58C451.45,126,451.12,124.27,447.21,123.52ZM4.29,126.87c.08-.69.16-1.39.23-2.08a528,528,0,0,1,119.93.16c0,.66,0,1.32,0,2A523.08,523.08,0,0,1,4.29,126.87ZM65.07,148c-2.37.05-4.81-1.43-7.23-2.24l1-1.38h12l.95,1C69.58,146.36,67.36,148,65.07,148ZM229.55,155c-1.05-1.41-2.1-2.21-2.14-3.06,0-.68,1.24-2.09,1.75-2a3.26,3.26,0,0,1,2.34,1.85C231.64,152.49,230.52,153.47,229.55,155Zm1.38-33.59c-.44-.81-1.25-1.62-1.27-2.43,0-2.22.34-4.45.37-6.68a14.11,14.11,0,0,0-.59-3l-1.31.07v12.33l-8.74-12.26c6.25-2.62,13.15-2.37,20.77.06-4.33,2.32-5.88,5.9-7,9.83C232.88,120.12,231.69,120.68,230.93,121.38ZM385.34,148c-2.29,0-4.5-1.68-6.75-2.61l1-1h12l1,1.38C390.16,146.61,387.71,148.09,385.34,148Zm-59.26-21.1v-2A527.9,527.9,0,0,1,446,124.79c.08.69.15,1.39.23,2.08A523.08,523.08,0,0,1,326.08,126.94Z"/><path class="cls-2" d="M162.2,117.08a4.66,4.66,0,0,1-.47-1l-.68-.22a4.84,4.84,0,0,1-1,.56,5.42,5.42,0,0,1-2.43.45,6.8,6.8,0,0,1-2.44-.67,5.29,5.29,0,0,1-2-1.65,6,6,0,0,1-.48-.75l-7.54,18.33c-.39,1,.06,1.72.72,1.19l9.7-7.75c.41-.33.79-.17.86.35L158,138.21c.11.83,1,.62,1.35-.35l7.43-18.06a3.8,3.8,0,0,1-.46,0A5.65,5.65,0,0,1,162.2,117.08Z"/><path class="cls-2" d="M199.81,131.36l-7.64-19.7a5.52,5.52,0,0,1-.1.71,5.77,5.77,0,0,1-1.06,2.15,5.25,5.25,0,0,1-2,1.66,6.67,6.67,0,0,1-2.42.66,5.31,5.31,0,0,1-2.41-.45,4.41,4.41,0,0,1-1-.56l-.68.22a4.88,4.88,0,0,1-.47,1,5.74,5.74,0,0,1-3.14,2.46l6.78,17.58c.4,1,1.25,1.18,1.35.34l1.54-12.31c.06-.52.44-.68.85-.35l9.7,7.74C199.75,133.07,200.21,132.32,199.81,131.36Z"/><path class="cls-2" d="M206.43,85.08h0a3.94,3.94,0,0,0-.85-.71l-.36-.23,0-.72c0-.15,0-.29,0-.44s0-.29,0-.43l0-.73.36-.22a3.94,3.94,0,0,0,.85-.71,4.93,4.93,0,0,0,.88-1.59,4.72,4.72,0,0,0,.07-1.91,4.17,4.17,0,0,0-2-3,3.51,3.51,0,0,0-1-.42l-.41-.11-.12-.4c-.15-.47-.3-.94-.46-1.4l-.14-.4.27-.33a3.76,3.76,0,0,0,.6-.94,3.91,3.91,0,0,0,.33-1.71,5.44,5.44,0,0,0-.52-1.91,3.74,3.74,0,0,0-1.21-1.47,4.28,4.28,0,0,0-1.6-.79,3.43,3.43,0,0,0-1.1-.07l-.44,0-.24-.36c-.28-.4-.57-.8-.87-1.19l-.26-.34.16-.4a3.94,3.94,0,0,0,.29-1.09A4.4,4.4,0,0,0,194,56.43a3.62,3.62,0,0,0-1.09.29l-.4.15-.34-.26L191,55.75l-.36-.25,0-.43A3.25,3.25,0,0,0,190.6,54a4.39,4.39,0,0,0-.79-1.59,3.78,3.78,0,0,0-1.45-1.2,5.32,5.32,0,0,0-1.92-.53,3.76,3.76,0,0,0-1.73.34,3.4,3.4,0,0,0-.93.59l-.33.27-.4-.14c-.46-.16-.93-.32-1.4-.46l-.4-.12-.11-.41a3.8,3.8,0,0,0-.42-1,4.14,4.14,0,0,0-3-2,4.71,4.71,0,0,0-1.95.08,4.47,4.47,0,0,0-1.57.87,3.71,3.71,0,0,0-.71.85l-.23.36-.71,0h-.89l-.72,0-.22-.36a3.72,3.72,0,0,0-.72-.85,4,4,0,0,0-3.5-.95,4.14,4.14,0,0,0-3,2,3.51,3.51,0,0,0-.42,1l-.11.41-.4.12c-.48.14-.94.3-1.4.46l-.4.14-.33-.27a3.76,3.76,0,0,0-.94-.6,3.81,3.81,0,0,0-1.72-.33,5.24,5.24,0,0,0-1.9.52,3.74,3.74,0,0,0-1.47,1.21,4.42,4.42,0,0,0-.8,1.59,3.82,3.82,0,0,0-.06,1.11l0,.43-.36.25-1.19.86-.34.26-.4-.15a3.7,3.7,0,0,0-1.09-.29,4.38,4.38,0,0,0-4.65,4.64,3.6,3.6,0,0,0,.29,1.1l.15.4-.26.34c-.29.39-.58.79-.86,1.19l-.25.36-.43,0a3.47,3.47,0,0,0-1.11.07,4.24,4.24,0,0,0-1.59.79,3.75,3.75,0,0,0-1.2,1.44,5.17,5.17,0,0,0-.53,1.93,3.74,3.74,0,0,0,.34,1.73,3.55,3.55,0,0,0,.59.93l.27.33-.14.4c-.17.46-.32.93-.46,1.4l-.12.4-.41.11a3.51,3.51,0,0,0-1,.42,4.14,4.14,0,0,0-2,3,4.5,4.5,0,0,0,.08,1.94,4.32,4.32,0,0,0,.87,1.57,3.49,3.49,0,0,0,.85.72l.36.22,0,.71c0,.15,0,.3,0,.45s0,.31,0,.46l0,.7-.36.23a3.71,3.71,0,0,0-.85.71,4.49,4.49,0,0,0-.88,1.59,4.55,4.55,0,0,0-.07,1.91,4.14,4.14,0,0,0,2,3,3.8,3.8,0,0,0,1,.42l.41.11.12.4c.14.47.29.94.46,1.4l.14.4-.27.33a3.59,3.59,0,0,0-.6.94,3.77,3.77,0,0,0-.33,1.71,5.1,5.1,0,0,0,.52,1.91,3.81,3.81,0,0,0,1.21,1.47,4.39,4.39,0,0,0,1.59.79,3.25,3.25,0,0,0,1.11.06l.43,0,.25.36c.28.4.57.8.86,1.19l.26.34-.15.4a3.62,3.62,0,0,0-.29,1.09,4.38,4.38,0,0,0,4.64,4.65,3.68,3.68,0,0,0,1.1-.29l.4-.16.34.26c.39.3.79.59,1.19.87l.36.24,0,.44a3.91,3.91,0,0,0,0,.78,1.75,1.75,0,0,0,.05.33,4.37,4.37,0,0,0,.78,1.59,3.85,3.85,0,0,0,1.45,1.2,5.58,5.58,0,0,0,1.93.53,3.87,3.87,0,0,0,1.73-.34,3.55,3.55,0,0,0,.93-.59l.33-.27.4.14,1.4.46.4.12.11.41a3.51,3.51,0,0,0,.42,1,4.13,4.13,0,0,0,3,2,7.07,7.07,0,0,0,.87.07,3.51,3.51,0,0,0,1.07-.14,4.63,4.63,0,0,0,1.57-.87,3.72,3.72,0,0,0,.72-.85l.22-.36.71,0h.9l.71,0,.23.36a3.67,3.67,0,0,0,.71.85,4,4,0,0,0,3.5,1,4,4,0,0,0,.6-.13,4.19,4.19,0,0,0,2.42-1.84,3.8,3.8,0,0,0,.42-1l.11-.41.4-.12,1.4-.46.4-.14.33.27a3.3,3.3,0,0,0,.94.59,3.8,3.8,0,0,0,1.71.34,5.5,5.5,0,0,0,1.91-.52,3.81,3.81,0,0,0,1.47-1.21,4.36,4.36,0,0,0,.79-1.6,3.17,3.17,0,0,0,.06-1.1l0-.44.36-.24.46-.34.73-.53.34-.26.4.16a3.62,3.62,0,0,0,1.09.29,4.4,4.4,0,0,0,4.65-4.65,3.85,3.85,0,0,0-.29-1.09l-.16-.4.26-.34c.3-.39.59-.79.87-1.19l.24-.36.44,0a3.27,3.27,0,0,0,1.11-.06,4.55,4.55,0,0,0,1.59-.79,3.78,3.78,0,0,0,1.2-1.45,5.47,5.47,0,0,0,.53-1.92,3.87,3.87,0,0,0-.34-1.73,3.66,3.66,0,0,0-.59-.93l-.27-.33.14-.4c.16-.46.31-.93.46-1.4l.12-.4.41-.11a3.8,3.8,0,0,0,1-.42,4.13,4.13,0,0,0,2-3,4.58,4.58,0,0,0-.07-1.95A4.63,4.63,0,0,0,206.43,85.08ZM172.1,114A31.06,31.06,0,1,1,203.15,83,31.09,31.09,0,0,1,172.1,114Z"/><path class="cls-2" d="M172.1,111.82A28.84,28.84,0,1,1,200.94,83,28.87,28.87,0,0,1,172.1,111.82Z"/><path class="cls-3" d="M157.91,77c0-2.93,1.88-4.64,4.12-4.64a3.67,3.67,0,0,1,2.61,1.13l-.94,1.13a2.29,2.29,0,0,0-1.63-.74c-1.34,0-2.35,1.15-2.35,3.06S160.63,80,162,80a2.49,2.49,0,0,0,1.84-.87l.93,1.1A3.58,3.58,0,0,1,162,81.52C159.73,81.52,157.91,79.91,157.91,77Z"/><path class="cls-3" d="M166.84,72.47h2.91c2,0,3.48.69,3.48,2.79s-1.53,2.93-3.43,2.93h-1.19v3.16h-1.77Zm2.84,4.32c1.22,0,1.81-.51,1.81-1.53s-.65-1.38-1.87-1.38h-1v2.91Z"/><path class="cls-3" d="M178.74,71.66a19.94,19.94,0,0,1-1.15,2.61v8.11h-1.32v-6l-.66.8a9,9,0,0,0-.75-1.49,12.64,12.64,0,0,0,2.59-4.48Zm7.42,9.3v1.2h-8.07V81h1V74.32h2.08c0-.25.09-.53.14-.82h-2.72V72.28h2.89c0-.38.07-.73.09-1.07l1.52.05c-.05.34-.12.67-.18,1h2.95V73.5h-3.21c-.07.3-.13.57-.2.82h2.77V81Zm-5.78-5.6V76h3.55v-.66ZM183.93,77h-3.55v.66h3.55Zm-3.55,1.62v.68h3.55v-.68Zm0,2.33h3.55v-.67h-3.55Z"/><path class="cls-3" d="M163.79,87.61a20.13,20.13,0,0,1-1,2.22v8.54h-1.39V92a9.89,9.89,0,0,1-.87,1,9.94,9.94,0,0,0-.73-1.46,12.78,12.78,0,0,0,2.71-4.37Zm3.22,9.2a10.58,10.58,0,0,1-2.75,1.61,7.62,7.62,0,0,0-1.12-1,8.05,8.05,0,0,0,2.5-1.13Zm-.48-8.16h-2.62v-.88h2.62v-.59H168v.59h2.74v.88H168v.4h2.48v.84H168v.41h3.14v.94h-7.72V90.3h3.14v-.41h-2.37v-.84h2.37ZM169,96.27a14.36,14.36,0,0,1,2.16,1.47l-1.29.75a12.72,12.72,0,0,0-2.19-1.67l1.23-.55h-4.72V91.64h6.16v4.63ZM165.6,93H169v-.47H165.6Zm0,1.2H169V93.7H165.6Zm0,1.2H169V94.9H165.6Z"/><path class="cls-3" d="M181.09,92.37A7.76,7.76,0,0,0,184,93.74a5.22,5.22,0,0,0-.92,1.17,7.69,7.69,0,0,1-1.42-.58c-.14,2.11-.3,3.07-.64,3.44a1.3,1.3,0,0,1-1,.45,10.16,10.16,0,0,1-1.55,0,3.32,3.32,0,0,0-.41-1.34,10.13,10.13,0,0,0,1.26,0,.49.49,0,0,0,.43-.13c.17-.18.29-.74.39-2.06h-2.36c-.3,1.66-1.1,2.87-3.67,3.56a4,4,0,0,0-.8-1.22c2.07-.47,2.71-1.24,3-2.34h-1.55v-.52a9,9,0,0,1-1.34.71,3.93,3.93,0,0,0-.87-1.2A9.2,9.2,0,0,0,175,92.37h-2.09V91.09h3.32a6.3,6.3,0,0,0,.51-.76h-3.1V89.07h1.71a9.73,9.73,0,0,0-.77-1.2l1.14-.55a6.85,6.85,0,0,1,1,1.48l-.54.27h1.19a8.53,8.53,0,0,0,.44-1.94l1.51.14a14.77,14.77,0,0,1-.43,1.8h1a13.15,13.15,0,0,0,.92-1.66l1.33.4c-.28.45-.58.88-.86,1.26h1.52v1.26h-4.43c-.13.27-.27.51-.41.76h5.6v1.28Zm-4,0a8.64,8.64,0,0,1-1.14,1.12h4.5a7.14,7.14,0,0,1-1.08-1.12Z"/><path class="cls-2" d="M284.21,131.47l-1.78-1c-20.8-11.27-33.21-30.6-33.21-51.71V54.9h70V78.8c0,21.11-12.41,40.44-33.21,51.71Z"/><path class="cls-3" d="M284.21,129l-.76-.42c-20.09-10.88-32.09-29.51-32.09-49.82V57h65.71V78.8c0,20.31-12,38.94-32.09,49.82Z"/><path class="cls-2" d="M253,58.65V78.8c0,19.61,11.78,37.86,31.24,48.41h0c19.47-10.55,31.25-28.8,31.25-48.41V58.65Z"/><path class="cls-3" d="M276.54,80.31c-1.58.47-3.31,1-4.63,1.31l-.34-1.47c.49-.11,1.09-.24,1.72-.41V75.08h-1.56V73.74h4.51v1.34h-1.53v4.31l1.65-.43Zm6-5.32s0,.48,0,.65c-.14,4.85-.27,6.6-.7,7.18a1.41,1.41,0,0,1-1.06.64,10.42,10.42,0,0,1-1.73,0,3.35,3.35,0,0,0-.43-1.4c.63,0,1.21,0,1.49,0a.5.5,0,0,0,.47-.21c.3-.32.43-1.83.54-5.57h-1.61c-.2,3.2-.9,5.73-3.53,7.3a4.58,4.58,0,0,0-1-1.15c2.32-1.32,2.94-3.41,3.09-6.15h-1.62V75h1.68c0-.73,0-1.52,0-2.34h1.45c0,.8,0,1.59,0,2.34Z"/><path class="cls-3" d="M289.56,82.33c0,.59-.1.89-.5,1.08a4.12,4.12,0,0,1-1.65.2A4.35,4.35,0,0,0,287,82.5c.44,0,.9,0,1,0s.2,0,.2-.2V81.09c-.6.43-1.2.84-1.74,1.19l-.3-.84a5.24,5.24,0,0,1-.85,2.26,5.26,5.26,0,0,0-1-1,6.06,6.06,0,0,0,.68-3.3v-2.7h4.54Zm-.67-9a25.44,25.44,0,0,1,1.43,2.76l-1.25.51c-.07-.22-.18-.47-.3-.76-3,.3-3.52.37-3.87.52-.07-.28-.3-.93-.44-1.29a1.37,1.37,0,0,0,.65-.48,9.73,9.73,0,0,0,1.42-2.13l1.44.41a13.7,13.7,0,0,1-1.48,2l1.75-.14c-.18-.34-.34-.68-.5-1Zm-2.55,6.12a14.35,14.35,0,0,1-.09,1.54c.54-.24,1.25-.6,2-1v-.39l-.58.56c-.3-.31-.85-.78-1.3-1.15Zm0-1.51v.85l.6-.52c.4.29.92.71,1.28,1V77.94Zm5.92-.2c-1.44,0-1.82-.53-1.82-1.86V72.47h1.41v1.42h2.95v1.22h-2.95v.79c0,.44.08.61.46.61h1.75a6.32,6.32,0,0,0,1.11-.09c0,.37.08.88.13,1.21a5,5,0,0,1-1.21.11Zm1.51,4.58c.41,0,.5-.21.56-1.31a3.85,3.85,0,0,0,1.23.51c-.14,1.58-.51,2-1.65,2H292.2c-1.41,0-1.76-.42-1.76-1.72V78.07h1.41v1.2h3v1.26h-3v1.31c0,.42.09.48.56.48Z"/><path class="cls-3" d="M275.42,88.87a20,20,0,0,1-1,2.21v8.54H273V93.26a9.74,9.74,0,0,1-.87,1,11,11,0,0,0-.73-1.46,12.59,12.59,0,0,0,2.71-4.36Zm3.22,9.19a10.14,10.14,0,0,1-2.74,1.61,8.19,8.19,0,0,0-1.13-1,8.74,8.74,0,0,0,2.51-1.13Zm-.48-8.15h-2.62V89h2.62v-.59h1.44V89h2.74v.89H279.6v.39h2.49v.84H279.6v.41h3.14v1H275v-1h3.14v-.41h-2.37V90.3h2.37Zm2.51,7.61A15.12,15.12,0,0,1,282.83,99l-1.28.74a13.81,13.81,0,0,0-2.2-1.66l1.24-.56h-4.73V92.9H282v4.62Zm-3.44-3.28h3.36v-.47h-3.36Zm0,1.2h3.36V95h-3.36Zm0,1.2h3.36v-.48h-3.36Z"/><path class="cls-3" d="M292.72,93.63A7.6,7.6,0,0,0,295.66,95a5.17,5.17,0,0,0-.91,1.18,8.25,8.25,0,0,1-1.43-.59c-.13,2.11-.3,3.07-.64,3.44a1.35,1.35,0,0,1-.95.46,10.16,10.16,0,0,1-1.55,0,3.22,3.22,0,0,0-.41-1.35,10.68,10.68,0,0,0,1.26,0,.52.52,0,0,0,.43-.13c.17-.18.29-.74.39-2.06h-2.36c-.3,1.65-1.1,2.86-3.67,3.56a4,4,0,0,0-.8-1.23c2.07-.46,2.71-1.23,3-2.33h-1.54v-.52a11.41,11.41,0,0,1-1.35.71,3.81,3.81,0,0,0-.87-1.2,9.49,9.49,0,0,0,2.42-1.39h-2.09V92.34h3.32a7.09,7.09,0,0,0,.51-.75h-3.1V90.33H287a9.73,9.73,0,0,0-.77-1.2l1.14-.55a6.58,6.58,0,0,1,1,1.47l-.54.28H289a8.53,8.53,0,0,0,.44-1.94l1.51.14a15.71,15.71,0,0,1-.43,1.8h1a14,14,0,0,0,.92-1.67l1.34.41c-.29.44-.59.88-.87,1.26h1.53v1.26H290c-.13.26-.27.5-.41.75h5.6v1.29Zm-4,0a9.24,9.24,0,0,1-1.14,1.11h4.5A7.08,7.08,0,0,1,291,93.63Z"/><path class="cls-4" d="M44.71,9.09a11.44,11.44,0,0,0,3.93,2.48,3.69,3.69,0,0,0-.68.84,12.17,12.17,0,0,1-3.83-2.75v3.05h-1V9.09h-1.9v3.62h-1V9.81a11.41,11.41,0,0,1-3.65,2.65,3.61,3.61,0,0,0-.68-.79,10.28,10.28,0,0,0,3.77-2.58H37.19V8.26h3V6.94H36.15V6.05h4.08V4.87H37.31V4h2.92V2.82H36.37V1.93h3.19A10.23,10.23,0,0,0,38.22.42L39.13,0a9.37,9.37,0,0,1,1.54,1.67l-.54.26h3.8A11.49,11.49,0,0,0,45.32,0l1.1.35a18.32,18.32,0,0,1-1.25,1.57h3v.89h-4V4H47v2H48.4v.89H47V9.09ZM41.23,4h1.9V2.82h-1.9Zm0,2h1.9V4.87h-1.9Zm1.9,2.21V6.94h-1.9V8.26Zm1-3.39V6.05H46V4.87ZM46,6.94H44.13V8.26H46Z"/><path class="cls-4" d="M52.71,11.8v.75h-.79V8.49a4,4,0,0,1-.41.56,2,2,0,0,0-.22-.28,15.64,15.64,0,0,1-.75,3.86,3.46,3.46,0,0,0-.78-.43,19.9,19.9,0,0,0,.75-6.44V1.12h0A27,27,0,0,0,55.38.31l.76.7a26.34,26.34,0,0,1-4.74.81v.66h4.9V5.34H51.4v.42c0,.65,0,1.39-.06,2.16a8.28,8.28,0,0,0,1.17-2.45l.77.19a7.18,7.18,0,0,1-.39,1h1.27a8.75,8.75,0,0,0-.46-1l.69-.21A6,6,0,0,1,55,6.7h1.49v.71h-1.6v.76h1.44v.66H54.88V9.6h1.47v.67H54.88v.78h1.68v.75ZM51.4,3.3V4.52h4V3.3Zm2.74,4.11H52.71v.76h1.43Zm0,1.42H52.71V9.6h1.43Zm0,1.44H52.71v.78h1.43Zm5.07.54a9.54,9.54,0,0,1-2.28,1.92,2.79,2.79,0,0,0-.68-.64,7.2,7.2,0,0,0,2.09-1.75Zm-.42-8c.07-.4.13-.88.17-1.28H56.73V.69h5.66v.89H60c-.1.43-.2.89-.3,1.28H61.9V9.94H57.11V2.86ZM61,3.68H58V5h3Zm0,2.05H58V7h3Zm0,2.08H58V9.12h3Zm-.21,2.54a10.93,10.93,0,0,1,1.78,1.74l-.78.53A12.27,12.27,0,0,0,60,10.81Z"/><path class="cls-4" d="M67.71.25h1V12.73h-1V8.88a13.36,13.36,0,0,0-3.19,1.35,4.5,4.5,0,0,0-.42-1,1,1,0,0,0,.48-.93V1.57h1v7l2.12-.7Zm7.68,3.44a16,16,0,0,1-1.85,5.47,8.16,8.16,0,0,0,3,2.65,3.38,3.38,0,0,0-.71.85A8.74,8.74,0,0,1,73,10a9.72,9.72,0,0,1-3.17,2.7,4.86,4.86,0,0,0-.69-.85,8.54,8.54,0,0,0,3.28-2.75,16.57,16.57,0,0,1-1.66-4A9.86,9.86,0,0,1,69.63,7a8.09,8.09,0,0,0-.74-.86A12.74,12.74,0,0,0,71.2,0l1,.18c-.15.86-.36,1.7-.58,2.51h4.74v1Zm-4.12.21A17,17,0,0,0,73,8.2a14.86,14.86,0,0,0,1.4-4.51h-3Z"/><path class="cls-4" d="M90.29,11.35v.93H77.76v-.93h1.79V7.05h9v4.3ZM90,3.66H78V2.73h3.56A10.64,10.64,0,0,0,80.19.44l.87-.38a11.84,11.84,0,0,1,1.47,2.3l-.73.37h4.45l-.73-.27A14.17,14.17,0,0,0,87,0l1,.32a21.65,21.65,0,0,1-1.6,2.37H90ZM82.6,4.77a20,20,0,0,1-3.9,2.45,4.36,4.36,0,0,0-.62-.81,15.25,15.25,0,0,0,3.81-2.14Zm-2.12,6.58h1.73V8H80.48ZM83.16,8v3.4H84.9V8Zm6.31-1a33.85,33.85,0,0,0-4.19-1.89l.5-.73A34.79,34.79,0,0,1,90,6.11ZM85.85,8v3.4h1.76V8Z"/><path class="cls-4" d="M104.15,8.51v1H91.65v-1h1.4l-.27-7.33A22.67,22.67,0,0,0,95.35.11l.5.85c-.64.26-1.4.53-2.11.75l.06,1.62h1.86v.89H93.82l.06,1.69h1.83V6.8H93.92L94,8.51h7.87c0-.49.07-1.07.09-1.67h-1.8V6H102c0-.56,0-1.13.07-1.71h-1.83V3.37h1.84c0-.59,0-1.18,0-1.73h-2V.74h3c0,2.42-.09,5.71-.21,7.77Zm-7.58,1.8a22.75,22.75,0,0,1-4.13,2.38,9.83,9.83,0,0,0-.61-.78,15.89,15.89,0,0,0,3.85-2.22Zm1.07-5a7,7,0,0,1-.85,2.6,4.2,4.2,0,0,0-.72-.45,5.45,5.45,0,0,0,.77-2.29Zm1-.73H96.39V.13h.9V1.42h2.29v.87H97.29V3.77h1.82v0h.38V7.44c0,.43-.09.61-.39.75a4.67,4.67,0,0,1-1.46.12,2.57,2.57,0,0,0-.26-.7c.48,0,.9,0,1,0s.18-.06.18-.18Zm1.19,5a32.3,32.3,0,0,1,4,2.22l-.68.77a32.14,32.14,0,0,0-3.93-2.29Z"/><path class="cls-4" d="M107.77,6.11a15.5,15.5,0,0,0-2.44-1.49l.59-.75a16.2,16.2,0,0,1,2.45,1.39Zm1,2c-.63,1.46-1.45,3.18-2.15,4.46l-.91-.63a38.6,38.6,0,0,0,2.26-4.44Zm-.27-5.56A14.88,14.88,0,0,0,106.08.9l.58-.73a12.4,12.4,0,0,1,2.4,1.5ZM117,5.69a10.38,10.38,0,0,1-2.34,4.39,9.15,9.15,0,0,0,3.47,1.74,4,4,0,0,0-.68.89,9.8,9.8,0,0,1-3.52-1.94,11,11,0,0,1-3.4,2,3.65,3.65,0,0,0-.66-.86,10.57,10.57,0,0,0,3.34-1.8A11.57,11.57,0,0,1,111,6.36h-.35a11.27,11.27,0,0,1-1.79,6.34,3.37,3.37,0,0,0-.86-.53c1.51-1.91,1.66-4.65,1.66-6.65V2H113V0h1V2h3l.17,0,.74.21A19.35,19.35,0,0,1,116.82,5l-.88-.28a16.25,16.25,0,0,0,.71-1.7H114V5.43h2.14l.19,0ZM110.68,3V5.43H113V3ZM112,6.36a9.5,9.5,0,0,0,1.94,3.05,8.52,8.52,0,0,0,1.82-3Z"/><path class="cls-4" d="M131.58,3.29s0,.39,0,.51c-.17,5.8-.31,7.69-.75,8.27a1.19,1.19,0,0,1-1,.53,13.3,13.3,0,0,1-1.68,0,2.34,2.34,0,0,0-.29-.93c.69.06,1.32.06,1.58.06a.52.52,0,0,0,.5-.21c.34-.4.5-2.29.64-7.27h-2c-.17,3.79-.79,6.77-3.25,8.6a2.9,2.9,0,0,0-.8-.8,7.26,7.26,0,0,0,.61-.49c-2.08.26-4.21.5-5.75.68l-.16-.92c.82-.05,1.86-.15,3-.26V9.84h-2.62V9.05h2.62V8.23h-2.58V4.09h2.58V3.22h-3V2.41h3V1.53c-.88.07-1.79.12-2.61.15a2.55,2.55,0,0,0-.25-.75,44.47,44.47,0,0,0,6-.71l.55.77a22.66,22.66,0,0,1-2.73.44v1h2.94v.81H123.2v.87h2.69V8.23H123.2v.82h2.73v.79H123.2V11l2.77-.3h0c1.18-1.62,1.54-3.8,1.66-6.42H126v-1h1.66c0-1,0-2,0-3h1c0,1.05,0,2.07,0,3ZM120.52,5.8h1.73v-1h-1.73Zm1.73,1.71v-1h-1.73v1Zm1-2.69v1H125v-1ZM125,6.5h-1.8v1H125Z"/><path class="cls-4" d="M136.09,7.49v3.9c0,.59-.16.86-.52,1a5.12,5.12,0,0,1-1.87.19,4.33,4.33,0,0,0-.32-1c.67,0,1.26,0,1.43,0s.26-.07.26-.27V7.81l-1.75.52-.3-1c.57-.14,1.28-.34,2-.56v-3h-1.88v-1h1.88V0h1V2.82h1.72v1h-1.72V6.5l1.29-.38.14.94Zm8.7-1.11a8.66,8.66,0,0,1-2.71,4,11.09,11.09,0,0,0,3.68,1.43,3.64,3.64,0,0,0-.65,1A10.9,10.9,0,0,1,141.22,11a12.87,12.87,0,0,1-4.07,1.75,3,3,0,0,0-.51-.94,12.13,12.13,0,0,0,3.75-1.47,9.69,9.69,0,0,1-2.26-3.18l.14-.06h-.55v-1h6.21l.19,0ZM140,2.08A4,4,0,0,1,138,5.79a4.87,4.87,0,0,0-.67-.77,3.09,3.09,0,0,0,1.78-3V.53h4.37v3.2c0,.39,0,.53.27.53h1.06a3.86,3.86,0,0,0,.7-.07,8.41,8.41,0,0,0,.08.89,2.73,2.73,0,0,1-.75.07h-1.16c-1,0-1.18-.4-1.18-1.43V1.5H140Zm-.91,5a8,8,0,0,0,2.11,2.65,7.52,7.52,0,0,0,2.16-2.65Z"/><path class="cls-4" d="M151.14,3.84h-4V3h4Zm1.1,7.17A19.34,19.34,0,0,1,148,12.7a6.2,6.2,0,0,0-.76-.78,16.48,16.48,0,0,0,4.07-1.33Zm-1.45-9.34h-3.31V.86h3.31ZM149,4.93h9v5.56h-9Zm1,1.63h6.95V5.62H150Zm0,1.61h6.95V7.23H150Zm0,1.64h6.95v-1H150Zm3.33-8a7.22,7.22,0,0,1-1,1.38,4.81,4.81,0,0,0-.78-.52A6.07,6.07,0,0,0,153.1,0l.93.21c-.09.26-.2.51-.29.76h4.65l.16,0,.7.24a13.77,13.77,0,0,1-1.17,2l-.82-.29a7.3,7.3,0,0,0,.65-1.09h-2.2V2a2.48,2.48,0,0,1-.05.45,6.23,6.23,0,0,0,4.07,1.53,3.93,3.93,0,0,0-.58.82,6.73,6.73,0,0,1-3.78-1.62c-.46.68-1.55,1.31-4,1.69a3.25,3.25,0,0,0-.56-.76c3.6-.49,3.93-1.43,3.93-2.16V1.78Zm2.08,8.8a37,37,0,0,1,4.08,1.49l-.9.6a34.22,34.22,0,0,0-3.89-1.54Z"/><path class="cls-4" d="M22.93,26.43c0-3.29,1.92-5.29,4.51-5.29a3.8,3.8,0,0,1,2.79,1.27l-.7.83a2.78,2.78,0,0,0-2.08-1c-1.93,0-3.21,1.58-3.21,4.12s1.23,4.18,3.17,4.18a3.1,3.1,0,0,0,2.36-1.14l.71.81a4,4,0,0,1-3.13,1.45C24.83,31.69,22.93,29.74,22.93,26.43Z"/><path class="cls-4" d="M32.33,21.34h2.9c2.29,0,3.82.76,3.82,3s-1.53,3.15-3.75,3.15H33.62v4H32.33Zm2.81,5.09c1.79,0,2.63-.65,2.63-2.11s-.9-1.94-2.69-1.94H33.62v4.05Z"/><path class="cls-4" d="M44.34,20.22a21.33,21.33,0,0,1-1.42,3.16v9.19H42V24.92a14.37,14.37,0,0,1-1.18,1.51,8.77,8.77,0,0,0-.57-1,15.79,15.79,0,0,0,3.19-5.5ZM53,31.28v.89H43.71v-.89H45V23.52h2.39c.08-.38.16-.83.26-1.29H44.29v-.9h3.54c.07-.5.14-1,.18-1.42l1.1.07-.26,1.35h3.7v.9H48.67c-.12.46-.21.91-.32,1.29h3.38v7.76Zm-7-7v1.17h4.81V24.32Zm4.81,1.93H46v1.18h4.81ZM46,29.38h4.81v-1.2H46Zm0,1.9h4.81V30.14H46Z"/><path class="cls-4" d="M57.47,30.24v2.33h-.95V30.24H54.24v-.91h2.28V28.27H54.66v-5h1.86v-1H54.36v-.89h2.16V19.91h.95v1.47h2.17v.89H57.47v1h1.92v5H57.47v1.06h2.2v.91Zm-2-4.83H56.6V24.09H55.49Zm0,2.08H56.6V26.16H55.49Zm3-3.4H57.39v1.32h1.15Zm0,2.07H57.39v1.33h1.15Zm6.75-.24a11.58,11.58,0,0,1-1.43,3.29,7.64,7.64,0,0,0,3.19,2.48,3.74,3.74,0,0,0-.68.86A8.78,8.78,0,0,1,63.25,30,9.8,9.8,0,0,1,60,32.59a3.91,3.91,0,0,0-.65-.76,8.92,8.92,0,0,0,3.29-2.61A13.24,13.24,0,0,1,61.14,26l.89-.23a11.5,11.5,0,0,0,1.22,2.61,10.24,10.24,0,0,0,1.08-2.68ZM62.5,23.49a20.86,20.86,0,0,1-2,3.15,6.41,6.41,0,0,0-.81-.62,12.15,12.15,0,0,0,1.88-2.85Zm4.18-.67H59.85v-.95h3.23a13.78,13.78,0,0,0-.9-1.65l.86-.39A10.43,10.43,0,0,1,64,21.45l-.84.42h3.54Zm-1.81.34c.7.89,1.61,2.08,2,2.79l-.83.58c-.43-.74-1.32-2-2-2.89Z"/><path class="cls-4" d="M72.18,20.23a23.46,23.46,0,0,1-1.35,3v9.31h-1V25a17.76,17.76,0,0,1-1.16,1.52,9.47,9.47,0,0,0-.59-1A15.67,15.67,0,0,0,71.21,20Zm8.55,10.84v1H71.58v-1h4.11V28.75H72.42v-1h3.27v-1.6h1v1.6h3.34v1H76.72v2.32Zm-5-8.38h-3v-1h3V19.9h1v1.81h3.11v1H76.72v2h3.73v1H72v-1h3.66Z"/><path class="cls-4" d="M86,20.22a20.35,20.35,0,0,1-1.42,3.16v9.19h-1V24.92a14.32,14.32,0,0,1-1.17,1.51,10.57,10.57,0,0,0-.57-1A15.94,15.94,0,0,0,85,19.92Zm8.63,11.06v.89H85.33v-.89h1.32V23.52H89c.08-.38.17-.83.26-1.29H85.92v-.9h3.54c.07-.5.13-1,.18-1.42l1.09.07c-.08.42-.16.89-.26,1.35h3.7v.9H90.29c-.11.46-.21.91-.32,1.29h3.39v7.76Zm-7-7v1.17H92.4V24.32Zm4.82,1.93H87.58v1.18H92.4Zm-4.82,3.13H92.4v-1.2H87.58Zm0,1.9H92.4V30.14H87.58Z"/><path class="cls-4" d="M99.94,23.34A16.16,16.16,0,0,1,98.81,25v7.53h-1V26.21a13.91,13.91,0,0,1-1.62,1.5,6.17,6.17,0,0,0-.54-1A12.9,12.9,0,0,0,99,23Zm-.16-3a14,14,0,0,1-3.39,3.29,4.44,4.44,0,0,0-.54-.84A10.48,10.48,0,0,0,98.79,20Zm8.69,8.45H106.4v2.66c0,.56-.13.82-.53,1a7.29,7.29,0,0,1-2.11.16,3.4,3.4,0,0,0-.33-.94c.78,0,1.47,0,1.66,0s.28-.07.28-.25V28.78H99.8v-.89h5.57V26.71h-5.25v-.89h8.1v.89H106.4v1.18h2.07Zm-.91-3.89H101V20.34h6.59ZM101.73,29a12.27,12.27,0,0,1,1.77,1.93l-.79.56a12.82,12.82,0,0,0-1.71-2Zm4.81-7.89H102v1.11h4.57Zm0,1.86H102V24.1h4.57Z"/><path class="cls-4" d="M121.73,28.15a22.59,22.59,0,0,1-3,1.82,9.7,9.7,0,0,0,3.93,1.58,5.23,5.23,0,0,0-.64.92,8.77,8.77,0,0,1-6.52-5h-2.22v3.72l3.74-.9c0,.26,0,.68,0,.9a38.07,38.07,0,0,0-4.89,1.35l0,0a5.42,5.42,0,0,0-.48-1,1.1,1.1,0,0,0,.68-1V27.47H110v-.93h2.43V20.45H121v.88h-7.5v1.19h7.08v.85h-7.08v1.15h7.08v.83h-7.08v1.19h8.85v.93h-5.79a7.09,7.09,0,0,0,1.48,2,20.67,20.67,0,0,0,2.85-1.84Z"/><path class="cls-4" d="M130.45,29.22h-6.77v-.93H125V22.66h-1.17v-.93H125V20.05H126v1.68h2.51V20.05h1v1.68h1v.93h-1v5.63h1Zm-3.87.56a9.19,9.19,0,0,1-2,2.8,6.53,6.53,0,0,0-.83-.6,7.24,7.24,0,0,0,1.9-2.47ZM126,22.66v1.22h2.51V22.66Zm0,3.41h2.51V24.71H126Zm0,2.22h2.51V26.9H126Zm2.4,1.22a10.11,10.11,0,0,1,1.46,2.06l-.83.48a11.57,11.57,0,0,0-1.43-2.11Zm7.57,1.74c0,.61-.16.92-.53,1.08a6,6,0,0,1-2.07.2,3.44,3.44,0,0,0-.32-1h1.63c.2,0,.29-.07.29-.3V27.9H132a10.89,10.89,0,0,1-1.32,4.75,3.08,3.08,0,0,0-.82-.61c1.15-1.83,1.27-4.46,1.27-6.44v-5h4.8Zm-1-4.28v-2.3h-2.83v.93c0,.43,0,.9,0,1.37Zm-2.83-5.44v2.21h2.83V21.53Z"/><path class="cls-4" d="M141.85,26.88l-1.49.48v3.93c0,.57-.13.83-.47,1a3.9,3.9,0,0,1-1.74.19,3.2,3.2,0,0,0-.29-.95h1.29c.18,0,.25-.06.25-.26V27.67c-.62.21-1.21.4-1.72.55l-.28-1c.54-.16,1.24-.36,2-.6v-3h-1.8v-.95h1.8V19.91h1v2.78h1.44v.95h-1.44v2.71l1.35-.42Zm8.4-5.19v.95h-3.62v1.7h3v.94h-6.93v-.94h3v-1.7H142v-.95h3.64V20h1v1.72Zm-1.8,5.19h1.71v.94h-1.71v3.55c0,.61-.12.89-.53,1.06a6.81,6.81,0,0,1-2.11.18,3.64,3.64,0,0,0-.32-1c.78,0,1.52,0,1.73,0s.26-.07.26-.26V27.82h-5.32v-.94h5.32V25.64h1ZM144,28.22c.54.77,1.24,1.77,1.57,2.39l-.85.51a21,21,0,0,0-1.51-2.44Z"/><path class="cls-4" d="M156.29,22.66c-.26.54-.54,1.09-.85,1.61h6.72v7c0,.62-.14.93-.58,1.09a8.43,8.43,0,0,1-2.42.18,3.29,3.29,0,0,0-.35-1c.93,0,1.77,0,2,0s.32-.09.32-.29V29.83h-6a4.94,4.94,0,0,1-1.41,2.82,3.25,3.25,0,0,0-.73-.8,5.17,5.17,0,0,0,1.28-4v-2A11.67,11.67,0,0,1,152.08,28a8,8,0,0,0-.65-.81,11.29,11.29,0,0,0,3.73-4.52h-3.45v-1h3.9c.23-.6.44-1.2.61-1.79l1,.25c-.16.51-.34,1-.55,1.54h7.08v1Zm4.86,6.28V27.5h-5.79v.42c0,.33,0,.66,0,1Zm0-3.74h-5.79v1.4h5.79Z"/><path class="cls-4" d="M170.48,30.49a1.11,1.11,0,0,1,2.22,0,1.11,1.11,0,0,1-2.22,0Zm.32-7.72,0-1.64h1.67l0,1.64-.35,5.38h-.92Z"/><path class="cls-4" d="M296.34,2.57v.89H284.25V2.57h5.68c-.13-.4-.29-.87-.43-1.26l1-.24c.19.48.4,1.06.55,1.5Zm-.44,10.14c0,.5-.13.7-.5.84a6.15,6.15,0,0,1-1.83.13,3.12,3.12,0,0,0-.34-.77c.6,0,1.24,0,1.4,0s.24-.06.24-.22V8.64h-9.12v5.15h-1v-6H295.9Zm-1.5-8.47V7h-8V4.24Zm-1.25,8.06h-4.89V13h-.95V9.46h5.84Zm.19-7.3h-6V6.25h6Zm-5.08,5.23v1.3h4v-1.3Z"/><path class="cls-4" d="M303,4.32h-5V3.48h5Zm-4.44,1h3.9v.82h-3.9Zm0,1.81h3.9v.82h-3.9ZM302.46,13h-3v.65h-.85V8.94h3.89Zm-3-3.15V12.1h2.19V9.81Zm1-6.49a14.26,14.26,0,0,0-1-1.84l.73-.42a13.69,13.69,0,0,1,1,1.79Zm10.2,5.5h-3.26v5h-1v-5H303v-1h3.39v-5h-2.85v-1h6.83v1h-3v5h3.26Zm-6-5.19a17,17,0,0,1,.76,3.4l-.89.22a16,16,0,0,0-.72-3.41ZM308.22,7a25.27,25.27,0,0,0,.9-3.48l1,.25c-.33,1.16-.74,2.58-1.09,3.47Z"/><path class="cls-4" d="M314,3a8.46,8.46,0,0,1-1.37,1.65,5,5,0,0,0-.74-.68A8,8,0,0,0,314,1l.91.25c-.12.28-.25.56-.38.84h3.56V3h-2.59a13.9,13.9,0,0,1,1.33,1.25l-.68.61a11.54,11.54,0,0,0-1.44-1.46l.5-.4Zm7.52,6.48h2.76v.87h-2.76v2.35c0,.6-.15.83-.61,1a10.72,10.72,0,0,1-2.47.14,3,3,0,0,0-.28-.88c.93,0,1.78,0,2,0s.3-.08.3-.28V10.37h-8.37V9.5h8.37v-1h1Zm3-7.37V3h-3a12.14,12.14,0,0,1,1.29,1.36l-.71.6a9.9,9.9,0,0,0-1.31-1.49l.61-.47H320a9.78,9.78,0,0,1-1.17,1.67l-.12-.11v.65h5.07v.9h-5.07V7.38H323v.83h-9.69V7.38h4.34V6.14h-5v-.9h5V4.38h.78l-.4-.29A7.33,7.33,0,0,0,319.76,1l1,.23a7,7,0,0,1-.32.87Zm-9.39,8.37a23.18,23.18,0,0,1,2.36,2.05l-.77.61A23.2,23.2,0,0,0,314.4,11Z"/><path class="cls-4" d="M338.27,12.51v.85H325.92v-.85h5.61V11.32H327v-.84h4.57v-1h-4.15V5.25h4.15V4.42H326V3.57h5.54v-1c-1.45.1-2.92.16-4.28.18a2.57,2.57,0,0,0-.22-.81,73.48,73.48,0,0,0,9.27-.74l.56.81c-1.19.22-2.7.37-4.32.5V3.57h5.65v.85h-5.65v.83h4.34V9.53h-4.34v1h4.86v.84h-4.86v1.19ZM328.39,7h3.14V6h-3.14Zm3.14,1.75v-1h-3.14v1Zm1-2.79V7h3.3V6Zm3.3,1.74h-3.3v1h3.3Z"/><path class="cls-4" d="M344.46,2.09c-.43,1.16-1,2.62-1.47,3.75A4.39,4.39,0,0,1,344.3,8.9a1.89,1.89,0,0,1-.57,1.63,1.65,1.65,0,0,1-.74.27,8.64,8.64,0,0,1-1,0,2.26,2.26,0,0,0-.26-1c.35,0,.62,0,.87,0a.87.87,0,0,0,.47-.14,1.15,1.15,0,0,0,.3-.95A4.08,4.08,0,0,0,342,6c.41-1,.87-2.34,1.18-3.32h-2V13.8h-1V1.71h3.41l.15,0Zm2.94,2.33c0,.72-.06,1.42-.11,2.1h4.06V7c-.16,4.27-.3,5.81-.73,6.3a1.15,1.15,0,0,1-.95.47,12.88,12.88,0,0,1-1.88,0,2.56,2.56,0,0,0-.31-1c.75.07,1.47.09,1.75.09a.57.57,0,0,0,.51-.18c.3-.31.45-1.64.59-5.18H347.2c-.32,2.69-1.16,5-3.55,6.3A3.3,3.3,0,0,0,343,13c3.06-1.65,3.34-4.89,3.43-8.58h-2.2v-1h8v1Zm.89-3.28c.23.64.55,1.5.68,2l-1,.31a18.31,18.31,0,0,0-.64-2.08Z"/><path class="cls-4" d="M358.3,4.32h-4.87V3.48h4.87ZM357.87,13h-3v.65H354V8.94h3.88Zm0-6.85H354V5.29h3.83ZM354,7.1h3.83v.82H354Zm.87,2.71V12.1H357V9.81ZM356,3.32a10.27,10.27,0,0,0-1-1.84l.78-.42a11.28,11.28,0,0,1,1.05,1.79Zm3.36,2.78a6.84,6.84,0,0,1-.74.85A5.83,5.83,0,0,0,358,6.2a7.15,7.15,0,0,0,1.8-2.9l.8.22V2.8h-2.24V2h2.24V1.13h.93V3.56h-.9c-.11.3-.23.62-.37.93h1.8c-.09-.29-.19-.64-.3-.9l.88-.25a9.74,9.74,0,0,1,.45,1.15h2.58v.69H363v.7h2.35v.61H363v.69h2.35v.61H363v.74h3v.68H360.2v.28h-.87Zm6.05,4a6.35,6.35,0,0,1-2.16,2.15,13.62,13.62,0,0,0,3,.76,3.33,3.33,0,0,0-.58.82,12.93,12.93,0,0,1-3.44-1.08,14.52,14.52,0,0,1-3.75,1.1,3.59,3.59,0,0,0-.45-.84,14,14,0,0,0,3.28-.79,6.52,6.52,0,0,1-1.64-1.48l.43-.16h-1.55V9.79h6l.17,0Zm-3.27-4.89H360.2v.7h1.91Zm0,1.31H360.2v.69h1.91Zm0,1.3H360.2v.74h1.91Zm-1.48,2.76a6.52,6.52,0,0,0,1.63,1.23A6,6,0,0,0,364,10.55Zm3.28-7H363V1.13h.94V2H366V2.8h-2.1Z"/><path class="cls-4" d="M379.66,2.57v.89H367.57V2.57h5.68c-.13-.4-.29-.87-.43-1.26l1-.24c.2.48.41,1.06.56,1.5Zm-.45,10.14c0,.5-.12.7-.5.84a6.12,6.12,0,0,1-1.83.13,3.09,3.09,0,0,0-.33-.77c.6,0,1.23,0,1.4,0s.24-.06.24-.22V8.64h-9.12v5.15h-1v-6h11.14Zm-1.49-8.47V7h-8.05V4.24Zm-1.25,8.06h-4.89V13h-1V9.46h5.85Zm.19-7.3h-6V6.25h6Zm-5.08,5.23v1.3h4v-1.3Z"/><path class="cls-4" d="M385.15,1.34h1V13.82h-1V10c-2.53.93-2.93,1.13-3.19,1.35a4.5,4.5,0,0,0-.42-1,1,1,0,0,0,.47-.93V2.66h1v7l2.12-.7Zm7.67,3.44A15.78,15.78,0,0,1,391,10.25a8.08,8.08,0,0,0,3,2.65,3.38,3.38,0,0,0-.71.85,8.74,8.74,0,0,1-2.86-2.63,9.65,9.65,0,0,1-3.18,2.7,4.37,4.37,0,0,0-.68-.85,8.54,8.54,0,0,0,3.28-2.75,16.59,16.59,0,0,1-1.67-4A9.32,9.32,0,0,1,387.06,8a6.29,6.29,0,0,0-.73-.86,12.84,12.84,0,0,0,2.3-6.06l1.06.18a24.83,24.83,0,0,1-.59,2.51h4.75v1ZM388.7,5a17.58,17.58,0,0,0,1.68,4.3,14.59,14.59,0,0,0,1.4-4.51h-3Z"/><path class="cls-4" d="M407.8,12.44v.93H395.26v-.93h1.79V8.14h9v4.3Zm-.28-7.69h-12V3.82h3.57a10.71,10.71,0,0,0-1.39-2.29l.88-.39A12.19,12.19,0,0,1,400,3.45l-.74.37h4.46L403,3.55a14.17,14.17,0,0,0,1.44-2.42l1,.32a21.65,21.65,0,0,1-1.59,2.37h3.62Zm-7.41,1.11a20.63,20.63,0,0,1-3.9,2.45,4.89,4.89,0,0,0-.63-.81,15.14,15.14,0,0,0,3.82-2.14ZM398,12.44h1.74V9H398ZM400.66,9v3.4h1.75V9ZM407,8a32.61,32.61,0,0,0-4.2-1.89l.5-.73A34.79,34.79,0,0,1,407.5,7.2Zm-3.63,1v3.4h1.77V9Z"/><path class="cls-4" d="M285.23,29.35h-5.64v.88c0,.57-.15.79-.61.93a10.63,10.63,0,0,1-2.48.14,3,3,0,0,0-.36-.82c1,0,1.87,0,2.11,0s.33-.07.33-.28v-.86H273V28.6h5.56v-.93h-4.77v-.73h4.77v-.85c-1.39.07-2.82.11-4.12.11a1.71,1.71,0,0,0-.2-.69A66.74,66.74,0,0,0,283,25l.65.66a40.54,40.54,0,0,1-4,.43v.9h4.9v.73h-4.9v.93h5.64Zm-10.94-6.16h-1V20.44h2.33a8.94,8.94,0,0,0-1-1.4l.9-.36a9.08,9.08,0,0,1,1.08,1.46l-.65.3h2.57V18.6h1v1.84h2.54l-.61-.25a12.4,12.4,0,0,0,1.16-1.51l1,.36a18.55,18.55,0,0,1-1.3,1.4H285v2.75h-1V21.32h-9.66Zm1,1.49V22.16H283v2.52Zm.95-.71H282v-1.1h-5.74Z"/><path class="cls-4" d="M289.18,26.13V30c0,.57-.13.85-.47,1a4.14,4.14,0,0,1-1.71.19,4.46,4.46,0,0,0-.3-1H288c.17,0,.24,0,.24-.25V26.44l-1.47.47-.25-1,1.72-.5v-3.1h-1.54v-1h1.54V18.61h1v2.78h1.5v1h-1.5v2.8l1.4-.45.14.91Zm10.15,4V31h-7.86v-.85H295V28.6H292.3v-.81H295v-1.3a12.43,12.43,0,0,0-2.3.27V26.7a.08.08,0,0,0,0,.06c-.05-.18-.21-.64-.3-.86a1.53,1.53,0,0,0,.65-.46,11.73,11.73,0,0,0,1.17-1.5h-2.09c0,2.25-.3,5.27-1.68,7.36a3.18,3.18,0,0,0-.84-.54c1.38-2.11,1.52-5.14,1.52-7.3V19.15h7.58v3h-6.58v1h6.62v.82h-3.38a16.09,16.09,0,0,1-1.49,1.82l3.39-.22a10.9,10.9,0,0,0-.89-1l.73-.32a9.1,9.1,0,0,1,1.75,2.21l-.79.37a3.83,3.83,0,0,0-.28-.51l-1.76.12v1.38h2.72v.81H296v1.53ZM292.12,20v1.33h5.55V20Z"/><path class="cls-4" d="M302.71,24.7a12.65,12.65,0,0,0-2.21-1.49l.63-.7a12.08,12.08,0,0,1,2.23,1.4Zm-1.9,5.85a41.68,41.68,0,0,0,1.9-4.42l.83.56c-.51,1.43-1.21,3.14-1.82,4.4Zm2.3-9.48A12.2,12.2,0,0,0,301,19.46l.65-.68a12,12,0,0,1,2.1,1.51Zm3.44,1.62a5.77,5.77,0,0,1-2.44,2.83,2.6,2.6,0,0,0-.56-.59,4.81,4.81,0,0,0,2.21-2.36H304a26.69,26.69,0,0,0,.32-2.68H304v-.77h4.11v.77h-1.18v.67a6.66,6.66,0,0,1-.11,1.19h1.45v.82h-1v1.55l1.07-.48a4.3,4.3,0,0,0,.24.65,9,9,0,0,0-2.1,1.18,2.28,2.28,0,0,0-.41-.6,1.32,1.32,0,0,0,.48-1.08Zm-1.77,3h7.41v5.49h-1v-.57h-5.44v.62h-1Zm1.22-4a6.37,6.37,0,0,0,.09-1.19v-.67h-.95c-.06.6-.16,1.28-.24,1.86Zm-.27,4.8v1.19h5.44V26.55Zm5.44,3.26V28.49h-5.44v1.32Zm1.13-5.27c.22,0,.26-.07.29-1.07a2.06,2.06,0,0,0,.67.29c-.07,1.21-.28,1.5-.84,1.5h-.79c-.71,0-.89-.19-.89-1v-.82a5.68,5.68,0,0,1-1.93,2.06,2.13,2.13,0,0,0-.55-.57,4.43,4.43,0,0,0,2-2.38h-1.75c.13-.72.25-1.8.33-2.7h-.34v-.77h4.38v.77h-1.54v.82a5.94,5.94,0,0,1-.08,1.07H313v.81h-1.91A4.11,4.11,0,0,1,311,23h.52V24.3c0,.22,0,.24.23.24Zm-1.81-2.76a7.33,7.33,0,0,0,.07-1.09v-.8h-.93c-.07.61-.16,1.29-.25,1.89Z"/><path class="cls-4" d="M326.34,21.62s0,.39,0,.54c-.3,5.7-.6,7.76-1.21,8.46a1.5,1.5,0,0,1-1.18.55,17.35,17.35,0,0,1-2.22,0,2.24,2.24,0,0,0-.34-1.05c.94.08,1.83.09,2.18.09a.76.76,0,0,0,.63-.21c.5-.47.81-2.42,1.07-7.31h-4.73a10.22,10.22,0,0,1-5.13,8.69,3.89,3.89,0,0,0-.8-.82,9.34,9.34,0,0,0,4.86-7.87H315v-1h4.5v-3h1.07v3Z"/><path class="cls-4" d="M340.78,30.08v.73H328.42v-.73h5.63V27.45h-4.8v-.71H340v.71H335v2.63Zm-11-7.19h-1V20.61h5.31v-.76h-4.75v-.7h10.59v.7h-4.83v.76h5.4v2.28h-1v-1.6h-4.37v2.29h-1V21.29h-4.29ZM329.29,24h3v2.2h-3Zm3,3.71a4.76,4.76,0,0,1-.4.69,9.42,9.42,0,0,1,1.61,1l-.41.57a11.86,11.86,0,0,0-1.61-1A6.14,6.14,0,0,1,330,30.06a3.79,3.79,0,0,0-.56-.58,4,4,0,0,0,2.11-1.92Zm-2.28-2.08h1.48V24.59h-1.48Zm3.34-2.4c-1.08.21-2.14.41-3,.57l-.25-.64c.87-.11,2-.28,3.29-.46Zm-2.62-1.86a13.5,13.5,0,0,1,2.48.76l-.25.54a13.69,13.69,0,0,0-2.51-.82Zm5.34,4.84H333V24h3.11Zm-.79-1.64h-1.56v1.06h1.56Zm2.61,3.08a3.56,3.56,0,0,1-.29.7,10.14,10.14,0,0,1,1.94,1l-.38.61a12.58,12.58,0,0,0-1.92-1.1,4.54,4.54,0,0,1-1.43,1.14,7.5,7.5,0,0,0-.54-.6,3.16,3.16,0,0,0,1.81-1.91Zm1-3.76a21.79,21.79,0,0,0-3.23-.76l.21-.51a17.84,17.84,0,0,1,3.22.66Zm-.09-2.06a15.66,15.66,0,0,1-2.7.79l-.33-.45a21.58,21.58,0,0,0,2.61-.86ZM340,26.23h-3.15V24H340Zm-.79-1.64h-1.59v1.06h1.59Z"/><path class="cls-4" d="M344.79,24.8c-.57-.39-1.71-1.05-2.55-1.5l.56-.75c.81.41,2,1,2.57,1.41Zm-2.22,5.59A39,39,0,0,0,345.19,26l.75.68a49.79,49.79,0,0,1-2.51,4.46ZM345.48,21c-.57-.4-1.72-1.07-2.56-1.53l.57-.73a24.89,24.89,0,0,1,2.59,1.43Zm5.56,2.6v2.27h2.89V31.2h-1v-.51H348v.58h-.94V25.91h3V23.64h-4v-1h4V20.39c-1,.15-2.07.28-3.05.37a5.19,5.19,0,0,0-.28-.87,33.88,33.88,0,0,0,6.72-1.24l.81.81a23.28,23.28,0,0,1-3.21.78v2.4h3.8v1ZM353,26.87H348v2.86H353Z"/><path class="cls-4" d="M356.87,19.1h.86v5.58c0,2.51-.11,4.73-1.08,6.56a4.84,4.84,0,0,0-.66-.62,14,14,0,0,0,.88-5.94Zm1.88,1h.77v9.18h-.77Zm1.87-1h.85v11.7h-.85Zm4.29,10.38a10.61,10.61,0,0,1-2.76,1.88,5.87,5.87,0,0,0-.65-.68,8.54,8.54,0,0,0,2.54-1.7Zm-.31-8a12.3,12.3,0,0,0,.29-1.31h-2.77v-.9h6.55v.9H366c-.15.45-.29.9-.41,1.31h2.73v7.2h-5.75v-7.2Zm2.74.8h-3.83v1.35h3.83Zm0,2.1h-3.83v1.36h3.83Zm0,2.12h-3.83v1.38h3.83Zm-.63,2.46A15.6,15.6,0,0,1,369,30.67l-.78.6A16.05,16.05,0,0,0,366,29.46Z"/><path class="cls-4" d="M376.15,25.86c-2.15.18-4.38.34-6,.47l-.05-.79c.75,0,1.68-.1,2.7-.18v-.93h-2.09v-.7h2.09V23h1v.77H376v.7h-2.16v.87l2.37-.17Zm-3.38-4.29a2.7,2.7,0,0,1-2.2,1.95,2.77,2.77,0,0,0-.42-.66c.92-.2,1.6-.57,1.81-1.29h-1.74v-.72h2.62V20.1h-2.06v-.68h2.06V18.6h1v.82h2.11v.68h-2.11v.75h2.68v.72h-1.84v.51c0,.29,0,.38.21.38h.72a3,3,0,0,0,.61-.06c0,.21,0,.44.06.64a2.22,2.22,0,0,1-.64.07h-.91c-.71,0-.85-.32-.85-1v-.5Zm8.73,5.63a4.5,4.5,0,0,1-.05.45c-.22,2-.43,2.91-.81,3.26a1.37,1.37,0,0,1-1,.36c-.39,0-1.17,0-2,0a2.16,2.16,0,0,0-.3-.94c.79.07,1.58.08,1.86.08a.81.81,0,0,0,.54-.11c.23-.19.41-.82.58-2.24h-4c-.68,1.74-2.13,2.78-5.67,3.28a2.86,2.86,0,0,0-.47-.85c3.07-.38,4.42-1.15,5-2.43H371V27.2h4.56a5.18,5.18,0,0,0,.18-.84h1a7.34,7.34,0,0,1-.16.84Zm0-6.94c0,3.08,0,5.36.56,5.36.16,0,.23-.74.25-1.72a4.92,4.92,0,0,0,.6.55c-.08,1.5-.24,2.06-.94,2.06-1.28,0-1.37-2.19-1.4-5.4h-1.42a11.88,11.88,0,0,1-.3,2c.57.36,1.1.71,1.44,1l-.47.75c-.3-.23-.75-.55-1.22-.89a4.53,4.53,0,0,1-1.83,2.25,2.43,2.43,0,0,0-.6-.65,4,4,0,0,0,1.67-2.11l-1.28-.81L377,22l1,.64c.09-.47.16-1,.21-1.54h-1.47v-.85h1.52c0-.51,0-1.08,0-1.66h.91c0,.58,0,1.15-.06,1.66Z"/><path class="cls-4" d="M388.61,21.8h-4.69v-.86h4.69Zm-4.17,2.78h3.75v.82h-3.75Zm3.76,5.87h-2.9v.62h-.86V26.43h3.76Zm0-6.86h-3.73v-.81h3.73Zm-2.89,3.7v2.3h2.06v-2.3Zm1.07-6.46a18,18,0,0,0-1-1.86l.76-.34a13.76,13.76,0,0,1,1,1.8Zm9.8,9.16c0,.54-.13.83-.47,1a5.64,5.64,0,0,1-1.88.16,4.17,4.17,0,0,0-.3-.88c.71,0,1.33,0,1.53,0s.24-.07.24-.28V24.73h-5.05c0,2.06-.21,4.76-1.26,6.57a3.55,3.55,0,0,0-.72-.52c1-1.81,1.12-4.41,1.12-6.38V19.22h6.79Zm-5.93-9.84v1.49h2.08V20.15Zm0,3.74h2.08V22.48h-2.08Zm1.38,5v.63h-.77V25.65h3.71V28.9Zm0-2.47v1.69h2.13V26.43Zm3.67-6.28H393.2v1.49h2.09Zm0,3.74V22.48H393.2v1.41Z"/><path class="cls-4" d="M397.8,19.19h6.54v.89h-2v1.78h1.68v9.19h-.86v-.79h-4.3v1h-.83V21.86h1.68V20.08H397.8Zm5.4,10.22V25.79h-.82c-.62,0-.8-.17-.8-.89V22.75h-1v1a3.2,3.2,0,0,1-1.19,2.66,2.49,2.49,0,0,0-.5-.41v3.37Zm-4.3-6.66V26a2.61,2.61,0,0,0,1-2.24v-1Zm.57,4.45h3.16V28h-3.16Zm2.07-7.12h-1v1.78h1Zm1.66,2.67h-1v2.13c0,.2,0,.21.21.21h.75Zm5.57,7.41c.59,0,.71-.35.77-2.35a2.68,2.68,0,0,0,.95.45c-.13,2.25-.43,2.87-1.65,2.87h-2.28c-1.25,0-1.64-.32-1.64-1.58v-6h4V20.22h-4.09v-1H410v6.26h-1v-.93h-3v5c0,.51.12.61.73.61Z"/><path class="cls-4" d="M416.81,29.19a1.11,1.11,0,1,1,1.11,1.09A1.06,1.06,0,0,1,416.81,29.19Zm.32-7.72,0-1.64h1.66l0,1.64-.35,5.39h-.92Z"/><path class="cls-5" d="M350,83.38h3.87v.85h-8.61v-.85H349v-1.5h-2.74v-.83H349V79.67h-2.28v-.83a12.31,12.31,0,0,1-1.33.82,3.15,3.15,0,0,0-.59-.78,12.16,12.16,0,0,0,3.6-2.57h-1.62v-.88H350a9.86,9.86,0,0,0,4.26,3.33,4.61,4.61,0,0,0-.64.85,8.57,8.57,0,0,1-1.31-.74v.8H350v1.38h2.77v.83H350Zm-3.26-4.55h5.53a12.56,12.56,0,0,1-2.75-2.52A14.39,14.39,0,0,1,346.75,78.83Z"/><path class="cls-5" d="M364.81,78.65a26.21,26.21,0,0,1-1.72,2.1,5.75,5.75,0,0,0,2,2.28,2.07,2.07,0,0,0-.58.73,6.55,6.55,0,0,1-2.16-2.65v2.28c0,.51-.12.77-.43.92a3.57,3.57,0,0,1-1.58.2,4.12,4.12,0,0,0-.32-.91c.55,0,1,0,1.19,0s.23-.06.23-.22V81.31c-.79.78-1.6,1.55-2.27,2.16l-.58-.83.14-.11c-1,.35-2.15.69-3,1l-.21-.91c.36-.09.81-.22,1.29-.37V79.56H355.7v-.87h1.09v-2h-1.16v-.88h3.14v.88h-1.11v2h1v.87h-1V82l1.17-.36.12.76c.67-.54,1.6-1.33,2.47-2.07V77.72H359v-.88h2.42V75.15h.91v1.69h2.58v.88h-2.58v.42a12.08,12.08,0,0,0,.43,1.81A13.76,13.76,0,0,0,364,78.22Zm-5-.37a8,8,0,0,1,1.07,1.81l-.79.38a7.33,7.33,0,0,0-1-1.86Zm4.08-1.45a6.72,6.72,0,0,0-1.18-1.11l.53-.49a6.94,6.94,0,0,1,1.22,1Z"/><path class="cls-5" d="M375.39,76.16V77H366.5v-.8h4.05l-.29-.84,1-.22c.13.33.29.73.4,1.06Zm-.28,7.4c0,.45-.11.62-.43.74a4.39,4.39,0,0,1-1.47.12,3.32,3.32,0,0,0-.29-.71c.43,0,.94,0,1.05,0s.18,0,.18-.16V80.82h-6.4V84.5h-.93V80h8.29Zm-1-6.11v2.09H368V77.45Zm-4.45,6v.47h-.88V81.32h4.32v2.15Zm3.45-5.35h-4.18v.75h4.18ZM369.62,82v.78h2.61V82Z"/><path class="cls-5" d="M348.64,88.65H345v-.76h1.72a9.66,9.66,0,0,0-.68-1.37l.68-.38a11.61,11.61,0,0,1,.7,1.33l-.68.42h1.95ZM345.34,90v-.74h2.89V90Zm0,.6h2.9v.74h-2.9Zm2.9,4.37h-2.13v.45h-.76V92h2.89Zm-2.13-2.23v1.46h1.36V92.73Zm8.12-.74h-2.31v3.56H351V92h-2.35v-.9H351V87.61h-2v-.88h5v.88h-2.12v3.48h2.31Zm-4.3-3.88a12.81,12.81,0,0,1,.52,2.43l-.81.2a13.08,13.08,0,0,0-.46-2.45Zm2.47,2.41A18.27,18.27,0,0,0,353,88l.9.21c-.25.84-.54,1.86-.79,2.5Z"/><path class="cls-5" d="M357.21,87.69a6.89,6.89,0,0,1-1,1.17,5.81,5.81,0,0,0-.66-.65,5.41,5.41,0,0,0,1.54-2.1l.85.24a3.78,3.78,0,0,1-.27.53h2.47v.81h-1.68a7.9,7.9,0,0,1,.82.79l-.61.55a8.89,8.89,0,0,0-1-1l.36-.3Zm5.55,4.64h2v.77h-2v1.53c0,.48-.12.7-.5.81a7.9,7.9,0,0,1-1.83.11,4.2,4.2,0,0,0-.26-.78c.6,0,1.23,0,1.39,0s.22,0,.22-.19V93.1h-3.65a17.64,17.64,0,0,1,1.63,1.44l-.71.56a16.45,16.45,0,0,0-1.62-1.54l.62-.46h-2.28v-.77h6V91.7h1Zm2.15-5.45v.82h-2.06a6.47,6.47,0,0,1,.82.89l-.66.55a6,6,0,0,0-.94-1.09l.43-.35h-.9a5.72,5.72,0,0,1-.84,1.21l0,0v.3h3.66V90h-3.66v.77h3.07v.74h-7.16v-.74h3.11V90h-3.62v-.8h3.62v-.57h.65a3.85,3.85,0,0,0-.35-.26,5.42,5.42,0,0,0,1.26-2.23l.87.2c-.06.2-.12.38-.19.56Z"/><path class="cls-5" d="M369.34,86.47a15.08,15.08,0,0,1-.94,2v7.06h-.91V89.91a9.25,9.25,0,0,1-.92,1.09,7.51,7.51,0,0,0-.51-1,11,11,0,0,0,2.42-3.84ZM372,94.22a8.43,8.43,0,0,1-2.35,1.33,6.09,6.09,0,0,0-.75-.66,7.06,7.06,0,0,0,2.19-1Zm-.12-6.88h-2.38v-.62h2.38v-.53h1v.53h2.47v.62H372.8v.43H375v.6H372.8v.46h2.8v.64H369v-.64h2.81v-.46h-2.13v-.6h2.13Zm-2,6.42V89.91H375v3.85Zm.92-2.72H374v-.52h-3.31Zm0,1H374v-.53h-3.31Zm0,1.06H374v-.53h-3.31Zm3,.68a13.3,13.3,0,0,1,1.94,1.29l-.85.51a13.27,13.27,0,0,0-1.93-1.4Z"/><path class="cls-6" d="M357.74,107.31a23.23,23.23,0,0,1,0-46V58.66C345,59.89,335.23,71,335.23,84.22a25.52,25.52,0,0,0,22.51,25.71v-2.62Z"/><path class="cls-6" d="M363,58.66v2.62c11.07,1.23,19.9,11.08,19.9,22.94A23.08,23.08,0,0,1,363,107.31v2.62c12.57-1.39,22.3-12.32,22.3-25.71,0-13.24-9.73-24.33-22.3-25.56Z"/><path class="cls-5" d="M404,82.48h3.87v.85h-8.61v-.85H403V81h-2.74v-.83H403V78.77h-2.28v-.83a12.31,12.31,0,0,1-1.33.82,3.34,3.34,0,0,0-.59-.78,12.16,12.16,0,0,0,3.6-2.57h-1.62v-.88H404a9.86,9.86,0,0,0,4.26,3.33,4.37,4.37,0,0,0-.64.86,9.58,9.58,0,0,1-1.31-.75v.8H404v1.38h2.77V81H404Zm-3.26-4.55h5.53a12.56,12.56,0,0,1-2.75-2.52A14.39,14.39,0,0,1,400.75,77.93Z"/><path class="cls-5" d="M418.81,77.75a26.21,26.21,0,0,1-1.72,2.1,5.75,5.75,0,0,0,2,2.28,2.07,2.07,0,0,0-.58.73,6.55,6.55,0,0,1-2.16-2.65v2.28c0,.51-.12.77-.43.92a3.57,3.57,0,0,1-1.58.2,4.12,4.12,0,0,0-.32-.91c.55,0,1,0,1.19,0s.23-.06.23-.22V80.41c-.79.78-1.6,1.55-2.27,2.16l-.58-.83.14-.11c-1,.35-2.15.69-3,1l-.21-.91c.36-.09.81-.22,1.29-.37V78.66H409.7v-.87h1.09v-2h-1.16v-.88h3.14v.88h-1.11v2h1v.87h-1v2.39l1.17-.36.12.76c.67-.54,1.6-1.33,2.47-2.07V76.82H413v-.88h2.42V74.25h.91v1.69h2.58v.88h-2.58v.42a12.08,12.08,0,0,0,.43,1.81A13.76,13.76,0,0,0,418,77.32Zm-5-.37a8.2,8.2,0,0,1,1.07,1.81l-.79.38a7.33,7.33,0,0,0-1-1.86Zm4.08-1.45a6.72,6.72,0,0,0-1.18-1.11l.53-.49a6.94,6.94,0,0,1,1.22,1Z"/><path class="cls-5" d="M429.39,75.26v.81H420.5v-.81h4.05c-.1-.27-.2-.58-.29-.84l1-.22c.13.33.29.73.4,1.06Zm-.28,7.4c0,.45-.11.62-.43.74a4.39,4.39,0,0,1-1.47.12,3.32,3.32,0,0,0-.29-.71c.43,0,.94,0,1.05,0s.18,0,.18-.16V79.92h-6.4V83.6h-.93V79.13h8.29Zm-1-6.11v2.09H422V76.55Zm-4.45,6V83h-.88V80.42h4.32v2.15Zm3.45-5.35h-4.18V78h4.18Zm-3.45,3.88v.79h2.61V81.1Z"/><path class="cls-5" d="M401.71,85.45h.94v9.21h-.94V92a9.36,9.36,0,0,0-2.28.94,4,4,0,0,0-.36-.86.77.77,0,0,0,.35-.69V86.41h.93v5l1.36-.43Zm5.8,2.66A11.57,11.57,0,0,1,406.19,92a6.09,6.09,0,0,0,2.09,1.8,3,3,0,0,0-.65.77,6.67,6.67,0,0,1-2-1.77,6.79,6.79,0,0,1-2.18,1.84,4.06,4.06,0,0,0-.62-.79A5.83,5.83,0,0,0,405.12,92,13.46,13.46,0,0,1,404,89.44a5.54,5.54,0,0,1-.67,1,7.74,7.74,0,0,0-.67-.81,9.23,9.23,0,0,0,1.65-4.37l1,.16c-.11.61-.24,1.2-.4,1.77h3.3v.89Zm-3,.22a11.75,11.75,0,0,0,1.11,2.84,10.11,10.11,0,0,0,.93-3.06h-2Z"/><path class="cls-5" d="M418.86,93.5v.83h-9.2V93.5h1.25V90.43h6.74V93.5Zm-.18-5.42h-8.86v-.83h2.53a10.86,10.86,0,0,0-1-1.58l.8-.36A7.51,7.51,0,0,1,413.24,87l-.55.28h3.14l-.56-.21a10.74,10.74,0,0,0,1-1.74l1,.29a18.38,18.38,0,0,1-1.11,1.66h2.56Zm-5.34.76a16.83,16.83,0,0,1-2.95,1.77,4.08,4.08,0,0,0-.57-.76,11.48,11.48,0,0,0,2.86-1.47Zm-1.58,4.66h1.08V91.23h-1.08Zm1.94-2.27V93.5h1.09V91.23Zm1.9-2.84a30.78,30.78,0,0,1,3.12,1.29l-.52.76a27.26,27.26,0,0,0-3.09-1.38Zm.06,2.84V93.5h1.1V91.23Z"/><path class="cls-5" d="M423.34,85.57a15.08,15.08,0,0,1-.94,2v7.06h-.91V89a9.25,9.25,0,0,1-.92,1.09,7.51,7.51,0,0,0-.51-1,11,11,0,0,0,2.42-3.84ZM426,93.32a8.43,8.43,0,0,1-2.35,1.33,5.31,5.31,0,0,0-.75-.65,7.3,7.3,0,0,0,2.19-1Zm-.12-6.88h-2.38v-.62h2.38v-.53h1v.53h2.47v.62H426.8v.43H429v.6H426.8v.46h2.8v.64H423v-.64h2.81v-.46h-2.13v-.6h2.13Zm-2,6.42V89H429v3.85Zm.92-2.72H428v-.52h-3.31Zm0,1H428v-.53h-3.31Zm0,1.06H428v-.53h-3.31Zm3,.69a12.54,12.54,0,0,1,1.94,1.28l-.85.51a13.27,13.27,0,0,0-1.93-1.4Z"/><path class="cls-6" d="M411.74,107.31a23.23,23.23,0,0,1,0-46V58.66C399,59.89,389.23,71,389.23,84.22a25.52,25.52,0,0,0,22.51,25.71v-2.62Z"/><path class="cls-6" d="M417,58.66v2.62c11.07,1.23,19.9,11.08,19.9,22.94A23.08,23.08,0,0,1,417,107.31v2.62c12.57-1.39,22.3-12.32,22.3-25.71,0-13.24-9.73-24.33-22.3-25.56Z"/><path class="cls-5" d="M37.48,88.16V89H28.37v-.87h2.94V86.52H29.08V83h2.23V81.57h-2.7v-.86h8.66v.86H34.46V83h2.29v3.5H34.46v1.65ZM32.22,85.7v2.46h1.32V85.7h2.25V83.82H33.54V81.57H32.23v2.26H30V85.7Z"/><path class="cls-5" d="M42,80.39a16.46,16.46,0,0,1-.94,2v7.06h-.92V83.83a9.21,9.21,0,0,1-.91,1.09,7.51,7.51,0,0,0-.51-1,11,11,0,0,0,2.41-3.84Zm2.62,7.75a8.35,8.35,0,0,1-2.36,1.33,5.21,5.21,0,0,0-.74-.65,7.3,7.3,0,0,0,2.19-1Zm-.12-6.88H42.13v-.62h2.38v-.53h1v.53h2.48v.62H45.46v.43H47.7v.6H45.46v.46h2.81v.64H41.69v-.64h2.82v-.46H42.38v-.6h2.13Zm-2,6.42V83.83h5.18v3.85ZM43.38,85h3.31v-.52H43.38Zm0,1h3.31v-.53H43.38Zm0,1.06h3.31v-.53H43.38Zm3,.69A13,13,0,0,1,48.31,89l-.86.51a13.13,13.13,0,0,0-1.92-1.4Z"/><path class="cls-6" d="M35.76,107.31a23.23,23.23,0,0,1,0-46V58.66C23,59.89,13.26,71,13.26,84.22a25.51,25.51,0,0,0,22.5,25.71v-2.62Z"/><path class="cls-6" d="M41,58.66v2.62c11.08,1.23,19.9,11.08,19.9,22.94A23.07,23.07,0,0,1,41,107.31v2.62c12.57-1.39,22.3-12.32,22.3-25.71C63.3,71,53.57,59.89,41,58.66Z"/><path class="cls-5" d="M74,82.25a9.49,9.49,0,0,1-1,2,5.27,5.27,0,0,0-.65-.44A6.43,6.43,0,0,0,73.23,82Zm1.31-.67V85h-.91V81.58h-2v-.8h2v-.93h-2v-.79h1.11a5.29,5.29,0,0,0-.36-1.28l.78-.19a6.61,6.61,0,0,1,.37,1.25l-.75.22h1.61a10.75,10.75,0,0,0,.5-1.48l.88.18c-.18.45-.35.92-.52,1.3h1.19v.79H75.29v.93H77v.8Zm1.71-4H72.52v-.79h1.87c-.12-.28-.25-.61-.37-.86l.94-.25c.17.35.37.78.51,1.11H77Zm-.72,4.37a8.9,8.9,0,0,1,.85,1.53l-.67.4a9.9,9.9,0,0,0-.81-1.58ZM81.64,80h-1v5h-.92V80h-1.2v.25a8.86,8.86,0,0,1-1,4.8,3.24,3.24,0,0,0-.72-.56,7.83,7.83,0,0,0,.88-4.24V76.72a15.75,15.75,0,0,0,3.11-.82l.75.69a17.06,17.06,0,0,1-3,.75v1.79h3.16Z"/><path class="cls-5" d="M91.74,81.84v.87H82.59v-.87h.77l-.15-5.36a15.68,15.68,0,0,0,1.7-.63l.43.8c-.41.14-.87.28-1.3.39l0,1.08h1v.76h-1l0,1.09h1v.77h-1l0,1.1h1.2v-5.6H89v5.6h1.21c0-.33,0-.7,0-1.08h-1V80h1.05c0-.35,0-.72,0-1.09h-1v-.76h1c0-.4,0-.8,0-1.17H89.23v-.79h1.93c0,1.79-.09,4.09-.18,5.66ZM86.25,83.4a18.67,18.67,0,0,1-3.08,1.68,5.56,5.56,0,0,0-.54-.71,12.43,12.43,0,0,0,2.83-1.57Zm-.19-1.56h2.19V77H86.06ZM88,77.6v.62H86.33V77.6Zm-1.54,1.21h1.49v2.31H86.43Zm.43,1.73h.62V79.39h-.62Zm1.74,2.18a27.1,27.1,0,0,1,2.93,1.58l-.61.72a22,22,0,0,0-2.85-1.63Z"/><path class="cls-5" d="M97.83,78.11v1.26h3.28v3.5c0,.5-.11.78-.48.93a5.46,5.46,0,0,1-1.78.16,3.34,3.34,0,0,0-.33-.93c.61,0,1.22,0,1.38,0s.23,0,.23-.19V80.3h-2.3v4.77h-1V80.3H94.69V84h-1V79.37h3.1V78.11h-4v-.93H97c-.16-.39-.4-.87-.6-1.24l.92-.28a10.49,10.49,0,0,1,.78,1.52H102v.93Z"/><path class="cls-5" d="M106.17,81.86c-1,.52-2.12,1.07-3,1.48l-.36-1,1.32-.55v-3H103v-.9h1.12V75.85H105V77.9h1v.9h-1v2.65L106,81Zm2-1.2c-.12.21-.24.41-.38.61H112s0,.23,0,.35c-.16,2-.32,2.84-.59,3.14a.88.88,0,0,1-.61.29,8.24,8.24,0,0,1-1,0,1.79,1.79,0,0,0-.22-.77,5.67,5.67,0,0,0,.8,0c.15,0,.23,0,.31-.12a5.08,5.08,0,0,0,.41-2.19h-.61a7,7,0,0,1-2,3.1,3.08,3.08,0,0,0-.68-.53A5.88,5.88,0,0,0,109.68,82h-.8a7.79,7.79,0,0,1-2.43,2.66,2.48,2.48,0,0,0-.63-.57A6.52,6.52,0,0,0,108,82h-.85a6.7,6.7,0,0,1-1.26,1.09,4.57,4.57,0,0,0-.64-.59,5.48,5.48,0,0,0,1.93-1.87h-1.31v-.81h6.37v.81Zm3.4-1.3h-4.71V76h4.71Zm-.88-2.66h-3v.66h3Zm0,1.31h-3v.67h3Z"/><path class="cls-5" d="M82.85,87.11c-.07.11-.15.21-.23.32a10.78,10.78,0,0,0,4.28,2.83,2.38,2.38,0,0,0-.62.82,12.26,12.26,0,0,1-4.19-3,12.59,12.59,0,0,1-4.13,3,4,4,0,0,0-.66-.8A10.32,10.32,0,0,0,82,86.7ZM82.66,95h3.76v.86H77.8V95H79V91.35h.92V95h1.72V89.61h1v2.23h2.83v.84H82.66Z"/><path class="cls-5" d="M91.41,94.54a8.59,8.59,0,0,1-3,1.31,4.1,4.1,0,0,0-.57-.69,8.5,8.5,0,0,0,2.92-1ZM96.74,93v.79h-4v2.37H91.8V93.78h-4V93h4v-.61h-3v-.72h3v-.61H88.29v-.74h2a5.64,5.64,0,0,0-.45-.88l.59-.14h-2.6v-.75H89.4a7.78,7.78,0,0,0-.74-1.38l.82-.29a6.81,6.81,0,0,1,.82,1.46l-.54.21H90.9V86.78h.89v1.76h1V86.78h.89v1.76H94.8l-.39-.14a8.7,8.7,0,0,0,.71-1.51l1,.26c-.28.5-.58,1-.85,1.39h1.46v.75H94l.79.2a10.22,10.22,0,0,1-.66.82h2.16v.74H92.72v.61h3.13v.72H92.72V93Zm-5.92-3.7a4.71,4.71,0,0,1,.48.9l-.46.12h2.78l-.37-.11a7.56,7.56,0,0,0,.57-.91Zm3.08,4.86c.89.33,2.14.82,2.82,1.14l-.63.55c-.63-.31-1.88-.85-2.81-1.21Z"/><path class="cls-5" d="M100.85,87.07a17.23,17.23,0,0,1-.93,2v7H99V90.51a9.25,9.25,0,0,1-.92,1.09,5.9,5.9,0,0,0-.51-.95A11,11,0,0,0,100,86.8Zm2.62,7.75a8.29,8.29,0,0,1-2.35,1.33,5.93,5.93,0,0,0-.74-.65,7.18,7.18,0,0,0,2.19-1Zm-.12-6.88H101v-.62h2.37v-.53h1v.53h2.48v.62h-2.48v.43h2.23V89h-2.23v.46h2.8v.64h-6.57v-.64h2.81V89h-2.13v-.6h2.13Zm-2,6.43V90.51h5.18v3.86Zm.92-2.73h3.31v-.52h-3.31Zm0,1h3.31v-.53h-3.31Zm0,1.06h3.31v-.53h-3.31Zm3,.69a12.41,12.41,0,0,1,1.93,1.28l-.85.51a13.27,13.27,0,0,0-1.93-1.4Z"/><path class="cls-6" d="M89.76,107.31a23.23,23.23,0,0,1,0-46V58.66C77,59.89,67.26,71,67.26,84.22a25.51,25.51,0,0,0,22.5,25.71v-2.62Z"/><path class="cls-6" d="M95,58.66v2.62c11.08,1.23,19.9,11.08,19.9,22.94A23.07,23.07,0,0,1,95,107.31v2.62c12.57-1.39,22.3-12.32,22.3-25.71,0-13.24-9.73-24.33-22.3-25.56Z"/></svg>