<svg xmlns="http://www.w3.org/2000/svg" width="1242" height="584" viewBox="0 0 1242 584">
  <g id="圖層_2" data-name="圖層 2">
    <g>
      <path d="M1150.49,384.67c-14.88-2.87-29.94-5.41-45-6.39-79-5.09-158-5.79-236.83,2.51A116.57,116.57,0,0,0,846,385.52c-7.24,2.28-7.76,5.67-2.86,11.45,5.08,6,10.93,11.46,15.16,18,6,9.37,14.6,13.08,24.61,13.89,30.81,2.49,30.55,4.5,78.85,7,4.71.25,9.13,2.73,13.7,4.17-4.45,1.78-8.88,5.08-13.33,5.09-85.16.29-269.41.21-323.82.18-2.36-.09-4.79-.35-7.68-.54,0-19.47-.19-27.41-.19-57.5,0-15.26,5.49-25.72,18.8-31.95,5.21-2.44,6.68-6.21,5.07-10.48-.9-2.38-4.8-4.6-7.66-5.11a211.58,211.58,0,0,0-73.09,0c-3,.51-6.83,3.15-7.86,5.76-1.88,4.71,1.2,7.37,5.93,9.73,14.28,7.11,22.56,18.28,21.73,35.24-.65,13.26-.27,27.47-.46,40.75-.06,4.57-.47,9.15-.72,13.55a29.47,29.47,0,0,1-3.61.58c-56.66,0-262.72.12-348.93-.18-4.46,0-8.89-3.31-13.33-5.09,4.56-1.44,9-3.92,13.69-4.17,48.3-2.53,48-4.54,78.85-7,10-.81,18.58-4.52,24.61-13.89,4.23-6.57,10.08-12,15.16-18,4.9-5.78,4.38-9.17-2.86-11.45a116.32,116.32,0,0,0-22.66-4.73c-78.86-8.3-157.85-7.6-236.83-2.51-15.09,1-30.15,3.52-45,6.39-9.68,1.87-10.48,6.05-4,13.52,3.25,3.74,7,7.15,9.57,11.35,8.74,14.42,21.76,19.81,37.55,20.71,28.57,1.62,28.19,3.6,73,5.64,4.36.2,10.53,1,12.46,3,6,6.1,11.45,12.65,15.11,19.5,3.54,6.62,8.62,8.79,19.48,8.75,91.15-.32,307.43-.19,367.34-.16,3.39,0,6.79.28,10.16.43v46.69c-6.18,0-11.7-.21-17.2.11-2.09.12-5.44,1-5.94,2.32-4.64,12.61-8.78,25.4-13.32,38.89H666.57c-3.64-10.4-7.5-19.93-10.28-29.77-2.4-8.48-6.11-13.65-15.92-11.66-2.71.55-5.7-.2-9.06-.38V466.92h11.81v0c59.91,0,253.09-.16,344.24.16,10.85,0,15.93-2.13,19.48-8.75,3.65-6.85,9.09-13.4,15.11-19.5,1.93-2,8.1-2.76,12.45-3,44.76-2,44.38-4,73-5.64,15.79-.9,28.8-6.29,37.54-20.71,2.54-4.2,6.33-7.61,9.57-11.35C1161,390.72,1160.17,386.54,1150.49,384.67ZM53.63,393l.57-5.17c99-10.83,198-11.3,297,.4,0,1.64,0,3.28,0,4.93C252,404.35,152.8,404.62,53.63,393ZM204.14,445.4c-5.86.13-11.92-3.54-17.89-5.54.83-1.15,1.67-2.29,2.5-3.43h29.74c.8.83,1.58,1.67,2.37,2.5C215.3,441.25,209.82,445.27,204.14,445.4Zm407.31,17.17c-2.6-3.5-5.18-5.48-5.3-7.59-.09-1.69,3.07-5.17,4.33-5,2.24.35,5.42,2.64,5.8,4.59S613.86,458.84,611.45,462.57Zm3.43-83.2c-1.1-2-3.09-4-3.14-6-.1-5.5.83-11,.92-16.53,0-2.5-.95-5-1.48-7.51l-3.24.18V380l-21.65-30.37c15.48-6.5,32.57-5.86,51.45.15-10.73,5.74-14.56,14.62-17.42,24.35C619.71,376.25,616.75,377.65,614.88,379.37Zm382.38,66c-5.67-.13-11.15-4.15-16.72-6.47.8-.83,1.58-1.67,2.37-2.5h29.74c.84,1.14,1.68,2.28,2.51,3.43C1009.19,441.86,1003.13,445.53,997.26,445.4ZM850.51,393.14c0-1.65,0-3.29,0-4.93,99-11.7,198-11.23,297-.4l.57,5.17C1048.88,404.62,949.7,404.35,850.51,393.14Z" fill="#c1c6c9" fill-rule="evenodd"/>
      <g>
        <g>
          <path d="M444.67,368.73a11.87,11.87,0,0,1-1.16-2.54l-1.68-.55a12.24,12.24,0,0,1-2.4,1.37,13.12,13.12,0,0,1-6,1.11,16.62,16.62,0,0,1-6.05-1.65,12.92,12.92,0,0,1-5-4.09,17.67,17.67,0,0,1-1.2-1.85L402.5,405.92c-1,2.4.16,4.25,1.79,2.95l24-19.19c1-.81,2-.42,2.13.86l3.8,30.5c.26,2.08,2.36,1.54,3.34-.85L456,375.46c-.38,0-.76-.06-1.15-.11A14,14,0,0,1,444.67,368.73Z" fill="#0068b6"/>
          <path d="M537.82,404.08,518.9,355.29a10.93,10.93,0,0,1-.26,1.77,14.58,14.58,0,0,1-2.62,5.33,13,13,0,0,1-5,4.11,16.54,16.54,0,0,1-6,1.62,13.13,13.13,0,0,1-6-1.1,12.15,12.15,0,0,1-2.43-1.38l-1.68.55a11.26,11.26,0,0,1-1.17,2.55,14.17,14.17,0,0,1-7.75,6.07l16.79,43.54c1,2.39,3.08,2.93,3.33.85l3.8-30.5c.16-1.29,1.12-1.67,2.13-.86L536,407C537.67,408.33,538.8,406.47,537.82,404.08Z" fill="#0068b6"/>
          <path d="M554.21,289.49h0a9.63,9.63,0,0,0-2.11-1.76l-.89-.57,0-1.79q0-.54,0-1.08c0-.36,0-.72,0-1.07l0-1.8.89-.57a9.62,9.62,0,0,0,2.11-1.75,11.61,11.61,0,0,0,2.17-3.94,11.47,11.47,0,0,0,.17-4.73,10.29,10.29,0,0,0-4.87-7.48,9.1,9.1,0,0,0-2.56-1l-1-.27-.3-1c-.35-1.17-.73-2.32-1.13-3.46l-.35-1,.67-.82a9.48,9.48,0,0,0,1.47-2.33,9.32,9.32,0,0,0,.83-4.24,13.15,13.15,0,0,0-1.29-4.72,9.26,9.26,0,0,0-3-3.64,10.9,10.9,0,0,0-4-2,9,9,0,0,0-2.74-.15l-1.07.08-.61-.88c-.69-1-1.4-2-2.14-2.95l-.64-.84.39-1a9.86,9.86,0,0,0,.71-2.7c.3-2.75-.83-5.71-3.16-8.36-2.66-2.33-5.62-3.45-8.34-3.16a9.8,9.8,0,0,0-2.72.71l-1,.39-.84-.64c-1-.74-1.95-1.45-2.95-2.14l-.88-.61.08-1.07a8.84,8.84,0,0,0-.16-2.76,10.88,10.88,0,0,0-2-3.93,9.22,9.22,0,0,0-3.59-3,13,13,0,0,0-4.76-1.31,9.45,9.45,0,0,0-4.29.83,9.55,9.55,0,0,0-2.3,1.46l-.81.67-1-.35c-1.14-.4-2.29-.77-3.46-1.12l-1-.31-.27-1a8.91,8.91,0,0,0-1-2.55,10.29,10.29,0,0,0-7.43-4.87,10,10,0,0,0-8.71,2.33,9.22,9.22,0,0,0-1.76,2.12l-.57.88-1.77,0c-.73,0-1.47,0-2.2,0l-1.77,0-.57-.88a9.18,9.18,0,0,0-1.76-2.11,11.33,11.33,0,0,0-3.93-2.18,11.48,11.48,0,0,0-4.73-.17,10.32,10.32,0,0,0-7.48,4.87,9.1,9.1,0,0,0-1,2.56l-.27,1-1,.31c-1.16.35-2.31.72-3.45,1.12l-1,.35-.81-.67A9.48,9.48,0,0,0,438,205a9.63,9.63,0,0,0-4.25-.83,13.26,13.26,0,0,0-4.72,1.29,9.4,9.4,0,0,0-3.64,3,11,11,0,0,0-2,4,8.68,8.68,0,0,0-.15,2.74l.08,1.07-.88.61c-1,.69-2,1.4-2.95,2.14l-.84.64-1-.39a9.86,9.86,0,0,0-2.7-.71c-2.74-.3-5.71.83-8.36,3.16-2.34,2.66-3.46,5.62-3.17,8.35a9.87,9.87,0,0,0,.72,2.71l.39,1-.64.84c-.74,1-1.45,1.95-2.14,2.95l-.62.88-1.06-.08a8.77,8.77,0,0,0-2.76.16,10.8,10.8,0,0,0-3.93,1.95,9.33,9.33,0,0,0-3,3.59,13.22,13.22,0,0,0-1.31,4.76,9.43,9.43,0,0,0,.84,4.29,9.25,9.25,0,0,0,1.46,2.3l.67.82-.35,1c-.4,1.14-.78,2.29-1.13,3.46l-.3,1-1,.27a9.15,9.15,0,0,0-2.55,1,10.22,10.22,0,0,0-4.86,7.44,11.19,11.19,0,0,0,.17,4.81,11.47,11.47,0,0,0,2.16,3.89,9.15,9.15,0,0,0,2.11,1.76l.89.57-.05,1.74c0,.38,0,.75,0,1.13s0,.76,0,1.13l.05,1.74-.89.57a9.4,9.4,0,0,0-2.11,1.76,11.66,11.66,0,0,0-2.17,3.93,11.15,11.15,0,0,0-.17,4.73,10.26,10.26,0,0,0,4.87,7.48,9.15,9.15,0,0,0,2.55,1l1,.27.3,1c.35,1.16.73,2.31,1.13,3.45l.35,1-.67.81a9.19,9.19,0,0,0-1.47,2.33,9.36,9.36,0,0,0-.83,4.25,13,13,0,0,0,1.29,4.72,9.33,9.33,0,0,0,3,3.64,10.91,10.91,0,0,0,3.95,2,8.49,8.49,0,0,0,2.75.15l1.06-.08.62.88c.69,1,1.4,2,2.14,2.95l.64.85-.39,1a9.68,9.68,0,0,0-.71,2.7c-.3,2.75.82,5.71,3.16,8.36,2.65,2.34,5.6,3.45,8.34,3.17a9.84,9.84,0,0,0,2.72-.72l1-.39.84.64c1,.74,1.95,1.45,2.95,2.15l.88.61-.08,1.06a9.37,9.37,0,0,0,0,1.94,6.77,6.77,0,0,0,.11.82,10.83,10.83,0,0,0,2,3.93,9.38,9.38,0,0,0,3.58,3,13.32,13.32,0,0,0,4.77,1.31,9.54,9.54,0,0,0,4.29-.83,9.32,9.32,0,0,0,2.3-1.47l.81-.67,1,.35c1.14.4,2.29.78,3.45,1.13l1,.3.27,1a9.15,9.15,0,0,0,1,2.55,10.23,10.23,0,0,0,7.43,4.86,15.63,15.63,0,0,0,2.17.16,9.38,9.38,0,0,0,2.65-.33A11.47,11.47,0,0,0,464,369.3a9.18,9.18,0,0,0,1.76-2.11l.57-.89,1.76.05q1.11,0,2.22,0l1.76-.05.57.89a8.94,8.94,0,0,0,1.76,2.11,11.47,11.47,0,0,0,3.93,2.17,11.14,11.14,0,0,0,4.73.17,9.39,9.39,0,0,0,1.49-.31,10.41,10.41,0,0,0,6-4.56,9.15,9.15,0,0,0,1-2.55l.27-1,1-.3c1.17-.35,2.32-.73,3.46-1.13l1-.35.81.67a9.39,9.39,0,0,0,2.32,1.48,9.52,9.52,0,0,0,4.25.82,12.9,12.9,0,0,0,4.72-1.29,9.36,9.36,0,0,0,3.65-3,11,11,0,0,0,2-3.95,9.07,9.07,0,0,0,.15-2.75l-.08-1.06.88-.61c.39-.27.76-.56,1.15-.84.6-.43,1.21-.86,1.8-1.31l.85-.64,1,.39a9.91,9.91,0,0,0,2.7.72c2.75.29,5.7-.83,8.36-3.17,2.33-2.65,3.46-5.61,3.17-8.34a10.21,10.21,0,0,0-.72-2.72l-.39-1,.64-.85c.74-1,1.45-1.95,2.14-2.95l.61-.88,1.07.08a8.87,8.87,0,0,0,2.76-.15,11,11,0,0,0,3.93-2,9.36,9.36,0,0,0,3-3.59,13.23,13.23,0,0,0,1.32-4.77,9.65,9.65,0,0,0-2.3-6.59l-.67-.81.35-1c.4-1.14.78-2.29,1.13-3.45l.3-1,1-.27a9.1,9.1,0,0,0,2.56-1,10.25,10.25,0,0,0,4.86-7.43,10,10,0,0,0-2.33-8.71Zm-85,71.7a76.9,76.9,0,1,1,76.9-76.9A77,77,0,0,1,469.2,361.19Z" fill="#0068b6"/>
        </g>
        <path d="M469.2,355.71a71.42,71.42,0,1,1,71.41-71.42A71.5,71.5,0,0,1,469.2,355.71Z" fill="#0068b6"/>
        <g>
          <path d="M434,269.34c0-7.25,4.67-11.49,10.22-11.49a9,9,0,0,1,6.45,2.82l-2.32,2.79a5.65,5.65,0,0,0-4-1.84c-3.33,0-5.82,2.85-5.82,7.57s2.26,7.67,5.73,7.67a6.12,6.12,0,0,0,4.55-2.17l2.31,2.73a8.88,8.88,0,0,1-7,3.24C438.56,280.66,434,276.68,434,269.34Z" fill="#fff"/>
          <path d="M456.15,258.26h7.22c4.87,0,8.61,1.7,8.61,6.89,0,5-3.77,7.28-8.49,7.28h-2.94v7.81h-4.4Zm7,10.7c3,0,4.49-1.28,4.49-3.81s-1.61-3.41-4.64-3.41h-2.49V269Z" fill="#fff"/>
          <path d="M485.63,256.24a47.29,47.29,0,0,1-2.85,6.48V282.8h-3.27V268c-.53.68-1.1,1.36-1.63,2a21.94,21.94,0,0,0-1.85-3.69,31.67,31.67,0,0,0,6.42-11.11ZM504,279.29v3H484v-3h2.56V262.84h5.14c.12-.63.23-1.31.35-2h-6.74v-3h7.16c.09-1,.18-1.81.24-2.64l3.74.11c-.12.84-.3,1.67-.45,2.53h7.31v3H495.4c-.18.74-.33,1.39-.5,2h6.86v16.45ZM489.7,265.42v1.63h8.79v-1.63Zm8.79,4.07H489.7v1.63h8.79Zm-8.79,4v1.69h8.79V273.5Zm0,5.79h8.79v-1.66H489.7Z" fill="#fff"/>
          <path d="M448.6,295.75a49.92,49.92,0,0,1-2.55,5.49v21.15H442.6V306.62a25,25,0,0,1-2.17,2.52,23.06,23.06,0,0,0-1.81-3.62,30.86,30.86,0,0,0,6.71-10.81Zm8,22.78a25.43,25.43,0,0,1-6.8,4,19.36,19.36,0,0,0-2.79-2.44,20.81,20.81,0,0,0,6.21-2.79Zm-1.19-20.2h-6.5v-2.2h6.5v-1.45H459v1.45h6.77v2.2H459v1h6.15v2.08H459v1h7.78v2.35H447.62V302.4h7.78v-1h-5.88v-2.08h5.88Zm6.21,18.86a36.21,36.21,0,0,1,5.35,3.66l-3.18,1.84a32.44,32.44,0,0,0-5.44-4.13l3.06-1.37H449.7V305.73H465v11.46Zm-8.52-8.14h8.31V307.9h-8.31Zm0,3h8.31v-1.18h-8.31Zm0,3h8.31v-1.18h-8.31Z" fill="#fff"/>
          <path d="M491.45,307.54a19.1,19.1,0,0,0,7.27,3.39,13,13,0,0,0-2.25,2.91,21.23,21.23,0,0,1-3.54-1.46c-.32,5.23-.74,7.6-1.57,8.52A3.34,3.34,0,0,1,489,322a24.81,24.81,0,0,1-3.86.09,7.79,7.79,0,0,0-1-3.32,27.65,27.65,0,0,0,3.12.11,1.3,1.3,0,0,0,1.07-.32c.42-.45.71-1.84,1-5.11h-5.85c-.74,4.1-2.73,7.1-9.09,8.82a10,10,0,0,0-2-3c5.14-1.16,6.71-3.06,7.36-5.79h-3.83V312.2a24.2,24.2,0,0,1-3.32,1.75,9.89,9.89,0,0,0-2.17-3,23,23,0,0,0,6-3.44h-5.17v-3.18h8.23a20.29,20.29,0,0,0,1.25-1.87h-7.67v-3.12h4.22a23.64,23.64,0,0,0-1.9-3L478.2,295a16.19,16.19,0,0,1,2.38,3.65l-1.34.68h2.94a20.35,20.35,0,0,0,1.1-4.81l3.74.36a35.17,35.17,0,0,1-1.07,4.45h2.56a33.46,33.46,0,0,0,2.28-4.13l3.3,1c-.71,1.1-1.45,2.17-2.14,3.12h3.77v3.12h-11c-.33.65-.66,1.25-1,1.87h13.86v3.18Zm-10,0a20.5,20.5,0,0,1-2.82,2.76h11.14a17.47,17.47,0,0,1-2.68-2.76Z" fill="#fff"/>
        </g>
      </g>
      <g>
        <path d="M746.83,404.37,742.41,402c-51.5-27.9-82.24-75.76-82.24-128v-59.2H833.5v59.2c0,52.28-30.75,100.14-82.24,128Z" fill="#0068b6"/>
        <path d="M746.83,398.34l-1.89-1c-49.76-26.95-79.46-73.07-79.46-123.37V220.05H828.19v53.89c0,50.3-29.71,96.42-79.46,123.37Z" fill="#fff"/>
        <path d="M669.46,224v49.91c0,48.56,29.18,93.76,77.37,119.87h0c48.2-26.11,77.38-71.31,77.38-119.87V224Z" fill="#0068b6"/>
        <g>
          <path d="M727.84,277.68c-3.92,1.16-8.2,2.35-11.47,3.24l-.86-3.66c1.22-.26,2.7-.59,4.28-1V264.73h-3.86V261.4H727.1v3.33h-3.81v10.66l4.1-1.07Zm14.79-13.19s0,1.19,0,1.61c-.36,12-.68,16.36-1.75,17.79a3.42,3.42,0,0,1-2.62,1.57,26.88,26.88,0,0,1-4.27.09,8.57,8.57,0,0,0-1.07-3.47c1.54.11,3,.11,3.68.11a1.25,1.25,0,0,0,1.16-.5c.74-.8,1.07-4.55,1.33-13.81h-4c-.5,7.93-2.22,14.2-8.73,18.09a11.11,11.11,0,0,0-2.49-2.85c5.76-3.27,7.27-8.44,7.66-15.24h-4v-3.39h4.16c0-1.81,0-3.77,0-5.79h3.59c0,2,0,3.95-.06,5.79Z" fill="#fff"/>
          <path d="M760.08,282.67c0,1.45-.27,2.2-1.25,2.67a10.13,10.13,0,0,1-4.09.51,10.24,10.24,0,0,0-1.07-2.77c1.07.06,2.22.06,2.58.06s.5-.11.5-.5v-3c-1.48,1.07-3,2.08-4.3,2.94l-.74-2.08a13.09,13.09,0,0,1-2.11,5.58,14.1,14.1,0,0,0-2.47-2.37c1.58-2.32,1.69-5.59,1.69-8.17v-6.68h11.26Zm-1.66-22.28a63.48,63.48,0,0,1,3.53,6.84l-3.09,1.24c-.18-.53-.44-1.16-.74-1.87-7.51.74-8.73.92-9.59,1.28-.18-.69-.74-2.29-1.1-3.18a3.4,3.4,0,0,0,1.63-1.19,24.89,24.89,0,0,0,3.51-5.28l3.56,1a33.53,33.53,0,0,1-3.65,4.94l4.33-.33c-.44-.86-.86-1.69-1.24-2.41Zm-6.33,15.15a34.77,34.77,0,0,1-.21,3.8c1.34-.59,3.09-1.48,4.87-2.43v-1l-1.42,1.39a42.65,42.65,0,0,0-3.24-2.85Zm0-3.74v2.11l1.49-1.28c1,.71,2.28,1.75,3.17,2.53V271.8Zm14.67-.51c-3.56,0-4.51-1.3-4.51-4.6v-8.43h3.5v3.5h7.31v3h-7.31v2c0,1.1.18,1.51,1.13,1.51h4.34A15.2,15.2,0,0,0,774,268c.06.92.21,2.19.33,3a12.34,12.34,0,0,1-3,.26Zm3.75,11.35c1,0,1.21-.51,1.36-3.24a9.68,9.68,0,0,0,3.06,1.28c-.35,3.89-1.28,5.05-4.1,5.05h-4.22c-3.5,0-4.36-1-4.36-4.28v-9.33h3.5v3h7.52v3.11h-7.52v3.24c0,1,.21,1.19,1.37,1.19Z" fill="#fff"/>
          <path d="M725.05,298.86a51.94,51.94,0,0,1-2.56,5.49V325.5h-3.44V309.73a27.8,27.8,0,0,1-2.17,2.52,24.94,24.94,0,0,0-1.81-3.62,31.15,31.15,0,0,0,6.71-10.81Zm8,22.78a25.64,25.64,0,0,1-6.81,4,18.84,18.84,0,0,0-2.79-2.44,20.7,20.7,0,0,0,6.21-2.79Zm-1.19-20.2h-6.51v-2.2h6.51v-1.45h3.56v1.45h6.77v2.2h-6.77v1h6.15v2.08h-6.15v1h7.78v2.35H724.07v-2.35h7.78v-1H726v-2.08h5.88Zm6.2,18.86A36.21,36.21,0,0,1,743.4,324l-3.18,1.84a32.33,32.33,0,0,0-5.43-4.13l3.06-1.37h-11.7V308.84h15.26V320.3Zm-8.52-8.14h8.32V311h-8.32Zm0,3h8.32V314h-8.32Zm0,3h8.32v-1.18h-8.32Z" fill="#fff"/>
          <path d="M767.89,310.65a19.15,19.15,0,0,0,7.28,3.39,13.36,13.36,0,0,0-2.26,2.91,21.13,21.13,0,0,1-3.53-1.46c-.33,5.23-.75,7.6-1.58,8.52a3.3,3.3,0,0,1-2.34,1.13,24.85,24.85,0,0,1-3.86.09,7.79,7.79,0,0,0-1-3.32,27.59,27.59,0,0,0,3.12.11,1.26,1.26,0,0,0,1.06-.32c.42-.45.72-1.84,1-5.11H759.9c-.74,4.1-2.73,7.1-9.08,8.82a9.85,9.85,0,0,0-2-3c5.14-1.16,6.72-3.06,7.37-5.79h-3.83v-1.28a23.75,23.75,0,0,1-3.33,1.75,9.56,9.56,0,0,0-2.17-3,23,23,0,0,0,6-3.44H747.7v-3.18h8.22a18.45,18.45,0,0,0,1.25-1.87h-7.66v-3.12h4.21a21.57,21.57,0,0,0-1.9-3l2.83-1.36A16.13,16.13,0,0,1,757,301.8l-1.33.68h2.94a20.33,20.33,0,0,0,1.09-4.81l3.75.36a39,39,0,0,1-1.07,4.45H765a35,35,0,0,0,2.29-4.13l3.29,1c-.71,1.1-1.45,2.17-2.13,3.12h3.77v3.12h-11c-.33.65-.65,1.25-1,1.87H774v3.18Zm-10,0a20.5,20.5,0,0,1-2.82,2.76h11.14a17.86,17.86,0,0,1-2.67-2.76Z" fill="#fff"/>
        </g>
      </g>
      <g>
        <g>
          <path d="M158.6,102.79a31.33,31.33,0,0,0,10.72,6.78,9.68,9.68,0,0,0-1.86,2.27A33.57,33.57,0,0,1,157,104.35v8.33h-2.72v-9.89H149.1v9.89h-2.73v-7.92a30.81,30.81,0,0,1-10,7.23,9,9,0,0,0-1.86-2.15,28.26,28.26,0,0,0,10.3-7h-6.77v-2.27h8.28V96.93H135.25V94.51h11.12V91.29h-8V89h8V85.68H135.85V83.26h8.71a28,28,0,0,0-3.67-4.12l2.5-1.14a25.94,25.94,0,0,1,4.2,4.54l-1.48.72h10.37A30.78,30.78,0,0,0,160.27,78l3,.94a48.51,48.51,0,0,1-3.41,4.28H168v2.42H157V89h7.87v5.5h3.79v2.42h-3.79v5.86ZM149.1,89h5.19V85.68H149.1Zm0,5.5h5.19V91.29H149.1Zm5.19,6V96.93H149.1v3.59ZM157,91.29v3.22h5.15V91.29Zm5.15,5.64H157v3.59h5.15Z" fill="#002f7c"/>
          <path d="M180.43,110.18v2h-2.15v-11a12.16,12.16,0,0,1-1.14,1.51,4.19,4.19,0,0,0-.61-.76,40.57,40.57,0,0,1-2,10.53,9.89,9.89,0,0,0-2.12-1.18c1.93-5.11,2-12.38,2-17.56V81.07h0c4.66-.46,10.26-1.25,13.25-2.24l2.09,1.93A73.93,73.93,0,0,1,176.84,83v1.82H190.2v7.79H176.84v1.14c0,1.78,0,3.78-.15,5.91a22.89,22.89,0,0,0,3.17-6.71l2.12.53a21.31,21.31,0,0,1-1.06,2.84h3.45a23.22,23.22,0,0,0-1.25-2.68L185,93a18.29,18.29,0,0,1,1.63,3.25h4.05v1.94h-4.35v2.08h3.93v1.78h-3.93v2.12h4V106h-4v2.12h4.58v2.05ZM176.84,87v3.33h10.82V87Zm7.49,11.21h-3.9v2.08h3.9Zm0,3.86h-3.9v2.12h3.9Zm0,3.93h-3.9v2.12h3.9Zm13.82,1.48a26.56,26.56,0,0,1-6.21,5.22,9.35,9.35,0,0,0-1.85-1.74,19.22,19.22,0,0,0,5.67-4.77ZM197,85.8c.19-1.1.34-2.39.46-3.48h-6.1V79.89h15.45v2.43h-6.47c-.27,1.17-.54,2.42-.8,3.48h5.94v19.3H192.43V85.8ZM203,88h-8.21v3.48H203Zm0,5.6h-8.21v3.56H203Zm0,5.68h-8.21v3.56H203Zm-.56,6.93a30.31,30.31,0,0,1,4.84,4.73l-2.12,1.44a34.27,34.27,0,0,0-4.81-4.92Z" fill="#002f7c"/>
          <path d="M221.34,78.68h2.77v34h-2.77V102.23c-6.89,2.53-8,3.06-8.7,3.67a11.89,11.89,0,0,0-1.14-2.57,2.85,2.85,0,0,0,1.29-2.54V82.28h2.76v19.19l5.79-1.93Zm20.94,9.39c-1.06,6-2.62,10.86-5,14.91a22.23,22.23,0,0,0,8.18,7.23,9.42,9.42,0,0,0-1.93,2.31,23.73,23.73,0,0,1-7.8-7.15,26.49,26.49,0,0,1-8.67,7.34,13.19,13.19,0,0,0-1.85-2.31,23.18,23.18,0,0,0,8.93-7.49,45.52,45.52,0,0,1-4.54-10.79,26,26,0,0,1-3,4.84,19.4,19.4,0,0,0-2-2.34c3.26-3.82,5.22-10,6.28-16.54l2.88.49c-.42,2.35-1,4.65-1.59,6.85h13v2.65ZM231,88.64a47.22,47.22,0,0,0,4.59,11.73,40.54,40.54,0,0,0,3.82-12.3h-8.18Z" fill="#002f7c"/>
          <path d="M282.92,109v2.53H248.74V109h4.88V97.23h24.64V109Zm-.76-21H249.42V85.46h9.73a29.32,29.32,0,0,0-3.79-6.25l2.39-1.06a32.12,32.12,0,0,1,4,6.28l-2,1h12.16l-2-.76a39.06,39.06,0,0,0,3.94-6.59l2.8.87a59.22,59.22,0,0,1-4.36,6.48h9.88ZM262,91a54.78,54.78,0,0,1-10.64,6.66,12.26,12.26,0,0,0-1.7-2.19A41.5,41.5,0,0,0,260,89.66Zm-5.79,18h4.73V99.69h-4.73Zm7.3-9.28V109h4.77V99.69Zm17.23-2.76a89.24,89.24,0,0,0-11.44-5.15l1.37-2a103.58,103.58,0,0,1,11.51,4.88Zm-9.88,2.76V109h4.8V99.69Z" fill="#002f7c"/>
          <path d="M320.73,101.2v2.62H286.62V101.2h3.82l-.72-20a60.12,60.12,0,0,0,7-2.92l1.37,2.31c-1.74.72-3.82,1.44-5.75,2l.15,4.42h5.07v2.43h-5l.15,4.62h5v2.42h-4.88l.15,4.65h21.46c.08-1.32.19-2.91.27-4.54h-4.92V94.28h5c.08-1.52.12-3.07.19-4.66h-5V87.2h5c0-1.63.07-3.22.07-4.73h-5.45V80h8c0,6.62-.23,15.59-.57,21.19Zm-20.67,4.93a60.83,60.83,0,0,1-11.28,6.47,24.45,24.45,0,0,0-1.67-2.12,43.91,43.91,0,0,0,10.53-6.06ZM303,92.57a18.93,18.93,0,0,1-2.31,7.08,12.8,12.8,0,0,0-2-1.21,14.69,14.69,0,0,0,2.08-6.24Zm2.62-2h-6V78.34H302v3.52h6.24v2.39H302v4h5v0h1v10c0,1.17-.23,1.67-1.06,2a12.25,12.25,0,0,1-4,.34,7.18,7.18,0,0,0-.72-1.93,23.65,23.65,0,0,0,2.84,0c.42,0,.5-.15.5-.49Zm3.25,13.74a91.38,91.38,0,0,1,11,6.06L318,112.48a88.54,88.54,0,0,0-10.71-6.24Z" fill="#002f7c"/>
          <path d="M330.59,94.65a39.84,39.84,0,0,0-6.66-4l1.63-2a42,42,0,0,1,6.66,3.79Zm2.62,5.34c-1.71,4-3.94,8.67-5.87,12.16l-2.46-1.71a112.32,112.32,0,0,0,6.17-12.11Zm-.72-15.18A39.29,39.29,0,0,0,326,80.46l1.59-2a35,35,0,0,1,6.55,4.09Zm23.32,8.71a28.35,28.35,0,0,1-6.4,12,25,25,0,0,0,9.46,4.77,10.5,10.5,0,0,0-1.85,2.43,26.62,26.62,0,0,1-9.58-5.31,29.88,29.88,0,0,1-9.27,5.38,11.13,11.13,0,0,0-1.82-2.35,28.12,28.12,0,0,0,9.12-4.92,31.62,31.62,0,0,1-6-10.14h-.94c-.19,5.56-1.18,12.45-4.89,17.3a8.61,8.61,0,0,0-2.35-1.44c4.13-5.23,4.55-12.68,4.55-18.13V83.53h9.12V78.08h2.76v5.45H356l.46-.12,2,.57a53,53,0,0,1-3.22,7.61l-2.39-.76c.61-1.21,1.29-3,1.93-4.65H347.7V92.8h5.84l.52-.11Zm-17.27-7.34V92.8h6.4V86.18Zm3.56,9.16a26,26,0,0,0,5.3,8.33,23.15,23.15,0,0,0,5-8.33Z" fill="#002f7c"/>
          <path d="M395.54,87s0,1.06,0,1.4c-.46,15.83-.84,21-2.05,22.56a3.25,3.25,0,0,1-2.69,1.44,36.43,36.43,0,0,1-4.58,0,6.32,6.32,0,0,0-.79-2.53c1.89.15,3.59.15,4.31.15a1.4,1.4,0,0,0,1.36-.57c.92-1.1,1.37-6.25,1.75-19.84h-5.38c-.45,10.34-2.16,18.48-8.86,23.47a8.6,8.6,0,0,0-2.19-2.19,15.35,15.35,0,0,0,1.66-1.33c-5.68.72-11.47,1.36-15.67,1.86l-.45-2.5c2.23-.15,5.07-.42,8.17-.72v-3.33H363v-2.16h7.15v-2.23h-7V89.17h7V86.78H362V84.59h8.13V82.16c-2.42.19-4.88.34-7.11.42a8.44,8.44,0,0,0-.68-2,120,120,0,0,0,16.31-1.93l1.52,2.08a61.64,61.64,0,0,1-7.46,1.21v2.69h8v2.19h-8v2.39H380v11.28h-7.34v2.23h7.46v2.16h-7.46v3.07c2.46-.27,5-.54,7.57-.84v0c3.22-4.43,4.2-10.37,4.51-17.53h-4.4V87h4.51c0-2.61.07-5.37.07-8.29h2.69q0,4.32-.11,8.29Zm-30.17,6.85h4.73V91.14h-4.73Zm4.73,4.66V95.72h-4.73v2.76Zm2.58-7.34v2.68h4.92V91.14Zm4.92,4.58h-4.92v2.76h4.92Z" fill="#002f7c"/>
          <path d="M407.83,98.44v10.64c0,1.59-.41,2.34-1.4,2.76s-2.53.53-5.11.53a12.3,12.3,0,0,0-.87-2.61c1.82.08,3.45,0,3.9,0s.72-.19.72-.72V99.31l-4.77,1.4L399.47,98c1.55-.38,3.48-.91,5.6-1.52V88.33h-5.15V85.68h5.15V78.11h2.76v7.57h4.7v2.65h-4.7v7.39l3.53-1,.37,2.58Zm23.74-3a23.69,23.69,0,0,1-7.38,10.83,30.8,30.8,0,0,0,10,3.9,9.93,9.93,0,0,0-1.78,2.57,29.69,29.69,0,0,1-10.6-4.73,35.45,35.45,0,0,1-11.09,4.77,8.87,8.87,0,0,0-1.4-2.57,33,33,0,0,0,10.22-4,26.37,26.37,0,0,1-6.17-8.67l.38-.15H412.3V94.69h16.92l.53-.11ZM418.62,83.68a10.89,10.89,0,0,1-5.68,10.1,14.21,14.21,0,0,0-1.81-2.08c4.16-2.3,4.84-5.41,4.84-8.1V79.44H427.9v8.74c0,1.06.11,1.44.72,1.44h2.91a10.25,10.25,0,0,0,1.89-.19c0,.72.12,1.78.23,2.42a7.6,7.6,0,0,1-2,.19h-3.19c-2.61,0-3.21-1.09-3.21-3.9v-6h-6.59Zm-2.5,13.66a22,22,0,0,0,5.76,7.23,20.6,20.6,0,0,0,5.9-7.23Z" fill="#002f7c"/>
          <path d="M448.89,88.49H438.07V86.21h10.82Zm3,19.53a51.42,51.42,0,0,1-11.54,4.62,18.06,18.06,0,0,0-2.08-2.12,45,45,0,0,0,11.09-3.64ZM448,82.54H438.9V80.35H448ZM443,91.44h24.49v15.18H443Zm2.72,4.47h19V93.33h-19Zm0,4.39h19V97.72h-19Zm0,4.46h19v-2.65h-19Zm9.09-21.91A19.15,19.15,0,0,1,452,86.63a12.93,12.93,0,0,0-2.12-1.44A16.15,16.15,0,0,0,454.23,78l2.54.57c-.23.72-.53,1.4-.8,2.08h12.68l.46-.11,1.89.64a36.52,36.52,0,0,1-3.18,5.45l-2.23-.8a21.32,21.32,0,0,0,1.78-3h-6v.49a7.3,7.3,0,0,1-.12,1.25c2,2.27,6.14,3.74,11.09,4.16A10.7,10.7,0,0,0,470.74,91c-4.32-.6-7.95-2.11-10.3-4.42-1.25,1.85-4.24,3.59-10.9,4.61A8.9,8.9,0,0,0,448,89.09c9.81-1.32,10.72-3.9,10.72-5.87v-.37Zm5.68,24a104.33,104.33,0,0,1,11.12,4.09l-2.46,1.63a89.92,89.92,0,0,0-10.59-4.2Z" fill="#002f7c"/>
        </g>
        <g>
          <path d="M99.18,150.1c0-9,5.26-14.43,12.31-14.43a10.24,10.24,0,0,1,7.6,3.45l-1.89,2.27a7.58,7.58,0,0,0-5.68-2.65c-5.26,0-8.74,4.32-8.74,11.24s3.33,11.4,8.63,11.4a8.47,8.47,0,0,0,6.44-3.11l1.93,2.2a10.76,10.76,0,0,1-8.52,4C104.37,164.44,99.18,159.11,99.18,150.1Z" fill="#002f7c"/>
          <path d="M124.84,136.2h7.92c6.24,0,10.4,2.09,10.4,8.14,0,5.87-4.16,8.6-10.22,8.6h-4.58v11h-3.52Zm7.65,13.9c4.88,0,7.19-1.78,7.19-5.76s-2.46-5.3-7.34-5.3h-4V150.1Z" fill="#002f7c"/>
          <path d="M157.58,133.14a55.57,55.57,0,0,1-3.86,8.63v25.06H151.1V146a41.29,41.29,0,0,1-3.21,4.13,23.09,23.09,0,0,0-1.56-2.77,43.1,43.1,0,0,0,8.71-15Zm23.54,30.17v2.42H155.87v-2.42h3.6V142.15H166c.23-1,.46-2.27.72-3.52h-9.24v-2.46h9.66c.19-1.37.37-2.73.49-3.87l3,.19c-.23,1.14-.46,2.43-.72,3.68H180v2.46h-10.6c-.31,1.25-.57,2.49-.87,3.52h9.23v21.16Zm-19.12-19v3.18h13.14v-3.18Zm13.14,5.26H162v3.22h13.14ZM162,158.12h13.14v-3.25H162Zm0,5.19h13.14V160.2H162Z" fill="#002f7c"/>
          <path d="M193.41,160.47v6.36H190.8v-6.36h-6.21V158h6.21v-2.92h-5.07V141.58h5.07v-2.84h-5.87v-2.42h5.87v-4h2.61v4h5.91v2.42h-5.91v2.84h5.23v13.51h-5.23V158h6v2.46ZM188,147.29h3V143.7h-3Zm0,5.68h3v-3.63h-3Zm8.33-9.27h-3.14v3.59h3.14Zm0,5.64h-3.14V153h3.14Zm18.39-.64a30.56,30.56,0,0,1-3.89,9,21.08,21.08,0,0,0,8.7,6.77,10.32,10.32,0,0,0-1.85,2.35,23.94,23.94,0,0,1-8.52-6.85,26.66,26.66,0,0,1-8.82,7,10.66,10.66,0,0,0-1.78-2.08,24.77,24.77,0,0,0,9-7.11,37,37,0,0,1-4.12-8.79l2.42-.64a32.13,32.13,0,0,0,3.33,7.12,27,27,0,0,0,3-7.31Zm-7.6-6.63a54.36,54.36,0,0,1-5.57,8.59,17.42,17.42,0,0,0-2.19-1.7,32.83,32.83,0,0,0,5.11-7.76Zm11.39-1.82H199.89v-2.61h8.82a42.25,42.25,0,0,0-2.46-4.5l2.34-1.06a29,29,0,0,1,2.58,4.43l-2.31,1.13h9.65Zm-4.92.91c1.89,2.43,4.39,5.68,5.6,7.61l-2.27,1.59a93.47,93.47,0,0,0-5.49-7.87Z" fill="#002f7c"/>
          <path d="M233.53,133.18a67.87,67.87,0,0,1-3.67,8.29v25.4h-2.77V146.05a48.19,48.19,0,0,1-3.18,4.16,22.49,22.49,0,0,0-1.58-2.76,43.2,43.2,0,0,0,8.55-15Zm23.32,29.56v2.72h-25v-2.72h11.21v-6.32h-8.94v-2.65h8.94v-4.35h2.8v4.35H255v2.65h-9.12v6.32Zm-13.74-22.86H235v-2.65h8.14v-5h2.8v5h8.48v2.65h-8.48v5.37h10.18v2.69h-23v-2.69h10Z" fill="#002f7c"/>
          <path d="M271.11,133.14a55.57,55.57,0,0,1-3.86,8.63v25.06h-2.62V146a41.29,41.29,0,0,1-3.21,4.13,23.09,23.09,0,0,0-1.56-2.77,43.1,43.1,0,0,0,8.71-15Zm23.54,30.17v2.42H269.4v-2.42H273V142.15h6.51c.23-1,.46-2.27.72-3.52H271v-2.46h9.66c.19-1.37.37-2.73.49-3.87l3,.19c-.23,1.14-.46,2.43-.72,3.68h10.11v2.46h-10.6c-.31,1.25-.57,2.49-.87,3.52h9.23v21.16Zm-19.12-19v3.18h13.14v-3.18Zm13.14,5.26H275.53v3.22h13.14Zm-13.14,8.52h13.14v-3.25H275.53Zm0,5.19h13.14V160.2H275.53Z" fill="#002f7c"/>
          <path d="M309.25,141.65a42.8,42.8,0,0,1-3.1,4.66v20.52h-2.76V149.49a37.7,37.7,0,0,1-4.43,4.09,18,18,0,0,0-1.48-2.69,35.43,35.43,0,0,0,9.31-10.22Zm-.45-8.21a37.71,37.71,0,0,1-9.24,9,12.38,12.38,0,0,0-1.47-2.27,28.91,28.91,0,0,0,8-7.72Zm23.7,23.05h-5.65v7.27c0,1.52-.34,2.24-1.43,2.69s-2.92.45-5.76.45a9.41,9.41,0,0,0-.91-2.57c2.13.07,4,.07,4.55,0s.75-.19.75-.68v-7.2H308.87v-2.42h15.18v-3.22H309.74v-2.42h22.08v2.42h-5v3.22h5.65ZM330,145.89h-18V133.48h18Zm-15.9,11.25a32.85,32.85,0,0,1,4.8,5.26l-2.15,1.51a34.6,34.6,0,0,0-4.66-5.49Zm13.09-21.54H314.78v3h12.45Zm0,5.07H314.78v3.07h12.45Z" fill="#002f7c"/>
          <path d="M368.67,154.79a60.84,60.84,0,0,1-8.17,5,26.26,26.26,0,0,0,10.71,4.31,14.55,14.55,0,0,0-1.74,2.5c-8.63-1.89-14.54-6.51-17.79-13.62h-6.06v10.14l10.22-2.46c0,.72-.11,1.85-.07,2.46-10.61,2.69-12.46,3.22-13.33,3.67l-.15.12A14.25,14.25,0,0,0,341,164.1a3,3,0,0,0,1.86-2.68v-8.48h-6.14V150.4h6.63V133.78h23.28v2.39H346.19v3.25h19.3v2.31h-19.3v3.14h19.3v2.27h-19.3v3.26H370.3v2.54H354.51a19.29,19.29,0,0,0,4.06,5.3,57.56,57.56,0,0,0,7.76-5Z" fill="#002f7c"/>
          <path d="M392.47,157.71H374v-2.54h3.67V139.8h-3.18v-2.54h3.18v-4.58h2.57v4.58h6.86v-4.58h2.61v4.58h2.76v2.54h-2.76v15.37h2.76Zm-10.56,1.51a25.14,25.14,0,0,1-5.6,7.65,17.1,17.1,0,0,0-2.27-1.63,19.74,19.74,0,0,0,5.18-6.74Zm-1.67-19.42v3.33h6.86V139.8Zm0,9.31h6.86V145.4h-6.86Zm0,6.06h6.86v-3.79h-6.86Zm6.55,3.33a27.83,27.83,0,0,1,4,5.6l-2.27,1.33a29.73,29.73,0,0,0-3.9-5.76Zm20.63,4.73c0,1.67-.41,2.5-1.43,3s-2.84.52-5.65.52a9.49,9.49,0,0,0-.87-2.72c2,0,3.9,0,4.43,0s.8-.19.8-.8v-9.08h-8c-.38,4.5-1.32,9.31-3.59,12.95a8.29,8.29,0,0,0-2.24-1.67c3.14-5,3.45-12.15,3.45-17.56V134.16h13.09Zm-2.72-11.66v-6.28H397v2.54c0,1.17,0,2.46-.08,3.74ZM397,136.73v6h7.72v-6Z" fill="#002f7c"/>
          <path d="M423.54,151.31l-4.05,1.32v10.72c0,1.55-.34,2.27-1.29,2.72s-2.31.57-4.73.53a10.22,10.22,0,0,0-.79-2.61c1.62,0,3.1,0,3.51,0s.69-.15.69-.72v-9.84c-1.71.56-3.3,1.09-4.7,1.51l-.75-2.69c1.47-.42,3.36-1,5.45-1.63v-8.17H412v-2.61h4.92V132.3h2.61v7.58h3.94v2.61h-3.94v7.38l3.67-1.14Zm22.94-14.16v2.61H436.6v4.62h8.14V147H425.85v-2.58h8.06v-4.62H424v-2.61h9.92v-4.69h2.69v4.69Zm-4.92,14.16h4.66v2.57h-4.66v9.69c0,1.67-.34,2.43-1.44,2.88s-3,.49-5.76.49a9.8,9.8,0,0,0-.87-2.72c2.13.07,4.13.07,4.7,0s.72-.19.72-.72v-9.65h-14.5v-2.57h14.5v-3.37h2.65ZM429.37,155a75.4,75.4,0,0,1,4.28,6.51l-2.31,1.4a59.4,59.4,0,0,0-4.13-6.66Z" fill="#002f7c"/>
          <path d="M462.94,139.8c-.72,1.48-1.48,3-2.32,4.39H479v19.12c0,1.7-.38,2.53-1.59,3s-3.37.49-6.59.49a9.6,9.6,0,0,0-.94-2.76c2.53.11,4.8.07,5.48.07s.87-.22.87-.79v-3.94H460a13.66,13.66,0,0,1-3.87,7.69,9.09,9.09,0,0,0-2-2.2c3.14-3,3.48-7.19,3.48-10.79v-5.53a32.12,32.12,0,0,1-6.13,5.8,19,19,0,0,0-1.79-2.2,30.85,30.85,0,0,0,10.19-12.34h-9.43v-2.65h10.64c.64-1.63,1.21-3.25,1.67-4.88l2.8.68a42.74,42.74,0,0,1-1.48,4.2h19.31v2.65ZM476.18,157V153H460.4v1.14c0,.91,0,1.81-.11,2.8Zm0-10.22H460.4v3.82h15.78Z" fill="#002f7c"/>
          <path d="M501.65,161.15a3,3,0,1,1,3,3A2.9,2.9,0,0,1,501.65,161.15Zm.87-21.05-.11-4.46H507l-.08,4.46-.94,14.69h-2.5Z" fill="#002f7c"/>
        </g>
      </g>
      <g>
        <g>
          <path d="M764.1,85v2.42h-33V85h15.48c-.34-1.1-.79-2.38-1.17-3.44l2.73-.65c.53,1.29,1.1,2.88,1.51,4.09Zm-1.21,27.63c0,1.37-.34,1.93-1.36,2.31a16.93,16.93,0,0,1-5,.34,9,9,0,0,0-.92-2.08c1.63.08,3.37,0,3.83,0s.64-.15.64-.61V101.56H735.22v14H732.5V99.18h30.39Zm-4.08-23.09v7.57h-22V89.56Zm-3.41,22H742.07v1.85h-2.61V103.8H755.4Zm.53-19.92H739.61v3.41h16.32Zm-13.86,14.28v3.52h10.79v-3.52Z" fill="#002f7c"/>
          <path d="M782.3,89.79H768.71V87.48H782.3Zm-12.11,2.65h10.63v2.23H770.19Zm0,4.92h10.63v2.23H770.19Zm10.6,16H772.5v1.78h-2.31V102.4h10.6Zm-8.29-8.6V111h6v-6.25Zm2.8-17.68a38.69,38.69,0,0,0-2.61-5l2-1.14a36.63,36.63,0,0,1,2.77,4.89Zm27.82,15h-8.89v13.55H791.5V102.06h-9.24V99.41h9.24V85.82h-7.76V83.17h18.63v2.65h-8.14V99.41h8.89ZM786.84,87.9a46.87,46.87,0,0,1,2.09,9.27l-2.43.61a43.86,43.86,0,0,0-2-9.31Zm9.66,9.2A71.24,71.24,0,0,0,799,87.6l2.68.68c-.9,3.18-2,7-3,9.46Z" fill="#002f7c"/>
          <path d="M812.27,86.23a23.34,23.34,0,0,1-3.75,4.51,14,14,0,0,0-2-1.86,22.12,22.12,0,0,0,5.83-8.06l2.49.68c-.34.76-.68,1.52-1.06,2.27h9.73v2.46h-7.08a40.63,40.63,0,0,1,3.64,3.41l-1.86,1.66a29.77,29.77,0,0,0-3.93-4l1.36-1.1Zm20.52,17.68h7.53v2.39h-7.53v6.39c0,1.63-.42,2.27-1.67,2.61s-3.44.38-6.74.38a8.1,8.1,0,0,0-.75-2.38c2.53.11,4.84.11,5.48.07s.84-.22.84-.75V106.3H807.12v-2.39H830v-2.65h2.84ZM841,83.81v2.46h-8.33A31.05,31.05,0,0,1,836.19,90l-1.93,1.63a25.92,25.92,0,0,0-3.59-4l1.66-1.29h-3.71a25.47,25.47,0,0,1-3.18,4.54l-.34-.3v1.78H839v2.46H825.1v3.37h11.74v2.27H810.41V98.12h11.85V94.75H808.52V92.29h13.74V89.94h2.12a12.54,12.54,0,0,0-1.09-.79A19.81,19.81,0,0,0,828,80.82l2.61.6a16.63,16.63,0,0,1-.87,2.39Zm-25.63,22.83a62.23,62.23,0,0,1,6.44,5.6l-2.08,1.66a64.35,64.35,0,0,0-6.36-5.79Z" fill="#002f7c"/>
          <path d="M878.47,112.12v2.31h-33.7v-2.31h15.3v-3.25H847.62V106.6h12.45V104H848.75V92.33h11.32V90.06H845V87.75h15.11V85c-3.94.27-8,.42-11.66.49a7.75,7.75,0,0,0-.6-2.23c8.74-.23,19.34-.91,25.28-2l1.52,2.2a114.61,114.61,0,0,1-11.78,1.36v2.92h15.41v2.31H862.83v2.27h11.85V104H862.83v2.61h13.25v2.27H862.83v3.25Zm-27-14.91h8.56V94.37h-8.56Zm8.56,4.77V99.1h-8.56V102Zm2.76-7.61v2.84h9V94.37Zm9,4.73h-9V102h9Z" fill="#002f7c"/>
          <path d="M895.34,83.69c-1.18,3.19-2.69,7.16-4,10.23,2.91,3.21,3.59,6,3.59,8.36,0,2-.45,3.71-1.55,4.43a4.54,4.54,0,0,1-2,.76,25.49,25.49,0,0,1-2.77,0,6,6,0,0,0-.72-2.58c.95.08,1.71.08,2.39.08a2.72,2.72,0,0,0,1.29-.38,3.27,3.27,0,0,0,.79-2.61c0-2.12-.72-4.73-3.6-7.76,1.14-2.8,2.39-6.4,3.22-9.05h-5.56v30.44h-2.65v-33H893l.42-.11Zm8,6.37c0,2-.15,3.86-.3,5.71h11.09v1.29c-.45,11.66-.83,15.86-2,17.19a3.16,3.16,0,0,1-2.58,1.28,37.79,37.79,0,0,1-5.15,0,6.76,6.76,0,0,0-.83-2.8c2,.19,4,.23,4.77.23a1.59,1.59,0,0,0,1.4-.49c.8-.84,1.21-4.47,1.59-14.12h-8.52c-.87,7.34-3.17,13.51-9.69,17.18a9,9,0,0,0-1.89-2.08c8.36-4.51,9.12-13.33,9.35-23.39h-6V87.41h21.76v2.65Zm2.43-8.94c.64,1.74,1.51,4.09,1.85,5.45l-2.69.84a54.88,54.88,0,0,0-1.74-5.68Z" fill="#002f7c"/>
          <path d="M933.1,89.79H919.82V87.48H933.1Zm-1.17,23.55h-8.18v1.78h-2.42V102.4h10.6Zm-.11-18.67H921.37V92.44h10.45Zm-10.45,2.69h10.45v2.23H921.37Zm2.38,7.38V111h5.72v-6.25Zm3-17.68A29.08,29.08,0,0,0,924,82l2.12-1.14A31.52,31.52,0,0,1,929,85.78Zm9.16,7.58a18.3,18.3,0,0,1-2,2.31,16.49,16.49,0,0,0-1.55-2A19.36,19.36,0,0,0,937.27,87l2.19.61v-2h-6.13V83.39h6.13V81.08H942v6.63h-2.46c-.3.83-.64,1.7-1,2.53h4.92c-.26-.79-.53-1.74-.83-2.46L945,87.1a28.75,28.75,0,0,1,1.21,3.14h7v1.9H945.9V94h6.4V95.7h-6.4v1.89h6.4v1.66h-6.4v2h8.22v1.86H938.29v.75h-2.38Zm16.5,10.82a17.09,17.09,0,0,1-5.9,5.87,37.54,37.54,0,0,0,8.32,2.08,8.65,8.65,0,0,0-1.58,2.24,35.44,35.44,0,0,1-9.39-3,39.17,39.17,0,0,1-10.23,3,9.06,9.06,0,0,0-1.21-2.27,38.68,38.68,0,0,0,8.94-2.16,17.48,17.48,0,0,1-4.47-4l1.17-.41h-4.23V104.7h16.46l.46-.11Zm-8.93-13.32h-5.19V94h5.19Zm0,3.56h-5.19v1.89h5.19Zm0,3.55h-5.19v2h5.19Zm-4,7.54a17.73,17.73,0,0,0,4.44,3.33,16.65,16.65,0,0,0,4.61-3.33Zm8.94-19.08h-2.57V81.08h2.57v2.31h5.72v2.24H948.4Z" fill="#002f7c"/>
          <path d="M991.35,85v2.42h-33V85h15.48c-.34-1.1-.79-2.38-1.17-3.44l2.73-.65c.53,1.29,1.1,2.88,1.51,4.09Zm-1.21,27.63c0,1.37-.34,1.93-1.36,2.31a17,17,0,0,1-5,.34,8.54,8.54,0,0,0-.91-2.08c1.63.08,3.37,0,3.83,0s.64-.15.64-.61V101.56H962.47v14h-2.72V99.18h30.39Zm-4.09-23.09v7.57H964.1V89.56Zm-3.4,22H969.32v1.85h-2.61V103.8h15.94Zm.53-19.92H966.86v3.41h16.32Zm-13.86,14.28v3.52h10.79v-3.52Z" fill="#002f7c"/>
          <path d="M1006.33,81.65h2.77v34h-2.77V105.2c-6.89,2.53-8,3.06-8.7,3.67a11.89,11.89,0,0,0-1.14-2.57,2.84,2.84,0,0,0,1.29-2.54V85.25h2.76v19.19l5.79-1.93ZM1027.27,91c-1.06,6-2.62,10.86-5,14.92a22.21,22.21,0,0,0,8.18,7.22,9.21,9.21,0,0,0-1.93,2.31,23.63,23.63,0,0,1-7.8-7.15,26.49,26.49,0,0,1-8.67,7.34,12.82,12.82,0,0,0-1.86-2.31,23.14,23.14,0,0,0,8.94-7.49,45.52,45.52,0,0,1-4.54-10.79,25.88,25.88,0,0,1-3,4.85,17.83,17.83,0,0,0-2-2.35c3.25-3.82,5.22-10,6.28-16.54l2.88.49c-.42,2.35-1,4.65-1.59,6.85h12.95V91Zm-11.25.57a47.6,47.6,0,0,0,4.58,11.73,40.18,40.18,0,0,0,3.83-12.3h-8.18Z" fill="#002f7c"/>
          <path d="M1068.1,111.94v2.53h-34.18v-2.53h4.88V100.2h24.64v11.74Zm-.76-21H1034.6V88.43h9.73a29.32,29.32,0,0,0-3.79-6.25l2.39-1.06a31.87,31.87,0,0,1,4,6.29l-2,1h12.15l-2-.76a39,39,0,0,0,3.93-6.59l2.81.87a59.22,59.22,0,0,1-4.36,6.48h9.88Zm-20.21,3a54.3,54.3,0,0,1-10.64,6.66,12.26,12.26,0,0,0-1.7-2.19,41.5,41.5,0,0,0,10.41-5.83Zm-5.79,18h4.73v-9.28h-4.73Zm7.3-9.28v9.28h4.77v-9.28Zm17.22-2.76a88.43,88.43,0,0,0-11.43-5.15l1.37-2a103.49,103.49,0,0,1,11.51,4.89Zm-9.88,2.76v9.28h4.81v-9.28Z" fill="#002f7c"/>
        </g>
        <g>
          <path d="M733.79,158.06H718.42v2.39c0,1.55-.41,2.16-1.66,2.53s-3.37.38-6.78.38a8.19,8.19,0,0,0-1-2.23c2.65.08,5.11.08,5.75,0s.91-.19.91-.76v-2.35H700.48v-2h15.18v-2.54h-13v-2h13v-2.31c-3.78.19-7.68.3-11.24.3a4.61,4.61,0,0,0-.53-1.89c8.29-.08,18.44-.61,23.77-1.52l1.78,1.78a107.25,107.25,0,0,1-11,1.18v2.46h13.37v2H718.42V156h15.37ZM704,141.26h-2.65v-7.5h6.36a22.85,22.85,0,0,0-2.69-3.82l2.47-1a24.91,24.91,0,0,1,2.95,4l-1.78.83h7v-5h2.84v5h6.93l-1.66-.68A35.22,35.22,0,0,0,726.9,129l2.81,1c-1.18,1.4-2.5,2.8-3.56,3.82h6.93v7.5h-2.77v-5.11H704Zm2.77,4.05v-6.86h21v6.86Zm2.61-1.93H725v-3H709.34Z" fill="#002f7c"/>
          <path d="M744.57,149.28V159.8c0,1.56-.34,2.31-1.29,2.77s-2.3.57-4.65.53a11.39,11.39,0,0,0-.84-2.65c1.59,0,3.07,0,3.49,0s.64-.16.64-.69v-9.69l-4,1.29-.68-2.61c1.28-.38,2.91-.87,4.69-1.36V139h-4.2v-2.61h4.2v-7.58h2.65v7.58h4.09V139h-4.09v7.64l3.83-1.21.37,2.46Zm27.67,10.9v2.31H750.82v-2.31h9.65V156h-7.38v-2.23h7.38v-3.52c-4.81.37-5.64.53-6.28.71v-.15a.29.29,0,0,0,0,.15c-.15-.49-.57-1.74-.83-2.34a4.1,4.1,0,0,0,1.77-1.25,33.3,33.3,0,0,0,3.19-4.09H752.6c-.12,6.13-.84,14.38-4.59,20.06a9.51,9.51,0,0,0-2.3-1.47c3.78-5.76,4.16-14,4.16-19.91V130.24h20.67v8.21H752.6v2.62h18v2.23h-9.23a41.37,41.37,0,0,1-4.06,5l9.24-.61a34.11,34.11,0,0,0-2.42-2.72l2-.87a25,25,0,0,1,4.78,6l-2.16,1a13.34,13.34,0,0,0-.76-1.4l-4.81.34v3.75h7.42V156h-7.42v4.16ZM752.6,132.55v3.63h15.14v-3.63Z" fill="#002f7c"/>
          <path d="M781.47,145.38a35.14,35.14,0,0,0-6-4.09l1.7-1.89a32.87,32.87,0,0,1,6.1,3.82Zm-5.19,15.94a109.23,109.23,0,0,0,5.19-12l2.27,1.52c-1.4,3.89-3.29,8.55-5,12Zm6.28-25.86a34.54,34.54,0,0,0-5.67-4.39l1.78-1.85a33.53,33.53,0,0,1,5.71,4.12Zm9.4,4.43a15.89,15.89,0,0,1-6.67,7.73,6.86,6.86,0,0,0-1.51-1.63,13.08,13.08,0,0,0,6-6.44h-4.7a72.92,72.92,0,0,0,.87-7.3h-1v-2.09h11.2v2.09H793v1.81a17.09,17.09,0,0,1-.3,3.26h4v2.23h-2.73v4.24l2.92-1.32a10.6,10.6,0,0,0,.64,1.78c-4.46,2.23-5.26,2.72-5.72,3.21a6,6,0,0,0-1.13-1.62,3.62,3.62,0,0,0,1.33-3Zm-4.85,8.25h20.21v15h-2.76v-1.56H789.72v1.67h-2.61Zm3.33-10.82a16.59,16.59,0,0,0,.26-3.26v-1.81h-2.61c-.15,1.62-.41,3.48-.64,5.07Zm-.72,13.1v3.25h14.84v-3.25Zm14.84,8.89v-3.59H789.72v3.59Zm3.07-14.38c.6,0,.71-.19.79-2.92a5.94,5.94,0,0,0,1.82.8c-.19,3.29-.76,4.09-2.27,4.09h-2.16c-1.93,0-2.42-.53-2.42-2.61v-2.24a15.68,15.68,0,0,1-5.27,5.6,5.84,5.84,0,0,0-1.51-1.55,12.05,12.05,0,0,0,5.57-6.47H797.4c.35-2,.69-4.92.91-7.38h-.94v-2.09h12v2.09h-4.2v2.23a16.2,16.2,0,0,1-.23,2.91h4.73v2.24h-5.22a9.43,9.43,0,0,1-.42,1.13h1.44v3.53c0,.6.08.64.61.64Zm-4.92-7.54a21.31,21.31,0,0,0,.18-2.95v-2.19h-2.53c-.19,1.66-.46,3.52-.68,5.14Z" fill="#002f7c"/>
          <path d="M845.92,137s0,1.06-.07,1.47c-.84,15.53-1.63,21.17-3.3,23.06a4.13,4.13,0,0,1-3.21,1.51,47.89,47.89,0,0,1-6.06-.11,6.18,6.18,0,0,0-.95-2.88c2.58.23,5,.27,5.95.27a2.2,2.2,0,0,0,1.74-.57c1.36-1.29,2.19-6.62,2.91-19.95H830c-.52,7.84-3,17-14,23.7a10.43,10.43,0,0,0-2.16-2.24c10.26-6.09,12.68-14.38,13.25-21.46H815V137h12.26V128.8h2.92V137Z" fill="#002f7c"/>
          <path d="M885.32,160v2H851.59v-2H867v-7.15h-13.1V151h29.19v1.93h-13.4V160Zm-30-19.61h-2.76v-6.21H867v-2.08h-13v-1.89h28.88v1.89H869.76v2.08h14.73v6.21h-2.8v-4.35H869.76v6.25H867v-6.25H855.3ZM854,143.53h8.32v6H854Zm8.32,10.11a13.44,13.44,0,0,1-1.1,1.89,24,24,0,0,1,4.4,2.72l-1.14,1.55a28.83,28.83,0,0,0-4.39-2.87,16.32,16.32,0,0,1-4.16,3.06,10.71,10.71,0,0,0-1.52-1.59,10.81,10.81,0,0,0,5.75-5.22ZM856.06,148h4.05v-2.88h-4.05Zm9.12-6.55c-2.95.57-5.83,1.13-8.33,1.55l-.68-1.74c2.39-.3,5.56-.76,9-1.25ZM858,136.34a37.45,37.45,0,0,1,6.77,2.08l-.68,1.47a36.74,36.74,0,0,0-6.85-2.23Zm14.57,13.21h-8.48v-6h8.48Zm-2.16-4.47H866.2V148h4.24Zm7.12,8.4a9.24,9.24,0,0,1-.8,1.9,26.78,26.78,0,0,1,5.3,2.84l-1,1.66a34.16,34.16,0,0,0-5.26-3,12.34,12.34,0,0,1-3.9,3.1,15.71,15.71,0,0,0-1.47-1.62,8.65,8.65,0,0,0,5-5.23Zm2.8-10.26a59.41,59.41,0,0,0-8.82-2.08l.57-1.4a48.74,48.74,0,0,1,8.78,1.82Zm-.26-5.64a40.16,40.16,0,0,1-7.35,2.16l-.91-1.21a65.3,65.3,0,0,0,7.12-2.35Zm3,12h-8.6v-6h8.6Zm-2.16-4.47h-4.36V148h4.36Z" fill="#002f7c"/>
          <path d="M896.25,145.65c-1.56-1.06-4.66-2.88-7-4.09l1.55-2.05c2.2,1.1,5.34,2.77,7,3.83Zm-6.06,15.25a107.39,107.39,0,0,0,7.15-12.11l2,1.85a139.08,139.08,0,0,1-6.85,12.16Zm7.95-25.51c-1.55-1.1-4.69-2.92-7-4.16l1.55-2a69.53,69.53,0,0,1,7.08,3.9Zm15.14,7.08v6.2h7.91V163.1h-2.68v-1.4H905v1.59h-2.57V148.67h8.13v-6.2h-10.9v-2.73h10.9v-6.13c-2.76.42-5.64.76-8.32,1a14.32,14.32,0,0,0-.76-2.38c6.51-.68,14.12-1.86,18.32-3.37l2.23,2.19a59,59,0,0,1-8.78,2.12v6.55h10.37v2.73Zm5.23,8.82H905v7.8h13.48Z" fill="#002f7c"/>
          <path d="M929.21,130.09h2.34v15.22c0,6.85-.3,12.91-2.95,17.9a13.25,13.25,0,0,0-1.81-1.7c2.15-4.51,2.42-10.07,2.42-16.2Zm5.11,2.69h2.12v25h-2.12Zm5.11-2.81h2.31v31.92h-2.31Zm11.69,28.32a28.32,28.32,0,0,1-7.53,5.15,14,14,0,0,0-1.78-1.86,22.7,22.7,0,0,0,6.93-4.65Zm-.83-21.77c.3-1.13.61-2.42.8-3.55h-7.58V130.5h17.87V133h-7.31c-.41,1.21-.79,2.46-1.13,3.55h7.46v19.65H944.73V136.52Zm7.46,2.2H947.3v3.67h10.45Zm0,5.72H947.3v3.7h10.45Zm0,5.79H947.3V154h10.45Zm-1.7,6.7a42.61,42.61,0,0,1,6.28,4.73l-2.12,1.63a43,43,0,0,0-6.21-4.92Z" fill="#002f7c"/>
          <path d="M981.78,148.53c-5.87.49-11.93.94-16.24,1.28l-.16-2.16c2-.11,4.59-.26,7.39-.49v-2.53h-5.72v-1.9h5.72v-2.12h2.57v2.12h5.91v1.9h-5.91V147l6.47-.45Zm-9.2-11.7c-.65,2.84-2.88,4.46-6,5.33a7.37,7.37,0,0,0-1.14-1.81c2.5-.53,4.36-1.55,4.92-3.52h-4.73v-2h7.16v-2.05h-5.65V131h5.65v-2.23h2.57V131h5.75v1.85h-5.75v2.05h7.31v2h-5v1.4c0,.79,0,1,.57,1h2a8.27,8.27,0,0,0,1.66-.15c0,.57.08,1.21.15,1.74a5.54,5.54,0,0,1-1.74.19h-2.5c-1.93,0-2.31-.87-2.31-2.84v-1.36Zm23.81,15.37s-.08.83-.16,1.21c-.6,5.52-1.17,8-2.19,8.89a3.75,3.75,0,0,1-2.69,1c-1.06,0-3.18,0-5.34-.08a5.72,5.72,0,0,0-.83-2.57c2.16.19,4.32.22,5.08.22a2.17,2.17,0,0,0,1.47-.3c.64-.53,1.14-2.23,1.59-6.09H982.46c-1.86,4.73-5.8,7.57-15.45,8.93a7.71,7.71,0,0,0-1.29-2.31c8.37-1.06,12-3.14,13.75-6.62H967.81V152.2h12.45a13.27,13.27,0,0,0,.49-2.31h2.84a20.1,20.1,0,0,1-.45,2.31Zm0-18.93c0,8.4,0,14.61,1.51,14.61.46,0,.65-2,.69-4.69a12,12,0,0,0,1.66,1.51c-.23,4.09-.68,5.6-2.57,5.6-3.49,0-3.75-6-3.83-14.72H990a32.59,32.59,0,0,1-.83,5.56c1.55,1,3,1.93,3.94,2.65l-1.29,2.05c-.83-.65-2-1.52-3.33-2.43a12.41,12.41,0,0,1-5,6.14,6.19,6.19,0,0,0-1.63-1.78,10.79,10.79,0,0,0,4.54-5.76c-1.21-.75-2.42-1.55-3.48-2.19l1.25-1.78,2.84,1.74a35.57,35.57,0,0,0,.57-4.2h-4v-2.31h4.16c0-1.4.07-3,.12-4.54h2.46c0,1.59-.08,3.14-.16,4.54Z" fill="#002f7c"/>
          <path d="M1015.76,137.47H1003v-2.35h12.8ZM1004.4,145h10.22v2.23H1004.4Zm10.26,16h-7.91v1.71h-2.35V150.08h10.26Zm0-18.7h-10.18v-2.23h10.18Zm-7.87,10.07v6.29h5.6v-6.29Zm2.91-17.6a46.29,46.29,0,0,0-2.68-5.07l2.08-.95a38.45,38.45,0,0,1,2.8,4.92Zm26.73,25c0,1.48-.34,2.28-1.29,2.69s-2.53.46-5.11.46a10.76,10.76,0,0,0-.83-2.43c1.93.08,3.63.08,4.16,0s.68-.19.68-.76V145.46h-13.78c0,5.6-.56,13-3.44,17.9a10.43,10.43,0,0,0-2-1.4c2.8-5,3.07-12,3.07-17.41V130.43h18.51ZM1020.22,133V137h5.68V133Zm0,10.18h5.68v-3.83h-5.68Zm3.75,13.66v1.75h-2.08V148H1032v8.85Zm0-6.73v4.61h5.83v-4.61ZM1034,133h-5.71V137H1034Zm0,10.18v-3.83h-5.71v3.83Z" fill="#002f7c"/>
          <path d="M1040.84,130.35h17.83v2.43h-5.33v4.84h4.58v25.06h-2.35v-2.16h-11.74v2.69h-2.27V137.62h4.59v-4.84h-5.31Zm14.73,27.87v-9.89h-2.23c-1.71,0-2.2-.45-2.2-2.42v-5.86h-2.69v2.83a8.74,8.74,0,0,1-3.25,7.27,6.25,6.25,0,0,0-1.37-1.13v9.2Zm-11.74-18.17v8.89a7.09,7.09,0,0,0,2.85-6.09v-2.8Zm1.56,12.15H1054v2.27h-8.63Zm5.64-19.42h-2.61v4.84H1051Zm4.54,7.27H1053v5.82c0,.53.07.57.56.57H1055a1.64,1.64,0,0,0,.57,0Zm15.18,20.21c1.63,0,1.93-.95,2.12-6.4a7.31,7.31,0,0,0,2.57,1.21c-.34,6.14-1.17,7.84-4.5,7.84h-6.21c-3.41,0-4.47-.87-4.47-4.32V142.28h11v-9.12h-11.17v-2.73H1074V147.5h-2.76V145H1063v13.62c0,1.4.34,1.67,2,1.67Z" fill="#002f7c"/>
          <path d="M1092.69,157.61a3,3,0,1,1,3,3A2.91,2.91,0,0,1,1092.69,157.61Zm.87-21.05-.11-4.46H1098l-.07,4.46-1,14.69h-2.5Z" fill="#002f7c"/>
        </g>
      </g>
      <g>
        <g>
          <g>
            <path d="M909.78,285.26h9.56v2.12H898v-2.12h9.26v-3.71h-6.79v-2h6.79v-3.43h-5.65V274a31.73,31.73,0,0,1-3.28,2,8.92,8.92,0,0,0-1.47-1.92,30.17,30.17,0,0,0,8.91-6.36h-4v-2.2h8.05a24.36,24.36,0,0,0,10.55,8.26,11.51,11.51,0,0,0-1.59,2.12,25.84,25.84,0,0,1-3.25-1.84v2h-5.78v3.43h6.86v2h-6.86ZM901.7,274h13.7a31.21,31.21,0,0,1-6.81-6.24A36.75,36.75,0,0,1,901.7,274Z" fill="#ee8923"/>
            <path d="M946.42,273.55a61.63,61.63,0,0,1-4.27,5.2,14,14,0,0,0,4.93,5.66,4.89,4.89,0,0,0-1.44,1.81,16.19,16.19,0,0,1-5.35-6.56v5.63c0,1.26-.31,1.92-1.06,2.3a9.35,9.35,0,0,1-3.92.48,9.94,9.94,0,0,0-.8-2.25c1.36.05,2.57,0,3,0s.55-.15.55-.55v-5.15c-1.94,1.94-3.93,3.84-5.6,5.35l-1.44-2,.36-.28c-2.6.86-5.33,1.72-7.45,2.37l-.51-2.24c.89-.23,2-.56,3.18-.91v-6.57h-2.7v-2.17h2.7v-5h-2.87v-2.17h7.8v2.17h-2.75v5h2.37v2.17h-2.37v5.91l2.87-.88.31,1.86c1.66-1.33,4-3.28,6.1-5.12v-6.34h-6v-2.17h6v-4.19h2.28v4.19h6.38v2.17h-6.38v1a29.54,29.54,0,0,0,1.05,4.49,35.32,35.32,0,0,0,3-4.29Zm-12.29-.91a19.28,19.28,0,0,1,2.62,4.5l-1.94.93a18.93,18.93,0,0,0-2.5-4.62Zm10.09-3.58a15.91,15.91,0,0,0-2.92-2.75l1.31-1.21a16.76,16.76,0,0,1,3,2.57Z" fill="#ee8923"/>
            <path d="M972.61,267.39v2h-22v-2h10c-.22-.68-.47-1.44-.7-2.07l2.37-.55c.33.8.73,1.81,1,2.62Zm-.68,18.33c0,1.11-.28,1.54-1.06,1.84a11.65,11.65,0,0,1-3.63.28,8.46,8.46,0,0,0-.73-1.74c1,0,2.32,0,2.6,0s.45-.1.45-.4v-6.79H953.71V288h-2.3V277h20.52Zm-2.57-15.12v5.17H954.21V270.6Zm-11,14.89v1.16h-2.18v-6.49h10.71v5.33Zm8.55-13.25H956.53v1.87h10.35Zm-8.55,9.62v1.94h6.46v-1.94Z" fill="#ee8923"/>
            <path d="M906.37,298.32h-9.14v-1.87h4.26A22.41,22.41,0,0,0,899.8,293l1.69-.93a26.22,26.22,0,0,1,1.75,3.3l-1.69,1h4.82Zm-8.15,3.33V299.8h7.14v1.85Zm0,1.49h7.16V305h-7.16Zm7.16,10.8h-5.27v1.14h-1.87v-8.54h7.14Zm-5.27-5.5v3.61h3.38v-3.61Zm20.11-1.84H914.5v8.8h-2.3v-8.8h-5.83v-2.23h5.83v-8.63h-4.92v-2.17h12.47v2.17H914.5v8.63h5.72ZM909.57,297a31.18,31.18,0,0,1,1.29,6l-2,.48a32.67,32.67,0,0,0-1.17-6.06Zm6.11,6a45.76,45.76,0,0,0,1.54-6.18l2.22.5c-.6,2.1-1.34,4.62-1.94,6.18Z" fill="#ee8923"/>
            <path d="M927.59,295.94a15.91,15.91,0,0,1-2.42,2.91,13.76,13.76,0,0,0-1.62-1.62,13.71,13.71,0,0,0,3.81-5.2l2.1.61c-.2.45-.41.85-.66,1.31h6.11v2h-4.16a24.62,24.62,0,0,1,2,2l-1.52,1.36a21.38,21.38,0,0,0-2.52-2.57l.88-.76Zm13.75,11.49h4.88v1.92h-4.88v3.78c0,1.19-.3,1.74-1.23,2a19.77,19.77,0,0,1-4.55.27,8.08,8.08,0,0,0-.63-1.91c1.49.07,3.06.05,3.44,0s.55-.13.55-.48v-3.68h-9a49.44,49.44,0,0,1,4,3.55l-1.77,1.39a40.91,40.91,0,0,0-4-3.81l1.53-1.13H924v-1.92h14.89v-1.54h2.42ZM946.67,294v2h-5.1a16.87,16.87,0,0,1,2,2.19L942,299.53a15.5,15.5,0,0,0-2.35-2.7l1.06-.86h-2.22a14.91,14.91,0,0,1-2.07,3l-.08-.07v.73h9.06v2h-9.06v1.9h7.6v1.84H926.2v-1.84h7.7v-1.9h-9v-2h9v-1.42h1.59c-.3-.25-.63-.47-.86-.63a13.35,13.35,0,0,0,3.13-5.52l2.15.5c-.15.48-.31.93-.48,1.39Z" fill="#ee8923"/>
            <path d="M957.64,292.91a39.22,39.22,0,0,1-2.32,5v17.46h-2.27v-13.9a25.85,25.85,0,0,1-2.27,2.7,16.16,16.16,0,0,0-1.26-2.38,27.08,27.08,0,0,0,6-9.51Zm6.49,19.21a20.34,20.34,0,0,1-5.83,3.28,14.62,14.62,0,0,0-1.84-1.61,17.65,17.65,0,0,0,5.43-2.5Zm-.3-17H958v-1.54h5.88v-1.31h2.37v1.31h6.14v1.54H966.2v1.07h5.53v1.48H966.2v1.14h6.94v1.59H956.86v-1.59h7v-1.14h-5.28v-1.48h5.28ZM958.75,311v-9.54h12.83V311Zm2.28-6.74h8.2V303H961Zm0,2.57h8.2v-1.31H961Zm0,2.63h8.2v-1.32H961Zm7.42,1.69a33.83,33.83,0,0,1,4.8,3.18l-2.13,1.26a32.15,32.15,0,0,0-4.77-3.46Z" fill="#ee8923"/>
          </g>
          <g>
            <path d="M928.92,344.54c-27.87-3.43-49.79-27.45-49.79-57.19,0-29.36,21.92-53.77,49.79-56.82v-6.48c-31.59,3-55.74,30.51-55.74,63.3,0,33.17,24.15,60.24,55.74,63.67v-6.48Z" fill="#ee8923" fill-rule="evenodd"/>
            <path d="M941.89,224.05v6.48c27.42,3.05,49.28,27.46,49.28,56.82,0,29.74-21.86,53.76-49.28,57.19V351c31.13-3.43,55.21-30.5,55.21-63.67,0-32.79-24.08-60.25-55.21-63.3Z" fill="#ee8923" fill-rule="evenodd"/>
          </g>
        </g>
        <g>
          <g>
            <path d="M1043.5,283h9.57v2.12h-21.31V283H1041v-3.71h-6.79v-2.05H1041v-3.43h-5.66V271.8a27.77,27.77,0,0,1-3.28,2,9.11,9.11,0,0,0-1.46-1.92,30.3,30.3,0,0,0,8.91-6.36h-4v-2.19h8a24.2,24.2,0,0,0,10.55,8.25,11.4,11.4,0,0,0-1.59,2.12,23.67,23.67,0,0,1-3.26-1.84v2h-5.78v3.43h6.87v2.05h-6.87Zm-8.08-11.26h13.71a31.24,31.24,0,0,1-6.82-6.24A36.11,36.11,0,0,1,1035.42,271.78Z" fill="#ee8923"/>
            <path d="M1080.15,271.32a63.63,63.63,0,0,1-4.27,5.2,14,14,0,0,0,4.92,5.66,5.13,5.13,0,0,0-1.44,1.82,16.39,16.39,0,0,1-5.35-6.57v5.63c0,1.26-.3,1.92-1.06,2.3a9.3,9.3,0,0,1-3.91.48,10.16,10.16,0,0,0-.81-2.25c1.36.05,2.58,0,3,0s.56-.15.56-.56v-5.15c-1.94,1.95-3.94,3.84-5.6,5.35l-1.44-2,.35-.28c-2.6.86-5.33,1.72-7.44,2.37l-.51-2.24c.88-.23,2-.56,3.18-.91V273.6h-2.7v-2.18h2.7v-5h-2.88v-2.17h7.8v2.17h-2.75v5h2.37v2.18h-2.37v5.9l2.88-.88.3,1.87c1.67-1.34,4-3.28,6.11-5.13V269h-6v-2.17h6v-4.19H1074v4.19h6.39V269H1074v1a29.92,29.92,0,0,0,1.06,4.5,35.74,35.74,0,0,0,3-4.3Zm-12.3-.91a19.35,19.35,0,0,1,2.63,4.5l-2,.93a18.87,18.87,0,0,0-2.49-4.62Zm10.1-3.58a16.33,16.33,0,0,0-2.93-2.75l1.31-1.21a16.81,16.81,0,0,1,3,2.57Z" fill="#ee8923"/>
            <path d="M1106.34,265.16v2h-22v-2h10c-.23-.68-.48-1.43-.71-2.06l2.38-.56c.32.81.73,1.82,1,2.62Zm-.68,18.33c0,1.11-.28,1.54-1.06,1.84a11.38,11.38,0,0,1-3.64.28,7.49,7.49,0,0,0-.73-1.74c1.06.05,2.32.05,2.6,0s.46-.11.46-.41V276.7h-15.86v9.11h-2.29V274.76h20.52Zm-2.58-15.12v5.18h-15.14v-5.18Zm-11,14.89v1.16h-2.17v-6.48h10.71v5.32Zm8.56-13.25h-10.35v1.87h10.35Zm-8.56,9.62v1.94h6.46v-1.94Z" fill="#ee8923"/>
            <path d="M1037.8,290.41h2.32V313.2h-2.32v-6.71c-4.32,1.51-5.1,1.94-5.63,2.35a9.64,9.64,0,0,0-.91-2.15,1.89,1.89,0,0,0,.88-1.72V292.78h2.3v12.5l3.36-1.06Zm14.36,6.59a28.58,28.58,0,0,1-3.26,9.71,14.75,14.75,0,0,0,5.18,4.47,7.23,7.23,0,0,0-1.62,1.9,16.71,16.71,0,0,1-4.9-4.37,17,17,0,0,1-5.4,4.54,9.71,9.71,0,0,0-1.54-1.94,14.36,14.36,0,0,0,5.63-4.65,32.79,32.79,0,0,1-2.75-6.38,13.68,13.68,0,0,1-1.66,2.55,17.35,17.35,0,0,0-1.67-2c2.14-2.49,3.41-6.53,4.09-10.82l2.4.4a44.05,44.05,0,0,1-1,4.37h8.18V297Zm-7.4.53a29.49,29.49,0,0,0,2.75,7,25.54,25.54,0,0,0,2.3-7.57H1045Z" fill="#ee8923"/>
            <path d="M1080.27,310.32v2.07h-22.79v-2.07h3.1v-7.59h16.69v7.59Zm-.45-13.4h-21.94v-2.07h6.26a25.15,25.15,0,0,0-2.4-3.91l2-.88a19.32,19.32,0,0,1,2.62,4.11l-1.36.68h7.78l-1.39-.5a28.37,28.37,0,0,0,2.47-4.32l2.37.71a37.59,37.59,0,0,1-2.75,4.11h6.34Zm-13.23,1.87a41,41,0,0,1-7.29,4.39,10,10,0,0,0-1.42-1.89,28.15,28.15,0,0,0,7.09-3.64Zm-3.91,11.53h2.67v-5.6h-2.67Zm4.82-5.6v5.6h2.7v-5.6Zm4.69-7a71.87,71.87,0,0,1,7.73,3.2l-1.29,1.87a67,67,0,0,0-7.65-3.41Zm.16,7v5.6h2.72v-5.6Z" fill="#ee8923"/>
            <path d="M1091.37,290.69a41.23,41.23,0,0,1-2.32,5v17.47h-2.27V299.22a24.85,24.85,0,0,1-2.27,2.7,17.18,17.18,0,0,0-1.27-2.37,27.14,27.14,0,0,0,6-9.52Zm6.49,19.21a20.72,20.72,0,0,1-5.83,3.28,15.42,15.42,0,0,0-1.84-1.62,17.36,17.36,0,0,0,5.42-2.5Zm-.31-17h-5.88v-1.54h5.88V290h2.38v1.31h6.13v1.54h-6.13v1.06h5.53v1.49h-5.53v1.13h6.94v1.59h-16.28v-1.59h7v-1.13h-5.27v-1.49h5.27Zm-5.07,15.9v-9.54h12.83v9.54Zm2.27-6.74H1103v-1.29h-8.21Zm0,2.58H1103v-1.32h-8.21Zm0,2.62H1103v-1.31h-8.21Zm7.42,1.69a33.53,33.53,0,0,1,4.8,3.18l-2.12,1.26a31.45,31.45,0,0,0-4.77-3.45Z" fill="#ee8923"/>
          </g>
          <g>
            <path d="M1062.65,344.54c-27.87-3.43-49.8-27.45-49.8-57.19,0-29.36,21.93-53.77,49.8-56.82v-6.48c-31.59,3-55.74,30.51-55.74,63.3,0,33.17,24.15,60.24,55.74,63.67v-6.48Z" fill="#ee8923" fill-rule="evenodd"/>
            <path d="M1075.62,224.05v6.48c27.42,3.05,49.28,27.46,49.28,56.82,0,29.74-21.86,53.76-49.28,57.19V351c31.12-3.43,55.21-30.5,55.21-63.67,0-32.79-24.09-60.25-55.21-63.3Z" fill="#ee8923" fill-rule="evenodd"/>
          </g>
        </g>
      </g>
      <g>
        <g>
          <g>
            <path d="M135.81,297.12v2.15H113.27v-2.15h7.27v-4.07H115v-8.68h5.53v-3.58h-6.69v-2.12H135.3v2.12h-7v3.56H134V293h-5.68v4.09Zm-13-6.11v6.11h3.28V291h5.58v-4.64h-5.58v-5.58h-3.25v5.6H117.3V291Z" fill="#ee8923"/>
            <path d="M147,277.86a40.53,40.53,0,0,1-2.32,5V300.3h-2.27V286.39a24.85,24.85,0,0,1-2.27,2.7,17.77,17.77,0,0,0-1.27-2.37,27.14,27.14,0,0,0,6-9.52Zm6.49,19.21a20.47,20.47,0,0,1-5.83,3.28,14.68,14.68,0,0,0-1.84-1.62,17.36,17.36,0,0,0,5.42-2.5Zm-.3-17h-5.89v-1.54h5.89v-1.31h2.37v1.31h6.13V280h-6.13v1.06h5.53v1.49h-5.53v1.13h6.94v1.6H146.25v-1.6h7v-1.13h-5.28v-1.49h5.28Zm-5.08,15.9v-9.54H161v9.54Zm2.27-6.74h8.21v-1.28h-8.21Zm0,2.58h8.21v-1.32h-8.21Zm0,2.62h8.21v-1.31h-8.21Zm7.42,1.69a32.7,32.7,0,0,1,4.8,3.19l-2.12,1.26a32.15,32.15,0,0,0-4.77-3.46Z" fill="#ee8923"/>
          </g>
          <g>
            <path d="M131.57,344.54c-27.87-3.43-49.79-27.45-49.79-57.19,0-29.36,21.92-53.76,49.79-56.81v-6.49c-31.59,3-55.74,30.51-55.74,63.3,0,33.17,24.15,60.24,55.74,63.67v-6.48Z" fill="#ee8923" fill-rule="evenodd"/>
            <path d="M144.54,224.05v6.49c27.42,3.05,49.28,27.45,49.28,56.81,0,29.74-21.86,53.76-49.28,57.19V351c31.13-3.43,55.21-30.5,55.21-63.67,0-32.79-24.08-60.25-55.21-63.3Z" fill="#ee8923" fill-rule="evenodd"/>
          </g>
        </g>
        <g>
          <g>
            <path d="M226.2,282.46a23.18,23.18,0,0,1-2.55,5.08,13.83,13.83,0,0,0-1.61-1.11,15.67,15.67,0,0,0,2.32-4.52Zm3.26-1.64v8.56h-2.28v-8.56h-4.84v-2h4.84v-2.3h-5v-2h2.75a12.68,12.68,0,0,0-.89-3.15l1.92-.48a15.59,15.59,0,0,1,.94,3.1l-1.87.53h4a26.24,26.24,0,0,0,1.23-3.66l2.17.46c-.42,1.11-.85,2.27-1.28,3.2h2.95v2h-4.64v2.3h4.29v2Zm4.24-9.94H222.59v-1.94h4.62c-.28-.71-.61-1.52-.91-2.15l2.32-.61c.43.86.94,1.92,1.27,2.76h3.81Zm-1.8,10.83a21.22,21.22,0,0,1,2.1,3.78l-1.64,1a25.7,25.7,0,0,0-2-3.91Zm13.28-4.8h-2.57v12.5h-2.3v-12.5h-2.95v.61c0,3.63-.33,8.68-2.58,11.89A7.76,7.76,0,0,0,233,288c2-2.93,2.17-7.2,2.17-10.5v-8.74a39,39,0,0,0,7.72-2l1.85,1.71a40.86,40.86,0,0,1-7.37,1.87v4.42h7.82Z" fill="#ee8923"/>
            <path d="M270.19,281.45v2.18H247.52v-2.18h1.92l-.38-13.27a33.46,33.46,0,0,0,4.22-1.57l1.06,2c-1,.35-2.15.68-3.23,1l.07,2.67h2.55v1.89h-2.5l.1,2.71h2.5v1.89h-2.45l.08,2.72h3V267.6h8.86v13.85h3c.05-.8.1-1.74.13-2.67h-2.5v-1.89h2.6c0-.89.05-1.8.08-2.7H264.1v-1.9h2.56c0-1,0-2,0-2.9H264v-1.94h4.77c-.05,4.41-.23,10.12-.45,14Zm-13.61,3.87a44.82,44.82,0,0,1-7.62,4.16,12.24,12.24,0,0,0-1.34-1.76,31.09,31.09,0,0,0,7-3.89Zm-.45-3.87h5.4v-12h-5.4Zm4.72-10.5v1.54h-4.07V271ZM257,274h3.68v5.73H257Zm1.06,4.29h1.54V275.4H258.1Zm4.31,5.4a62.26,62.26,0,0,1,7.25,3.91l-1.52,1.77a52.85,52.85,0,0,0-7-4Z" fill="#ee8923"/>
            <path d="M285.28,272.22v3.13h8.1V284c0,1.23-.25,1.94-1.19,2.29a13.07,13.07,0,0,1-4.39.41,8.17,8.17,0,0,0-.83-2.3c1.51,0,3,0,3.43,0s.56-.13.56-.48v-6.34h-5.68v11.82h-2.45V277.64H277.5v9.12h-2.37V275.35h7.7v-3.13h-10v-2.3h10.45c-.4-1-1-2.15-1.49-3.08l2.3-.68a28,28,0,0,1,1.92,3.76h9.46v2.3Z" fill="#ee8923"/>
            <path d="M305.92,281.51c-2.53,1.28-5.25,2.65-7.37,3.66l-.91-2.35c.91-.36,2-.83,3.28-1.37v-7.52h-2.78v-2.22h2.78v-5.1h2.17v5.1h2.55v2.22h-2.55v6.57c.76-.36,1.54-.71,2.32-1.06Zm4.89-3a11.13,11.13,0,0,1-.93,1.51h10.55s0,.58-.05.89c-.4,5-.78,7-1.46,7.77a2.22,2.22,0,0,1-1.52.71,20.16,20.16,0,0,1-2.52,0,4.75,4.75,0,0,0-.53-1.89,17,17,0,0,0,2,.1c.38,0,.58,0,.78-.28.38-.43.71-1.87,1-5.42h-1.52a17.43,17.43,0,0,1-5.07,7.67,7.31,7.31,0,0,0-1.69-1.31,14.64,14.64,0,0,0,4.79-6.36h-2a19.44,19.44,0,0,1-6,6.58,6.68,6.68,0,0,0-1.57-1.41,16.42,16.42,0,0,0,5.45-5.17h-2.12a18.07,18.07,0,0,1-3.1,2.7,13.24,13.24,0,0,0-1.59-1.47,13.57,13.57,0,0,0,4.77-4.64h-3.23v-2H321v2Zm8.43-3.21H307.58V267h11.66Zm-2.17-6.59H309.7v1.64h7.37Zm0,3.23H309.7v1.67h7.37Z" fill="#ee8923"/>
            <path d="M248.17,294.51c-.18.27-.38.53-.58.8a26.94,26.94,0,0,0,10.6,7,5.64,5.64,0,0,0-1.51,2,30.43,30.43,0,0,1-10.4-7.42,30.94,30.94,0,0,1-10.23,7.4,9.75,9.75,0,0,0-1.61-2c4.57-1.79,9.11-5.05,11.61-8.83ZM247.69,314H257v2.15H235.67V314h3v-9H241v9h4.24V300.69h2.47v5.53h7v2.09h-7Z" fill="#ee8923"/>
            <path d="M269.37,312.91a21.61,21.61,0,0,1-7.53,3.25,10.24,10.24,0,0,0-1.41-1.71,21.07,21.07,0,0,0,7.22-2.35Zm13.2-3.84v2h-9.95v5.86h-2.29V311h-9.8v-2h9.8v-1.51h-7.45v-1.77h7.45v-1.51h-8.69v-1.85h5.08a14.49,14.49,0,0,0-1.12-2.17l1.47-.35h-6.44V298h3.76a18.5,18.5,0,0,0-1.84-3.41l2.05-.7a17.7,17.7,0,0,1,2,3.61l-1.34.5h2.83V293.7h2.19V298h2.5V293.7H275V298h2.75l-1-.33a21.92,21.92,0,0,0,1.76-3.73l2.43.63a38.56,38.56,0,0,1-2.1,3.43h3.61v1.87h-6.61l2,.5c-.56.76-1.14,1.44-1.64,2h5.35v1.85h-8.94v1.51h7.75v1.77h-7.75v1.51Zm-14.67-9.16a10,10,0,0,1,1.19,2.22l-1.14.3h6.9l-.91-.28a20.83,20.83,0,0,0,1.41-2.24Zm7.62,12c2.23.81,5.31,2,7,2.83L281,316.14c-1.56-.78-4.64-2.12-6.94-3Z" fill="#ee8923"/>
            <path d="M292.76,294.41a41.23,41.23,0,0,1-2.32,5v17.47h-2.27V302.94a24.91,24.91,0,0,1-2.28,2.7,16.07,16.07,0,0,0-1.26-2.37,27.21,27.21,0,0,0,6-9.52Zm6.49,19.2a20.88,20.88,0,0,1-5.83,3.29,14.79,14.79,0,0,0-1.85-1.62,17.31,17.31,0,0,0,5.43-2.5Zm-.31-17h-5.88V295h5.88v-1.32h2.38V295h6.13v1.54h-6.13v1.06h5.52v1.49h-5.52v1.13h6.94v1.59H292v-1.59h7v-1.13h-5.27v-1.49h5.27Zm-5.07,15.9v-9.54h12.82v9.54Zm2.27-6.74h8.2v-1.29h-8.2Zm0,2.57h8.2V307h-8.2Zm0,2.63h8.2v-1.31h-8.2Zm7.42,1.69a34.11,34.11,0,0,1,4.8,3.18l-2.12,1.26a32.15,32.15,0,0,0-4.77-3.46Z" fill="#ee8923"/>
          </g>
          <g>
            <path d="M265.3,344.54c-27.87-3.43-49.8-27.45-49.8-57.19,0-29.36,21.93-53.76,49.8-56.81v-6.49c-31.59,3-55.74,30.51-55.74,63.3,0,33.17,24.15,60.24,55.74,63.67v-6.48Z" fill="#ee8923" fill-rule="evenodd"/>
            <path d="M278.27,224.05v6.49c27.42,3.05,49.28,27.45,49.28,56.81,0,29.74-21.86,53.76-49.28,57.19V351c31.12-3.43,55.21-30.5,55.21-63.67,0-32.79-24.09-60.25-55.21-63.3Z" fill="#ee8923" fill-rule="evenodd"/>
          </g>
        </g>
      </g>
    </g>
  </g>
</svg>
